<?xml version="1.0" encoding="utf-8" ?>
<svg baseProfile="full" height="300mm" version="1.1" viewBox="0,0,200,300" width="200mm" xmlns="http://www.w3.org/2000/svg" xmlns:ev="http://www.w3.org/2001/xml-events" xmlns:xlink="http://www.w3.org/1999/xlink"><defs /><rect fill="#222222" height="300" width="200" x="0" y="0" /><text fill="#FFFFFF" style="font-size:12px; font-family:Arial; font-weight:bold;" x="10" y="20">Over 3km Runs</text><text fill="#FFFFFF" style="font-size:4px; font-family:Arial" x="10" y="280">ATHLETE</text><text fill="#FFFFFF" style="font-size:9px; font-family:Arial" x="10" y="290">Melt</text><text fill="#FFFFFF" style="font-size:4px; font-family:Arial" x="120" y="280">STATISTICS</text><text fill="#FFFFFF" style="font-size:3px; font-family:Arial" x="120" y="285">Number: 9</text><text fill="#FFFFFF" style="font-size:3px; font-family:Arial" x="120" y="290">Weekly: 3.0</text><text fill="#FFFFFF" style="font-size:3px; font-family:Arial" x="141" y="285">Total: 29.0 km</text><text fill="#FFFFFF" style="font-size:3px; font-family:Arial" x="141" y="290">Avg: 3.2 km</text><text fill="#FFFFFF" style="font-size:3px; font-family:Arial" x="167" y="285">Min: 3.1 km</text><text fill="#FFFFFF" style="font-size:3px; font-family:Arial" x="167" y="290">Max: 3.8 km</text><polyline fill="none" points="53.90819988795556,82.55319694746868 52.78155799768865,83.5514628525998 49.24623344512656,85.82024039805401 48.70233736024238,86.09249290064326 48.430389317683876,86.13786830095341 48.197290995391086,86.04711749556009 48.00304239382967,85.82024039805401 47.420296588214114,84.3682241452334 47.10949882538989,83.14308162539965 46.410203858977184,81.37342516815988 46.02170665562153,79.9213939277688 45.20586252794601,77.87946671561804 44.97276420565322,76.7904349117016 44.42886812100187,75.79215333974571 43.457625111797825,73.11493224825244 43.341075950767845,72.34352647312335 43.53532455256209,71.8897577248863 43.574174272827804,71.61749624661752 43.26337651023641,71.027595786436 42.758330145385116,70.846087790007 42.60293126385659,70.70995674256119 42.447532382560894,70.39231746448786 41.12664189049974,66.76213765176362 40.89354356820695,65.94534297793871 40.66044524614699,65.4915674898657 40.621595525881276,65.26467956660781 40.69929496641271,64.99241390102543 40.58274580538273,64.4932597335719 40.077699440997094,63.812594027869636 39.80575139820576,63.131927246635314 38.95105755049735,60.04622434763587 38.67910950793885,59.32017339442973 38.601410067174584,58.77563437624485 38.40716146538034,58.23109466981259 37.669016778469086,56.18906463930034 37.008571532322094,54.555433644680306 36.23157712537795,52.28649142917129 35.80423020129092,51.197394920454826 35.415732997935265,50.51670820399886 35.33803355693817,49.9721580563928 35.066085514612496,48.88305569565273 35.066085514612496,48.42926223264658 34.949536353582516,48.0208477069682 34.75528775178827,47.34015597059624 34.172541946405545,46.160287745675305 33.90059390384704,45.43421338548069 33.66749558178708,45.11655546791735 33.47324697999284,44.980416288628476 32.54085369128734,45.16193518479122 31.763859284110367,45.43421338548069 31.06456431793049,45.615732090198435 30.404119071783498,45.84263036365155 30.093321308726445,46.069528517633444 29.70482410513796,46.47794489329681 29.549425224075094,46.56870403542416 28.92782969819382,46.614083599328296 29.12207829998806,46.65946315831388 29.199777740752324,46.56870403542416 29.199777740752324,46.432565315190004 28.92782969819382,45.57035242108395 28.267384452046826,43.074463261291385 27.801187807694077,40.85084073594771 27.33499116334133,39.44405320935766 26.63569619716145,36.76660618954338 26.32489843433723,35.26904381811619 26.130649832310155,33.77147623934434 26.09180011204444,33.22690491969115 26.169499552808702,33.0 26.441447595134377,33.13614296619198 26.7522453579586,33.68071440065978 27.140742561547086,35.042139974277234 27.723488366929814,36.7212255881459 27.917736968724057,37.719597714574775 28.92782969819382,41.30464218367706 29.199777740752324,42.57528369370266 29.70482410513796,43.80054159957217 30.015621868195012,45.252694604045246 30.404119071783498,45.34345400438178 31.64731012331322,45.252694604045246 31.996957606403157,45.34345400438178 33.08474977640435,46.2056673525949 33.43439725949429,46.75022226211149 33.78404474281706,48.20236532174749 34.32794082793407,49.29146940365899 34.75528775178827,50.471329051360954 35.299183836905286,52.42262829921674 35.84307992178947,53.9201310290955 35.998478803317994,54.69156979760737 36.58122460846789,55.916793237120146 36.8531726510264,56.8243639083812 37.39706873614341,58.14033798512537 37.70786649896763,59.27479516915628 38.56256034667604,61.5437005739077 38.71795922820456,62.17899194572237 39.30070503382012,63.85797177499626 39.33955475385301,64.22099358038395 39.10645643179305,64.85628100359463 39.10645643179305,65.08316914195893 39.30070503382012,65.40081233487581 39.88345083897002,65.94534297793871 40.69929496641271,67.85119480776484 40.81584412767552,68.35034508412355 41.16549161076546,69.07638081704499 41.7870871364139,71.11834975585225 41.748237416148186,71.29985763767036 41.59283853485249,71.61749624661752 41.67053797538392,71.93513462130795 41.90363629744388,72.38890332175652 42.330983221530914,72.75191793797421 42.48638210305944,72.933425131283 43.26337651023641,74.61236304481281 43.76842287462205,76.15516508818837 44.00152119691484,76.69968213720131 44.00152119691484,77.47108011177625 44.661966442829,78.65086257780786 46.177105536684394,83.50608717979048 46.33250441821292,84.14134616384399 47.10949882538989,86.04711749556009 47.187198266154155,86.54624668919132 47.03179938485846,86.8638740570168 47.03179938485846,86.95462469034828 47.187198266154155,87.0 47.38144686818123,86.95462469034828 48.197290995391086,86.50087133178022" stroke="#4dd2ff" stroke-linecap="round" stroke-linejoin="round" stroke-width="0.5"><title>2023-07-19 3.3km</title></polyline><polyline fill="none" points="122.06745149753988,79.59426414163318 122.06745149753988,79.18607109569712 121.76789333228953,78.89450445002876 121.11885064118542,78.77787774882745 120.61958703259006,78.89450445002876 119.67098617646843,79.3610110093723 116.52562544238754,81.5185987331788 114.07923376071267,82.97642351628747 112.4815902132541,84.2009933674708 110.43460941803642,85.6004984525498 109.73564036632888,85.89206156658474 109.43608220131136,85.77543633955065 109.18645039689727,85.54218581120949 108.63726042746566,84.2593061500811 107.08954324107617,78.60293765075039 105.89131058054045,75.39569272508379 105.74153149779886,74.75424151035259 105.79145785886794,74.05447570123943 104.6431515594013,72.3050573085784 103.44491889863275,69.09777589770965 103.24521345528774,68.28137402638094 103.24521345528774,67.93148714140989 103.44491889863275,67.34834184177453 103.39499253802933,66.99845436715987 103.14536073384807,66.41530808486277 102.99558165110648,66.29867875477066 102.49631804251112,66.06542002072092 102.29661259916611,65.77384646481369 101.7474226297345,63.84945714485366 101.09837993863039,62.333266908535734 100.49926360836253,60.70044201024575 100.14977908250876,58.892665969149675 100.14977908250876,58.251195632328745 99.40088366949931,57.084884024516214 98.7518409783952,55.743622637877706 96.25552293565124,48.68736790877301 95.75625932728872,46.70460245787399 95.0073639145121,44.605196003976744 94.75773211033083,43.613806855282746 94.05876305815764,41.74765775853302 93.4596467281226,39.8231849129661 93.16008856287226,38.773469631618354 93.0103094803635,37.723752359626815 92.66082495404407,36.49907969275955 92.01178226317279,35.332722253049724 91.21296048979275,34.166362355288584 90.66377052012831,33.11663634626893 90.3642123551108,33.0 89.56539058126509,33.0 88.71664244681597,33.23327266779961 88.06759975594468,33.29159081930993 87.5683361471165,33.408227103878744 86.37010348658077,34.04972623032518 84.42297541326843,35.68262974295067 82.22621553600766,36.5573975003208 78.98100208025426,37.723752359626815 78.08232758496888,38.24861124437302 77.93254850246012,38.540199298702646 77.93254850246012,38.773469631618354 78.18218030664138,40.17308956437046 78.23210666747764,41.106167553400155 78.33195938915014,41.51438867900288 78.78129663690925,42.33083002700005 79.38041296717711,42.50578158785356 81.22768831881694,42.09756119339727 85.62120807403699,40.58131137810415 88.16745247738436,39.53159753448563 91.01325504621491,38.773469631618354 91.41266593290493,38.71515205752803 91.71222409815527,38.89010476123076 93.50957308895886,43.38053856207989 94.70780574926175,46.76291919010691 96.00589113146998,50.145279150572605 96.60500746173784,52.244664593134075 96.7547865442466,53.46930242446251 97.45375559618697,55.04383279813919 98.20265100919642,57.43477776477812 98.20265100919642,58.77603505406296 98.65198825695552,59.53413556271698 99.10132550448179,59.82571240485413 99.25110458699055,60.058973768143915 100.74889541277662,63.907772071135696 100.89867449528538,64.6658655522624 101.44786446471699,66.0071053217398 101.49779082555324,66.41530808486277 101.49779082555324,66.64856667153072 101.19823266030289,67.17339813220315 101.19823266030289,67.46497095085215 101.59764354722574,68.28137402638094 102.24668623832986,68.80620393902063 102.84580256859772,70.0891194086289 103.99410886806436,73.0048253290006 104.1938143116422,73.76290635304758 104.1938143116422,74.40435871633235 104.24374067247845,74.69592772674514 104.89278336334974,75.86220223264536 105.79145785886794,78.19474387390073 106.14094238495454,79.3610110093723 108.33770226244815,85.54218581120949 108.4874813449569,86.35856222972507 108.2877759016119,86.8250625000801 108.2877759016119,86.94168750598328 108.43755498435348,87.0 108.68718678853475,86.94168750598328 109.68571400572546,86.35856222972507 111.73269480047747,84.90074635227211 113.0307801826857,83.79280371806817" stroke="#4dd2ff" stroke-linecap="round" stroke-linejoin="round" stroke-width="0.5"><title>2023-07-18 3.1km</title></polyline><polyline fill="none" points="180.13960404112004,80.27925880555995 178.80027076718397,81.4380131457001 178.05619672662579,81.72770134912571 176.56804864457808,82.77057761885226 175.7247647314798,83.17614007863449 174.93108575465158,83.87138931429945 174.03819690528326,84.3928256642539 172.2028142712079,85.84125737624709 171.65715997456573,86.18888041970786 171.0122958056163,85.03013608738547 170.16901189251803,82.77057761885226 170.02019708463922,81.95945180230774 169.57375266007148,81.20626247290056 169.32572797941975,79.75781855615787 168.53204900282435,76.860919280909 168.0359996422194,75.41246392211178 168.0359996422194,74.89101905922871 167.83757989760488,74.7172039950965 167.4903453453444,73.79018939216621 166.64706143224612,71.99409415287664 166.10140713560395,70.37180954089854 165.45654296665452,69.03921503038146 165.3573330945801,68.34394704771694 165.80377751914784,67.88043457083404 165.2085182867013,66.54783402441535 164.61325905378908,66.60577324562473 164.1172096929513,65.09935150755337 164.0676047571469,64.34613909141626 163.3731356523931,62.89765077678021 162.72827148321085,61.44915864727227 162.23222212283872,59.24744330497924 162.18261718656868,58.668043065757956 161.04170365724713,56.98777892056387 160.6944691047538,55.59721160819754 159.85118519165553,53.337532227276824 159.70237038377672,52.52636300533777 159.35513583105057,51.94695568608586 159.4047407670878,51.30960692948429 159.00790127855726,50.498434716893826 158.85908647044562,49.8031432966236 158.51185191818513,49.1078509974177 158.36303710984066,48.4125578191597 157.96619762154296,47.775204966950696 157.6189630688168,46.964027541398536 156.6268643476069,44.298721862141974 156.32923473138362,43.19783096440369 155.9323952428531,41.51751955598593 155.43634588248096,40.06897111795843 155.03950639395043,38.56247669499135 155.13871626602486,38.09893911931431 154.14661754481494,36.070957631687634 153.89859286416322,35.433590476750396 153.94819780020043,34.79622258327436 153.05530895129777,33.0 150.77348189265467,33.34765644161962 149.53335849079303,33.75325534597505 148.24363015335985,34.390624448191375 147.40034624026157,35.31770546018379 146.95390181569383,35.31770546018379 146.8546919436194,35.78124538017437 146.40824751905166,36.01301519363187 143.7791859076824,37.05597814550856 141.15012429654598,37.69334342004731 140.50526012759656,38.09893911931431 140.10842063906603,38.73630318505457 140.2572354474105,40.300739124417305 139.86039595887996,40.93810063850833 140.80288974381983,42.792239025526214 142.24143288983032,43.02400588442106 144.62246982078068,42.38664678751957 146.6066672632005,41.69134511210723 149.53335849079303,40.41662309109233 150.17822265974246,40.24279713194119 153.10491388756782,39.08395600068616 153.55135831190273,39.19984022382414 154.49385209707543,41.227810173644684 154.64266690518707,41.981054250500165 155.13871626602486,43.3716559894965 155.73397549870424,44.6463711616816 155.8827903070487,45.34166910103522 157.02370383613743,48.23873438715236 157.12291370844468,48.93402778520249 157.4205433249008,49.62932030425873 158.06540749338455,51.77313337114174 159.70237038377672,56.64013742207317 159.90079012769274,57.39336039108457 159.80158025585115,58.03070209780708 159.90079012769274,58.436282799288165 160.00000000023283,58.61010300827911 159.9503950639628,58.95774326159153 160.14881480811164,59.53714319563005 160.84328391309828,60.00066270341631 160.99209872144274,60.63800138863735 161.53775301785208,62.08649565419182 161.93459250638261,62.83971116470639 162.62906161136925,64.75171513610985 163.17471590801142,65.9684414753574 163.3731356523931,66.66371246083872 162.67866654740646,66.89546926086769 163.1251109719742,68.22806896496331 163.76997514045797,68.45982510584872 164.36523437360302,69.85035989951575 164.81167879793793,70.42974835948553 165.95259232725948,73.44255851313937 165.95259232725948,74.1378200512845 165.80377751914784,74.60132725519361 166.5478515601717,75.52834049117519 166.94469104870223,76.74504299252294 167.2423206649255,77.44030035659671 168.58165393886156,81.20626247290056 168.68086381070316,81.90151419816539 169.32572797941975,83.34995247004554 169.97059214836918,85.60950855875853 170.21861682855524,86.4785661213682 169.87138227629475,86.65237746905768 169.87138227629475,87.0 170.41703657293692,86.94206292682793 171.06190074165352,86.65237746905768 171.5579501024913,86.24681757221697 172.10360439913347,86.0150689255097 173.29412286449224,84.9721988067613 173.88938209717162,84.62457499443553 174.83187588234432,83.81345191167202 175.47674005129375,83.6975770877907 176.12160422001034,83.46582736703567" stroke="#4dd2ff" stroke-linecap="round" stroke-linejoin="round" stroke-width="0.5"><title>2023-07-15 3.1km</title></polyline><polyline fill="none" points="43.98636414879002,161.1285268595675 43.384648805717006,159.1958073055721 43.28436291520484,158.25872873980552 43.484934695996344,157.6144863095251 43.33450586046092,157.02881072548917 43.0837911341805,156.67740507883718 42.431932845385745,156.32599921000656 42.13107517361641,155.6817545404192 41.479216885287315,153.6318801708403 40.4763579799328,151.11345274205087 40.075214417884126,149.35640359425452 40.22564325365238,148.77071931090904 40.12535736290738,148.4778769381228 39.3230702385772,147.18936866434524 38.01935366145335,144.14379178336821 35.6626352337189,137.34975246613612 34.2084898208268,132.72272988723125 33.25577386072837,130.37991895875894 32.854630298446864,128.5642336983001 32.754344407934695,127.21710854407866 32.60391557216644,126.8071132840123 31.901914338348433,125.40141295385547 31.250056049786508,124.8157034337637 31.04948426876217,124.52284844231326 30.5480548159685,123.29285579378484 30.19705419894308,123.05857117107371 29.4950529653579,123.0 26.43633330357261,123.8199958333862 26.18561857729219,123.99570906901499 25.684189124265686,124.52284844231326 25.333188507705927,124.75713244784856 24.129757821094245,124.99141635443084 24.380472547374666,125.04998731584055 24.280186656629667,125.284271099139 24.230043711606413,125.284271099139 24.33032960211858,125.16712921985891 24.17990076635033,125.284271099139 24.17990076635033,125.16712921985891 24.53090138314292,125.04998731584055 24.631187273887917,125.22570016252575 24.53090138314292,125.40141295385547 24.17990076635033,125.69426748238038 22.77589829871431,126.27997607685393 18.864748567342758,127.62710350181442 17.962175552500412,127.97852751065511 17.611174935707822,128.27138068177737 17.510889045195654,128.44709251029417 17.761603771476075,129.09136873984244 18.112604388268664,131.08276327408385 18.413462060038,131.90274718531873 18.864748567342758,132.37130887730746 19.566749801160768,132.48844923858996 20.31889398023486,132.37130887730746 22.52518357220106,131.43418509850744 23.778757204301655,130.96562261652434 25.232902616960928,130.7313412274816 26.386190358549356,130.32134855911136 27.790192825719714,129.96992603124818 30.397625979967415,129.14993926900206 31.199913104530424,129.03279820439639 31.50077077629976,129.09136873984244 31.651199612068012,129.26708030916052 32.0022002288606,129.96992603124818 32.60391557216644,131.60989592736587 33.105345024727285,132.66415973438416 33.456345641752705,133.77699158410542 33.60677447752096,134.71411141374847 34.158346875570714,135.70979950216133 34.81020516413264,137.40832212549867 35.76292112423107,140.68821319547715 36.61535119381733,143.32382592646172 37.06663770135492,144.20236072695116 38.069496606942266,147.77505461353576 37.818781880429015,148.41930844495073 37.8689248256851,148.88785621710122 38.169782497221604,149.29783519374905 38.87178373103961,149.88351892161882 39.92478558188304,152.51908806234132 40.426215034443885,153.92471982934512 40.67692976118997,154.8032378788339 41.027930377749726,155.62318680610042 41.32878804951906,156.50170217221603 41.32878804951906,156.85310792987002 41.128216268494725,157.3216485947487 41.228502159006894,157.67305383412167 41.6296457212884,158.4344310911838 42.13107517361641,158.90297042345628 42.33164695487358,159.1958073055721 43.234219969948754,162.24130173720187 43.88607825827785,163.76404269761406 43.98636414879002,164.75967876327923 44.38750771083869,165.52104631625116 44.888937163865194,166.106712955283 45.139651890145615,167.10234482598025 46.894654974807054,171.90477939887205 48.34880038769916,176.59004144894425 48.29865744221024,176.76573800796177 47.94765682565048,177.0 48.449086278211325,176.94143451127457 49.30151634803042,176.4729103789432 50.95623354171403,175.3601639820845 52.811522517120466,173.954586403328 53.864524367498234,173.54462560702814 55.11809799959883,172.60757122316863 57.37453053658828,171.02628836937947 58.577961223432794,169.9720973020303 59.73124896455556,169.09360321919667 60.03210663609207,168.97647056978894 60.583679034374654,169.0350368975778 61.486252049217,168.7422051973408 61.887395611265674,168.7422051973408 62.08796739252284,168.8593378958758 62.4389680090826,169.5621335693868 62.489110954571515,169.79639859637246 62.4389680090826,169.9720973020303 61.28568026795983,170.79202386038378 58.77853300445713,172.1390434388304 59.530677183531225,172.84183496708283 59.48053423827514,173.07609861233504 59.58082012855448,173.3103621591581 59.02924773073755,172.60757122316863 59.38024834776297,173.54462560702814 59.430391292786226,173.3103621591581 59.27996245701797,173.1932303979993 59.22981951199472,172.95896680210717 59.33010540227406,172.19760943355504" stroke="#4dd2ff" stroke-linecap="round" stroke-linejoin="round" stroke-width="0.5"><title>2023-07-14 3.8km</title></polyline><polyline fill="none" points="120.8812749220524,168.99603784945793 120.13640185678378,169.40203873050632 117.05759318824857,171.7800378795364 115.71682167123072,172.99803346669069 114.77331578894518,173.40403139719274 112.04211455048062,175.55001548543805 110.85031764651649,176.24600852892036 110.45305201178417,176.01401094539324 109.80749535560608,174.91202108940342 109.41022972087376,173.57803041866282 109.06262229057029,173.05603318940848 108.96330588194542,172.53403546538902 108.26809102133848,170.50403961288976 108.0694582038559,169.75003924733028 107.57287616073154,168.3000356426346 107.42390154767781,167.60403255623532 106.8776613001246,166.21202374406857 106.7783448912669,165.51601801847573 106.38107925653458,164.76201082294574 106.33142105233856,163.892001237371 105.63620619149879,162.78998712264 105.04030773974955,161.45596708520316 104.891333126463,160.70195433014305 104.44440928730182,159.48393154481892 104.34509287890978,158.84591853432357 104.3947510831058,158.14990349806612 104.59338390058838,157.7438943205634 104.34509287890978,157.04787789128022 103.84851083555259,156.64186790108215 103.30227058799937,156.29385910002748 102.45808111433871,153.6837860799278 102.11047368403524,153.04576634895056 101.36560061876662,150.84169249841943 101.067651392892,149.50764351326507 101.3159424145706,148.8116166727268 101.01799318846315,148.28959596488858 100.27312012342736,147.41956035216572 99.27995603671297,145.27346662903437 98.58474117610604,143.01135878433706 98.08815913298167,141.7932968645473 97.93918451992795,141.0392571828561 95.6052489161957,134.07884212769568 95.40661609871313,133.32479188073194 94.71140123810619,131.41065969219198 94.36379380780272,130.83061832131352 94.3141356036067,130.1345678695361 93.86721176467836,128.68445993505884 93.91686996887438,128.04641123395413 93.76789535582066,127.40836179349571 93.12233869964257,126.07425602816511 91.88088359124959,125.43620430195006 92.12917461292818,123.98608399246586 91.78156718262471,123.0 90.98703591316007,123.058004989638 87.51096161012538,124.04408887814498 85.9218990711961,125.66822319704806 85.37565882341005,126.01625135639915 83.93557089800015,126.59629779972602 79.86359814251773,127.93040229973849 79.11872507771477,130.0185593753704 79.26769969053566,130.30858056497527 79.16838328191079,130.88862248597434 79.21804148610681,131.64267606951762 79.46633250778541,132.51273661357118 80.11188916419633,132.80275648931274 80.90642043342814,132.8607604461722 83.78659628494643,131.75868422153872 86.17019009287469,131.1786432171939 90.14284643949941,129.84454658813775 91.58293436537497,129.14849488972686 92.32780743017793,128.97448182763765 92.6754148604814,129.43851653760066 93.07268049521372,130.07656362542184 93.37062972108833,130.7726141505409 93.51960433414206,131.46866379585117 94.11550278635696,132.74475252628326 94.214819194749,133.4988035678398 94.51276842085645,134.13684595015366 94.71140123810619,134.77488759323023 95.10866687283851,135.35492480848916 95.25764148589224,136.1089722752804 95.7542235290166,137.44305372488452 96.3501219812315,139.53117472142912 97.09499504626729,141.50328172469744 97.24396965932101,142.19931780395564 98.08815913298167,144.40342625009362 98.2371337460354,145.15746132459026 99.13098142389208,147.82557714253198 98.68405758496374,148.17359129607212 98.88269040221348,148.9276212073164 99.13098142389208,149.39163910102798 99.5282470586244,149.62364790117135 99.82619628449902,150.0296630662633 100.76970216701739,152.11773632938275 101.3159424145706,153.50978077208856 101.56423343601637,154.7278167727054 101.96149907121435,155.36583455483196 102.45808111433871,156.6998693466885 101.96149907121435,157.10587929392932 102.16013188823126,157.85989697329933 102.40842290990986,158.3819086078438 103.00432136189193,158.729916089389 103.69953622249886,160.7599553479813 104.29543467448093,162.15197794279084 104.4940674919635,162.78998712264 104.94099133065902,163.48599629377713 104.94099133065902,164.2400052366429 105.23894055676647,165.28401591436705 105.58654798730277,165.57401852909243 106.13278823485598,167.08202966401586 107.27492693462409,169.9820394697599 107.47355975187384,170.73603951768018 107.72185077355243,171.43203864549287 107.87082538637333,172.1280368937296 109.26125510805286,176.53600537066814 108.71501486026682,176.82600205973722 109.01296408637427,177.0 110.30407739896327,176.30400790955173 111.4958743029274,175.55001548543805 113.3828860677313,174.0420275402139 114.1277591327671,173.81002902821638" stroke="#4dd2ff" stroke-linecap="round" stroke-linejoin="round" stroke-width="0.5"><title>2023-07-14 3.2km</title></polyline><polyline fill="none" points="179.91560638998635,170.90442079264903 179.32478493941016,171.0769381209975 178.43855276377872,171.53698406374315 177.20767474221066,172.45707478601253 176.46914792922325,172.85961398942163 175.73062111623585,173.03213070018683 175.2382699076552,173.66469150595367 174.4997430946678,174.12473526841495 173.81045140256174,174.69978942594025 173.21962995221838,174.98731627763482 172.62880850187503,175.67738010408357 171.79181144712493,175.96490644081496 171.25022511766292,175.27484297810588 170.85634415061213,174.52727324236184 170.6101685462054,173.7797024830361 170.31475782115012,172.3995691614109 169.87164173345082,171.59448977926513 169.77317149168812,170.90442079264903 169.42852564551868,170.27185678866226 169.42852564551868,169.69679796713172 168.7392339531798,168.31665432441514 168.59152859076858,167.569075061474 167.853001778014,165.55635657266248 167.80376665689982,164.6362542208517 167.5575910527259,164.0036829544115 166.8190642397385,163.02607137378072 166.3267130306922,161.70341762539465 165.8835969432257,160.20823996444233 165.243540372001,158.94308643753175 165.29277549288236,158.19549433892826 165.58818621817045,157.79294432338793 165.3420106137637,156.98784340190468 164.2096028337255,156.41277058806736 164.01266235020012,155.4926528261276 163.52031114161946,154.0549657184747 163.1264301748015,152.73229023558088 162.53560872445814,151.35210370627465 162.3879033618141,150.719517047517 162.43713848246261,150.14443763071904 162.14172775740735,149.4543415309745 162.24019799940288,149.16680123202968 162.09249263675883,148.64922831213335 161.8463170323521,148.24667125742417 161.30473070265725,147.8441139056813 160.61543901078403,145.83132269512862 160.36926340637729,145.371255090693 159.9753824393265,144.10606717935298 159.7784419558011,142.8408763355692 159.4337961098645,142.3232974181883 159.28609074745327,141.69070029701106 158.89220978040248,140.42550385539653 157.90750736324117,137.72257436084328 157.56286151707172,136.34234988258686 156.77509958320297,133.7544195795199 155.74116204492748,131.28149693773594 155.5442215616349,130.64888702059397 155.44575131963938,129.90125617326703 155.15034059458412,129.1536243018927 154.85492986929603,128.63603240653174 154.90416499017738,128.06092972517945 153.82099233125336,125.76051293965429 153.77175721037202,124.43776889814762 152.93476015562192,123.0 151.60541189229116,123.51759723958094 149.68524217838421,123.92017253109952 148.45436415681615,124.55279024638003 147.96201294800267,125.30042841925751 147.1250158934854,125.53047072782647 146.8296051681973,125.99055505444994 143.3339115867857,127.5433367936057 140.08439361001365,128.69354264147114 140.28133409307338,129.78623595210956 140.23209897219203,131.45402678789105 140.57674481836148,132.14414564339677 140.72445018100552,133.06430275994353 141.46297699399292,133.35185154073406 143.53085207031108,132.37418506795075 145.05714081716724,131.85659622622188 146.38648908073083,131.28149693773594 147.1250158934854,131.33900689380243 148.55283439881168,130.8789270753041 149.48830169509165,130.36133681592764 150.86688507930376,130.07378645980498 151.40847140876576,129.78623595210956 152.88552503474057,129.26864465663675 153.47634648508392,129.26864465663675 154.21487329807132,130.53386695688823 154.4118137813639,131.22398697567405 155.34728107810952,133.1793222904671 155.69192692404613,134.55955476639792 155.9873376491014,135.192160151375 156.57815909967758,137.08997190813534 156.9228049456142,137.72257436084328 157.56286151707172,139.73539546941174 157.95674248388968,141.05810244270833 158.64603417599574,143.0134025325533 158.99068002216518,144.3361015630653 159.483031230513,145.54378048784565 159.8769121975638,146.69394840847235 159.92614731844515,147.32653973181732 160.2707931646146,147.95913032226963 160.0738526810892,148.24667125742417 160.02461756044067,148.70673643861664 160.36926340637729,149.33932542958064 161.05855509848334,150.02942167466972 161.3539658235386,150.719517047517 161.69861166994087,151.98468963202322 162.58484384510666,153.88244301103987 162.88025457039475,155.26262314332416 163.4218409000896,156.47027789667482 163.1264301748015,157.62042279721936 163.4218409000896,158.31050857465016 164.25883795460686,159.23062158736866 164.75118916342035,160.61078819906106 164.8988945260644,161.18585659074597 165.3420106137637,161.8759378612158 165.83436182234436,163.31360437342664 166.03130230586976,164.0036829544115 165.785126701463,164.57874777232064 166.52365351468325,165.67136925761588 167.11447496479377,167.05151958734496 167.80376665689982,169.12173853995046 168.09917738218792,169.69679796713172 168.19764762395062,170.32936263736337 168.4930583492387,170.96192657476058 168.93617443693802,172.34206353046466 169.52699588728137,174.2972515792353 169.67470124992542,174.92981091950787 170.01934709586203,175.61987481848337 170.11781733762473,176.36744305799948 169.67470124992542,176.82748454314424 170.21628757938743,177.0 171.4471656009555,176.30993784521706 172.67804362252355,175.4473589254776 173.90892164432444,174.23974614823237 175.18903478677385,173.49217499542283 175.82909135799855,173.31965843011858" stroke="#4dd2ff" stroke-linecap="round" stroke-linejoin="round" stroke-width="0.5"><title>2023-07-13 3.1km</title></polyline><polyline fill="none" points="61.429330121027306,259.17843992169946 61.03249067417346,259.5840050299885 60.73486108938232,259.69988072040724 60.5364413659554,259.98956983938115 59.4451328876894,260.22132102469914 56.76646662247367,261.66976372076897 54.03819542657584,263.2920150124701 52.5996524321381,264.3348883164581 51.40913409227505,265.43569688138086 50.764269991312176,265.8412573763053 50.36743054469116,265.78332018112997 49.970591097837314,265.2618851492298 49.22651713551022,263.2920150124701 48.780072757741436,261.7277013491839 46.99429524759762,256.6871048393077 46.299826215952635,253.906066303025 46.10140649275854,253.5004970083828 45.65496211498976,253.03698887687642 45.30772759928368,252.4576031633187 44.613258567638695,251.18295244517503 44.41483884421177,250.31387071649078 44.16681419010274,249.67654324276373 44.1172092591878,248.8653981172829 44.26602405146696,248.28600800951244 44.26602405146696,247.76455639093183 44.017999397590756,246.77959087333875 43.42274022754282,246.77959087333875 43.02590078068897,246.0843200343079 42.083407094702125,243.36116745282197 41.68656764808111,242.60795265622437 41.14091340894811,241.15945976402145 41.04170354758389,240.40624195249984 40.74407396232709,239.76890299853403 40.84328382392414,239.18950330879306 41.14091340894811,238.61010300857015 41.04170354758389,238.32040262955707 40.04960493044928,237.62512109737145 39.75197534565814,236.9298386865412 39.60316055291332,236.29249570413958 38.56145700532943,233.2795916085015 38.01580276619643,232.2946001512464 37.12291401159018,228.87608670257032 36.82528442656621,228.18079323135316 36.32923511788249,226.67432102822931 35.386741432128474,224.41460498666856 35.18832170870155,223.60342260450125 34.84108719276264,222.8501807496068 34.493852677056566,221.40163582167588 33.99780336860567,220.76427484455053 33.898593506775796,220.12691312894458 33.700173783814535,219.37366651260527 33.45214912923984,218.85218748165062 33.30333433696069,217.46157431480242 32.90649489033967,216.186842489813 32.559260374400765,214.91210770996986 31.964001204352826,213.34765644167783 31.219927241792902,213.0 30.42624834855087,213.23177098558517 28.590865907492116,213.5214845802402 27.301137705799192,214.100911311456 26.656273604603484,214.73828001104994 25.267335541313514,215.83918784279376 23.828792547108606,216.5344969170401 21.348546005319804,217.40363202325534 20.505262181162834,217.7512856813264 18.570669878739864,221.22781017393572 18.66987974033691,221.63340326654725 18.91790439421311,222.2707632361562 19.314743840834126,222.79223902581725 20.05881780362688,222.79223902581725 20.852496697101742,222.6763555596117 26.557063743006438,220.99604255793383 28.094816599041224,220.41662309120875 28.838890561601147,219.9530870783492 29.5829645243939,219.77926097268937 31.219927241792902,219.14189811539836 32.013606135267764,219.0260138801532 32.36084065097384,219.4895506746252 33.05530968261883,220.8801587135531 34.44424774614163,224.35666342754848 34.64266746956855,225.2257861723774 35.18832170870155,226.67432102822931 35.78358087874949,228.7602045185049 36.13081539445557,229.39755622908706 36.27963018720038,230.1507891169167 36.6764696338214,230.7881392161944 36.97409921884537,232.17871868715156 37.27172880386934,232.93194776616292 37.42054359614849,233.6851758135017 37.866987973684445,234.4384028292843 38.164617558941245,235.77103271492524 38.759876728989184,237.21953979774844 38.85908659058623,237.91482184268534 38.56145700532943,238.37834271753673 39.10711124469526,239.24744330515387 39.95039506908506,240.00066270359093 40.29762958479114,241.27533933578525 41.14091340894811,243.30322788952617 41.48814792511985,244.75171513622627 42.331431749043986,246.77959087333875 41.48814792511985,246.8954692610423 41.48814792511985,247.64867818623316 41.835382440593094,248.28600800951244 42.629061334067956,248.57570313982433 43.17471557343379,250.1400542060146 43.5715550200548,250.71944236085983 44.067604328505695,252.10997144214343 44.41483884421177,252.80523466476006 44.6628634983208,253.5004970083828 44.6628634983208,254.2536968891509 45.2085177374538,255.3545256285579 45.50614732247777,255.70215529913548 45.90298676909879,257.2664860980585 47.29192483262159,261.0324494043598 47.440739625366405,261.78563897154527 47.73836921015754,262.53882750764024 48.1848135876935,263.9293267109315 48.33362838020548,264.68251231173053 48.780072757741436,266.13094326102873 48.532048103632405,266.5944403593312 48.532048103632405,267.0 49.17691220436245,267.0 51.061899576336145,265.78332018112997 52.996491878759116,264.3348883164581 54.03819542657584,263.63963966665324" stroke="#4dd2ff" stroke-linecap="round" stroke-linejoin="round" stroke-width="0.5"><title>2023-07-11 3.2km</title></polyline><polyline fill="none" points="118.57658975757658,261.2948089094134 118.23120827437378,261.6405797599 117.09638340235688,262.1592356257024 116.80034213094041,262.5050059299683 115.96155853010714,263.25417417276185 115.61617704713717,263.3118024565629 114.67871302226558,264.0609695946914 113.83992942073382,264.5796231664135 112.31038285396062,265.8474409384653 111.52093946444802,266.1932089118054 110.87951671052724,265.61692883458454 110.23809395660646,264.2338541732752 109.94205268542282,263.02366097655613 109.59667120291851,262.27449241821887 109.30062993173487,260.71852367318934 108.36316590686329,257.8370883867028 108.21514527127147,256.97265484166564 107.8697637883015,256.2811070223106 107.52438230556436,255.01326708309352 107.32702145818621,254.55223364959238 107.17900082259439,254.03357057250105 106.43889764510095,252.93861357297283 106.29087700974196,252.18943120539188 105.74813467939384,250.8063226005761 105.4027531966567,250.17239665496163 105.0573717134539,248.90454255999066 105.10671192524023,248.27061441080878 105.30407277261838,247.69431545579573 105.0080315019004,247.0027559088776 104.71199023071676,246.65697580738924 104.16924790036865,246.42645561834797 103.03442302811891,243.19916277355514 101.99827857967466,240.7786806463846 102.04761879146099,240.2023737995769 101.70223730849102,239.4531739911763 101.99827857967466,239.16501994553255 101.85025794408284,238.9344965997152 101.89959815586917,238.76160402665846 101.80091773206368,238.76160402665846 101.45553624955937,238.1852950549801 101.06081455433741,237.89714034151984 100.61675264802761,237.2055684099323 99.38324735197239,233.57480142597342 99.33390714041889,232.7679610461346 99.03786586923525,232.30690886633238 98.93918544542976,231.6729614844662 98.59380396269262,230.92374999506865 98.34710290329531,230.17453747970285 98.29776269150898,229.36769208480837 97.85370078496635,228.56084549985826 97.60699972580187,227.17767715727678 97.06425739568658,225.67924083961407 96.37349442997947,223.54684361850377 95.78141188784502,222.22129521047464 95.68273146427236,221.47207077644998 95.3373499813024,220.83811083843466 95.13998913392425,220.26178298465675 94.79460765095428,218.993859568669 94.64658701559529,217.95646549703088 94.25186532083899,217.2648683563457 94.1531848970335,215.1900716876262 93.80780341429636,214.8442714777193 93.46242193132639,213.97976999671664 92.96901981299743,213.2881678281119 92.42627748288214,213.0 88.52840074757114,214.44083762320224 88.03499862900935,214.8442714777193 87.64027693448588,215.47823836212046 87.04819439235143,215.766404885042 86.65347269759513,215.42060503945686 81.42341024265625,222.85525354539277 87.93631820543669,220.5499469874194 88.72576159471646,220.14651734096697 89.41652456042357,219.97361883008853 90.15662773814984,219.62782164401142 93.01836002501659,218.93622661626432 93.61044256668538,219.28202423948096 94.4492261679843,221.24153997487156 95.18932934571058,223.66210854565725 95.48537061666138,224.2384328173357 95.92943252343684,226.08266640588408 96.42283464153297,227.23530924145598 96.76821612473577,228.38794964842964 97.36029866687022,229.5982194620301 97.45897909044288,230.17453747970285 97.80436057341285,230.7508548903279 97.90304099698551,231.3848033407703 98.93918544542976,234.32400928472634 99.43258756399155,236.11057773028733 99.72862883494236,236.74451997003052 100.024670106126,237.95477129641222 99.72862883494236,238.53108051081654 99.9259896823205,238.76160402665846 100.12335052969866,239.33791239111451 100.3207113770768,239.68369711842388 100.86345370742492,239.8565894002677 101.06081455433741,240.60578865616117 102.09695900324732,243.02627154823858 102.63970133336261,244.92807202221593 102.98508281633258,245.44674373156158 103.57716535846703,246.7722358655301 102.63970133336261,247.2909058262012 103.33046429930255,248.50113382283598 103.9718870529905,248.7316531377146 104.56396959512495,250.05713731318247 104.66265001893044,250.6910633923835 105.94549552653916,253.8606827708427 105.5507738320157,254.60986285004765 105.8468151029665,254.8403795910417 106.53757806844078,255.93533278477844 106.73493891605176,256.6268810412148 108.01778442389332,259.96935195848346 108.85656802519225,262.62026264949236 109.4486505673267,263.94571317883674 109.79403205006383,265.4440446931985 110.04073310946114,266.0779529448482 109.74469183851033,266.5966046046233 109.69535162649117,266.884744203242 110.09007332101464,267.0 110.87951671052724,266.6542325365008 112.65576433669776,265.67455686972244 114.13597069168463,264.6372513106908 114.67871302226558,264.1185977936839 115.36947598773986,263.772828509158 116.30694001284428,262.90840434195707 117.44176488509402,262.21686402498744 117.9351670036558,261.8134651031578" stroke="#4dd2ff" stroke-linecap="round" stroke-linejoin="round" stroke-width="0.5"><title>2023-07-07 3.1km</title></polyline><polyline fill="none" points="177.6682002551388,263.6179916828405 176.49032023828477,264.36318176134955 176.04861523164436,265.05104862048756 174.62534354440868,266.0255251825438 174.37995187425986,266.0255251825438 174.08548186998814,265.7962367365835 173.44746352755465,264.9937264153268 172.90760185336694,263.6179916828405 172.76036685123108,262.8728005842422 171.926035172306,261.3824153256137 171.7788001699373,260.52257581986487 171.43525183177553,259.834703237284 170.69907682132907,257.71375730086584 169.96290181064978,254.96224755299045 169.5211968042422,253.70113426924217 168.09792511700653,250.43369080347475 167.95069011463784,249.6311578284367 167.558063442586,248.37003219104372 167.90161178074777,247.7967922986718 167.70529844472185,246.99425543501275 167.26359343831427,246.5356624100823 166.8218884319067,246.4783382549067 166.52741842763498,245.79044792061904 166.4783400935121,245.10255671659252 166.18387008924037,244.47198901581578 165.7912434169557,243.95606944448082 165.69308674894273,243.15352691692533 165.2023034086451,242.46563237981172 164.90783340414055,241.7204123166157 164.71152006811462,241.03251596784685 164.66244173399173,240.34461874963017 164.36797172972,239.71404553577304 164.4661283979658,239.19812145346077 164.4661283979658,238.62487189960666 164.26981506170705,238.223596852622 163.58271838515066,237.30639563384466 163.337326714769,236.61849370563868 163.14101337874308,235.87326563498937 162.25760336616077,233.8668772954843 161.86497669341043,232.54838950157864 161.52142835548148,232.08978430263232 161.52142835548148,231.5738529918599 161.37419335334562,230.82861801265972 160.9324883467052,229.51012285711477 160.1472350023687,226.58649176801555 159.70552999596111,225.3253127229982 158.82211998291314,223.14690566959325 158.18410164071247,221.77106514235493 157.74239663407207,221.2551240477478 157.5460832978133,219.82195177371614 157.2516132935416,218.38877572497586 156.95714328926988,217.87283142318483 156.5645166169852,216.32499558269046 156.17188994470052,215.75172193191247 155.68110660440288,214.6625003311201 155.63202827028,213.974569775688 155.2394015979953,213.0 153.5707382406108,213.68793178745545 151.9020748832263,214.14655249618227 150.57695986400358,215.35043001687154 150.0861765234731,215.46508487983374 149.74262818531133,215.35043001687154 149.44815818127245,215.75172193191247 149.2027665108908,215.40775745140854 148.95737484074198,215.29310257622274 149.00645317463204,215.17844767699717 148.71198317036033,214.83448283403413 148.81013983860612,215.06379275361542 148.95737484074198,214.8918103230535 149.00645317463204,215.06379275361542 149.39907984691672,215.17844767699717 149.64447151706554,215.52241230232175 149.104609842645,216.0383588327677 146.797928142827,217.12757767923176 145.32557812170126,217.7581770674442 144.6875597788021,217.93015859200386 143.21520975790918,218.50342994765379 142.57719141501002,219.19135477743112 142.72442641714588,219.24868180725025 142.4790347472299,219.24868180725025 142.3317997448612,219.53531686612405 142.3808780789841,219.47798986639827 142.82258308515884,220.22324039111845 143.0188964214176,220.91116304631578 142.7735047515016,222.05769887252245 143.0188964214176,222.86027251329506 143.4115230939351,223.20423228276195 144.1967764387373,223.4908652578597 144.88387311529368,222.91759915655712 145.57096979185008,222.5736392060644 148.02488649380393,221.65641160821542 148.81013983860612,221.48443126148777 149.54631484905258,221.0831435743603 151.11682153865695,220.50987493642606 151.9020748832263,220.39522113645216 155.8774199404288,219.13402774144197 156.6135949511081,220.5672018273617 156.85898662125692,221.36977766663767 157.15345662552863,222.05769887252245 157.64423996629193,222.86027251329506 159.75460832985118,228.36360273347236 159.85276499809697,229.16616707359208 160.29447000427172,229.9114043295849 160.49078334029764,230.5419889028417 160.6380183424335,231.2298985128291 160.83433167892508,231.5738529918599 161.47235002112575,234.3254809966311 162.7483867064584,237.8796465767664 162.55207337043248,238.567546911072 162.6993083723355,239.25544637569692 163.4354833830148,239.71404553577304 163.68087505316362,241.08984069683356 164.85875507025048,243.38282490277197 164.90783340414055,244.01339386537438 165.34953841054812,245.2172053109971 165.93847841909155,246.4210140936193 165.69308674894273,246.9369313280913 165.34953841054812,247.39552401483525 165.74216508306563,248.08341232023668 166.57649676175788,248.7712997563067 167.01820176793262,249.57383399928221 167.36175010632724,250.26171955128666 168.4905517892912,253.18522344733356 168.4905517892912,253.8731044345186 168.34331678715535,254.27436794224195 168.588708457537,254.90492428536527 169.32488346798345,255.9367421795614 170.30645014881156,258.63092412549304 170.35552848293446,259.261475420848 170.74815515521914,260.0066714643617 171.14078182750382,261.4397379111033 171.7788001699373,262.93012301268755 172.17142684245482,264.3058594838367 172.46589684672654,264.9364042042289 172.80944518488832,266.25481353187934 172.41681851260364,266.5987458747695 172.66221018275246,267.0 173.34930685954168,266.5987458747695 176.8829469103366,263.5606693268637" stroke="#4dd2ff" stroke-linecap="round" stroke-linejoin="round" stroke-width="0.5"><title>2023-07-05 3.1km</title></polyline></svg>