<?xml version="1.0" encoding="utf-8" ?>
<svg baseProfile="full" height="300mm" version="1.1" viewBox="0,0,200,300" width="200mm" xmlns="http://www.w3.org/2000/svg" xmlns:ev="http://www.w3.org/2001/xml-events" xmlns:xlink="http://www.w3.org/1999/xlink"><defs /><rect fill="#222222" height="300" width="200" x="0" y="0" /><text fill="#FFFFFF" style="font-size:12px; font-family:Arial; font-weight:bold;" x="10" y="20">Over 3km Runs</text><text fill="#FFFFFF" style="font-size:4px; font-family:Arial" x="10" y="280">ATHLETE</text><text fill="#FFFFFF" style="font-size:9px; font-family:Arial" x="10" y="290">Melt</text><text fill="#FFFFFF" style="font-size:4px; font-family:Arial" x="120" y="280">STATISTICS</text><text fill="#FFFFFF" style="font-size:3px; font-family:Arial" x="120" y="285">Number: 13</text><text fill="#FFFFFF" style="font-size:3px; font-family:Arial" x="120" y="290">Weekly: 3.2</text><text fill="#FFFFFF" style="font-size:3px; font-family:Arial" x="141" y="285">Total: 48.8 km</text><text fill="#FFFFFF" style="font-size:3px; font-family:Arial" x="141" y="290">Avg: 3.8 km</text><text fill="#FFFFFF" style="font-size:3px; font-family:Arial" x="167" y="285">Min: 3.1 km</text><text fill="#FFFFFF" style="font-size:3px; font-family:Arial" x="167" y="290">Max: 6.1 km</text><polyline fill="none" points="43.834281706949696,74.78413784469012 43.503408677643165,73.88239356290433 43.503408677643165,73.45299082284328 43.687227027257904,72.89476658462081 43.65046335756779,72.68006475098082 43.35635399795137,72.12183945439756 42.87842628895305,71.864196751907 42.65784426918253,71.60655388660962 42.54755325941369,71.34891085856361 42.4004985797219,70.83362431376008 42.290207569953054,69.80304927018005 42.069625550182536,68.77247162134154 41.44464316149242,67.35542309976881 40.856424442492425,65.38013512332691 40.45202407334,64.86484103347175 40.23144205356948,64.43542879447341 39.75351434457116,63.06130658957409 38.907949936110526,60.95717298591626 38.724131586262956,59.92657297241385 38.09914919757284,57.47888749680715 37.95209451788105,56.31945240459754 37.58445781841874,55.41766727500362 36.66536607011221,53.69997579444316 36.22420203103684,52.411702433542814 36.113911021267995,51.68167905503651 35.783037991961464,50.7369409770472 35.63598331203684,50.135742878279416 35.15805560280569,48.976286897814134 35.084528263192624,48.589800838031806 35.19481927272864,47.73094161541667 35.084528263192624,46.915023677487625 35.12129193311557,46.78619438011083 35.231582942884415,46.700308159110136 36.297729370882735,46.48559252775158 40.19467838387936,44.98257994072628 41.8122798607219,44.55314675500267 43.28282665810548,43.90899612812791 45.1210101544857,42.921296522632474 45.89304722333327,42.7065789004846 46.8121389716398,42.577748272859026 47.43712136056274,42.27714331666357 48.28268576879054,42.105368956312304 48.72384980809875,41.93359452378354 48.87090448802337,41.76182001869893 48.83414081786759,41.71887638117187 48.65032246825285,41.6759327390464 47.400357690639794,41.93359452378354 43.834281706949696,43.221901003766106 42.290207569953054,43.60839215366286 41.554934171261266,43.951939534861594 40.856424442492425,44.1237131167436 39.75351434457116,44.639033428393304 38.98147727595642,44.810806720808614 37.76827616803348,45.283182901504915 36.8859480896499,45.54084240575321 35.85656533157453,46.056160925654694 34.42278220434673,46.39970624347916 31.739034299040213,47.21562521302258 31.187579249963164,47.34445437465911 30.893469890812412,47.301511325262254 30.74641521088779,47.21562521302258 30.04790548211895,44.85375003251829 29.53321410319768,43.780165880481945 28.98175905435346,42.14831255323952 28.724413364659995,40.945890131173655 28.24648565542884,39.314025455736555 27.842085286276415,37.68215424625669 27.290630237199366,35.9643880193762 27.364157577045262,35.234335180488415 27.437684916891158,35.83555526038981 27.511212256969884,37.25271336824517 28.320012995507568,41.41827079153154 28.61412235489115,42.448917604400776 29.31263208365999,44.59609009401174 29.53321410319768,45.62672887099325 29.71703245281242,46.82913748372812 29.827323462581262,48.28920031595044 29.569977773120627,49.23394406744046 29.018522724043578,49.620429516391596 26.1877201392781,50.52222747221822 25.195101051125675,50.77988366453792 24.680409671971574,50.86576902575325 24.459827652433887,50.7369409770472 24.202481962973252,50.52222747221822 23.393681224435568,49.148058362305164 22.217243786435574,46.18499045379576 21.44520671805367,44.72492008359404 20.489351299591362,42.105368956312304 20.084950930438936,41.3753271176829 19.937896250747144,40.77411520990427 19.68055056105368,40.04407098671072 19.386441201670095,38.884586297295755 19.12909551220946,38.11159467170364 19.202622852055356,37.768042367562884 19.349677531747147,37.59626610687701 19.754077901132405,37.33860158006428 20.967279008822516,37.16682513843989 21.371679377974942,36.995048624346964 21.886370757129043,36.60855120289489 22.180480116512626,36.52266283726203 22.84222617535852,36.52266283726203 24.276009302586317,36.7373837174091 26.077429129509255,36.39383025476127 26.775938858278096,36.00733226333978 28.24648565542884,34.80489172326634 29.055286394199356,34.33250339757069 31.81256163911894,33.344780583604006 34.349254864500836,32.82944599134498 35.562455972190946,32.442944619455375 35.930092671420425,32.39999999999418 36.22420203103684,32.61472305218922 36.812420749804005,33.55950313821086 37.988858187804,35.19139085515053 38.062385527649894,35.749666731921025 38.65060424641706,37.33860158006428 38.944713605800644,38.66986654832726 39.49616865487769,40.344677589891944 39.86380535434,41.20355237746844 40.341733063338324,42.105368956312304 40.78289710264653,43.221901003766106 40.92995178233832,43.43661835457897 41.11377013218589,43.56544871075312 41.44464316149242,43.60839215366286 42.14315289026126,43.522505263157655 43.7607543671038,43.093070539005566 44.716609785333276,42.7065789004846 45.89304722333327,42.49186116512283 46.70184796163812,42.27714331666357 47.76799438986927,41.80476365171489 48.576795128174126,41.63298909243895 48.87090448802337,41.71887638117187 48.797377147944644,41.890650904213544 48.429740448715165,42.06242535499041 46.70184796163812,42.53480472115916 44.8636644652579,43.136014031857485 44.018100056797266,43.26484448288102 42.54755325941369,43.951939534861594 40.48878774326295,44.639033428393304 38.577076906571165,45.15435308846645 37.06976643926464,45.88438815809786 35.930092671420425,46.2279336208303 34.863946243422106,46.48559252775158 33.68750880565494,47.08679601069889 33.50369045580737,47.301511325262254 33.43016311596148,47.51622652687365 33.466926786117256,47.816827619069954 33.5772177958861,48.07448552150163 34.165436514653265,48.67568666074658 34.45954587403685,49.23394406744046 34.60660055396147,50.350456586747896 35.084528263192624,51.38108081315295 35.783037991961464,53.442321448004805 36.15067469095811,54.3870532552246 36.59183873026632,55.67532037277124 36.92271175980568,57.04946747687063 37.43740313872695,58.29478428850416 38.13591286749579,60.44187330483692 39.01824094587937,63.318954855785705 39.38587764510885,64.30660503447871 39.71675067464821,65.68072304158704 39.643223334802315,66.02425181950093 39.71675067464821,66.36778030803544 39.90056902426295,66.92601348424796 40.26820572372526,67.09777738482808 40.37849673326127,67.22660026262747 40.48878774326295,67.65600956152775 41.922570870490745,71.39185137450113 42.03286188025959,71.95007767083007 41.8122798607219,72.5083032027178 41.99609821056947,73.15240863568033 42.106389220338315,73.32416991269565 42.65784426918253,73.83945330919232 42.84166261879727,74.18297521179193 43.35635399795137,75.60000000000582" stroke="#4dd2ff" stroke-linecap="round" stroke-linejoin="round" stroke-width="0.5"><title>2023-07-26 6.1km</title></polyline><polyline fill="none" points="108.76124012074433,73.04177420362248 108.32317811471876,71.90883961078362 107.97898653859738,70.77590131870238 107.6973752490012,69.56986616869108 107.32189352961723,68.25418667859049 107.25931324297562,67.77907897008117 106.53963994723745,66.46339268944575 105.8512567949947,64.34366540997871 105.7886765084695,64.05128821721883 105.81996665161569,63.685816379787866 105.88254693825729,63.46653309260728 105.8512567949947,63.21070241567213 105.6322257919237,62.80868239919073 105.10029335599393,62.516303912969306 105.03771306946874,62.37011457738117 104.66223134996835,60.90821783413412 103.84868762444239,58.971195161371725 103.7861073379172,58.16714483796386 103.84868762444239,57.838214623130625 103.81739748129621,57.65547548010363 103.59836647822522,57.25344902672805 103.12901432893705,56.81487418257166 102.90998332586605,56.37629878419102 102.31547060341109,54.73163610184565 101.6270874509355,52.46564363525249 100.81354372540955,50.45547663932666 100.0312901432626,47.89706543527427 99.74967885378283,47.312283082254 99.65580842376221,46.87369567071437 99.40548727754503,46.14271541914786 99.15516613121144,45.11934047937393 98.99871541489847,44.3152580515889 98.87355484161526,43.84011755918618 98.74839426844846,43.072581542888656 98.46678297885228,42.23194490969763 98.40420269221067,41.6837025298737 98.46678297885228,41.42785578939947 98.59194355201907,41.31820712858462 99.90612957021222,40.806512919749366 100.56322257919237,40.36791728288517 101.28289587481413,40.11206957200193 102.15901988686528,39.600373584078625 104.22416934394278,39.05212704502628 105.16287364251912,38.613529190042755 106.69609066366684,38.24803055395023 106.97770195326302,38.101830991596216 107.35318367276341,37.84598160942551 108.16672739828937,37.6266819886514 109.07414155360311,37.18808233138407 110.26316699851304,36.85913222443196 110.51348814496305,36.67638203027309 110.45090785832144,36.603281925519696 110.20058671198785,36.639831979817245 109.5747838462703,36.822582193271955 105.69480607844889,38.321130311873276 104.72481163660996,38.613529190042755 101.5957973075565,39.783122237742646 100.78225358214695,39.96587079530582 98.96742527151946,40.806512919749366 98.1225914027309,40.989260938047664 97.37162796384655,41.28165756724775 96.21389266219921,41.57405394993839 95.08744750369806,41.82990058261203 94.77454607083928,41.82990058261203 94.64938549767248,41.72025204877718 94.3051939214347,40.11206957200193 94.05487277521752,39.41762483396451 93.08487833326217,35.65297916348209 92.834557187045,35.031625949952286 92.52165575395338,33.423412464006105 92.2400444643572,32.91170660947682 92.14617403456941,32.87515616242308 91.89585288835224,32.91170660947682 91.73940217180643,32.98480749205919 91.73940217180643,33.09445878700353 91.89585288835224,33.93511756375665 92.55294589733239,36.05503064990626 92.77197690040339,36.96878229471622 93.30390933644958,38.832828186888946 93.80455162888393,40.84306253117393 94.14874320512172,42.999482786108274 94.02358263195492,43.218779010290746 93.89842205878813,43.25532836743514 92.70939661376178,43.73046966086258 90.33134572394192,44.3883565311844 89.61167242832016,44.75384869784466 89.48651185503695,44.97314381293836 89.51780199841596,45.00969298533164 89.79941328801215,44.82694708488998 92.14617403456941,44.02286397953867 93.80455162888393,43.36497641596361 94.02358263195492,43.218779010290746 94.14874320512172,42.926384013844654 94.14874320512172,42.41469217714621 93.77326148550492,40.952711342135444 93.71068119909614,40.33136762143113 92.67810647038277,36.49363173983875 92.58423604059499,35.83572989687673 91.95843317487743,33.24066045979271 91.80198245833162,32.50965147986426 91.80198245833162,32.39999999999418 92.05230360478163,32.43655049710651 92.20875432121102,32.58275244716788 92.45907546754461,33.204110047314316 92.92842761671636,35.287477407982806 93.17874876316637,36.5301818055741 93.36648962285835,37.15153233482852 93.42906990938354,37.69978187762899 93.61681076919194,38.321130311873276 94.61809535440989,41.6837025298737 94.74325592757668,41.866450086119585 94.86841650074348,41.93954908163869 95.15002779033966,41.93954908163869 96.02615180239081,41.6837025298737 97.52807868015952,41.0623601184634 99.28032670437824,40.55066553232609 100.78225358214695,39.92932109156391 101.65837759431452,39.67347305707517 102.53450160636567,39.34452530698036 103.37933547515422,38.94247763339081 104.31803977384698,38.75972853667918 106.28931880102027,37.9921812795219 107.54092453257181,37.51703212634311 109.98155570891686,36.85913222443196 110.20058671198785,36.85913222443196 110.26316699851304,36.89568225177936 110.26316699851304,36.96878229471622 110.16929656884167,37.11498233451857 109.82510499248747,37.26118231276632 107.85382596531417,37.84598160942551 106.50834980385844,38.35768018520321 103.59836647822522,39.30797553766752 100.40677186276298,40.47756624405156 99.56193799397442,40.879612138611265 97.55936882353853,41.500954877294134 97.12130681751296,41.72025204877718 96.99614624434616,41.866450086119585 97.02743638749234,42.01264806170366 97.12130681751296,42.23194490969763 97.52807868015952,42.70708760488196 97.65323925344273,42.999482786108274 97.99743082956411,44.3518072932784 98.37291254883166,45.11934047937393 99.12387598783243,47.64122327705263 100.0,50.19963636784814 100.59451272257138,52.17325643240474 101.22031558828894,53.781382998480694 102.09643960034009,56.33975080921664 102.28418046014849,57.18035325786332 102.28418046014849,57.69202331639826 102.53450160636567,58.313335944432765 102.84740303934086,58.569170232571196 103.22288475860842,59.336671965167625 104.34932991722599,62.44320925290231 104.44320034689736,62.80868239919073 104.22416934394278,63.10106063913554 104.19287920068018,63.21070241567213 104.25545948732179,63.4299858645245 104.41191020375118,63.75891077806591 104.81868206639774,64.08783537978888 104.94384263956454,64.30711827441701 105.88254693825729,66.79231472729589 106.00770751142409,67.26742378703784 106.10157794121187,67.88871926823049 106.66480052052066,68.91202704724856 107.6660851057386,72.0915712469141 108.69865983421914,75.01526433796971 108.72994997759815,75.23454032663722 108.57349926093593,75.4903621384583 108.60478940431494,75.60000000000582 108.82382040750235,75.60000000000582 109.10543169698212,75.4903621384583 109.6060739896493,75.16144834578154" stroke="#4dd2ff" stroke-linecap="round" stroke-linejoin="round" stroke-width="0.5"><title>2023-07-23 5.7km</title></polyline><polyline fill="none" points="177.08920910558663,72.33911851310404 175.52072125452105,73.25509954610607 174.5796285441611,74.09779996611178 173.7012753476156,74.610747048544 173.04251045023557,74.79394225167925 172.79155239416286,74.68402514135232 172.57196409499738,74.42755174872582 172.03867822571192,73.10854274276062 171.88182944071013,72.48567564034602 171.44265284237918,71.23993808976957 171.2858040573774,70.43387023860123 170.94073673011735,69.59116094265482 170.43882061785553,67.83245670513134 169.65457669249736,66.22030334285228 169.15266058023553,64.16846098456881 169.1212908232119,63.948620014154585 169.2154000942828,63.435657209163764 169.15266058023553,63.142535266670166 168.96444203797728,62.812772786273854 168.52526543964632,62.59293095889734 168.33704689785372,62.33644865138922 167.5214332153555,59.844896393449744 167.14499613107182,58.928880047023995 166.95677758892998,57.6464531091915 166.3293824485736,56.803712832625024 165.85883609345183,55.70448331654188 165.10596192500088,53.35944873778499 164.9804828967899,52.73654627011274 164.69815508369356,51.857152652024524 164.4785667846445,50.244925243838225 164.32171799964271,49.622017198387766 164.03939018642996,48.77925747871632 163.47473456012085,47.57007692256593 162.75323014869355,46.39753418677719 162.65912087762263,45.84790341855842 162.2513140363153,44.74863927633851 162.21994427940808,44.16236364649376 161.78076768119354,42.84323986573145 161.24748181190807,41.780608737055445 161.0278935127426,41.59739614542923 160.21227983024437,41.59739614542923 158.5496827083407,41.707323712005746 158.26735489524435,41.67068119367468 158.07913635321893,41.52411108164233 157.4203714558389,39.54540852401988 156.79297631548252,37.49340879530064 156.60475777334068,36.68726273206994 155.94599287596066,34.342099922767375 155.69503481977154,33.0962257476931 155.63229530584067,32.94965202189633 155.53818603476975,32.91300858085742 155.255858221557,33.0962257476931 155.22448846464977,33.31608622064232 155.44407676358242,34.342099922767375 155.88325336191338,35.954401052964386 156.98119485750794,39.28890922004939 157.13804364262614,40.02176387232612 157.5772202408407,42.69667024791124 157.35763194179162,42.95316703853314 157.48311096976977,42.879882260545855 157.54585048370063,42.806597467075335 157.45174121274613,42.330245933204424 156.63612753048074,39.47212302798289 156.5420182592934,38.88583850313444 156.13421141798608,37.09033599719987 155.69503481977154,35.734542248043 155.4127070066752,34.23217002797173 155.0990094365552,33.35272961927694 155.03626992250793,32.839721687021665 154.91079089441337,32.61986091308063 154.942160651437,32.47328698635101 155.0990094365552,32.39999999999418 155.3499674926279,32.509930473868735 155.6636650628643,33.20615600148449 156.57338801620062,36.24754590989323 156.79297631548252,37.23690797781455 157.16941339964978,38.44612446075189 157.985027082148,41.59739614542923 158.20461538119707,41.81725124383229 159.11433833476622,41.92717874099617 159.6789939609589,42.11039115898893 160.27501934440807,42.6600278338592 160.99652375583537,43.86922546089045 161.31022132583894,44.63871267091599 161.68665841012262,45.15170319855679 162.28268379333895,46.43417620708351 163.5061043171445,49.80522556291544 163.69432285916992,50.501416467828676 164.4785667846445,52.809828971279785 164.85500386881176,54.27547975181369 165.73335706535727,56.84035375670646 165.79609657928813,57.20676278488827 165.63924779428635,57.68309394447715 165.67061755131,57.976220487616956 165.85883609345183,58.26934678375255 166.39212196250446,58.63575430659694 166.51760099071544,58.89223934293841 166.89403807499912,60.174661687604384 167.64691224321723,62.18988724783412 167.74102151440457,62.59293095889734 167.80376102845185,62.922693647793494 167.64691224321723,63.21581577556208 167.61554248642642,63.36237674669246 167.67828200035729,63.61885829776293 167.7723912714282,63.802059289911995 168.11745859857183,64.09518067652243 168.30567714071367,64.31502155444468 168.77622349606827,65.37758383894106 169.43498839333188,67.28285980736837 169.43498839333188,67.9057362259191 169.96827426261734,68.71180993528105 171.00347624416463,71.23993808976957 171.63087138452101,73.14518194936682 171.88182944071013,73.73140873000375 172.19552701094653,75.08705437622848 172.03867822571192,75.52672209992306 172.19552701094653,75.60000000000582 172.35237579594832,75.56336105189985 173.2934685064247,75.0504153741349 174.92469587130472,73.87796527077444 175.67757003975566,73.51157380302902" stroke="#4dd2ff" stroke-linecap="round" stroke-linejoin="round" stroke-width="0.5"><title>2023-07-22 4.0km</title></polyline><polyline fill="none" points="45.039810211979784,120.31323477707338 44.32856193499174,120.67441930924542 43.18437992420513,121.39678723242832 42.16389326588251,122.22750846296549 41.081558931502514,122.9498731145577 40.83416822634172,123.05822768094367 40.586777521297336,123.05822768094367 40.40123449254315,122.91375491805957 40.24661530193407,122.69704565950087 39.349823996191844,120.20487934327684 39.07150945300236,119.3380346399208 38.88596642424818,118.43506907715346 38.17471814726014,116.37629870331148 38.051022794796154,115.79839602575521 37.86547976604197,115.29273038395331 37.67993673728779,114.9676592204778 37.12330765090883,113.41453718586126 36.721297755255364,112.47543672894244 36.62852624093648,112.07812422298593 36.78314543154556,111.57245309485006 36.721297755255364,111.28349782986334 36.56667856464628,110.99454232130665 36.2574401833117,110.85006447567139 36.13374483084772,110.74170605154359 35.85543028754182,110.0915547873883 34.80401979142334,107.0936191220826 34.711248276988044,106.44346094096545 34.74217211490031,106.04614144552033 34.649400600697845,105.79330152686452 34.55662908637896,105.54046142179868 34.278314543073066,105.2876211302937 34.18554302875418,105.10702080794726 33.72168545681052,103.98729668618762 33.22690404683817,102.36188419605605 32.886741827242076,101.53111483663088 32.701198798487894,100.66422292403877 31.7116359785432,97.91905074100941 31.09315921587404,95.89627822575858 30.536530129495077,94.70428169082152 30.443758615176193,94.12634248507675 30.103596395696513,93.2594318499614 30.01082488137763,92.60924743502983 29.670662662014365,91.81457592002698 29.299576604389586,90.51420037681237 29.175881251925603,90.29747064015828 28.95941438502632,90.1168624216225 28.340937622473575,89.97237577819033 27.846156212501228,90.00849744473817 27.011212582932785,90.22522736413521 26.361811982351355,90.36971390098915 26.207192791509442,90.36971390098915 25.990725924726576,90.22522736413521 25.557792190928012,89.06933287752327 25.248553809709847,87.69670311282971 25.09393461898435,87.29936189207365 25.00116310454905,86.82977621926693 24.599153208895586,85.52938176851603 24.382686341996305,84.3012269247265 24.166219475097023,83.723270181712 23.516818874282762,81.26694315328496 23.362199683790095,80.54449067779933 23.269428169354796,80.39999999999418 23.022037464310415,80.76122658036184 23.022037464310415,81.0863301770878 23.331275845644996,82.13388411412598 23.485895036254078,82.60347621922847 23.57866655057296,83.2898019849672 24.320838665706106,85.63774816112709 24.599153208895586,86.97426418706891 25.248553809709847,89.50279376667459 25.619639867101796,91.16438876499888 25.588716028956696,91.236631843145 25.403173000202514,91.20051030596369 25.46502067660913,91.05602411928703 25.403173000202514,90.55032198640401 25.217629971448332,89.75564569892595 25.063010780722834,89.3221851294802 24.939315428375266,88.63587144031771 24.35176250373479,86.82977621926693 24.011600284371525,85.42101534167887 23.424047360080294,83.54265849967487 23.022037464310415,81.33918831701158 22.960189788020216,80.94183972774772 23.022037464310415,80.43612267510616 23.238504331209697,80.47224534652196 23.362199683790095,80.58061333769001 23.516818874282762,80.83347185069579 23.98067644634284,82.24225158014451 24.166219475097023,83.03694528373308 24.44453401817009,83.61490318391589 24.506381694576703,84.08449326024856 24.78469623764977,85.24040455408976 25.155782295158133,86.54080010097823 25.31040148588363,87.33548384023015 25.557792190928012,87.8773126063461 25.77425905771088,89.10545463926974 25.990725924726576,89.68340230881586 26.11442127719056,90.1168624216225 26.238116629770957,90.22522736413521 26.42365965852514,90.26134900402394 27.22767944971565,90.08074076651246 27.413222478702664,90.08074076651246 27.877080050529912,90.18910572046298 28.124470755574293,90.36971390098915 28.557404489489272,90.94765943929087 28.897566708852537,91.74233296368038 29.299576604389586,92.97046115109697 29.794358014478348,93.80125125375343 30.443758615176193,95.82403612937196 30.66022548219189,96.32973048364511 31.526092949672602,98.82207033236045 31.835331330890767,99.47224296553759 31.959026683471166,100.15853496288764 32.330112741095945,101.35051253557322 32.701198798487894,102.25352308931178 33.07228485599626,103.48161362600513 33.659837780636735,105.07090073204017 33.690761618549004,105.43210131971864 33.56706626620144,105.90166151488665 33.62891394237522,106.19062131535611 33.78353313310072,106.44346094096545 34.15461919060908,106.76854018558515 34.278314543073066,106.94913963286672 34.83494362945203,108.35781205666717 35.360648877802305,110.05543523665983 35.669887258904055,110.88618394281366 35.669887258904055,111.10290066551534 35.48434423014987,111.39185608286061 35.48434423014987,111.53633370008902 35.546191906323656,111.75305001199013 35.700811097049154,112.04200488133938 36.10282099270262,112.3309595072642 36.41205937392078,112.94498727892642 36.84499310771935,114.1369204026123 36.968688460299745,114.67870681642671 37.21607916522771,115.40108736994443 37.247003003489226,115.9067528519954 37.89640360418707,116.91808157906053 39.00966177682858,120.09652387510869 39.628138539381325,122.29974499653326 39.84460540628061,122.87763671786524 39.96830075874459,123.41940932205762 40.12291994935367,123.60000000000582 40.30846297822427,123.52776374013047 41.607264179736376,122.48033626406686 42.75144619029015,121.72185230138712" stroke="#4dd2ff" stroke-linecap="round" stroke-linejoin="round" stroke-width="0.5"><title>2023-07-20 4.1km</title></polyline><polyline fill="none" points="111.12655991036445,120.04255755798658 110.22524639812764,120.84117028207402 107.39698675612453,122.65619231844903 106.96186988812406,122.87399432051461 106.7443114540074,122.9102946407802 106.55783279635943,122.83769399646553 106.40243391494732,122.65619231844903 105.93623727059457,121.49457931620418 105.68759906035848,120.51446530033718 105.12816308718175,119.09874013453373 104.81736532435752,117.93711514220922 104.16469002224039,116.30357337251189 103.97821136459243,115.4323479293671 103.54309449670836,114.63372267180239 102.76610008941498,112.49194579859613 102.67286076059099,111.87482117849868 102.8282596420031,111.51180617994396 102.85933941823896,111.29399699732312 102.61070120811928,110.8220766291779 102.20666411623824,110.67687023204053 102.08234501106199,110.5679653940606 101.95802590600215,110.31385397160193 100.90131351223681,107.40971012142836 100.71483485458884,106.75627438235097 100.52835619682446,106.3932539919042 100.49727642070502,106.21174365328625 100.55943597317673,105.99393112084363 100.46619664435275,105.59460778685752 100.06215955270454,105.05007522230153 99.84460111858789,104.50554179731989 99.16084604035132,102.03697947811452 98.94328760623466,101.45613871555543 98.88112805376295,101.0205075010017 98.72572917223442,100.58487573586171 98.13521342282183,98.95125171146356 97.60685722588096,97.64434691573842 96.98526170034893,95.82919314334868 96.64338416105602,94.95791593639296 96.33258639834821,94.41336656321073 96.27042684564367,93.97772644512588 96.05286841175985,93.106444556528 96.05286841175985,92.74340978614055 95.95962908281945,92.41667816558038 95.80423020140734,91.872124776477 95.338033557171,90.9282301965577 95.12047512317076,90.34737070839037 94.93399646540638,90.09324437435134 94.77859758387785,89.9843330309086 94.03268295305315,90.12954814784462 93.4110874272883,90.34737070839037 92.85165145422798,90.49258567218203 92.32329525740352,90.67410429092706 92.074657047051,90.85562281412422 91.76385928411037,91.18235591464327 91.63954017916694,91.25496322833351 91.14226375857834,91.29126687947428 91.29766263987403,91.32757052665693 91.35982219257858,91.25496322833351 91.35982219257858,91.146052252152 91.14226375857834,90.45628193687298 90.61390756152105,88.45957060906221 90.2409502461087,86.68067258875817 89.86799293069635,85.55524256749777 89.30855695763603,83.41328495164635 89.05991874739993,82.21523505452205 88.9045198658714,81.01718099150457 88.87344008963555,80.5815239357762 88.93559964210726,80.40000000002328 89.1531580761075,80.50891437297105 89.4017962863436,80.94457152055111 89.71259404916782,82.03371197942761 90.17879069363698,83.37698047052254 90.33418957493268,84.1756781716831 91.14226375857834,87.04371374697075 91.35982219257858,88.0602269549563 91.76385928411037,89.0404332796752 92.01249749446288,90.20215568324784 92.32329525740352,90.27476320351707 93.31784809858073,90.20215568324784 93.59756608505268,90.27476320351707 94.46779982117005,90.9645338820992 94.74751780752558,91.40017780970084 95.02723579411395,92.56189225739217 95.46235266223084,93.43317552295048 95.80423020140734,94.37706324108876 96.23934706952423,95.93810263939667 96.67446393740829,97.13610482329386 96.79878304258455,97.75325583809172 97.26497968682088,98.73343458969612 97.48253812082112,99.45949112670496 97.91765498893801,100.51227038810612 98.1662931991741,101.4198361353192 98.85004827741068,103.23496045914362 98.97436738258693,103.74319355658372 99.44056402693968,105.086377419997 99.47164380305912,105.37679486433626 99.28516514529474,105.8850248028757 99.28516514529474,106.0665353135555 99.44056402693968,106.32064986793557 99.9067606710596,106.75627438235097 100.55943597317673,108.2809558462468 100.65267530200072,108.6802760673163 100.93239328858908,109.26110465364764 101.42966970917769,110.8946798047109 101.39858993294183,111.0398861101421 101.27427082776558,111.29399699732312 101.33643038023729,111.54810769707547 101.52290903800167,111.91112265741685 101.86478657717817,112.20153435040265 101.98910568235442,112.34674010504386 102.61070120811928,113.68989043586771 103.01473829965107,114.92413207056234 103.20121695741545,115.35974570977851 103.20121695741545,115.97686408943264 103.72957315435633,116.9206900622521 104.94168442941736,120.80486974382075 105.06600353459362,121.31307693108101 105.68759906035848,122.83769399646553 105.74975861283019,123.23699735137052 105.62543950788677,123.49109924561344 105.62543950788677,123.56369975229609 105.74975861283019,123.60000000000582 105.90515749447513,123.56369975229609 106.55783279635943,123.20069706544746" stroke="#4dd2ff" stroke-linecap="round" stroke-linejoin="round" stroke-width="0.5"><title>2023-07-19 3.3km</title></polyline><polyline fill="none" points="183.65396119793877,117.67541131333564 183.65396119793877,117.34885687657516 183.41431466583163,117.11560356005793 182.8950805128552,117.02230219906778 182.49566962616518,117.11560356005793 181.73678894131444,117.48880880750949 179.2205003539566,119.2148789865605 177.26338700857013,120.38113881307072 175.98527217074297,121.36079469401739 174.34768753452227,122.48039876206894 173.78851229324937,122.71364925327362 173.54886576114222,122.62034907165798 173.34916031756438,122.4337486489967 172.90980834211223,121.4074449200998 171.6716345930472,116.88235012063524 170.71304846461862,114.3165541800845 170.59322519833222,113.80339320830535 170.63316628709435,113.24358056101482 169.71452124766074,111.84404584689764 168.75593511899933,109.27822071817354 168.59617076441646,108.62509922109894 168.59617076441646,108.34518971314537 168.75593511899933,107.87867347343126 168.71599403047003,107.59876349373371 168.51628858712502,107.13224646789604 168.39646532107145,107.0389430038631 167.99705443391576,106.85233601657092 167.8372900793329,106.61907717186841 167.39793810388073,105.07956571588875 166.8787039509043,103.86661352682859 166.39941088669002,102.56035360821988 166.11982326605357,101.11413277534302 166.11982326605357,100.600956505863 165.5207069357857,99.66790721961297 165.0014727828093,98.59489811034291 163.0044183486607,92.94989432703005 162.60500746173784,91.36368196635158 162.0058911317028,89.6841568032105 161.8061856883578,88.8910454842262 161.24701044661924,87.39812620682642 160.76771738240495,85.85854793037288 160.5280708502978,85.01877570530633 160.40824758424424,84.17900188770727 160.12865996337496,83.19926375421346 159.60942581063136,82.26617780246306 158.9703683918342,81.33308988428325 158.5310164161492,80.49330907702097 158.29136988404207,80.39999999999418 157.65231246501207,80.39999999999418 156.97331395745277,80.58661813425715 156.45407980470918,80.63327265545377 156.05466891778633,80.72658168312046 155.09608278935775,81.23978098429507 153.5383803306613,82.54610379436053 151.7809724288527,83.24591800026246 149.1848016642034,84.17900188770727 148.4658620681148,84.59888899553334 148.34603880206123,84.8321594390145 148.34603880206123,85.01877570530633 148.54574424540624,86.13847165153129 148.58568533416837,86.88493404275505 148.6655675114598,87.21151094324887 149.02503730962053,87.8646640216175 149.50433037383482,88.00462527031777 150.982150655007,87.67804895475274 154.4969664590899,86.46504910249496 156.53396198200062,85.62527802761178 158.8106040370185,85.01877570530633 159.13013274641708,84.9721216460166 159.36977927852422,85.11208380898461 160.8076584711671,88.70443084969884 161.76624459959567,91.41033535212046 162.80471290531568,94.11622332051047 163.28400596952997,95.79573167453054 163.40382923558354,96.77544193959329 163.96300447708927,98.03506623851717 164.56212080735713,99.94782221183414 164.56212080735713,101.02082804325619 164.92159060551785,101.62730845017359 165.28106040367857,101.86056992391241 165.40088366973214,102.04717901450931 166.59911633026786,105.12621765691438 166.71893959632143,105.73269244181574 167.1582915717736,106.80568425741512 167.19823266053572,107.13224646789604 167.19823266053572,107.3188533372595 166.95858612842858,107.73871850577416 166.95858612842858,107.97197676071664 167.27811483782716,108.62509922109894 167.79734899057075,109.04496315124561 168.27664205501787,110.0712955269264 169.1952870944515,112.4038602632354 169.3550514492672,113.01032508246135 169.3550514492672,113.52348697307752 169.39499253802933,113.75674218140193 169.91422669077292,114.68976178611047 170.63316628709435,116.55579509912059 170.91275390796363,117.48880880750949 172.67016181000508,122.4337486489967 172.78998507605866,123.08684978378005 172.63022072124295,123.46005000008154 172.63022072124295,123.55335000483319 172.75004398752935,123.60000000000582 172.94974943087436,123.55335000483319 173.74857120448723,123.08684978378005 175.3861558404751,121.92059708185843 176.42462414619513,121.03424297447782" stroke="#4dd2ff" stroke-linecap="round" stroke-linejoin="round" stroke-width="0.5"><title>2023-07-18 3.1km</title></polyline><polyline fill="none" points="50.111683232709765,166.22340704448288 49.040216613793746,167.1504105165659 48.444957381114364,167.38216107932385 47.25443891552277,168.21646209512255 46.57981178513728,168.54091206297744 45.94486860372126,169.09711145149777 45.230557524133474,169.51426053143223 43.76225141691975,170.67300590104423 43.32572797941975,170.95110433580703 42.80983664444648,170.02410886995494 42.13520951406099,168.21646209512255 42.016157667618245,167.56756144188694 41.65900212782435,166.9650099783903 41.46058238344267,165.80625484496704 40.82563920202665,163.48873542476213 40.42879971372895,162.32997113771853 40.42879971372895,161.91281524740043 40.270063918083906,161.7737631961354 39.99227627622895,161.03215151376207 39.31764914584346,159.5952753223537 38.88112570834346,158.2974476327654 38.365234373137355,157.2313720243401 38.28586647566408,156.67515763820847 38.64302201522514,156.30434765669634 38.166814629221335,155.2382672195963 37.6906072429847,155.28461859654635 37.293767754221335,154.07948120607762 37.25408380571753,153.47691127314465 36.698508521774784,152.3181206214649 36.18261718656868,151.1593269178411 35.78577769827098,149.39795464402414 35.74609374930151,148.9344344526471 34.8333629257977,147.59022313650348 34.55557528370991,146.4777692866046 33.880948153324425,144.67002578184474 33.76189630688168,144.02109040430514 33.484108664793894,143.55756454891525 33.52379261376336,143.04768554362818 33.206321022706106,142.39874777352088 33.08726917626336,141.8425146373629 32.809481534408405,141.2862807979982 32.69042968796566,140.7300462553394 32.372958097141236,140.2201639736013 32.09517045505345,139.57122203317704 31.301491477992386,137.43897748974268 31.063387785106897,136.5582647715637 30.745916194282472,135.2140156448295 30.34907670575194,134.0551768944133 30.031605115160346,132.84998135603382 30.11097301263362,132.479151295498 29.31729403580539,130.85676610536757 29.118874291190878,130.34687238145852 29.158558240160346,129.8369780666253 28.44424716103822,128.40000000002328 26.618785514030606,128.6781251533248 25.62668679258786,129.00260427681496 24.59490412264131,129.51249955859384 23.92027699202299,130.25416436817613 23.563121452461928,130.25416436817613 23.483753554755822,130.62499630416278 23.12659801519476,130.81041215494042 21.023348726099357,131.64478251643595 18.920099437236786,132.15467473608442 18.40420810203068,132.479151295498 18.086736511206254,132.9890425481135 18.20578835788183,134.2405912996037 17.888316767057404,134.7504805108474 18.642311795149,136.23379122046754 19.793146311771125,136.4192047075776 21.697975856484845,135.90931743007968 23.28533381037414,135.35307608972653 25.62668679258786,134.33329847292043 26.142578127793968,134.19423770558205 28.48393111000769,133.26716480057803 28.84108664933592,133.35987217910588 29.595081677660346,134.9822481389565 29.71413352410309,135.58484340042924 30.11097301263362,136.69732479160302 30.58718039887026,137.7170969294093 30.706232245545834,138.27333528088639 31.61896306881681,140.59098750978592 31.698330966755748,141.14722222820274 31.936434659874067,141.703456243471 32.45232599461451,143.41850669693667 33.76189630688168,147.31210993771674 33.92063210206106,147.91468831291422 33.84126420458779,148.4245616783155 33.92063210206106,148.74902623947128 34.0,148.8880824066582 33.96031605103053,149.16619460930815 34.119051846442744,149.62971455653314 34.67462713038549,150.00053016276797 34.79367897706106,150.51040111095062 35.2302024140954,151.66919652337674 35.54767400515266,152.2717689317942 36.10324928886257,153.8013721089228 36.53977272636257,154.77475318033248 36.698508521774784,155.33096996872337 36.14293323783204,155.5163754087116 36.5000887773931,156.58245517199975 37.01598011236638,156.7678600847139 37.49218749883585,157.88028791965917 37.84934303839691,158.34379868765245 38.762073861667886,160.75404681055807 38.762073861667886,161.31025604103343 38.64302201522514,161.68106180420727 39.238281248137355,162.42267239297507 39.55575283896178,163.39603439407074 39.79385653184727,163.9522402853181 40.86532315099612,166.9650099783903 40.944691048469394,167.52121135854395 41.46058238344267,168.67996197610046 41.976473718648776,170.48760684704757 42.17489346279763,171.18285289712367 41.89710582094267,171.3219019752869 41.89710582094267,171.60000000000582 42.33362925844267,171.55365034149145 42.849520593183115,171.3219019752869 43.24636008194648,170.99745405779686 43.68288351921365,170.81205514047178 44.63529829168692,169.97775904546143 45.11150567769073,169.69965999561828 45.865500705782324,169.0507615293609 46.38139204098843,168.9580616702733 46.897283375961706,168.77266189368675" stroke="#4dd2ff" stroke-linecap="round" stroke-linejoin="round" stroke-width="0.5"><title>2023-07-15 3.1km</title></polyline><polyline fill="none" points="103.18909131921828,158.90282148768893 102.70771904475987,157.3566458444402 102.62749033235013,156.60698299185606 102.78794775693677,156.09158904763171 102.667604688555,155.62304858039715 102.46703290753067,155.34192406307557 101.94554627640173,155.0607993680169 101.70486013917252,154.54540363233536 101.18337350850925,152.90550413666642 100.38108638417907,150.89076219365234 100.0601715343073,149.4851228753978 100.18051460315473,149.01657544873888 100.10028589051217,148.78230155049823 99.45845619100146,147.75149493149365 98.41548292944208,145.31503342668293 96.53010818711482,139.87980197294382 95.36679185694084,136.17818390979664 94.6046190885827,134.30393516703043 94.28370423894376,132.851386958675 94.20347552653402,131.7736868352804 94.08313245791942,131.44569062720984 93.52153147081845,130.32113036309602 93.00004483992234,129.8525627470226 92.83958741510287,129.61827875388553 92.43844385282136,128.63428463501623 92.1576433593873,128.44685693684733 91.59604237228632,128.39999999999418 89.14906664285809,129.0559966667206 88.94849486183375,129.1965672551887 88.54735129955225,129.61827875388553 88.266550806351,129.80570595827885 87.30380625696853,129.99313308353885 87.50437803799286,130.03998985269573 87.42414932558313,130.22741687932285 87.38403496937826,130.22741687932285 87.464263681788,130.1337033759046 87.3439206131734,130.22741687932285 87.3439206131734,130.1337033759046 87.62472110660747,130.03998985269573 87.70494981925003,130.18056013001478 87.62472110660747,130.32113036309602 87.3439206131734,130.55541398591595 86.22071863920428,131.0239808614715 83.09179885406047,132.1016828014399 82.36974044214003,132.38282200854155 82.08893994870596,132.61710454541026 82.00871123629622,132.75767400822951 82.20928301732056,133.2730949918623 82.49008351075463,134.8662106192496 82.73076964821666,135.52219774827245 83.09179885406047,135.89704710184014 83.65339984116144,135.99075939087197 84.25511518446729,135.89704710184014 86.02014685794711,135.14734807881177 87.02300576353446,134.7724980932544 88.18632209370844,134.58507298197947 89.10895228688605,134.2570788472949 90.23215426085517,133.97594082498108 92.31810078397393,133.31995141523657 92.95993048371747,133.2262385635404 93.2006166211795,133.2730949918623 93.32095968979411,133.41366424734588 93.60176018322818,133.97594082498108 94.08313245791942,135.28791674188687 94.48427601996809,136.1313277875015 94.765076513635,137.0215932673018 94.8854195822496,137.77128913102206 95.32667750050314,138.56783960171742 95.84816413139924,139.9266577004164 96.61033689952455,142.55057055639918 97.29228095524013,144.65906074119266 97.65331016131677,145.36188858156675 98.45559728564695,148.22004369081696 98.25502550438978,148.73544675594894 98.29513986059465,149.1102849736635 98.53582599805668,149.43826815500506 99.09742698492482,149.9068151373067 99.9398284656927,152.01527044989052 100.34097202774137,153.13977586347028 100.54154380899854,153.84259030310204 100.82234430243261,154.49854944489198 101.06303043989465,155.2013617377961 101.06303043989465,155.48248634391348 100.90257301484235,155.85731887581642 100.98280172748491,156.13844306732062 101.30371657712385,156.74754487295286 101.70486013917252,157.1223763387825 101.86531756422482,157.3566458444402 102.58737597614527,159.79304138978478 103.10886260680854,161.01123415806796 103.18909131921828,161.80774301066413 103.51000616885722,162.4168370529951 103.91114973113872,162.88537036423804 104.11172151216306,163.6818758608133 105.51572398003191,167.52382351912092 106.67904031043872,171.2720331591554 106.63892595400102,171.41259040636942 106.35812546056695,171.60000000000582 106.75926902261563,171.55314760905458 107.44121307856403,171.17832830315456 108.76498683355749,170.28813118569087 110.24921801383607,169.16366912267404 111.09161949413829,168.8357004856225 112.09447839972563,168.0860569785582 113.89962442941032,166.82103069548612 114.8623689787928,165.9776778416417 115.78499917173758,165.27488257538062 116.02568530919962,165.18117645583698 116.46694322768599,165.22802951809717 117.1890016393736,164.99376415790175 117.50991648924537,164.99376415790175 117.67037391406484,165.08747031670646 117.95117440749891,165.6497068555036 117.99128876393661,165.83711887709796 117.95117440749891,165.9776778416417 117.02854421455413,166.6336190883303 115.02282640361227,167.71123475107015 115.62454174691811,168.27346797366044 115.58442739071324,168.46087888986222 115.66465610312298,168.64828972733812 115.22339818463661,168.0860569785582 115.50419867830351,168.8357004856225 115.54431303450838,168.64828972733812 115.42396996566094,168.5545843184227 115.38385560968891,168.36717344171484 115.46408432209864,167.75808754685568" stroke="#4dd2ff" stroke-linecap="round" stroke-linejoin="round" stroke-width="0.5"><title>2023-07-14 3.8km</title></polyline><polyline fill="none" points="182.70501993782818,165.19683027957217 182.1091214856133,165.52163098441088 179.64607455092482,167.42403030363494 178.57345733698457,168.39842677334673 177.81865263124928,168.72322511774837 175.63369164057076,170.4400123883388 174.6802541173529,170.99680682312464 174.3624416096136,170.8112087563204 173.84599628462456,169.92961687149364 173.52818377688527,168.86242433491861 173.2500978326425,168.44482655150932 173.17064470564947,168.02722837231704 172.61447281716391,166.40323169031763 172.45556656317785,165.80003139784094 172.05830092867836,164.6400285140844 171.93912123818882,164.08322604498244 171.5021290401928,162.9696189952665 171.42267591319978,162.41281441476895 171.1048634054605,161.80960865836823 171.0651368421968,161.11360098989098 170.50896495347843,160.2319896980771 170.0322461919859,159.16477366819163 169.91306650126353,158.56156346411444 169.55552743002772,157.58714523585513 169.47607430326752,157.07673482748214 169.51580086676404,156.51992279847036 169.6747071207501,156.195115456474 169.47607430326752,155.63830231301836 169.0788086685352,155.31349432087154 168.6418164705392,155.03508728000452 167.9664648915641,152.94702886391315 167.68837894732133,152.43661307916045 167.09248049533926,150.6733539987472 166.854121114593,149.6061148105946 167.05275393184274,149.04929333817563 166.81439455109648,148.63167677193996 166.2184960988816,147.9356482817093 165.42396482964978,146.21877330323332 164.86779294116423,144.4090870274522 164.4705273064319,143.43463749164948 164.3513476161752,142.83140574628487 162.48419913300313,137.26307370216819 162.3252928792499,136.65983350458555 161.76912099076435,135.1285277537827 161.49103504652157,134.664494657045 161.45130848302506,134.1076542955998 161.09376941202208,132.9475679480529 161.13349597528577,132.4371289871633 161.01431628479622,131.92668943479657 160.4978709598072,130.85940482252045 159.50470687332563,130.34896344156004 159.70333969057538,129.18886719399597 159.4252537463326,128.39999999999418 158.78962873085402,128.44640399172204 156.00876928819343,129.23527110251598 154.73751925700344,130.5345785576501 154.30052705900744,130.81300108510186 153.14845671853982,131.27703823975753 149.89087851415388,132.34432183977333 149.29498006217182,134.01484750030795 149.41415975266136,134.24686445196858 149.33470662566833,134.7108979887853 149.37443318916485,135.31414085559663 149.5730660064146,136.01018929082784 150.08951133163646,136.24220519143273 150.7251363468822,136.28860835696105 153.02927702805027,135.40694737719605 154.93615207448602,134.94291457373765 158.11427715187892,133.8756372705102 159.26634749234654,133.31879591176403 159.8622459443286,133.17958546211594 160.14033188857138,133.5508132300747 160.4581443965435,134.06125090032583 160.69650377705693,134.61809132044436 160.81568346754648,135.17493103665765 161.29240222927183,136.19580202101497 161.37185535603203,136.79904285425437 161.6102147367783,137.30947676009964 161.76912099076435,137.8199100745842 162.08693349850364,138.28393984679133 162.20611318899319,138.88717782023014 162.60337882349268,139.95444297988433 163.08009758521803,141.62493977713166 163.6759960372001,143.20262537975213 163.79517572768964,143.75945424314705 164.4705273064319,145.5227410000807 164.58970699692145,146.12596905967803 165.30478513939306,148.2604617140023 164.94724606815726,148.5388730368577 165.10615232191049,149.14209696583566 165.30478513939306,149.51331128083984 165.62259764713235,149.69891832090798 165.8609570278786,150.02373045298737 166.6157617336139,151.6941890634771 167.05275393184274,152.8078246176592 167.2513867490925,153.78225341814687 167.5691992570646,154.29266764386557 167.9664648915641,155.35989547733334 167.5691992570646,155.68470343516674 167.72810551081784,156.2879175786511 167.9267383280676,156.70552688627504 168.4034570895601,156.98393287151703 168.9596289782785,158.6079642784025 169.436347739771,159.72158235422103 169.59525399375707,160.2319896980771 169.95279306476004,160.78879703502753 169.95279306476004,161.39200418928522 170.1911524455063,162.22721273149364 170.4692383899819,162.4592148232914 170.90623058821075,163.6656237312127 171.8199415479321,165.98563157580793 171.97884780168533,166.58883161414997 172.1774806191679,167.14563091637683 172.29666030942462,167.7024295149604 173.40900408662856,171.22880429652287 172.97201188839972,171.4608016477723 173.2103712693788,171.60000000000582 174.24326191935688,171.04320632765302 175.19669944257475,170.4400123883388 176.70630885427818,169.23362203215947 177.30220730649307,169.04802322256728" stroke="#4dd2ff" stroke-linecap="round" stroke-linejoin="round" stroke-width="0.5"><title>2023-07-14 3.2km</title></polyline><polyline fill="none" points="49.93248511198908,214.72353663409012 49.459827951621264,214.86155049677473 48.75084221106954,215.22958725097124 47.76613979390822,215.96565982876928 47.17531834333204,216.2876911915373 46.58449689322151,216.42570456012618 46.19061592617072,216.93175320475711 45.599794475827366,217.29978821470286 45.04836112214252,217.7598315407522 44.57570396177471,217.9898530220962 44.10304680163972,218.5419040832494 43.43344915774651,218.77192515259958 43.000180094037205,218.2198743824556 42.68507532053627,217.62181859384873 42.488134837010875,217.0237619864056 42.25180625682697,215.91965532914037 41.89731338690035,215.27559182335972 41.818537193350494,214.72353663409012 41.54282051650807,214.21748543088324 41.54282051650807,213.75743837369373 40.9913871625904,212.6533234595263 40.87322287284769,212.0552600491792 40.282401422504336,210.4450852581067 40.24301332561299,209.70900337668718 40.04607284232043,209.20294636348262 39.45525139174424,208.4208570990013 39.06137042469345,207.36273410028662 38.706877554534,206.16659197155968 38.194832297740504,205.15446915000211 38.23422039439902,204.55639547115425 38.470548974582925,204.2343554586987 38.27360849105753,203.59027472152957 37.36768226698041,203.1302164704539 37.21012988034636,202.39412226091372 36.81624891329557,201.24397257476812 36.50114414002746,200.1858321884356 36.02848697965965,199.0816829649848 35.91032268945128,198.57561363797868 35.94971078610979,198.11555010455777 35.71338220615871,197.5634732247854 35.79215839947574,197.33344098558882 35.6739941095002,196.91938264970668 35.477053625974804,196.59733700592187 35.0437845622655,196.2752911245334 34.49235120858066,194.66505815609707 34.29541072505526,194.2970040725486 33.98030595155433,193.28485374347656 33.822753564687446,192.27270106843207 33.547036887845024,191.85863793455064 33.428872597869486,191.35256023760303 33.11376782436855,190.34040308429394 32.32600589073263,188.17805948865134 32.05028921365738,187.07387990606367 31.42007966665551,185.00353566359263 30.592929636128247,183.02519755018875 30.435377249261364,182.51910961646354 30.35660105594434,181.92100493857288 30.12027247576043,181.3228994415258 29.88394389557652,180.9088259252312 29.923331992235035,180.44874378011446 29.056793865049258,178.60841035170597 29.017405768390745,177.55021511850646 28.347808124497533,176.39999999999418 27.28432951378636,176.81407779167057 25.748193742940202,177.13613802485634 24.763491325546056,177.64223219707492 24.369610358495265,178.2403427354002 23.700012714834884,178.42437658223207 23.463684134650975,178.79244404353085 20.66712926956825,180.03466943488456 18.06751488801092,180.95483411315945 18.22506727464497,181.8289887616702 18.185679177753627,183.16322143032448 18.46139585482888,183.7153165146883 18.579560144804418,184.45144220793736 19.170381595380604,184.6814812325756 20.824681656435132,183.89934805434314 22.045712653780356,183.48527698093676 23.10919126449153,183.02519755018875 23.700012714834884,183.07120551500702 24.842267519095913,182.7031416602258 25.59064135607332,182.28906945270137 26.693508063675836,182.05902916780906 27.12677712715231,181.8289887616702 28.30842002783902,181.41491572529776 28.781077188206837,181.41491572529776 29.371898638550192,182.42709356546402 29.529451025184244,182.97918958051014 30.277824862627313,184.54345783236204 30.553541539469734,185.6476438130776 30.78987011942081,186.15372812110581 31.262527279788628,187.67197752647917 31.53824395663105,188.17805948865134 32.05028921365738,189.78831637548865 32.36539398715831,190.84648195415502 32.916827340843156,192.41072202601936 33.19254401768558,193.46888125041733 33.58642498450354,194.43502439025906 33.9015297582373,195.35515872677206 33.940917854895815,195.8612317854131 34.21663453173824,196.3673042578157 34.059082144871354,196.59733700592187 34.01969404844567,196.96538915089332 34.29541072505526,197.4714603436296 34.846844078740105,198.02353733970085 35.08317265892401,198.57561363797868 35.358889335999265,199.58775170557783 36.06787507608533,201.10595440879115 36.30420365626924,202.2100985146244 36.73747272021137,203.1762223172991 36.50114414002746,204.0963382377522 36.73747272021137,204.64840685969102 37.40707036363892,205.38449726990075 37.80095133068971,206.4886305592372 37.91911562089808,206.94868527256767 38.27360849105753,207.50075028897845 38.66748945787549,208.65088349871803 38.82504184474237,209.20294636348262 38.62810136121698,209.6629982178565 39.21892281179316,210.5370954060927 39.69157997192815,211.64121566983522 40.24301332561299,213.29739083192544 40.4793419057969,213.75743837369373 40.55811809934676,214.26349010987906 40.794446679530665,214.76954125979682 41.14893954969011,215.87365082433098 41.62159671005793,217.43780126338243 41.73976100003347,217.94384873556555 42.01547767664306,218.49589985475177 42.094253870192915,219.0939544464054 41.73976100003347,219.46198763450957 42.17303006374277,219.60000000000582 43.15773248090409,219.04795027617365 44.1424348980654,218.3578871403588 45.12713731545955,217.3917969185568 46.15122782951221,216.79373999632662 46.66327308653854,216.65572674406576" stroke="#4dd2ff" stroke-linecap="round" stroke-linejoin="round" stroke-width="0.5"><title>2023-07-13 3.1km</title></polyline><polyline fill="none" points="117.14346409682184,213.3427519373654 116.8259925392922,213.66720402397914 116.58788887155242,213.75990457631997 116.42915309290402,213.99165587150492 115.55610631010495,214.1770568197535 113.4131732978858,215.33581097662682 111.23055634112097,216.6336120099586 110.07972194580361,217.46791065315483 109.12730727368034,218.34855750508723 108.61141599295661,218.67300590104423 108.2939444356598,218.62665614491561 107.97647287836298,218.20950811941293 107.38121370831504,216.6336120099586 107.02405820623972,215.38216107935295 105.59543619817123,211.34968387146364 105.03986097266898,209.12485304242 104.88112519402057,208.80039760674117 104.52396969194524,208.42959110153606 104.24618207942694,207.96608253067825 103.69060685415752,206.9463619561866 103.53187107550912,206.25109657322173 103.3334513520822,205.74123459422844 103.29376740730368,205.09231849384378 103.41281924117357,204.6288064076216 103.41281924117357,204.21164511275128 103.2143995182123,203.423672698671 102.73819218203425,203.423672698671 102.42072062450461,202.86745602748124 101.66672567580827,200.68893396225758 101.34925411851145,200.08636212500278 100.91273072711192,198.92756781121716 100.83336283802055,198.3249935620115 100.59525916981511,197.81512239883887 100.67462705913931,197.3516026470752 100.91273072711192,196.88808240683284 100.83336283802055,196.65632210369222 100.03968394431286,196.10009687792626 99.80158027657308,195.5438709492446 99.68252844223753,195.0339965633466 98.84916560444981,192.62367328681285 98.41264221305028,191.83568012103206 97.69833120913245,189.1008693620388 97.46022754115984,188.54463458509417 97.06338809430599,187.33945682260673 96.30939314560965,185.53168398933485 96.15065736696124,184.882738083601 95.87286975421011,184.2801445997029 95.59508214145899,183.1213086573407 95.19824269483797,182.61141987566953 95.11887480551377,182.10153050316148 94.96013902686536,181.49893321006675 94.76171930343844,181.08174998534378 94.64266746956855,179.96925945187104 94.32519591227174,178.94947399184457 94.04740829952061,177.9296861679759 93.5712009635754,176.6781251533539 92.97594179329462,176.39999999999418 92.340998678701,176.58541678849724 90.87269272608683,176.81718766421545 89.84091016463935,177.28072904917644 89.32501888368279,177.79062400886323 88.21386843314394,178.6713502742641 87.06303403782658,179.2275975336088 85.07883680425584,179.9229056186159 84.4042097448837,180.20102854506695 82.85653590294532,182.98224813916022 82.93590379226953,183.30672261322616 83.13432351546362,183.81661058895406 83.45179507276043,184.23379122067126 84.04705424280837,184.23379122067126 84.68199735763483,184.1410844476777 89.24565099435858,182.79683404634125 90.47585327923298,182.33329847297864 91.07111244928092,181.96246966271428 91.66637161932886,181.82340877814568 92.97594179329462,181.31351849233033 93.61088490835391,181.22081110414 93.8886725208722,181.59164053970017 94.44424774614163,182.70412697087158 95.5553981969133,185.48533074202714 95.71413397556171,186.18062893793103 96.15065736696124,187.33945682260673 96.62686470290646,189.00816361483885 96.90465231542476,189.51804498326965 97.0237041497603,190.1206312935392 97.34117570705712,190.63051137293223 97.57927937502973,191.7429749497678 97.81738304300234,192.34555821295362 97.93643487687223,192.948140650813 98.29359037894756,193.55072226343327 98.531694047153,194.61682617195765 99.00790138309821,195.7756318382162 99.08726927242242,196.33185747414245 98.84916560444981,196.70267417404102 99.28568899561651,197.39795464414055 99.96031605522148,198.0005301628844 100.23810366773978,199.02027146864566 100.91273072711192,200.64258231164422 101.19051834009588,201.80137210901012 101.86514539923519,203.423672698671 101.19051834009588,203.51637540885713 101.19051834009588,204.11894254898652 101.46830595261417,204.6288064076216 102.1032490672078,204.86056251186528 102.53977245884016,206.1120433648175 102.85724401613697,206.57555388868786 103.25408346275799,207.68797715374967 103.53187107550912,208.2441877318197 103.73029079870321,208.80039760674117 103.73029079870321,209.40295751130907 104.16681418986991,210.28362050285796 104.40491785807535,210.56172423932003 104.72238941537216,211.8131888784701 105.83353986614384,214.82595952347037 105.95259170024656,215.42851117724786 106.19069536798634,216.03106200610637 106.54785087006167,217.1434613687743 106.66690270416439,217.74600984941935 107.02405820623972,218.90475460884045 106.82563848304562,219.27555228749407 106.82563848304562,219.60000000000582 107.34152976353653,219.60000000000582 108.84951966116205,218.62665614491561 110.39719350310043,217.46791065315483 111.23055634112097,216.9117117333226" stroke="#4dd2ff" stroke-linecap="round" stroke-linejoin="round" stroke-width="0.5"><title>2023-07-11 3.2km</title></polyline><polyline fill="none" points="180.86127180606127,215.035847127554 180.58496661973186,215.31246380796074 179.6771067220252,215.72738850061432 179.4402737049386,216.00400474402704 178.7692468240857,216.60333933823858 178.4929416377563,216.64944196527358 177.74297041795217,217.24877567577641 177.07194353663363,217.66369853317156 175.84830628312193,218.6779527507897 175.21675157174468,218.9545671294618 174.7036133685615,218.4935430677142 174.1904751653783,217.38708333863178 173.95364214852452,216.41892878126237 173.67733696242794,215.8195939346333 173.44050394557416,214.57481893859222 172.6905327255372,212.26967070938554 172.5721162171103,211.57812387333252 172.2958110307809,211.02488561789505 172.0195058444515,210.0106136664981 171.86161716654897,209.6417869197321 171.74320065812208,209.22685645802994 171.15111811598763,208.3508908583899 171.03270160779357,207.75154496432515 170.59850774356164,206.6450580804958 170.32220255746506,206.1379173239984 170.04589737090282,205.12363404801 170.08536954037845,204.61649152866448 170.24325821828097,204.15545236464823 170.0064252014272,203.60220472709625 169.7695921845734,203.32558064593468 169.33539832034148,203.14116449470748 168.427538422402,200.55933021887904 167.59862286387943,198.62294451711932 167.63809503312223,198.16189903969644 167.36178984702565,197.56253919296432 167.59862286387943,197.33201595646096 167.48020635545254,197.1475972798071 167.51967852469534,197.00928322132677 167.44073418574408,197.00928322132677 167.1644289996475,196.54823604397825 166.84865164360963,196.31771227321588 166.4934021185618,195.76445472799242 165.50659788167104,192.85984114083112 165.46712571242824,192.21436883695424 165.23029269557446,191.84552709307172 165.15134835639037,191.3383691876079 164.8750431702938,190.73899999607238 164.6776823226828,190.13962998377974 164.63821015344,189.49415366788162 164.28296062815934,188.848676399939 164.0855997807812,187.7421417258156 163.65140591654927,186.54339267170872 163.09879554412328,184.8374748948554 162.62512951041572,183.7770361684088 162.54618517146446,183.17765662120655 162.26987998513505,182.67048867078847 162.11199130723253,182.20942638776614 161.83568612090312,181.19508765495266 161.71726961247623,180.36517239763634 161.40149225690402,179.8118946851173 161.32254791771993,178.1520573501184 161.04624273139052,177.8754171821929 160.76993754529394,177.18381599741406 160.37521585053764,176.63053426254191 159.9410219863057,176.40000000002328 156.82272059796378,177.55267009857926 156.4279989034403,177.8754171821929 156.11222154763527,178.38259068969637 155.6385555139277,178.61312390802777 155.32277815812267,178.33648403157713 151.13872819417156,184.2842028363375 156.34905456448905,182.4399575899879 156.9806092758663,182.11721387281432 157.53321964852512,181.9788950640941 158.12530219065957,181.70225731524988 160.41468802001327,181.1489812930231 160.888354053488,181.42561939160805 161.5593809345737,182.99323197995545 162.15146347670816,184.92968683657818 162.38829649356194,185.39074625386274 162.7435460188426,186.8661331247131 163.13826771336608,187.78824739321135 163.4145728996955,188.710359718767 163.88823893340304,189.67857556961826 163.9671832723543,190.13962998377974 164.24348845868371,190.6006839122856 164.32243279763497,191.10784267264535 165.15134835639037,193.45920742780436 165.54607005114667,194.88846218425897 165.78290306800045,195.39561597604188 166.01973608485423,196.36381703714142 165.78290306800045,196.8248644086998 165.94079174590297,197.00928322132677 166.0986804238055,197.47032991293236 166.256569101708,197.7469576947624 166.69076296593994,197.88527152020833 166.84865164360963,198.48463092496968 167.67756720259786,200.42101723863743 168.11176106682979,201.94245761778438 168.3880662531592,202.35739498527255 168.86173228686675,203.4177886924299 168.11176106682979,203.83272466098424 168.6643714394886,204.80090705829207 169.17750964243896,204.98532251021243 169.65117567614652,206.0457098505576 169.7301200153306,206.55285071392427 170.75639642146416,209.0885462166916 170.44061906565912,209.68789028006722 170.6774520825129,209.87230367286247 171.2300624549389,210.7482662278344 171.3879511328414,211.3015048330126 172.4142275392078,213.9754815667984 173.0852544202935,216.09621011963463 173.55892045400105,217.1565705430985 173.83522564009763,218.35523575457046 174.0325864877086,218.86236235589604 173.79575347085483,219.27728368371027 173.75628130114637,219.5077953626169 174.0720586569514,219.60000000000582 174.7036133685615,219.32338602925302 176.12461146945134,218.5396454957954 177.3087765534874,217.70980104856426 177.74297041795217,217.29487823497038 178.29558079037815,217.01826280733803 179.04555201041512,216.32672347361222 179.95341190812178,215.77349122002488 180.34813360287808,215.45077208254952" stroke="#4dd2ff" stroke-linecap="round" stroke-linejoin="round" stroke-width="0.5"><title>2023-07-07 3.1km</title></polyline><polyline fill="none" points="48.13456020411104,264.8943933462724 47.19225619034842,265.4905454090622 46.838892185362056,266.04083889641333 45.70027483534068,266.8204201460467 45.503961499314755,266.8204201460467 45.268385495990515,266.6369893892843 44.757970821810886,265.9949811322731 44.32608148246072,264.8943933462724 44.2082934807986,264.29824046738213 43.540828137658536,263.10593226048513 43.423040135763586,262.41806065588025 43.14820146537386,261.8677625898272 42.55926145683043,260.1710058407043 41.970321448286995,257.9697980423807 41.616957443300635,256.96090741539956 40.47834009351209,254.3469526428089 40.36055209161714,253.70492626275518 40.04645075392909,252.6960257528117 40.32128942455165,252.23743383894907 40.164238755591214,251.59540434804512 39.81087475060485,251.22852992807748 39.45751074538566,251.18267060391372 39.22193474206142,250.63235833650106 39.182672074763104,250.08204537330312 38.947096071438864,249.57759121264098 38.63299473328516,249.164855555573 38.554469398921356,248.5228215335519 38.16184272686951,247.97250590383192 37.92626672331244,247.37632985331584 37.769216054352,246.8260127742833 37.72995338705368,246.27569499972742 37.49437738372944,245.7712364286126 37.57290271832608,245.35849716278608 37.57290271832608,244.8998975197028 37.41585204913281,244.5788774821267 36.866174707887694,243.84511650711647 36.66986137162894,243.29479496448766 36.512810702901334,242.69861250801478 35.80608269269578,241.09350183641072 35.49198135477491,240.0387116012862 35.21714268415235,239.67182744212914 35.21714268415235,239.25908239351702 35.09935468249023,238.66289441013942 34.74599067727104,237.60809828568017 34.11778800166212,235.26919341442408 33.76442399667576,234.26025017842767 33.05769598623738,232.51752453568042 32.54728131229058,231.41685211387812 32.19391730730422,231.00409923819825 32.03686663811095,229.85756141899037 31.80129063478671,228.71102057999815 31.56571463122964,228.2982651385537 31.251613293541595,227.05999646618147 30.93751195562072,226.6013775455358 30.544885283336043,225.73000026488444 30.505622616270557,225.17965582056786 30.191521278349683,224.39999999999418 28.856590592535213,224.9503454299993 27.521659906487912,225.31724199696328 26.46156789106317,226.28034401350305 26.06894121877849,226.372067903867 25.794102548155934,226.28034401350305 25.558526544831693,226.6013775455358 25.36221320857294,226.3262059611443 25.165899872547016,226.23448206100147 25.205162539612502,226.1427581415919 24.96958653628826,225.86758626726805 25.048111870884895,226.0510342028865 25.165899872547016,225.91344825844862 25.205162539612502,226.0510342028865 25.519263877533376,226.1427581415919 25.7155772135593,226.41792984187487 25.283687873976305,226.83068706621998 23.438342513982207,227.70206214336213 22.260462497128174,228.20654165395536 21.750047822948545,228.34412687362055 20.572167806094512,228.80274395813467 20.061753131914884,229.3530838219449 20.179541133577004,229.39894544580602 19.98322779755108,229.39894544580602 19.86543979588896,229.62825349287596 19.904702462954447,229.5823918931128 20.258066467940807,230.1785923129064 20.415117137134075,230.72893043706426 20.21880380110815,231.64615909801796 20.415117137134075,232.2882180106535 20.72921847505495,232.56338582624448 21.3574211508967,232.79269220630522 21.907098492141813,232.33407932525733 22.456775833386928,232.0589113648748 24.419909194810316,231.3251292865607 25.048111870884895,231.18754500921932 25.637051879195496,230.86651485948823 26.893457230646163,230.40789994917577 27.521659906487912,230.31617690913845 30.70193595229648,229.30722219316522 31.290875960839912,230.45376146191848 31.487189296865836,231.0958221333276 31.722765300422907,231.64615909801796 32.115391972940415,232.2882180106535 33.803686663741246,236.69088218681281 33.88221199833788,237.33293365887948 34.23557600332424,237.9291234636621 34.39262667228468,238.43359112227336 34.5104146739468,238.98391881026328 34.667465342907235,239.25908239351702 35.17788001685403,241.46038479733397 36.19870936498046,244.3037172614131 36.04165869625285,244.8540375288867 36.15944669768214,245.404357100575 36.748386706225574,245.7712364286126 36.94470004248433,246.87187255747267 37.88700405601412,248.70625992221176 37.92626672331244,249.21071509228204 38.2796307282988,250.17376424881513 38.75078273518011,251.13681127491873 38.554469398921356,251.54954506250215 38.2796307282988,251.91641921186238 38.5937320664525,252.46672985618352 39.26119740935974,253.01703980503953 39.6145614143461,253.65906719941995 39.889400084968656,254.2093756410468 40.79244143120013,256.548178757861 40.79244143120013,257.09848354765563 40.67465342953801,257.41949435381684 40.870966765796766,257.9239394282922 41.4599067743402,258.7493937436666 42.24516011890955,260.90473930040025 42.28442278620787,261.40918033669004 42.598524124128744,262.0053371714894 42.91262546181679,263.1517903288768 43.423040135763586,264.3440984101617 43.73714147391729,265.44468758709263 43.97271747724153,265.94912336335983 44.24755614786409,267.0038508255384 43.933454809943214,267.2789966998389 44.12976814620197,267.6000000000058 44.67944548744708,267.2789966998389 47.50635752826929,264.8485354615259" stroke="#4dd2ff" stroke-linecap="round" stroke-linejoin="round" stroke-width="0.5"><title>2023-07-05 3.1km</title></polyline></svg>