<?xml version="1.0" encoding="utf-8" ?>
<svg baseProfile="full" height="300mm" version="1.1" viewBox="0,0,200,300" width="200mm" xmlns="http://www.w3.org/2000/svg" xmlns:ev="http://www.w3.org/2001/xml-events" xmlns:xlink="http://www.w3.org/1999/xlink"><defs /><rect fill="#222222" height="300" width="200" x="0" y="0" /><text fill="#FFFFFF" style="font-size:12px; font-family:Arial; font-weight:bold;" x="10" y="20">Over 3km Runs</text><text fill="#FFFFFF" style="font-size:4px; font-family:Arial" x="10" y="280">ATHLETE</text><text fill="#FFFFFF" style="font-size:9px; font-family:Arial" x="10" y="290">Melt</text><text fill="#FFFFFF" style="font-size:4px; font-family:Arial" x="120" y="280">STATISTICS</text><text fill="#FFFFFF" style="font-size:3px; font-family:Arial" x="120" y="285">Number: 12</text><text fill="#FFFFFF" style="font-size:3px; font-family:Arial" x="120" y="290">Weekly: 4.0</text><text fill="#FFFFFF" style="font-size:3px; font-family:Arial" x="141" y="285">Total: 42.7 km</text><text fill="#FFFFFF" style="font-size:3px; font-family:Arial" x="141" y="290">Avg: 3.6 km</text><text fill="#FFFFFF" style="font-size:3px; font-family:Arial" x="167" y="285">Min: 3.1 km</text><text fill="#FFFFFF" style="font-size:3px; font-family:Arial" x="167" y="290">Max: 5.7 km</text><polyline fill="none" points="50.95155015098862,83.80221775450627 50.40397264342755,82.38604951347224 49.973733173217624,80.96987664836342 49.621719061164185,79.46233271082747 49.15236691199243,77.81773334823083 49.07414155360311,77.22384871260147 48.1745499339886,75.57924086178537 47.31407099380158,72.92958176246611 47.23584563564509,72.56411027151626 47.27495831460692,72.10727047472028 47.35318367276341,71.83316636574455 47.31407099380158,71.51337801956106 47.04028223990463,71.01085299899569 46.37536669499241,70.64537989118253 46.29714133683592,70.46264322171919 45.827789187431335,68.6352722926531 44.81085953046568,66.21399395170738 44.73263417230919,65.20893104744027 44.81085953046568,64.79776827889145 44.77174685150385,64.56934435013682 44.4979580976069,64.06681128338096 43.911267911083996,63.51859272818547 43.637479157419875,62.9703734802315 42.89433825411834,60.914545127307065 42.033859313698485,58.08205454403651 41.01692965673283,55.56934579912922 40.03911267919466,52.37133179407101 39.68709856714122,51.640353852824774 39.569760529790074,51.09211958837113 39.256859096931294,50.178394273942104 38.943957664072514,48.89917559918831 38.74839426856488,47.8940725644934 38.591943552019075,47.30014694898273 38.43549283547327,46.34072692861082 38.08347872341983,45.28993113711476 38.00525336526334,44.60462816231302 38.08347872341983,44.28481973672751 38.239929439965636,44.147758910723496 39.882661962648854,43.50814114967943 40.70402822387405,42.95989660359919 41.60361984348856,42.64008696496603 42.698774858610705,42.00046698006918 45.28021167987026,41.31515880624647 46.453592053148896,40.766911487531615 48.370113329496235,40.31003819243051 48.722127441549674,40.127288739487994 49.19147959095426,39.80747701175278 50.20840924791992,39.53335248577059 51.34267694200389,38.98510291421553 52.828958748141304,38.57391528051812 53.141860181232914,38.345477537834086 53.063634822843596,38.254102406906895 52.750733389984816,38.299789974757005 51.96847980772145,38.52822774159722 47.118507598061115,40.40141288982704 45.90601454582065,40.766911487531615 41.99474663450383,42.22890279715648 40.977816977771,42.45733849413227 38.70928158937022,43.50814114967943 37.653239253442734,43.736576172552304 36.714534954633564,44.102071959059685 35.26736582769081,44.46756743741571 33.859309379709885,44.78737572825048 33.46818258846179,44.78737572825048 33.31173187214881,44.65031506094965 32.881492401706055,42.64008696496603 32.568590968847275,41.77203104246291 31.356097916606814,37.06622395434533 31.043196483748034,36.289532437425805 30.652069692499936,34.279265580000356 30.300055580446497,33.63963326183148 30.18271754332818,33.59394520302885 29.8698161104694,33.63963326183148 29.674252714728937,33.731009365059435 29.674252714728937,33.868073483754415 29.8698161104694,34.91889695468126 30.691182371694595,37.568788312375546 30.964971125358716,38.71097786835162 31.629886670503765,41.041035233589355 32.255689536221325,43.55382816394558 32.68592900619842,46.24935348259169 32.529478289885446,46.52347376284888 32.37302757357247,46.5691604592721 30.88674576720223,47.16308707604185 27.914182154927403,47.98544566394412 27.01459053531289,48.442310872284 26.858139818767086,48.71642976618023 26.897252497961745,48.76211623166455 27.249266610015184,48.533683856076095 30.18271754332818,47.52857997440151 32.255689536221325,46.70622051996179 32.529478289885446,46.52347376284888 32.68592900619842,46.15798001730582 32.68592900619842,45.51836522141821 32.216576856793836,43.690889177669305 32.13835149887018,42.914209526759805 30.84763308800757,38.117039674776606 30.730295050656423,37.294662371103186 29.94804146862589,34.05082557472633 29.752478072885424,33.1370643498085 29.752478072885424,33.0 30.065379505977035,33.04568812137586 30.26094290148467,33.228440558945294 30.57384433434345,34.005137559142895 31.16053452086635,36.60934675997123 31.47343595395796,38.1627272569458 31.708112028660253,38.93941541851382 31.78633738681674,39.624727346992586 32.02101346151903,40.40141288982704 33.27261919295415,44.60462816231302 33.42906990949996,44.83306260764948 33.58552062581293,44.924436352041084 33.93753473786637,44.924436352041084 35.03268975298852,44.60462816231302 36.9100983501412,43.827950148057425 39.10040838038549,43.18833191538579 40.977816977771,42.41165136444033 42.072971992893144,42.091841321322136 43.16812700801529,41.68065663371817 44.224169343942776,41.17809704170213 45.39754971722141,40.94966067082714 47.86164850136265,39.99022659935872 49.42615566565655,39.39629015792161 52.476944636087865,38.57391528051812 52.750733389984816,38.57391528051812 52.828958748141304,38.6196028146951 52.828958748141304,38.71097786835162 52.71162071102299,38.89372791815549 52.28138124058023,39.07647789095063 49.81728245667182,39.80747701175278 48.13543725479394,40.44710023148218 44.4979580976069,41.634969422069844 40.508464828366414,43.096957805071725 39.45242249243893,43.59951517326408 36.949211029335856,44.376193596603116 36.401633522007614,44.65031506094965 36.24518280522898,44.83306260764948 36.28429548442364,45.015810077107744 36.401633522007614,45.28993113711476 36.9100983501412,45.883859506080626 37.066549066687,46.24935348259169 37.49678853689693,47.93975911659072 37.966140686068684,48.89917559918831 38.904844984877855,52.051529096323065 40.0,55.24954545981018 40.743140903068706,57.71657054050593 41.52539448533207,59.72672874806449 42.62054950045422,62.924688511528075 42.85522557515651,63.975441572314594 42.85522557515651,64.61502914546872 43.16812700801529,65.39166993054096 43.55925379926339,65.71146279069944 44.02860594820231,66.6708399564377 45.43666239641607,70.55401156609878 45.554000433767214,71.01085299899569 45.28021167987026,71.37632579889032 45.241099000908434,71.51337801956106 45.31932435906492,71.7874823306338 45.514887754572555,72.19863847258966 46.02335258293897,72.60979422472883 46.179803299484774,72.88389784301398 47.35318367276341,75.99039340909803 47.50963438930921,76.5842797337973 47.62697242666036,77.36089908526628 48.331000650534406,78.6400338090607 49.58260638220236,82.61446405862807 50.873324792832136,86.26908042244031 50.912437472026795,86.54317540826742 50.71687407628633,86.86295267305104 50.75598675548099,87.0 51.02977550937794,87.0 51.38178962119855,86.86295267305104 52.00759248691611,86.45181043221965" stroke="#4dd2ff" stroke-linecap="round" stroke-linejoin="round" stroke-width="0.5"><title>2023-07-23 5.7km</title></polyline><polyline fill="none" points="113.86151138180867,82.9238981413946 111.90090156812221,84.06887443264714 110.72453568014316,85.12224995766883 109.62659418443218,85.76343381070183 108.80313806282356,85.99242781460634 108.48944049282,85.85503142670495 108.21495511871763,85.5344396859291 107.5483477821108,83.88567842848715 107.35228680074215,83.10709455044707 106.80331605300307,81.54992261223379 106.60725507163443,80.54233779825154 106.17592091253027,79.4889511783258 105.5485257722903,77.29057088145055 104.56822086544707,75.2753791785799 103.94082572543994,72.71057623074739 103.90161352884024,72.43577501771506 104.019250117708,71.79457151147653 103.94082572543994,71.42816908334498 103.7055525474716,71.01596598286415 103.15658179949969,70.74116369860712 102.92130862222984,70.42056081426563 101.90179151925258,67.30612049181946 101.43124516378157,66.16110005878727 101.19597198604606,64.55806638649665 100.41172806080431,63.50464104078128 99.82354511669837,62.13060414567008 98.882452406222,59.19931092223851 98.72560362098739,58.42068283766275 98.37269385461695,57.32144081505248 98.09820848074742,55.306156554841436 97.9021474996116,54.52752149797743 97.54923773300834,53.47407184840995 96.84341820003465,51.96259615322924 95.94153768569231,50.49691773348604 95.82390109705739,49.8098792732344 95.31414254545234,48.435799095459515 95.27493034908548,47.70295455813175 94.7259596013464,46.054049832193414 94.05935226473957,44.72576092131203 93.78486689087003,44.49674518179381 92.76534978789277,44.49674518179381 90.68710338533856,44.634154640021734 90.33419361920096,44.58835149210063 90.09892044146545,44.40513885204564 89.27546431985684,41.93176065501757 88.49122039438225,39.36676099416218 88.25594721664675,38.359078415087424 87.4324910948053,35.42762490347377 87.11879352480173,33.87028218465275 87.04036913230084,33.68706502739224 86.92273254343309,33.64126072608633 86.56982277706265,33.87028218465275 86.5306105806958,34.145107775810175 86.80509595456533,35.42762490347377 87.35406670230441,37.443001316220034 88.72649357188493,41.611136525083566 88.92255455325358,42.52720484044403 89.47152530099265,45.87083780989633 89.19703992712311,46.19145879818825 89.3538887121249,46.099852825689595 89.43231310462579,46.00824683383689 89.31467651575804,45.41280741652008 88.29515941301361,41.84015378498589 88.17752282414585,41.107298128918046 87.66776427254081,38.862919996492565 87.11879352480173,37.168177810061025 86.76588375819847,35.29021253497922 86.37376179569401,34.190912024118006 86.29533740319312,33.549652108806185 86.1384886179585,33.274826141336234 86.17770081432536,33.09160873293877 86.37376179569401,33.0 86.68745936569758,33.13741309236502 87.07958132843487,34.00769500187016 88.21673502027988,37.80943238735199 88.49122039438225,39.04613497227547 88.9617667493876,40.55765557594714 89.9812838525977,44.49674518179381 90.25576922646724,44.771564054797636 91.39292291831225,44.90897342626704 92.09874245128594,45.13798894875799 92.84377418039367,45.825034792360384 93.745654694736,47.336531826120336 94.13777665724047,48.29839083866682 94.60832301247865,48.93962899822509 95.35335474158637,50.542720258876216 96.88263039640151,54.756531953666126 97.11790357390419,55.62677058481495 98.09820848074742,58.51228621409973 98.5687548359856,60.344349689781666 99.66669633169658,63.5504421958758 99.74512072419748,64.00845348113216 99.54905974282883,64.60386743061827 99.58827193896286,64.9702756095503 99.82354511669837,65.33668347969069 100.49015245307237,65.7946928832389 100.64700123830698,66.11529917869484 101.117547593778,67.71832710952731 102.05864030402154,70.23735905982903 102.17627689312212,70.74116369860712 102.25470128539018,71.15336705977097 102.05864030402154,71.5197697194817 102.0194281078875,71.70297093337285 102.0978525003884,72.02357287221821 102.21548908925615,72.25257411241182 102.64682324812748,72.61897584566032 102.88209642586298,72.89377694309223 103.47027936996892,74.22197979869088 104.29373549157754,76.60357475923956 104.29373549157754,77.3821702823916 104.96034282818437,78.38976241913042 106.254345305264,81.54992261223379 107.03858923073858,83.93147743673762 107.35228680074215,84.66426091254107 107.74440876371227,86.35881797029288 107.5483477821108,86.90840262494748 107.74440876371227,87.0 107.94046974484809,86.95420131488936 109.11683563282713,86.31301921769045 111.15586983901449,84.84745658849715 112.09696254949085,84.38946725381538" stroke="#4dd2ff" stroke-linecap="round" stroke-linejoin="round" stroke-width="0.5"><title>2023-07-22 4.0km</title></polyline><polyline fill="none" points="173.79976276494563,82.89154347134172 172.91070241876878,83.34302413652767 171.48047490534373,84.24598404054996 170.20486658229493,85.28438557870686 168.85194866452366,86.1873413932044 168.54271028283983,86.32278460115776 168.23347190162167,86.32278460115776 168.00154311582446,86.14219364756718 167.8082691275049,85.87130707438337 166.687279995298,82.75609917909605 166.33938681636937,81.67254329990828 166.10745803033933,80.5438363464491 165.21839768416248,77.9703733791248 165.0637784935534,77.24799503217218 164.83184970752336,76.61591297993436 164.59992092172615,76.20957402558997 163.90413456386887,74.26817148231203 163.4016221940983,73.09429591117078 163.2856578011997,72.59765527871787 163.47893178951927,71.96556636856985 163.4016221940983,71.60437228731462 163.20834820601158,71.24317790163332 162.82180022913963,71.06258059458924 162.66718103853054,70.92713256442221 162.3192878596019,70.11444348425721 161.00502473930828,66.36702390262508 160.88906034617685,65.55432617620681 160.9277151436545,65.05767680690042 160.81175075098872,64.7416269085661 160.69578635809012,64.42557677725563 160.34789317892864,64.10952641288168 160.23192878603004,63.88377600995591 159.65210682107136,62.48412085772725 159.03363005863503,60.452355245070066 158.6084272840526,59.413893545774044 158.3764984982554,58.33027865504846 157.1395449731499,54.89881342626177 156.36644901987165,52.37034778218367 155.67066266201437,50.88035211354145 155.55469826888293,50.15792810631683 155.12949549476616,49.074289812444476 155.01353110186756,48.261559293809114 154.58832832751796,47.26821990002645 154.12447075545788,45.64275047101546 153.9698515648488,45.37183830019785 153.6992679813411,45.14607802699902 152.92617202806287,44.96546972275246 152.30769526562653,45.01062180590816 151.26401572860777,45.281534205161734 150.4522649780847,45.46214237625827 150.25899098953232,45.46214237625827 149.98840740602463,45.281534205161734 149.44724023877643,43.83666609690408 149.0606922621373,42.12087889102986 148.86741827381775,41.624202365084784 148.7514538806863,41.037220274069114 148.2489415111486,39.41172721062321 147.9783579276409,37.876533655886305 147.70777434390038,37.15408772716182 146.89602359291166,34.08367894162075 146.70274960482493,33.18061334724189 146.5867852116935,33.0 146.27754683047533,33.451533225452295 146.27754683047533,33.8579127213452 146.66409480711445,35.1673551426793 146.857368795434,35.75434527400648 146.97333318833262,36.61225248122355 147.90104833221994,39.54718520140159 148.2489415111486,41.21783023382886 149.0606922621373,44.37849220831413 149.52454983396456,46.45548595621949 149.48589503625408,46.54578980393126 149.25396625045687,46.500637882447336 149.33127584587783,46.32003014910151 149.25396625045687,45.687902483012294 149.02203746442683,44.694557123671984 148.82876347610727,44.15273141185753 148.6741442854982,43.29483930036076 147.9397031296976,41.037220274069114 147.51450035558082,39.27626917709131 146.78005920001306,36.92832312459359 146.27754683047533,34.17398539627902 146.20023723505437,33.6772996596992 146.27754683047533,33.04515334390453 146.54813041421585,33.09030668315245 146.70274960482493,33.22576667211251 146.89602359291166,33.541839813347906 147.47584555787034,35.30281447517336 147.70777434390038,36.29618160467362 148.05566752282903,37.01862897988758 148.13297711824998,37.605616575310705 148.48087029717863,39.05050569260493 148.94472786900587,40.67600012620096 149.13800185732543,41.669354800280416 149.44724023877643,42.34664075792534 149.71782382228412,43.881818299065344 149.98840740602463,44.6042528860271 150.14302659663372,45.14607802699902 150.2976457872428,45.281534205161734 150.52957457327284,45.32668625502265 151.5345993123483,45.1009259581333 151.76652809837833,45.1009259581333 152.346350063337,45.23638215055689 152.65558844455518,45.46214237625827 153.19675561180338,46.18457429911359 153.62195838615298,47.17791620458593 154.12447075545788,48.71307643887121 154.74294751812704,49.75156406717724 155.55469826888293,52.28004516172223 155.82528185285628,52.91216310454183 156.90761618711986,56.02758791542146 157.29416416375898,56.84030370693654 157.44878335436806,57.69816870361683 157.91264092642814,59.18814066948835 158.3764984982554,60.3169038616179 158.84035607008263,61.85201703250641 159.57479722588323,63.83862591505749 159.61345202336088,64.29012664966285 159.4588328327518,64.87707689357921 159.53614242817275,65.23827664417331 159.7294164164923,65.55432617620681 160.19327398831956,65.96067523199599 160.34789317892864,66.1864245410834 161.04367953701876,67.94726507083396 161.70081109716557,70.06929404579569 162.0873590738047,71.1077299285098 162.0873590738047,71.3786258318869 161.85543028777465,71.73982010356849 161.85543028777465,71.920417125104 161.93273988296278,72.19131251500221 162.12601387128234,72.55250610166695 162.6285262410529,72.91369938408025 163.0150742174592,73.68123409862164 163.5562413847074,75.17115050327266 163.71086057531647,75.84838352052611 164.02009895653464,76.7513592124451 164.05875375447795,77.38344106497243 164.87050450546667,78.64760197381838 166.2620772209484,82.62065484386403 167.03517317422666,85.37468124565203 167.30575675796717,86.09704589733155 167.46037594857626,86.7742616525502 167.653649936663,87.0 167.88557872292586,86.90970467517036 169.50908022467047,85.60042033006903 170.9393077378627,84.6523153767339" stroke="#4dd2ff" stroke-linecap="round" stroke-linejoin="round" stroke-width="0.5"><title>2023-07-20 4.1km</title></polyline><polyline fill="none" points="53.90819988795556,142.55319694746868 52.78155799768865,143.5514628525998 49.24623344512656,145.820240398054 48.70233736024238,146.09249290064326 48.430389317683876,146.13786830095341 48.197290995391086,146.0471174955601 48.00304239382967,145.820240398054 47.420296588214114,144.3682241452334 47.10949882538989,143.14308162539965 46.410203858977184,141.37342516815988 46.02170665562153,139.9213939277688 45.20586252794601,137.87946671561804 44.97276420565322,136.7904349117016 44.42886812100187,135.7921533397457 43.457625111797825,133.11493224825244 43.341075950767845,132.34352647312335 43.53532455256209,131.8897577248863 43.574174272827804,131.61749624661752 43.26337651023641,131.027595786436 42.758330145385116,130.846087790007 42.60293126385659,130.7099567425612 42.447532382560894,130.39231746448786 41.12664189049974,126.76213765176362 40.89354356820695,125.94534297793871 40.66044524614699,125.4915674898657 40.621595525881276,125.26467956660781 40.69929496641271,124.99241390102543 40.58274580538273,124.4932597335719 40.077699440997094,123.81259402786964 39.80575139820576,123.13192724663531 38.95105755049735,120.04622434763587 38.67910950793885,119.32017339442973 38.601410067174584,118.77563437624485 38.40716146538034,118.23109466981259 37.669016778469086,116.18906463930034 37.008571532322094,114.5554336446803 36.23157712537795,112.28649142917129 35.80423020129092,111.19739492045483 35.415732997935265,110.51670820399886 35.33803355693817,109.9721580563928 35.066085514612496,108.88305569565273 35.066085514612496,108.42926223264658 34.949536353582516,108.0208477069682 34.75528775178827,107.34015597059624 34.172541946405545,106.1602877456753 33.90059390384704,105.43421338548069 33.66749558178708,105.11655546791735 33.47324697999284,104.98041628862848 32.54085369128734,105.16193518479122 31.763859284110367,105.43421338548069 31.06456431793049,105.61573209019843 30.404119071783498,105.84263036365155 30.093321308726445,106.06952851763344 29.70482410513796,106.47794489329681 29.549425224075094,106.56870403542416 28.92782969819382,106.6140835993283 29.12207829998806,106.65946315831388 29.199777740752324,106.56870403542416 29.199777740752324,106.43256531519 28.92782969819382,105.57035242108395 28.267384452046826,103.07446326129138 27.801187807694077,100.85084073594771 27.33499116334133,99.44405320935766 26.63569619716145,96.76660618954338 26.32489843433723,95.26904381811619 26.130649832310155,93.77147623934434 26.09180011204444,93.22690491969115 26.169499552808702,93.0 26.441447595134377,93.13614296619198 26.7522453579586,93.68071440065978 27.140742561547086,95.04213997427723 27.723488366929814,96.7212255881459 27.917736968724057,97.71959771457477 28.92782969819382,101.30464218367706 29.199777740752324,102.57528369370266 29.70482410513796,103.80054159957217 30.015621868195012,105.25269460404525 30.404119071783498,105.34345400438178 31.64731012331322,105.25269460404525 31.996957606403157,105.34345400438178 33.08474977640435,106.2056673525949 33.43439725949429,106.75022226211149 33.78404474281706,108.2023653217475 34.32794082793407,109.291469403659 34.75528775178827,110.47132905136095 35.299183836905286,112.42262829921674 35.84307992178947,113.9201310290955 35.998478803317994,114.69156979760737 36.58122460846789,115.91679323712015 36.8531726510264,116.8243639083812 37.39706873614341,118.14033798512537 37.70786649896763,119.27479516915628 38.56256034667604,121.5437005739077 38.71795922820456,122.17899194572237 39.30070503382012,123.85797177499626 39.33955475385301,124.22099358038395 39.10645643179305,124.85628100359463 39.10645643179305,125.08316914195893 39.30070503382012,125.40081233487581 39.88345083897002,125.94534297793871 40.69929496641271,127.85119480776484 40.81584412767552,128.35034508412355 41.16549161076546,129.076380817045 41.7870871364139,131.11834975585225 41.748237416148186,131.29985763767036 41.59283853485249,131.61749624661752 41.67053797538392,131.93513462130795 41.90363629744388,132.38890332175652 42.330983221530914,132.7519179379742 42.48638210305944,132.933425131283 43.26337651023641,134.6123630448128 43.76842287462205,136.15516508818837 44.00152119691484,136.6996821372013 44.00152119691484,137.47108011177625 44.661966442829,138.65086257780786 46.177105536684394,143.50608717979048 46.33250441821292,144.141346163844 47.10949882538989,146.0471174955601 47.187198266154155,146.54624668919132 47.03179938485846,146.8638740570168 47.03179938485846,146.95462469034828 47.187198266154155,147.0 47.38144686818123,146.95462469034828 48.197290995391086,146.50087133178022" stroke="#4dd2ff" stroke-linecap="round" stroke-linejoin="round" stroke-width="0.5"><title>2023-07-19 3.3km</title></polyline><polyline fill="none" points="122.06745149753988,139.59426414163318 122.06745149753988,139.18607109569712 121.76789333228953,138.89450445002876 121.11885064118542,138.77787774882745 120.61958703259006,138.89450445002876 119.67098617646843,139.3610110093723 116.52562544238754,141.5185987331788 114.07923376071267,142.97642351628747 112.4815902132541,144.2009933674708 110.43460941803642,145.6004984525498 109.73564036632888,145.89206156658474 109.43608220131136,145.77543633955065 109.18645039689727,145.5421858112095 108.63726042746566,144.2593061500811 107.08954324107617,138.6029376507504 105.89131058054045,135.3956927250838 105.74153149779886,134.75424151035259 105.79145785886794,134.05447570123943 104.6431515594013,132.3050573085784 103.44491889863275,129.09777589770965 103.24521345528774,128.28137402638094 103.24521345528774,127.93148714140989 103.44491889863275,127.34834184177453 103.39499253802933,126.99845436715987 103.14536073384807,126.41530808486277 102.99558165110648,126.29867875477066 102.49631804251112,126.06542002072092 102.29661259916611,125.77384646481369 101.7474226297345,123.84945714485366 101.09837993863039,122.33326690853573 100.49926360836253,120.70044201024575 100.14977908250876,118.89266596914968 100.14977908250876,118.25119563232874 99.40088366949931,117.08488402451621 98.7518409783952,115.7436226378777 96.25552293565124,108.68736790877301 95.75625932728872,106.70460245787399 95.0073639145121,104.60519600397674 94.75773211033083,103.61380685528275 94.05876305815764,101.74765775853302 93.4596467281226,99.8231849129661 93.16008856287226,98.77346963161835 93.0103094803635,97.72375235962681 92.66082495404407,96.49907969275955 92.01178226317279,95.33272225304972 91.21296048979275,94.16636235528858 90.66377052012831,93.11663634626893 90.3642123551108,93.0 89.56539058126509,93.0 88.71664244681597,93.23327266779961 88.06759975594468,93.29159081930993 87.5683361471165,93.40822710387874 86.37010348658077,94.04972623032518 84.42297541326843,95.68262974295067 82.22621553600766,96.5573975003208 78.98100208025426,97.72375235962681 78.08232758496888,98.24861124437302 77.93254850246012,98.54019929870265 77.93254850246012,98.77346963161835 78.18218030664138,100.17308956437046 78.23210666747764,101.10616755340016 78.33195938915014,101.51438867900288 78.78129663690925,102.33083002700005 79.38041296717711,102.50578158785356 81.22768831881694,102.09756119339727 85.62120807403699,100.58131137810415 88.16745247738436,99.53159753448563 91.01325504621491,98.77346963161835 91.41266593290493,98.71515205752803 91.71222409815527,98.89010476123076 93.50957308895886,103.38053856207989 94.70780574926175,106.76291919010691 96.00589113146998,110.1452791505726 96.60500746173784,112.24466459313408 96.7547865442466,113.46930242446251 97.45375559618697,115.04383279813919 98.20265100919642,117.43477776477812 98.20265100919642,118.77603505406296 98.65198825695552,119.53413556271698 99.10132550448179,119.82571240485413 99.25110458699055,120.05897376814391 100.74889541277662,123.9077720711357 100.89867449528538,124.6658655522624 101.44786446471699,126.0071053217398 101.49779082555324,126.41530808486277 101.49779082555324,126.64856667153072 101.19823266030289,127.17339813220315 101.19823266030289,127.46497095085215 101.59764354722574,128.28137402638094 102.24668623832986,128.80620393902063 102.84580256859772,130.0891194086289 103.99410886806436,133.0048253290006 104.1938143116422,133.76290635304758 104.1938143116422,134.40435871633235 104.24374067247845,134.69592772674514 104.89278336334974,135.86220223264536 105.79145785886794,138.19474387390073 106.14094238495454,139.3610110093723 108.33770226244815,145.5421858112095 108.4874813449569,146.35856222972507 108.2877759016119,146.8250625000801 108.2877759016119,146.94168750598328 108.43755498435348,147.0 108.68718678853475,146.94168750598328 109.68571400572546,146.35856222972507 111.73269480047747,144.9007463522721 113.0307801826857,143.79280371806817" stroke="#4dd2ff" stroke-linecap="round" stroke-linejoin="round" stroke-width="0.5"><title>2023-07-18 3.1km</title></polyline><polyline fill="none" points="180.13960404112004,140.27925880555995 178.80027076718397,141.4380131457001 178.05619672662579,141.7277013491257 176.56804864457808,142.77057761885226 175.7247647314798,143.1761400786345 174.93108575465158,143.87138931429945 174.03819690528326,144.3928256642539 172.2028142712079,145.84125737624709 171.65715997456573,146.18888041970786 171.0122958056163,145.03013608738547 170.16901189251803,142.77057761885226 170.02019708463922,141.95945180230774 169.57375266007148,141.20626247290056 169.32572797941975,139.75781855615787 168.53204900282435,136.860919280909 168.0359996422194,135.41246392211178 168.0359996422194,134.8910190592287 167.83757989760488,134.7172039950965 167.4903453453444,133.7901893921662 166.64706143224612,131.99409415287664 166.10140713560395,130.37180954089854 165.45654296665452,129.03921503038146 165.3573330945801,128.34394704771694 165.80377751914784,127.88043457083404 165.2085182867013,126.54783402441535 164.61325905378908,126.60577324562473 164.1172096929513,125.09935150755337 164.0676047571469,124.34613909141626 163.3731356523931,122.89765077678021 162.72827148321085,121.44915864727227 162.23222212283872,119.24744330497924 162.18261718656868,118.66804306575796 161.04170365724713,116.98777892056387 160.6944691047538,115.59721160819754 159.85118519165553,113.33753222727682 159.70237038377672,112.52636300533777 159.35513583105057,111.94695568608586 159.4047407670878,111.30960692948429 159.00790127855726,110.49843471689383 158.85908647044562,109.8031432966236 158.51185191818513,109.1078509974177 158.36303710984066,108.4125578191597 157.96619762154296,107.7752049669507 157.6189630688168,106.96402754139854 156.6268643476069,104.29872186214197 156.32923473138362,103.19783096440369 155.9323952428531,101.51751955598593 155.43634588248096,100.06897111795843 155.03950639395043,98.56247669499135 155.13871626602486,98.09893911931431 154.14661754481494,96.07095763168763 153.89859286416322,95.4335904767504 153.94819780020043,94.79622258327436 153.05530895129777,93.0 150.77348189265467,93.34765644161962 149.53335849079303,93.75325534597505 148.24363015335985,94.39062444819137 147.40034624026157,95.31770546018379 146.95390181569383,95.31770546018379 146.8546919436194,95.78124538017437 146.40824751905166,96.01301519363187 143.7791859076824,97.05597814550856 141.15012429654598,97.69334342004731 140.50526012759656,98.09893911931431 140.10842063906603,98.73630318505457 140.2572354474105,100.3007391244173 139.86039595887996,100.93810063850833 140.80288974381983,102.79223902552621 142.24143288983032,103.02400588442106 144.62246982078068,102.38664678751957 146.6066672632005,101.69134511210723 149.53335849079303,100.41662309109233 150.17822265974246,100.24279713194119 153.10491388756782,99.08395600068616 153.55135831190273,99.19984022382414 154.49385209707543,101.22781017364468 154.64266690518707,101.98105425050016 155.13871626602486,103.3716559894965 155.73397549870424,104.6463711616816 155.8827903070487,105.34166910103522 157.02370383613743,108.23873438715236 157.12291370844468,108.93402778520249 157.4205433249008,109.62932030425873 158.06540749338455,111.77313337114174 159.70237038377672,116.64013742207317 159.90079012769274,117.39336039108457 159.80158025585115,118.03070209780708 159.90079012769274,118.43628279928816 160.00000000023283,118.61010300827911 159.9503950639628,118.95774326159153 160.14881480811164,119.53714319563005 160.84328391309828,120.00066270341631 160.99209872144274,120.63800138863735 161.53775301785208,122.08649565419182 161.93459250638261,122.83971116470639 162.62906161136925,124.75171513610985 163.17471590801142,125.9684414753574 163.3731356523931,126.66371246083872 162.67866654740646,126.89546926086769 163.1251109719742,128.2280689649633 163.76997514045797,128.45982510584872 164.36523437360302,129.85035989951575 164.81167879793793,130.42974835948553 165.95259232725948,133.44255851313937 165.95259232725948,134.1378200512845 165.80377751914784,134.6013272551936 166.5478515601717,135.5283404911752 166.94469104870223,136.74504299252294 167.2423206649255,137.4403003565967 168.58165393886156,141.20626247290056 168.68086381070316,141.9015141981654 169.32572797941975,143.34995247004554 169.97059214836918,145.60950855875853 170.21861682855524,146.4785661213682 169.87138227629475,146.65237746905768 169.87138227629475,147.0 170.41703657293692,146.94206292682793 171.06190074165352,146.65237746905768 171.5579501024913,146.24681757221697 172.10360439913347,146.0150689255097 173.29412286449224,144.9721988067613 173.88938209717162,144.62457499443553 174.83187588234432,143.81345191167202 175.47674005129375,143.6975770877907 176.12160422001034,143.46582736703567" stroke="#4dd2ff" stroke-linecap="round" stroke-linejoin="round" stroke-width="0.5"><title>2023-07-15 3.1km</title></polyline><polyline fill="none" points="43.98636414879002,191.1285268595675 43.384648805717006,189.1958073055721 43.28436291520484,188.25872873980552 43.484934695996344,187.6144863095251 43.33450586046092,187.02881072548917 43.0837911341805,186.67740507883718 42.431932845385745,186.32599921000656 42.13107517361641,185.6817545404192 41.479216885287315,183.6318801708403 40.4763579799328,181.11345274205087 40.075214417884126,179.35640359425452 40.22564325365238,178.77071931090904 40.12535736290738,178.4778769381228 39.3230702385772,177.18936866434524 38.01935366145335,174.14379178336821 35.6626352337189,167.34975246613612 34.2084898208268,162.72272988723125 33.25577386072837,160.37991895875894 32.854630298446864,158.5642336983001 32.754344407934695,157.21710854407866 32.60391557216644,156.8071132840123 31.901914338348433,155.40141295385547 31.250056049786508,154.8157034337637 31.04948426876217,154.52284844231326 30.5480548159685,153.29285579378484 30.19705419894308,153.0585711710737 29.4950529653579,153.0 26.43633330357261,153.8199958333862 26.18561857729219,153.995709069015 25.684189124265686,154.52284844231326 25.333188507705927,154.75713244784856 24.129757821094245,154.99141635443084 24.380472547374666,155.04998731584055 24.280186656629667,155.284271099139 24.230043711606413,155.284271099139 24.33032960211858,155.1671292198589 24.17990076635033,155.284271099139 24.17990076635033,155.1671292198589 24.53090138314292,155.04998731584055 24.631187273887917,155.22570016252575 24.53090138314292,155.40141295385547 24.17990076635033,155.69426748238038 22.77589829871431,156.27997607685393 18.864748567342758,157.62710350181442 17.962175552500412,157.9785275106551 17.611174935707822,158.27138068177737 17.510889045195654,158.44709251029417 17.761603771476075,159.09136873984244 18.112604388268664,161.08276327408385 18.413462060038,161.90274718531873 18.864748567342758,162.37130887730746 19.566749801160768,162.48844923858996 20.31889398023486,162.37130887730746 22.52518357220106,161.43418509850744 23.778757204301655,160.96562261652434 25.232902616960928,160.7313412274816 26.386190358549356,160.32134855911136 27.790192825719714,159.96992603124818 30.397625979967415,159.14993926900206 31.199913104530424,159.03279820439639 31.50077077629976,159.09136873984244 31.651199612068012,159.26708030916052 32.0022002288606,159.96992603124818 32.60391557216644,161.60989592736587 33.105345024727285,162.66415973438416 33.456345641752705,163.77699158410542 33.60677447752096,164.71411141374847 34.158346875570714,165.70979950216133 34.81020516413264,167.40832212549867 35.76292112423107,170.68821319547715 36.61535119381733,173.32382592646172 37.06663770135492,174.20236072695116 38.069496606942266,177.77505461353576 37.818781880429015,178.41930844495073 37.8689248256851,178.88785621710122 38.169782497221604,179.29783519374905 38.87178373103961,179.88351892161882 39.92478558188304,182.51908806234132 40.426215034443885,183.92471982934512 40.67692976118997,184.8032378788339 41.027930377749726,185.62318680610042 41.32878804951906,186.50170217221603 41.32878804951906,186.85310792987002 41.128216268494725,187.3216485947487 41.228502159006894,187.67305383412167 41.6296457212884,188.4344310911838 42.13107517361641,188.90297042345628 42.33164695487358,189.1958073055721 43.234219969948754,192.24130173720187 43.88607825827785,193.76404269761406 43.98636414879002,194.75967876327923 44.38750771083869,195.52104631625116 44.888937163865194,196.106712955283 45.139651890145615,197.10234482598025 46.894654974807054,201.90477939887205 48.34880038769916,206.59004144894425 48.29865744221024,206.76573800796177 47.94765682565048,207.0 48.449086278211325,206.94143451127457 49.30151634803042,206.4729103789432 50.95623354171403,205.3601639820845 52.811522517120466,203.954586403328 53.864524367498234,203.54462560702814 55.11809799959883,202.60757122316863 57.37453053658828,201.02628836937947 58.577961223432794,199.9720973020303 59.73124896455556,199.09360321919667 60.03210663609207,198.97647056978894 60.583679034374654,199.0350368975778 61.486252049217,198.7422051973408 61.887395611265674,198.7422051973408 62.08796739252284,198.8593378958758 62.4389680090826,199.5621335693868 62.489110954571515,199.79639859637246 62.4389680090826,199.9720973020303 61.28568026795983,200.79202386038378 58.77853300445713,202.1390434388304 59.530677183531225,202.84183496708283 59.48053423827514,203.07609861233504 59.58082012855448,203.3103621591581 59.02924773073755,202.60757122316863 59.38024834776297,203.54462560702814 59.430391292786226,203.3103621591581 59.27996245701797,203.1932303979993 59.22981951199472,202.95896680210717 59.33010540227406,202.19760943355504" stroke="#4dd2ff" stroke-linecap="round" stroke-linejoin="round" stroke-width="0.5"><title>2023-07-14 3.8km</title></polyline><polyline fill="none" points="120.8812749220524,198.99603784945793 120.13640185678378,199.40203873050632 117.05759318824857,201.7800378795364 115.71682167123072,202.99803346669069 114.77331578894518,203.40403139719274 112.04211455048062,205.55001548543805 110.85031764651649,206.24600852892036 110.45305201178417,206.01401094539324 109.80749535560608,204.91202108940342 109.41022972087376,203.57803041866282 109.06262229057029,203.05603318940848 108.96330588194542,202.53403546538902 108.26809102133848,200.50403961288976 108.0694582038559,199.75003924733028 107.57287616073154,198.3000356426346 107.42390154767781,197.60403255623532 106.8776613001246,196.21202374406857 106.7783448912669,195.51601801847573 106.38107925653458,194.76201082294574 106.33142105233856,193.892001237371 105.63620619149879,192.78998712264 105.04030773974955,191.45596708520316 104.891333126463,190.70195433014305 104.44440928730182,189.48393154481892 104.34509287890978,188.84591853432357 104.3947510831058,188.14990349806612 104.59338390058838,187.7438943205634 104.34509287890978,187.04787789128022 103.84851083555259,186.64186790108215 103.30227058799937,186.29385910002748 102.45808111433871,183.6837860799278 102.11047368403524,183.04576634895056 101.36560061876662,180.84169249841943 101.067651392892,179.50764351326507 101.3159424145706,178.8116166727268 101.01799318846315,178.28959596488858 100.27312012342736,177.41956035216572 99.27995603671297,175.27346662903437 98.58474117610604,173.01135878433706 98.08815913298167,171.7932968645473 97.93918451992795,171.0392571828561 95.6052489161957,164.07884212769568 95.40661609871313,163.32479188073194 94.71140123810619,161.41065969219198 94.36379380780272,160.83061832131352 94.3141356036067,160.1345678695361 93.86721176467836,158.68445993505884 93.91686996887438,158.04641123395413 93.76789535582066,157.40836179349571 93.12233869964257,156.0742560281651 91.88088359124959,155.43620430195006 92.12917461292818,153.98608399246586 91.78156718262471,153.0 90.98703591316007,153.058004989638 87.51096161012538,154.04408887814498 85.9218990711961,155.66822319704806 85.37565882341005,156.01625135639915 83.93557089800015,156.59629779972602 79.86359814251773,157.9304022997385 79.11872507771477,160.0185593753704 79.26769969053566,160.30858056497527 79.16838328191079,160.88862248597434 79.21804148610681,161.64267606951762 79.46633250778541,162.51273661357118 80.11188916419633,162.80275648931274 80.90642043342814,162.8607604461722 83.78659628494643,161.75868422153872 86.17019009287469,161.1786432171939 90.14284643949941,159.84454658813775 91.58293436537497,159.14849488972686 92.32780743017793,158.97448182763765 92.6754148604814,159.43851653760066 93.07268049521372,160.07656362542184 93.37062972108833,160.7726141505409 93.51960433414206,161.46866379585117 94.11550278635696,162.74475252628326 94.214819194749,163.4988035678398 94.51276842085645,164.13684595015366 94.71140123810619,164.77488759323023 95.10866687283851,165.35492480848916 95.25764148589224,166.1089722752804 95.7542235290166,167.44305372488452 96.3501219812315,169.53117472142912 97.09499504626729,171.50328172469744 97.24396965932101,172.19931780395564 98.08815913298167,174.40342625009362 98.2371337460354,175.15746132459026 99.13098142389208,177.82557714253198 98.68405758496374,178.17359129607212 98.88269040221348,178.9276212073164 99.13098142389208,179.39163910102798 99.5282470586244,179.62364790117135 99.82619628449902,180.0296630662633 100.76970216701739,182.11773632938275 101.3159424145706,183.50978077208856 101.56423343601637,184.7278167727054 101.96149907121435,185.36583455483196 102.45808111433871,186.6998693466885 101.96149907121435,187.10587929392932 102.16013188823126,187.85989697329933 102.40842290990986,188.3819086078438 103.00432136189193,188.729916089389 103.69953622249886,190.7599553479813 104.29543467448093,192.15197794279084 104.4940674919635,192.78998712264 104.94099133065902,193.48599629377713 104.94099133065902,194.2400052366429 105.23894055676647,195.28401591436705 105.58654798730277,195.57401852909243 106.13278823485598,197.08202966401586 107.27492693462409,199.9820394697599 107.47355975187384,200.73603951768018 107.72185077355243,201.43203864549287 107.87082538637333,202.1280368937296 109.26125510805286,206.53600537066814 108.71501486026682,206.82600205973722 109.01296408637427,207.0 110.30407739896327,206.30400790955173 111.4958743029274,205.55001548543805 113.3828860677313,204.0420275402139 114.1277591327671,203.81002902821638" stroke="#4dd2ff" stroke-linecap="round" stroke-linejoin="round" stroke-width="0.5"><title>2023-07-14 3.2km</title></polyline><polyline fill="none" points="179.91560638998635,200.90442079264903 179.32478493941016,201.0769381209975 178.43855276377872,201.53698406374315 177.20767474221066,202.45707478601253 176.46914792922325,202.85961398942163 175.73062111623585,203.03213070018683 175.2382699076552,203.66469150595367 174.4997430946678,204.12473526841495 173.81045140256174,204.69978942594025 173.21962995221838,204.98731627763482 172.62880850187503,205.67738010408357 171.79181144712493,205.96490644081496 171.25022511766292,205.27484297810588 170.85634415061213,204.52727324236184 170.6101685462054,203.7797024830361 170.31475782115012,202.3995691614109 169.87164173345082,201.59448977926513 169.77317149168812,200.90442079264903 169.42852564551868,200.27185678866226 169.42852564551868,199.69679796713172 168.7392339531798,198.31665432441514 168.59152859076858,197.569075061474 167.853001778014,195.55635657266248 167.80376665689982,194.6362542208517 167.5575910527259,194.0036829544115 166.8190642397385,193.02607137378072 166.3267130306922,191.70341762539465 165.8835969432257,190.20823996444233 165.243540372001,188.94308643753175 165.29277549288236,188.19549433892826 165.58818621817045,187.79294432338793 165.3420106137637,186.98784340190468 164.2096028337255,186.41277058806736 164.01266235020012,185.4926528261276 163.52031114161946,184.0549657184747 163.1264301748015,182.73229023558088 162.53560872445814,181.35210370627465 162.3879033618141,180.719517047517 162.43713848246261,180.14443763071904 162.14172775740735,179.4543415309745 162.24019799940288,179.16680123202968 162.09249263675883,178.64922831213335 161.8463170323521,178.24667125742417 161.30473070265725,177.8441139056813 160.61543901078403,175.83132269512862 160.36926340637729,175.371255090693 159.9753824393265,174.10606717935298 159.7784419558011,172.8408763355692 159.4337961098645,172.3232974181883 159.28609074745327,171.69070029701106 158.89220978040248,170.42550385539653 157.90750736324117,167.72257436084328 157.56286151707172,166.34234988258686 156.77509958320297,163.7544195795199 155.74116204492748,161.28149693773594 155.5442215616349,160.64888702059397 155.44575131963938,159.90125617326703 155.15034059458412,159.1536243018927 154.85492986929603,158.63603240653174 154.90416499017738,158.06092972517945 153.82099233125336,155.7605129396543 153.77175721037202,154.43776889814762 152.93476015562192,153.0 151.60541189229116,153.51759723958094 149.68524217838421,153.92017253109952 148.45436415681615,154.55279024638003 147.96201294800267,155.3004284192575 147.1250158934854,155.53047072782647 146.8296051681973,155.99055505444994 143.3339115867857,157.5433367936057 140.08439361001365,158.69354264147114 140.28133409307338,159.78623595210956 140.23209897219203,161.45402678789105 140.57674481836148,162.14414564339677 140.72445018100552,163.06430275994353 141.46297699399292,163.35185154073406 143.53085207031108,162.37418506795075 145.05714081716724,161.85659622622188 146.38648908073083,161.28149693773594 147.1250158934854,161.33900689380243 148.55283439881168,160.8789270753041 149.48830169509165,160.36133681592764 150.86688507930376,160.07378645980498 151.40847140876576,159.78623595210956 152.88552503474057,159.26864465663675 153.47634648508392,159.26864465663675 154.21487329807132,160.53386695688823 154.4118137813639,161.22398697567405 155.34728107810952,163.1793222904671 155.69192692404613,164.55955476639792 155.9873376491014,165.192160151375 156.57815909967758,167.08997190813534 156.9228049456142,167.72257436084328 157.56286151707172,169.73539546941174 157.95674248388968,171.05810244270833 158.64603417599574,173.0134025325533 158.99068002216518,174.3361015630653 159.483031230513,175.54378048784565 159.8769121975638,176.69394840847235 159.92614731844515,177.32653973181732 160.2707931646146,177.95913032226963 160.0738526810892,178.24667125742417 160.02461756044067,178.70673643861664 160.36926340637729,179.33932542958064 161.05855509848334,180.02942167466972 161.3539658235386,180.719517047517 161.69861166994087,181.98468963202322 162.58484384510666,183.88244301103987 162.88025457039475,185.26262314332416 163.4218409000896,186.47027789667482 163.1264301748015,187.62042279721936 163.4218409000896,188.31050857465016 164.25883795460686,189.23062158736866 164.75118916342035,190.61078819906106 164.8988945260644,191.18585659074597 165.3420106137637,191.8759378612158 165.83436182234436,193.31360437342664 166.03130230586976,194.0036829544115 165.785126701463,194.57874777232064 166.52365351468325,195.67136925761588 167.11447496479377,197.05151958734496 167.80376665689982,199.12173853995046 168.09917738218792,199.69679796713172 168.19764762395062,200.32936263736337 168.4930583492387,200.96192657476058 168.93617443693802,202.34206353046466 169.52699588728137,204.2972515792353 169.67470124992542,204.92981091950787 170.01934709586203,205.61987481848337 170.11781733762473,206.36744305799948 169.67470124992542,206.82748454314424 170.21628757938743,207.0 171.4471656009555,206.30993784521706 172.67804362252355,205.4473589254776 173.90892164432444,204.23974614823237 175.18903478677385,203.49217499542283 175.82909135799855,203.31965843011858" stroke="#4dd2ff" stroke-linecap="round" stroke-linejoin="round" stroke-width="0.5"><title>2023-07-13 3.1km</title></polyline><polyline fill="none" points="61.429330121027306,259.17843992169946 61.03249067417346,259.5840050299885 60.73486108938232,259.69988072040724 60.5364413659554,259.98956983938115 59.4451328876894,260.22132102469914 56.76646662247367,261.66976372076897 54.03819542657584,263.2920150124701 52.5996524321381,264.3348883164581 51.40913409227505,265.43569688138086 50.764269991312176,265.8412573763053 50.36743054469116,265.78332018112997 49.970591097837314,265.2618851492298 49.22651713551022,263.2920150124701 48.780072757741436,261.7277013491839 46.99429524759762,256.6871048393077 46.299826215952635,253.906066303025 46.10140649275854,253.5004970083828 45.65496211498976,253.03698887687642 45.30772759928368,252.4576031633187 44.613258567638695,251.18295244517503 44.41483884421177,250.31387071649078 44.16681419010274,249.67654324276373 44.1172092591878,248.8653981172829 44.26602405146696,248.28600800951244 44.26602405146696,247.76455639093183 44.017999397590756,246.77959087333875 43.42274022754282,246.77959087333875 43.02590078068897,246.0843200343079 42.083407094702125,243.36116745282197 41.68656764808111,242.60795265622437 41.14091340894811,241.15945976402145 41.04170354758389,240.40624195249984 40.74407396232709,239.76890299853403 40.84328382392414,239.18950330879306 41.14091340894811,238.61010300857015 41.04170354758389,238.32040262955707 40.04960493044928,237.62512109737145 39.75197534565814,236.9298386865412 39.60316055291332,236.29249570413958 38.56145700532943,233.2795916085015 38.01580276619643,232.2946001512464 37.12291401159018,228.87608670257032 36.82528442656621,228.18079323135316 36.32923511788249,226.67432102822931 35.386741432128474,224.41460498666856 35.18832170870155,223.60342260450125 34.84108719276264,222.8501807496068 34.493852677056566,221.40163582167588 33.99780336860567,220.76427484455053 33.898593506775796,220.12691312894458 33.700173783814535,219.37366651260527 33.45214912923984,218.85218748165062 33.30333433696069,217.46157431480242 32.90649489033967,216.186842489813 32.559260374400765,214.91210770996986 31.964001204352826,213.34765644167783 31.219927241792902,213.0 30.42624834855087,213.23177098558517 28.590865907492116,213.5214845802402 27.301137705799192,214.100911311456 26.656273604603484,214.73828001104994 25.267335541313514,215.83918784279376 23.828792547108606,216.5344969170401 21.348546005319804,217.40363202325534 20.505262181162834,217.7512856813264 18.570669878739864,221.22781017393572 18.66987974033691,221.63340326654725 18.91790439421311,222.2707632361562 19.314743840834126,222.79223902581725 20.05881780362688,222.79223902581725 20.852496697101742,222.6763555596117 26.557063743006438,220.99604255793383 28.094816599041224,220.41662309120875 28.838890561601147,219.9530870783492 29.5829645243939,219.77926097268937 31.219927241792902,219.14189811539836 32.013606135267764,219.0260138801532 32.36084065097384,219.4895506746252 33.05530968261883,220.8801587135531 34.44424774614163,224.35666342754848 34.64266746956855,225.2257861723774 35.18832170870155,226.67432102822931 35.78358087874949,228.7602045185049 36.13081539445557,229.39755622908706 36.27963018720038,230.1507891169167 36.6764696338214,230.7881392161944 36.97409921884537,232.17871868715156 37.27172880386934,232.93194776616292 37.42054359614849,233.6851758135017 37.866987973684445,234.4384028292843 38.164617558941245,235.77103271492524 38.759876728989184,237.21953979774844 38.85908659058623,237.91482184268534 38.56145700532943,238.37834271753673 39.10711124469526,239.24744330515387 39.95039506908506,240.00066270359093 40.29762958479114,241.27533933578525 41.14091340894811,243.30322788952617 41.48814792511985,244.75171513622627 42.331431749043986,246.77959087333875 41.48814792511985,246.8954692610423 41.48814792511985,247.64867818623316 41.835382440593094,248.28600800951244 42.629061334067956,248.57570313982433 43.17471557343379,250.1400542060146 43.5715550200548,250.71944236085983 44.067604328505695,252.10997144214343 44.41483884421177,252.80523466476006 44.6628634983208,253.5004970083828 44.6628634983208,254.2536968891509 45.2085177374538,255.3545256285579 45.50614732247777,255.70215529913548 45.90298676909879,257.2664860980585 47.29192483262159,261.0324494043598 47.440739625366405,261.78563897154527 47.73836921015754,262.53882750764024 48.1848135876935,263.9293267109315 48.33362838020548,264.68251231173053 48.780072757741436,266.13094326102873 48.532048103632405,266.5944403593312 48.532048103632405,267.0 49.17691220436245,267.0 51.061899576336145,265.78332018112997 52.996491878759116,264.3348883164581 54.03819542657584,263.63963966665324" stroke="#4dd2ff" stroke-linecap="round" stroke-linejoin="round" stroke-width="0.5"><title>2023-07-11 3.2km</title></polyline><polyline fill="none" points="118.57658975757658,261.2948089094134 118.23120827437378,261.6405797599 117.09638340235688,262.1592356257024 116.80034213094041,262.5050059299683 115.96155853010714,263.25417417276185 115.61617704713717,263.3118024565629 114.67871302226558,264.0609695946914 113.83992942073382,264.5796231664135 112.31038285396062,265.8474409384653 111.52093946444802,266.1932089118054 110.87951671052724,265.61692883458454 110.23809395660646,264.2338541732752 109.94205268542282,263.02366097655613 109.59667120291851,262.27449241821887 109.30062993173487,260.71852367318934 108.36316590686329,257.8370883867028 108.21514527127147,256.97265484166564 107.8697637883015,256.2811070223106 107.52438230556436,255.01326708309352 107.32702145818621,254.55223364959238 107.17900082259439,254.03357057250105 106.43889764510095,252.93861357297283 106.29087700974196,252.18943120539188 105.74813467939384,250.8063226005761 105.4027531966567,250.17239665496163 105.0573717134539,248.90454255999066 105.10671192524023,248.27061441080878 105.30407277261838,247.69431545579573 105.0080315019004,247.0027559088776 104.71199023071676,246.65697580738924 104.16924790036865,246.42645561834797 103.03442302811891,243.19916277355514 101.99827857967466,240.7786806463846 102.04761879146099,240.2023737995769 101.70223730849102,239.4531739911763 101.99827857967466,239.16501994553255 101.85025794408284,238.9344965997152 101.89959815586917,238.76160402665846 101.80091773206368,238.76160402665846 101.45553624955937,238.1852950549801 101.06081455433741,237.89714034151984 100.61675264802761,237.2055684099323 99.38324735197239,233.57480142597342 99.33390714041889,232.7679610461346 99.03786586923525,232.30690886633238 98.93918544542976,231.6729614844662 98.59380396269262,230.92374999506865 98.34710290329531,230.17453747970285 98.29776269150898,229.36769208480837 97.85370078496635,228.56084549985826 97.60699972580187,227.17767715727678 97.06425739568658,225.67924083961407 96.37349442997947,223.54684361850377 95.78141188784502,222.22129521047464 95.68273146427236,221.47207077644998 95.3373499813024,220.83811083843466 95.13998913392425,220.26178298465675 94.79460765095428,218.993859568669 94.64658701559529,217.95646549703088 94.25186532083899,217.2648683563457 94.1531848970335,215.1900716876262 93.80780341429636,214.8442714777193 93.46242193132639,213.97976999671664 92.96901981299743,213.2881678281119 92.42627748288214,213.0 88.52840074757114,214.44083762320224 88.03499862900935,214.8442714777193 87.64027693448588,215.47823836212046 87.04819439235143,215.766404885042 86.65347269759513,215.42060503945686 81.42341024265625,222.85525354539277 87.93631820543669,220.5499469874194 88.72576159471646,220.14651734096697 89.41652456042357,219.97361883008853 90.15662773814984,219.62782164401142 93.01836002501659,218.93622661626432 93.61044256668538,219.28202423948096 94.4492261679843,221.24153997487156 95.18932934571058,223.66210854565725 95.48537061666138,224.2384328173357 95.92943252343684,226.08266640588408 96.42283464153297,227.23530924145598 96.76821612473577,228.38794964842964 97.36029866687022,229.5982194620301 97.45897909044288,230.17453747970285 97.80436057341285,230.7508548903279 97.90304099698551,231.3848033407703 98.93918544542976,234.32400928472634 99.43258756399155,236.11057773028733 99.72862883494236,236.74451997003052 100.024670106126,237.95477129641222 99.72862883494236,238.53108051081654 99.9259896823205,238.76160402665846 100.12335052969866,239.33791239111451 100.3207113770768,239.68369711842388 100.86345370742492,239.8565894002677 101.06081455433741,240.60578865616117 102.09695900324732,243.02627154823858 102.63970133336261,244.92807202221593 102.98508281633258,245.44674373156158 103.57716535846703,246.7722358655301 102.63970133336261,247.2909058262012 103.33046429930255,248.50113382283598 103.9718870529905,248.7316531377146 104.56396959512495,250.05713731318247 104.66265001893044,250.6910633923835 105.94549552653916,253.8606827708427 105.5507738320157,254.60986285004765 105.8468151029665,254.8403795910417 106.53757806844078,255.93533278477844 106.73493891605176,256.6268810412148 108.01778442389332,259.96935195848346 108.85656802519225,262.62026264949236 109.4486505673267,263.94571317883674 109.79403205006383,265.4440446931985 110.04073310946114,266.0779529448482 109.74469183851033,266.5966046046233 109.69535162649117,266.884744203242 110.09007332101464,267.0 110.87951671052724,266.6542325365008 112.65576433669776,265.67455686972244 114.13597069168463,264.6372513106908 114.67871302226558,264.1185977936839 115.36947598773986,263.772828509158 116.30694001284428,262.90840434195707 117.44176488509402,262.21686402498744 117.9351670036558,261.8134651031578" stroke="#4dd2ff" stroke-linecap="round" stroke-linejoin="round" stroke-width="0.5"><title>2023-07-07 3.1km</title></polyline><polyline fill="none" points="177.6682002551388,263.6179916828405 176.49032023828477,264.36318176134955 176.04861523164436,265.05104862048756 174.62534354440868,266.0255251825438 174.37995187425986,266.0255251825438 174.08548186998814,265.7962367365835 173.44746352755465,264.9937264153268 172.90760185336694,263.6179916828405 172.76036685123108,262.8728005842422 171.926035172306,261.3824153256137 171.7788001699373,260.52257581986487 171.43525183177553,259.834703237284 170.69907682132907,257.71375730086584 169.96290181064978,254.96224755299045 169.5211968042422,253.70113426924217 168.09792511700653,250.43369080347475 167.95069011463784,249.6311578284367 167.558063442586,248.37003219104372 167.90161178074777,247.7967922986718 167.70529844472185,246.99425543501275 167.26359343831427,246.5356624100823 166.8218884319067,246.4783382549067 166.52741842763498,245.79044792061904 166.4783400935121,245.10255671659252 166.18387008924037,244.47198901581578 165.7912434169557,243.95606944448082 165.69308674894273,243.15352691692533 165.2023034086451,242.46563237981172 164.90783340414055,241.7204123166157 164.71152006811462,241.03251596784685 164.66244173399173,240.34461874963017 164.36797172972,239.71404553577304 164.4661283979658,239.19812145346077 164.4661283979658,238.62487189960666 164.26981506170705,238.223596852622 163.58271838515066,237.30639563384466 163.337326714769,236.61849370563868 163.14101337874308,235.87326563498937 162.25760336616077,233.8668772954843 161.86497669341043,232.54838950157864 161.52142835548148,232.08978430263232 161.52142835548148,231.5738529918599 161.37419335334562,230.82861801265972 160.9324883467052,229.51012285711477 160.1472350023687,226.58649176801555 159.70552999596111,225.3253127229982 158.82211998291314,223.14690566959325 158.18410164071247,221.77106514235493 157.74239663407207,221.2551240477478 157.5460832978133,219.82195177371614 157.2516132935416,218.38877572497586 156.95714328926988,217.87283142318483 156.5645166169852,216.32499558269046 156.17188994470052,215.75172193191247 155.68110660440288,214.6625003311201 155.63202827028,213.974569775688 155.2394015979953,213.0 153.5707382406108,213.68793178745545 151.9020748832263,214.14655249618227 150.57695986400358,215.35043001687154 150.0861765234731,215.46508487983374 149.74262818531133,215.35043001687154 149.44815818127245,215.75172193191247 149.2027665108908,215.40775745140854 148.95737484074198,215.29310257622274 149.00645317463204,215.17844767699717 148.71198317036033,214.83448283403413 148.81013983860612,215.06379275361542 148.95737484074198,214.8918103230535 149.00645317463204,215.06379275361542 149.39907984691672,215.17844767699717 149.64447151706554,215.52241230232175 149.104609842645,216.0383588327677 146.797928142827,217.12757767923176 145.32557812170126,217.7581770674442 144.6875597788021,217.93015859200386 143.21520975790918,218.50342994765379 142.57719141501002,219.19135477743112 142.72442641714588,219.24868180725025 142.4790347472299,219.24868180725025 142.3317997448612,219.53531686612405 142.3808780789841,219.47798986639827 142.82258308515884,220.22324039111845 143.0188964214176,220.91116304631578 142.7735047515016,222.05769887252245 143.0188964214176,222.86027251329506 143.4115230939351,223.20423228276195 144.1967764387373,223.4908652578597 144.88387311529368,222.91759915655712 145.57096979185008,222.5736392060644 148.02488649380393,221.65641160821542 148.81013983860612,221.48443126148777 149.54631484905258,221.0831435743603 151.11682153865695,220.50987493642606 151.9020748832263,220.39522113645216 155.8774199404288,219.13402774144197 156.6135949511081,220.5672018273617 156.85898662125692,221.36977766663767 157.15345662552863,222.05769887252245 157.64423996629193,222.86027251329506 159.75460832985118,228.36360273347236 159.85276499809697,229.16616707359208 160.29447000427172,229.9114043295849 160.49078334029764,230.5419889028417 160.6380183424335,231.2298985128291 160.83433167892508,231.5738529918599 161.47235002112575,234.3254809966311 162.7483867064584,237.8796465767664 162.55207337043248,238.567546911072 162.6993083723355,239.25544637569692 163.4354833830148,239.71404553577304 163.68087505316362,241.08984069683356 164.85875507025048,243.38282490277197 164.90783340414055,244.01339386537438 165.34953841054812,245.2172053109971 165.93847841909155,246.4210140936193 165.69308674894273,246.9369313280913 165.34953841054812,247.39552401483525 165.74216508306563,248.08341232023668 166.57649676175788,248.7712997563067 167.01820176793262,249.57383399928221 167.36175010632724,250.26171955128666 168.4905517892912,253.18522344733356 168.4905517892912,253.8731044345186 168.34331678715535,254.27436794224195 168.588708457537,254.90492428536527 169.32488346798345,255.9367421795614 170.30645014881156,258.63092412549304 170.35552848293446,259.261475420848 170.74815515521914,260.0066714643617 171.14078182750382,261.4397379111033 171.7788001699373,262.93012301268755 172.17142684245482,264.3058594838367 172.46589684672654,264.9364042042289 172.80944518488832,266.25481353187934 172.41681851260364,266.5987458747695 172.66221018275246,267.0 173.34930685954168,266.5987458747695 176.8829469103366,263.5606693268637" stroke="#4dd2ff" stroke-linecap="round" stroke-linejoin="round" stroke-width="0.5"><title>2023-07-05 3.1km</title></polyline></svg>