<?xml version="1.0" encoding="utf-8" ?>
<svg baseProfile="full" height="200mm" version="1.1" viewBox="0,0,200,200" width="200mm" xmlns="http://www.w3.org/2000/svg" xmlns:ev="http://www.w3.org/2001/xml-events" xmlns:xlink="http://www.w3.org/1999/xlink"><defs /><rect fill="#1a1a1a" height="200" width="200" x="0" y="0" /><text alignment-baseline="middle" fill="#e1ed5e" style="dominant-baseline: central; font-size:9.0px; font-family:Arial;" text-anchor="middle" x="100.0" y="100.0">2023</text><line stroke="#e1ed5e" stroke-width="0.3" x1="100.0" x2="100.0" y1="15.0" y2="10.0" /><path d="M 100.0 14.0 a86.0,86.0 0 0,1 42.46469731375804,11.215312516191453" fill="none" id="id1" stroke="none" /><text fill="#e1ed5e" style="font-size:6.75px; font-family:Arial;" text-anchor="middle"><textPath startOffset="22.20632615414155" xlink:href="#id1">January</textPath></text><line stroke="#e1ed5e" stroke-width="0.3" x1="143.23703022742887" x2="145.7803849466894" y1="26.81831364943548" y2="22.513508569990506" /><path d="M 143.74570117128098 25.957352633546492 a86.0,86.0 0 0,1 28.547481713284135,27.462654790039103" fill="none" id="id2" stroke="none" /><text fill="#e1ed5e" style="font-size:6.75px; font-family:Arial;" text-anchor="middle"><textPath startOffset="19.985693538727396" xlink:href="#id2">February</textPath></text><line stroke="#e1ed5e" stroke-width="0.3" x1="172.23445277983987" x2="176.4835382374775" y1="55.19839476539836" y2="52.563006222186495" /><path d="M 173.08426987136738 54.67131705675599 a86.0,86.0 0 0,1 12.851231095245387,41.99856678651699" fill="none" id="id3" stroke="none" /><text fill="#e1ed5e" style="font-size:6.75px; font-family:Arial;" text-anchor="middle"><textPath startOffset="22.20632615414155" xlink:href="#id3">March</textPath></text><line stroke="#e1ed5e" stroke-width="0.3" x1="184.98032266829074" x2="189.97916517819016" y1="98.17113171792111" y2="98.06355123074" /><path d="M 185.9800911702706 98.14961562048488 a86.0,86.0 0 0,1 -9.607161424134198,41.387399972396054" fill="none" id="id4" stroke="none" /><text fill="#e1ed5e" style="font-size:6.75px; font-family:Arial;" text-anchor="middle"><textPath startOffset="21.466115282336823" xlink:href="#id4">April</textPath></text><line stroke="#e1ed5e" stroke-width="0.3" x1="174.80103733775053" x2="179.2010983576182" y1="140.37084112569926" y2="142.7455964860345" /><path d="M 175.68104954172406 140.8457921977663 a86.0,86.0 0 0,1 -30.038265399797805,32.042727171017184" fill="none" id="id5" stroke="none" /><text fill="#e1ed5e" style="font-size:6.75px; font-family:Arial;" text-anchor="middle"><textPath startOffset="22.206326154141568" xlink:href="#id5">May</textPath></text><line stroke="#e1ed5e" stroke-width="0.3" x1="143.8653032363475" x2="146.44561519142675" y1="172.8068346515853" y2="177.08958963109032" /><path d="M 144.38136562736335 173.6633856474863 a86.0,86.0 0 0,1 -40.68145358897372,12.25698825130547" fill="none" id="id6" stroke="none" /><text fill="#e1ed5e" style="font-size:6.75px; font-family:Arial;" text-anchor="middle"><textPath startOffset="21.466115282336833" xlink:href="#id6">June</textPath></text><line stroke="#e1ed5e" stroke-width="0.3" x1="102.19456741930631" x2="102.32365962044197" y1="184.97166512339345" y2="189.96999836594603" /><path d="M 102.22038585953345 185.97133177190398 a86.0,86.0 0 0,1 -42.740103519485714,-10.115201625700543" fill="none" id="id7" stroke="none" /><text fill="#e1ed5e" style="font-size:6.75px; font-family:Arial;" text-anchor="middle"><textPath startOffset="22.20632615414155" xlink:href="#id7">July</textPath></text><path d="M 99.81925306533755 120.99922214144158 l -0.22872620573272914 26.573465341033685 a47.57444968213467,47.57444968213467 0 0,0 -0.8188249450617343,-0.01409681400374088 l 0.6861108406871314 -26.565591049750786" fill="#ff1702" stroke="none" /><path d="M 99.09653310690486 120.98055641714683 l -1.197797910077608 27.815592160362122 a48.84137006443801,48.84137006443801 0 0,0 -0.8396341594425888,-0.04339949540005814 l 1.6764201379336858 -27.790852858199862" fill="#ff3505" stroke="none" /><path d="M 98.37488393609728 120.93702456842531 l -2.1699372258355933 27.956174957839885 a49.04026294165982,49.04026294165982 0 0,0 -0.8410537789470325,-0.07256965901728725 l 2.6508353225241676 -27.914681046543933" fill="#ff3905" stroke="none" /><path d="M 97.65516085044442 120.86867818915974 l -2.8621173791055137 25.472368343677058 a46.6326601219565,46.6326601219565 0 0,0 -0.79691347180644,-0.09649512332048289 l 3.300158273963343 -25.419327691631228" fill="#ff0000" stroke="none" /><path d="M 96.93821686468263 120.77559828337769 l -4.1770968640194415 28.34351180415313 a49.649656186480996,49.649656186480996 0 0,0 -0.8444322178085014,-0.13188294579600723 l 4.66436494543646 -28.267410551010016" fill="#ff4806" stroke="none" /><path d="M 96.22490169976321 120.6578951692458 l -5.088048199925604 27.84255083464713 a49.30363707131428,49.30363707131428 0 0,0 -0.8335422799866722,-0.15975036180678814 l 5.566558094483971 -27.750843274491874" fill="#ff4006" stroke="none" /><path d="M 95.86986931433489 120.58985236759428 l -12.390392056995301 61.76955710278283 a84.0,84.0 0 0,0 -1.415234154282453,-0.29657607709383527 l 13.451817672707142 -61.54712504496245" fill="#4dd2ff" stroke="none" /><path d="M 95.51606077576429 120.51570834832081 l -6.072312107759251 27.783111673196302 a49.43895688275743,49.43895688275743 0 0,0 -0.8298207683908116,-0.18886450522127177 l 6.549653025542925 -27.674470434397342" fill="#ff4306" stroke="none" /><path d="M 94.46302465271185 120.25689768951611 l -7.507470963464002 27.465910840362806 a49.4734679756087,49.4734679756087 0 0,0 -0.8195370244994662,-0.23160934925762436 l 7.979139156068082 -27.33261269776666" fill="#ff4306" stroke="none" /><path d="M 94.11515582081647 120.15858648285463 l -8.478980611238972 29.04482408263569 a51.25714656402716,51.25714656402716 0 0,0 -0.8448276745044746,-0.25453964810110946 l 8.977683260183692 -28.894569065428854" fill="#ff6c0a" stroke="none" /><path d="M 93.76903079525671 120.05430185196036 l -10.942124098421749 35.217099035622645 a57.87782727154781,57.87782727154781 0 0,0 -0.9488619296241604,-0.3037956257935199 l 11.546707373136849 -35.023530563169416" fill="#fffa17" stroke="none" /><path d="M 93.08242187328487 119.8279376855182 l -11.89477603763324 34.09414013649627 a57.109501362279985,57.109501362279985 0 0,0 -0.9253926769416123,-0.331812890056841 l 12.47988827520458 -33.884339705399476" fill="#ffea16" stroke="none" /><path d="M 92.7421414339146 119.70592522655815 l -17.967460878710654 48.783733846986465 a72.98732863382779,72.98732863382779 0 0,0 -1.1751994913453747,-0.4443598898036723 l 18.804530590816313 -48.46722570707616" fill="#36ff71" stroke="none" /><path d="M 91.7346041902142 119.30500536409082 l -21.63808631879831 50.53882258832651 a75.97617091207889,75.97617091207889 0 0,0 -1.1978161622694794,-0.5250874049667436 l 22.504823155725536 -50.15887063006531" fill="#3cffa8" stroke="none" /><line stroke="#e1ed5e" stroke-width="0.3" x1="58.666819895761336" x2="56.23545636021788" y1="174.27360380694188" y2="178.64263932499728" /><path d="M 58.180547188652646 175.14741091055294 a86.0,86.0 0 0,1 -31.652253787137756,-30.449443065178592" fill="none" id="id8" stroke="none" /><text fill="#e1ed5e" style="font-size:6.75px; font-family:Arial;" text-anchor="middle"><textPath startOffset="22.20632615414155" xlink:href="#id8">August</textPath></text><line stroke="#e1ed5e" stroke-width="0.3" x1="26.63291911575756" x2="22.317208475507996" y1="142.92168965132927" y2="145.44649492493687" /><path d="M 25.769776987707644 143.4266507060508 a86.0,86.0 0 0,1 -11.730757126820373,-40.83630448921669" fill="none" id="id9" stroke="none" /><text fill="#e1ed5e" style="font-size:6.75px; font-family:Arial;" text-anchor="middle"><textPath startOffset="21.46611528233685" xlink:href="#id9">September</textPath></text><line stroke="#e1ed5e" stroke-width="0.3" x1="15.007084014347285" x2="10.007500721073583" y1="101.09737516637583" y2="101.16192664675087" /><path d="M 14.007167355692545 101.11028546245083 a86.0,86.0 0 0,1 10.666146001902534,-42.60595125391555" fill="none" id="id10" stroke="none" /><text fill="#e1ed5e" style="font-size:6.75px; font-family:Arial;" text-anchor="middle"><textPath startOffset="22.20632615414155" xlink:href="#id10">October</textPath></text><line stroke="#e1ed5e" stroke-width="0.3" x1="26.266209847984243" x2="21.928928074336255" y1="57.711370442889674" y2="55.22380399835377" /><path d="M 25.398753493254645 57.213857153982495 a86.0,86.0 0 0,1 29.58750427330803,-30.492523968695096" fill="none" id="id11" stroke="none" /><text fill="#e1ed5e" style="font-size:6.75px; font-family:Arial;" text-anchor="middle"><textPath startOffset="21.46611528233685" xlink:href="#id11">November</textPath></text><line stroke="#e1ed5e" stroke-width="0.3" x1="56.762969772571076" x2="54.21961505331055" y1="26.818313649435495" y2="22.513508569990535" /><path d="M 56.25429882871897 25.957352633546506 a86.0,86.0 0 0,1 42.265352541879196,-11.944610805530505" fill="none" id="id12" stroke="none" /><text fill="#e1ed5e" style="font-size:6.75px; font-family:Arial;" text-anchor="middle"><textPath startOffset="22.20632615414155" xlink:href="#id12">December</textPath></text></svg>