<?xml version="1.0" encoding="utf-8" ?>
<svg baseProfile="full" height="300mm" version="1.1" viewBox="0,0,200,300" width="200mm" xmlns="http://www.w3.org/2000/svg" xmlns:ev="http://www.w3.org/2001/xml-events" xmlns:xlink="http://www.w3.org/1999/xlink"><defs /><rect fill="#222222" height="300" width="200" x="0" y="0" /><text fill="#FFFFFF" style="font-size:12px; font-family:Arial; font-weight:bold;" x="10" y="20">Over 3km Runs</text><text fill="#FFFFFF" style="font-size:4px; font-family:Arial" x="10" y="280">ATHLETE</text><text fill="#FFFFFF" style="font-size:9px; font-family:Arial" x="10" y="290">Melt</text><text fill="#FFFFFF" style="font-size:4px; font-family:Arial" x="120" y="280">STATISTICS</text><text fill="#FFFFFF" style="font-size:3px; font-family:Arial" x="120" y="285">Number: 10</text><text fill="#FFFFFF" style="font-size:3px; font-family:Arial" x="120" y="290">Weekly: 3.3</text><text fill="#FFFFFF" style="font-size:3px; font-family:Arial" x="141" y="285">Total: 33.0 km</text><text fill="#FFFFFF" style="font-size:3px; font-family:Arial" x="141" y="290">Avg: 3.3 km</text><text fill="#FFFFFF" style="font-size:3px; font-family:Arial" x="167" y="285">Min: 3.1 km</text><text fill="#FFFFFF" style="font-size:3px; font-family:Arial" x="167" y="290">Max: 4.1 km</text><polyline fill="none" points="53.799762764945626,82.89154347134172 52.91070241876878,83.34302413652767 51.480474905343726,84.24598404054996 50.204866582294926,85.28438557870686 48.85194866452366,86.1873413932044 48.542710282839835,86.32278460115776 48.23347190162167,86.32278460115776 48.00154311582446,86.14219364756718 47.8082691275049,85.87130707438337 46.68727999529801,82.75609917909605 46.33938681636937,81.67254329990828 46.10745803033933,80.5438363464491 45.21839768416248,77.9703733791248 45.0637784935534,77.24799503217218 44.83184970752336,76.61591297993436 44.59992092172615,76.20957402558997 43.904134563868865,74.26817148231203 43.40162219409831,73.09429591117078 43.285657801199704,72.59765527871787 43.478931789519265,71.96556636856985 43.40162219409831,71.60437228731462 43.20834820601158,71.24317790163332 42.821800229139626,71.06258059458924 42.66718103853054,70.92713256442221 42.3192878596019,70.11444348425721 41.00502473930828,66.36702390262508 40.88906034617685,65.55432617620681 40.927715143654495,65.05767680690042 40.81175075098872,64.7416269085661 40.69578635809012,64.42557677725563 40.34789317892864,64.10952641288168 40.23192878603004,63.88377600995591 39.65210682107136,62.48412085772725 39.033630058635026,60.452355245070066 38.608427284052595,59.413893545774044 38.37649849825539,58.33027865504846 37.139544973149896,54.89881342626177 36.36644901987165,52.37034778218367 35.670662662014365,50.88035211354145 35.55469826888293,50.15792810631683 35.12949549476616,49.074289812444476 35.01353110186756,48.261559293809114 34.58832832751796,47.26821990002645 34.12447075545788,45.64275047101546 33.969851564848796,45.37183830019785 33.69926798134111,45.14607802699902 32.926172028062865,44.96546972275246 32.307695265626535,45.01062180590816 31.264015728607774,45.281534205161734 30.452264978084713,45.46214237625827 30.25899098953232,45.46214237625827 29.988407406024635,45.281534205161734 29.44724023877643,43.83666609690408 29.06069226213731,42.12087889102986 28.867418273817748,41.624202365084784 28.751453880686313,41.037220274069114 28.248941511148587,39.41172721062321 27.9783579276409,37.876533655886305 27.707774343900383,37.15408772716182 26.89602359291166,34.08367894162075 26.70274960482493,33.18061334724189 26.586785211693496,33.0 26.27754683047533,33.451533225452295 26.27754683047533,33.8579127213452 26.664094807114452,35.1673551426793 26.857368795434013,35.75434527400648 26.973333188332617,36.61225248122355 27.901048332219943,39.54718520140159 28.248941511148587,41.21783023382886 29.06069226213731,44.37849220831413 29.524549833964556,46.45548595621949 29.485895036254078,46.54578980393126 29.25396625045687,46.500637882447336 29.331275845877826,46.32003014910151 29.25396625045687,45.687902483012294 29.02203746442683,44.694557123671984 28.82876347610727,44.15273141185753 28.674144285498187,43.29483930036076 27.93970312969759,41.037220274069114 27.51450035558082,39.27626917709131 26.780059200013056,36.92832312459359 26.27754683047533,34.17398539627902 26.200237235054374,33.6772996596992 26.27754683047533,33.04515334390453 26.548130414215848,33.09030668315245 26.70274960482493,33.22576667211251 26.89602359291166,33.541839813347906 27.475845557870343,35.30281447517336 27.707774343900383,36.29618160467362 28.055667522829026,37.01862897988758 28.132977118249983,37.605616575310705 28.480870297178626,39.05050569260493 28.944727869005874,40.67600012620096 29.138001857325435,41.669354800280416 29.44724023877643,42.34664075792534 29.717823822284117,43.881818299065344 29.988407406024635,44.6042528860271 30.143026596633717,45.14607802699902 30.2976457872428,45.281534205161734 30.52957457327284,45.32668625502265 31.53459931234829,45.1009259581333 31.76652809837833,45.1009259581333 32.34635006333701,45.23638215055689 32.65558844455518,45.46214237625827 33.19675561180338,46.18457429911359 33.62195838615298,47.17791620458593 34.12447075545788,48.71307643887121 34.74294751812704,49.75156406717724 35.55469826888293,52.28004516172223 35.82528185285628,52.91216310454183 36.90761618711986,56.02758791542146 37.29416416375898,56.84030370693654 37.44878335436806,57.69816870361683 37.91264092642814,59.18814066948835 38.37649849825539,60.3169038616179 38.840356070082635,61.85201703250641 39.57479722588323,63.83862591505749 39.61345202336088,64.29012664966285 39.458832832751796,64.87707689357921 39.53614242817275,65.23827664417331 39.72941641649231,65.55432617620681 40.19327398831956,65.96067523199599 40.34789317892864,66.1864245410834 41.04367953701876,67.94726507083396 41.70081109716557,70.06929404579569 42.08735907380469,71.1077299285098 42.08735907380469,71.3786258318869 41.85543028777465,71.73982010356849 41.85543028777465,71.920417125104 41.93273988296278,72.19131251500221 42.12601387128234,72.55250610166695 42.628526241052896,72.91369938408025 43.01507421745919,73.68123409862164 43.55624138470739,75.17115050327266 43.710860575316474,75.84838352052611 44.02009895653464,76.7513592124451 44.05875375447795,77.38344106497243 44.87050450546667,78.64760197381838 46.26207722094841,82.62065484386403 47.03517317422666,85.37468124565203 47.305756757967174,86.09704589733155 47.46037594857626,86.7742616525502 47.65364993666299,87.0 47.88557872292586,86.90970467517036 49.50908022467047,85.60042033006903 50.93930773786269,84.6523153767339" stroke="#4dd2ff" stroke-linecap="round" stroke-linejoin="round" stroke-width="0.5"><title>2023-07-20 4.1km</title></polyline><polyline fill="none" points="113.90819988795556,82.55319694746868 112.78155799768865,83.5514628525998 109.24623344512656,85.82024039805401 108.70233736024238,86.09249290064326 108.43038931768388,86.13786830095341 108.19729099539109,86.04711749556009 108.00304239382967,85.82024039805401 107.42029658821411,84.3682241452334 107.10949882538989,83.14308162539965 106.41020385897718,81.37342516815988 106.02170665562153,79.9213939277688 105.20586252794601,77.87946671561804 104.97276420565322,76.7904349117016 104.42886812100187,75.79215333974571 103.45762511179782,73.11493224825244 103.34107595076784,72.34352647312335 103.53532455256209,71.8897577248863 103.5741742728278,71.61749624661752 103.26337651023641,71.027595786436 102.75833014538512,70.846087790007 102.60293126385659,70.70995674256119 102.4475323825609,70.39231746448786 101.12664189049974,66.76213765176362 100.89354356820695,65.94534297793871 100.66044524614699,65.4915674898657 100.62159552588128,65.26467956660781 100.69929496641271,64.99241390102543 100.58274580538273,64.4932597335719 100.0776994409971,63.812594027869636 99.80575139820576,63.131927246635314 98.95105755049735,60.04622434763587 98.67910950793885,59.32017339442973 98.60141006717458,58.77563437624485 98.40716146538034,58.23109466981259 97.66901677846909,56.18906463930034 97.0085715323221,54.555433644680306 96.23157712537795,52.28649142917129 95.80423020129092,51.197394920454826 95.41573299793527,50.51670820399886 95.33803355693817,49.9721580563928 95.0660855146125,48.88305569565273 95.0660855146125,48.42926223264658 94.94953635358252,48.0208477069682 94.75528775178827,47.34015597059624 94.17254194640554,46.160287745675305 93.90059390384704,45.43421338548069 93.66749558178708,45.11655546791735 93.47324697999284,44.980416288628476 92.54085369128734,45.16193518479122 91.76385928411037,45.43421338548069 91.06456431793049,45.615732090198435 90.4041190717835,45.84263036365155 90.09332130872644,46.069528517633444 89.70482410513796,46.47794489329681 89.5494252240751,46.56870403542416 88.92782969819382,46.614083599328296 89.12207829998806,46.65946315831388 89.19977774075232,46.56870403542416 89.19977774075232,46.432565315190004 88.92782969819382,45.57035242108395 88.26738445204683,43.074463261291385 87.80118780769408,40.85084073594771 87.33499116334133,39.44405320935766 86.63569619716145,36.76660618954338 86.32489843433723,35.26904381811619 86.13064983231016,33.77147623934434 86.09180011204444,33.22690491969115 86.1694995528087,33.0 86.44144759513438,33.13614296619198 86.7522453579586,33.68071440065978 87.14074256154709,35.042139974277234 87.72348836692981,36.7212255881459 87.91773696872406,37.719597714574775 88.92782969819382,41.30464218367706 89.19977774075232,42.57528369370266 89.70482410513796,43.80054159957217 90.01562186819501,45.252694604045246 90.4041190717835,45.34345400438178 91.64731012331322,45.252694604045246 91.99695760640316,45.34345400438178 93.08474977640435,46.2056673525949 93.43439725949429,46.75022226211149 93.78404474281706,48.20236532174749 94.32794082793407,49.29146940365899 94.75528775178827,50.471329051360954 95.29918383690529,52.42262829921674 95.84307992178947,53.9201310290955 95.998478803318,54.69156979760737 96.58122460846789,55.916793237120146 96.8531726510264,56.8243639083812 97.39706873614341,58.14033798512537 97.70786649896763,59.27479516915628 98.56256034667604,61.5437005739077 98.71795922820456,62.17899194572237 99.30070503382012,63.85797177499626 99.33955475385301,64.22099358038395 99.10645643179305,64.85628100359463 99.10645643179305,65.08316914195893 99.30070503382012,65.40081233487581 99.88345083897002,65.94534297793871 100.69929496641271,67.85119480776484 100.81584412767552,68.35034508412355 101.16549161076546,69.07638081704499 101.7870871364139,71.11834975585225 101.74823741614819,71.29985763767036 101.59283853485249,71.61749624661752 101.67053797538392,71.93513462130795 101.90363629744388,72.38890332175652 102.33098322153091,72.75191793797421 102.48638210305944,72.933425131283 103.26337651023641,74.61236304481281 103.76842287462205,76.15516508818837 104.00152119691484,76.69968213720131 104.00152119691484,77.47108011177625 104.661966442829,78.65086257780786 106.1771055366844,83.50608717979048 106.33250441821292,84.14134616384399 107.10949882538989,86.04711749556009 107.18719826615416,86.54624668919132 107.03179938485846,86.8638740570168 107.03179938485846,86.95462469034828 107.18719826615416,87.0 107.38144686818123,86.95462469034828 108.19729099539109,86.50087133178022" stroke="#4dd2ff" stroke-linecap="round" stroke-linejoin="round" stroke-width="0.5"><title>2023-07-19 3.3km</title></polyline><polyline fill="none" points="182.06745149753988,79.59426414163318 182.06745149753988,79.18607109569712 181.76789333228953,78.89450445002876 181.11885064118542,78.77787774882745 180.61958703259006,78.89450445002876 179.67098617646843,79.3610110093723 176.52562544238754,81.5185987331788 174.07923376071267,82.97642351628747 172.4815902132541,84.2009933674708 170.43460941803642,85.6004984525498 169.73564036632888,85.89206156658474 169.43608220131136,85.77543633955065 169.18645039689727,85.54218581120949 168.63726042746566,84.2593061500811 167.08954324107617,78.60293765075039 165.89131058054045,75.39569272508379 165.74153149779886,74.75424151035259 165.79145785886794,74.05447570123943 164.6431515594013,72.3050573085784 163.44491889863275,69.09777589770965 163.24521345528774,68.28137402638094 163.24521345528774,67.93148714140989 163.44491889863275,67.34834184177453 163.39499253802933,66.99845436715987 163.14536073384807,66.41530808486277 162.99558165110648,66.29867875477066 162.49631804251112,66.06542002072092 162.2966125991661,65.77384646481369 161.7474226297345,63.84945714485366 161.0983799386304,62.333266908535734 160.49926360836253,60.70044201024575 160.14977908250876,58.892665969149675 160.14977908250876,58.251195632328745 159.4008836694993,57.084884024516214 158.7518409783952,55.743622637877706 156.25552293565124,48.68736790877301 155.75625932728872,46.70460245787399 155.0073639145121,44.605196003976744 154.75773211033083,43.613806855282746 154.05876305815764,41.74765775853302 153.4596467281226,39.8231849129661 153.16008856287226,38.773469631618354 153.0103094803635,37.723752359626815 152.66082495404407,36.49907969275955 152.0117822631728,35.332722253049724 151.21296048979275,34.166362355288584 150.6637705201283,33.11663634626893 150.3642123551108,33.0 149.5653905812651,33.0 148.71664244681597,33.23327266779961 148.06759975594468,33.29159081930993 147.5683361471165,33.408227103878744 146.37010348658077,34.04972623032518 144.42297541326843,35.68262974295067 142.22621553600766,36.5573975003208 138.98100208025426,37.723752359626815 138.08232758496888,38.24861124437302 137.93254850246012,38.540199298702646 137.93254850246012,38.773469631618354 138.18218030664138,40.17308956437046 138.23210666747764,41.106167553400155 138.33195938915014,41.51438867900288 138.78129663690925,42.33083002700005 139.3804129671771,42.50578158785356 141.22768831881694,42.09756119339727 145.62120807403699,40.58131137810415 148.16745247738436,39.53159753448563 151.0132550462149,38.773469631618354 151.41266593290493,38.71515205752803 151.71222409815527,38.89010476123076 153.50957308895886,43.38053856207989 154.70780574926175,46.76291919010691 156.00589113146998,50.145279150572605 156.60500746173784,52.244664593134075 156.7547865442466,53.46930242446251 157.45375559618697,55.04383279813919 158.20265100919642,57.43477776477812 158.20265100919642,58.77603505406296 158.65198825695552,59.53413556271698 159.1013255044818,59.82571240485413 159.25110458699055,60.058973768143915 160.74889541277662,63.907772071135696 160.89867449528538,64.6658655522624 161.447864464717,66.0071053217398 161.49779082555324,66.41530808486277 161.49779082555324,66.64856667153072 161.1982326603029,67.17339813220315 161.1982326603029,67.46497095085215 161.59764354722574,68.28137402638094 162.24668623832986,68.80620393902063 162.84580256859772,70.0891194086289 163.99410886806436,73.0048253290006 164.1938143116422,73.76290635304758 164.1938143116422,74.40435871633235 164.24374067247845,74.69592772674514 164.89278336334974,75.86220223264536 165.79145785886794,78.19474387390073 166.14094238495454,79.3610110093723 168.33770226244815,85.54218581120949 168.4874813449569,86.35856222972507 168.2877759016119,86.8250625000801 168.2877759016119,86.94168750598328 168.43755498435348,87.0 168.68718678853475,86.94168750598328 169.68571400572546,86.35856222972507 171.73269480047747,84.90074635227211 173.0307801826857,83.79280371806817" stroke="#4dd2ff" stroke-linecap="round" stroke-linejoin="round" stroke-width="0.5"><title>2023-07-18 3.1km</title></polyline><polyline fill="none" points="60.13960404112004,140.27925880555995 58.800270767183974,141.4380131457001 58.056196726625785,141.7277013491257 56.568048644578084,142.77057761885226 55.72476473147981,143.1761400786345 54.931085754651576,143.87138931429945 54.03819690528326,144.3928256642539 52.2028142712079,145.84125737624709 51.65715997456573,146.18888041970786 51.012295805616304,145.03013608738547 50.16901189251803,142.77057761885226 50.02019708463922,141.95945180230774 49.57375266007148,141.20626247290056 49.32572797941975,139.75781855615787 48.53204900282435,136.860919280909 48.035999642219394,135.41246392211178 48.035999642219394,134.8910190592287 47.83757989760488,134.7172039950965 47.490345345344394,133.7901893921662 46.64706143224612,131.99409415287664 46.10140713560395,130.37180954089854 45.456542966654524,129.03921503038146 45.3573330945801,128.34394704771694 45.80377751914784,127.88043457083404 45.20851828670129,126.54783402441535 44.61325905378908,126.60577324562473 44.11720969295129,125.09935150755337 44.06760475714691,124.34613909141626 43.3731356523931,122.89765077678021 42.72827148321085,121.44915864727227 42.23222212283872,119.24744330497924 42.18261718656868,118.66804306575796 41.041703657247126,116.98777892056387 40.69446910475381,115.59721160819754 39.85118519165553,113.33753222727682 39.702370383776724,112.52636300533777 39.355135831050575,111.94695568608586 39.40474076708779,111.30960692948429 39.007901278557256,110.49843471689383 38.85908647044562,109.8031432966236 38.51185191818513,109.1078509974177 38.36303710984066,108.4125578191597 37.96619762154296,107.7752049669507 37.61896306881681,106.96402754139854 36.6268643476069,104.29872186214197 36.32923473138362,103.19783096440369 35.93239524285309,101.51751955598593 35.436345882480964,100.06897111795843 35.03950639395043,98.56247669499135 35.13871626602486,98.09893911931431 34.146617544814944,96.07095763168763 33.89859286416322,95.4335904767504 33.94819780020043,94.79622258327436 33.055308951297775,93.0 30.773481892654672,93.34765644161962 29.533358490793034,93.75325534597505 28.243630153359845,94.39062444819137 27.40034624026157,95.31770546018379 26.953901815693825,95.31770546018379 26.8546919436194,95.78124538017437 26.408247519051656,96.01301519363187 23.779185907682404,97.05597814550856 21.150124296545982,97.69334342004731 20.505260127596557,98.09893911931431 20.108420639066026,98.73630318505457 20.257235447410494,100.3007391244173 19.860395958879963,100.93810063850833 20.802889743819833,102.79223902552621 22.24143288983032,103.02400588442106 24.62246982078068,102.38664678751957 26.606667263200507,101.69134511210723 29.533358490793034,100.41662309109233 30.17822265974246,100.24279713194119 33.10491388756782,99.08395600068616 33.55135831190273,99.19984022382414 34.49385209707543,101.22781017364468 34.64266690518707,101.98105425050016 35.13871626602486,103.3716559894965 35.73397549870424,104.6463711616816 35.88279030704871,105.34166910103522 37.02370383613743,108.23873438715236 37.122913708444685,108.93402778520249 37.42054332490079,109.62932030425873 38.065407493384555,111.77313337114174 39.702370383776724,116.64013742207317 39.900790127692744,117.39336039108457 39.80158025585115,118.03070209780708 39.900790127692744,118.43628279928816 40.00000000023283,118.61010300827911 39.95039506396279,118.95774326159153 40.14881480811164,119.53714319563005 40.843283913098276,120.00066270341631 40.992098721442744,120.63800138863735 41.53775301785208,122.08649565419182 41.934592506382614,122.83971116470639 42.62906161136925,124.75171513610985 43.17471590801142,125.9684414753574 43.3731356523931,126.66371246083872 42.678666547406465,126.89546926086769 43.12511097197421,128.2280689649633 43.76997514045797,128.45982510584872 44.365234373603016,129.85035989951575 44.81167879793793,130.42974835948553 45.95259232725948,133.44255851313937 45.95259232725948,134.1378200512845 45.80377751914784,134.6013272551936 46.547851560171694,135.5283404911752 46.944691048702225,136.74504299252294 47.2423206649255,137.4403003565967 48.581653938861564,141.20626247290056 48.68086381070316,141.9015141981654 49.32572797941975,143.34995247004554 49.97059214836918,145.60950855875853 50.21861682855524,146.4785661213682 49.87138227629475,146.65237746905768 49.87138227629475,147.0 50.41703657293692,146.94206292682793 51.06190074165352,146.65237746905768 51.557950102491304,146.24681757221697 52.103604399133474,146.0150689255097 53.29412286449224,144.9721988067613 53.88938209717162,144.62457499443553 54.83187588234432,143.81345191167202 55.476740051293746,143.6975770877907 56.12160422001034,143.46582736703567" stroke="#4dd2ff" stroke-linecap="round" stroke-linejoin="round" stroke-width="0.5"><title>2023-07-15 3.1km</title></polyline><polyline fill="none" points="103.98636414879002,131.1285268595675 103.384648805717,129.1958073055721 103.28436291520484,128.25872873980552 103.48493469599634,127.61448630952509 103.33450586046092,127.02881072548917 103.0837911341805,126.67740507883718 102.43193284538575,126.32599921000656 102.13107517361641,125.6817545404192 101.47921688528731,123.6318801708403 100.4763579799328,121.11345274205087 100.07521441788413,119.35640359425452 100.22564325365238,118.77071931090904 100.12535736290738,118.47787693812279 99.3230702385772,117.18936866434524 98.01935366145335,114.14379178336821 95.6626352337189,107.34975246613612 94.2084898208268,102.72272988723125 93.25577386072837,100.37991895875894 92.85463029844686,98.56423369830009 92.7543444079347,97.21710854407866 92.60391557216644,96.8071132840123 91.90191433834843,95.40141295385547 91.25005604978651,94.8157034337637 91.04948426876217,94.52284844231326 90.5480548159685,93.29285579378484 90.19705419894308,93.05857117107371 89.4950529653579,93.0 86.43633330357261,93.8199958333862 86.18561857729219,93.99570906901499 85.68418912426569,94.52284844231326 85.33318850770593,94.75713244784856 84.12975782109424,94.99141635443084 84.38047254737467,95.04998731584055 84.28018665662967,95.284271099139 84.23004371160641,95.284271099139 84.33032960211858,95.16712921985891 84.17990076635033,95.284271099139 84.17990076635033,95.16712921985891 84.53090138314292,95.04998731584055 84.63118727388792,95.22570016252575 84.53090138314292,95.40141295385547 84.17990076635033,95.69426748238038 82.77589829871431,96.27997607685393 78.86474856734276,97.62710350181442 77.96217555250041,97.97852751065511 77.61117493570782,98.27138068177737 77.51088904519565,98.44709251029417 77.76160377147608,99.09136873984244 78.11260438826866,101.08276327408385 78.413462060038,101.90274718531873 78.86474856734276,102.37130887730746 79.56674980116077,102.48844923858996 80.31889398023486,102.37130887730746 82.52518357220106,101.43418509850744 83.77875720430166,100.96562261652434 85.23290261696093,100.73134122748161 86.38619035854936,100.32134855911136 87.79019282571971,99.96992603124818 90.39762597996742,99.14993926900206 91.19991310453042,99.03279820439639 91.50077077629976,99.09136873984244 91.65119961206801,99.26708030916052 92.0022002288606,99.96992603124818 92.60391557216644,101.60989592736587 93.10534502472728,102.66415973438416 93.4563456417527,103.77699158410542 93.60677447752096,104.71411141374847 94.15834687557071,105.70979950216133 94.81020516413264,107.40832212549867 95.76292112423107,110.68821319547715 96.61535119381733,113.32382592646172 97.06663770135492,114.20236072695116 98.06949660694227,117.77505461353576 97.81878188042901,118.41930844495073 97.8689248256851,118.88785621710122 98.1697824972216,119.29783519374905 98.87178373103961,119.88351892161882 99.92478558188304,122.51908806234132 100.42621503444389,123.92471982934512 100.67692976118997,124.8032378788339 101.02793037774973,125.62318680610042 101.32878804951906,126.50170217221603 101.32878804951906,126.85310792987002 101.12821626849473,127.3216485947487 101.2285021590069,127.67305383412167 101.6296457212884,128.4344310911838 102.13107517361641,128.90297042345628 102.33164695487358,129.1958073055721 103.23421996994875,132.24130173720187 103.88607825827785,133.76404269761406 103.98636414879002,134.75967876327923 104.38750771083869,135.52104631625116 104.8889371638652,136.106712955283 105.13965189014561,137.10234482598025 106.89465497480705,141.90477939887205 108.34880038769916,146.59004144894425 108.29865744221024,146.76573800796177 107.94765682565048,147.0 108.44908627821133,146.94143451127457 109.30151634803042,146.4729103789432 110.95623354171403,145.3601639820845 112.81152251712047,143.954586403328 113.86452436749823,143.54462560702814 115.11809799959883,142.60757122316863 117.37453053658828,141.02628836937947 118.5779612234328,139.9720973020303 119.73124896455556,139.09360321919667 120.03210663609207,138.97647056978894 120.58367903437465,139.0350368975778 121.486252049217,138.7422051973408 121.88739561126567,138.7422051973408 122.08796739252284,138.8593378958758 122.4389680090826,139.5621335693868 122.48911095457152,139.79639859637246 122.4389680090826,139.9720973020303 121.28568026795983,140.79202386038378 118.77853300445713,142.1390434388304 119.53067718353122,142.84183496708283 119.48053423827514,143.07609861233504 119.58082012855448,143.3103621591581 119.02924773073755,142.60757122316863 119.38024834776297,143.54462560702814 119.43039129278623,143.3103621591581 119.27996245701797,143.1932303979993 119.22981951199472,142.95896680210717 119.33010540227406,142.19760943355504" stroke="#4dd2ff" stroke-linecap="round" stroke-linejoin="round" stroke-width="0.5"><title>2023-07-14 3.8km</title></polyline><polyline fill="none" points="180.8812749220524,138.99603784945793 180.13640185678378,139.40203873050632 177.05759318824857,141.7800378795364 175.71682167123072,142.99803346669069 174.77331578894518,143.40403139719274 172.04211455048062,145.55001548543805 170.8503176465165,146.24600852892036 170.45305201178417,146.01401094539324 169.80749535560608,144.91202108940342 169.41022972087376,143.57803041866282 169.0626222905703,143.05603318940848 168.96330588194542,142.53403546538902 168.26809102133848,140.50403961288976 168.0694582038559,139.75003924733028 167.57287616073154,138.3000356426346 167.42390154767781,137.60403255623532 166.8776613001246,136.21202374406857 166.7783448912669,135.51601801847573 166.38107925653458,134.76201082294574 166.33142105233856,133.892001237371 165.6362061914988,132.78998712264 165.04030773974955,131.45596708520316 164.891333126463,130.70195433014305 164.44440928730182,129.48393154481892 164.34509287890978,128.84591853432357 164.3947510831058,128.14990349806612 164.59338390058838,127.74389432056341 164.34509287890978,127.04787789128022 163.8485108355526,126.64186790108215 163.30227058799937,126.29385910002748 162.4580811143387,123.68378607992781 162.11047368403524,123.04576634895056 161.36560061876662,120.84169249841943 161.067651392892,119.50764351326507 161.3159424145706,118.81161667272681 161.01799318846315,118.28959596488858 160.27312012342736,117.41956035216572 159.27995603671297,115.27346662903437 158.58474117610604,113.01135878433706 158.08815913298167,111.7932968645473 157.93918451992795,111.03925718285609 155.6052489161957,104.07884212769568 155.40661609871313,103.32479188073194 154.7114012381062,101.41065969219198 154.36379380780272,100.83061832131352 154.3141356036067,100.13456786953611 153.86721176467836,98.68445993505884 153.91686996887438,98.04641123395413 153.76789535582066,97.40836179349571 153.12233869964257,96.07425602816511 151.88088359124959,95.43620430195006 152.12917461292818,93.98608399246586 151.7815671826247,93.0 150.98703591316007,93.058004989638 147.51096161012538,94.04408887814498 145.9218990711961,95.66822319704806 145.37565882341005,96.01625135639915 143.93557089800015,96.59629779972602 139.86359814251773,97.93040229973849 139.11872507771477,100.01855937537039 139.26769969053566,100.30858056497527 139.1683832819108,100.88862248597434 139.2180414861068,101.64267606951762 139.4663325077854,102.51273661357118 140.11188916419633,102.80275648931274 140.90642043342814,102.86076044617221 143.78659628494643,101.75868422153872 146.1701900928747,101.1786432171939 150.1428464394994,99.84454658813775 151.58293436537497,99.14849488972686 152.32780743017793,98.97448182763765 152.6754148604814,99.43851653760066 153.07268049521372,100.07656362542184 153.37062972108833,100.7726141505409 153.51960433414206,101.46866379585117 154.11550278635696,102.74475252628326 154.214819194749,103.49880356783979 154.51276842085645,104.13684595015366 154.7114012381062,104.77488759323023 155.1086668728385,105.35492480848916 155.25764148589224,106.1089722752804 155.7542235290166,107.44305372488452 156.3501219812315,109.53117472142912 157.0949950462673,111.50328172469744 157.243969659321,112.19931780395564 158.08815913298167,114.40342625009362 158.2371337460354,115.15746132459026 159.13098142389208,117.82557714253198 158.68405758496374,118.17359129607212 158.88269040221348,118.9276212073164 159.13098142389208,119.39163910102798 159.5282470586244,119.62364790117135 159.82619628449902,120.02966306626331 160.76970216701739,122.11773632938275 161.3159424145706,123.50978077208856 161.56423343601637,124.72781677270541 161.96149907121435,125.36583455483196 162.4580811143387,126.6998693466885 161.96149907121435,127.10587929392932 162.16013188823126,127.85989697329933 162.40842290990986,128.3819086078438 163.00432136189193,128.729916089389 163.69953622249886,130.7599553479813 164.29543467448093,132.15197794279084 164.4940674919635,132.78998712264 164.94099133065902,133.48599629377713 164.94099133065902,134.2400052366429 165.23894055676647,135.28401591436705 165.58654798730277,135.57401852909243 166.13278823485598,137.08202966401586 167.2749269346241,139.9820394697599 167.47355975187384,140.73603951768018 167.72185077355243,141.43203864549287 167.87082538637333,142.1280368937296 169.26125510805286,146.53600537066814 168.71501486026682,146.82600205973722 169.01296408637427,147.0 170.30407739896327,146.30400790955173 171.4958743029274,145.55001548543805 173.3828860677313,144.0420275402139 174.1277591327671,143.81002902821638" stroke="#4dd2ff" stroke-linecap="round" stroke-linejoin="round" stroke-width="0.5"><title>2023-07-14 3.2km</title></polyline><polyline fill="none" points="59.91560638998635,200.90442079264903 59.324784939410165,201.0769381209975 58.438552763778716,201.53698406374315 57.207674742210656,202.45707478601253 56.469147929223254,202.85961398942163 55.73062111623585,203.03213070018683 55.238269907655194,203.66469150595367 54.49974309466779,204.12473526841495 53.81045140256174,204.69978942594025 53.21962995221838,204.98731627763482 52.62880850187503,205.67738010408357 51.79181144712493,205.96490644081496 51.25022511766292,205.27484297810588 50.85634415061213,204.52727324236184 50.61016854620539,203.7797024830361 50.314757821150124,202.3995691614109 49.871641733450815,201.59448977926513 49.77317149168812,200.90442079264903 49.428525645518675,200.27185678866226 49.428525645518675,199.69679796713172 48.73923395317979,198.31665432441514 48.591528590768576,197.569075061474 47.853001778014004,195.55635657266248 47.803766656899825,194.6362542208517 47.55759105272591,194.0036829544115 46.81906423973851,193.02607137378072 46.32671303069219,191.70341762539465 45.88359694322571,190.20823996444233 45.24354037200101,188.94308643753175 45.292775492882356,188.19549433892826 45.58818621817045,187.79294432338793 45.342010613763705,186.98784340190468 44.20960283372551,186.41277058806736 44.01266235020012,185.4926528261276 43.52031114161946,184.0549657184747 43.1264301748015,182.73229023558088 42.53560872445814,181.35210370627465 42.3879033618141,180.719517047517 42.437138482462615,180.14443763071904 42.14172775740735,179.4543415309745 42.24019799940288,179.16680123202968 42.092492636758834,178.64922831213335 41.84631703235209,178.24667125742417 41.30473070265725,177.8441139056813 40.61543901078403,175.83132269512862 40.369263406377286,175.371255090693 39.975382439326495,174.10606717935298 39.7784419558011,172.8408763355692 39.43379610986449,172.3232974181883 39.28609074745327,171.69070029701106 38.89220978040248,170.42550385539653 37.907507363241166,167.72257436084328 37.562861517071724,166.34234988258686 36.77509958320297,163.7544195795199 35.74116204492748,161.28149693773594 35.54422156163491,160.64888702059397 35.445751319639385,159.90125617326703 35.15034059458412,159.1536243018927 34.85492986929603,158.63603240653174 34.90416499017738,158.06092972517945 33.820992331253365,155.7605129396543 33.771757210372016,154.43776889814762 32.934760155621916,153.0 31.60541189229116,153.51759723958094 29.685242178384215,153.92017253109952 28.454364156816155,154.55279024638003 27.962012948002666,155.3004284192575 27.125015893485397,155.53047072782647 26.829605168197304,155.99055505444994 23.33391158678569,157.5433367936057 20.08439361001365,158.69354264147114 20.281334093073383,159.78623595210956 20.232098972192034,161.45402678789105 20.576744818361476,162.14414564339677 20.724450181005523,163.06430275994353 21.462976993992925,163.35185154073406 23.530852070311084,162.37418506795075 25.057140817167237,161.85659622622188 26.386489080730826,161.28149693773594 27.125015893485397,161.33900689380243 28.552834398811683,160.8789270753041 29.48830169509165,160.36133681592764 30.866885079303756,160.07378645980498 31.408471408765763,159.78623595210956 32.88552503474057,159.26864465663675 33.47634648508392,159.26864465663675 34.214873298071325,160.53386695688823 34.41181378136389,161.22398697567405 35.34728107810952,163.1793222904671 35.69192692404613,164.55955476639792 35.98733764910139,165.192160151375 36.57815909967758,167.08997190813534 36.92280494561419,167.72257436084328 37.562861517071724,169.73539546941174 37.956742483889684,171.05810244270833 38.64603417599574,173.0134025325533 38.99068002216518,174.3361015630653 39.48303123051301,175.54378048784565 39.8769121975638,176.69394840847235 39.926147318445146,177.32653973181732 40.27079316461459,177.95913032226963 40.07385268108919,178.24667125742417 40.024617560440674,178.70673643861664 40.369263406377286,179.33932542958064 41.05855509848334,180.02942167466972 41.3539658235386,180.719517047517 41.698611669940874,181.98468963202322 42.58484384510666,183.88244301103987 42.880254570394754,185.26262314332416 43.42184090008959,186.47027789667482 43.1264301748015,187.62042279721936 43.42184090008959,188.31050857465016 44.25883795460686,189.23062158736866 44.75118916342035,190.61078819906106 44.898894526064396,191.18585659074597 45.342010613763705,191.8759378612158 45.83436182234436,193.31360437342664 46.03130230586976,194.0036829544115 45.785126701463014,194.57874777232064 46.52365351468325,195.67136925761588 47.11447496479377,197.05151958734496 47.803766656899825,199.12173853995046 48.09917738218792,199.69679796713172 48.197647623950616,200.32936263736337 48.49305834923871,200.96192657476058 48.93617443693802,202.34206353046466 49.52699588728137,204.2972515792353 49.67470124992542,204.92981091950787 50.01934709586203,205.61987481848337 50.11781733762473,206.36744305799948 49.67470124992542,206.82748454314424 50.216287579387426,207.0 51.447165600955486,206.30993784521706 52.678043622523546,205.4473589254776 53.90892164432444,204.23974614823237 55.189034786773846,203.49217499542283 55.82909135799855,203.31965843011858" stroke="#4dd2ff" stroke-linecap="round" stroke-linejoin="round" stroke-width="0.5"><title>2023-07-13 3.1km</title></polyline><polyline fill="none" points="121.4293301210273,199.17843992169946 121.03249067417346,199.58400502998848 120.73486108938232,199.69988072040724 120.5364413659554,199.98956983938115 119.4451328876894,200.22132102469914 116.76646662247367,201.66976372076897 114.03819542657584,203.29201501247007 112.5996524321381,204.3348883164581 111.40913409227505,205.43569688138086 110.76426999131218,205.8412573763053 110.36743054469116,205.78332018112997 109.97059109783731,205.26188514922978 109.22651713551022,203.29201501247007 108.78007275774144,201.72770134918392 106.99429524759762,196.68710483930772 106.29982621595263,193.906066303025 106.10140649275854,193.5004970083828 105.65496211498976,193.03698887687642 105.30772759928368,192.4576031633187 104.6132585676387,191.18295244517503 104.41483884421177,190.31387071649078 104.16681419010274,189.67654324276373 104.1172092591878,188.8653981172829 104.26602405146696,188.28600800951244 104.26602405146696,187.76455639093183 104.01799939759076,186.77959087333875 103.42274022754282,186.77959087333875 103.02590078068897,186.0843200343079 102.08340709470212,183.36116745282197 101.68656764808111,182.60795265622437 101.14091340894811,181.15945976402145 101.0417035475839,180.40624195249984 100.74407396232709,179.76890299853403 100.84328382392414,179.18950330879306 101.14091340894811,178.61010300857015 101.0417035475839,178.32040262955707 100.04960493044928,177.62512109737145 99.75197534565814,176.9298386865412 99.60316055291332,176.29249570413958 98.56145700532943,173.2795916085015 98.01580276619643,172.2946001512464 97.12291401159018,168.87608670257032 96.82528442656621,168.18079323135316 96.32923511788249,166.67432102822931 95.38674143212847,164.41460498666856 95.18832170870155,163.60342260450125 94.84108719276264,162.8501807496068 94.49385267705657,161.40163582167588 93.99780336860567,160.76427484455053 93.8985935067758,160.12691312894458 93.70017378381453,159.37366651260527 93.45214912923984,158.85218748165062 93.30333433696069,157.46157431480242 92.90649489033967,156.186842489813 92.55926037440076,154.91210770996986 91.96400120435283,153.34765644167783 91.2199272417929,153.0 90.42624834855087,153.23177098558517 88.59086590749212,153.5214845802402 87.30113770579919,154.100911311456 86.65627360460348,154.73828001104994 85.26733554131351,155.83918784279376 83.8287925471086,156.5344969170401 81.3485460053198,157.40363202325534 80.50526218116283,157.7512856813264 78.57066987873986,161.22781017393572 78.66987974033691,161.63340326654725 78.91790439421311,162.2707632361562 79.31474384083413,162.79223902581725 80.05881780362688,162.79223902581725 80.85249669710174,162.6763555596117 86.55706374300644,160.99604255793383 88.09481659904122,160.41662309120875 88.83889056160115,159.9530870783492 89.5829645243939,159.77926097268937 91.2199272417929,159.14189811539836 92.01360613526776,159.0260138801532 92.36084065097384,159.4895506746252 93.05530968261883,160.8801587135531 94.44424774614163,164.35666342754848 94.64266746956855,165.2257861723774 95.18832170870155,166.67432102822931 95.78358087874949,168.7602045185049 96.13081539445557,169.39755622908706 96.27963018720038,170.1507891169167 96.6764696338214,170.7881392161944 96.97409921884537,172.17871868715156 97.27172880386934,172.93194776616292 97.42054359614849,173.6851758135017 97.86698797368445,174.4384028292843 98.16461755894125,175.77103271492524 98.75987672898918,177.21953979774844 98.85908659058623,177.91482184268534 98.56145700532943,178.37834271753673 99.10711124469526,179.24744330515387 99.95039506908506,180.00066270359093 100.29762958479114,181.27533933578525 101.14091340894811,183.30322788952617 101.48814792511985,184.75171513622627 102.33143174904399,186.77959087333875 101.48814792511985,186.8954692610423 101.48814792511985,187.64867818623316 101.8353824405931,188.28600800951244 102.62906133406796,188.57570313982433 103.17471557343379,190.1400542060146 103.5715550200548,190.71944236085983 104.0676043285057,192.10997144214343 104.41483884421177,192.80523466476006 104.6628634983208,193.5004970083828 104.6628634983208,194.2536968891509 105.2085177374538,195.3545256285579 105.50614732247777,195.70215529913548 105.90298676909879,197.26648609805852 107.29192483262159,201.0324494043598 107.4407396253664,201.78563897154527 107.73836921015754,202.53882750764024 108.1848135876935,203.9293267109315 108.33362838020548,204.68251231173053 108.78007275774144,206.13094326102873 108.5320481036324,206.5944403593312 108.5320481036324,207.0 109.17691220436245,207.0 111.06189957633615,205.78332018112997 112.99649187875912,204.3348883164581 114.03819542657584,203.63963966665324" stroke="#4dd2ff" stroke-linecap="round" stroke-linejoin="round" stroke-width="0.5"><title>2023-07-11 3.2km</title></polyline><polyline fill="none" points="178.57658975757658,201.2948089094134 178.23120827437378,201.6405797599 177.09638340235688,202.15923562570242 176.8003421309404,202.50500592996832 175.96155853010714,203.25417417276185 175.61617704713717,203.31180245656287 174.67871302226558,204.06096959469141 173.83992942073382,204.5796231664135 172.31038285396062,205.8474409384653 171.52093946444802,206.1932089118054 170.87951671052724,205.61692883458454 170.23809395660646,204.23385417327518 169.94205268542282,203.02366097655613 169.59667120291851,202.27449241821887 169.30062993173487,200.71852367318934 168.3631659068633,197.83708838670282 168.21514527127147,196.97265484166564 167.8697637883015,196.2811070223106 167.52438230556436,195.01326708309352 167.3270214581862,194.55223364959238 167.1790008225944,194.03357057250105 166.43889764510095,192.93861357297283 166.29087700974196,192.18943120539188 165.74813467939384,190.8063226005761 165.4027531966567,190.17239665496163 165.0573717134539,188.90454255999066 165.10671192524023,188.27061441080878 165.30407277261838,187.69431545579573 165.0080315019004,187.0027559088776 164.71199023071676,186.65697580738924 164.16924790036865,186.42645561834797 163.0344230281189,183.19916277355514 161.99827857967466,180.7786806463846 162.047618791461,180.2023737995769 161.70223730849102,179.4531739911763 161.99827857967466,179.16501994553255 161.85025794408284,178.9344965997152 161.89959815586917,178.76160402665846 161.80091773206368,178.76160402665846 161.45553624955937,178.1852950549801 161.0608145543374,177.89714034151984 160.6167526480276,177.2055684099323 159.3832473519724,173.57480142597342 159.3339071404189,172.7679610461346 159.03786586923525,172.30690886633238 158.93918544542976,171.6729614844662 158.59380396269262,170.92374999506865 158.3471029032953,170.17453747970285 158.29776269150898,169.36769208480837 157.85370078496635,168.56084549985826 157.60699972580187,167.17767715727678 157.06425739568658,165.67924083961407 156.37349442997947,163.54684361850377 155.78141188784502,162.22129521047464 155.68273146427236,161.47207077644998 155.3373499813024,160.83811083843466 155.13998913392425,160.26178298465675 154.79460765095428,158.993859568669 154.6465870155953,157.95646549703088 154.251865320839,157.2648683563457 154.1531848970335,155.1900716876262 153.80780341429636,154.8442714777193 153.4624219313264,153.97976999671664 152.96901981299743,153.2881678281119 152.42627748288214,153.0 148.52840074757114,154.44083762320224 148.03499862900935,154.8442714777193 147.64027693448588,155.47823836212046 147.04819439235143,155.766404885042 146.65347269759513,155.42060503945686 141.42341024265625,162.85525354539277 147.9363182054367,160.5499469874194 148.72576159471646,160.14651734096697 149.41652456042357,159.97361883008853 150.15662773814984,159.62782164401142 153.0183600250166,158.93622661626432 153.61044256668538,159.28202423948096 154.4492261679843,161.24153997487156 155.18932934571058,163.66210854565725 155.48537061666138,164.2384328173357 155.92943252343684,166.08266640588408 156.42283464153297,167.23530924145598 156.76821612473577,168.38794964842964 157.36029866687022,169.5982194620301 157.45897909044288,170.17453747970285 157.80436057341285,170.7508548903279 157.9030409969855,171.3848033407703 158.93918544542976,174.32400928472634 159.43258756399155,176.11057773028733 159.72862883494236,176.74451997003052 160.024670106126,177.95477129641222 159.72862883494236,178.53108051081654 159.9259896823205,178.76160402665846 160.12335052969866,179.33791239111451 160.3207113770768,179.68369711842388 160.86345370742492,179.8565894002677 161.0608145543374,180.60578865616117 162.09695900324732,183.02627154823858 162.6397013333626,184.92807202221593 162.98508281633258,185.44674373156158 163.57716535846703,186.7722358655301 162.6397013333626,187.2909058262012 163.33046429930255,188.50113382283598 163.9718870529905,188.7316531377146 164.56396959512495,190.05713731318247 164.66265001893044,190.6910633923835 165.94549552653916,193.8606827708427 165.5507738320157,194.60986285004765 165.8468151029665,194.8403795910417 166.53757806844078,195.93533278477844 166.73493891605176,196.6268810412148 168.01778442389332,199.96935195848346 168.85656802519225,202.62026264949236 169.4486505673267,203.94571317883674 169.79403205006383,205.44404469319852 170.04073310946114,206.07795294484822 169.74469183851033,206.59660460462328 169.69535162649117,206.884744203242 170.09007332101464,207.0 170.87951671052724,206.65423253650079 172.65576433669776,205.67455686972244 174.13597069168463,204.63725131069077 174.67871302226558,204.11859779368388 175.36947598773986,203.772828509158 176.30694001284428,202.90840434195707 177.44176488509402,202.21686402498744 177.9351670036558,201.8134651031578" stroke="#4dd2ff" stroke-linecap="round" stroke-linejoin="round" stroke-width="0.5"><title>2023-07-07 3.1km</title></polyline><polyline fill="none" points="57.6682002551388,263.6179916828405 56.49032023828477,264.36318176134955 56.04861523164436,265.05104862048756 54.62534354440868,266.0255251825438 54.37995187425986,266.0255251825438 54.08548186998814,265.7962367365835 53.447463527554646,264.9937264153268 52.90760185336694,263.6179916828405 52.76036685123108,262.8728005842422 51.926035172306,261.3824153256137 51.77880016993731,260.52257581986487 51.43525183177553,259.834703237284 50.69907682132907,257.71375730086584 49.96290181064978,254.96224755299045 49.52119680424221,253.70113426924217 48.097925117006525,250.43369080347475 47.95069011463784,249.6311578284367 47.55806344258599,248.37003219104372 47.90161178074777,247.7967922986718 47.70529844472185,246.99425543501275 47.263593438314274,246.5356624100823 46.8218884319067,246.4783382549067 46.527418427634984,245.79044792061904 46.47834009351209,245.10255671659252 46.18387008924037,244.47198901581578 45.791243416955695,243.95606944448082 45.69308674894273,243.15352691692533 45.20230340864509,242.46563237981172 44.90783340414055,241.7204123166157 44.71152006811462,241.03251596784685 44.66244173399173,240.34461874963017 44.36797172972001,239.71404553577304 44.466128397965804,239.19812145346077 44.466128397965804,238.62487189960666 44.26981506170705,238.223596852622 43.582718385150656,237.30639563384466 43.337326714769006,236.61849370563868 43.14101337874308,235.87326563498937 42.257603366160765,233.8668772954843 41.864976693410426,232.54838950157864 41.521428355481476,232.08978430263232 41.521428355481476,231.5738529918599 41.37419335334562,230.82861801265972 40.93248834670521,229.51012285711477 40.14723500236869,226.58649176801555 39.705529995961115,225.3253127229982 38.82211998291314,223.14690566959325 38.18410164071247,221.77106514235493 37.742396634072065,221.2551240477478 37.54608329781331,219.82195177371614 37.251613293541595,218.38877572497586 36.95714328926988,217.87283142318483 36.5645166169852,216.32499558269046 36.171889944700524,215.75172193191247 35.681106604402885,214.6625003311201 35.63202827027999,213.974569775688 35.23940159799531,213.0 33.57073824061081,213.68793178745545 31.902074883226305,214.14655249618227 30.576959864003584,215.35043001687154 30.086176523473114,215.46508487983374 29.742628185311332,215.35043001687154 29.448158181272447,215.75172193191247 29.202766510890797,215.40775745140854 28.957374840741977,215.29310257622274 29.006453174632043,215.17844767699717 28.711983170360327,214.83448283403413 28.81013983860612,215.06379275361542 28.957374840741977,214.8918103230535 29.006453174632043,215.06379275361542 29.39907984691672,215.17844767699717 29.64447151706554,215.52241230232175 29.104609842645004,216.0383588327677 26.797928142827004,217.12757767923176 25.325578121701255,217.7581770674442 24.687559778802097,217.93015859200386 23.21520975790918,218.50342994765379 22.57719141501002,219.19135477743112 22.724426417145878,219.24868180725025 22.47903474722989,219.24868180725025 22.3317997448612,219.53531686612405 22.380878078984097,219.47798986639827 22.82258308515884,220.22324039111845 23.018896421417594,220.91116304631578 22.773504751501605,222.05769887252245 23.018896421417594,222.86027251329506 23.411523093935102,223.20423228276195 24.196776438737288,223.4908652578597 24.88387311529368,222.91759915655712 25.570969791850075,222.5736392060644 28.024886493803933,221.65641160821542 28.81013983860612,221.48443126148777 29.546314849052578,221.0831435743603 31.11682153865695,220.50987493642606 31.902074883226305,220.39522113645216 35.87741994042881,219.13402774144197 36.6135949511081,220.5672018273617 36.85898662125692,221.36977766663767 37.153456625528634,222.05769887252245 37.644239966291934,222.86027251329506 39.75460832985118,228.36360273347236 39.85276499809697,229.16616707359208 40.294470004271716,229.9114043295849 40.49078334029764,230.5419889028417 40.6380183424335,231.2298985128291 40.83433167892508,231.5738529918599 41.47235002112575,234.3254809966311 42.748386706458405,237.8796465767664 42.55207337043248,238.567546911072 42.69930837233551,239.25544637569692 43.4354833830148,239.71404553577304 43.68087505316362,241.08984069683356 44.85875507025048,243.38282490277197 44.90783340414055,244.01339386537438 45.34953841054812,245.2172053109971 45.93847841909155,246.4210140936193 45.69308674894273,246.9369313280913 45.34953841054812,247.39552401483525 45.74216508306563,248.08341232023668 46.57649676175788,248.7712997563067 47.018201767932624,249.57383399928221 47.361750106327236,250.26171955128666 48.4905517892912,253.18522344733356 48.4905517892912,253.8731044345186 48.343316787155345,254.27436794224195 48.588708457536995,254.90492428536527 49.324883467983454,255.9367421795614 50.306450148811564,258.63092412549304 50.35552848293446,259.261475420848 50.74815515521914,260.0066714643617 51.140781827503815,261.4397379111033 51.77880016993731,262.93012301268755 52.17142684245482,264.3058594838367 52.46589684672654,264.9364042042289 52.80944518488832,266.25481353187934 52.41681851260364,266.5987458747695 52.66221018275246,267.0 53.349306859541684,266.5987458747695 56.882946910336614,263.5606693268637" stroke="#4dd2ff" stroke-linecap="round" stroke-linejoin="round" stroke-width="0.5"><title>2023-07-05 3.1km</title></polyline></svg>