<?xml version="1.0" encoding="utf-8" ?>
<svg baseProfile="full" height="300mm" version="1.1" viewBox="0,0,200,300" width="200mm" xmlns="http://www.w3.org/2000/svg" xmlns:ev="http://www.w3.org/2001/xml-events" xmlns:xlink="http://www.w3.org/1999/xlink"><defs /><rect fill="#222222" height="300" width="200" x="0" y="0" /><text fill="#FFFFFF" style="font-size:12px; font-family:Arial; font-weight:bold;" x="10" y="20">Over 5km Runs</text><text fill="#FFFFFF" style="font-size:4px; font-family:Arial" x="10" y="280">ATHLETE</text><text fill="#FFFFFF" style="font-size:9px; font-family:Arial" x="10" y="290">Melt</text><text fill="#FFFFFF" style="font-size:4px; font-family:Arial" x="120" y="280">STATISTICS</text><text fill="#FFFFFF" style="font-size:3px; font-family:Arial" x="120" y="285">Number: 8</text><text fill="#FFFFFF" style="font-size:3px; font-family:Arial" x="120" y="290">Weekly: 2.0</text><text fill="#FFFFFF" style="font-size:3px; font-family:Arial" x="141" y="285">Total: 50.6 km</text><text fill="#FFFFFF" style="font-size:3px; font-family:Arial" x="141" y="290">Avg: 6.3 km</text><text fill="#FFFFFF" style="font-size:3px; font-family:Arial" x="167" y="285">Min: 5.3 km</text><text fill="#FFFFFF" style="font-size:3px; font-family:Arial" x="167" y="290">Max: 9.2 km</text><polyline fill="none" points="48.926650093635544,85.79274410154903 48.17493219068274,84.75011175620602 47.04735533706844,81.73195373051567 46.90640823030844,80.853940839821 47.188302443828434,80.0308024106198 47.04735533706844,79.42716673621908 46.859425861155614,79.09791061887518 46.20167269650847,78.82353036227869 46.013743220828474,78.54914996097796 45.44995479402132,76.68335940031102 44.36936030909419,74.32367353333393 43.75858951290138,72.07373054296477 43.664624775294214,71.30545510113006 43.006871610181406,70.20791679009562 42.443083183374256,68.61648213176522 41.50343580520712,65.81774042203324 41.17455922276713,65.1043332676054 40.704735533567145,62.96410594199551 40.187929475679994,61.75679434055928 39.48319394188002,59.451918967824895 39.06035262160003,58.5189903221908 38.0267405055929,55.66531585773919 37.509934447705746,54.512865969212726 37.228040234185755,53.360413530957885 37.08709312742576,52.48235281906091 37.08709312742576,51.988443018111866 36.335375224938616,49.6835244212416 36.24141048709862,49.024974377360195 36.19442811817862,47.59811309253564 36.382357593625784,47.21395746344933 36.617269438225776,46.939560412138235 37.69786392338574,46.445645355270244 39.62414104864001,45.7322116685682 40.56378842680715,45.23829546687193 41.55041817412712,44.90901773900259 42.67799502820708,44.41510075668339 44.93314873590134,43.701664288761094 50.101209316402674,41.725988969614264 51.13482143217698,41.39670902112266 52.30938065494411,40.90278870833572 53.249028033344075,40.62838833202841 53.90678119799122,40.299107689759694 53.577904615784064,40.18934742943384 53.38997514010407,40.24422756244894 49.06759720016271,42.11014864628669 46.95339059922844,42.658947693009395 46.013743220828474,43.04310668166727 44.510307415621355,43.48214517888846 42.95988924149424,44.195581947569735 40.187929475679994,45.07365662883967 38.44958182587288,45.7322116685682 37.36898734094575,46.061488876177464 35.489692584378645,46.82980155106634 32.6237680807244,47.59811309253564 31.30826175119728,47.817630467761774 30.97938516899012,47.70787179173203 30.885420430917293,47.488354370347224 29.80482594599016,44.85413809737656 28.865178567823023,41.06742886471329 28.30139014078304,39.14662380237132 28.160443034023046,38.43318011792144 27.690619344823062,37.116050748329144 26.985883811255917,33.987855146231595 26.469077753135934,33.16464265459217 26.28114827768877,33.0 26.187183539615944,33.054880890704226 26.093218801775947,33.38416611292632 26.28114827768877,34.59154347976437 27.831566451583058,39.53078538144473 28.67724909214303,43.0979865140398 30.039737790590152,47.70787179173203 30.180684897350147,48.476182038197294 30.13370252843015,48.695699043164495 29.663878839230165,49.409128670813516 29.75784357707016,49.299370330176316 29.710861208150163,48.97009516955586 29.428966994630173,47.817630467761774 29.100090412423015,45.89685029844986 28.160443034023046,42.16502857703017 27.314760393463075,39.20150404510787 26.657007228815928,36.622126376023516 26.093218801775947,33.49392780743074 26.187183539615944,33.219523527892306 26.56304249097593,33.38416611292632 26.89191907318309,33.76833194238134 27.596654606983066,35.689156839158386 29.100090412423015,40.73814849986229 29.616896470310166,43.0979865140398 29.992755421670154,44.25046165846288 30.180684897350147,45.23829546687193 30.462579110870138,46.33588639012305 30.885420430917293,47.817630467761774 31.026367537677288,47.87250979716191 32.247909129364416,47.59811309253564 33.04660940077156,47.26883685635403 34.40909809945151,46.77492211188655 37.04011075850576,46.006609355972614 38.44958182587288,45.5126934145228 39.67112341779284,44.90901773900259 42.95988924149424,43.81142380897654 46.15469032735564,42.549187929951586 48.97363246232271,41.561349021445494 49.86629747180268,41.39670902112266 51.4636980148498,40.73814849986229 53.29601040226407,40.24422756244894 53.530922246864066,40.18934742943384 53.76583409169689,40.299107689759694 53.71885172254406,40.46374803688377 53.43695750902407,40.683268418884836 51.4636980148498,41.67110899271211 49.02061483124271,42.49430803960422 47.987002715235576,42.76870743301697 46.43658454087563,43.427265387028456 44.839183998061344,43.86630356032401 43.14781871717423,44.52486012643203 39.38922920427285,45.7322116685682 38.21466998127289,46.28100689902203 37.181057865032926,46.610283759539016 35.11383363325149,47.43347500055097 34.597027575131506,47.76275113271549 34.45608046813868,48.09202705667121 34.55004520621151,48.695699043164495 35.160816001938656,50.01279913098551 35.536674953531474,51.439653801207896 35.91253390465863,52.317716270685196 36.28839285578579,52.921383360167965 36.57028706930578,53.579928477760404 36.85218128282577,54.56774459313601 38.120705243665725,57.805573171703145 38.44958182587288,59.12265022483189 39.43621157296002,61.75679434055928 39.859052893240005,63.128739125444554 41.9732594944071,68.8908677646541 42.443083183374256,70.75668623467209 42.443083183374256,71.08594762400026 42.34911844576709,71.47008564841235 42.443083183374256,71.79934658668935 42.771959766047075,72.62249802210135 43.28876582393423,73.2261415811954 44.0874660955742,75.20169743028237 44.510307415621355,76.62848310626578 44.839183998061344,77.23212202364812 45.21504294942133,78.43939776014304 45.44995479402132,79.37229073123308 45.44995479402132,79.53691872907802 45.30900768726133,79.97592646913836 45.44995479402132,80.689313257928 45.63788426970132,80.96369253203738 46.15469032735564,81.34782327286666 46.62451401678845,82.17095962085295 47.188302443828434,84.25623254844686 47.94002034631558,86.34149712952785 47.94002034631558,87.0" stroke="#4dd2ff" stroke-linecap="round" stroke-linejoin="round" stroke-width="0.5"><title>2023-08-07 5.3km</title></polyline><polyline fill="none" points="169.44214782002382,86.55328006320633 168.5815976387821,85.15727783454349 167.43419739743695,81.8626979997498 167.33858071058057,81.08093028754229 167.52981408429332,80.13163937273202 167.43419739743695,79.74075438437285 167.19515568064526,79.40570987918181 166.621455559507,79.12650596327148 166.33460549963638,78.73562023357954 164.80473851086572,74.8825883337995 164.47008010698482,73.70992089255014 163.99199667340145,71.1970533541753 163.41829655249603,70.58279503305675 163.2270631790161,70.13606126146624 162.12747128121555,67.23228256951552 161.79281287710182,65.89207165455446 161.31472944328561,64.88691124448087 160.0239041717723,61.14546407770831 159.11554564721882,58.24163613416022 158.82869558688253,57.571519734337926 158.1593787795864,55.61700872902293 157.5378703151364,54.22092502680607 157.15540356817655,52.768994076002855 156.8207451645285,51.93133979511913 156.8207451645285,51.093684190593194 156.6773201341275,49.92096412007231 156.1992367003113,47.519672070338856 156.1514283567667,47.18460719846189 156.24704504339024,47.01707468321547 156.43827841733582,46.737853706639726 159.1633539905306,45.62096832925454 160.262945888564,44.89499157189857 161.69719619047828,44.16901382012293 162.55774637148716,43.88979134312831 163.41829655249603,43.49887962813955 165.37843863177113,42.94043382117525 167.91228083125316,41.823540441691875 168.8684476991184,41.60016148316208 169.7289978803601,41.20924807956908 173.7927070686128,39.868971364048775 174.22298215911724,39.64559158193879 174.41421553259715,39.422211705648806 174.12736547226086,39.47805668361252 173.41024032165296,39.924816294864286 172.3584567666985,40.31573064578697 171.49790658592246,40.762489551038016 169.7289978803601,41.43262720271014 165.61748034856282,42.49367675173562 163.37048820895143,43.61056871910114 160.74102932261303,44.392391695815604 158.1593787795864,45.565123998501804 156.1992367003113,46.29109983803937 155.1474531458225,46.51447681942955 153.71320284390822,47.01707468321547 152.56580260256305,47.18460719846189 151.51401904807426,47.463827939820476 151.13155230064876,47.407983803306706 150.84470224031247,47.240451358491555 150.74908555368893,47.01707468321547 149.88853537244722,44.057324846915435 148.7411351313349,41.43262720271014 148.16743501042947,39.19883173541166 146.58975967857987,33.83768420107663 146.2072929313872,33.39091945858672 145.9204428710509,33.39091945858672 145.6814011540264,33.67014746682253 145.58578446740285,33.89352976734517 145.63359281094745,34.116911973804235 146.8288013956044,36.62995530880289 147.35469317273237,38.193620703415945 147.68935157661326,39.53390165552264 148.07181832380593,40.706644708581734 148.59771010116674,43.33134594798321 149.84072702936828,48.13395711861085 149.69730199920014,49.0274613724323 149.79291868582368,48.74824145500315 149.74511034227908,48.301489280944224 148.98017684812658,45.73265697277384 148.59771010116674,43.88979134312831 146.8288013956044,37.9143950783764 146.35071796155535,35.959811584616546 146.01605955790728,35.01043985807337 145.82482618419454,33.50261067948304 145.9204428710509,33.27922821423272 146.11167624453083,33.05584565451136 146.35071796155535,33.0 146.733184708748,33.111691303376574 147.11565145570785,33.50261067948304 147.3068848294206,33.89352976734517 147.8327766067814,36.96502685319865 148.31086004059762,39.087141714815516 148.7411351313349,40.3715755296289 149.31483525177464,42.828744589176495 149.93634371599182,44.95083597302437 150.65346886706538,47.072918860882055 150.84470224031247,47.240451358491555 151.8964857950341,47.072918860882055 154.90841142856516,46.123567040252965 156.9641701944638,45.565123998501804 159.06773730390705,44.83914716477739 165.76090537849814,42.27029807586223 169.2031061029993,41.04171367548406 169.87242291052826,40.93002404330764 171.45009824237786,40.25988575624069 173.4580486647319,39.64559158193879 173.69709038198926,39.58974662178662 173.88832375523634,39.75728148478083 173.88832375523634,39.924816294864286 173.69709038198926,40.14819595927838 172.74092351389118,40.65079986001365 169.44214782002382,41.879385166510474 166.52583887288347,42.828744589176495 161.26692109997384,44.78330275171902 159.6892457678914,45.50927966204472 158.30280380952172,46.0118784790393 156.10362001368776,46.62616527476348 155.43430320592597,47.072918860882055 154.5737530249171,47.407983803306706 154.43032799474895,47.96642490319209 155.0996448022779,49.250837200612295 155.76896160980687,51.37290287250653 156.39047007379122,52.601463325787336 157.49006197182462,56.34297080087708 158.01595374918543,57.683205859793816 158.589653869858,59.63770924654091 160.50198760582134,64.49601501470897 162.2230879678391,70.13606126146624 162.31870465446264,70.58279503305675 162.31870465446264,71.47626144677633 162.50993802794255,71.81131096358877 162.79678808827884,72.64893382927403 163.27487152232789,73.20734833774623 164.0398050164804,75.38515930029098 164.80473851086572,77.06039241410326 165.4262469750829,79.34986910771113 165.37843863177113,79.57323215826182 165.04378022789024,79.90827655768953 165.04378022789024,80.18748006172245 165.37843863177113,80.91340848483378 165.9999470957555,81.2484520371654 166.23898881254718,81.58349537773756 167.48200574074872,84.8222367526032 167.86447248770855,86.16239980957471 168.00789751810953,87.0" stroke="#4dd2ff" stroke-linecap="round" stroke-linejoin="round" stroke-width="0.5"><title>2023-08-06 5.3km</title></polyline><polyline fill="none" points="49.19757062231656,147.0 48.90939608577173,146.01827957099886 48.90939608577173,145.79388582185493 48.98143971990794,145.51339336947422 48.933410630444996,145.3731470326602 48.789323362289,145.0646048313356 48.52516337041743,144.92435825796565 48.4771342810709,144.86825960801798 48.309032468125224,144.53166745972703 47.9488142975606,143.66213577409508 47.49253794818651,142.34380812515155 47.2764070458943,141.4742692950531 47.2764070458943,141.24987171663088 47.10830523283221,140.91327499446925 46.84414524107706,140.57667784680962 46.60399979399517,139.95958197084838 46.14772344462108,138.66928597260267 44.87495257530827,134.6020076671266 44.68283621768933,134.04099888703786 44.03444351057988,132.52626927607344 43.818312608171254,131.60059693819494 43.794298063614406,131.17983572077355 43.818312608171254,130.81517546105897 43.770283518824726,130.53466722919256 43.554152616416104,130.0858534433646 43.241963535314426,129.63703890095348 43.14590535638854,129.3565294276923 43.121890811715275,128.85161163113662 43.19393444585148,128.59915237379028 43.33802171400748,128.48694818254444 44.58677803876344,128.0661820443056 46.02765072113834,127.36490366936778 46.67604342813138,127.11244300220278 46.96421796467621,126.88803331929375 47.036261598696,126.66362344729714 47.06027614348568,126.32700828445377 46.916188875213265,125.65377668221481 46.70005797280464,125.06469763367204 46.3638543470297,123.9706902281323 45.88356345286593,122.62421340364381 45.64341800578404,122.14733456191607 45.47531619283836,121.55824775443762 44.730865307035856,119.53851166123059 44.49071985995397,119.00552319237613 44.346632591681555,118.8091587505478 44.13050168938935,118.64084625666146 43.8663416976342,118.58474206837127 43.45809443760663,118.69695043307729 42.92977445409633,119.00552319237613 42.329410836449824,119.20188748926739 41.12868360115681,119.53851166123059 40.09605817892589,119.762927539472 38.943360032862984,120.12760293800966 38.58314186241478,120.18370680112275 38.31898187054321,120.1556548710505 38.17489460238721,120.0714990630513 38.0308073341148,119.90318736722111 37.95876369997859,119.7348755649582 37.022196456440724,117.0418722567847 36.157672847039066,114.01221097059897 35.91752739995718,112.7778946350445 35.893512855283916,112.55347286825418 35.94154194474686,112.44126191386022 36.10964375769254,112.30099815438734 37.1902982693864,112.0485232010833 37.76664734247606,112.0485232010833 38.102850968251005,111.96436483008438 39.30357820354402,111.34720262989867 41.729047218803316,110.47756255546119 42.13729447883088,110.2531388491625 43.530138071626425,109.07491128725815 43.794298063614406,108.76632701634662 44.442690770491026,107.64419937916682 44.49071985995397,107.33561344954069 44.370647136471234,106.97092052618973 43.89035624230746,105.98905247959192 43.386050803470425,105.34382293393719 42.20933811296709,104.24973447763477 41.17671269061975,103.35201751353452 40.5283199835103,102.70678157536895 40.408247260027565,102.65067402855493 40.07204363413621,102.73483534433763 39.879927276517265,102.98731913199299 39.73584000824485,103.09953407177818 39.327592748217285,103.21174896435696 38.39102550467942,104.2216808682715 37.95876369997859,104.61443112939014 37.09424009057693,105.17550192569615 36.39781829412095,105.51214383580373 33.97234927886166,106.35374674829654 32.17125842592213,106.74649386340752 31.690967531874776,106.74649386340752 31.47483662958257,106.66233381608617 31.306734816520475,106.38180013280362 30.538269385928288,104.27778808400035 29.98593485762831,102.65067402855493 29.721774865873158,101.72489779876196 28.521047630696557,99.0878205850604 28.01674219185952,98.16203196247807 27.632509476621635,97.20818577124737 27.608494931831956,96.98375087635941 27.632509476621635,96.87153335809126 27.800611289567314,96.70320699180593 28.473018541233614,96.25433616136434 29.457614874234423,95.8054645738157 30.442211207235232,95.41270131376223 31.690967531874776,94.82355533694499 32.89169476716779,94.09413470150321 33.39600020600483,93.86969718075125 33.85227655537892,93.50498580580461 34.0203783683246,93.39276682064519 35.14906196948141,93.0 35.36519287189003,93.05610958128818 35.557309229508974,93.22443825413939 35.7494255870115,93.53304054465843 36.061614668229595,94.26246271788841 36.27774557063822,94.68328229311737 36.58993465185631,95.21631946641719 36.92613827763125,95.63713753339835 37.47847280593123,96.17017279635184 38.27095278108027,96.81542458105832 39.015403667115606,97.57289207150461 39.159490935271606,97.79732646944467 39.567738195182756,98.75117054939619 39.73584000824485,99.39641607692465 39.95197091053706,100.6027404757915 39.95197091053706,101.19187366022379 39.855912731844,102.17375940323109 39.759854552918114,102.67872780346079 39.66379637410864,102.87510414479766 39.159490935271606,103.49228598875925 38.34299641533289,104.33389528773841 37.38241462712176,105.03523433755618 36.157672847039066,105.62435771123273 35.269134692964144,105.90489219271694 34.74081470945384,106.15737297345186 34.044392912997864,106.35374674829654 32.651549320085905,106.63428046109038 31.859069344820455,106.85870721843094 31.690967531874776,106.94286720364471 31.57089480839204,107.0831337866257 31.402792995329946,107.56003961563692 31.402792995329946,107.89667850991827 31.522865718929097,108.37358288138057 31.71498207654804,108.82243327394826 32.003156612976454,109.38349520036718 32.387389328330755,110.73003899867763 32.62753477541264,111.29109690437326 32.98775294597726,112.44126191386022 33.15585475892294,112.7778946350445 33.29994202707894,112.9181581432058 33.42001475056168,112.97426352577168 33.756218376453035,112.97426352577168 33.996363823651336,112.94621083603124 34.86088743293658,112.60957832768327 35.36519287189003,112.60957832768327 35.6053383188555,112.63763105295948 35.7494255870115,112.80594734262559 35.893512855283916,113.14257960260147 36.27774557063822,114.65741950453958 36.39781829412095,115.27457403030712 36.80606555414852,116.36861717305146 37.022196456440724,117.60291685923585 37.5024873506045,119.48240766211529 37.59854552941397,120.1556548710505 37.55051644006744,120.35201831947779 37.45445826114155,120.4642259394459 36.181687391828746,121.05331516769365 35.4612510506995,121.24967795412522 34.74081470945384,121.64240309243905 34.044392912997864,121.83876544429222 33.444029295351356,122.09123111254303 33.29994202707894,122.25954142500996 33.15585475892294,122.84862668061396 33.13184021413326,123.01693651420646 33.29994202707894,123.80238099751296 33.6361456529703,124.7280804492184 34.06840745778754,125.73793072559056 34.668771075317636,127.56126180061256 34.86088743293658,127.98202873679111 35.43723650602624,129.58093702991027 35.653367408318445,130.02975166690885 35.86949831061065,130.73102302252664 36.01358557876665,131.01153104758123 36.229716481175274,131.23593725488172 36.42183283891063,131.32008953380864 36.54190556250978,131.32008953380864 38.31898187054321,130.87127707208856 39.615767284762114,130.36636214811006 39.687810918781906,130.28220956772566 39.83189818705432,129.74924260744592 40.0,129.72119168526842 40.04802908934653,129.66508983197855 40.02401454478968,129.4406823006575 39.39963638235349,127.14049419929506 39.11146184592508,125.90623873259756 39.06343275657855,125.5415712496324 38.7992727648234,124.70002899799147 38.41504004935268,123.15719462762354 38.27095278108027,122.7083684047102 38.078836423461325,121.6704548659036 38.102850968251005,121.50214418099495 38.15088005759753,121.41798879863927 38.27095278108027,121.50214418099495 38.34299641533289,121.61435131609323 38.607156406971626,122.25954142500996 38.895330943516456,123.18524624145357 39.087447301251814,124.13899935234804 39.44766547170002,125.1488518632541 39.567738195182756,125.7659820674453 39.92795636586379,126.94413575783256 40.0,127.56126180061256 40.36021817056462,128.7674585719069 40.45627634937409,128.90771365581895 40.5283199835103,128.93576466370723 40.96058178821113,128.87966264496208 42.161309023504145,128.57110133036622 42.713643551804125,128.37474394397577 43.3140071692178,128.23448857938638 44.5387489493005,127.78567091599689 45.691447095246986,127.30880131962476 46.387868891702965,127.11244300220278 47.06027614348568,126.77582840697141 48.06888702104334,126.46726465408574 48.57319245999679,126.35505956434645 49.50975970341824,125.93429005672806 50.66245784924831,125.56962261217996 51.575010548112914,125.3171602426446 51.98325780814048,125.1488518632541 52.31946143403184,125.09274904645281 52.391505068168044,125.1769032671873 52.29544688935857,125.26105746132089 51.98325780814048,125.40131439242396 48.83735245175194,126.43921338609653 46.628014338668436,127.33685249599512 42.47349810472224,128.7113565177424 42.329410836449824,128.79550959460903 42.28138174698688,128.90771365581895 42.25736720231362,129.07601965896902 42.30539629177656,129.24432555571548 42.49751264951192,129.74924260744592 42.88174536463339,131.06763261719607 42.953788998769596,131.23593725488172 43.241963535314426,131.5725462110713 44.05845805525314,134.1251502793457 44.61079258355312,135.5837701880373 44.778894396382384,136.17282596291625 45.067068932927214,136.78993061510846 45.76349072938319,139.09003535471857 46.003636176348664,139.6790833726991 46.219767078757286,140.38032931415364 46.31582525768317,140.82912574737566 46.29181071289349,140.9693744777178 46.14772344462108,141.0815734086791 46.17173798941076,141.16572257597 46.31582525768317,141.44621960807126 46.6520288833417,141.75476600209367 46.96421796467621,142.45600647712126 47.468523403513245,143.99872902149218 47.51655249285977,144.41946998247295 47.780712484614924,145.0085062108701 47.80472702928819,145.20485133075272 47.70866885059513,145.34509775633342 47.73268339515198,145.45729484368348 47.92479975288734,145.9341319372761 48.23698883410543,146.2426731309679 48.429105191724375,146.55121396726463" stroke="#4dd2ff" stroke-linecap="round" stroke-linejoin="round" stroke-width="0.5"><title>2023-08-04 9.2km</title></polyline><polyline fill="none" points="162.31744830100797,146.8611910303298 161.64400178589858,145.84325724595692 160.77248276700266,143.2984124647046 160.65363926440477,142.55809121459606 160.85171176865697,142.00284945816384 160.77248276700266,141.49387723157997 160.5347957618069,141.12371524173068 160.13865075306967,140.9386341298814 159.98019274952821,140.75355294012115 158.6332997197751,137.79224329683348 158.2371547112707,136.3578517610731 157.95985320513137,134.3682041343127 157.8013952015899,134.09057816746645 157.44486469379626,133.72040993874543 157.2864066902548,133.39651248281007 156.61296017537825,131.45312273103627 156.0583571633324,129.64853883368778 155.7414411562495,129.1395522915409 155.58298315294087,128.49175038465182 154.94915113877505,127.01105672397534 153.72110161185265,123.3555728760839 153.364571104059,122.61521801212803 153.04765509720892,121.5046833762899 152.69112458918244,120.67178055646946 152.17613607784733,118.31188065634342 152.17613607784733,117.57151729028556 151.81960557005368,115.39669268473517 151.42346056131646,114.23986669827718 151.46307506226003,113.96222800808027 151.58191856485792,113.82340859723627 155.34529614751227,112.48148536300869 156.29604416852817,112.2501188737806 159.10867373039946,111.13955802848795 160.415952259209,110.76937045605155 162.87205131328665,109.75135302278795 166.27889838814735,108.59451216610614 166.59581439523026,108.40941734620719 167.11080290633254,107.76158486228087 167.19003190821968,107.39139444261673 166.99195940373465,106.41964310576441 166.5561998942867,105.03142318030586 165.96198238106444,103.87456989040948 165.80352437775582,102.81026217213366 165.0904633619357,100.91301158140413 164.81316185602918,99.80242206642288 163.9416428366676,98.27535689721117 163.5058833269868,96.97966107437969 163.2285818210803,96.47063666937174 162.99089481588453,95.45258608928998 162.9116658139974,95.36003591952613 162.87205131328665,95.40631100689643 162.87205131328665,95.82278657323332 163.14935281942599,96.51691163974465 163.9416428366676,98.69182974271826 164.41701684705913,99.8949712998292 165.0904633619357,101.32948192540789 166.3977418905124,104.56868223010679 167.0711884056218,107.02120371052297 167.0711884056218,107.25257295460324 166.9523449030239,107.6227634914394 166.79388689948246,107.76158486228087 166.3185128888581,108.0392274725018 164.93200535862707,108.5019647658919 161.60438728518784,109.79762659367407 158.3559982138686,110.76937045605155 157.12794868671335,111.37092510293587 155.42452514916658,111.87993223741069 154.19647562224418,112.43521207483718 153.32495660311542,112.66657846668386 152.3345940813888,113.12931088462938 151.3838460603729,113.40695010128547 150.59155604289845,113.73086229889304 149.75965152471326,114.05477425776189 148.2939149925951,114.42495906091062 147.42239597346634,114.74887050778489 147.26393796969205,114.74887050778489 147.06586546543986,114.51750521294889 146.03588844276965,111.97247892568703 145.44167092978023,109.65880586646381 144.4513084080536,106.37336917890934 143.81747639388777,103.78202149551362 143.34210238349624,102.34751888134633 143.22325888089836,101.65340303102857 143.10441537830047,101.60712860195781 143.10441537830047,101.74595187447267 143.38171688420698,102.94908506423235 144.25323590356857,105.40161558950786 144.4116939068772,105.95690361814923 144.5305374097079,106.97492984714336 146.11511744442396,112.52775864629075 146.55087695410475,115.07278171580401 146.74894945835695,115.90569515348761 146.7093349576462,115.99824099353282 146.11511744442396,116.0445139061485 146.31318994867615,115.99824099353282 146.35280444961973,115.76687635687995 146.03588844276965,114.84141659154557 145.20398392435163,111.78738552948926 145.08514042175375,110.8619173783809 144.84745341655798,110.02899437505403 144.68899541324936,109.19606979194214 144.13439240097068,107.71531107698684 143.85709089483134,106.60473876420292 143.38171688420698,105.21651942405151 143.0648008773569,103.87456989040948 142.94595737475902,102.9953593519167 142.90634287404828,102.11614705325337 142.9855718757026,102.06987267293152 143.10441537830047,102.16242142856936 143.6986328912899,102.94908506423235 144.05516339931637,103.73574729083339 144.84745341655798,105.95690361814923 145.83781593828462,109.65880586646381 146.6301059559919,113.08303766473546 147.06586546543986,114.61005134542938 147.3431669715792,114.74887050778489 148.8881325055845,114.47123213938903 150.90847204998136,113.68458914244547 151.66114756651223,113.26813051488716 152.65151008823887,112.89794473652728 153.87955961516127,112.71285173032084 155.70182665530592,112.01875226257835 156.53373117372394,111.55601867454243 157.52409369545057,111.27837828782503 158.79175772354938,110.67682351419353 161.16862777573988,109.9827208284405 161.92130329227075,109.65880586646381 165.0904633619357,108.59451216610614 166.47697089263238,107.90040618935018 166.67504339688458,107.6227634914394 166.67504339688458,107.25257295460324 165.68468087515794,103.82829569544992 165.24892136547714,103.04163363474072 165.01123436028138,102.39379323244793 163.26819632179104,98.36790645259316 162.95128031494096,96.84083629515953 162.95128031494096,95.49886116676498 163.03050931659527,95.2674857302336 163.2285818210803,95.08238529326627 164.0208718383219,94.61963385922718 167.50694791506976,93.37020255168318 168.734997442225,93.04627533597522 169.3292149552144,93.0 170.0422759708017,93.32392724975944 170.5968789830804,93.74040479128598 172.10223001614213,95.91533664558665 173.36989404424094,98.04398292355472 173.76603905274533,99.24712625559187 174.47910006856546,100.72791352393688 175.0733175817877,101.74595187447267 175.82599309808575,103.45810195998638 176.34098160942085,104.19848911874578 177.0144281242974,105.4941636431031 177.09365712595172,105.81808167687268 177.0144281242974,105.95690361814923 176.73712661815807,106.09572551568272 175.94483660068363,106.23454736926942 174.20179856242612,106.65101266661077 172.93413453456014,106.83610822763876 170.51764998142608,107.57648969144793 169.13114245072939,107.80785864286008 168.49731043702923,108.0392274725018 167.1504174072761,108.31686990702292 166.635428895941,108.59451216610614 165.36776486807503,108.96470157173462 162.04014679486863,110.21408851223532 160.2971087563783,110.67682351419353 159.22751723299734,111.13955802848795 155.7414411562495,112.48148536300869 154.3945481267292,112.80539824318839 153.91917411610484,113.0367644399521 153.28534210240468,113.49949646781897 151.58191856485792,113.91595487605082 150.19541103416122,114.47123213938903 149.95772402896546,114.7951435521245 149.95772402896546,114.98023568073404 150.11618203273974,115.3041467180592 150.7500140464399,115.90569515348761 150.9480865506921,116.27587839664193 151.10654455423355,117.4789717819076 151.30461705871858,118.17306262030615 151.7799910691101,118.95969757781131 151.898834571708,119.51496846438386 152.17613607784733,120.25532855433994 152.80996809178032,122.33758461632533 153.76071611279622,124.88255084166303 154.43416262743995,127.14987196671427 154.83030763617717,128.0290341518994 155.58298315294087,130.71278151628212 155.89989915979095,131.45312273103627 156.33565866947174,132.88753028362407 156.7714181789197,133.85922306103748 156.81103267963044,134.3682041343127 156.6921891772654,134.78464275537408 156.7714181789197,135.3398936361773 156.92987618246116,135.6175188133493 157.56370819639415,136.12649784897803 157.8013952015899,136.63547629481764 158.91060122614726,140.105768161593 159.34636073559523,141.21625576843508 159.3859752365388,141.54014745834866 159.34636073559523,141.67895810955088 159.18790273205377,141.8177687167772 159.30674623488449,142.3730107070587 159.4652042381931,142.6506314391154 159.94057824858464,142.92825199564686 160.21787975472398,143.3909525332274 160.69325376511551,144.82532110266038 161.2478567773942,147.0" stroke="#4dd2ff" stroke-linecap="round" stroke-linejoin="round" stroke-width="0.5"><title>2023-08-02 7.3km</title></polyline><polyline fill="none" points="51.66995776304975,207.0 51.50645572785288,206.57031717244536 50.934198604431,205.5677223240782 50.484568007756025,204.4696397073567 49.99406190216541,202.75089635772747 49.99406190216541,202.4166955051187 50.198439446045086,201.93926528826705 50.15756393736228,201.4618345684139 49.871435375884175,201.03214649055735 49.5035557965748,200.88891704083653 49.258302743779495,200.65020119061228 48.89042316447012,199.79082308872603 48.23641502391547,197.8810881395184 47.66415790049359,196.59201249977923 47.37802933878265,194.96872684921254 47.37802933878265,194.5390326155466 47.255402812501416,194.0615941004362 46.805772215593606,193.48866721824743 46.5605191627983,193.01122759652208 45.94738653069362,191.43567327648634 45.33425389858894,189.5259031211317 44.966374319279566,188.80973723818897 44.72112126671709,187.47289122873917 43.16785193234682,183.22360451036366 42.2277152298484,180.40663966847933 41.81896014185622,179.49947777180932 41.246703018667176,177.6374029261642 41.246703018667176,177.016709610587 41.16495200083591,176.44376118012588 41.083200983470306,175.0591328162409 40.919698948273435,174.29519811467617 40.633570386562496,173.4835160834482 40.7561969126109,173.2447857975494 41.12407649192028,173.0538014782651 42.2277152298484,172.67183259813464 43.535731511423364,172.00338628343889 45.29337838990614,171.28719270930742 51.54733123653568,168.89987262009527 55.3896290641278,167.56296787661267 55.96188618731685,167.3242344718019 56.28889025747776,167.08550094094244 56.41151678422466,166.79902053819387 56.5341433105059,166.03507191158133 56.370641275309026,165.0323873848538 55.1852515200153,161.69008960499195 54.204239308601245,159.11172875901684 53.95898625603877,158.20452423134702 53.01884955330752,156.2946140257991 52.4465924303513,154.43244382424746 52.201339377555996,153.3342372973275 51.99696183344349,153.1432445862447 51.75170878064819,153.0 51.30207818374038,153.0 50.6889455516357,153.2864891271165 49.13567621749826,153.85946683801012 47.9094109532889,154.1459554216417 47.01014975970611,154.48019187379396 45.538631442934275,154.81442807929125 44.43499270500615,155.33965590407024 42.35034175612964,156.1036225624266 40.83794793044217,156.53335324162617 39.40730512235314,157.05857907410245 36.300766453612596,158.01353357319022 33.84823592542671,158.87299090161105 33.030725749442354,159.06398119754158 31.76358497655019,159.25497141308733 28.37091774586588,160.4486584365368 26.3680178145878,161.35585847112816 24.405993391992524,161.8810787135153 23.751985251205042,162.16756222568802 23.629358724923804,162.45404555668938 23.465856689726934,163.26574734403403 23.792860759887844,164.36392980106757 24.65124644502066,166.2260591890954 25.42788111208938,168.3269139273907 25.959262726595625,169.99804142327048 26.3680178145878,171.04846126626944 27.55340756988153,174.67716562649002 28.20741571066901,176.49150691044633 28.82054834277369,177.44642045805813 29.229303430765867,177.6374029261642 29.842436062870547,177.54191170219565 31.10957683576271,177.016709610587 34.21611550473608,175.96630360156996 34.66574610141106,175.72757462362642 35.19712771568447,175.29786214636988 35.23800322460011,175.1546245632926 35.1562522072345,174.62941970507381 34.46136855753139,172.3376095640706 33.6029828726314,168.61339336432866 33.3986053285189,168.08818092491128 32.17234006430954,163.4089886850852 31.76358497655019,161.54684772054316 31.76358497655019,161.21261648109066 31.845335993915796,161.06937444585492 32.17234006430954,161.26036381616723 32.45846862625331,161.69008960499195 32.94897473161109,162.97926452633692 33.43948083743453,163.93420654788497 34.09348897822201,166.89451402591658 34.33874203101732,167.51522120571462 34.910999154206365,169.80705573549494 35.1562522072345,170.5232516490505 35.44238076847978,171.62141651811544 35.76938483887352,172.76732484836248 35.89201136538759,173.34027792690904 36.01463789190166,173.5790081625746 36.137264418182895,173.62675419452717 37.363529682392254,173.4835160834482 38.916799016762525,172.8150709659385 41.57370708906092,172.00338628343889 42.636470317840576,171.71690898950328 43.12697642343119,171.52592402644223 44.51674372283742,171.00071496260352 45.94738653069362,170.66649069602136 47.21452730358578,170.0457878325251 51.22032716637477,168.5179002387158 54.73562092310749,167.3719811627816 55.51225559040904,167.13324765724246 55.757508643204346,167.1809943683911 55.757508643204346,167.3242344718019 55.594006608007476,167.46747452981072 54.12248829123564,168.2314207413292 53.30497811525129,168.4701536684588 51.710833271732554,169.18635169477784 49.13567621749826,169.99804142327048 45.66125796921551,171.43043151454185 43.00434989691712,172.3376095640706 41.94158666813746,172.62408646557014 39.97956224554218,173.34027792690904 39.16205206955783,173.67450022153207 38.95767452567816,173.81773827242432 38.916799016762525,173.9609762778564 38.95767452567816,174.2474521532131 39.40730512235314,175.10687869231333 39.693433684064075,176.2527782091638 40.22481529833749,177.58965731671196 40.7561969126109,178.30584093055222 40.8788234393578,178.59231405920582 42.18683972093277,182.3164482524444 42.96347438823432,184.9424219141074 44.02623761724681,187.7593585626455 44.80287228431553,190.19432359101484 45.66125796921551,192.62927553715417 45.90651102201082,193.67964292599936 45.94738653069362,194.5390326155466 46.029137548292056,194.9209830655309 46.23351509240456,195.35067693714518 46.642270180396736,195.78037040118943 47.62328239181079,198.21529233650654 47.991161971120164,199.4566200534755 48.60429460299201,201.22311901993817 48.60429460299201,201.4140914688178 48.35904155019671,201.74829306072206 48.318166041281074,201.89152223887504 48.60429460299201,202.46443849912612 49.380929270293564,203.3238115318236 50.15756393736228,204.94706725885044" stroke="#4dd2ff" stroke-linecap="round" stroke-linejoin="round" stroke-width="0.5"><title>2023-07-31 6.0km</title></polyline><polyline fill="none" points="168.32588300434873,205.31099139896105 167.6247560144402,204.0826178198913 166.35396334552206,200.75575711560668 166.26632247166708,200.39747845043894 166.310142908711,200.03919952103752 166.7045268402435,199.68092032737331 166.7045268402435,199.4761892411043 166.26632247166708,198.75962975935545 165.82811810309067,198.60608116161893 164.51350499736145,195.53509901513462 163.856198444264,193.6413170163578 163.33035320183262,191.3892423286161 162.58540577511303,190.05846601564554 161.27079266915098,186.21966776787303 160.92022917419672,185.55427298735594 160.52584524266422,183.86518983653514 160.17528174747713,182.68794659202104 159.47415475780144,180.6405602422601 159.0359503889922,179.66804870363558 158.3786438361276,177.7230197863828 157.633696409408,175.82916835843935 157.50223509897478,175.06138864948298 157.1516716037877,174.1400513970002 156.8887489826884,172.34855729318224 156.18762199301273,171.01772882521618 156.09998111939058,169.68689671179163 156.27526286663488,169.22622320777737 156.53818548773415,168.97029329455108 159.0359503889922,167.997758394602 159.95617956342176,167.48589713900583 161.31461310596205,166.97403534402838 162.05956053268164,166.61573176670936 163.19889189116657,166.25742792512756 163.94383931788616,165.8479374969029 166.222502034856,164.9265827711497 167.1427312088199,164.6706505928305 169.28993261535652,163.9028532487864 172.83938800147735,162.82793492850033 173.10231062257662,162.67437497436185 173.1461310593877,162.57200164458482 172.83938800147735,162.52081497159088 171.7876975168474,162.82793492850033 170.2978026631754,163.33980109202093 169.28993261535652,163.80048017800436 168.23824213049375,164.0564128146798 165.43373417132534,165.02895560473553 164.20676193921827,165.23370120720938 163.76855757040903,165.02895560473553 163.50563494930975,164.77302348031662 163.02361014368944,163.74929363434785 162.01574009587057,160.57571740209823 161.31461310596205,159.04010855662636 159.95617956342176,155.25225264957407 159.73707737913355,154.48444041932817 159.21123213670217,153.40950125842937 159.12359126284719,153.0 159.29887301032431,153.30712597622187 159.64943650527857,154.17731518758228 159.95617956342176,155.35462752179592 160.48202480585314,156.3271877327934 161.31461310596205,158.1699280559551 161.92809922224842,160.37096983654192 162.80450795940123,162.62318831225275 163.19889189116657,164.26115882696467 163.1550714543555,165.18251481471816 162.84832839644514,165.5408194491465 162.23484228015877,165.8479374969029 157.633696409408,167.84420007455628 153.90895927604288,169.07266527594766 152.33142354898155,169.4821529861365 151.63029655907303,169.533338925743 151.4550148115959,169.4821529861365 151.27973306411877,169.1750372359529 151.06063087983057,168.30487488914514 150.40332432696596,166.61573176670936 149.5269155895803,164.00522629817715 149.26399296848103,162.77674828257295 148.2999433572404,159.96147444634698 147.77409811504185,157.24855876801303 147.55499593052082,156.6343116054777 147.37971418327652,156.53193700269912 147.2482528728433,156.53193700269912 146.9853302515112,156.8390607459005 146.9853302515112,157.35093321977183 147.81791855185293,159.29604370114976 148.5190455415286,161.3435200045933 150.40332432696596,167.84420007455628 150.92916956916451,170.24994151241845 150.84152869554237,170.4546849144681 150.05276083177887,171.22247190377675 150.49096520082094,170.96654304218828 150.49096520082094,170.4546849144681 150.31568345311098,169.78926854216843 149.8336586477235,168.40724701079307 149.35163384210318,166.61573176670936 148.3875842310954,162.26488152582897 147.6426368043758,160.11503525820444 146.9853302515112,157.55568205821328 146.85386894084513,156.6343116054777 146.9853302515112,156.3271877327934 147.2482528728433,156.27600040173274 147.55499593052082,156.42956237844191 147.68645724118687,156.58312430678052 148.1246616099961,158.1699280559551 148.5190455415286,158.7841732769739 148.6505068524275,159.34723071398912 149.00107034738176,160.16622218463453 149.22017253166996,161.13877276267158 149.74601777410135,162.52081497159088 149.92129952134565,163.80048017800436 150.49096520082094,165.74556483590277 150.66624694806524,166.76929047514568 151.19209219049662,168.81673528192914 151.36737393797375,169.12385125862784 151.58647612226196,169.2774091742467 152.50670529645868,169.12385125862784 153.8651388392318,168.71436324639944 156.27526286663488,168.15131666621892 157.23931247764267,167.74182783422293 158.816848204704,167.2811524857534 159.91235912637785,166.8204767004645 162.1910218433477,166.00149644777412 163.54945538635366,165.28488759428728 164.51350499736145,165.13132841675542 166.48542465618812,164.26115882696467 168.19442169368267,163.595733971335 171.08657052693889,162.77674828257295 172.4888245065231,162.26488152582897 172.7079266908113,162.21369482041337 172.88320843828842,162.31606822583126 172.83938800147735,162.57200164458482 172.57646538014524,162.77674828257295 170.42926397384144,163.69810708553996 167.7123968882952,164.61946414085105 164.6011458709836,165.89912381928298 161.84045834862627,166.8204767004645 157.9842599045951,168.35606095258845 156.53818548773415,168.7655492668855 156.31908330344595,169.02147928791237 156.18762199301273,169.43096704120398 156.18762199301273,169.99401213854435 156.4067241770681,170.76179985582712 156.84492854587734,171.73432922258507 157.28313291445374,172.5532998108538 157.4145942251198,173.11634128948208 157.32695335149765,173.6793821156025 156.7572876722552,174.1400513970002 156.66964679863304,174.39597858686466 156.7134672354441,174.65190564194927 157.9404394675512,178.3884252922726 159.21123213670217,181.76662380227936 160.48202480585314,185.55427298735594 160.87640873738565,186.5267727439641 162.01574009587057,190.00728223851183 162.27866271720268,191.03095675678924 162.1472014063038,191.6963440370746 162.23484228015877,192.1058126796852 162.41012402786873,192.46409745892743 162.89214883325621,192.92474892974133 164.33822324988432,197.2241415976605 164.95170936593786,198.65726403298322 164.99552980274893,199.01554398136795 164.64496630779468,199.32264086959185 164.7764276182279,199.78328583817347 164.95170936593786,200.14156495625502 165.38991373451427,200.44866113300668 165.69665679242462,200.9093050340598 166.35396334552206,202.59832893527346 166.79216771409847,203.92907090409426 167.2303720829077,205.05508049274795 167.2303720829077,205.7716306906077 168.01913994643837,207.0" stroke="#4dd2ff" stroke-linecap="round" stroke-linejoin="round" stroke-width="0.5"><title>2023-07-29 5.9km</title></polyline><polyline fill="none" points="52.29285213374533,265.98017230583355 51.87926084687933,264.8529919536086 51.87926084687933,264.316238528525 52.10903378413059,263.6184582307469 52.063079196959734,263.35008093871875 51.695442497497424,262.65229931799695 51.09803286101669,262.3302459398401 50.82230533659458,262.00819235824747 50.684441574150696,261.68613857321907 50.50062322453596,261.04203039221466 50.3627594623249,259.75381158769596 50.08703193766996,258.46558952663327 49.30580395180732,256.69427887472557 48.57053055311553,254.2251689041732 48.06503009144217,253.58105129183969 47.78930256702006,253.04428599309176 47.191892930539325,251.32663323695306 46.13493742002174,248.69646623241715 45.90516448277049,247.4082162154955 45.123936496907845,244.34860937099438 44.940118147293106,242.899315505696 44.48057227302343,241.77208409371087 43.331707587698475,239.62496974301757 42.780252538621426,238.01462804194307 42.64238877641037,237.1020988188102 42.22879748977721,235.9211762212799 42.04497913992964,235.16967859782744 41.447569503681734,233.7203586222604 41.355660328874364,233.23725104756886 41.49352409085259,232.16367701924173 41.355660328874364,231.1437795968377 41.40161491627805,230.9827429751167 41.539478678489104,230.87538519885857 42.872161713428795,230.60699065966764 47.743347979849204,228.72822492587147 49.76534982584417,228.19143344374606 51.603533322457224,227.38624516013078 53.90126269310713,226.15162065328332 54.86630902905017,225.88322362559848 56.015173714607954,225.72218534105923 56.79640170070343,225.34642914583674 57.85335721098818,225.13171119539766 58.40481226006523,224.9169931547367 58.5886306099128,224.70227502333 58.54267602227628,224.64859547646483 58.31290308549069,224.5949159237789 56.75044711329974,224.9169931547367 52.29285213374533,226.52737625467125 50.3627594623249,227.0104901921004 49.443667714018375,227.439924418577 48.57053055311553,227.6546413959004 47.191892930539325,228.29879178549163 46.22684659482911,228.51350840099622 44.71034521004185,229.1039786268957 43.607435112120584,229.4260530071915 42.32070666458458,230.07020115706837 40.52847775537521,230.4996328043635 37.17379287374206,231.51953151630005 36.484474062453955,231.6805679682875 36.11683736345731,231.6268891565851 35.93301901360974,231.51953151630005 35.059881852706894,228.5671875406406 34.416517628822476,227.22520735056605 33.7271988177672,225.18539069150575 33.40551670570858,223.68236266396707 32.808107069227844,221.6425318196998 32.30260660778731,219.60269280779175 31.613287796499208,217.45548502419842 31.705196971306577,216.54291897558141 31.797106146113947,217.29444407549454 31.889015320921317,219.06589171028463 32.900016244268045,224.27283848938532 33.267652943497524,225.56114700547187 34.14079010440037,228.24511261750013 34.416517628822476,229.53341108874884 34.64629056607373,231.03642185463104 34.784154328284785,232.86150039493805 34.46247221645899,234.04243008425692 33.77315340493806,234.52553689549677 30.234650173923,235.65278434025822 28.99387631402351,235.97485458065057 28.35051208990626,236.08221128222067 28.074784565716982,235.9211762212799 27.753102453658357,235.65278434025822 26.74210153054446,233.93507295288146 25.271554733160883,230.23123806720832 24.30650839745067,228.406150104478 23.111689124489203,225.13171119539766 22.60618866304867,224.21915889711818 22.42237031343393,223.4676440123585 22.100688201375306,222.55508873338113 21.733051502145827,221.10573287162697 21.411369390087202,220.13949333963683 21.503278565127403,219.71005295944633 21.68709691450931,219.49533263361081 22.192597376415506,219.1732519750949 23.709098760969937,218.9585314230062 24.21459922241047,218.7438107804046 24.85796344652772,218.26068900362588 25.225600145524368,218.1533285465557 26.052782719256356,218.1533285465557 27.845011628232896,218.42172964673955 30.096786411711946,217.99228781845886 30.96992357284762,217.50916532916017 32.808107069227844,216.00611465406837 33.81910799257457,215.41562924697064 37.26570204878226,214.18097572948318 40.43656858056784,213.53680748917395 41.95306996512227,213.05368077429011 42.412615839159116,213.0 42.780252538621426,213.26840381522197 43.515525937313214,214.4493789227563 44.98607273469679,216.4892385689309 45.07798190950416,217.18708341487218 45.81325530796312,219.1732519750949 46.1808920071926,220.83733318536542 46.87021081871353,222.93084698735038 47.32975669298321,224.004440471821 47.92716632923111,225.13171119539766 48.47862137830816,226.52737625467125 48.66243972769007,226.79577294323826 48.892212665174156,226.95681088842684 49.30580395180732,227.0104901921004 50.17894111271016,226.90313157893252 52.20094295893796,226.3663381737424 53.395762231666595,225.88322362559848 54.86630902905017,225.6148264564108 55.87730995216407,225.34642914583674 57.20999298733659,224.75595456466544 58.22099391021766,224.54123636556324 58.5886306099128,224.64859547646483 58.49672143510543,224.86331363028148 58.03717556083575,225.07803169370163 55.87730995216407,225.66850590147078 53.579580581514165,226.42001753981458 52.52262507076375,226.58105560357217 50.684441574150696,227.439924418577 48.11098467907868,228.29879178549163 45.72134613338858,228.94294136058306 43.83720804913901,229.85548519762233 42.412615839159116,230.2849170260597 41.079932804219425,230.60699065966764 39.60938600706868,231.3584950133809 39.379613069817424,231.6268891565851 39.287703895010054,231.8952831585775 39.33365848264657,232.27103452384472 39.471522244857624,232.5931069018552 40.20679564331658,233.34460832591867 40.57443234254606,234.04243008425692 40.75825069239363,235.4380707333912 41.355660328874364,236.7263510164339 42.22879748977721,239.3029018099769 42.688343363814056,240.48381656903075 43.239798412891105,242.09415046597132 43.6533896997571,243.81183434609557 44.29675392340869,245.3684803606011 45.16989108431153,248.0523416310316 46.2728011822328,251.64869356970303 46.732347056269646,252.88325629307656 47.14593834313564,254.60090380196925 47.0540291685611,255.0303147743689 47.14593834313564,255.4597253850079 47.375711280386895,256.15751685533905 47.83525715442374,256.3722217309987 47.9731209166348,256.5332503282698 48.11098467907868,257.0700119519024 49.90321358805522,261.7398142181337 50.04107735049911,262.43759708851576 49.76534982584417,263.1353790034191 49.995122763095424,263.9405107945786 50.13298652530648,264.15521239081863 50.82230533659458,264.7993166364613 51.052078273380175,265.22871901473263 51.695442497497424,267.0" stroke="#4dd2ff" stroke-linecap="round" stroke-linejoin="round" stroke-width="0.5"><title>2023-07-26 6.1km</title></polyline><polyline fill="none" points="170.95155015098862,263.8022177545063 170.40397264342755,262.38604951347224 169.97373317321762,260.9698766483634 169.62171906116419,259.46233271082747 169.15236691199243,257.81773334823083 169.0741415536031,257.22384871260147 168.1745499339886,255.57924086178537 167.31407099380158,252.9295817624661 167.2358456356451,252.56411027151626 167.27495831460692,252.10727047472028 167.3531836727634,251.83316636574455 167.31407099380158,251.51337801956106 167.04028223990463,251.0108529989957 166.3753666949924,250.64537989118253 166.29714133683592,250.4626432217192 165.82778918743134,248.6352722926531 164.81085953046568,246.21399395170738 164.7326341723092,245.20893104744027 164.81085953046568,244.79776827889145 164.77174685150385,244.56934435013682 164.4979580976069,244.06681128338096 163.911267911084,243.51859272818547 163.63747915741988,242.9703734802315 162.89433825411834,240.91454512730706 162.03385931369849,238.0820545440365 161.01692965673283,235.56934579912922 160.03911267919466,232.371331794071 159.68709856714122,231.64035385282477 159.56976052979007,231.09211958837113 159.2568590969313,230.1783942739421 158.9439576640725,228.8991755991883 158.74839426856488,227.8940725644934 158.59194355201907,227.30014694898273 158.43549283547327,226.34072692861082 158.08347872341983,225.28993113711476 158.00525336526334,224.60462816231302 158.08347872341983,224.2848197367275 158.23992943996564,224.1477589107235 159.88266196264885,223.50814114967943 160.70402822387405,222.9598966035992 161.60361984348856,222.64008696496603 162.6987748586107,222.00046698006918 165.28021167987026,221.31515880624647 166.4535920531489,220.76691148753162 168.37011332949623,220.3100381924305 168.72212744154967,220.127288739488 169.19147959095426,219.80747701175278 170.20840924791992,219.5333524857706 171.3426769420039,218.98510291421553 172.8289587481413,218.57391528051812 173.14186018123291,218.34547753783409 173.0636348228436,218.2541024069069 172.75073338998482,218.299789974757 171.96847980772145,218.52822774159722 167.11850759806111,220.40141288982704 165.90601454582065,220.76691148753162 161.99474663450383,222.22890279715648 160.977816977771,222.45733849413227 158.70928158937022,223.50814114967943 157.65323925344273,223.7365761725523 156.71453495463356,224.10207195905969 155.2673658276908,224.4675674374157 153.85930937970988,224.78737572825048 153.4681825884618,224.78737572825048 153.3117318721488,224.65031506094965 152.88149240170605,222.64008696496603 152.56859096884727,221.7720310424629 151.3560979166068,217.06622395434533 151.04319648374803,216.2895324374258 150.65206969249994,214.27926558000036 150.3000555804465,213.63963326183148 150.18271754332818,213.59394520302885 149.8698161104694,213.63963326183148 149.67425271472894,213.73100936505944 149.67425271472894,213.86807348375442 149.8698161104694,214.91889695468126 150.6911823716946,217.56878831237555 150.96497112535872,218.71097786835162 151.62988667050377,221.04103523358935 152.25568953622133,223.55382816394558 152.68592900619842,226.2493534825917 152.52947828988545,226.52347376284888 152.37302757357247,226.5691604592721 150.88674576720223,227.16308707604185 147.9141821549274,227.98544566394412 147.0145905353129,228.442310872284 146.85813981876709,228.71642976618023 146.89725249796174,228.76211623166455 147.24926661001518,228.5336838560761 150.18271754332818,227.5285799744015 152.25568953622133,226.7062205199618 152.52947828988545,226.52347376284888 152.68592900619842,226.15798001730582 152.68592900619842,225.5183652214182 152.21657685679384,223.6908891776693 152.13835149887018,222.9142095267598 150.84763308800757,218.1170396747766 150.73029505065642,217.2946623711032 149.9480414686259,214.05082557472633 149.75247807288542,213.1370643498085 149.75247807288542,213.0 150.06537950597703,213.04568812137586 150.26094290148467,213.2284405589453 150.57384433434345,214.0051375591429 151.16053452086635,216.60934675997123 151.47343595395796,218.1627272569458 151.70811202866025,218.93941541851382 151.78633738681674,219.6247273469926 152.02101346151903,220.40141288982704 153.27261919295415,224.60462816231302 153.42906990949996,224.83306260764948 153.58552062581293,224.92443635204108 153.93753473786637,224.92443635204108 155.03268975298852,224.60462816231302 156.9100983501412,223.82795014805743 159.1004083803855,223.1883319153858 160.977816977771,222.41165136444033 162.07297199289314,222.09184132132214 163.1681270080153,221.68065663371817 164.22416934394278,221.17809704170213 165.3975497172214,220.94966067082714 167.86164850136265,219.99022659935872 169.42615566565655,219.3962901579216 172.47694463608786,218.57391528051812 172.75073338998482,218.57391528051812 172.8289587481413,218.6196028146951 172.8289587481413,218.71097786835162 172.711620711023,218.8937279181555 172.28138124058023,219.07647789095063 169.81728245667182,219.80747701175278 168.13543725479394,220.44710023148218 164.4979580976069,221.63496942206984 160.5084648283664,223.09695780507172 159.45242249243893,223.59951517326408 156.94921102933586,224.37619359660312 156.40163352200761,224.65031506094965 156.24518280522898,224.83306260764948 156.28429548442364,225.01581007710774 156.40163352200761,225.28993113711476 156.9100983501412,225.88385950608063 157.066549066687,226.2493534825917 157.49678853689693,227.93975911659072 157.96614068606868,228.8991755991883 158.90484498487785,232.05152909632307 160.0,235.24954545981018 160.7431409030687,237.71657054050593 161.52539448533207,239.7267287480645 162.62054950045422,242.92468851152807 162.8552255751565,243.9754415723146 162.8552255751565,244.61502914546872 163.1681270080153,245.39166993054096 163.5592537992634,245.71146279069944 164.0286059482023,246.6708399564377 165.43666239641607,250.55401156609878 165.55400043376721,251.0108529989957 165.28021167987026,251.37632579889032 165.24109900090843,251.51337801956106 165.31932435906492,251.7874823306338 165.51488775457256,252.19863847258966 166.02335258293897,252.60979422472883 166.17980329948477,252.88389784301398 167.3531836727634,255.99039340909803 167.5096343893092,256.5842797337973 167.62697242666036,257.3608990852663 168.3310006505344,258.6400338090607 169.58260638220236,262.6144640586281 170.87332479283214,266.2690804224403 170.9124374720268,266.5431754082674 170.71687407628633,266.86295267305104 170.755986755481,267.0 171.02977550937794,267.0 171.38178962119855,266.86295267305104 172.0075924869161,266.45181043221965" stroke="#4dd2ff" stroke-linecap="round" stroke-linejoin="round" stroke-width="0.5"><title>2023-07-23 5.7km</title></polyline></svg>