<?xml version="1.0" encoding="utf-8" ?>
<svg baseProfile="full" height="300mm" version="1.1" viewBox="0,0,200,300" width="200mm" xmlns="http://www.w3.org/2000/svg" xmlns:ev="http://www.w3.org/2001/xml-events" xmlns:xlink="http://www.w3.org/1999/xlink"><defs /><rect fill="#222222" height="300" width="200" x="0" y="0" /><text fill="#FFFFFF" style="font-size:12px; font-family:Arial; font-weight:bold;" x="10" y="20">Over 3km Runs</text><text fill="#FFFFFF" style="font-size:4px; font-family:Arial" x="10" y="280">ATHLETE</text><text fill="#FFFFFF" style="font-size:9px; font-family:Arial" x="10" y="290">Melt</text><text fill="#FFFFFF" style="font-size:4px; font-family:Arial" x="120" y="280">STATISTICS</text><text fill="#FFFFFF" style="font-size:3px; font-family:Arial" x="120" y="285">Number: 7</text><text fill="#FFFFFF" style="font-size:3px; font-family:Arial" x="120" y="290">Weekly: 3.5</text><text fill="#FFFFFF" style="font-size:3px; font-family:Arial" x="141" y="285">Total: 22.5 km</text><text fill="#FFFFFF" style="font-size:3px; font-family:Arial" x="141" y="290">Avg: 3.2 km</text><text fill="#FFFFFF" style="font-size:3px; font-family:Arial" x="167" y="285">Min: 3.1 km</text><text fill="#FFFFFF" style="font-size:3px; font-family:Arial" x="167" y="290">Max: 3.8 km</text><polyline fill="none" points="60.13960404112004,80.27925880555995 58.800270767183974,81.4380131457001 58.056196726625785,81.72770134912571 56.568048644578084,82.77057761885226 55.72476473147981,83.17614007863449 54.931085754651576,83.87138931429945 54.03819690528326,84.3928256642539 52.2028142712079,85.84125737624709 51.65715997456573,86.18888041970786 51.012295805616304,85.03013608738547 50.16901189251803,82.77057761885226 50.02019708463922,81.95945180230774 49.57375266007148,81.20626247290056 49.32572797941975,79.75781855615787 48.53204900282435,76.860919280909 48.035999642219394,75.41246392211178 48.035999642219394,74.89101905922871 47.83757989760488,74.7172039950965 47.490345345344394,73.79018939216621 46.64706143224612,71.99409415287664 46.10140713560395,70.37180954089854 45.456542966654524,69.03921503038146 45.3573330945801,68.34394704771694 45.80377751914784,67.88043457083404 45.20851828670129,66.54783402441535 44.61325905378908,66.60577324562473 44.11720969295129,65.09935150755337 44.06760475714691,64.34613909141626 43.3731356523931,62.89765077678021 42.72827148321085,61.44915864727227 42.23222212283872,59.24744330497924 42.18261718656868,58.668043065757956 41.041703657247126,56.98777892056387 40.69446910475381,55.59721160819754 39.85118519165553,53.337532227276824 39.702370383776724,52.52636300533777 39.355135831050575,51.94695568608586 39.40474076708779,51.30960692948429 39.007901278557256,50.498434716893826 38.85908647044562,49.8031432966236 38.51185191818513,49.1078509974177 38.36303710984066,48.4125578191597 37.96619762154296,47.775204966950696 37.61896306881681,46.964027541398536 36.6268643476069,44.298721862141974 36.32923473138362,43.19783096440369 35.93239524285309,41.51751955598593 35.436345882480964,40.06897111795843 35.03950639395043,38.56247669499135 35.13871626602486,38.09893911931431 34.146617544814944,36.070957631687634 33.89859286416322,35.433590476750396 33.94819780020043,34.79622258327436 33.055308951297775,33.0 30.773481892654672,33.34765644161962 29.533358490793034,33.75325534597505 28.243630153359845,34.390624448191375 27.40034624026157,35.31770546018379 26.953901815693825,35.31770546018379 26.8546919436194,35.78124538017437 26.408247519051656,36.01301519363187 23.779185907682404,37.05597814550856 21.150124296545982,37.69334342004731 20.505260127596557,38.09893911931431 20.108420639066026,38.73630318505457 20.257235447410494,40.300739124417305 19.860395958879963,40.93810063850833 20.802889743819833,42.792239025526214 22.24143288983032,43.02400588442106 24.62246982078068,42.38664678751957 26.606667263200507,41.69134511210723 29.533358490793034,40.41662309109233 30.17822265974246,40.24279713194119 33.10491388756782,39.08395600068616 33.55135831190273,39.19984022382414 34.49385209707543,41.227810173644684 34.64266690518707,41.981054250500165 35.13871626602486,43.3716559894965 35.73397549870424,44.6463711616816 35.88279030704871,45.34166910103522 37.02370383613743,48.23873438715236 37.122913708444685,48.93402778520249 37.42054332490079,49.62932030425873 38.065407493384555,51.77313337114174 39.702370383776724,56.64013742207317 39.900790127692744,57.39336039108457 39.80158025585115,58.03070209780708 39.900790127692744,58.436282799288165 40.00000000023283,58.61010300827911 39.95039506396279,58.95774326159153 40.14881480811164,59.53714319563005 40.843283913098276,60.00066270341631 40.992098721442744,60.63800138863735 41.53775301785208,62.08649565419182 41.934592506382614,62.83971116470639 42.62906161136925,64.75171513610985 43.17471590801142,65.9684414753574 43.3731356523931,66.66371246083872 42.678666547406465,66.89546926086769 43.12511097197421,68.22806896496331 43.76997514045797,68.45982510584872 44.365234373603016,69.85035989951575 44.81167879793793,70.42974835948553 45.95259232725948,73.44255851313937 45.95259232725948,74.1378200512845 45.80377751914784,74.60132725519361 46.547851560171694,75.52834049117519 46.944691048702225,76.74504299252294 47.2423206649255,77.44030035659671 48.581653938861564,81.20626247290056 48.68086381070316,81.90151419816539 49.32572797941975,83.34995247004554 49.97059214836918,85.60950855875853 50.21861682855524,86.4785661213682 49.87138227629475,86.65237746905768 49.87138227629475,87.0 50.41703657293692,86.94206292682793 51.06190074165352,86.65237746905768 51.557950102491304,86.24681757221697 52.103604399133474,86.0150689255097 53.29412286449224,84.9721988067613 53.88938209717162,84.62457499443553 54.83187588234432,83.81345191167202 55.476740051293746,83.6975770877907 56.12160422001034,83.46582736703567" stroke="#4dd2ff" stroke-linecap="round" stroke-linejoin="round" stroke-width="0.5"><title>2023-07-15 3.1km</title></polyline><polyline fill="none" points="163.98636414879002,71.1285268595675 163.384648805717,69.19580730557209 163.28436291520484,68.25872873980552 163.48493469599634,67.61448630952509 163.33450586046092,67.02881072548917 163.0837911341805,66.67740507883718 162.43193284538575,66.32599921000656 162.1310751736164,65.6817545404192 161.47921688528731,63.631880170840304 160.4763579799328,61.11345274205087 160.07521441788413,59.356403594254516 160.22564325365238,58.770719310909044 160.12535736290738,58.47787693812279 159.3230702385772,57.18936866434524 158.01935366145335,54.143791783368215 155.6626352337189,47.349752466136124 154.2084898208268,42.72272988723125 153.25577386072837,40.379918958758935 152.85463029844686,38.564233698300086 152.7543444079347,37.217108544078656 152.60391557216644,36.8071132840123 151.90191433834843,35.40141295385547 151.2500560497865,34.8157034337637 151.04948426876217,34.52284844231326 150.5480548159685,33.29285579378484 150.19705419894308,33.05857117107371 149.4950529653579,33.0 146.4363333035726,33.8199958333862 146.1856185772922,33.99570906901499 145.68418912426569,34.52284844231326 145.33318850770593,34.75713244784856 144.12975782109424,34.99141635443084 144.38047254737467,35.04998731584055 144.28018665662967,35.284271099139005 144.2300437116064,35.284271099139005 144.33032960211858,35.16712921985891 144.17990076635033,35.284271099139005 144.17990076635033,35.16712921985891 144.53090138314292,35.04998731584055 144.63118727388792,35.225700162525754 144.53090138314292,35.40141295385547 144.17990076635033,35.69426748238038 142.7758982987143,36.27997607685393 138.86474856734276,37.62710350181442 137.9621755525004,37.97852751065511 137.61117493570782,38.27138068177737 137.51088904519565,38.44709251029417 137.76160377147608,39.09136873984244 138.11260438826866,41.082763274083845 138.413462060038,41.90274718531873 138.86474856734276,42.371308877307456 139.56674980116077,42.488449238589965 140.31889398023486,42.371308877307456 142.52518357220106,41.43418509850744 143.77875720430166,40.96562261652434 145.23290261696093,40.73134122748161 146.38619035854936,40.32134855911136 147.7901928257197,39.96992603124818 150.39762597996742,39.14993926900206 151.19991310453042,39.032798204396386 151.50077077629976,39.09136873984244 151.651199612068,39.26708030916052 152.0022002288606,39.96992603124818 152.60391557216644,41.60989592736587 153.10534502472728,42.66415973438416 153.4563456417527,43.77699158410542 153.60677447752096,44.71411141374847 154.15834687557071,45.70979950216133 154.81020516413264,47.40832212549867 155.76292112423107,50.68821319547715 156.61535119381733,53.32382592646172 157.06663770135492,54.202360726951156 158.06949660694227,57.77505461353576 157.81878188042901,58.41930844495073 157.8689248256851,58.887856217101216 158.1697824972216,59.29783519374905 158.8717837310396,59.883518921618816 159.92478558188304,62.519088062341325 160.42621503444389,63.92471982934512 160.67692976118997,64.8032378788339 161.02793037774973,65.62318680610042 161.32878804951906,66.50170217221603 161.32878804951906,66.85310792987002 161.12821626849473,67.3216485947487 161.2285021590069,67.67305383412167 161.6296457212884,68.4344310911838 162.1310751736164,68.90297042345628 162.33164695487358,69.19580730557209 163.23421996994875,72.24130173720187 163.88607825827785,73.76404269761406 163.98636414879002,74.75967876327923 164.3875077108387,75.52104631625116 164.8889371638652,76.106712955283 165.13965189014561,77.10234482598025 166.89465497480705,81.90477939887205 168.34880038769916,86.59004144894425 168.29865744221024,86.76573800796177 167.94765682565048,87.0 168.44908627821133,86.94143451127457 169.30151634803042,86.4729103789432 170.95623354171403,85.36016398208449 172.81152251712047,83.954586403328 173.86452436749823,83.54462560702814 175.11809799959883,82.60757122316863 177.37453053658828,81.02628836937947 178.5779612234328,79.9720973020303 179.73124896455556,79.09360321919667 180.03210663609207,78.97647056978894 180.58367903437465,79.03503689757781 181.486252049217,78.74220519734081 181.88739561126567,78.74220519734081 182.08796739252284,78.8593378958758 182.4389680090826,79.56213356938679 182.48911095457152,79.79639859637246 182.4389680090826,79.9720973020303 181.28568026795983,80.79202386038378 178.77853300445713,82.13904343883041 179.53067718353122,82.84183496708283 179.48053423827514,83.07609861233504 179.58082012855448,83.3103621591581 179.02924773073755,82.60757122316863 179.38024834776297,83.54462560702814 179.43039129278623,83.3103621591581 179.27996245701797,83.19323039799929 179.22981951199472,82.95896680210717 179.33010540227406,82.19760943355504" stroke="#4dd2ff" stroke-linecap="round" stroke-linejoin="round" stroke-width="0.5"><title>2023-07-14 3.8km</title></polyline><polyline fill="none" points="60.8812749220524,138.99603784945793 60.13640185678378,139.40203873050632 57.057593188248575,141.7800378795364 55.71682167123072,142.99803346669069 54.77331578894518,143.40403139719274 52.04211455048062,145.55001548543805 50.85031764651649,146.24600852892036 50.453052011784166,146.01401094539324 49.80749535560608,144.91202108940342 49.41022972087376,143.57803041866282 49.06262229057029,143.05603318940848 48.963305881945416,142.53403546538902 48.26809102133848,140.50403961288976 48.0694582038559,139.75003924733028 47.57287616073154,138.3000356426346 47.423901547677815,137.60403255623532 46.8776613001246,136.21202374406857 46.7783448912669,135.51601801847573 46.381079256534576,134.76201082294574 46.331421052338555,133.892001237371 45.636206191498786,132.78998712264 45.04030773974955,131.45596708520316 44.891333126462996,130.70195433014305 44.44440928730182,129.48393154481892 44.34509287890978,128.84591853432357 44.3947510831058,128.14990349806612 44.59338390058838,127.74389432056341 44.34509287890978,127.04787789128022 43.84851083555259,126.64186790108215 43.302270587999374,126.29385910002748 42.45808111433871,123.68378607992781 42.11047368403524,123.04576634895056 41.36560061876662,120.84169249841943 41.067651392892,119.50764351326507 41.3159424145706,118.81161667272681 41.01799318846315,118.28959596488858 40.27312012342736,117.41956035216572 39.279956036712974,115.27346662903437 38.584741176106036,113.01135878433706 38.08815913298167,111.7932968645473 37.93918451992795,111.03925718285609 35.605248916195706,104.07884212769568 35.40661609871313,103.32479188073194 34.71140123810619,101.41065969219198 34.36379380780272,100.83061832131352 34.3141356036067,100.13456786953611 33.86721176467836,98.68445993505884 33.91686996887438,98.04641123395413 33.767895355820656,97.40836179349571 33.12233869964257,96.07425602816511 31.880883591249585,95.43620430195006 32.12917461292818,93.98608399246586 31.781567182624713,93.0 30.98703591316007,93.058004989638 27.510961610125378,94.04408887814498 25.921899071196094,95.66822319704806 25.37565882341005,96.01625135639915 23.93557089800015,96.59629779972602 19.86359814251773,97.93040229973849 19.11872507771477,100.01855937537039 19.267699690535665,100.30858056497527 19.168383281910792,100.88862248597434 19.218041486106813,101.64267606951762 19.46633250778541,102.51273661357118 20.111889164196327,102.80275648931274 20.90642043342814,102.86076044617221 23.786596284946427,101.75868422153872 26.17019009287469,101.1786432171939 30.142846439499408,99.84454658813775 31.582934365374967,99.14849488972686 32.32780743017793,98.97448182763765 32.675414860481396,99.43851653760066 33.07268049521372,100.07656362542184 33.370629721088335,100.7726141505409 33.51960433414206,101.46866379585117 34.115502786356956,102.74475252628326 34.214819194749,103.49880356783979 34.512768420856446,104.13684595015366 34.71140123810619,104.77488759323023 35.10866687283851,105.35492480848916 35.257641485892236,106.1089722752804 35.7542235290166,107.44305372488452 36.350121981231496,109.53117472142912 37.094995046267286,111.50328172469744 37.24396965932101,112.19931780395564 38.08815913298167,114.40342625009362 38.2371337460354,115.15746132459026 39.13098142389208,117.82557714253198 38.68405758496374,118.17359129607212 38.882690402213484,118.9276212073164 39.13098142389208,119.39163910102798 39.5282470586244,119.62364790117135 39.82619628449902,120.02966306626331 40.769702167017385,122.11773632938275 41.3159424145706,123.50978077208856 41.564233436016366,124.72781677270541 41.96149907121435,125.36583455483196 42.45808111433871,126.6998693466885 41.96149907121435,127.10587929392932 42.16013188823126,127.85989697329933 42.40842290990986,128.3819086078438 43.004321361891925,128.729916089389 43.699536222498864,130.7599553479813 44.29543467448093,132.15197794279084 44.494067491963506,132.78998712264 44.94099133065902,133.48599629377713 44.94099133065902,134.2400052366429 45.238940556766465,135.28401591436705 45.586547987302765,135.57401852909243 46.13278823485598,137.08202966401586 47.27492693462409,139.9820394697599 47.473559751873836,140.73603951768018 47.72185077355243,141.43203864549287 47.870825386373326,142.1280368937296 49.261255108052865,146.53600537066814 48.71501486026682,146.82600205973722 49.01296408637427,147.0 50.30407739896327,146.30400790955173 51.495874302927405,145.55001548543805 53.382886067731306,144.0420275402139 54.127759132767096,143.81002902821638" stroke="#4dd2ff" stroke-linecap="round" stroke-linejoin="round" stroke-width="0.5"><title>2023-07-14 3.2km</title></polyline><polyline fill="none" points="179.91560638998635,140.90442079264903 179.32478493941016,141.0769381209975 178.43855276377872,141.53698406374315 177.20767474221066,142.45707478601253 176.46914792922325,142.85961398942163 175.73062111623585,143.03213070018683 175.2382699076552,143.66469150595367 174.4997430946678,144.12473526841495 173.81045140256174,144.69978942594025 173.21962995221838,144.98731627763482 172.62880850187503,145.67738010408357 171.79181144712493,145.96490644081496 171.25022511766292,145.27484297810588 170.85634415061213,144.52727324236184 170.6101685462054,143.7797024830361 170.31475782115012,142.3995691614109 169.87164173345082,141.59448977926513 169.77317149168812,140.90442079264903 169.42852564551868,140.27185678866226 169.42852564551868,139.69679796713172 168.7392339531798,138.31665432441514 168.59152859076858,137.569075061474 167.853001778014,135.55635657266248 167.80376665689982,134.6362542208517 167.5575910527259,134.0036829544115 166.8190642397385,133.02607137378072 166.3267130306922,131.70341762539465 165.8835969432257,130.20823996444233 165.243540372001,128.94308643753175 165.29277549288236,128.19549433892826 165.58818621817045,127.79294432338793 165.3420106137637,126.98784340190468 164.2096028337255,126.41277058806736 164.01266235020012,125.4926528261276 163.52031114161946,124.0549657184747 163.1264301748015,122.73229023558088 162.53560872445814,121.35210370627465 162.3879033618141,120.719517047517 162.43713848246261,120.14443763071904 162.14172775740735,119.45434153097449 162.24019799940288,119.16680123202968 162.09249263675883,118.64922831213335 161.8463170323521,118.24667125742417 161.30473070265725,117.8441139056813 160.61543901078403,115.83132269512862 160.36926340637729,115.37125509069301 159.9753824393265,114.10606717935298 159.7784419558011,112.84087633556919 159.4337961098645,112.3232974181883 159.28609074745327,111.69070029701106 158.89220978040248,110.42550385539653 157.90750736324117,107.72257436084328 157.56286151707172,106.34234988258686 156.77509958320297,103.75441957951989 155.74116204492748,101.28149693773594 155.5442215616349,100.64888702059397 155.44575131963938,99.90125617326703 155.15034059458412,99.1536243018927 154.85492986929603,98.63603240653174 154.90416499017738,98.06092972517945 153.82099233125336,95.76051293965429 153.77175721037202,94.43776889814762 152.93476015562192,93.0 151.60541189229116,93.51759723958094 149.68524217838421,93.92017253109952 148.45436415681615,94.55279024638003 147.96201294800267,95.30042841925751 147.1250158934854,95.53047072782647 146.8296051681973,95.99055505444994 143.3339115867857,97.5433367936057 140.08439361001365,98.69354264147114 140.28133409307338,99.78623595210956 140.23209897219203,101.45402678789105 140.57674481836148,102.14414564339677 140.72445018100552,103.06430275994353 141.46297699399292,103.35185154073406 143.53085207031108,102.37418506795075 145.05714081716724,101.85659622622188 146.38648908073083,101.28149693773594 147.1250158934854,101.33900689380243 148.55283439881168,100.87892707530409 149.48830169509165,100.36133681592764 150.86688507930376,100.07378645980498 151.40847140876576,99.78623595210956 152.88552503474057,99.26864465663675 153.47634648508392,99.26864465663675 154.21487329807132,100.53386695688823 154.4118137813639,101.22398697567405 155.34728107810952,103.1793222904671 155.69192692404613,104.55955476639792 155.9873376491014,105.19216015137499 156.57815909967758,107.08997190813534 156.9228049456142,107.72257436084328 157.56286151707172,109.73539546941174 157.95674248388968,111.05810244270833 158.64603417599574,113.0134025325533 158.99068002216518,114.33610156306531 159.483031230513,115.54378048784565 159.8769121975638,116.69394840847235 159.92614731844515,117.32653973181732 160.2707931646146,117.95913032226963 160.0738526810892,118.24667125742417 160.02461756044067,118.70673643861664 160.36926340637729,119.33932542958064 161.05855509848334,120.02942167466972 161.3539658235386,120.719517047517 161.69861166994087,121.98468963202322 162.58484384510666,123.88244301103987 162.88025457039475,125.26262314332416 163.4218409000896,126.47027789667482 163.1264301748015,127.62042279721936 163.4218409000896,128.31050857465016 164.25883795460686,129.23062158736866 164.75118916342035,130.61078819906106 164.8988945260644,131.18585659074597 165.3420106137637,131.8759378612158 165.83436182234436,133.31360437342664 166.03130230586976,134.0036829544115 165.785126701463,134.57874777232064 166.52365351468325,135.67136925761588 167.11447496479377,137.05151958734496 167.80376665689982,139.12173853995046 168.09917738218792,139.69679796713172 168.19764762395062,140.32936263736337 168.4930583492387,140.96192657476058 168.93617443693802,142.34206353046466 169.52699588728137,144.2972515792353 169.67470124992542,144.92981091950787 170.01934709586203,145.61987481848337 170.11781733762473,146.36744305799948 169.67470124992542,146.82748454314424 170.21628757938743,147.0 171.4471656009555,146.30993784521706 172.67804362252355,145.4473589254776 173.90892164432444,144.23974614823237 175.18903478677385,143.49217499542283 175.82909135799855,143.31965843011858" stroke="#4dd2ff" stroke-linecap="round" stroke-linejoin="round" stroke-width="0.5"><title>2023-07-13 3.1km</title></polyline><polyline fill="none" points="61.429330121027306,199.17843992169946 61.03249067417346,199.58400502998848 60.73486108938232,199.69988072040724 60.5364413659554,199.98956983938115 59.4451328876894,200.22132102469914 56.76646662247367,201.66976372076897 54.03819542657584,203.29201501247007 52.5996524321381,204.3348883164581 51.40913409227505,205.43569688138086 50.764269991312176,205.8412573763053 50.36743054469116,205.78332018112997 49.970591097837314,205.26188514922978 49.22651713551022,203.29201501247007 48.780072757741436,201.72770134918392 46.99429524759762,196.68710483930772 46.299826215952635,193.906066303025 46.10140649275854,193.5004970083828 45.65496211498976,193.03698887687642 45.30772759928368,192.4576031633187 44.613258567638695,191.18295244517503 44.41483884421177,190.31387071649078 44.16681419010274,189.67654324276373 44.1172092591878,188.8653981172829 44.26602405146696,188.28600800951244 44.26602405146696,187.76455639093183 44.017999397590756,186.77959087333875 43.42274022754282,186.77959087333875 43.02590078068897,186.0843200343079 42.083407094702125,183.36116745282197 41.68656764808111,182.60795265622437 41.14091340894811,181.15945976402145 41.04170354758389,180.40624195249984 40.74407396232709,179.76890299853403 40.84328382392414,179.18950330879306 41.14091340894811,178.61010300857015 41.04170354758389,178.32040262955707 40.04960493044928,177.62512109737145 39.75197534565814,176.9298386865412 39.60316055291332,176.29249570413958 38.56145700532943,173.2795916085015 38.01580276619643,172.2946001512464 37.12291401159018,168.87608670257032 36.82528442656621,168.18079323135316 36.32923511788249,166.67432102822931 35.386741432128474,164.41460498666856 35.18832170870155,163.60342260450125 34.84108719276264,162.8501807496068 34.493852677056566,161.40163582167588 33.99780336860567,160.76427484455053 33.898593506775796,160.12691312894458 33.700173783814535,159.37366651260527 33.45214912923984,158.85218748165062 33.30333433696069,157.46157431480242 32.90649489033967,156.186842489813 32.559260374400765,154.91210770996986 31.964001204352826,153.34765644167783 31.219927241792902,153.0 30.42624834855087,153.23177098558517 28.590865907492116,153.5214845802402 27.301137705799192,154.100911311456 26.656273604603484,154.73828001104994 25.267335541313514,155.83918784279376 23.828792547108606,156.5344969170401 21.348546005319804,157.40363202325534 20.505262181162834,157.7512856813264 18.570669878739864,161.22781017393572 18.66987974033691,161.63340326654725 18.91790439421311,162.2707632361562 19.314743840834126,162.79223902581725 20.05881780362688,162.79223902581725 20.852496697101742,162.6763555596117 26.557063743006438,160.99604255793383 28.094816599041224,160.41662309120875 28.838890561601147,159.9530870783492 29.5829645243939,159.77926097268937 31.219927241792902,159.14189811539836 32.013606135267764,159.0260138801532 32.36084065097384,159.4895506746252 33.05530968261883,160.8801587135531 34.44424774614163,164.35666342754848 34.64266746956855,165.2257861723774 35.18832170870155,166.67432102822931 35.78358087874949,168.7602045185049 36.13081539445557,169.39755622908706 36.27963018720038,170.1507891169167 36.6764696338214,170.7881392161944 36.97409921884537,172.17871868715156 37.27172880386934,172.93194776616292 37.42054359614849,173.6851758135017 37.866987973684445,174.4384028292843 38.164617558941245,175.77103271492524 38.759876728989184,177.21953979774844 38.85908659058623,177.91482184268534 38.56145700532943,178.37834271753673 39.10711124469526,179.24744330515387 39.95039506908506,180.00066270359093 40.29762958479114,181.27533933578525 41.14091340894811,183.30322788952617 41.48814792511985,184.75171513622627 42.331431749043986,186.77959087333875 41.48814792511985,186.8954692610423 41.48814792511985,187.64867818623316 41.835382440593094,188.28600800951244 42.629061334067956,188.57570313982433 43.17471557343379,190.1400542060146 43.5715550200548,190.71944236085983 44.067604328505695,192.10997144214343 44.41483884421177,192.80523466476006 44.6628634983208,193.5004970083828 44.6628634983208,194.2536968891509 45.2085177374538,195.3545256285579 45.50614732247777,195.70215529913548 45.90298676909879,197.26648609805852 47.29192483262159,201.0324494043598 47.440739625366405,201.78563897154527 47.73836921015754,202.53882750764024 48.1848135876935,203.9293267109315 48.33362838020548,204.68251231173053 48.780072757741436,206.13094326102873 48.532048103632405,206.5944403593312 48.532048103632405,207.0 49.17691220436245,207.0 51.061899576336145,205.78332018112997 52.996491878759116,204.3348883164581 54.03819542657584,203.63963966665324" stroke="#4dd2ff" stroke-linecap="round" stroke-linejoin="round" stroke-width="0.5"><title>2023-07-11 3.2km</title></polyline><polyline fill="none" points="178.57658975757658,201.2948089094134 178.23120827437378,201.6405797599 177.09638340235688,202.15923562570242 176.8003421309404,202.50500592996832 175.96155853010714,203.25417417276185 175.61617704713717,203.31180245656287 174.67871302226558,204.06096959469141 173.83992942073382,204.5796231664135 172.31038285396062,205.8474409384653 171.52093946444802,206.1932089118054 170.87951671052724,205.61692883458454 170.23809395660646,204.23385417327518 169.94205268542282,203.02366097655613 169.59667120291851,202.27449241821887 169.30062993173487,200.71852367318934 168.3631659068633,197.83708838670282 168.21514527127147,196.97265484166564 167.8697637883015,196.2811070223106 167.52438230556436,195.01326708309352 167.3270214581862,194.55223364959238 167.1790008225944,194.03357057250105 166.43889764510095,192.93861357297283 166.29087700974196,192.18943120539188 165.74813467939384,190.8063226005761 165.4027531966567,190.17239665496163 165.0573717134539,188.90454255999066 165.10671192524023,188.27061441080878 165.30407277261838,187.69431545579573 165.0080315019004,187.0027559088776 164.71199023071676,186.65697580738924 164.16924790036865,186.42645561834797 163.0344230281189,183.19916277355514 161.99827857967466,180.7786806463846 162.047618791461,180.2023737995769 161.70223730849102,179.4531739911763 161.99827857967466,179.16501994553255 161.85025794408284,178.9344965997152 161.89959815586917,178.76160402665846 161.80091773206368,178.76160402665846 161.45553624955937,178.1852950549801 161.0608145543374,177.89714034151984 160.6167526480276,177.2055684099323 159.3832473519724,173.57480142597342 159.3339071404189,172.7679610461346 159.03786586923525,172.30690886633238 158.93918544542976,171.6729614844662 158.59380396269262,170.92374999506865 158.3471029032953,170.17453747970285 158.29776269150898,169.36769208480837 157.85370078496635,168.56084549985826 157.60699972580187,167.17767715727678 157.06425739568658,165.67924083961407 156.37349442997947,163.54684361850377 155.78141188784502,162.22129521047464 155.68273146427236,161.47207077644998 155.3373499813024,160.83811083843466 155.13998913392425,160.26178298465675 154.79460765095428,158.993859568669 154.6465870155953,157.95646549703088 154.251865320839,157.2648683563457 154.1531848970335,155.1900716876262 153.80780341429636,154.8442714777193 153.4624219313264,153.97976999671664 152.96901981299743,153.2881678281119 152.42627748288214,153.0 148.52840074757114,154.44083762320224 148.03499862900935,154.8442714777193 147.64027693448588,155.47823836212046 147.04819439235143,155.766404885042 146.65347269759513,155.42060503945686 141.42341024265625,162.85525354539277 147.9363182054367,160.5499469874194 148.72576159471646,160.14651734096697 149.41652456042357,159.97361883008853 150.15662773814984,159.62782164401142 153.0183600250166,158.93622661626432 153.61044256668538,159.28202423948096 154.4492261679843,161.24153997487156 155.18932934571058,163.66210854565725 155.48537061666138,164.2384328173357 155.92943252343684,166.08266640588408 156.42283464153297,167.23530924145598 156.76821612473577,168.38794964842964 157.36029866687022,169.5982194620301 157.45897909044288,170.17453747970285 157.80436057341285,170.7508548903279 157.9030409969855,171.3848033407703 158.93918544542976,174.32400928472634 159.43258756399155,176.11057773028733 159.72862883494236,176.74451997003052 160.024670106126,177.95477129641222 159.72862883494236,178.53108051081654 159.9259896823205,178.76160402665846 160.12335052969866,179.33791239111451 160.3207113770768,179.68369711842388 160.86345370742492,179.8565894002677 161.0608145543374,180.60578865616117 162.09695900324732,183.02627154823858 162.6397013333626,184.92807202221593 162.98508281633258,185.44674373156158 163.57716535846703,186.7722358655301 162.6397013333626,187.2909058262012 163.33046429930255,188.50113382283598 163.9718870529905,188.7316531377146 164.56396959512495,190.05713731318247 164.66265001893044,190.6910633923835 165.94549552653916,193.8606827708427 165.5507738320157,194.60986285004765 165.8468151029665,194.8403795910417 166.53757806844078,195.93533278477844 166.73493891605176,196.6268810412148 168.01778442389332,199.96935195848346 168.85656802519225,202.62026264949236 169.4486505673267,203.94571317883674 169.79403205006383,205.44404469319852 170.04073310946114,206.07795294484822 169.74469183851033,206.59660460462328 169.69535162649117,206.884744203242 170.09007332101464,207.0 170.87951671052724,206.65423253650079 172.65576433669776,205.67455686972244 174.13597069168463,204.63725131069077 174.67871302226558,204.11859779368388 175.36947598773986,203.772828509158 176.30694001284428,202.90840434195707 177.44176488509402,202.21686402498744 177.9351670036558,201.8134651031578" stroke="#4dd2ff" stroke-linecap="round" stroke-linejoin="round" stroke-width="0.5"><title>2023-07-07 3.1km</title></polyline><polyline fill="none" points="57.6682002551388,263.6179916828405 56.49032023828477,264.36318176134955 56.04861523164436,265.05104862048756 54.62534354440868,266.0255251825438 54.37995187425986,266.0255251825438 54.08548186998814,265.7962367365835 53.447463527554646,264.9937264153268 52.90760185336694,263.6179916828405 52.76036685123108,262.8728005842422 51.926035172306,261.3824153256137 51.77880016993731,260.52257581986487 51.43525183177553,259.834703237284 50.69907682132907,257.71375730086584 49.96290181064978,254.96224755299045 49.52119680424221,253.70113426924217 48.097925117006525,250.43369080347475 47.95069011463784,249.6311578284367 47.55806344258599,248.37003219104372 47.90161178074777,247.7967922986718 47.70529844472185,246.99425543501275 47.263593438314274,246.5356624100823 46.8218884319067,246.4783382549067 46.527418427634984,245.79044792061904 46.47834009351209,245.10255671659252 46.18387008924037,244.47198901581578 45.791243416955695,243.95606944448082 45.69308674894273,243.15352691692533 45.20230340864509,242.46563237981172 44.90783340414055,241.7204123166157 44.71152006811462,241.03251596784685 44.66244173399173,240.34461874963017 44.36797172972001,239.71404553577304 44.466128397965804,239.19812145346077 44.466128397965804,238.62487189960666 44.26981506170705,238.223596852622 43.582718385150656,237.30639563384466 43.337326714769006,236.61849370563868 43.14101337874308,235.87326563498937 42.257603366160765,233.8668772954843 41.864976693410426,232.54838950157864 41.521428355481476,232.08978430263232 41.521428355481476,231.5738529918599 41.37419335334562,230.82861801265972 40.93248834670521,229.51012285711477 40.14723500236869,226.58649176801555 39.705529995961115,225.3253127229982 38.82211998291314,223.14690566959325 38.18410164071247,221.77106514235493 37.742396634072065,221.2551240477478 37.54608329781331,219.82195177371614 37.251613293541595,218.38877572497586 36.95714328926988,217.87283142318483 36.5645166169852,216.32499558269046 36.171889944700524,215.75172193191247 35.681106604402885,214.6625003311201 35.63202827027999,213.974569775688 35.23940159799531,213.0 33.57073824061081,213.68793178745545 31.902074883226305,214.14655249618227 30.576959864003584,215.35043001687154 30.086176523473114,215.46508487983374 29.742628185311332,215.35043001687154 29.448158181272447,215.75172193191247 29.202766510890797,215.40775745140854 28.957374840741977,215.29310257622274 29.006453174632043,215.17844767699717 28.711983170360327,214.83448283403413 28.81013983860612,215.06379275361542 28.957374840741977,214.8918103230535 29.006453174632043,215.06379275361542 29.39907984691672,215.17844767699717 29.64447151706554,215.52241230232175 29.104609842645004,216.0383588327677 26.797928142827004,217.12757767923176 25.325578121701255,217.7581770674442 24.687559778802097,217.93015859200386 23.21520975790918,218.50342994765379 22.57719141501002,219.19135477743112 22.724426417145878,219.24868180725025 22.47903474722989,219.24868180725025 22.3317997448612,219.53531686612405 22.380878078984097,219.47798986639827 22.82258308515884,220.22324039111845 23.018896421417594,220.91116304631578 22.773504751501605,222.05769887252245 23.018896421417594,222.86027251329506 23.411523093935102,223.20423228276195 24.196776438737288,223.4908652578597 24.88387311529368,222.91759915655712 25.570969791850075,222.5736392060644 28.024886493803933,221.65641160821542 28.81013983860612,221.48443126148777 29.546314849052578,221.0831435743603 31.11682153865695,220.50987493642606 31.902074883226305,220.39522113645216 35.87741994042881,219.13402774144197 36.6135949511081,220.5672018273617 36.85898662125692,221.36977766663767 37.153456625528634,222.05769887252245 37.644239966291934,222.86027251329506 39.75460832985118,228.36360273347236 39.85276499809697,229.16616707359208 40.294470004271716,229.9114043295849 40.49078334029764,230.5419889028417 40.6380183424335,231.2298985128291 40.83433167892508,231.5738529918599 41.47235002112575,234.3254809966311 42.748386706458405,237.8796465767664 42.55207337043248,238.567546911072 42.69930837233551,239.25544637569692 43.4354833830148,239.71404553577304 43.68087505316362,241.08984069683356 44.85875507025048,243.38282490277197 44.90783340414055,244.01339386537438 45.34953841054812,245.2172053109971 45.93847841909155,246.4210140936193 45.69308674894273,246.9369313280913 45.34953841054812,247.39552401483525 45.74216508306563,248.08341232023668 46.57649676175788,248.7712997563067 47.018201767932624,249.57383399928221 47.361750106327236,250.26171955128666 48.4905517892912,253.18522344733356 48.4905517892912,253.8731044345186 48.343316787155345,254.27436794224195 48.588708457536995,254.90492428536527 49.324883467983454,255.9367421795614 50.306450148811564,258.63092412549304 50.35552848293446,259.261475420848 50.74815515521914,260.0066714643617 51.140781827503815,261.4397379111033 51.77880016993731,262.93012301268755 52.17142684245482,264.3058594838367 52.46589684672654,264.9364042042289 52.80944518488832,266.25481353187934 52.41681851260364,266.5987458747695 52.66221018275246,267.0 53.349306859541684,266.5987458747695 56.882946910336614,263.5606693268637" stroke="#4dd2ff" stroke-linecap="round" stroke-linejoin="round" stroke-width="0.5"><title>2023-07-05 3.1km</title></polyline></svg>