<?xml version="1.0" encoding="utf-8" ?>
<svg baseProfile="full" height="300mm" version="1.1" viewBox="0,0,200,300" width="200mm" xmlns="http://www.w3.org/2000/svg" xmlns:ev="http://www.w3.org/2001/xml-events" xmlns:xlink="http://www.w3.org/1999/xlink"><defs /><rect fill="#222222" height="300" width="200" x="0" y="0" /><text fill="#FFFFFF" style="font-size:12px; font-family:Arial; font-weight:bold;" x="10" y="20">Over 5km Runs</text><text fill="#FFFFFF" style="font-size:4px; font-family:Arial" x="10" y="280">ATHLETE</text><text fill="#FFFFFF" style="font-size:9px; font-family:Arial" x="10" y="290">Melt</text><text fill="#FFFFFF" style="font-size:4px; font-family:Arial" x="120" y="280">STATISTICS</text><text fill="#FFFFFF" style="font-size:3px; font-family:Arial" x="120" y="285">Number: 9</text><text fill="#FFFFFF" style="font-size:3px; font-family:Arial" x="120" y="290">Weekly: 2.2</text><text fill="#FFFFFF" style="font-size:3px; font-family:Arial" x="141" y="285">Total: 56.7 km</text><text fill="#FFFFFF" style="font-size:3px; font-family:Arial" x="141" y="290">Avg: 6.3 km</text><text fill="#FFFFFF" style="font-size:3px; font-family:Arial" x="167" y="285">Min: 5.3 km</text><text fill="#FFFFFF" style="font-size:3px; font-family:Arial" x="167" y="290">Max: 9.2 km</text><polyline fill="none" points="48.75764680141583,84.46436687174719 48.65896909078583,83.42705902300077 48.856324511813,82.7355193644762 48.75764680141583,82.27449243998853 48.46161366999149,81.75583668536274 47.96822511777282,81.58295132470084 47.72153084189631,81.29480893531581 46.43872060603462,78.06760380585911 45.64929892239161,75.70481655042386 45.55062121222727,74.89800880895928 45.35326579143293,74.32171683647903 45.4519435018301,73.9759413615684 45.30392693611793,73.34201909013791 45.15591037040576,73.0538723601494 44.61318296310492,72.53520786383888 43.28103387192823,69.0198022055556 42.935661885654554,67.80957535823109 42.49161218851805,66.88749596331036 39.18590888893232,56.80215111374855 38.84053690242581,56.11057779751718 38.00177636370063,53.92058986116899 37.70574323227629,50.75085495080566 37.113676969660446,48.387949704308994 37.360371245769784,48.04215783654945 38.93921461282298,47.29294137295801 41.702190505107865,46.3131952182157 43.774422424379736,45.67924088885775 47.86954740737565,44.1231680563651 50.97789528639987,43.14341622416396 53.14880491583608,42.221295249299146 54.08624316519126,41.93313212599605 56.010458518518135,41.126274572859984 56.30649164994247,40.89574362477288 56.35583050502464,40.780478114204016 56.059797373833135,40.780478114204016 49.448390774428844,43.25868123653345 46.142687474843115,44.296065256465226 44.16913326596841,45.102918133779895 41.55417393962853,46.025034250400495 39.481942020356655,46.83188457752112 35.38681703712791,48.15742181672249 34.30136222206056,48.676109427178744 33.56127939396538,48.84900518815266 31.982436026912183,48.96426899835933 31.686402895720676,48.79137327382341 31.489047474693507,48.387949704308994 29.811526397243142,43.37394622480497 29.564832121133804,42.04839739360614 29.219460134627298,40.9533763708896 28.676732727093622,38.648061789164785 27.83797218836844,35.76640489831334 27.344583636382595,33.46106845460599 26.999211649876088,33.0 26.60450080805458,33.115267150104046 26.407145387027413,33.40343491913518 26.456484242342412,33.691602536302526 27.73929447797127,37.14960210060235 28.77541043772362,40.49231423181482 29.466154410736635,43.37394622480497 29.860865252558142,45.85213759710314 30.551609225571156,48.33031774149276 30.89698121184483,49.94401040452067 30.89698121184483,50.92375005595386 30.798303501680493,51.15427677775733 30.403592659858987,51.44243504334008 29.367476700106636,51.845856360159814 26.60450080805458,52.710329608642496 25.864417979726568,52.82559260504786 23.64416949497536,53.574801490758546 23.742847205139697,53.574801490758546 24.729624309577048,53.45953865221236 26.85119508416392,52.537435068166815 27.98598875408061,52.191645823360886 29.02210471360013,51.78822476166533 30.05822067335248,51.55769830709323 30.502270370488986,51.211908443016 30.798303501680493,50.577959791058674 30.600948080886155,49.367692142841406 30.05822067335248,47.696365750045516 29.17012127954513,44.18080046254909 28.87408814812079,42.62472336710198 28.183344174874946,40.54994702053955 27.443261346779764,37.437767744238954 27.048550505191088,35.42060505133122 26.75251737376675,34.4408376304782 26.70317851845175,34.09503694518935 26.80185622884892,33.6339690250461 26.949872794561088,33.40343491913518 27.147228215355426,33.288167829683516 27.443261346779764,33.288167829683516 27.6899556228891,33.46106845460599 28.03532760939561,34.210303864616435 28.627393871778622,36.28510425920831 29.07144356891513,38.82096071972046 30.354253804543987,43.71974104386754 30.748964646365494,45.102918133779895 31.291692054132,47.35057344491361 31.686402895720676,48.56084555631969 31.834419461432844,48.79137327382341 32.03177488199435,48.90663709625369 34.74541191919707,48.099789829633664 39.580619730753824,46.486091725935694 43.08367845113389,45.56397638638737 45.35326579143293,44.296065256465226 46.38938175071962,44.18080046254909 47.67219198658131,43.7773734923685 48.856324511813,43.37394622480497 50.87921757553704,42.45182563876733 55.56640882161446,40.9533763708896 55.911780807888135,41.01100911095273 55.8624419530388,41.126274572859984 55.61574767692946,41.35680542368209 53.29682148154825,42.3941930506262 48.65896909078583,44.06553564412752 47.91888626245782,44.23843286244664 47.228142289677635,44.52659477136331 45.64929892239161,44.93002118868753 42.39293447812088,46.0826664561755 39.77797515154816,47.29294137295801 37.55772666656412,47.98452583729522 35.68285016808659,48.676109427178744 35.38681703712791,48.90663709625369 35.28813932649791,49.19479654595489 35.28813932649791,49.42532399634365 35.43615589221008,49.771114989649504 36.077561010140926,50.69322323706001 36.32425528625026,51.15427677775733 36.96566040394828,53.574801490758546 37.55772666656412,54.612165946280584 39.08723117830232,58.531080579268746 39.87665286194533,60.951572650519665 40.86342996638268,64.3517696132185 41.702190505107865,66.48408573924098 42.19557905732654,68.27061447291635 42.935661885654554,70.05713737208862 43.823761279461905,72.93861362565076 43.725083569064736,73.91831209452357 43.922438990091905,74.72512128081871 44.56384410755709,75.24378370086197 44.71186067326926,75.53192927734926 46.43872060603462,79.7964660639991 47.080125723965466,82.101607243123 46.9814480135683,82.50500595086487 46.73475373745896,82.67789102019742 46.78409259254113,82.9660326812882 47.129464579047635,83.6575720483088 47.57351427618414,83.94571319321403 47.86954740737565,84.34911054116674 48.95500222221017,87.0" stroke="#4dd2ff" stroke-linecap="round" stroke-linejoin="round" stroke-width="0.5"><title>2023-08-08 6.0km</title><desc>9606561718</desc></polyline><polyline fill="none" points="108.92665009363554,85.79274410154903 108.17493219068274,84.75011175620602 107.04735533706844,81.73195373051567 106.90640823030844,80.853940839821 107.18830244382843,80.0308024106198 107.04735533706844,79.42716673621908 106.85942586115561,79.09791061887518 106.20167269650847,78.82353036227869 106.01374322082847,78.54914996097796 105.44995479402132,76.68335940031102 104.36936030909419,74.32367353333393 103.75858951290138,72.07373054296477 103.66462477529421,71.30545510113006 103.0068716101814,70.20791679009562 102.44308318337426,68.61648213176522 101.50343580520712,65.81774042203324 101.17455922276713,65.1043332676054 100.70473553356715,62.96410594199551 100.18792947568,61.75679434055928 99.48319394188002,59.451918967824895 99.06035262160003,58.5189903221908 98.0267405055929,55.66531585773919 97.50993444770575,54.512865969212726 97.22804023418576,53.360413530957885 97.08709312742576,52.48235281906091 97.08709312742576,51.988443018111866 96.33537522493862,49.6835244212416 96.24141048709862,49.024974377360195 96.19442811817862,47.59811309253564 96.38235759362578,47.21395746344933 96.61726943822578,46.939560412138235 97.69786392338574,46.445645355270244 99.62414104864001,45.7322116685682 100.56378842680715,45.23829546687193 101.55041817412712,44.90901773900259 102.67799502820708,44.41510075668339 104.93314873590134,43.701664288761094 110.10120931640267,41.725988969614264 111.13482143217698,41.39670902112266 112.3093806549441,40.90278870833572 113.24902803334408,40.62838833202841 113.90678119799122,40.299107689759694 113.57790461578406,40.18934742943384 113.38997514010407,40.24422756244894 109.06759720016271,42.11014864628669 106.95339059922844,42.658947693009395 106.01374322082847,43.04310668166727 104.51030741562136,43.48214517888846 102.95988924149424,44.195581947569735 100.18792947568,45.07365662883967 98.44958182587288,45.7322116685682 97.36898734094575,46.061488876177464 95.48969258437864,46.82980155106634 92.6237680807244,47.59811309253564 91.30826175119728,47.817630467761774 90.97938516899012,47.70787179173203 90.88542043091729,47.488354370347224 89.80482594599016,44.85413809737656 88.86517856782302,41.06742886471329 88.30139014078304,39.14662380237132 88.16044303402305,38.43318011792144 87.69061934482306,37.116050748329144 86.98588381125592,33.987855146231595 86.46907775313593,33.16464265459217 86.28114827768877,33.0 86.18718353961594,33.054880890704226 86.09321880177595,33.38416611292632 86.28114827768877,34.59154347976437 87.83156645158306,39.53078538144473 88.67724909214303,43.0979865140398 90.03973779059015,47.70787179173203 90.18068489735015,48.476182038197294 90.13370252843015,48.695699043164495 89.66387883923016,49.409128670813516 89.75784357707016,49.299370330176316 89.71086120815016,48.97009516955586 89.42896699463017,47.817630467761774 89.10009041242301,45.89685029844986 88.16044303402305,42.16502857703017 87.31476039346308,39.20150404510787 86.65700722881593,36.622126376023516 86.09321880177595,33.49392780743074 86.18718353961594,33.219523527892306 86.56304249097593,33.38416611292632 86.89191907318309,33.76833194238134 87.59665460698307,35.689156839158386 89.10009041242301,40.73814849986229 89.61689647031017,43.0979865140398 89.99275542167015,44.25046165846288 90.18068489735015,45.23829546687193 90.46257911087014,46.33588639012305 90.88542043091729,47.817630467761774 91.02636753767729,47.87250979716191 92.24790912936442,47.59811309253564 93.04660940077156,47.26883685635403 94.40909809945151,46.77492211188655 97.04011075850576,46.006609355972614 98.44958182587288,45.5126934145228 99.67112341779284,44.90901773900259 102.95988924149424,43.81142380897654 106.15469032735564,42.549187929951586 108.97363246232271,41.561349021445494 109.86629747180268,41.39670902112266 111.4636980148498,40.73814849986229 113.29601040226407,40.24422756244894 113.53092224686407,40.18934742943384 113.76583409169689,40.299107689759694 113.71885172254406,40.46374803688377 113.43695750902407,40.683268418884836 111.4636980148498,41.67110899271211 109.02061483124271,42.49430803960422 107.98700271523558,42.76870743301697 106.43658454087563,43.427265387028456 104.83918399806134,43.86630356032401 103.14781871717423,44.52486012643203 99.38922920427285,45.7322116685682 98.21466998127289,46.28100689902203 97.18105786503293,46.610283759539016 95.11383363325149,47.43347500055097 94.5970275751315,47.76275113271549 94.45608046813868,48.09202705667121 94.55004520621151,48.695699043164495 95.16081600193866,50.01279913098551 95.53667495353147,51.439653801207896 95.91253390465863,52.317716270685196 96.28839285578579,52.921383360167965 96.57028706930578,53.579928477760404 96.85218128282577,54.56774459313601 98.12070524366572,57.805573171703145 98.44958182587288,59.12265022483189 99.43621157296002,61.75679434055928 99.85905289324,63.128739125444554 101.9732594944071,68.8908677646541 102.44308318337426,70.75668623467209 102.44308318337426,71.08594762400026 102.34911844576709,71.47008564841235 102.44308318337426,71.79934658668935 102.77195976604708,72.62249802210135 103.28876582393423,73.2261415811954 104.0874660955742,75.20169743028237 104.51030741562136,76.62848310626578 104.83918399806134,77.23212202364812 105.21504294942133,78.43939776014304 105.44995479402132,79.37229073123308 105.44995479402132,79.53691872907802 105.30900768726133,79.97592646913836 105.44995479402132,80.689313257928 105.63788426970132,80.96369253203738 106.15469032735564,81.34782327286666 106.62451401678845,82.17095962085295 107.18830244382843,84.25623254844686 107.94002034631558,86.34149712952785 107.94002034631558,87.0" stroke="#4dd2ff" stroke-linecap="round" stroke-linejoin="round" stroke-width="0.5"><title>2023-08-07 5.3km</title><desc>9599973967</desc></polyline><polyline fill="none" points="169.44214782002382,86.55328006320633 168.5815976387821,85.15727783454349 167.43419739743695,81.8626979997498 167.33858071058057,81.08093028754229 167.52981408429332,80.13163937273202 167.43419739743695,79.74075438437285 167.19515568064526,79.40570987918181 166.621455559507,79.12650596327148 166.33460549963638,78.73562023357954 164.80473851086572,74.8825883337995 164.47008010698482,73.70992089255014 163.99199667340145,71.1970533541753 163.41829655249603,70.58279503305675 163.2270631790161,70.13606126146624 162.12747128121555,67.23228256951552 161.79281287710182,65.89207165455446 161.31472944328561,64.88691124448087 160.0239041717723,61.14546407770831 159.11554564721882,58.24163613416022 158.82869558688253,57.571519734337926 158.1593787795864,55.61700872902293 157.5378703151364,54.22092502680607 157.15540356817655,52.768994076002855 156.8207451645285,51.93133979511913 156.8207451645285,51.093684190593194 156.6773201341275,49.92096412007231 156.1992367003113,47.519672070338856 156.1514283567667,47.18460719846189 156.24704504339024,47.01707468321547 156.43827841733582,46.737853706639726 159.1633539905306,45.62096832925454 160.262945888564,44.89499157189857 161.69719619047828,44.16901382012293 162.55774637148716,43.88979134312831 163.41829655249603,43.49887962813955 165.37843863177113,42.94043382117525 167.91228083125316,41.823540441691875 168.8684476991184,41.60016148316208 169.7289978803601,41.20924807956908 173.7927070686128,39.868971364048775 174.22298215911724,39.64559158193879 174.41421553259715,39.422211705648806 174.12736547226086,39.47805668361252 173.41024032165296,39.924816294864286 172.3584567666985,40.31573064578697 171.49790658592246,40.762489551038016 169.7289978803601,41.43262720271014 165.61748034856282,42.49367675173562 163.37048820895143,43.61056871910114 160.74102932261303,44.392391695815604 158.1593787795864,45.565123998501804 156.1992367003113,46.29109983803937 155.1474531458225,46.51447681942955 153.71320284390822,47.01707468321547 152.56580260256305,47.18460719846189 151.51401904807426,47.463827939820476 151.13155230064876,47.407983803306706 150.84470224031247,47.240451358491555 150.74908555368893,47.01707468321547 149.88853537244722,44.057324846915435 148.7411351313349,41.43262720271014 148.16743501042947,39.19883173541166 146.58975967857987,33.83768420107663 146.2072929313872,33.39091945858672 145.9204428710509,33.39091945858672 145.6814011540264,33.67014746682253 145.58578446740285,33.89352976734517 145.63359281094745,34.116911973804235 146.8288013956044,36.62995530880289 147.35469317273237,38.193620703415945 147.68935157661326,39.53390165552264 148.07181832380593,40.706644708581734 148.59771010116674,43.33134594798321 149.84072702936828,48.13395711861085 149.69730199920014,49.0274613724323 149.79291868582368,48.74824145500315 149.74511034227908,48.301489280944224 148.98017684812658,45.73265697277384 148.59771010116674,43.88979134312831 146.8288013956044,37.9143950783764 146.35071796155535,35.959811584616546 146.01605955790728,35.01043985807337 145.82482618419454,33.50261067948304 145.9204428710509,33.27922821423272 146.11167624453083,33.05584565451136 146.35071796155535,33.0 146.733184708748,33.111691303376574 147.11565145570785,33.50261067948304 147.3068848294206,33.89352976734517 147.8327766067814,36.96502685319865 148.31086004059762,39.087141714815516 148.7411351313349,40.3715755296289 149.31483525177464,42.828744589176495 149.93634371599182,44.95083597302437 150.65346886706538,47.072918860882055 150.84470224031247,47.240451358491555 151.8964857950341,47.072918860882055 154.90841142856516,46.123567040252965 156.9641701944638,45.565123998501804 159.06773730390705,44.83914716477739 165.76090537849814,42.27029807586223 169.2031061029993,41.04171367548406 169.87242291052826,40.93002404330764 171.45009824237786,40.25988575624069 173.4580486647319,39.64559158193879 173.69709038198926,39.58974662178662 173.88832375523634,39.75728148478083 173.88832375523634,39.924816294864286 173.69709038198926,40.14819595927838 172.74092351389118,40.65079986001365 169.44214782002382,41.879385166510474 166.52583887288347,42.828744589176495 161.26692109997384,44.78330275171902 159.6892457678914,45.50927966204472 158.30280380952172,46.0118784790393 156.10362001368776,46.62616527476348 155.43430320592597,47.072918860882055 154.5737530249171,47.407983803306706 154.43032799474895,47.96642490319209 155.0996448022779,49.250837200612295 155.76896160980687,51.37290287250653 156.39047007379122,52.601463325787336 157.49006197182462,56.34297080087708 158.01595374918543,57.683205859793816 158.589653869858,59.63770924654091 160.50198760582134,64.49601501470897 162.2230879678391,70.13606126146624 162.31870465446264,70.58279503305675 162.31870465446264,71.47626144677633 162.50993802794255,71.81131096358877 162.79678808827884,72.64893382927403 163.27487152232789,73.20734833774623 164.0398050164804,75.38515930029098 164.80473851086572,77.06039241410326 165.4262469750829,79.34986910771113 165.37843863177113,79.57323215826182 165.04378022789024,79.90827655768953 165.04378022789024,80.18748006172245 165.37843863177113,80.91340848483378 165.9999470957555,81.2484520371654 166.23898881254718,81.58349537773756 167.48200574074872,84.8222367526032 167.86447248770855,86.16239980957471 168.00789751810953,87.0" stroke="#4dd2ff" stroke-linecap="round" stroke-linejoin="round" stroke-width="0.5"><title>2023-08-06 5.3km</title><desc>9594199691</desc></polyline><polyline fill="none" points="49.19757062231656,177.0 48.90939608577173,176.01827957099886 48.90939608577173,175.79388582185493 48.98143971990794,175.51339336947422 48.933410630444996,175.3731470326602 48.789323362289,175.0646048313356 48.52516337041743,174.92435825796565 48.4771342810709,174.86825960801798 48.309032468125224,174.53166745972703 47.9488142975606,173.66213577409508 47.49253794818651,172.34380812515155 47.2764070458943,171.4742692950531 47.2764070458943,171.24987171663088 47.10830523283221,170.91327499446925 46.84414524107706,170.57667784680962 46.60399979399517,169.95958197084838 46.14772344462108,168.66928597260267 44.87495257530827,164.6020076671266 44.68283621768933,164.04099888703786 44.03444351057988,162.52626927607344 43.818312608171254,161.60059693819494 43.794298063614406,161.17983572077355 43.818312608171254,160.81517546105897 43.770283518824726,160.53466722919256 43.554152616416104,160.0858534433646 43.241963535314426,159.63703890095348 43.14590535638854,159.3565294276923 43.121890811715275,158.85161163113662 43.19393444585148,158.59915237379028 43.33802171400748,158.48694818254444 44.58677803876344,158.0661820443056 46.02765072113834,157.36490366936778 46.67604342813138,157.11244300220278 46.96421796467621,156.88803331929375 47.036261598696,156.66362344729714 47.06027614348568,156.32700828445377 46.916188875213265,155.6537766822148 46.70005797280464,155.06469763367204 46.3638543470297,153.9706902281323 45.88356345286593,152.6242134036438 45.64341800578404,152.14733456191607 45.47531619283836,151.55824775443762 44.730865307035856,149.5385116612306 44.49071985995397,149.00552319237613 44.346632591681555,148.8091587505478 44.13050168938935,148.64084625666146 43.8663416976342,148.58474206837127 43.45809443760663,148.6969504330773 42.92977445409633,149.00552319237613 42.329410836449824,149.2018874892674 41.12868360115681,149.5385116612306 40.09605817892589,149.762927539472 38.943360032862984,150.12760293800966 38.58314186241478,150.18370680112275 38.31898187054321,150.1556548710505 38.17489460238721,150.0714990630513 38.0308073341148,149.9031873672211 37.95876369997859,149.7348755649582 37.022196456440724,147.0418722567847 36.157672847039066,144.01221097059897 35.91752739995718,142.7778946350445 35.893512855283916,142.55347286825418 35.94154194474686,142.44126191386022 36.10964375769254,142.30099815438734 37.1902982693864,142.0485232010833 37.76664734247606,142.0485232010833 38.102850968251005,141.96436483008438 39.30357820354402,141.34720262989867 41.729047218803316,140.4775625554612 42.13729447883088,140.2531388491625 43.530138071626425,139.07491128725815 43.794298063614406,138.76632701634662 44.442690770491026,137.64419937916682 44.49071985995397,137.3356134495407 44.370647136471234,136.97092052618973 43.89035624230746,135.98905247959192 43.386050803470425,135.3438229339372 42.20933811296709,134.24973447763477 41.17671269061975,133.35201751353452 40.5283199835103,132.70678157536895 40.408247260027565,132.65067402855493 40.07204363413621,132.73483534433763 39.879927276517265,132.987319131993 39.73584000824485,133.09953407177818 39.327592748217285,133.21174896435696 38.39102550467942,134.2216808682715 37.95876369997859,134.61443112939014 37.09424009057693,135.17550192569615 36.39781829412095,135.51214383580373 33.97234927886166,136.35374674829654 32.17125842592213,136.74649386340752 31.690967531874776,136.74649386340752 31.47483662958257,136.66233381608617 31.306734816520475,136.38180013280362 30.538269385928288,134.27778808400035 29.98593485762831,132.65067402855493 29.721774865873158,131.72489779876196 28.521047630696557,129.0878205850604 28.01674219185952,128.16203196247807 27.632509476621635,127.20818577124737 27.608494931831956,126.98375087635941 27.632509476621635,126.87153335809126 27.800611289567314,126.70320699180593 28.473018541233614,126.25433616136434 29.457614874234423,125.8054645738157 30.442211207235232,125.41270131376223 31.690967531874776,124.82355533694499 32.89169476716779,124.09413470150321 33.39600020600483,123.86969718075125 33.85227655537892,123.50498580580461 34.0203783683246,123.39276682064519 35.14906196948141,123.0 35.36519287189003,123.05610958128818 35.557309229508974,123.22443825413939 35.7494255870115,123.53304054465843 36.061614668229595,124.26246271788841 36.27774557063822,124.68328229311737 36.58993465185631,125.21631946641719 36.92613827763125,125.63713753339835 37.47847280593123,126.17017279635184 38.27095278108027,126.81542458105832 39.015403667115606,127.57289207150461 39.159490935271606,127.79732646944467 39.567738195182756,128.7511705493962 39.73584000824485,129.39641607692465 39.95197091053706,130.6027404757915 39.95197091053706,131.1918736602238 39.855912731844,132.1737594032311 39.759854552918114,132.6787278034608 39.66379637410864,132.87510414479766 39.159490935271606,133.49228598875925 38.34299641533289,134.33389528773841 37.38241462712176,135.03523433755618 36.157672847039066,135.62435771123273 35.269134692964144,135.90489219271694 34.74081470945384,136.15737297345186 34.044392912997864,136.35374674829654 32.651549320085905,136.63428046109038 31.859069344820455,136.85870721843094 31.690967531874776,136.9428672036447 31.57089480839204,137.0831337866257 31.402792995329946,137.56003961563692 31.402792995329946,137.89667850991827 31.522865718929097,138.37358288138057 31.71498207654804,138.82243327394826 32.003156612976454,139.38349520036718 32.387389328330755,140.73003899867763 32.62753477541264,141.29109690437326 32.98775294597726,142.44126191386022 33.15585475892294,142.7778946350445 33.29994202707894,142.9181581432058 33.42001475056168,142.97426352577168 33.756218376453035,142.97426352577168 33.996363823651336,142.94621083603124 34.86088743293658,142.60957832768327 35.36519287189003,142.60957832768327 35.6053383188555,142.63763105295948 35.7494255870115,142.8059473426256 35.893512855283916,143.14257960260147 36.27774557063822,144.65741950453958 36.39781829412095,145.27457403030712 36.80606555414852,146.36861717305146 37.022196456440724,147.60291685923585 37.5024873506045,149.4824076621153 37.59854552941397,150.1556548710505 37.55051644006744,150.3520183194778 37.45445826114155,150.4642259394459 36.181687391828746,151.05331516769365 35.4612510506995,151.24967795412522 34.74081470945384,151.64240309243905 34.044392912997864,151.83876544429222 33.444029295351356,152.09123111254303 33.29994202707894,152.25954142500996 33.15585475892294,152.84862668061396 33.13184021413326,153.01693651420646 33.29994202707894,153.80238099751296 33.6361456529703,154.7280804492184 34.06840745778754,155.73793072559056 34.668771075317636,157.56126180061256 34.86088743293658,157.9820287367911 35.43723650602624,159.58093702991027 35.653367408318445,160.02975166690885 35.86949831061065,160.73102302252664 36.01358557876665,161.01153104758123 36.229716481175274,161.23593725488172 36.42183283891063,161.32008953380864 36.54190556250978,161.32008953380864 38.31898187054321,160.87127707208856 39.615767284762114,160.36636214811006 39.687810918781906,160.28220956772566 39.83189818705432,159.74924260744592 40.0,159.72119168526842 40.04802908934653,159.66508983197855 40.02401454478968,159.4406823006575 39.39963638235349,157.14049419929506 39.11146184592508,155.90623873259756 39.06343275657855,155.5415712496324 38.7992727648234,154.70002899799147 38.41504004935268,153.15719462762354 38.27095278108027,152.7083684047102 38.078836423461325,151.6704548659036 38.102850968251005,151.50214418099495 38.15088005759753,151.41798879863927 38.27095278108027,151.50214418099495 38.34299641533289,151.61435131609323 38.607156406971626,152.25954142500996 38.895330943516456,153.18524624145357 39.087447301251814,154.13899935234804 39.44766547170002,155.1488518632541 39.567738195182756,155.7659820674453 39.92795636586379,156.94413575783256 40.0,157.56126180061256 40.36021817056462,158.7674585719069 40.45627634937409,158.90771365581895 40.5283199835103,158.93576466370723 40.96058178821113,158.87966264496208 42.161309023504145,158.57110133036622 42.713643551804125,158.37474394397577 43.3140071692178,158.23448857938638 44.5387489493005,157.7856709159969 45.691447095246986,157.30880131962476 46.387868891702965,157.11244300220278 47.06027614348568,156.7758284069714 48.06888702104334,156.46726465408574 48.57319245999679,156.35505956434645 49.50975970341824,155.93429005672806 50.66245784924831,155.56962261217996 51.575010548112914,155.3171602426446 51.98325780814048,155.1488518632541 52.31946143403184,155.0927490464528 52.391505068168044,155.1769032671873 52.29544688935857,155.2610574613209 51.98325780814048,155.40131439242396 48.83735245175194,156.43921338609653 46.628014338668436,157.33685249599512 42.47349810472224,158.7113565177424 42.329410836449824,158.79550959460903 42.28138174698688,158.90771365581895 42.25736720231362,159.07601965896902 42.30539629177656,159.24432555571548 42.49751264951192,159.74924260744592 42.88174536463339,161.06763261719607 42.953788998769596,161.23593725488172 43.241963535314426,161.5725462110713 44.05845805525314,164.1251502793457 44.61079258355312,165.5837701880373 44.778894396382384,166.17282596291625 45.067068932927214,166.78993061510846 45.76349072938319,169.09003535471857 46.003636176348664,169.6790833726991 46.219767078757286,170.38032931415364 46.31582525768317,170.82912574737566 46.29181071289349,170.9693744777178 46.14772344462108,171.0815734086791 46.17173798941076,171.16572257597 46.31582525768317,171.44621960807126 46.6520288833417,171.75476600209367 46.96421796467621,172.45600647712126 47.468523403513245,173.99872902149218 47.51655249285977,174.41946998247295 47.780712484614924,175.0085062108701 47.80472702928819,175.20485133075272 47.70866885059513,175.34509775633342 47.73268339515198,175.45729484368348 47.92479975288734,175.9341319372761 48.23698883410543,176.2426731309679 48.429105191724375,176.55121396726463" stroke="#4dd2ff" stroke-linecap="round" stroke-linejoin="round" stroke-width="0.5"><title>2023-08-04 9.2km</title><desc>9582211082</desc></polyline><polyline fill="none" points="102.31744830100797,176.8611910303298 101.64400178589858,175.84325724595692 100.77248276700266,173.2984124647046 100.65363926440477,172.55809121459606 100.85171176865697,172.00284945816384 100.77248276700266,171.49387723157997 100.53479576180689,171.12371524173068 100.13865075306967,170.9386341298814 99.98019274952821,170.75355294012115 98.6332997197751,167.79224329683348 98.2371547112707,166.3578517610731 97.95985320513137,164.3682041343127 97.80139520158991,164.09057816746645 97.44486469379626,163.72040993874543 97.28640669025481,163.39651248281007 96.61296017537825,161.45312273103627 96.0583571633324,159.64853883368778 95.7414411562495,159.1395522915409 95.58298315294087,158.49175038465182 94.94915113877505,157.01105672397534 93.72110161185265,153.3555728760839 93.364571104059,152.61521801212803 93.04765509720892,151.5046833762899 92.69112458918244,150.67178055646946 92.17613607784733,148.31188065634342 92.17613607784733,147.57151729028556 91.81960557005368,145.39669268473517 91.42346056131646,144.23986669827718 91.46307506226003,143.96222800808027 91.58191856485792,143.82340859723627 95.34529614751227,142.4814853630087 96.29604416852817,142.2501188737806 99.10867373039946,141.13955802848795 100.415952259209,140.76937045605155 102.87205131328665,139.75135302278795 106.27889838814735,138.59451216610614 106.59581439523026,138.4094173462072 107.11080290633254,137.76158486228087 107.19003190821968,137.39139444261673 106.99195940373465,136.4196431057644 106.55619989428669,135.03142318030586 105.96198238106444,133.87456989040948 105.80352437775582,132.81026217213366 105.09046336193569,130.91301158140413 104.81316185602918,129.80242206642288 103.9416428366676,128.27535689721117 103.5058833269868,126.97966107437969 103.2285818210803,126.47063666937174 102.99089481588453,125.45258608928998 102.91166581399739,125.36003591952613 102.87205131328665,125.40631100689643 102.87205131328665,125.82278657323332 103.14935281942599,126.51691163974465 103.9416428366676,128.69182974271826 104.41701684705913,129.8949712998292 105.09046336193569,131.3294819254079 106.3977418905124,134.5686822301068 107.0711884056218,137.02120371052297 107.0711884056218,137.25257295460324 106.95234490302391,137.6227634914394 106.79388689948246,137.76158486228087 106.3185128888581,138.0392274725018 104.93200535862707,138.5019647658919 101.60438728518784,139.79762659367407 98.35599821386859,140.76937045605155 97.12794868671335,141.37092510293587 95.42452514916658,141.87993223741069 94.19647562224418,142.43521207483718 93.32495660311542,142.66657846668386 92.33459408138879,143.12931088462938 91.38384606037289,143.40695010128547 90.59155604289845,143.73086229889304 89.75965152471326,144.0547742577619 88.29391499259509,144.42495906091062 87.42239597346634,144.7488705077849 87.26393796969205,144.7488705077849 87.06586546543986,144.5175052129489 86.03588844276965,141.97247892568703 85.44167092978023,139.6588058664638 84.45130840805359,136.37336917890934 83.81747639388777,133.78202149551362 83.34210238349624,132.34751888134633 83.22325888089836,131.65340303102857 83.10441537830047,131.6071286019578 83.10441537830047,131.74595187447267 83.38171688420698,132.94908506423235 84.25323590356857,135.40161558950786 84.41169390687719,135.95690361814923 84.5305374097079,136.97492984714336 86.11511744442396,142.52775864629075 86.55087695410475,145.072781715804 86.74894945835695,145.9056951534876 86.7093349576462,145.99824099353282 86.11511744442396,146.0445139061485 86.31318994867615,145.99824099353282 86.35280444961973,145.76687635687995 86.03588844276965,144.84141659154557 85.20398392435163,141.78738552948926 85.08514042175375,140.8619173783809 84.84745341655798,140.02899437505403 84.68899541324936,139.19606979194214 84.13439240097068,137.71531107698684 83.85709089483134,136.60473876420292 83.38171688420698,135.2165194240515 83.0648008773569,133.87456989040948 82.94595737475902,132.9953593519167 82.90634287404828,132.11614705325337 82.98557187570259,132.06987267293152 83.10441537830047,132.16242142856936 83.69863289128989,132.94908506423235 84.05516339931637,133.7357472908334 84.84745341655798,135.95690361814923 85.83781593828462,139.6588058664638 86.6301059559919,143.08303766473546 87.06586546543986,144.61005134542938 87.3431669715792,144.7488705077849 88.88813250558451,144.47123213938903 90.90847204998136,143.68458914244547 91.66114756651223,143.26813051488716 92.65151008823887,142.89794473652728 93.87955961516127,142.71285173032084 95.70182665530592,142.01875226257835 96.53373117372394,141.55601867454243 97.52409369545057,141.27837828782503 98.79175772354938,140.67682351419353 101.16862777573988,139.9827208284405 101.92130329227075,139.6588058664638 105.09046336193569,138.59451216610614 106.47697089263238,137.90040618935018 106.67504339688458,137.6227634914394 106.67504339688458,137.25257295460324 105.68468087515794,133.82829569544992 105.24892136547714,133.04163363474072 105.01123436028138,132.39379323244793 103.26819632179104,128.36790645259316 102.95128031494096,126.84083629515953 102.95128031494096,125.49886116676498 103.03050931659527,125.2674857302336 103.2285818210803,125.08238529326627 104.02087183832191,124.61963385922718 107.50694791506976,123.37020255168318 108.734997442225,123.04627533597522 109.32921495521441,123.0 110.04227597080171,123.32392724975944 110.59687898308039,123.74040479128598 112.10223001614213,125.91533664558665 113.36989404424094,128.04398292355472 113.76603905274533,129.24712625559187 114.47910006856546,130.72791352393688 115.0733175817877,131.74595187447267 115.82599309808575,133.45810195998638 116.34098160942085,134.19848911874578 117.01442812429741,135.4941636431031 117.09365712595172,135.81808167687268 117.01442812429741,135.95690361814923 116.73712661815807,136.09572551568272 115.94483660068363,136.23454736926942 114.20179856242612,136.65101266661077 112.93413453456014,136.83610822763876 110.51764998142608,137.57648969144793 109.13114245072939,137.80785864286008 108.49731043702923,138.0392274725018 107.15041740727611,138.31686990702292 106.635428895941,138.59451216610614 105.36776486807503,138.96470157173462 102.04014679486863,140.21408851223532 100.2971087563783,140.67682351419353 99.22751723299734,141.13955802848795 95.7414411562495,142.4814853630087 94.3945481267292,142.8053982431884 93.91917411610484,143.0367644399521 93.28534210240468,143.49949646781897 91.58191856485792,143.91595487605082 90.19541103416122,144.47123213938903 89.95772402896546,144.7951435521245 89.95772402896546,144.98023568073404 90.11618203273974,145.3041467180592 90.7500140464399,145.9056951534876 90.9480865506921,146.27587839664193 91.10654455423355,147.4789717819076 91.30461705871858,148.17306262030615 91.77999106911011,148.9596975778113 91.898834571708,149.51496846438386 92.17613607784733,150.25532855433994 92.80996809178032,152.33758461632533 93.76071611279622,154.88255084166303 94.43416262743995,157.14987196671427 94.83030763617717,158.0290341518994 95.58298315294087,160.71278151628212 95.89989915979095,161.45312273103627 96.33565866947174,162.88753028362407 96.7714181789197,163.85922306103748 96.81103267963044,164.3682041343127 96.69218917726539,164.78464275537408 96.7714181789197,165.3398936361773 96.92987618246116,165.6175188133493 97.56370819639415,166.12649784897803 97.80139520158991,166.63547629481764 98.91060122614726,170.105768161593 99.34636073559523,171.21625576843508 99.3859752365388,171.54014745834866 99.34636073559523,171.67895810955088 99.18790273205377,171.8177687167772 99.30674623488449,172.3730107070587 99.46520423819311,172.6506314391154 99.94057824858464,172.92825199564686 100.21787975472398,173.3909525332274 100.69325376511551,174.82532110266038 101.24785677739419,177.0" stroke="#4dd2ff" stroke-linecap="round" stroke-linejoin="round" stroke-width="0.5"><title>2023-08-02 7.3km</title><desc>9569357200</desc></polyline><polyline fill="none" points="171.66995776304975,177.0 171.50645572785288,176.57031717244536 170.934198604431,175.5677223240782 170.48456800775602,174.4696397073567 169.9940619021654,172.75089635772747 169.9940619021654,172.4166955051187 170.19843944604509,171.93926528826705 170.15756393736228,171.4618345684139 169.87143537588418,171.03214649055735 169.5035557965748,170.88891704083653 169.2583027437795,170.65020119061228 168.89042316447012,169.79082308872603 168.23641502391547,167.8810881395184 167.6641579004936,166.59201249977923 167.37802933878265,164.96872684921254 167.37802933878265,164.5390326155466 167.25540281250142,164.0615941004362 166.8057722155936,163.48866721824743 166.5605191627983,163.01122759652208 165.94738653069362,161.43567327648634 165.33425389858894,159.5259031211317 164.96637431927957,158.80973723818897 164.7211212667171,157.47289122873917 163.16785193234682,153.22360451036366 162.2277152298484,150.40663966847933 161.81896014185622,149.49947777180932 161.24670301866718,147.6374029261642 161.24670301866718,147.016709610587 161.1649520008359,146.44376118012588 161.0832009834703,145.0591328162409 160.91969894827344,144.29519811467617 160.6335703865625,143.4835160834482 160.7561969126109,143.2447857975494 161.12407649192028,143.0538014782651 162.2277152298484,142.67183259813464 163.53573151142336,142.00338628343889 165.29337838990614,141.28719270930742 171.54733123653568,138.89987262009527 175.3896290641278,137.56296787661267 175.96188618731685,137.3242344718019 176.28889025747776,137.08550094094244 176.41151678422466,136.79902053819387 176.5341433105059,136.03507191158133 176.37064127530903,135.0323873848538 175.1852515200153,131.69008960499195 174.20423930860125,129.11172875901684 173.95898625603877,128.20452423134702 173.01884955330752,126.29461402579909 172.4465924303513,124.43244382424746 172.201339377556,123.33423729732749 171.9969618334435,123.14324458624469 171.7517087806482,123.0 171.30207818374038,123.0 170.6889455516357,123.28648912711651 169.13567621749826,123.85946683801012 167.9094109532889,124.1459554216417 167.0101497597061,124.48019187379396 165.53863144293427,124.81442807929125 164.43499270500615,125.33965590407024 162.35034175612964,126.10362256242661 160.83794793044217,126.53335324162617 159.40730512235314,127.05857907410245 156.3007664536126,128.01353357319022 153.8482359254267,128.87299090161105 153.03072574944235,129.06398119754158 151.7635849765502,129.25497141308733 148.37091774586588,130.4486584365368 146.3680178145878,131.35585847112816 144.40599339199252,131.8810787135153 143.75198525120504,132.16756222568802 143.6293587249238,132.45404555668938 143.46585668972693,133.26574734403403 143.79286075988784,134.36392980106757 144.65124644502066,136.2260591890954 145.42788111208938,138.3269139273907 145.95926272659563,139.99804142327048 146.3680178145878,141.04846126626944 147.55340756988153,144.67716562649002 148.207415710669,146.49150691044633 148.8205483427737,147.44642045805813 149.22930343076587,147.6374029261642 149.84243606287055,147.54191170219565 151.1095768357627,147.016709610587 154.21611550473608,145.96630360156996 154.66574610141106,145.72757462362642 155.19712771568447,145.29786214636988 155.2380032246001,145.1546245632926 155.1562522072345,144.62941970507381 154.4613685575314,142.3376095640706 153.6029828726314,138.61339336432866 153.3986053285189,138.08818092491128 152.17234006430954,133.4089886850852 151.7635849765502,131.54684772054316 151.7635849765502,131.21261648109066 151.8453359939158,131.06937444585492 152.17234006430954,131.26036381616723 152.4584686262533,131.69008960499195 152.9489747316111,132.97926452633692 153.43948083743453,133.93420654788497 154.093488978222,136.89451402591658 154.33874203101732,137.51522120571462 154.91099915420637,139.80705573549494 155.1562522072345,140.5232516490505 155.44238076847978,141.62141651811544 155.76938483887352,142.76732484836248 155.8920113653876,143.34027792690904 156.01463789190166,143.5790081625746 156.1372644181829,143.62675419452717 157.36352968239225,143.4835160834482 158.91679901676252,142.8150709659385 161.57370708906092,142.00338628343889 162.63647031784058,141.71690898950328 163.1269764234312,141.52592402644223 164.51674372283742,141.00071496260352 165.94738653069362,140.66649069602136 167.21452730358578,140.0457878325251 171.22032716637477,138.5179002387158 174.7356209231075,137.3719811627816 175.51225559040904,137.13324765724246 175.75750864320435,137.1809943683911 175.75750864320435,137.3242344718019 175.59400660800748,137.46747452981072 174.12248829123564,138.2314207413292 173.3049781152513,138.4701536684588 171.71083327173255,139.18635169477784 169.13567621749826,139.99804142327048 165.6612579692155,141.43043151454185 163.00434989691712,142.3376095640706 161.94158666813746,142.62408646557014 159.97956224554218,143.34027792690904 159.16205206955783,143.67450022153207 158.95767452567816,143.81773827242432 158.91679901676252,143.9609762778564 158.95767452567816,144.2474521532131 159.40730512235314,145.10687869231333 159.69343368406408,146.2527782091638 160.2248152983375,147.58965731671196 160.7561969126109,148.30584093055222 160.8788234393578,148.59231405920582 162.18683972093277,152.3164482524444 162.96347438823432,154.9424219141074 164.0262376172468,157.7593585626455 164.80287228431553,160.19432359101484 165.6612579692155,162.62927553715417 165.90651102201082,163.67964292599936 165.94738653069362,164.5390326155466 166.02913754829206,164.9209830655309 166.23351509240456,165.35067693714518 166.64227018039674,165.78037040118943 167.6232823918108,168.21529233650654 167.99116197112016,169.4566200534755 168.604294602992,171.22311901993817 168.604294602992,171.4140914688178 168.3590415501967,171.74829306072206 168.31816604128107,171.89152223887504 168.604294602992,172.46443849912612 169.38092927029356,173.3238115318236 170.15756393736228,174.94706725885044" stroke="#4dd2ff" stroke-linecap="round" stroke-linejoin="round" stroke-width="0.5"><title>2023-07-31 6.0km</title><desc>9555944449</desc></polyline><polyline fill="none" points="48.325883004348725,265.31099139896105 47.62475601444021,264.0826178198913 46.35396334552206,260.7557571156067 46.26632247166708,260.39747845043894 46.310142908710986,260.0391995210375 46.70452684024349,259.6809203273733 46.70452684024349,259.4761892411043 46.26632247166708,258.75962975935545 45.828118103090674,258.60608116161893 44.51350499736145,255.53509901513462 43.85619844426401,253.6413170163578 43.33035320183262,251.3892423286161 42.58540577511303,250.05846601564554 41.27079266915098,246.21966776787303 40.92022917419672,245.55427298735594 40.52584524266422,243.86518983653514 40.17528174747713,242.68794659202104 39.47415475780144,240.6405602422601 39.035950388992205,239.66804870363558 38.378643836127594,237.7230197863828 37.633696409408,235.82916835843935 37.50223509897478,235.06138864948298 37.15167160378769,234.1400513970002 36.88874898268841,232.34855729318224 36.187621993012726,231.01772882521618 36.09998111939058,229.68689671179163 36.275262866634876,229.22622320777737 36.538185487734154,228.97029329455108 39.035950388992205,227.997758394602 39.956179563421756,227.48589713900583 41.31461310596205,226.97403534402838 42.059560532681644,226.61573176670936 43.19889189116657,226.25742792512756 43.94383931788616,225.8479374969029 46.22250203485601,224.9265827711497 47.142731208819896,224.6706505928305 49.28993261535652,223.9028532487864 52.839388001477346,222.82793492850033 53.102310622576624,222.67437497436185 53.1461310593877,222.57200164458482 52.839388001477346,222.52081497159088 51.7876975168474,222.82793492850033 50.29780266317539,223.33980109202093 49.28993261535652,223.80048017800436 48.238242130493745,224.0564128146798 45.43373417132534,225.02895560473553 44.20676193921827,225.23370120720938 43.76855757040903,225.02895560473553 43.50563494930975,224.77302348031662 43.02361014368944,223.74929363434785 42.01574009587057,220.57571740209823 41.31461310596205,219.04010855662636 39.956179563421756,215.25225264957407 39.73707737913355,214.48444041932817 39.211232136702165,213.40950125842937 39.123591262847185,213.0 39.298873010324314,213.30712597622187 39.64943650527857,214.17731518758228 39.956179563421756,215.35462752179592 40.48202480585314,216.3271877327934 41.31461310596205,218.1699280559551 41.92809922224842,220.37096983654192 42.804507959401235,222.62318831225275 43.19889189116657,224.26115882696467 43.15507145435549,225.18251481471816 42.84832839644514,225.5408194491465 42.23484228015877,225.8479374969029 37.633696409408,227.84420007455628 33.90895927604288,229.07266527594766 32.33142354898155,229.4821529861365 31.63029655907303,229.533338925743 31.455014811595902,229.4821529861365 31.279733064118773,229.1750372359529 31.06063087983057,228.30487488914514 30.403324326965958,226.61573176670936 29.526915589580312,224.00522629817715 29.263992968481034,222.77674828257295 28.29994335724041,219.96147444634698 27.774098115041852,217.24855876801303 27.554995930520818,216.6343116054777 27.37971418327652,216.53193700269912 27.248252872843295,216.53193700269912 26.985330251511186,216.8390607459005 26.985330251511186,217.35093321977183 27.817918551852927,219.29604370114976 28.519045541528612,221.3435200045933 30.403324326965958,227.84420007455628 30.929169569164515,230.24994151241845 30.841528695542365,230.4546849144681 30.05276083177887,231.22247190377675 30.490965200820938,230.96654304218828 30.490965200820938,230.4546849144681 30.315683453110978,229.78926854216843 29.833658647723496,228.40724701079307 29.351633842103183,226.61573176670936 28.38758423109539,222.26488152582897 27.642636804375798,220.11503525820444 26.985330251511186,217.55568205821328 26.853868940845132,216.6343116054777 26.985330251511186,216.3271877327934 27.248252872843295,216.27600040173274 27.554995930520818,216.42956237844191 27.686457241186872,216.58312430678052 28.12466160999611,218.1699280559551 28.519045541528612,218.7841732769739 28.650506852427498,219.34723071398912 29.001070347381756,220.16622218463453 29.22017253166996,221.13877276267158 29.746017774101347,222.52081497159088 29.921299521345645,223.80048017800436 30.490965200820938,225.74556483590277 30.666246948065236,226.76929047514568 31.192092190496624,228.81673528192914 31.367373937973753,229.12385125862784 31.586476122261956,229.2774091742467 32.50670529645868,229.12385125862784 33.865138839231804,228.71436324639944 36.275262866634876,228.15131666621892 37.23931247764267,227.74182783422293 38.816848204704,227.2811524857534 39.91235912637785,226.8204767004645 42.1910218433477,226.00149644777412 43.54945538635366,225.28488759428728 44.51350499736145,225.13132841675542 46.485424656188115,224.26115882696467 48.19442169368267,223.595733971335 51.086570526938885,222.77674828257295 52.48882450652309,222.26488152582897 52.70792669081129,222.21369482041337 52.88320843828842,222.31606822583126 52.839388001477346,222.57200164458482 52.57646538014524,222.77674828257295 50.429263973841444,223.69810708553996 47.71239688829519,224.61946414085105 44.6011458709836,225.89912381928298 41.84045834862627,226.8204767004645 37.98425990459509,228.35606095258845 36.538185487734154,228.7655492668855 36.31908330344595,229.02147928791237 36.187621993012726,229.43096704120398 36.187621993012726,229.99401213854435 36.4067241770681,230.76179985582712 36.84492854587734,231.73432922258507 37.283132914453745,232.5532998108538 37.4145942251198,233.11634128948208 37.32695335149765,233.6793821156025 36.75728767225519,234.1400513970002 36.66964679863304,234.39597858686466 36.713467235444114,234.65190564194927 37.94043946755119,238.3884252922726 39.211232136702165,241.76662380227936 40.48202480585314,245.55427298735594 40.876408737385646,246.5267727439641 42.01574009587057,250.00728223851183 42.27866271720268,251.03095675678924 42.14720140630379,251.6963440370746 42.23484228015877,252.1058126796852 42.41012402786873,252.46409745892743 42.892148833256215,252.92474892974133 44.33822324988432,257.2241415976605 44.95170936593786,258.6572640329832 44.99552980274893,259.01554398136795 44.644966307794675,259.32264086959185 44.7764276182279,259.78328583817347 44.95170936593786,260.141564956255 45.389913734514266,260.4486611330067 45.69665679242462,260.9093050340598 46.35396334552206,262.59832893527346 46.79216771409847,263.92907090409426 47.23037208290771,265.05508049274795 47.23037208290771,265.7716306906077 48.01913994643837,267.0" stroke="#4dd2ff" stroke-linecap="round" stroke-linejoin="round" stroke-width="0.5"><title>2023-07-29 5.9km</title><desc>9543628546</desc></polyline><polyline fill="none" points="112.29285213374533,265.98017230583355 111.87926084687933,264.8529919536086 111.87926084687933,264.316238528525 112.10903378413059,263.6184582307469 112.06307919695973,263.35008093871875 111.69544249749742,262.65229931799695 111.09803286101669,262.3302459398401 110.82230533659458,262.00819235824747 110.6844415741507,261.68613857321907 110.50062322453596,261.04203039221466 110.3627594623249,259.75381158769596 110.08703193766996,258.46558952663327 109.30580395180732,256.69427887472557 108.57053055311553,254.2251689041732 108.06503009144217,253.58105129183969 107.78930256702006,253.04428599309176 107.19189293053932,251.32663323695306 106.13493742002174,248.69646623241715 105.90516448277049,247.4082162154955 105.12393649690785,244.34860937099438 104.9401181472931,242.899315505696 104.48057227302343,241.77208409371087 103.33170758769847,239.62496974301757 102.78025253862143,238.01462804194307 102.64238877641037,237.1020988188102 102.22879748977721,235.9211762212799 102.04497913992964,235.16967859782744 101.44756950368173,233.7203586222604 101.35566032887436,233.23725104756886 101.49352409085259,232.16367701924173 101.35566032887436,231.1437795968377 101.40161491627805,230.9827429751167 101.5394786784891,230.87538519885857 102.8721617134288,230.60699065966764 107.7433479798492,228.72822492587147 109.76534982584417,228.19143344374606 111.60353332245722,227.38624516013078 113.90126269310713,226.15162065328332 114.86630902905017,225.88322362559848 116.01517371460795,225.72218534105923 116.79640170070343,225.34642914583674 117.85335721098818,225.13171119539766 118.40481226006523,224.9169931547367 118.5886306099128,224.70227502333 118.54267602227628,224.64859547646483 118.31290308549069,224.5949159237789 116.75044711329974,224.9169931547367 112.29285213374533,226.52737625467125 110.3627594623249,227.0104901921004 109.44366771401837,227.439924418577 108.57053055311553,227.6546413959004 107.19189293053932,228.29879178549163 106.22684659482911,228.51350840099622 104.71034521004185,229.1039786268957 103.60743511212058,229.4260530071915 102.32070666458458,230.07020115706837 100.5284777553752,230.4996328043635 97.17379287374206,231.51953151630005 96.48447406245396,231.6805679682875 96.11683736345731,231.6268891565851 95.93301901360974,231.51953151630005 95.0598818527069,228.5671875406406 94.41651762882248,227.22520735056605 93.7271988177672,225.18539069150575 93.40551670570858,223.68236266396707 92.80810706922784,221.6425318196998 92.30260660778731,219.60269280779175 91.61328779649921,217.45548502419842 91.70519697130658,216.54291897558141 91.79710614611395,217.29444407549454 91.88901532092132,219.06589171028463 92.90001624426804,224.27283848938532 93.26765294349752,225.56114700547187 94.14079010440037,228.24511261750013 94.41651762882248,229.53341108874884 94.64629056607373,231.03642185463104 94.78415432828479,232.86150039493805 94.46247221645899,234.04243008425692 93.77315340493806,234.52553689549677 90.234650173923,235.65278434025822 88.99387631402351,235.97485458065057 88.35051208990626,236.08221128222067 88.07478456571698,235.9211762212799 87.75310245365836,235.65278434025822 86.74210153054446,233.93507295288146 85.27155473316088,230.23123806720832 84.30650839745067,228.406150104478 83.1116891244892,225.13171119539766 82.60618866304867,224.21915889711818 82.42237031343393,223.4676440123585 82.1006882013753,222.55508873338113 81.73305150214583,221.10573287162697 81.4113693900872,220.13949333963683 81.5032785651274,219.71005295944633 81.68709691450931,219.49533263361081 82.1925973764155,219.1732519750949 83.70909876096994,218.9585314230062 84.21459922241047,218.7438107804046 84.85796344652772,218.26068900362588 85.22560014552437,218.1533285465557 86.05278271925636,218.1533285465557 87.8450116282329,218.42172964673955 90.09678641171195,217.99228781845886 90.96992357284762,217.50916532916017 92.80810706922784,216.00611465406837 93.81910799257457,215.41562924697064 97.26570204878226,214.18097572948318 100.43656858056784,213.53680748917395 101.95306996512227,213.05368077429011 102.41261583915912,213.0 102.78025253862143,213.26840381522197 103.51552593731321,214.4493789227563 104.98607273469679,216.4892385689309 105.07798190950416,217.18708341487218 105.81325530796312,219.1732519750949 106.1808920071926,220.83733318536542 106.87021081871353,222.93084698735038 107.32975669298321,224.004440471821 107.92716632923111,225.13171119539766 108.47862137830816,226.52737625467125 108.66243972769007,226.79577294323826 108.89221266517416,226.95681088842684 109.30580395180732,227.0104901921004 110.17894111271016,226.90313157893252 112.20094295893796,226.3663381737424 113.3957622316666,225.88322362559848 114.86630902905017,225.6148264564108 115.87730995216407,225.34642914583674 117.20999298733659,224.75595456466544 118.22099391021766,224.54123636556324 118.5886306099128,224.64859547646483 118.49672143510543,224.86331363028148 118.03717556083575,225.07803169370163 115.87730995216407,225.66850590147078 113.57958058151416,226.42001753981458 112.52262507076375,226.58105560357217 110.6844415741507,227.439924418577 108.11098467907868,228.29879178549163 105.72134613338858,228.94294136058306 103.83720804913901,229.85548519762233 102.41261583915912,230.2849170260597 101.07993280421942,230.60699065966764 99.60938600706868,231.3584950133809 99.37961306981742,231.6268891565851 99.28770389501005,231.8952831585775 99.33365848264657,232.27103452384472 99.47152224485762,232.5931069018552 100.20679564331658,233.34460832591867 100.57443234254606,234.04243008425692 100.75825069239363,235.4380707333912 101.35566032887436,236.7263510164339 102.22879748977721,239.3029018099769 102.68834336381406,240.48381656903075 103.2397984128911,242.09415046597132 103.6533896997571,243.81183434609557 104.29675392340869,245.3684803606011 105.16989108431153,248.0523416310316 106.2728011822328,251.64869356970303 106.73234705626965,252.88325629307656 107.14593834313564,254.60090380196925 107.0540291685611,255.0303147743689 107.14593834313564,255.4597253850079 107.3757112803869,256.15751685533905 107.83525715442374,256.3722217309987 107.9731209166348,256.5332503282698 108.11098467907868,257.0700119519024 109.90321358805522,261.7398142181337 110.04107735049911,262.43759708851576 109.76534982584417,263.1353790034191 109.99512276309542,263.9405107945786 110.13298652530648,264.15521239081863 110.82230533659458,264.7993166364613 111.05207827338018,265.22871901473263 111.69544249749742,267.0" stroke="#4dd2ff" stroke-linecap="round" stroke-linejoin="round" stroke-width="0.5"><title>2023-07-26 6.1km</title><desc>9525965649</desc></polyline><polyline fill="none" points="170.95155015098862,263.8022177545063 170.40397264342755,262.38604951347224 169.97373317321762,260.9698766483634 169.62171906116419,259.46233271082747 169.15236691199243,257.81773334823083 169.0741415536031,257.22384871260147 168.1745499339886,255.57924086178537 167.31407099380158,252.9295817624661 167.2358456356451,252.56411027151626 167.27495831460692,252.10727047472028 167.3531836727634,251.83316636574455 167.31407099380158,251.51337801956106 167.04028223990463,251.0108529989957 166.3753666949924,250.64537989118253 166.29714133683592,250.4626432217192 165.82778918743134,248.6352722926531 164.81085953046568,246.21399395170738 164.7326341723092,245.20893104744027 164.81085953046568,244.79776827889145 164.77174685150385,244.56934435013682 164.4979580976069,244.06681128338096 163.911267911084,243.51859272818547 163.63747915741988,242.9703734802315 162.89433825411834,240.91454512730706 162.03385931369849,238.0820545440365 161.01692965673283,235.56934579912922 160.03911267919466,232.371331794071 159.68709856714122,231.64035385282477 159.56976052979007,231.09211958837113 159.2568590969313,230.1783942739421 158.9439576640725,228.8991755991883 158.74839426856488,227.8940725644934 158.59194355201907,227.30014694898273 158.43549283547327,226.34072692861082 158.08347872341983,225.28993113711476 158.00525336526334,224.60462816231302 158.08347872341983,224.2848197367275 158.23992943996564,224.1477589107235 159.88266196264885,223.50814114967943 160.70402822387405,222.9598966035992 161.60361984348856,222.64008696496603 162.6987748586107,222.00046698006918 165.28021167987026,221.31515880624647 166.4535920531489,220.76691148753162 168.37011332949623,220.3100381924305 168.72212744154967,220.127288739488 169.19147959095426,219.80747701175278 170.20840924791992,219.5333524857706 171.3426769420039,218.98510291421553 172.8289587481413,218.57391528051812 173.14186018123291,218.34547753783409 173.0636348228436,218.2541024069069 172.75073338998482,218.299789974757 171.96847980772145,218.52822774159722 167.11850759806111,220.40141288982704 165.90601454582065,220.76691148753162 161.99474663450383,222.22890279715648 160.977816977771,222.45733849413227 158.70928158937022,223.50814114967943 157.65323925344273,223.7365761725523 156.71453495463356,224.10207195905969 155.2673658276908,224.4675674374157 153.85930937970988,224.78737572825048 153.4681825884618,224.78737572825048 153.3117318721488,224.65031506094965 152.88149240170605,222.64008696496603 152.56859096884727,221.7720310424629 151.3560979166068,217.06622395434533 151.04319648374803,216.2895324374258 150.65206969249994,214.27926558000036 150.3000555804465,213.63963326183148 150.18271754332818,213.59394520302885 149.8698161104694,213.63963326183148 149.67425271472894,213.73100936505944 149.67425271472894,213.86807348375442 149.8698161104694,214.91889695468126 150.6911823716946,217.56878831237555 150.96497112535872,218.71097786835162 151.62988667050377,221.04103523358935 152.25568953622133,223.55382816394558 152.68592900619842,226.2493534825917 152.52947828988545,226.52347376284888 152.37302757357247,226.5691604592721 150.88674576720223,227.16308707604185 147.9141821549274,227.98544566394412 147.0145905353129,228.442310872284 146.85813981876709,228.71642976618023 146.89725249796174,228.76211623166455 147.24926661001518,228.5336838560761 150.18271754332818,227.5285799744015 152.25568953622133,226.7062205199618 152.52947828988545,226.52347376284888 152.68592900619842,226.15798001730582 152.68592900619842,225.5183652214182 152.21657685679384,223.6908891776693 152.13835149887018,222.9142095267598 150.84763308800757,218.1170396747766 150.73029505065642,217.2946623711032 149.9480414686259,214.05082557472633 149.75247807288542,213.1370643498085 149.75247807288542,213.0 150.06537950597703,213.04568812137586 150.26094290148467,213.2284405589453 150.57384433434345,214.0051375591429 151.16053452086635,216.60934675997123 151.47343595395796,218.1627272569458 151.70811202866025,218.93941541851382 151.78633738681674,219.6247273469926 152.02101346151903,220.40141288982704 153.27261919295415,224.60462816231302 153.42906990949996,224.83306260764948 153.58552062581293,224.92443635204108 153.93753473786637,224.92443635204108 155.03268975298852,224.60462816231302 156.9100983501412,223.82795014805743 159.1004083803855,223.1883319153858 160.977816977771,222.41165136444033 162.07297199289314,222.09184132132214 163.1681270080153,221.68065663371817 164.22416934394278,221.17809704170213 165.3975497172214,220.94966067082714 167.86164850136265,219.99022659935872 169.42615566565655,219.3962901579216 172.47694463608786,218.57391528051812 172.75073338998482,218.57391528051812 172.8289587481413,218.6196028146951 172.8289587481413,218.71097786835162 172.711620711023,218.8937279181555 172.28138124058023,219.07647789095063 169.81728245667182,219.80747701175278 168.13543725479394,220.44710023148218 164.4979580976069,221.63496942206984 160.5084648283664,223.09695780507172 159.45242249243893,223.59951517326408 156.94921102933586,224.37619359660312 156.40163352200761,224.65031506094965 156.24518280522898,224.83306260764948 156.28429548442364,225.01581007710774 156.40163352200761,225.28993113711476 156.9100983501412,225.88385950608063 157.066549066687,226.2493534825917 157.49678853689693,227.93975911659072 157.96614068606868,228.8991755991883 158.90484498487785,232.05152909632307 160.0,235.24954545981018 160.7431409030687,237.71657054050593 161.52539448533207,239.7267287480645 162.62054950045422,242.92468851152807 162.8552255751565,243.9754415723146 162.8552255751565,244.61502914546872 163.1681270080153,245.39166993054096 163.5592537992634,245.71146279069944 164.0286059482023,246.6708399564377 165.43666239641607,250.55401156609878 165.55400043376721,251.0108529989957 165.28021167987026,251.37632579889032 165.24109900090843,251.51337801956106 165.31932435906492,251.7874823306338 165.51488775457256,252.19863847258966 166.02335258293897,252.60979422472883 166.17980329948477,252.88389784301398 167.3531836727634,255.99039340909803 167.5096343893092,256.5842797337973 167.62697242666036,257.3608990852663 168.3310006505344,258.6400338090607 169.58260638220236,262.6144640586281 170.87332479283214,266.2690804224403 170.9124374720268,266.5431754082674 170.71687407628633,266.86295267305104 170.755986755481,267.0 171.02977550937794,267.0 171.38178962119855,266.86295267305104 172.0075924869161,266.45181043221965" stroke="#4dd2ff" stroke-linecap="round" stroke-linejoin="round" stroke-width="0.5"><title>2023-07-23 5.7km</title><desc>9507119362</desc></polyline></svg>