<?xml version="1.0" encoding="utf-8" ?>
<svg baseProfile="full" height="300mm" version="1.1" viewBox="0,0,200,300" width="200mm" xmlns="http://www.w3.org/2000/svg" xmlns:ev="http://www.w3.org/2001/xml-events" xmlns:xlink="http://www.w3.org/1999/xlink"><defs /><rect fill="#222222" height="300" width="200" x="0" y="0" /><text fill="#FFFFFF" style="font-size:12px; font-family:Arial; font-weight:bold;" x="10" y="20">Over 5km Runs</text><text fill="#FFFFFF" style="font-size:4px; font-family:Arial" x="10" y="280">ATHLETE</text><text fill="#FFFFFF" style="font-size:9px; font-family:Arial" x="10" y="290">Melt</text><text fill="#FFFFFF" style="font-size:4px; font-family:Arial" x="120" y="280">STATISTICS</text><text fill="#FFFFFF" style="font-size:3px; font-family:Arial" x="120" y="285">Number: 14</text><text fill="#FFFFFF" style="font-size:3px; font-family:Arial" x="120" y="290">Weekly: 2.8</text><text fill="#FFFFFF" style="font-size:3px; font-family:Arial" x="141" y="285">Total: 86.0 km</text><text fill="#FFFFFF" style="font-size:3px; font-family:Arial" x="141" y="290">Avg: 6.1 km</text><text fill="#FFFFFF" style="font-size:3px; font-family:Arial" x="167" y="285">Min: 5.3 km</text><text fill="#FFFFFF" style="font-size:3px; font-family:Arial" x="167" y="290">Max: 9.2 km</text><polyline fill="none" points="42.75027587916702,75.60000000000582 42.16692415392026,74.6006798161543 41.31134162354283,72.23864108484122 41.31134162354283,71.46643330872757 41.46690208371729,70.92134463423281 41.42801196849905,70.73964825630537 41.155781163601205,70.23998282218236 40.68909978331067,69.9220136081567 40.494649208383635,69.64946838087053 39.13349518249743,66.24263850651914 38.939044607337564,65.56126930183382 38.74459403241053,64.51650109665934 38.66681380220689,63.789704330672976 38.51125334226526,63.51715522757149 37.96679173200391,63.06290633956087 37.694560926640406,62.517807042517234 36.91675862646662,60.01942644681549 36.25562667124905,57.384754864295246 35.63338483078405,55.931136065599276 35.0889232205227,54.477512366342125 34.89447264536284,53.84155045702937 34.54446161026135,53.160161656094715 34.07778022997081,51.70652861529379 33.68887907988392,50.20746440929361 33.53331861970946,49.84405411980697 33.02774712443352,48.072424572717864 32.79440643428825,46.30078774606227 32.79440643428825,45.43767998821568 32.36661516921595,43.666032335488126 32.599955859361216,43.39347051194636 34.11667034495622,42.89377338817576 34.89447264536284,42.39407568506431 36.722308051539585,41.758095952740405 37.34454989153892,41.621814459358575 38.12235219194554,41.21296972109121 38.97793472232297,40.985833587736124 39.95018759788945,40.53156096243765 41.38912185351364,40.07728785829386 42.78916599438526,39.57758689086768 44.22810025000945,39.21416764182504 46.05593565572053,38.57818321874947 46.794847841374576,38.26019065536093 46.87262807134539,38.1239080564701 46.67817749641836,38.07848051385372 45.82259496580809,38.16933559416793 40.76688001328148,39.623014275566675 39.172385297715664,40.16814251738833 38.23902253713459,40.667842800176004 37.18898943159729,41.07668805550202 33.22219769959338,42.5303569342359 30.77212045318447,43.25718953565229 28.32204320700839,43.847740122146206 27.89425194193609,43.893167056841776 27.77758159697987,43.847740122146206 27.699801366776228,43.71145928930491 27.58313102182001,43.16633552746498 27.272010101703927,42.39407568506431 25.599735155701637,36.30680262079113 24.977493315702304,34.30797779583372 24.549702050397173,32.763424993056105 24.433031705208123,32.445428140839795 24.35525147500448,32.39999999999418 24.083020670106634,32.717996885679895 24.23858113028109,33.80827014159877 25.01638343045488,36.942790394532494 25.755295616108924,39.39587730457424 25.988636306254193,40.48613367351936 26.299757226137444,41.48553292301949 26.45531768607907,42.712065199477365 26.8831089513842,44.84713157947408 26.921999066369608,45.48310675544781 26.844218836398795,45.71024051948916 26.727548491442576,45.80109399164212 25.599735155701637,46.39164109376725 23.966350325150415,46.98218738712603 21.282932388596237,47.7090124838287 21.12737192865461,47.61815941368695 21.166262043640018,47.52730632445309 21.321822503814474,47.481879772705724 21.749613768886775,47.61815941368695 22.099624803988263,47.57273287139833 24.00524044013582,46.93676077778218 26.02752642100677,46.482494422321906 26.183086881181225,46.39164109376725 26.610878146253526,45.98280087846797 25.988636306254193,46.255361065123 24.705262510338798,46.57334773175535 22.25518526416272,47.39102665474638 21.399602733785287,47.57273287139833 21.24404227361083,47.481879772705724 21.321822503814474,47.30017351763672 21.827393998857588,47.481879772705724 22.955207334598526,47.163893776159966 26.727548491442576,45.80109399164212 26.960889181587845,45.61938702824409 27.077559526544064,45.43767998821568 27.038669411558658,45.16511928476393 26.766438606427982,44.12030165849137 26.377537456108257,42.07608593616169 25.755295616108924,39.668441655347124 25.44417469576001,38.214763127150945 24.860822970280424,36.6247966249648 24.66637239512056,35.08025212222128 24.316361360251904,34.17169394760276 24.083020670106634,33.21770580348675 24.083020670106634,32.763424993056105 24.199691015062854,32.581712534767576 24.394141590222716,32.581712534767576 24.744152625557035,32.80885309554287 25.405284580774605,34.67140118058887 25.755295616108924,36.30680262079113 26.183086881181225,37.66963241549092 26.377537456108257,39.07788534439169 27.077559526544064,41.394678541546455 27.699801366776228,43.120908516226336 27.816471711965278,43.847740122146206 28.01092228712514,43.98402091176831 28.749834472313523,43.847740122146206 30.266548958141357,43.348043524689274 32.2499448240269,42.84834634812432 34.4277912650723,42.03065880999202 36.21673655603081,41.07668805550202 38.35569288209081,40.34985177809722 40.22241840302013,39.89557848253753 41.46690208371729,39.44130470830714 45.74481473583728,38.1239080564701 46.71706761117093,37.9876254145056 46.63928738120012,38.1239080564701 46.367056576069444,38.26019065536093 44.53922117012553,38.98703045549337 43.6836386397481,39.21416764182504 42.78916599438526,39.57758689086768 42.05025380873121,39.75929640047252 38.90015449235216,40.94040634678095 37.77234115684405,41.25839693332091 36.68341793632135,41.71266879304312 35.827835405943915,42.03065880999202 34.23334069014527,42.712065199477365 32.949966894462705,43.03005447934265 31.822153558954597,43.48432447240339 31.00546114332974,43.71145928930491 30.77212045318447,43.847740122146206 30.616559993242845,44.12030165849137 30.65545010822825,44.57457050276571 31.12213148851879,45.43767998821568 31.861043673940003,47.52730632445309 32.36661516921595,48.43583635534742 32.405505284201354,49.162659001594875 33.14441746962257,50.61630061859614 33.80554942484014,52.38791971333558 33.92221977002919,52.93303181667579 34.46668138029054,54.341234893363435 34.85558253037743,55.74943337106379 35.32226391043514,57.20305278239539 35.7500551759731,58.247838707466144 36.45007724617608,60.56452890223591 36.76119816629216,61.74558185855858 37.150099316611886,62.608656973112375 37.30565977655351,63.244605952175334 37.266769661568105,63.789704330672976 37.46122023672797,64.56192585386452 37.53900046669878,64.6982000968419 37.88901150180027,64.97074845343013 38.044571961974725,65.19787195223034 38.74459403241053,67.5145248080662 39.716846907977015,70.19455866303178 39.716846907977015,70.37625527076307 39.56128644780256,70.73964825630537 39.75573702296242,71.37558524409542 40.144638173049316,71.78440138392034 40.494649208383635,72.28406502850703 40.57242943835445,72.60203250093036 40.53353932313621,73.01084747808636 40.53353932313621,73.78305248863762" stroke="#4dd2ff" stroke-linecap="round" stroke-linejoin="round" stroke-width="0.5"><title>2023-08-19 6.1km</title><desc>9679099413</desc></polyline><polyline fill="none" points="108.31463921815157,75.60000000000582 108.04009924433194,74.95867401300347 107.21647932147607,72.34755130193662 107.17725932528265,72.02688602847047 107.29491931409575,71.5229829782038 107.21647932147607,71.01907934411429 107.02037934004329,70.69841309104231 106.54973938409239,70.42355611466337 106.31441940623336,70.10288942256011 105.60845947288908,68.40793297908385 105.25547950598411,67.30849824022152 104.90249953907914,66.62135011702776 104.82405954645947,66.39230050123297 104.78483955003321,65.70515093032736 104.51029957574792,64.74313970687217 104.39263958693482,63.87274676619563 103.96121962741017,63.36883426739951 103.41213967907242,62.22357641678536 102.3139797821641,59.062649098574184 101.6864598414395,56.863729586591944 101.0981598966755,55.35196597201866 100.90205991500989,54.52736542158527 100.31375997024588,53.24465034608147 99.49014004762284,50.9540782996919 99.0195000921376,49.99203444219893 98.50964013976045,48.20537591687753 98.58808013238013,47.38076181363431 98.50964013976045,46.46452208716073 98.23510016570799,45.502468296472216 97.99978018784896,43.94485288418946 98.03900018404238,43.80741596221924 98.19588016928174,43.76160364531097 100.78439992619678,42.57048171007773 102.00021981191821,42.066544524626806 102.54929976025596,41.74585692057735 104.23575960169546,41.28773136169184 105.09859952051193,40.96704318324919 106.11831942480057,40.69216741345008 107.02037934004329,40.37147879577242 108.07931924052536,39.91335178882582 109.13825914100744,39.592662596696755 110.47173901554197,39.04290914561716 112.07975886459462,38.58478073871811 112.86415879102424,38.172464759933064 113.06025877245702,38.0350260133564 113.06025877245702,37.98921308811987 112.90337878721766,37.94340015828493 112.55039882054552,37.98921308811987 110.74627899006009,38.722219311544904 109.25591913005337,39.18034757350688 108.04009924433194,39.68428810421028 105.41235949122347,40.55472946341615 104.58873956860043,40.73798005376011 103.17681970121339,41.42516907994286 99.96078000334091,42.47885681083426 98.62730012880638,43.07441831167671 97.68602021713741,43.44091729144566 96.31332034617662,43.76160364531097 95.2936004421208,44.265538866398856 94.46998051926494,44.44878789279028 93.9993405637797,44.44878789279028 93.80324058211409,44.402975643432 93.68558059306815,44.265538866398856 93.1365006447304,43.395104935916606 92.86196067067795,42.158169510919834 91.76380077400245,38.76803215939435 91.21472082543187,36.7980753396987 90.97940084734,35.19461552530993 90.66564087686129,34.50741665170062 90.54798088804819,33.86603005649522 90.1557809249498,32.76650797747425 89.99890093971044,32.44581351408851 89.80280095804483,32.40000000002328 89.6851409689989,32.58325402729679 89.6851409689989,32.81232145286049 90.23422091733664,34.8739228528284 90.66564087686129,36.06506587268086 91.01862084376626,38.3099034629704 91.99912075162865,41.51679420139408 92.23444072948769,42.75373145099729 92.86196067067795,45.2734075562621 92.86196067067795,45.823153129866114 92.70508068520576,46.14383772673318 92.50898070377298,46.281273910281016 91.05784084019251,46.96845417577424 88.0771211204119,48.02212847341434 87.4888211756479,48.20537591687753 87.018181219697,48.15956406327314 86.93974122731015,48.02212847341434 87.018181219697,47.97631660057232 87.44960117922164,48.15956406327314 87.64570116088726,48.15956406327314 89.41060099494644,47.51819760602666 91.25394082162529,46.96845417577424 92.58742069639266,46.281273910281016 92.82274067425169,46.0522135803476 92.90118066687137,45.86896522954339 92.82274067425169,45.22759539380786 92.31288072210737,43.532541988097364 92.0383407480549,42.75373145099729 91.76380077400245,41.47098164315685 91.33238081424497,39.91335178882582 91.21472082543187,39.45522429904668 91.21472082543187,38.85965784077416 91.05784084019251,38.21827766575734 90.70486087328754,37.21039262189879 90.19500092114322,34.91973610618152 89.7635809618514,33.7744033227209 89.72436096542515,33.31626936458633 89.80280095804483,33.041388757905224 89.92046094709076,32.99557530664606 90.07734093233012,32.99557530664606 90.2734409137629,33.13301564598805 90.78330086590722,34.18672347231768 91.45004080305807,36.38575766663416 91.52848079591058,37.16457960990374 91.7245807775762,37.89758722341503 92.31288072210737,39.68428810421028 92.50898070377298,40.69216741345008 92.78352067782544,41.47098164315685 93.01884065568447,42.79954387419275 93.4110406190157,44.402975643432 93.64636059687473,44.44878789279028 95.37204043450765,43.99066518183099 98.31354015832767,42.93698111467529 99.17638007714413,42.57048171007773 99.88234001095407,42.387231892120326 101.96099981549196,41.60841930357856 103.52979966788553,41.05866840109229 103.80433964240365,41.05866840109229 103.80433964240365,41.28773136169184 103.33369968645275,41.79166944991448 102.82383973430842,41.974919518921524 101.72567983763292,42.295606953965034 99.41170005500317,43.166043085599085 97.3722602466587,44.12810204576817 96.8624002947472,44.265538866398856 96.62708031665534,44.54041237721685 96.62708031665534,44.815285714226775 96.70552030927502,45.04434669550392 96.94084028713405,45.31921971403062 97.80368020618334,45.63990468258271 98.07822018046863,45.96058941454976 98.23510016570799,46.281273910281016 98.35276015452109,46.8310182094574 98.82340011023916,50.450150830234634 99.21560007357039,51.59543968900107 99.88234001095407,54.02344209313742 100.82361992215738,56.63467483140994 101.45113986334763,58.87940623058239 101.88255982287228,60.207915273931576 102.23553978977725,60.89507353134104 102.784619738115,62.727490242687054 103.09837970859371,63.78112635528669 103.13759970501997,64.55989923249581 103.372919682879,65.10962042387109 103.80433964240365,65.43029079792905 103.8827796347905,65.56772088591242 104.19653960526921,66.43811043407186 104.31419959431514,67.17106870247517 104.82405954645947,68.95764930613223 105.25547950598411,69.87384164051036 105.4515794874169,70.56098462457885 105.49079948384315,70.83584151411196 105.37313949479721,71.20231709675863 105.4515794874169,71.61460175804677 105.60845947288908,71.93526733547333 106.19675941742025,72.39336060738424 106.39285939908586,72.71402561065042" stroke="#4dd2ff" stroke-linecap="round" stroke-linejoin="round" stroke-width="0.5"><title>2023-08-18 5.3km</title><desc>9672765593</desc></polyline><polyline fill="none" points="174.23815677664243,75.60000000000582 173.8892466071993,74.7849458452547 172.9200516922865,72.06808750180062 172.8425160991028,71.56999494295451 172.9200516922865,70.84549564530607 172.8425160991028,70.52852681861259 172.64867711625993,70.07571380355512 172.18346355692483,69.75874440930784 171.98962457384914,69.48705617096857 171.36933982861228,67.94748624388012 170.5552161000669,65.63812101454823 170.2838415238075,64.27966508406098 170.24507372709922,63.55515349894995 170.05123474402353,63.28346133971354 169.70232457481325,63.01176900882274 169.43094999878667,62.46838383181603 168.3454516939819,59.25334081205074 168.03530932124704,58.43825566212763 165.6704737287946,51.011853100237204 165.20526016969234,49.925051718746545 164.81758220377378,48.294844493997516 164.81758220377378,47.932575382088544 164.66251101740636,46.57406349320081 164.42990423785523,45.75895429874072 164.04222627193667,44.807991618232336 163.9259228820447,44.309867469535675 164.0034584752284,43.947594998870045 164.35236864467151,43.63060633657733 167.3762567793019,42.31736510206247 169.97369915107265,41.321110454329755 171.29180423519574,40.91355106921401 177.4558838941157,38.694609859085176 178.69645338505507,38.1964786251192 178.92906016483903,38.01533985149581 178.81275677494705,37.92477043590043 178.54138219892047,37.92477043590043 177.37834830093198,38.1964786251192 174.62583474256098,39.05688675757847 172.60990931955166,39.600301532656886 170.6327516932506,40.32485349732451 168.53929067705758,41.27582609723322 165.28279576287605,42.40793359189411 162.4139788148459,43.5400381044019 160.3592855951283,44.12873127244529 159.85530423931777,44.12873127244529 159.70023305295035,44.0834472112474 159.54516186658293,43.811742743710056 158.30459237564355,39.872008662554435 158.03321779938415,38.51347129532951 157.60677203675732,37.74363154778257 157.25786186754704,36.702081459079636 156.2498991561588,33.350990135397296 156.13359576603398,33.21513453053194 155.97852457989939,33.350990135397296 155.93975678319111,33.48684569718898 155.97852457989939,33.894412125169765 156.79264830844477,36.06809321278706 157.3741652572062,38.3323326552927 157.800611019833,39.32859423107584 158.11075339256786,40.5059912976576 158.45966356177814,41.54753216795507 159.27378729055636,45.57781871230691 159.19625169737265,45.80423818336567 158.8861093246378,46.03065753536066 157.56800424004905,46.6646310860815 153.26477881800383,47.977859037870076 153.4586178008467,47.977859037870076 155.39700763090514,47.29860370163806 156.98648729152046,46.7099148753332 158.03321779938415,46.43821206819848 158.45966356177814,46.16650908920565 158.26582457893528,46.347644427616615 157.7230754266493,46.6646310860815 155.4357754276134,47.434454854839714 154.00136695359834,47.7514407117269 153.07093983516097,48.11370997616905 153.14847542834468,48.20427724462934 153.7299923771061,48.02314268879127 154.9705618682783,47.479738562891725 157.1027906811796,46.84576621456654 158.6147347483784,45.985373674484435 158.76980593474582,45.84952206342132 158.84734152792953,45.66838651508442 158.03321779938415,41.68338513892377 157.68430762994103,40.7776978550246 157.21909407083876,38.64932522535673 156.9477194948122,38.01533985149581 156.71511271502823,36.837935961579205 156.52127373195253,36.33980257579242 156.0560601730831,33.62270121613983 155.74591780034825,32.80756745839608 155.74591780034825,32.581141140311956 155.90098898671567,32.39999999999418 156.09482796979137,32.39999999999418 156.3662025455851,32.581141140311956 156.90895169810392,33.57741604789044 157.18032627436332,34.483118505217135 157.41293305391446,35.026539063372184 157.83937881654128,36.65679661539616 158.03321779938415,37.74363154778257 158.26582457893528,38.64932522535673 158.76980593474582,40.279569035366876 158.9636449178215,41.9550909519603 159.5839296632912,43.494753981154645 159.6614652564749,44.35515150692663 159.81653644284233,44.49100359046133 160.39805339183658,44.35515150692663 161.40601610345766,43.90231091863825 162.87919237394817,43.449469853105256 163.84838728886098,42.99662831056048 165.6704737287946,42.40793359189411 168.19038050761446,41.27582609723322 170.2838415238075,40.55127573583741 172.2222313536331,40.00786216306733 173.50156864128076,39.46444790335954 176.13777880975977,38.694609859085176 177.41711609764025,38.1964786251192 178.61891779210418,37.92477043590043 178.73522118176334,38.01533985149581 178.73522118176334,38.151193938887445 178.5026144022122,38.3323326552927 176.06024321657605,39.28330966399517 175.20735169155523,39.64558606626815 171.446875421796,40.91355106921401 170.43891271017492,41.36639480665326 166.21322288108058,42.77020736029954 165.28279576287605,43.22304914146662 163.5382449158933,43.811742743710056 162.7628889840562,44.17401532889926 162.60781779768877,44.40043553960277 162.56905000121333,44.53628760870197 162.68535339087248,44.89855958308908 163.42194152623415,45.39668304959196 163.6545483060181,45.62310261611128 163.9259228820447,46.07594139140565 164.0809940684121,46.7099148753332 164.19729745807126,47.52502226625802 164.58497542422265,48.521262533788104 164.8951177969575,49.97033516448573 165.3215635593515,50.96656976421946 165.8643127118703,52.82318262947956 166.52336525381543,54.49865564808715 167.29872118588537,57.3514730577881 169.15957542252727,62.83064069275861 169.27587881218642,63.37402541193296 169.23711101571098,64.23438314572559 169.3921822020784,64.596638518502 169.74109237152152,64.91361171918106 169.85739576118067,65.14002100512153 170.2838415238075,66.63431930184015 170.94289406575263,68.26445697373128 171.13673304906115,68.98896062158747 171.60194660793059,70.25683906680206 171.60194660793059,70.57380809393362 171.446875421796,70.80021439873963 171.48564321827143,70.93605812435271 171.7182499980554,71.3888702330878 172.2222313536331,71.79640072313487 172.45483813341707,72.1133686149551" stroke="#4dd2ff" stroke-linecap="round" stroke-linejoin="round" stroke-width="0.5"><title>2023-08-15 6.1km</title><desc>9652797631</desc></polyline><polyline fill="none" points="40.8282055282034,120.25622229438159 40.712145377416164,119.48805346424342 40.90557896182872,118.85544280643808 40.8282055282034,118.58432366765919 40.59608522686176,118.08727146784076 40.17053134134039,117.81615184352268 39.164676702581346,115.46644125427702 38.54568923241459,113.65896281189634 38.35225564800203,112.3485361788189 38.35225564800203,111.89666399772977 38.19750878075138,111.62554046072182 38.081448630196974,111.21885483374353 37.655894744442776,110.7669814627443 37.42377444333397,110.1795453686791 36.88216040702537,108.55279506355873 36.57266667182557,107.87498061571387 36.41791980457492,107.01641411072342 36.06973935267888,106.29340940521797 35.76024561771192,105.20890006195987 35.29600501526147,104.07919991374365 34.94782456336543,102.94949678995181 34.75439097895287,102.09092042603879 34.36752381012775,101.09677722599008 32.742681701434776,96.57791545786313 32.587934833951294,95.80970422268729 32.62662155088037,95.31262563134078 32.781368418596685,94.95111356669804 32.66530826780945,94.31846672046231 32.781368418596685,93.50506226121797 32.742681701434776,93.09835945317172 32.587934833951294,92.64646699177683 32.16238094842993,91.87824871501653 32.0850075148046,91.51673375570681 32.201067665359005,91.38116556731984 33.20692230411805,90.88408184354194 34.21277694264427,90.61294502418605 35.605498750228435,89.98029177886201 38.31356893153861,89.16687909225584 40.17053134134039,88.44384429804632 43.03334838990122,87.58523889674689 46.747273209737614,86.18435270970804 46.902020077221096,86.04878283594735 46.902020077221096,85.95840289615444 46.515152908395976,85.9132129191712 44.7742506491486,86.31992254065699 42.027493751142174,87.3140999917814 37.57852131058462,88.48903400846757 35.10257143084891,89.52839603234315 32.51056140032597,90.3869975435955 30.924406008562073,90.83889238545089 30.266731821699068,91.15521849156357 28.835323297185823,91.56192314226064 27.829468658659607,91.65230190113652 27.5973483575508,91.51673375570681 26.939674170687795,90.34180803329218 25.972506248857826,86.95258118526544 25.85644609807059,86.0939727985533 25.70169923058711,85.28055274131475 25.35351877869107,84.01522958587157 24.96665161009878,83.11142504634336 24.734531308989972,82.02685708491481 24.54109772434458,80.71633380537969 24.38635085709393,80.44519055786077 24.19291727244854,80.39999999999418 24.076857122126967,80.39999999999418 23.99948368826881,80.53557165939128 23.99948368826881,80.85190536480513 24.23160398961045,82.07204747135984 24.9279648931697,84.69308174066828 25.198771911207587,85.37093282383285 25.74038594774902,87.26891015769797 26.011192965554073,88.66979280213127 26.707553869346157,91.1100290620816 26.900987453758717,92.5108991607267 26.939674170687795,93.45987307932228 26.784927302971482,93.68581894109957 25.469578929478303,94.31846672046231 23.80605010385625,94.90592453721911 21.21404007356614,95.6741373911791 21.097979922778904,95.76451528366306 21.17535335640423,95.80970422268729 21.446160374442115,95.80970422268729 26.320686700753868,94.45403398034978 26.47543356823735,94.27327762436471 26.43674685107544,93.68581894109957 26.552807001862675,93.9569538179785 26.43674685107544,94.13771030725911 25.044025043724105,94.7251683716022 22.219894712092355,95.6741373911791 21.36878694081679,95.80970422268729 21.136666639707983,95.76451528366306 21.291413507191464,95.6741373911791 21.833027543267235,95.7193263398367 22.1425212782342,95.6741373911791 23.960796971339732,95.04149161142414 25.972506248857826,94.40884489851305 26.47543356823735,94.13771030725911 26.630180435488,94.00214294742909 26.707553869346157,93.64062977820868 26.707553869346157,93.0531702284643 26.43674685107544,91.01965018903138 25.817759381374344,88.71498248862918 25.663012513658032,87.81118785304716 25.469578929478303,87.22372031881241 24.96665161009878,85.0546024516807 24.618471158202738,83.06623476941604 24.03817040519789,80.89709587499965 23.99948368826881,80.7615243300097 24.076857122126967,80.58076220293879 24.23160398961045,80.53557165939128 24.54109772434458,80.7615243300097 24.77321802568622,81.57495295809349 25.005338326795027,82.16242823007633 25.624325796961784,84.69308174066828 26.591493718791753,87.9919469326851 26.707553869346157,88.71498248862918 27.55866164062172,92.19457405450521 27.713408508105204,92.28495268002735 28.13896239362657,92.19457405450521 29.64774435176514,91.60711252404144 31.814200496533886,91.1100290620816 33.2456090208143,90.61294502418605 35.91499248496257,89.43801682593767 38.50700251571834,88.53422371399938 40.01578447362408,88.08232644377858 44.15526317921467,86.59106207400328 46.515152908395976,85.86802293744404 46.66989977587946,85.86802293744404 46.78595992666669,86.00359286839375 46.5925263420213,86.13916275647352 45.973538872087374,86.41030240422697 44.619503781432286,86.81701155431801 42.45304763666354,87.72080828491016 38.85518296738155,88.76017217049957 36.41791980457492,89.66396480627009 32.394501249771565,90.97446074523032 30.96309272525832,91.56192314226064 30.692285707453266,91.7426806408912 30.61491227359511,91.92343806353165 30.692285707453266,92.42052058273111 31.117839592974633,93.1887378882675 31.311273177154362,93.73100809907191 31.73682706290856,95.31262563134078 32.16238094842993,96.17121556351776 32.587934833951294,97.30093654012308 32.82005513529293,98.24989986084984 33.63247618963942,100.1026317216747 33.98065664153546,101.32271906468668 34.444897243985906,102.4976147072739 34.59964411146939,103.13024948970997 35.10257143084891,104.35032822060748 35.218631581403315,105.11852415968315 35.56681203329936,106.11265803838614 35.83761905133724,106.65491191038745 37.03690727450885,110.58623198090936 37.501147876959294,112.48409774023457 37.81064161192626,112.71003358080634 37.96538847940974,112.93596930248896 38.54568923241459,114.78863773072953 38.93255640123971,115.87312285421649 39.08730326895602,116.37017761947936 39.12598998565227,116.86723180863191 39.43548372061923,117.77096522273496 39.31942357006483,118.44876403384842 39.396797003922984,118.81025629522628 39.62891730503179,119.21693472514744 40.09315790748224,119.53323990409262 40.325278208591044,119.8947312514938 41.56325314869173,123.2836978196865 41.67931329924613,123.60000000000582" stroke="#4dd2ff" stroke-linecap="round" stroke-linejoin="round" stroke-width="0.5"><title>2023-08-14 6.1km</title><desc>9645903556</desc></polyline><polyline fill="none" points="108.3637123873923,123.60000000000582 107.86495889653452,122.52453457831871 106.82908626133576,119.88067052618135 106.71398930205032,119.34293345399783 106.7907206080854,118.80519570203614 106.71398930205032,118.3570803895127 106.52216103603132,117.99858779966598 106.25360146397725,117.86415300058434 106.02340754517354,117.6400949076633 105.67811666661873,116.87829650906497 104.48878141888417,113.60702905594371 104.18185619381256,112.39710184451542 104.2202218468301,111.99379200927797 104.1434905405622,111.59048179164529 103.95166227477603,111.18717119164648 103.60637139645405,110.87348490508157 103.41454313043505,110.60461076101637 102.53213310800493,108.13992318851524 101.91828265762888,105.98891145520611 101.41952916653827,104.7341495877481 100.65221610362642,102.04536169409403 99.34778389637358,98.28103008918697 99.07922432431951,97.20550065475982 98.7339334457647,96.3988517941616 98.69556779274717,96.04034069838235 98.77229909901507,95.1440616370819 98.69556779274717,94.78554948384408 98.42700822046027,94.29259477957385 97.77479211706668,93.2618694609555 97.50623254501261,92.67928448037128 97.42950123851188,92.23114164453 97.50623254501261,92.00707004961441 97.69806081056595,91.73818397993455 101.11260394146666,90.03523492420209 105.60138536035083,88.6011672730092 106.71398930205032,88.15302014048211 107.78822759026662,87.88413163422956 108.82410022523254,87.48079855629476 110.85747984261252,86.89820565722766 112.43047162168659,86.27079702736228 112.6222998877056,86.13635220058495 112.46883727493696,86.00190733122872 111.24113637395203,86.18116714755888 109.89833851368167,86.80857590958476 108.5171749999281,87.61524295806885 106.71398930205032,88.28746432982734 105.4862884010654,88.64598196026054 103.95166227477603,89.18375783946249 103.18434921163134,89.40783092170022 101.95664831064641,89.94560583765269 100.03836565301754,90.48338007356506 97.19930731970817,91.60374088125536 95.05083074304275,92.36558454492479 94.32188333314843,92.50002740268246 93.74639853578992,92.54484167913324 93.59293592325412,92.45521312151686 93.55457027000375,92.3207702494692 93.13254808541387,90.79708139717695 92.51869763503782,89.00449928859598 92.17340675671585,87.70487253565807 91.7130189188756,86.36042688830639 91.17589977453463,84.56782608095091 90.25512409885414,80.80333979293937 90.06329583306797,80.48963109825854 89.90983322053216,80.40000000002328 89.83310191426426,80.40000000002328 89.67963930149563,80.57926217743079 89.67963930149563,80.80333979293937 90.48531801789068,83.1337399953336 91.13753412128426,85.37449737911811 91.82811587816104,88.64598196026054 92.82562286034226,92.45521312151686 93.05581677914597,93.53075456744409 92.94071981986053,93.79963950402453 92.7872572070919,93.93408190851915 91.55955630610697,94.56147923442768 89.52617668895982,95.4577595233568 87.41606576554477,96.08515460183844 87.3777001122944,96.17478239469347 87.41606576554477,96.2195962840633 88.14501317543909,96.08515460183844 89.52617668895982,95.36813157956931 92.25013806298375,94.42703702824656 92.51869763503782,94.24778068717569 92.59542894130573,94.11333838180872 92.55706328828819,93.71001121067093 92.74889155384153,93.71001121067093 92.86398851312697,93.62038289851625 92.01994414394721,91.20041133041377 90.90734020248055,86.18116714755888 90.52368367114104,85.01597699112608 90.06329583306797,82.9544788946223 89.64127364847809,81.43075648817467 89.60290799522772,80.71370876091532 89.718004954746,80.48963109825854 89.98656452680007,80.44481555151287 90.17839279258624,80.53444664023118 90.40858671138994,80.84815530182095 90.63878063042648,81.38594104067306 92.40360067551956,87.39116893141181 92.71052590059116,88.87005532594048 93.20927939168178,90.75226693649893 93.59293592325412,91.87262703603483 93.70803288277239,92.09669870178914 93.97659245482646,92.09669870178914 97.12257601344027,91.02115362952463 99.7698060811963,90.2144930405484 100.88241002243012,89.6767184646742 103.45290878368542,88.78042599384207 104.02839358104393,88.46672318282072 104.98753490997478,88.33227905011154 106.48379538301378,87.92894639715087 110.55055461730808,86.45005673036212 111.81662117131054,86.18116714755888 112.00844943686388,86.18116714755888 112.08518074359745,86.27079702736228 112.08518074359745,86.45005673036212 112.00844943686388,86.494871644245 110.32036069827154,87.256724458799 107.82659324328415,88.19783487491077 102.03337961691432,90.08004946034634 97.08421036042273,92.00707004961441 96.66218817560002,92.23114164453 96.54709121631458,92.45521312151686 97.39113558549434,95.36813157956931 97.96662038285285,96.3988517941616 98.15844864863902,97.20550065475982 99.04085867106915,99.31174324537278 100.1534626125358,102.627933846612 100.76731306291185,104.15158031979809 101.45789481978863,106.39222698373487 102.87742398655973,110.4701736253337 103.0692522523459,111.23198349936865 102.87742398655973,111.54566952155437 102.87742398655973,111.76973082445329 103.0692522523459,112.2178530759993 103.37617747741751,112.53153837122954 103.56800574343652,112.9348476967134 105.33282578829676,117.59528327494627 105.44792274781503,118.08821097534383 105.37119144154713,118.31226883232011 105.25609448202886,118.44670348972431 105.21772882877849,118.62594963371521 105.52465405408293,119.2084990797448 105.94667623890564,119.47736778581748 106.13850450445898,119.74623632186558" stroke="#4dd2ff" stroke-linecap="round" stroke-linejoin="round" stroke-width="0.5"><title>2023-08-10 5.8km</title><desc>9620015411</desc></polyline><polyline fill="none" points="173.0061174412258,121.5714934974385 172.92717527295463,120.74164721844136 173.0850596097298,120.18841549157514 173.0061174412258,119.81959395200829 172.76929093617946,119.40466934832511 172.37458009435795,119.2663610597665 172.17722467356361,119.03584714824683 171.1509764851071,116.4540830446931 170.51943913800642,114.56385324036819 170.44049696996808,113.91840704716742 170.2826126331929,113.45737346916576 170.36155480146408,113.18075308925472 170.2431415489409,112.67361527212779 170.12472829641774,112.4430978881428 169.69054637057707,112.0281662911002 168.62482709763572,109.21584176446777 168.3485295085702,108.24766028660815 167.9932897510007,107.50999677064829 165.348727111239,99.4417208910163 165.07242952217348,98.88846223801374 164.40142109105363,97.13647188895266 164.1645945860073,94.60068396068527 163.69094157591462,92.71035976347048 163.8882969969418,92.43372626925702 165.15137169044465,91.83435309838387 167.3617524043657,91.05055617459584 169.01953793969005,90.5433927111153 172.29563792608678,89.29853444508626 174.78231622930616,88.51473297932534 176.5190439329017,87.7770361994626 177.2689945322927,87.54650570079684 178.8083668150939,86.90101965828217 179.04519332014024,86.71659489982994 179.0846644041594,86.62438249139814 178.84783789911307,86.62438249139814 173.55871261982247,88.6069449892675 170.91414998006076,89.43685220516636 169.33530661300756,90.08233450705302 167.24333915184252,90.82002740033204 165.58555361628532,91.46550766204018 162.3094536298886,92.52593745337799 161.4410897779744,92.940887541743 160.84902351535857,93.07920415056287 159.58594882162288,93.17141519871075 159.34912231680937,93.03309861908201 159.19123797980137,92.71035976347048 157.84922111802734,88.69915697985562 157.651865697233,87.63871791487327 157.37556810770184,86.76270109671168 156.94138618186116,84.91844943133765 156.27037775097415,82.61312391865067 155.87566690915264,80.76885476370808 155.59936932008713,80.39999999999418 155.2836006465368,80.49221372010652 155.12571630976163,80.72274793530232 155.16518739401363,80.95328202904784 156.19143558247015,83.71968168049352 157.02032835036516,86.39385138548096 157.572923528729,88.69915697985562 157.88869220227934,90.68171007771161 158.4412873806432,92.66425419319421 158.7175849697087,93.9552083236631 158.7175849697087,94.73900004476309 158.63864280143753,94.92342142225243 158.32287412812002,95.15394803468371 157.49398136045784,95.47668508812785 155.2836006465368,96.16826368693728 154.69153438392095,96.26047408406157 152.91533559607342,96.85984119263594 152.9942777643446,96.85984119263594 153.7836994479876,96.76763092176407 155.48095606756397,96.02994805452181 156.38879100349732,95.75331665872363 157.2176837711595,95.43057980932645 158.04657653882168,95.24615864569205 158.40181629662402,94.96952675440116 158.63864280143753,94.4623678328644 158.4807584648952,93.49415371430223 158.04657653882168,92.15709260001313 157.3360970239155,89.3446403700218 157.09927051863633,88.09977869372233 156.5466753402725,86.43995761644328 155.95460907765664,83.95021419538534 155.63884040433913,82.33648404109408 155.4020138992928,81.55267010442913 155.36254281480797,81.27602955617476 155.44148498331197,80.90717522008345 155.55989823583513,80.72274793530232 155.7177825726103,80.63053426376428 155.95460907765664,80.63053426376428 156.15196449845098,80.76885476370808 156.42826208774932,81.36824309171061 156.90191509760916,83.0280834074074 157.25715485517867,85.05676857579965 158.28340304386802,88.97579283511732 158.59917171741836,90.08233450705302 159.03335364349186,91.88045875597163 159.34912231680937,92.84867644507904 159.46753556933254,93.03309861908201 159.62541990587488,93.12530967703788 161.79632953554392,92.47983186374768 165.66449578478932,91.18887338074273 168.46694276109338,90.45118110915064 170.2826126331929,89.43685220516636 171.1115054008551,89.3446403700218 172.13775358931161,89.02189879390062 173.0850596097298,88.69915697985562 174.70337406080216,87.9614605110255 178.4531270575244,86.76270109671168 178.7294246465899,86.80880728879129 178.68995356257074,86.90101965828217 178.4925981417764,87.08544433896895 176.63745718542486,87.9153544405126 172.92717527295463,89.25242851531948 172.33510901010595,89.3907462899806 171.78251383197494,89.62127581707318 170.51943913800642,89.94401695099077 167.91434758272953,90.86613316496368 165.8223801215645,91.83435309838387 164.04618133348413,92.38762066984782 162.5462801347021,92.940887541743 162.3094536298886,93.12530967703788 162.2305114613846,93.35583723679883 162.2305114613846,93.54025919709238 162.34892471390776,93.81689199173707 162.86204880825244,94.55457858965383 163.0594042292796,94.92342142225243 163.57252832339145,96.85984119263594 164.04618133348413,97.68973275704775 165.26978494296782,100.8248644634441 165.90132228983566,102.76125812044484 166.69074397324584,105.48141569056315 167.3617524043657,107.18726859142771 167.75646324595436,108.61649157837383 168.3485295085702,110.04570989770582 169.05900902370922,112.35089090056135 168.98006685543805,113.1346496756305 169.13795119221322,113.7800970246899 169.65107528632507,114.19502696071868 169.76948853884824,114.42554342190851 171.1509764851071,117.83717285122839 171.66410057945177,119.68128579450422 171.58515841094777,120.00400476070354 171.38780299015343,120.14231281616958 171.4272740741726,120.37282614503056 171.70357166347094,120.92605763868778 172.05881142104045,121.1565705545654 172.29563792608678,121.47928843295085 173.16400177800097,123.60000000000582" stroke="#4dd2ff" stroke-linecap="round" stroke-linejoin="round" stroke-width="0.5"><title>2023-08-08 6.0km</title><desc>9606561718</desc></polyline><polyline fill="none" points="41.141320074908435,170.63419528127997 40.53994575259276,169.80008940500556 39.63788426970132,167.38556298441836 39.52512658433989,166.68315267187427 39.75064195506275,166.02464192849584 39.63788426970132,165.54173338899272 39.48754068906419,165.27832849512924 38.961338157299906,165.05882428985205 38.81099457666278,164.83931996879983 38.35996383521706,163.3466875203012 37.495488247135654,161.45893882669043 37.00687161041424,159.65898443438346 36.93169982009567,159.04436408093898 36.40549728833139,158.1663334321056 35.95446654665284,156.89318570544128 35.202748644165695,154.65419233767898 34.93964737816714,154.08346661410178 34.56378842703998,152.37128475363716 34.15034358063713,151.4054354724649 33.586555153597146,149.56153517428902 33.248282097280025,148.81519225778175 32.42139240447432,146.53225268624374 32.007947558071464,145.61029277538182 31.782432187348604,144.68833082480705 31.669674501987174,143.98588225527783 31.669674501987174,143.59075441450113 31.068300179904327,141.74681953698746 30.993128389585763,141.21997950191144 30.955542494542897,140.07849047405762 31.105886074947193,139.7711659707711 31.293815550627187,139.5516483297106 32.15829113870859,139.1565162842453 33.699312838958576,138.5857693348662 34.45103074144572,138.19063637353247 35.24033453944139,137.9272141912079 36.14239602256566,137.53208060536417 37.946518988581374,136.96133143099723 42.08096745307557,135.38079117570305 42.90785714588128,135.11736721693887 43.84750452404842,134.72223096669768 44.59922242676839,134.50271066563437 45.125424958299845,134.23928615186014 44.86232369276695,134.1514779435529 44.71198011212982,134.19538205000572 41.254077760037035,135.68811891705263 39.56271247938275,136.12715815441334 38.81099457666278,136.43448534532217 37.608245932497084,136.7857161431166 36.36791139305569,137.3564655580558 34.15034358063713,138.05892530307756 32.75966546079144,138.5857693348662 31.895189872710034,138.8491911009769 30.391754067502916,139.46384124085307 28.099014464532956,140.07849047405762 27.04660940100439,140.25410437423852 26.78350813500583,140.1662974334031 26.708336344687268,139.99068349631852 25.843860756838694,137.8833104779187 25.09214285435155,134.853943091759 24.64111211244017,133.31729904192616 24.52835442731157,132.7465440943488 24.15249547571875,131.69284059869824 23.5887070489116,129.19028411703766 23.175262202508748,128.53171412370284 23.02491862210445,128.40000000002328 22.949746831785887,128.44390471259248 22.874575041467324,128.70733289036434 23.02491862210445,129.6732347838406 24.265253161313012,133.62462830517325 24.941799273714423,136.47838921126095 26.031790232518688,140.1662974334031 26.144547917880118,140.78094563056948 26.10696202260442,140.9565592345607 25.731103071477264,141.5273029366508 25.806274861795828,141.4394962641527 25.76868896652013,141.17607613565633 25.54317359556444,140.25410437423852 25.280072329798713,138.717480238789 24.52835442731157,135.73202286162996 23.85180831491016,133.36120323612704 23.325605783145875,131.2977011008188 22.874575041467324,128.7951422459737 22.949746831785887,128.5756188223604 23.25043399282731,128.70733289036434 23.513535258593038,129.01466555392835 24.07732368563302,130.55132547137327 25.280072329798713,134.59051879990147 25.693517176201567,136.47838921126095 25.99420433724299,137.40036932678777 26.144547917880118,138.19063637353247 26.37006328883581,139.06870911212172 26.708336344687268,140.25410437423852 26.82109403028153,140.29800783772953 27.798327303491533,140.07849047405762 28.437287520617247,139.8150694851065 29.52727847942151,139.4199376895267 31.632088606944308,138.8052874848072 32.75966546079144,138.41015473162406 33.73689873423427,137.9272141912079 36.36791139305569,137.04913904718705 38.92375226202421,136.03935034398455 41.17890596971847,135.24907921717386 41.89303797739558,135.11736721693887 43.17095841187984,134.59051879990147 44.63680832181126,134.19538205000572 44.82473779749125,134.1514779435529 45.01266727340408,134.23928615186014 44.97508137812838,134.37099842954194 44.74956600717269,134.54661473512533 43.17095841187984,135.33688719419297 41.21649186499417,135.99544643171248 40.38960217218846,136.2149659464485 39.14926763274707,136.7418123096577 37.87134719826281,137.0930428483116 36.51825497369282,137.61988810118055 33.51138336327858,138.5857693348662 32.571735985111445,139.02480551920598 31.744846292072907,139.28822700766614 30.091066906461492,139.94678000046406 29.67762206005864,140.21020090617822 29.56486437469721,140.47362164536025 29.640036165015772,140.9565592345607 30.12865280150436,142.01023930482916 30.429339962778613,143.15172304096632 30.730027123820037,143.8541730165598 31.03071428462863,144.33710668812273 31.25622965558432,144.86394278221997 31.48174502630718,145.65419567454956 32.49656419479288,148.24445853737416 32.75966546079144,149.29812017991208 33.54896925855428,151.4054354724649 33.88724231463857,152.5029913003964 35.57860759552568,157.11269421174075 35.95446654665284,158.60534898779588 35.95446654665284,158.86875809924095 35.879294756567106,159.17606851877645 35.95446654665284,159.43947726939223 36.217567812884226,160.09799841768108 36.63101265928708,160.5809132650029 37.269972876412794,162.16135794424918 37.608245932497084,163.3027864850592 37.87134719826281,163.78569761896506 38.172034359537065,164.75151820815518 38.35996383521706,165.49783258500975 38.35996383521706,165.62953498327988 38.24720614985563,165.98074117535725 38.35996383521706,166.55145060637733 38.510307415621355,166.77095402567647 38.92375226202421,167.07825861833408 39.299611213384196,167.73676769671147 39.75064195506275,169.40498603880405 40.352016276912764,171.07319770363392 40.352016276912764,171.60000000000582" stroke="#4dd2ff" stroke-linecap="round" stroke-linejoin="round" stroke-width="0.5"><title>2023-08-07 5.3km</title><desc>9599973967</desc></polyline><polyline fill="none" points="107.55371825606562,171.24262405055924 106.86527811107226,170.12582226766972 105.94735791813582,167.49015839979984 105.87086456851102,166.8647442300571 106.02385126752779,166.10531149819144 105.94735791813582,165.79260350752156 105.7561245446559,165.52456790333963 105.29716444783844,165.30120477059972 105.06768439989537,164.9884961868811 103.8437908089254,161.90607066708617 103.57606408582069,160.9679367140634 103.19359733886085,158.95764268338098 102.73463724204339,158.46623602643376 102.58165054325946,158.1088490091788 101.701977025019,155.78582605562406 101.43425030191429,154.7136573236494 101.05178355472162,153.90952899560216 100.0191233374644,150.91637126216665 99.29243651800789,148.59330890735146 99.06295646983199,148.05721578747034 98.52750302385539,146.49360698321834 98.03029625234194,145.3767400214565 97.72432285477407,144.21519526082557 97.45659613166936,143.5450718360953 97.45659613166936,142.87494735250948 97.34185610734858,141.93677129605203 96.95938936038874,140.0157376563002 96.92114268569276,139.74768575877533 96.9976360348519,139.61365974656655 97.15062273410149,139.39028296532342 99.33068319247104,138.4967746634211 100.21035671094432,137.91599325751304 101.35775695252232,137.33521105610998 102.04619709728286,137.11183307450847 102.73463724204339,136.79910370250582 104.30275090551004,136.35234705696348 106.32982466532849,135.4588323533535 107.09475815948099,135.28012918654713 107.78319830447435,134.9673984636902 111.03416565502994,133.89517709126812 111.37838572752662,133.71647326558013 111.53137242607772,133.53776936454233 111.30189237813465,133.58244534692494 110.72819225746207,133.93985303587397 109.88676541345194,134.25258451665286 109.19832526892424,134.60999164084205 107.78319830447435,135.1461017621623 104.49398427898996,135.99494140141178 102.69639056734741,136.88845497526927 100.59282345813699,137.51391335669905 98.52750302385539,138.45209919882473 96.95938936038874,139.03287987044314 96.11796251684427,139.21158145557274 94.97056227526627,139.61365974656655 94.05264208232984,139.74768575877533 93.21121523855254,139.9710623518913 92.90524184075184,139.9263870426803 92.67576179234311,139.79236108678742 92.59926844295114,139.61365974656655 91.91082829819061,137.24585987755563 90.99290810525417,135.1461017621623 90.53394800843671,133.35906538832933 89.27180774300359,129.07014736087876 88.9658343452029,128.71273556689266 88.73635429702699,128.71273556689266 88.54512092331424,128.93611797349877 88.46862757392228,129.11482381387032 88.50687424885109,129.29352957906667 89.46304111671634,131.30396424705395 89.88375453837216,132.55489656273858 90.15148126147687,133.62712132444722 90.45745465927757,134.5653157668712 90.87816808093339,136.6650767583924 91.87258162349463,140.50716569487122 91.75784159940667,141.22196909794002 91.83433494879864,140.9985931639967 91.79608827386983,140.64119142477284 91.18414147873409,138.58612557823653 90.87816808093339,137.11183307450847 89.46304111671634,132.3315160627244 89.08057436952367,130.76784926769324 88.81284764641896,130.00835188649944 88.65986094763502,128.80208854359807 88.73635429702699,128.62338257141528 88.88934099581093,128.44467652362073 89.08057436952367,128.40000000002328 89.38654776709154,128.48935304270708 89.69252116489224,128.80208854359807 89.84550786367618,129.11482381387032 90.26622128556482,131.57202148254146 90.64868803275749,133.2697133718757 90.99290810525417,134.29726042371476 91.45186820160598,136.26299567133537 91.94907497288659,137.96066877842532 92.522775093792,139.6583350887231 92.67576179234311,139.79236108678742 93.51718863612041,139.6583350887231 95.9267291428987,138.89885363224312 97.57133615575731,138.45209919882473 99.2541898433119,137.87131773185683 104.6087243030779,135.81623846068396 107.3624848825857,134.83337094041053 107.8979383285623,134.7440192346694 109.16007859399542,134.20790860502166 110.76643893192522,133.71647326558013 110.95767230563797,133.6717972974293 111.1106590044219,133.80582518785377 111.1106590044219,133.93985303587397 110.95767230563797,134.11855676744017 110.19273881125264,134.52063988804002 107.55371825606562,135.50350813323166 105.22067109844647,136.26299567133537 101.01353688002564,137.8266422013985 99.75139661459252,138.40742372965906 98.64224304771051,138.80950278323144 96.88289601099677,139.30093221983407 96.34744256502017,139.6583350887231 95.65900242025964,139.9263870426803 95.54426239593886,140.37313992259442 96.07971584191546,141.4006697605073 96.61516928789206,143.0983222980285 97.11237605917268,144.08117066064733 97.99204957764596,147.07437664072495 98.4127629995346,148.14656468783505 98.87172309611924,149.71016739722108 100.4015900848899,153.59681201176136 101.77847037441097,158.1088490091788 101.85496372380294,158.46623602643376 101.85496372380294,159.18100915744435 102.00795042258687,159.44904877088265 102.23743047076277,160.1191470634658 102.61989721795544,160.56587867022608 103.23184401332401,162.30812744025025 103.8437908089254,163.6483139313059 104.34099758020602,165.47989528620383 104.30275090551004,165.65858572663274 104.03502418240532,165.92662124615163 104.03502418240532,166.14998404940707 104.30275090551004,166.73072678787867 104.79995767655782,166.99876162974397 104.99119105027057,167.26679630219587 105.9856045928318,169.85778940212913 106.29157799039967,170.9299198476947 106.40631801472045,171.60000000000582" stroke="#4dd2ff" stroke-linecap="round" stroke-linejoin="round" stroke-width="0.5"><title>2023-08-06 5.3km</title><desc>9594199691</desc></polyline><polyline fill="none" points="173.35805649787653,171.60000000000582 173.12751686864067,170.81462365679909 173.12751686864067,170.6351086574723 173.18515177606605,170.41071469557937 173.14672850444913,170.2985176261136 173.0314586899476,170.05168386506557 172.8201306964038,169.9394866063667 172.7817074249033,169.89460768640856 172.6472259745933,169.62533396777872 172.3590514381649,168.92970861926733 171.99403035861906,167.8750465001067 171.82112563680857,167.17941543603956 171.82112563680857,166.99989737328724 171.68664418638218,166.73061999556376 171.47531619295478,166.46134227742732 171.28319983533584,165.96766557666706 170.91817875579,164.9354287780734 169.8999620602699,161.68160613368673 169.74626897415146,161.2327991096099 169.22755480848718,160.02101542086166 169.0546500865603,159.28047755056468 169.03543845086824,158.94386857662175 169.0546500865603,158.652140368853 169.01622681505978,158.42773378333368 168.84332209313288,158.06868275468878 168.5935708283214,157.70963112075697 168.51672428520396,157.4852235421422 168.49751264951192,157.08128930491512 168.55514755670447,156.87932189903222 168.6704173713224,156.789558546021 169.66942243103404,156.45294563543575 170.82212057698052,155.89192293549422 171.3408347426448,155.68995440176514 171.57137437176425,155.51042665542627 171.62900927907322,155.33089875782025 171.64822091488168,155.06160662756884 171.53295110026374,154.52302134576894 171.36004637833685,154.0517581069289 171.09108347760048,153.17655218250002 170.7068507623626,152.09937072290631 170.51473440474365,151.71786764952412 170.38025295431726,151.2465982035501 169.78469224565197,149.63080932898447 169.59257588803302,149.204418553898 169.4773060734151,149.0473270004295 169.3044013516046,148.91267700532626 169.0930733581772,148.86779365470284 168.76647555013187,148.95756034646183 168.34381956339348,149.204418553898 167.8635286692297,149.36150999140227 166.90294688101858,149.63080932898447 166.07684654311743,149.8103420315747 165.1546880262904,150.10208235040773 164.8665134899784,150.14696544088656 164.65518549655098,150.1245238968404 164.53991568204947,150.05719925044104 164.42464586743154,149.92254989378853 164.36701096012257,149.78790045196365 163.61775716522243,147.63349780542194 162.92613827774767,145.20976877646171 162.7340219200123,144.22231570801523 162.71481028432027,144.0427782945917 162.75323355582077,143.95300953109108 162.88771500624716,143.84079852350987 163.75223861564882,143.63881856086664 164.21331787400413,143.63881856086664 164.4822807747405,143.57149186405877 165.44286256283522,143.07776210390148 167.38323777518235,142.3820500443544 167.70983558311127,142.2025110793329 168.82411045732442,141.25992902980943 169.03543845086824,141.01306161306275 169.55415261653252,140.11535950333928 169.59257588803302,139.86849075963255 169.49651770922355,139.57673642094596 169.11228499386925,138.79124198367936 168.7088406428229,138.27505834714975 167.76747049042024,137.39978758210782 166.94137015251908,136.68161401082762 166.4226559868548,136.16542526028934 166.32659780804534,136.12053922284395 166.05763490730897,136.18786827547592 165.90394182130694,136.38985530560603 165.788672006689,136.47962725743128 165.46207419864368,136.56939917147974 164.71282040385995,137.3773446946143 164.36701096012257,137.69154490350047 163.6753920725314,138.14040154055692 163.1182546353666,138.40971506862843 161.1778794231359,139.08299739864015 159.7370067408774,139.39719509071438 159.3527740255231,139.39719509071438 159.17986930371262,139.32986705287476 159.04538785328623,139.10544010622834 158.43061550881248,137.42223046720028 157.9887478861492,136.12053922284395 157.77741989283822,135.37991823900666 156.8168381046271,133.27025646803668 156.41339375358075,132.52962556997954 156.10600758134387,131.76654861698626 156.0867959455354,131.5870007010817 156.10600758134387,131.49722668646427 156.24048903165385,131.36256559344474 156.7784148331266,131.00346892909147 157.56609189941082,130.64437165905838 158.35376896581147,130.33016105100978 159.3527740255231,129.8588442695618 160.31335581373423,129.27530776119966 160.716800164897,129.09575774458062 161.08182124432642,128.80398864463496 161.2163026947528,128.71421345650742 162.11924957565498,128.40000000000873 162.29215429758187,128.4448876650422 162.4458473835839,128.57955060331733 162.59954046970233,128.82643243572966 162.84929173463024,129.40997017429618 163.02219645655714,129.74662583447935 163.27194772148505,130.17305557313375 163.54091062222142,130.5097100267012 163.98277824476827,130.93613823706983 164.61676222493406,131.45233966484375 165.21232293371577,132.0583136572095 165.32759274821728,132.23786117555574 165.65419055626262,133.00093643952277 165.788672006689,133.51713286152517 165.9615767284995,134.48219238064485 165.9615767284995,134.9534989281674 165.88473018549848,135.73900752258487 165.80788364238106,136.14298224277445 165.73103709938005,136.30008331584395 165.32759274821728,136.7938287910074 164.67439713235945,137.46711623019655 163.90593170176726,138.0281874700304 162.92613827774767,138.49948616897746 162.21530775446445,138.72391375417646 161.79265176760964,138.92589837874402 161.23551433044486,139.08299739864015 160.1212394561153,139.30742436887522 159.48725547583308,139.48696577474766 159.3527740255231,139.55429376290704 159.25671584671363,139.66650702929473 159.12223439628724,140.04803169250954 159.12223439628724,140.3173428079317 159.21829257521313,140.69886630510155 159.37198566133156,141.05794661914115 159.602525290451,141.50679616029083 159.9099114626879,142.584031198945 160.10202782042325,143.03287752351025 160.39020235685166,143.95300953109108 160.52468380716164,144.22231570801523 160.63995362177957,144.33452651456173 160.73601180058904,144.37941082062025 161.004974701209,144.37941082062025 161.19709105894435,144.35696866881335 161.8887099464191,144.0876626621466 162.29215429758187,144.0876626621466 162.4842706550844,144.11010484235885 162.59954046970233,144.244757874083 162.71481028432027,144.514063682087 163.02219645655714,145.72593560362293 163.1182546353666,146.21965922423988 163.44485244341195,147.09489373843826 163.61775716522243,148.08233348738577 164.00198988057673,149.5859261296864 164.07883642357774,150.1245238968404 164.04041315207724,150.28161465558514 163.9635666089598,150.37138075154508 162.94534991355613,150.84265213416074 162.36900084058288,150.99974236330308 161.79265176760964,151.31392247395706 161.23551433044486,151.4710123554396 160.7552234363975,151.6729848900286 160.63995362177957,151.80763314000797 160.52468380716164,152.27890134448535 160.50547217135318,152.413549211371 160.63995362177957,153.04190479801036 160.90891652239952,153.78246435936308 161.25472596625332,154.59034458047245 161.73501686030068,156.0490094404813 161.8887099464191,156.38562298942998 162.34978920489084,157.66474962393113 162.52269392670132,158.02380133351835 162.69559864862822,158.5848184180213 162.81086846312974,158.80922483805625 162.98377318505663,158.98874980390246 163.13746627117507,159.05607162702654 163.23352444998454,159.05607162702654 164.65518549655098,158.69702165767376 165.69261382787954,158.29308971848513 165.7502487350721,158.22576765417762 165.86551854969002,157.7993940859451 166.0,157.776953348206 166.0384232715005,157.7320718655683 166.01921163592488,157.55254584053182 165.51970910595264,155.71239535944187 165.28916947671678,154.72499098606932 165.2507462053327,154.43325699970592 165.03941821190529,153.76002319839608 164.732032039552,152.52575570208137 164.61676222493406,152.16669472376816 164.46306913893204,151.33636389271123 164.4822807747405,151.20171534479596 164.5207040461246,151.13439103889687 164.61676222493406,151.20171534479596 164.67439713235945,151.2914810528746 164.88572512567043,151.80763314000797 165.1162647549063,152.5481969931716 165.26995784102473,153.31119948187552 165.55813237745315,154.11908149060037 165.65419055626262,154.61278565393877 165.94236509269103,155.5553086062573 166.0,156.0490094404813 166.28817453654483,157.01396685752843 166.36502107954584,157.12617092466098 166.4226559868548,157.14861173095414 166.7684654305922,157.1037301159813 167.72904721891973,156.8568810642755 168.17091484146658,156.6997951551748 168.65120573551394,156.58759086349164 169.63099915953353,156.22853673278587 170.55315767624415,155.84704105569108 171.11029511352535,155.68995440176514 171.64822091488168,155.42066272557713 172.45510961697437,155.17381172325986 172.85855396802071,155.08404765147134 173.60780776280444,154.74743204537663 174.52996627951507,154.45569808974687 175.26000843860675,154.2537281941186 175.58660624653567,154.11908149060037 175.85556914727204,154.0741992371477 175.913204054581,154.14152261374693 175.83635751146358,154.2088459690567 175.58660624653567,154.32105151393625 173.06988196144812,155.1513707088743 171.30241147102788,155.86948199679318 167.97879848384764,156.96908521417936 167.8635286692297,157.03640767569595 167.8251053976128,157.12617092466098 167.80589376192074,157.26081572716066 167.84431703342125,157.39546044456074 167.9980101196561,157.7993940859451 168.30539629177656,158.8541060937423 168.36303119908553,158.98874980390246 168.5935708283214,159.25803696885123 169.24676644429564,161.30012022347364 169.6886340668425,162.4670161504182 169.82311551715247,162.9382607703301 170.05365514638834,163.43194449208386 170.61079258355312,165.27202828376903 170.80290894117206,165.74326669814764 170.97581366309896,166.30426345132582 171.0526602062164,166.6633005978947 171.0334485702915,166.77549958217423 170.91817875579,166.8652587269462 170.93739039159846,166.932578060776 171.0526602062164,167.15697568644828 171.32162310683634,167.40381280165457 171.57137437176425,167.96480518167664 171.9748187228106,169.1989832171821 172.0132419943111,169.53557598596672 172.2245699877385,170.00680496868154 172.24378162354697,170.1638810646109 172.16693508054595,170.2760782050609 172.186146716238,170.36583587493806 172.33983980235644,170.74730554981215 172.58959106728435,170.9941385047714 172.74328415340278,171.24097117380006" stroke="#4dd2ff" stroke-linecap="round" stroke-linejoin="round" stroke-width="0.5"><title>2023-08-04 9.2km</title><desc>9582211082</desc></polyline><polyline fill="none" points="35.853958640713245,219.48895282426383 35.315201428718865,218.674605796783 34.61798621364869,216.63872997177532 34.52291141147725,216.04647297170595 34.68136941490229,215.60227956654853 34.61798621364869,215.1951017852698 34.42783660942223,214.89897219341947 34.110920602455735,214.75090730391094 33.98415419948287,214.6028423521202 32.90663977584336,212.23379463749006 32.58972376899328,211.08628140887595 32.367882563965395,209.49456330746762 32.241116161225364,209.27246253399062 31.955891755060293,208.976327951008 31.829125352203846,208.71720998626552 31.29036814032588,207.16249818482902 30.846685730619356,205.7188310669444 30.593152925022878,205.31164183325018 30.466386522282846,204.79340030773892 29.95932091108989,203.60884537920356 28.976881289388984,200.68445830087876 28.691656883223914,200.09217440971406 28.438124077627435,199.20374670103774 28.15289967134595,198.5374244452105 27.74090886232443,196.6495045250922 27.74090886232443,196.0572138322459 27.45568445592653,194.31735414778814 27.138768448960036,193.3918933586392 27.17046004976146,193.16978240647586 27.265534851932898,193.058726877789 30.276236918056384,191.9851882904186 31.03683533484582,191.80009509902447 33.286938984296285,190.91164642278454 34.33276180725079,190.6154963648587 36.297641050536186,189.801082418242 39.023118710611016,188.87560973290238 39.27665151609108,188.72753387698322 39.688642325112596,188.20926788984798 39.75202552648261,187.91311555411085 39.59356752294116,187.13571448461153 39.244959915289655,186.02513854426797 38.76958590478171,185.09965591234504 38.64281950215809,184.24820973770693 38.07237068959512,182.7304092651466 37.85052948480006,181.8419376531383 37.15331426926423,180.62028551779804 36.80470666161273,179.58372885952122 36.58286545681767,179.17650933552068 36.392715852707624,178.36206887144363 36.32933265122119,178.28802873563836 36.297641050536186,178.3250488055346 36.297641050536186,178.65822925860994 36.519482255447656,179.213529311819 37.15331426926423,180.9534637941979 37.533613477717154,181.91597703986918 38.07237068959512,183.06358554033795 39.11819351243321,185.6549457841029 39.65695072442759,187.61696296843002 39.65695072442759,187.8020583637117 39.56187592248898,188.09821079316316 39.43510951951612,188.20926788984798 39.05481031117961,188.43138197800727 37.94560428685509,188.80157181274262 35.28350982826669,189.83810127494507 32.68479857116472,190.6154963648587 31.7023589493474,191.09674008237198 30.3396201194264,191.5039457899402 29.35718049784191,191.9481696598814 28.65996528242249,192.13326277336455 27.867675265064463,192.50344870772096 27.107076848391443,192.72556008104584 26.473244834225625,192.98468983912608 25.807721219724044,193.24381940622698 24.635131994029507,193.53996724874014 23.937916778726503,193.79909640623373 23.811150375870056,193.79909640623373 23.652692372445017,193.61400417037657 22.828710754285567,191.57798314056708 22.353336743777618,189.72704469319433 21.561046726303175,187.09869534312747 21.05398111511022,185.02561719642836 20.673681906890124,183.8780151050887 20.578607104718685,183.32272242484032 20.48353230266366,183.2857028815779 20.48353230266366,183.39676149957813 20.705373507458717,184.35926805139752 21.402588722878136,186.3212924716354 21.529355125618167,186.76552289453684 21.62442992767319,187.57994387770304 22.892093955539167,192.02220691702678 23.24070156319067,194.05822537266067 23.399159566732123,194.7245561228192 23.367467966047116,194.79859279483208 22.892093955539167,194.83561112493044 23.050551958964206,194.79859279483208 23.08224355976563,194.61350108552142 22.828710754285567,193.87313327324227 22.163187139551155,191.42990842359723 22.068112337379716,190.68953390271054 21.877962733153254,190.02319550004904 21.751196330529638,189.3568558335537 21.307513920706697,188.17224886160693 21.085672715795226,187.28379101137398 20.705373507458717,186.17321553925285 20.45184070186224,185.09965591234504 20.356765899807215,184.39628748156247 20.325074299238622,183.69291764262016 20.388457500608638,183.65589813835686 20.48353230266366,183.72993714286713 20.958906313055195,184.35926805139752 21.24413071933668,184.98859783267835 21.877962733153254,186.76552289453684 22.670252750744112,189.72704469319433 23.304084764793515,192.46643013178254 23.652692372445017,193.68804107635515 23.874533577240072,193.79909640623373 25.11050600442104,193.57698571152287 26.726777640054934,192.94767131397384 27.3289180531865,192.614504411933 28.121208070544526,192.31835578923346 29.103647692129016,192.17028138428577 30.561461324221455,191.61500181007432 31.226984938955866,191.2448149396514 32.01927495643031,191.02270263026003 33.033406178699806,190.5414588113781 34.934902220615186,189.98617666275823 35.53704263374675,189.72704469319433 38.07237068959512,188.87560973290238 39.181576714036055,188.32032495149178 39.340034717461094,188.09821079316316 39.340034717461094,187.8020583637117 38.54774470010307,185.06263655639486 38.19913709233515,184.4333069077984 38.0089874882251,183.91503458595253 36.614557057386264,180.6943251620978 36.3610242519062,179.47266903615673 36.3610242519062,178.39908893342363 36.42440745339263,178.21398858420434 36.58286545681767,178.06590823462466 37.216697470634244,177.69570708740503 40.00555833207909,176.696162041364 40.987997953779995,176.437020268786 41.46337196417153,176.40000000002328 42.033820776618086,176.65914179981337 42.47750318655744,176.99232383302297 43.68178401293699,178.73226931647514 44.6959152353229,180.43518633884378 45.01283124217298,181.39770100449095 45.58328005485237,182.58233081916114 46.058654065360315,183.39676149957813 46.66079447849188,184.7664815680182 47.07278528739698,185.35879129500245 47.61154249939136,186.39533091449994 47.67492570076138,186.65446534150396 47.61154249939136,186.76552289453684 47.38970129459631,186.87658041255781 46.75586928066332,186.98763789542136 45.361438849940896,187.32081013330026 44.34730762755498,187.46888658212265 42.41411998507101,188.06119175316417 41.304913960630074,188.24628691427642 40.79784834955353,188.43138197800727 39.72033392568119,188.65349592562416 39.308343116776086,188.87560973290238 38.29421189439017,189.17176125739934 35.632117435801774,190.17127080980572 34.23768700507935,190.5414588113781 33.38201378635131,190.91164642278454 30.593152925022878,191.9851882904186 29.515638501383364,192.244318594574 29.13533929293044,192.42941155197332 28.628273681853898,192.79959717424936 27.265534851932898,193.1327639008523 26.156328827375546,193.57698571152287 25.966179223149084,193.83611484171706 25.966179223149084,193.98418854459305 26.092945626121946,194.24331737446482 26.600011237198487,194.7245561228192 26.758469240623526,195.020702717331 26.885235643479973,195.98317742554354 27.043693646905012,196.5384500962391 27.423992855357938,197.16775806224905 27.51906765741296,197.6119747715129 27.74090886232443,198.20426284347195 28.247974473517388,199.87006769306026 29.008572890190408,201.9060406733479 29.547330101951957,203.71989757337724 29.864246109034866,204.42322732153116 30.466386522282846,206.57022521304316 30.71991932776291,207.16249818482902 31.068526935530826,208.31002422692836 31.41713454318233,209.0873784488358 31.44882614375092,209.49456330746762 31.353751341812313,209.82771420432255 31.41713454318233,210.27191490895348 31.54390094592236,210.49401505067362 32.0509665569989,210.9011982791999 32.241116161225364,211.30838103586575 33.128480980871245,214.0846145292744 33.47708858852275,214.9730046147597 33.50878018909134,215.23211796669057 33.47708858852275,215.3431664876407 33.350322185549885,215.4542149734334 33.44539698783774,215.89840856567025 33.57216339057777,216.12050515130977 33.95246259891428,216.3426015965233 34.174303803709336,216.7127620265819 34.55460301216226,217.8602568821516 34.998285421868786,219.60000000000582" stroke="#4dd2ff" stroke-linecap="round" stroke-linejoin="round" stroke-width="0.5"><title>2023-08-02 7.3km</title><desc>9569357200</desc></polyline><polyline fill="none" points="109.33596621046308,219.60000000000582 109.20516458235215,219.25625373795629 108.74735888361465,218.45417785926838 108.38765440625139,217.57571176587953 107.99524952180218,216.20071708617616 107.99524952180218,215.93335640410078 108.15875155688263,215.55141223061946 108.12605114991311,215.1694676547486 107.89714830066077,214.82571719246334 107.60284463723656,214.7111336326634 107.40664219495375,214.52016095249564 107.11233853152953,213.83265847098664 106.58913201908581,212.3048705116089 106.13132632034831,211.2736099998292 105.90242347109597,209.97498147937586 105.90242347109597,209.63122609243146 105.80432224995457,209.24927528036642 105.44461777247488,208.79093377460958 105.24841533030849,208.40898207720602 104.75790922460146,207.14853862120071 104.26740311889444,205.62072249691118 103.97309945547022,205.04778979055118 103.77689701330382,203.97831298300298 102.53428154578432,200.5788836083084 101.78217218385544,198.32531173480675 101.4551681134617,197.59958221743 100.99736241484061,196.10992234092555 100.99736241484061,195.61336768849287 100.93196160066873,195.1550089441007 100.86656078672968,194.0473062529927 100.73575915861875,193.4361584917351 100.50685630925,192.7868128667469 100.60495753015857,192.5958286380337 100.89926119358279,192.4430411826179 101.78217218385544,192.13746607853682 102.82858520920854,191.6027090267453 104.23470271192491,191.02975416745176 109.23786498932168,189.1198980960762 112.31170325120911,188.05037430129596 112.7695089498302,187.85938757745316 113.03111220605206,187.6684007527656 113.12921342730988,187.43921643056092 113.22731464833487,186.82805752925924 113.09651302022394,186.02590990788303 112.14820121612865,183.35207168399938 111.36339144699741,181.28938300721347 111.16718900483102,180.56361938509508 110.4150796426693,179.03569122066256 109.95727394428104,177.5459550594096 109.76107150199823,176.66738983787945 109.59756946668494,176.51459566899575 109.40136702440213,176.40000000002328 109.04166254703887,176.40000000002328 108.55115644133184,176.62919130170485 107.30854097392876,177.08757347043138 106.3275287625147,177.31676433730172 105.60811980767176,177.5841534990468 104.43090515432414,177.85154246343882 103.54799416405149,178.27172472327948 101.88027340499684,178.88289804995293 100.67035834444687,179.2266825932893 99.52584409795236,179.64686325928778 97.04061316279694,180.41082685856964 95.07858874031808,181.09839272129466 94.4245805995306,181.25118495803326 93.41086798126344,181.4039771304524 90.69673419673927,182.35892674923525 89.09441425162368,183.08468677691417 87.52479471371043,183.50486297081807 87.00158820103388,183.73404978055623 86.90348698000889,183.96323644535732 86.77268535166513,184.61259787523886 87.03428860800341,185.49114384085988 87.72099715599325,186.98084735128214 88.34230488969479,188.66153114193003 88.76741018122993,189.9984331386222 89.09441425162368,190.8387690130039 90.04272605595179,193.74173250119202 90.56593256862834,195.1932055283687 91.05643867410254,195.95713636645814 91.38344274472911,196.10992234092555 91.87394885031972,196.03352936176816 92.88766146847047,195.61336768849287 95.3728924037423,194.77304288125015 95.73259688110556,194.58205969890696 96.1577021725243,194.23828971709008 96.19040257972665,194.12369965063408 96.12500176567119,193.7035357640707 95.56909484602511,191.87008765127393 94.88238629803527,188.8907146914862 94.7188842628384,188.4705447399465 93.73787205154076,184.72719094806234 93.41086798126344,183.23747817642288 93.41086798126344,182.97009318487835 93.47626879520249,182.85549955669558 93.73787205154076,183.00829105291632 93.96677490090951,183.35207168399938 94.35917978535872,184.38341162106371 94.75158466992434,185.1473652383138 95.2747911826009,187.51561122073326 95.4709936248837,188.01217696457752 95.92879932338838,189.8456445884076 96.12500176567119,190.41860131922294 96.3539046148071,191.2971332145098 96.61550787114538,192.21385987871327 96.7136090924032,192.67222234152723 96.81171031354461,192.86320653004805 96.9098115345696,192.90140335564502 97.89082374598365,192.7868128667469 99.13343921350315,192.25205677276244 101.2589656712953,191.6027090267453 102.10917625424918,191.37352719160845 102.50158113869838,191.22073922114214 103.61339497822337,190.80057197008864 104.75790922460146,190.53319255681708 105.77162184286863,190.0366302660259 108.9762617329834,188.8143201909843 111.78849673853256,187.8975849302078 112.40980447235052,187.7065981258056 112.60600691463333,187.7447954947129 112.60600691463333,187.85938757745316 112.47520528640598,187.97397962384275 111.29799063294195,188.58513659305754 110.64398249215446,188.77612293476705 109.36866661743261,189.34908135581645 107.30854097392876,189.9984331386222 104.52900637534913,191.14434521162184 102.40347991755698,191.87008765127393 101.5532693346031,192.09926917246776 99.98364979645703,192.67222234152723 99.32964165566955,192.93960017722566 99.16613962047268,193.05419061795692 99.13343921350315,193.1687810223084 99.16613962047268,193.39796172257047 99.52584409795236,194.08550295385066 99.75474694732111,195.00222256733105 100.17985223873984,196.07172585336957 100.60495753015857,196.64467274444178 100.70305875141639,196.87385124736466 101.7494717767695,199.85315860196715 102.37077951070387,201.95393753127428 103.22099009377416,204.20748685012222 103.8422978274757,206.1554588728177 104.52900637534913,208.10342042971752 104.72520881763194,208.9437143407995 104.75790922460146,209.63122609243146 104.82331003865693,209.9367864524247 104.98681207397021,210.2805415497278 105.31381614424754,210.62429632098065 106.09862591337878,212.5722338691994 106.392929576803,213.56529604276875 106.88343568239361,214.978495215968 106.88343568239361,215.13127317503677 106.6872332401108,215.3986344485893 106.65453283314127,215.51321779110003 106.88343568239361,215.97155079929507 107.50474341621157,216.65904922547634 108.12605114991311,217.9576538070687" stroke="#4dd2ff" stroke-linecap="round" stroke-linejoin="round" stroke-width="0.5"><title>2023-07-31 6.0km</title><desc>9555944449</desc></polyline><polyline fill="none" points="172.6607064034324,218.2487931191863 172.09980481141247,217.2660942559014 171.08317067637108,214.604605692497 171.01305797719397,214.31798276034533 171.04811432678252,214.03135961681255 171.36362147214822,213.74473626189865 171.36362147214822,213.58095139288343 171.01305797719397,213.007703807496 170.6624944822397,212.88486492927768 169.6108039978426,210.42807921211352 169.08495875517838,208.91305361309787 168.66428256127983,207.1113938628987 168.06832461990416,206.04677281252225 167.0166341350414,202.97573421429843 166.73618333926424,202.44341838988476 166.42067619389854,201.09215186923393 166.14022539788857,200.150357273611 165.57932380610146,198.51244819382555 165.2287603111472,197.73443896288518 164.7029150687158,196.17841582911205 164.10695712734014,194.66333468674566 164.00178807904013,194.04911091958638 163.72133728279732,193.312041117606 163.51099918596447,191.8788458345516 162.95009759417735,190.81418306016712 162.87998489523306,189.7495173694333 163.02021029312164,189.38097856621607 163.2305483899545,189.17623463564087 165.2287603111472,188.39820671567577 165.96494365041144,187.98871771121048 167.05169048462994,187.5792282752227 167.64764842600562,187.29258541335003 168.559113512747,187.00594234009623 169.15507145412266,186.67834999752813 170.97800162783824,185.94126621691976 171.71418496686965,185.73652047425276 173.43194609205239,185.12228259904077 176.27151040104218,184.26234794280026 176.48184849787503,184.13949997947202 176.51690484723076,184.05760131566785 176.27151040104218,184.01665197729017 175.4301580132451,184.26234794280026 174.23824213049375,184.6718408736051 173.43194609205239,185.04038414242677 172.5905937042553,185.24513025174383 170.346987336874,186.02316448377678 169.36540955118835,186.18696096577332 169.0148460562341,186.02316448377678 168.8045079591684,185.81841878424166 168.41888811485842,184.9994349074841 167.6125920766499,182.4605739216786 167.05169048462994,181.23208684529527 165.96494365041144,178.2018021196709 165.78966190316714,177.58755233546253 165.36898570903577,176.7276010067435 165.29887301009148,176.39999999999418 165.43909840798005,176.64570078099496 165.71954920399003,177.34185215007165 165.96494365041144,178.28370201744838 166.38561984454282,179.0617501862289 167.05169048462994,180.53594244478154 167.54247937747277,182.29677586923935 168.2436063673813,184.09855064979638 168.559113512747,185.40892706156592 168.52405716339126,186.14601185175707 168.27866271696985,186.43265555929975 167.7878738238942,186.67834999752813 164.10695712734014,188.2753600596625 161.1271674206946,189.25813222074066 159.86513883899897,189.58572238890338 159.30423724697903,189.62667114057695 159.16401184909046,189.58572238890338 159.0237864512019,189.3400297887565 158.84850470372476,188.6438999113161 158.32265946129337,187.29258541335003 157.62153247161768,185.20418103854172 157.411194374552,184.22139862604672 156.6399546856992,181.9691795570834 156.21927849180065,179.7988470144046 156.04399674432352,179.30744928438799 155.90377134643495,179.22554960215348 155.79860229813494,179.22554960215348 155.58826420106925,179.47124859673204 155.58826420106925,179.8807465758 156.2543348413892,181.43683496091398 156.81523643317632,183.07481600367464 158.32265946129337,188.2753600596625 158.7433356551919,190.19995320992894 158.67322295624763,190.3637479315803 158.0422086652834,190.97797752302722 158.39277216047049,190.77323443375644 158.39277216047049,190.3637479315803 158.25254676234908,189.8314148337231 157.8669269180391,188.72579760864028 157.48130707349628,187.29258541335003 156.71006738464348,183.8119052206457 156.1141094432678,182.09202820656355 155.58826420106925,180.04454564658226 155.4830951525364,179.30744928438799 155.58826420106925,179.0617501862289 155.79860229813494,179.02080032139202 156.04399674432352,179.1436499027477 156.14916579285637,179.26649944542442 156.49972928781062,180.53594244478154 156.81523643317632,181.02733862158493 156.92040548170917,181.47778457120876 157.20085627771914,182.13297774770763 157.37613802519627,182.91101821011398 157.7968142190948,184.01665197729017 157.93703961675055,185.04038414242677 158.39277216047049,186.59645186871057 158.53299755812623,187.415432380134 158.9536737522576,189.05338822555495 159.09389915014617,189.29908100690227 159.2691808976233,189.42192733939737 160.00536423688754,189.29908100690227 161.09211107133888,188.97149059711955 163.02021029312164,188.52105333298096 163.79144998197444,188.19346226737252 165.05347856367007,187.8249219885911 165.92988730082288,187.45638136035996 167.75281747453846,186.80119715820183 168.83956430875696,186.2279100754531 169.6108039978426,186.10506273340434 171.1883397246711,185.40892706156592 172.55553735489957,184.87658717707382 174.86925642122515,184.22139862604672 175.9910596050322,183.8119052206457 176.16634135250933,183.7709558563365 176.3065667503979,183.85285458067665 176.27151040104218,184.05760131566785 176.0611723039765,184.22139862604672 174.34341117879376,184.9584856684378 172.16991751058958,185.69557131268084 169.68091669655405,186.7192990554322 167.4723666785285,187.45638136035996 164.3874079233501,188.68484876208822 163.2305483899545,189.01243941352004 163.0552666427102,189.2171834303299 162.95009759417735,189.54477363295155 162.95009759417735,189.99520971084712 163.12537934165448,190.6094398846617 163.47594283660874,191.3874633780797 163.82650633133017,192.04263984868885 163.931675379863,192.4930730315682 163.86156268091872,192.94350569247035 163.40583013766445,193.312041117606 163.33571743872017,193.51678286946844 163.3707737880759,193.72152451355942 164.35235157376155,196.7107402338006 165.36898570903577,199.4132990418293 166.38561984454282,202.44341838988476 166.70112698967569,203.22141819517128 167.6125920766499,206.00582579080947 167.82293017348275,206.82476540541393 167.7177611249499,207.3570752296655 167.7878738238942,207.68465014375397 167.9280992220156,207.97127796715358 168.31371906632558,208.33979914378142 169.4705785997212,211.77931327815168 169.96136749256402,212.9258112263924 169.99642384191975,213.21243518509436 169.7159730461426,213.45811269566184 169.82114209444262,213.82662867053295 169.96136749256402,214.1132519650273 170.31193098751828,214.35892890641117 170.5573254339397,214.72744402725948 171.08317067637108,216.07866314821877 171.4337341710925,217.1432567232987 171.78429766604677,218.04406439419836 171.78429766604677,218.617304552492 172.415311957011,219.60000000000582" stroke="#4dd2ff" stroke-linecap="round" stroke-linejoin="round" stroke-width="0.5"><title>2023-07-29 5.9km</title><desc>9543628546</desc></polyline><polyline fill="none" points="43.834281706949696,266.7841378446901 43.503408677643165,265.8823935629043 43.503408677643165,265.4529908228433 43.687227027257904,264.8947665846208 43.65046335756779,264.6800647509808 43.35635399795137,264.12183945439756 42.87842628895305,263.864196751907 42.65784426918253,263.6065538866096 42.54755325941369,263.3489108585636 42.4004985797219,262.8336243137601 42.290207569953054,261.80304927018005 42.069625550182536,260.77247162134154 41.44464316149242,259.3554230997688 40.856424442492425,257.3801351233269 40.45202407334,256.86484103347175 40.23144205356948,256.4354287944734 39.75351434457116,255.0613065895741 38.907949936110526,252.95717298591626 38.724131586262956,251.92657297241385 38.09914919757284,249.47888749680715 37.95209451788105,248.31945240459754 37.58445781841874,247.41766727500362 36.66536607011221,245.69997579444316 36.22420203103684,244.4117024335428 36.113911021267995,243.6816790550365 35.783037991961464,242.7369409770472 35.63598331203684,242.13574287827942 35.15805560280569,240.97628689781413 35.084528263192624,240.5898008380318 35.19481927272864,239.73094161541667 35.084528263192624,238.91502367748762 35.12129193311557,238.78619438011083 35.231582942884415,238.70030815911014 36.297729370882735,238.48559252775158 40.19467838387936,236.98257994072628 41.8122798607219,236.55314675500267 43.28282665810548,235.9089961281279 45.1210101544857,234.92129652263247 45.89304722333327,234.7065789004846 46.8121389716398,234.57774827285903 47.43712136056274,234.27714331666357 48.28268576879054,234.1053689563123 48.72384980809875,233.93359452378354 48.87090448802337,233.76182001869893 48.83414081786759,233.71887638117187 48.65032246825285,233.6759327390464 47.400357690639794,233.93359452378354 43.834281706949696,235.2219010037661 42.290207569953054,235.60839215366286 41.554934171261266,235.9519395348616 40.856424442492425,236.1237131167436 39.75351434457116,236.6390334283933 38.98147727595642,236.8108067208086 37.76827616803348,237.28318290150492 36.8859480896499,237.5408424057532 35.85656533157453,238.0561609256547 34.42278220434673,238.39970624347916 31.739034299040213,239.21562521302258 31.187579249963164,239.3444543746591 30.893469890812412,239.30151132526225 30.74641521088779,239.21562521302258 30.04790548211895,236.8537500325183 29.53321410319768,235.78016588048195 28.98175905435346,234.14831255323952 28.724413364659995,232.94589013117366 28.24648565542884,231.31402545573656 27.842085286276415,229.6821542462567 27.290630237199366,227.9643880193762 27.364157577045262,227.23433518048842 27.437684916891158,227.8355552603898 27.511212256969884,229.25271336824517 28.320012995507568,233.41827079153154 28.61412235489115,234.44891760440078 29.31263208365999,236.59609009401174 29.53321410319768,237.62672887099325 29.71703245281242,238.82913748372812 29.827323462581262,240.28920031595044 29.569977773120627,241.23394406744046 29.018522724043578,241.6204295163916 26.1877201392781,242.52222747221822 25.195101051125675,242.77988366453792 24.680409671971574,242.86576902575325 24.459827652433887,242.7369409770472 24.202481962973252,242.52222747221822 23.393681224435568,241.14805836230516 22.217243786435574,238.18499045379576 21.44520671805367,236.72492008359404 20.489351299591362,234.1053689563123 20.084950930438936,233.3753271176829 19.937896250747144,232.77411520990427 19.68055056105368,232.04407098671072 19.386441201670095,230.88458629729575 19.12909551220946,230.11159467170364 19.202622852055356,229.76804236756288 19.349677531747147,229.596266106877 19.754077901132405,229.33860158006428 20.967279008822516,229.1668251384399 21.371679377974942,228.99504862434696 21.886370757129043,228.6085512028949 22.180480116512626,228.52266283726203 22.84222617535852,228.52266283726203 24.276009302586317,228.7373837174091 26.077429129509255,228.39383025476127 26.775938858278096,228.00733226333978 28.24648565542884,226.80489172326634 29.055286394199356,226.3325033975707 31.81256163911894,225.344780583604 34.349254864500836,224.82944599134498 35.562455972190946,224.44294461945537 35.930092671420425,224.39999999999418 36.22420203103684,224.61472305218922 36.812420749804005,225.55950313821086 37.988858187804,227.19139085515053 38.062385527649894,227.74966673192102 38.65060424641706,229.33860158006428 38.944713605800644,230.66986654832726 39.49616865487769,232.34467758989194 39.86380535434,233.20355237746844 40.341733063338324,234.1053689563123 40.78289710264653,235.2219010037661 40.92995178233832,235.43661835457897 41.11377013218589,235.56544871075312 41.44464316149242,235.60839215366286 42.14315289026126,235.52250526315765 43.7607543671038,235.09307053900557 44.716609785333276,234.7065789004846 45.89304722333327,234.49186116512283 46.70184796163812,234.27714331666357 47.76799438986927,233.8047636517149 48.576795128174126,233.63298909243895 48.87090448802337,233.71887638117187 48.797377147944644,233.89065090421354 48.429740448715165,234.0624253549904 46.70184796163812,234.53480472115916 44.8636644652579,235.13601403185748 44.018100056797266,235.26484448288102 42.54755325941369,235.9519395348616 40.48878774326295,236.6390334283933 38.577076906571165,237.15435308846645 37.06976643926464,237.88438815809786 35.930092671420425,238.2279336208303 34.863946243422106,238.48559252775158 33.68750880565494,239.0867960106989 33.50369045580737,239.30151132526225 33.43016311596148,239.51622652687365 33.466926786117256,239.81682761906995 33.5772177958861,240.07448552150163 34.165436514653265,240.67568666074658 34.45954587403685,241.23394406744046 34.60660055396147,242.3504565867479 35.084528263192624,243.38108081315295 35.783037991961464,245.4423214480048 36.15067469095811,246.3870532552246 36.59183873026632,247.67532037277124 36.92271175980568,249.04946747687063 37.43740313872695,250.29478428850416 38.13591286749579,252.44187330483692 39.01824094587937,255.3189548557857 39.38587764510885,256.3066050344787 39.71675067464821,257.68072304158704 39.643223334802315,258.02425181950093 39.71675067464821,258.36778030803544 39.90056902426295,258.92601348424796 40.26820572372526,259.0977773848281 40.37849673326127,259.22660026262747 40.48878774326295,259.65600956152775 41.922570870490745,263.39185137450113 42.03286188025959,263.95007767083007 41.8122798607219,264.5083032027178 41.99609821056947,265.15240863568033 42.106389220338315,265.32416991269565 42.65784426918253,265.8394533091923 42.84166261879727,266.1829752117919 43.35635399795137,267.6000000000058" stroke="#4dd2ff" stroke-linecap="round" stroke-linejoin="round" stroke-width="0.5"><title>2023-07-26 6.1km</title><desc>9525965649</desc></polyline><polyline fill="none" points="108.76124012074433,265.0417742036225 108.32317811471876,263.9088396107836 107.97898653859738,262.7759013187024 107.6973752490012,261.5698661686911 107.32189352961723,260.2541866785905 107.25931324297562,259.7790789700812 106.53963994723745,258.46339268944575 105.8512567949947,256.3436654099787 105.7886765084695,256.0512882172188 105.81996665161569,255.68581637978787 105.88254693825729,255.46653309260728 105.8512567949947,255.21070241567213 105.6322257919237,254.80868239919073 105.10029335599393,254.5163039129693 105.03771306946874,254.37011457738117 104.66223134996835,252.90821783413412 103.84868762444239,250.97119516137172 103.7861073379172,250.16714483796386 103.84868762444239,249.83821462313063 103.81739748129621,249.65547548010363 103.59836647822522,249.25344902672805 103.12901432893705,248.81487418257166 102.90998332586605,248.37629878419102 102.31547060341109,246.73163610184565 101.6270874509355,244.4656436352525 100.81354372540955,242.45547663932666 100.0312901432626,239.89706543527427 99.74967885378283,239.312283082254 99.65580842376221,238.87369567071437 99.40548727754503,238.14271541914786 99.15516613121144,237.11934047937393 98.99871541489847,236.3152580515889 98.87355484161526,235.84011755918618 98.74839426844846,235.07258154288866 98.46678297885228,234.23194490969763 98.40420269221067,233.6837025298737 98.46678297885228,233.42785578939947 98.59194355201907,233.31820712858462 99.90612957021222,232.80651291974937 100.56322257919237,232.36791728288517 101.28289587481413,232.11206957200193 102.15901988686528,231.60037358407862 104.22416934394278,231.05212704502628 105.16287364251912,230.61352919004275 106.69609066366684,230.24803055395023 106.97770195326302,230.10183099159622 107.35318367276341,229.8459816094255 108.16672739828937,229.6266819886514 109.07414155360311,229.18808233138407 110.26316699851304,228.85913222443196 110.51348814496305,228.6763820302731 110.45090785832144,228.6032819255197 110.20058671198785,228.63983197981725 109.5747838462703,228.82258219327196 105.69480607844889,230.32113031187328 104.72481163660996,230.61352919004275 101.5957973075565,231.78312223774265 100.78225358214695,231.96587079530582 98.96742527151946,232.80651291974937 98.1225914027309,232.98926093804766 97.37162796384655,233.28165756724775 96.21389266219921,233.5740539499384 95.08744750369806,233.82990058261203 94.77454607083928,233.82990058261203 94.64938549767248,233.72025204877718 94.3051939214347,232.11206957200193 94.05487277521752,231.4176248339645 93.08487833326217,227.6529791634821 92.834557187045,227.03162594995229 92.52165575395338,225.4234124640061 92.2400444643572,224.91170660947682 92.14617403456941,224.87515616242308 91.89585288835224,224.91170660947682 91.73940217180643,224.9848074920592 91.73940217180643,225.09445878700353 91.89585288835224,225.93511756375665 92.55294589733239,228.05503064990626 92.77197690040339,228.96878229471622 93.30390933644958,230.83282818688895 93.80455162888393,232.84306253117393 94.14874320512172,234.99948278610827 94.02358263195492,235.21877901029075 93.89842205878813,235.25532836743514 92.70939661376178,235.73046966086258 90.33134572394192,236.3883565311844 89.61167242832016,236.75384869784466 89.48651185503695,236.97314381293836 89.51780199841596,237.00969298533164 89.79941328801215,236.82694708488998 92.14617403456941,236.02286397953867 93.80455162888393,235.3649764159636 94.02358263195492,235.21877901029075 94.14874320512172,234.92638401384465 94.14874320512172,234.4146921771462 93.77326148550492,232.95271134213544 93.71068119909614,232.33136762143113 92.67810647038277,228.49363173983875 92.58423604059499,227.83572989687673 91.95843317487743,225.2406604597927 91.80198245833162,224.50965147986426 91.80198245833162,224.39999999999418 92.05230360478163,224.4365504971065 92.20875432121102,224.58275244716788 92.45907546754461,225.20411004731432 92.92842761671636,227.2874774079828 93.17874876316637,228.5301818055741 93.36648962285835,229.15153233482852 93.42906990938354,229.699781877629 93.61681076919194,230.32113031187328 94.61809535440989,233.6837025298737 94.74325592757668,233.86645008611958 94.86841650074348,233.9395490816387 95.15002779033966,233.9395490816387 96.02615180239081,233.6837025298737 97.52807868015952,233.0623601184634 99.28032670437824,232.5506655323261 100.78225358214695,231.9293210915639 101.65837759431452,231.67347305707517 102.53450160636567,231.34452530698036 103.37933547515422,230.9424776333908 104.31803977384698,230.75972853667918 106.28931880102027,229.9921812795219 107.54092453257181,229.5170321263431 109.98155570891686,228.85913222443196 110.20058671198785,228.85913222443196 110.26316699851304,228.89568225177936 110.26316699851304,228.96878229471622 110.16929656884167,229.11498233451857 109.82510499248747,229.26118231276632 107.85382596531417,229.8459816094255 106.50834980385844,230.3576801852032 103.59836647822522,231.30797553766752 100.40677186276298,232.47756624405156 99.56193799397442,232.87961213861126 97.55936882353853,233.50095487729413 97.12130681751296,233.72025204877718 96.99614624434616,233.86645008611958 97.02743638749234,234.01264806170366 97.12130681751296,234.23194490969763 97.52807868015952,234.70708760488196 97.65323925344273,234.99948278610827 97.99743082956411,236.3518072932784 98.37291254883166,237.11934047937393 99.12387598783243,239.64122327705263 100.0,242.19963636784814 100.59451272257138,244.17325643240474 101.22031558828894,245.7813829984807 102.09643960034009,248.33975080921664 102.28418046014849,249.18035325786332 102.28418046014849,249.69202331639826 102.53450160636567,250.31333594443277 102.84740303934086,250.5691702325712 103.22288475860842,251.33667196516762 104.34932991722599,254.4432092529023 104.44320034689736,254.80868239919073 104.22416934394278,255.10106063913554 104.19287920068018,255.21070241567213 104.25545948732179,255.4299858645245 104.41191020375118,255.7589107780659 104.81868206639774,256.0878353797889 104.94384263956454,256.307118274417 105.88254693825729,258.7923147272959 106.00770751142409,259.26742378703784 106.10157794121187,259.8887192682305 106.66480052052066,260.91202704724856 107.6660851057386,264.0915712469141 108.69865983421914,267.0152643379697 108.72994997759815,267.2345403266372 108.57349926093593,267.4903621384583 108.60478940431494,267.6000000000058 108.82382040750235,267.6000000000058 109.10543169698212,267.4903621384583 109.6060739896493,267.16144834578154" stroke="#4dd2ff" stroke-linecap="round" stroke-linejoin="round" stroke-width="0.5"><title>2023-07-23 5.7km</title><desc>9507119362</desc></polyline></svg>