<?xml version="1.0" encoding="utf-8" ?>
<svg baseProfile="full" height="300mm" version="1.1" viewBox="0,0,200,300" width="200mm" xmlns="http://www.w3.org/2000/svg" xmlns:ev="http://www.w3.org/2001/xml-events" xmlns:xlink="http://www.w3.org/1999/xlink"><defs /><rect fill="#222222" height="300" width="200" x="0" y="0" /><text fill="#FFFFFF" style="font-size:12px; font-family:Arial; font-weight:bold;" x="10" y="20">Over 5km Runs</text><text fill="#FFFFFF" style="font-size:4px; font-family:Arial" x="10" y="280">ATHLETE</text><text fill="#FFFFFF" style="font-size:9px; font-family:Arial" x="10" y="290">Melt</text><text fill="#FFFFFF" style="font-size:4px; font-family:Arial" x="120" y="280">STATISTICS</text><text fill="#FFFFFF" style="font-size:3px; font-family:Arial" x="120" y="285">Number: 15</text><text fill="#FFFFFF" style="font-size:3px; font-family:Arial" x="120" y="290">Weekly: 2.5</text><text fill="#FFFFFF" style="font-size:3px; font-family:Arial" x="141" y="285">Total: 91.7 km</text><text fill="#FFFFFF" style="font-size:3px; font-family:Arial" x="141" y="290">Avg: 6.1 km</text><text fill="#FFFFFF" style="font-size:3px; font-family:Arial" x="167" y="285">Min: 5.3 km</text><text fill="#FFFFFF" style="font-size:3px; font-family:Arial" x="167" y="290">Max: 9.2 km</text><polyline fill="none" points="42.485135407652706,74.75559794320725 42.066586127271876,73.86675184726482 41.87633645464666,73.28900088072987 41.648036847123876,72.80013406049693 41.49583710893057,72.22238163341535 41.115337763214484,71.42241542835836 41.00118795945309,70.84466111470829 41.115337763214484,70.31134873832343 41.115337763214484,70.08913504923112 40.81093828682788,69.6002645213157 40.43043894087896,69.28916479938198 40.12603946449235,68.80029334450956 39.6313903152477,67.28923253889661 38.83234168938361,65.11151774020982 38.45184234390035,62.93379170077969 38.26159267104231,62.62268706323812 37.84304339066148,62.31158219630015 37.652793718036264,61.95603349606972 37.04399476503022,60.489391940122005 36.20689620450139,58.00053399588796 35.940546662779525,56.9338760964456 35.141498036682606,54.57833034810028 34.722948756534606,53.467219297686825 33.92390013090335,50.48942725211964 33.315101177664474,49.156080717162695 32.896551897516474,47.422723921510624 32.85850196285173,46.40048452364863 32.74435215932317,45.68936000354006 32.554102486465126,45.02267967705848 32.13555320631713,43.95598896313459 32.097503271652386,43.73376139154425 32.17360314074904,43.42264259472722 32.32580287917517,43.244860322069144 32.63020235556178,43.0670779744396 34.34244941105135,42.48928482728661 35.44589751330204,41.95593660447048 45.30083056516014,38.48915671883151 46.48037853674032,37.95580343832262 46.55647840583697,37.7780188616598 46.44232860207558,37.68912654515589 46.29012886364944,37.68912654515589 44.80618141591549,38.13358794004307 42.25683580036275,39.02250932488823 40.54458874487318,39.51141528817243 39.479190577054396,39.95587476299261 37.46254404517822,40.53367138004978 34.79904862563126,41.55592499484192 33.315101177664474,41.95593660447048 31.0321051038336,42.933741164568346 28.520809422712773,43.73376139154425 28.064210208132863,43.778206915187184 27.95006040437147,43.73376139154425 27.797860666178167,43.378197033540346 26.960762105882168,40.75590063756681 26.65636262926273,40.00032068465953 26.390013087308034,39.02250932488823 26.047563676256686,38.17803405379527 25.514864592347294,35.822383572667604 25.438764723250642,35.24458050218527 24.94411557377316,33.68895291685476 24.791915835812688,32.8000202922849 24.48751635919325,32.53334013951826 24.297266686335206,32.48889343108749 24.145066948141903,32.66668023704551 24.145066948141903,33.24448683866649 24.411416489863768,34.222311592515325 24.86801570467651,35.20013407935039 25.74316419963725,38.35581846194691 26.27586328354664,40.00032068465953 26.846612301887944,42.711513054557145 26.998812040081248,43.6893158632156 27.227111647604033,44.711561830714345 27.265161582268775,45.067125064873835 27.11296184384264,45.28935193392681 26.960762105882168,45.42268799938029 25.857314003398642,46.08936769355205 21.557671397691593,47.28938848825055 21.44352159416303,47.15605301311007 21.48157152859494,47.06716267275624 21.90012080874294,47.20049817618565 22.28062015445903,47.15605301311007 26.123663545353338,46.04492241344997 26.884662236552685,45.68936000354006 27.07491190941073,45.37824264890514 27.07491190941073,45.02267967705848 26.770512433024123,43.867097948503215 26.69441256392747,43.20041474208119 26.16171347978525,41.37814193541999 25.933413872495294,40.17810432476108 25.438764723250642,38.53360279509798 24.9821655084379,36.35573955066502 24.44946642452851,34.400097667676164 24.183116882573813,33.022253624134464 24.145066948141903,32.57778684346704 24.221166817238554,32.40000000002328 24.48751635919325,32.4444467179419 24.52556629362516,32.53334013951826 24.791915835812688,33.15559356697486 25.210465115960687,34.80011606332846 26.69441256392747,39.55586125672562 26.998812040081248,41.0670214012207 27.379311386030167,42.26705648304778 27.683710862416774,43.60042479247204 27.797860666178167,43.73376139154425 28.711059095570818,43.644870330172125 29.928657001815736,43.378197033540346 31.640904057072476,42.84484993459773 32.934601832181215,42.31150216126116 34.1521997381933,41.91149088885868 35.17954797134735,41.33369615886477 36.891795026604086,40.66700894862879 39.59334038081579,39.82253696973203 42.028536192839965,38.88917123657302 43.20808416418731,38.578048866649624 45.79547971440479,37.68912654515589 46.29012886364944,37.600234209996415 46.44232860207558,37.73357270579436 46.29012886364944,37.91135730125825 45.947679452830926,38.08914182163426 39.59334038081579,40.35588788992027 38.75624182028696,40.57811724097701 37.728893587132916,41.02257559192367 35.86444679345004,41.55592499484192 33.315101177664474,42.667067418427905 31.336504580453038,43.378197033540346 30.841855431208387,43.467088151111966 30.6135558236856,43.60042479247204 30.53745595458895,43.778206915187184 30.53745595458895,44.04487995893578 30.91795530030504,45.15601582659292 31.79310379526578,47.37827878171811 32.24970301007852,48.222735635295976 32.63020235556178,49.28941556037171 32.896551897516474,49.82275451140595 33.8478002618067,52.800551262917 34.11414980352856,53.467219297686825 34.38049934548326,54.35610837204149 34.684898822102696,55.15610693770577 34.837098560296,55.73388273597811 35.483947447966784,57.51164946006611 35.902496728114784,58.978301367897075 36.32104600826278,60.222729291184805 36.51129568112083,60.93382931360975 36.92984496126883,62.00047709993669 36.96789489593357,62.53379998187302 36.853745092405006,62.97823520176462 36.815695157740265,63.289339577109786 37.15814456855878,63.77821741779917 37.614743783604354,63.955991037539206 37.690843652701005,64.08932120318059 38.109392932849005,65.24484754080186 38.604042082093656,67.06701725814492 39.17479110043496,68.48919303284492 39.365040773293,69.15583627703018 39.365040773293,69.37805045759887 39.2128410350997,69.68915011393256 39.2128410350997,69.9113640137657 39.479190577054396,70.4002341812593 40.08798953006044,71.02243175701005 40.316289137350395,71.5557432344649 41.49583710893057,74.80004019881017 41.49583710893057,75.60000000000582" stroke="#4dd2ff" stroke-linecap="round" stroke-linejoin="round" stroke-width="0.5"><title>2023-08-21 5.7km</title><desc>9691792365</desc></polyline><polyline fill="none" points="108.75027587916702,75.60000000000582 108.16692415392026,74.6006798161543 107.31134162354283,72.23864108484122 107.31134162354283,71.46643330872757 107.46690208371729,70.92134463423281 107.42801196849905,70.73964825630537 107.1557811636012,70.23998282218236 106.68909978331067,69.9220136081567 106.49464920838363,69.64946838087053 105.13349518249743,66.24263850651914 104.93904460733756,65.56126930183382 104.74459403241053,64.51650109665934 104.66681380220689,63.789704330672976 104.51125334226526,63.51715522757149 103.96679173200391,63.06290633956087 103.6945609266404,62.517807042517234 102.91675862646662,60.01942644681549 102.25562667124905,57.384754864295246 101.63338483078405,55.931136065599276 101.0889232205227,54.477512366342125 100.89447264536284,53.84155045702937 100.54446161026135,53.160161656094715 100.07778022997081,51.70652861529379 99.68887907988392,50.20746440929361 99.53331861970946,49.84405411980697 99.02774712443352,48.072424572717864 98.79440643428825,46.30078774606227 98.79440643428825,45.43767998821568 98.36661516921595,43.666032335488126 98.59995585936122,43.39347051194636 100.11667034495622,42.89377338817576 100.89447264536284,42.39407568506431 102.72230805153958,41.758095952740405 103.34454989153892,41.621814459358575 104.12235219194554,41.21296972109121 104.97793472232297,40.985833587736124 105.95018759788945,40.53156096243765 107.38912185351364,40.07728785829386 108.78916599438526,39.57758689086768 110.22810025000945,39.21416764182504 112.05593565572053,38.57818321874947 112.79484784137458,38.26019065536093 112.87262807134539,38.1239080564701 112.67817749641836,38.07848051385372 111.8225949658081,38.16933559416793 106.76688001328148,39.623014275566675 105.17238529771566,40.16814251738833 104.23902253713459,40.667842800176004 103.18898943159729,41.07668805550202 99.22219769959338,42.5303569342359 96.77212045318447,43.25718953565229 94.32204320700839,43.847740122146206 93.89425194193609,43.893167056841776 93.77758159697987,43.847740122146206 93.69980136677623,43.71145928930491 93.58313102182001,43.16633552746498 93.27201010170393,42.39407568506431 91.59973515570164,36.30680262079113 90.9774933157023,34.30797779583372 90.54970205039717,32.763424993056105 90.43303170520812,32.445428140839795 90.35525147500448,32.39999999999418 90.08302067010663,32.717996885679895 90.23858113028109,33.80827014159877 91.01638343045488,36.942790394532494 91.75529561610892,39.39587730457424 91.9886363062542,40.48613367351936 92.29975722613744,41.48553292301949 92.45531768607907,42.712065199477365 92.8831089513842,44.84713157947408 92.92199906636961,45.48310675544781 92.8442188363988,45.71024051948916 92.72754849144258,45.80109399164212 91.59973515570164,46.39164109376725 89.96635032515042,46.98218738712603 87.28293238859624,47.7090124838287 87.12737192865461,47.61815941368695 87.16626204364002,47.52730632445309 87.32182250381447,47.481879772705724 87.74961376888677,47.61815941368695 88.09962480398826,47.57273287139833 90.00524044013582,46.93676077778218 92.02752642100677,46.482494422321906 92.18308688118123,46.39164109376725 92.61087814625353,45.98280087846797 91.9886363062542,46.255361065123 90.7052625103388,46.57334773175535 88.25518526416272,47.39102665474638 87.39960273378529,47.57273287139833 87.24404227361083,47.481879772705724 87.32182250381447,47.30017351763672 87.82739399885759,47.481879772705724 88.95520733459853,47.163893776159966 92.72754849144258,45.80109399164212 92.96088918158785,45.61938702824409 93.07755952654406,45.43767998821568 93.03866941155866,45.16511928476393 92.76643860642798,44.12030165849137 92.37753745610826,42.07608593616169 91.75529561610892,39.668441655347124 91.44417469576001,38.214763127150945 90.86082297028042,36.6247966249648 90.66637239512056,35.08025212222128 90.3163613602519,34.17169394760276 90.08302067010663,33.21770580348675 90.08302067010663,32.763424993056105 90.19969101506285,32.581712534767576 90.39414159022272,32.581712534767576 90.74415262555704,32.80885309554287 91.4052845807746,34.67140118058887 91.75529561610892,36.30680262079113 92.18308688118123,37.66963241549092 92.37753745610826,39.07788534439169 93.07755952654406,41.394678541546455 93.69980136677623,43.120908516226336 93.81647171196528,43.847740122146206 94.01092228712514,43.98402091176831 94.74983447231352,43.847740122146206 96.26654895814136,43.348043524689274 98.2499448240269,42.84834634812432 100.4277912650723,42.03065880999202 102.21673655603081,41.07668805550202 104.3556928820908,40.34985177809722 106.22241840302013,39.89557848253753 107.46690208371729,39.44130470830714 111.74481473583728,38.1239080564701 112.71706761117093,37.9876254145056 112.63928738120012,38.1239080564701 112.36705657606944,38.26019065536093 110.53922117012553,38.98703045549337 109.6836386397481,39.21416764182504 108.78916599438526,39.57758689086768 108.05025380873121,39.75929640047252 104.90015449235216,40.94040634678095 103.77234115684405,41.25839693332091 102.68341793632135,41.71266879304312 101.82783540594392,42.03065880999202 100.23334069014527,42.712065199477365 98.9499668944627,43.03005447934265 97.8221535589546,43.48432447240339 97.00546114332974,43.71145928930491 96.77212045318447,43.847740122146206 96.61655999324284,44.12030165849137 96.65545010822825,44.57457050276571 97.12213148851879,45.43767998821568 97.86104367394,47.52730632445309 98.36661516921595,48.43583635534742 98.40550528420135,49.162659001594875 99.14441746962257,50.61630061859614 99.80554942484014,52.38791971333558 99.92221977002919,52.93303181667579 100.46668138029054,54.341234893363435 100.85558253037743,55.74943337106379 101.32226391043514,57.20305278239539 101.7500551759731,58.247838707466144 102.45007724617608,60.56452890223591 102.76119816629216,61.74558185855858 103.15009931661189,62.608656973112375 103.30565977655351,63.244605952175334 103.2667696615681,63.789704330672976 103.46122023672797,64.56192585386452 103.53900046669878,64.6982000968419 103.88901150180027,64.97074845343013 104.04457196197473,65.19787195223034 104.74459403241053,67.5145248080662 105.71684690797701,70.19455866303178 105.71684690797701,70.37625527076307 105.56128644780256,70.73964825630537 105.75573702296242,71.37558524409542 106.14463817304932,71.78440138392034 106.49464920838363,72.28406502850703 106.57242943835445,72.60203250093036 106.53353932313621,73.01084747808636 106.53353932313621,73.78305248863762" stroke="#4dd2ff" stroke-linecap="round" stroke-linejoin="round" stroke-width="0.5"><title>2023-08-19 6.1km</title><desc>9679099413</desc></polyline><polyline fill="none" points="174.31463921815157,75.60000000000582 174.04009924433194,74.95867401300347 173.21647932147607,72.34755130193662 173.17725932528265,72.02688602847047 173.29491931409575,71.5229829782038 173.21647932147607,71.01907934411429 173.0203793400433,70.69841309104231 172.5497393840924,70.42355611466337 172.31441940623336,70.10288942256011 171.60845947288908,68.40793297908385 171.2554795059841,67.30849824022152 170.90249953907914,66.62135011702776 170.82405954645947,66.39230050123297 170.7848395500332,65.70515093032736 170.51029957574792,64.74313970687217 170.39263958693482,63.87274676619563 169.96121962741017,63.36883426739951 169.41213967907242,62.22357641678536 168.3139797821641,59.062649098574184 167.6864598414395,56.863729586591944 167.0981598966755,55.35196597201866 166.9020599150099,54.52736542158527 166.31375997024588,53.24465034608147 165.49014004762284,50.9540782996919 165.0195000921376,49.99203444219893 164.50964013976045,48.20537591687753 164.58808013238013,47.38076181363431 164.50964013976045,46.46452208716073 164.235100165708,45.502468296472216 163.99978018784896,43.94485288418946 164.03900018404238,43.80741596221924 164.19588016928174,43.76160364531097 166.78439992619678,42.57048171007773 168.0002198119182,42.066544524626806 168.54929976025596,41.74585692057735 170.23575960169546,41.28773136169184 171.09859952051193,40.96704318324919 172.11831942480057,40.69216741345008 173.0203793400433,40.37147879577242 174.07931924052536,39.91335178882582 175.13825914100744,39.592662596696755 176.47173901554197,39.04290914561716 178.07975886459462,38.58478073871811 178.86415879102424,38.172464759933064 179.06025877245702,38.0350260133564 179.06025877245702,37.98921308811987 178.90337878721766,37.94340015828493 178.55039882054552,37.98921308811987 176.7462789900601,38.722219311544904 175.25591913005337,39.18034757350688 174.04009924433194,39.68428810421028 171.41235949122347,40.55472946341615 170.58873956860043,40.73798005376011 169.1768197012134,41.42516907994286 165.96078000334091,42.47885681083426 164.62730012880638,43.07441831167671 163.6860202171374,43.44091729144566 162.31332034617662,43.76160364531097 161.2936004421208,44.265538866398856 160.46998051926494,44.44878789279028 159.9993405637797,44.44878789279028 159.80324058211409,44.402975643432 159.68558059306815,44.265538866398856 159.1365006447304,43.395104935916606 158.86196067067795,42.158169510919834 157.76380077400245,38.76803215939435 157.21472082543187,36.7980753396987 156.97940084734,35.19461552530993 156.6656408768613,34.50741665170062 156.5479808880482,33.86603005649522 156.1557809249498,32.76650797747425 155.99890093971044,32.44581351408851 155.80280095804483,32.40000000002328 155.6851409689989,32.58325402729679 155.6851409689989,32.81232145286049 156.23422091733664,34.8739228528284 156.6656408768613,36.06506587268086 157.01862084376626,38.3099034629704 157.99912075162865,41.51679420139408 158.2344407294877,42.75373145099729 158.86196067067795,45.2734075562621 158.86196067067795,45.823153129866114 158.70508068520576,46.14383772673318 158.50898070377298,46.281273910281016 157.0578408401925,46.96845417577424 154.0771211204119,48.02212847341434 153.4888211756479,48.20537591687753 153.018181219697,48.15956406327314 152.93974122731015,48.02212847341434 153.018181219697,47.97631660057232 153.44960117922164,48.15956406327314 153.64570116088726,48.15956406327314 155.41060099494644,47.51819760602666 157.2539408216253,46.96845417577424 158.58742069639266,46.281273910281016 158.8227406742517,46.0522135803476 158.90118066687137,45.86896522954339 158.8227406742517,45.22759539380786 158.31288072210737,43.532541988097364 158.0383407480549,42.75373145099729 157.76380077400245,41.47098164315685 157.33238081424497,39.91335178882582 157.21472082543187,39.45522429904668 157.21472082543187,38.85965784077416 157.0578408401925,38.21827766575734 156.70486087328754,37.21039262189879 156.19500092114322,34.91973610618152 155.7635809618514,33.7744033227209 155.72436096542515,33.31626936458633 155.80280095804483,33.041388757905224 155.92046094709076,32.99557530664606 156.07734093233012,32.99557530664606 156.2734409137629,33.13301564598805 156.78330086590722,34.18672347231768 157.45004080305807,36.38575766663416 157.52848079591058,37.16457960990374 157.7245807775762,37.89758722341503 158.31288072210737,39.68428810421028 158.50898070377298,40.69216741345008 158.78352067782544,41.47098164315685 159.01884065568447,42.79954387419275 159.4110406190157,44.402975643432 159.64636059687473,44.44878789279028 161.37204043450765,43.99066518183099 164.31354015832767,42.93698111467529 165.17638007714413,42.57048171007773 165.88234001095407,42.387231892120326 167.96099981549196,41.60841930357856 169.52979966788553,41.05866840109229 169.80433964240365,41.05866840109229 169.80433964240365,41.28773136169184 169.33369968645275,41.79166944991448 168.82383973430842,41.974919518921524 167.72567983763292,42.295606953965034 165.41170005500317,43.166043085599085 163.3722602466587,44.12810204576817 162.8624002947472,44.265538866398856 162.62708031665534,44.54041237721685 162.62708031665534,44.815285714226775 162.70552030927502,45.04434669550392 162.94084028713405,45.31921971403062 163.80368020618334,45.63990468258271 164.07822018046863,45.96058941454976 164.235100165708,46.281273910281016 164.3527601545211,46.8310182094574 164.82340011023916,50.450150830234634 165.21560007357039,51.59543968900107 165.88234001095407,54.02344209313742 166.82361992215738,56.63467483140994 167.45113986334763,58.87940623058239 167.88255982287228,60.207915273931576 168.23553978977725,60.89507353134104 168.784619738115,62.727490242687054 169.0983797085937,63.78112635528669 169.13759970501997,64.55989923249581 169.372919682879,65.10962042387109 169.80433964240365,65.43029079792905 169.8827796347905,65.56772088591242 170.1965396052692,66.43811043407186 170.31419959431514,67.17106870247517 170.82405954645947,68.95764930613223 171.2554795059841,69.87384164051036 171.4515794874169,70.56098462457885 171.49079948384315,70.83584151411196 171.37313949479721,71.20231709675863 171.4515794874169,71.61460175804677 171.60845947288908,71.93526733547333 172.19675941742025,72.39336060738424 172.39285939908586,72.71402561065042" stroke="#4dd2ff" stroke-linecap="round" stroke-linejoin="round" stroke-width="0.5"><title>2023-08-18 5.3km</title><desc>9672765593</desc></polyline><polyline fill="none" points="42.23815677664243,123.60000000000582 41.88924660719931,122.7849458452547 40.920051692286506,120.06808750180062 40.842516099102795,119.56999494295451 40.920051692286506,118.84549564530607 40.842516099102795,118.52852681861259 40.64867711625993,118.07571380355512 40.183463556924835,117.75874440930784 39.98962457384914,117.48705617096857 39.36933982861228,115.94748624388012 38.5552161000669,113.63812101454823 38.283841523807496,112.27966508406098 38.245073727099225,111.55515349894995 38.05123474402353,111.28346133971354 37.70232457481325,111.01176900882274 37.43094999878667,110.46838383181603 36.345451693981886,107.25334081205074 36.03530932124704,106.43825566212763 33.670473728794605,99.0118531002372 33.20526016969234,97.92505171874654 32.81758220377378,96.29484449399752 32.81758220377378,95.93257538208854 32.66251101740636,94.57406349320081 32.429904237855226,93.75895429874072 32.04222627193667,92.80799161823234 31.925922882044688,92.30986746953567 32.0034584752284,91.94759499887004 32.352368644671515,91.63060633657733 35.37625677930191,90.31736510206247 37.97369915107265,89.32111045432976 39.29180423519574,88.91355106921401 45.455883894115686,86.69460985908518 46.696453385055065,86.1964786251192 46.92906016483903,86.01533985149581 46.81275677494705,85.92477043590043 46.54138219892047,85.92477043590043 45.378348300931975,86.1964786251192 42.62583474256098,87.05688675757847 40.60990931955166,87.60030153265689 38.63275169325061,88.32485349732451 36.53929067705758,89.27582609723322 33.28279576287605,90.4079335918941 30.413978814845905,91.5400381044019 28.359285595128313,92.1287312724453 27.855304239317775,92.1287312724453 27.700233052950352,92.0834472112474 27.54516186658293,91.81174274371006 26.30459237564355,87.87200866255444 26.033217799384147,86.51347129532951 25.60677203675732,85.74363154778257 25.257861867547035,84.70208145907964 24.24989915615879,81.3509901353973 24.133595766033977,81.21513453053194 23.978524579899386,81.3509901353973 23.939756783191115,81.48684569718898 23.978524579899386,81.89441212516977 24.792648308444768,84.06809321278706 25.374165257206187,86.3323326552927 25.800611019833013,87.32859423107584 26.110753392567858,88.5059912976576 26.459663561778143,89.54753216795507 27.273787290556356,93.57781871230691 27.196251697372645,93.80423818336567 26.8861093246378,94.03065753536066 25.56800424004905,94.6646310860815 21.264778818003833,95.97785903787008 21.458617800846696,95.97785903787008 23.397007630905136,95.29860370163806 24.98648729152046,94.7099148753332 26.033217799384147,94.43821206819848 26.459663561778143,94.16650908920565 26.26582457893528,94.34764442761661 25.723075426649302,94.6646310860815 23.435775427613407,95.43445485483971 22.001366953598335,95.7514407117269 21.07093983516097,96.11370997616905 21.148475428344682,96.20427724462934 21.7299923771061,96.02314268879127 22.97056186827831,95.47973856289173 25.102790681179613,94.84576621456654 26.614734748378396,93.98537367448444 26.76980593474582,93.84952206342132 26.84734152792953,93.66838651508442 26.033217799384147,89.68338513892377 25.68430762994103,88.7776978550246 25.219094070838764,86.64932522535673 24.94771949481219,86.01533985149581 24.715112715028226,84.8379359615792 24.521273731952533,84.33980257579242 24.056060173083097,81.62270121613983 23.745917800348252,80.80756745839608 23.745917800348252,80.58114114031196 23.900988986715674,80.39999999999418 24.094827969791368,80.39999999999418 24.36620254558511,80.58114114031196 24.90895169810392,81.57741604789044 25.180326274363324,82.48311850521713 25.412933053914458,83.02653906337218 25.839378816541284,84.65679661539616 26.033217799384147,85.74363154778257 26.26582457893528,86.64932522535673 26.76980593474582,88.27956903536688 26.96364491782151,89.9550909519603 27.5839296632912,91.49475398115464 27.661465256474912,92.35515150692663 27.816536442842335,92.49100359046133 28.398053391836584,92.35515150692663 29.40601610345766,91.90231091863825 30.87919237394817,91.44946985310526 31.848387288860977,90.99662831056048 33.670473728794605,90.4079335918941 36.190380507614464,89.27582609723322 38.283841523807496,88.55127573583741 40.222231353633106,88.00786216306733 41.501568641280755,87.46444790335954 44.137778809759766,86.69460985908518 45.417116097640246,86.1964786251192 46.618917792104185,85.92477043590043 46.735221181763336,86.01533985149581 46.735221181763336,86.15119393888745 46.5026144022122,86.3323326552927 44.060243216576055,87.28330966399517 43.20735169155523,87.64558606626815 39.446875421795994,88.91355106921401 38.43891271017492,89.36639480665326 34.21322288108058,90.77020736029954 33.28279576287605,91.22304914146662 31.5382449158933,91.81174274371006 30.76288898405619,92.17401532889926 30.607817797688767,92.40043553960277 30.569050001213327,92.53628760870197 30.68535339087248,92.89855958308908 31.42194152623415,93.39668304959196 31.654548306018114,93.62310261611128 31.925922882044688,94.07594139140565 32.08099406841211,94.7099148753332 32.19729745807126,95.52502226625802 32.58497542422265,96.5212625337881 32.89511779695749,97.97033516448573 33.32156355935149,98.96656976421946 33.8643127118703,100.82318262947956 34.52336525381543,102.49865564808715 35.29872118588537,105.3514730577881 37.15957542252727,110.8306406927586 37.27587881218642,111.37402541193296 37.23711101571098,112.23438314572559 37.3921822020784,112.596638518502 37.74109237152152,112.91361171918106 37.85739576118067,113.14002100512153 38.283841523807496,114.63431930184015 38.942894065752625,116.26445697373128 39.13673304906115,116.98896062158747 39.601946607930586,118.25683906680206 39.601946607930586,118.57380809393362 39.446875421795994,118.80021439873963 39.485643218271434,118.93605812435271 39.7182499980554,119.3888702330878 40.222231353633106,119.79640072313487 40.45483813341707,120.1133686149551" stroke="#4dd2ff" stroke-linecap="round" stroke-linejoin="round" stroke-width="0.5"><title>2023-08-15 6.1km</title><desc>9652797631</desc></polyline><polyline fill="none" points="106.8282055282034,120.25622229438159 106.71214537741616,119.48805346424342 106.90557896182872,118.85544280643808 106.8282055282034,118.58432366765919 106.59608522686176,118.08727146784076 106.17053134134039,117.81615184352268 105.16467670258135,115.46644125427702 104.54568923241459,113.65896281189634 104.35225564800203,112.3485361788189 104.35225564800203,111.89666399772977 104.19750878075138,111.62554046072182 104.08144863019697,111.21885483374353 103.65589474444278,110.7669814627443 103.42377444333397,110.1795453686791 102.88216040702537,108.55279506355873 102.57266667182557,107.87498061571387 102.41791980457492,107.01641411072342 102.06973935267888,106.29340940521797 101.76024561771192,105.20890006195987 101.29600501526147,104.07919991374365 100.94782456336543,102.94949678995181 100.75439097895287,102.09092042603879 100.36752381012775,101.09677722599008 98.74268170143478,96.57791545786313 98.5879348339513,95.80970422268729 98.62662155088037,95.31262563134078 98.78136841859668,94.95111356669804 98.66530826780945,94.31846672046231 98.78136841859668,93.50506226121797 98.74268170143478,93.09835945317172 98.5879348339513,92.64646699177683 98.16238094842993,91.87824871501653 98.0850075148046,91.51673375570681 98.201067665359,91.38116556731984 99.20692230411805,90.88408184354194 100.21277694264427,90.61294502418605 101.60549875022843,89.98029177886201 104.31356893153861,89.16687909225584 106.17053134134039,88.44384429804632 109.03334838990122,87.58523889674689 112.74727320973761,86.18435270970804 112.9020200772211,86.04878283594735 112.9020200772211,85.95840289615444 112.51515290839598,85.9132129191712 110.7742506491486,86.31992254065699 108.02749375114217,87.3140999917814 103.57852131058462,88.48903400846757 101.10257143084891,89.52839603234315 98.51056140032597,90.3869975435955 96.92440600856207,90.83889238545089 96.26673182169907,91.15521849156357 94.83532329718582,91.56192314226064 93.82946865865961,91.65230190113652 93.5973483575508,91.51673375570681 92.9396741706878,90.34180803329218 91.97250624885783,86.95258118526544 91.85644609807059,86.0939727985533 91.70169923058711,85.28055274131475 91.35351877869107,84.01522958587157 90.96665161009878,83.11142504634336 90.73453130898997,82.02685708491481 90.54109772434458,80.71633380537969 90.38635085709393,80.44519055786077 90.19291727244854,80.39999999999418 90.07685712212697,80.39999999999418 89.99948368826881,80.53557165939128 89.99948368826881,80.85190536480513 90.23160398961045,82.07204747135984 90.9279648931697,84.69308174066828 91.19877191120759,85.37093282383285 91.74038594774902,87.26891015769797 92.01119296555407,88.66979280213127 92.70755386934616,91.1100290620816 92.90098745375872,92.5108991607267 92.9396741706878,93.45987307932228 92.78492730297148,93.68581894109957 91.4695789294783,94.31846672046231 89.80605010385625,94.90592453721911 87.21404007356614,95.6741373911791 87.0979799227789,95.76451528366306 87.17535335640423,95.80970422268729 87.44616037444212,95.80970422268729 92.32068670075387,94.45403398034978 92.47543356823735,94.27327762436471 92.43674685107544,93.68581894109957 92.55280700186267,93.9569538179785 92.43674685107544,94.13771030725911 91.0440250437241,94.7251683716022 88.21989471209235,95.6741373911791 87.36878694081679,95.80970422268729 87.13666663970798,95.76451528366306 87.29141350719146,95.6741373911791 87.83302754326724,95.7193263398367 88.1425212782342,95.6741373911791 89.96079697133973,95.04149161142414 91.97250624885783,94.40884489851305 92.47543356823735,94.13771030725911 92.630180435488,94.00214294742909 92.70755386934616,93.64062977820868 92.70755386934616,93.0531702284643 92.43674685107544,91.01965018903138 91.81775938137434,88.71498248862918 91.66301251365803,87.81118785304716 91.4695789294783,87.22372031881241 90.96665161009878,85.0546024516807 90.61847115820274,83.06623476941604 90.03817040519789,80.89709587499965 89.99948368826881,80.7615243300097 90.07685712212697,80.58076220293879 90.23160398961045,80.53557165939128 90.54109772434458,80.7615243300097 90.77321802568622,81.57495295809349 91.00533832679503,82.16242823007633 91.62432579696178,84.69308174066828 92.59149371879175,87.9919469326851 92.70755386934616,88.71498248862918 93.55866164062172,92.19457405450521 93.7134085081052,92.28495268002735 94.13896239362657,92.19457405450521 95.64774435176514,91.60711252404144 97.81420049653389,91.1100290620816 99.2456090208143,90.61294502418605 101.91499248496257,89.43801682593767 104.50700251571834,88.53422371399938 106.01578447362408,88.08232644377858 110.15526317921467,86.59106207400328 112.51515290839598,85.86802293744404 112.66989977587946,85.86802293744404 112.78595992666669,86.00359286839375 112.5925263420213,86.13916275647352 111.97353887208737,86.41030240422697 110.61950378143229,86.81701155431801 108.45304763666354,87.72080828491016 104.85518296738155,88.76017217049957 102.41791980457492,89.66396480627009 98.39450124977157,90.97446074523032 96.96309272525832,91.56192314226064 96.69228570745327,91.7426806408912 96.61491227359511,91.92343806353165 96.69228570745327,92.42052058273111 97.11783959297463,93.1887378882675 97.31127317715436,93.73100809907191 97.73682706290856,95.31262563134078 98.16238094842993,96.17121556351776 98.5879348339513,97.30093654012308 98.82005513529293,98.24989986084984 99.63247618963942,100.1026317216747 99.98065664153546,101.32271906468668 100.4448972439859,102.4976147072739 100.59964411146939,103.13024948970997 101.10257143084891,104.35032822060748 101.21863158140332,105.11852415968315 101.56681203329936,106.11265803838614 101.83761905133724,106.65491191038745 103.03690727450885,110.58623198090936 103.5011478769593,112.48409774023457 103.81064161192626,112.71003358080634 103.96538847940974,112.93596930248896 104.54568923241459,114.78863773072953 104.93255640123971,115.87312285421649 105.08730326895602,116.37017761947936 105.12598998565227,116.86723180863191 105.43548372061923,117.77096522273496 105.31942357006483,118.44876403384842 105.39679700392298,118.81025629522628 105.62891730503179,119.21693472514744 106.09315790748224,119.53323990409262 106.32527820859104,119.8947312514938 107.56325314869173,123.2836978196865 107.67931329924613,123.60000000000582" stroke="#4dd2ff" stroke-linecap="round" stroke-linejoin="round" stroke-width="0.5"><title>2023-08-14 6.1km</title><desc>9645903556</desc></polyline><polyline fill="none" points="174.3637123873923,123.60000000000582 173.86495889653452,122.52453457831871 172.82908626133576,119.88067052618135 172.71398930205032,119.34293345399783 172.7907206080854,118.80519570203614 172.71398930205032,118.3570803895127 172.52216103603132,117.99858779966598 172.25360146397725,117.86415300058434 172.02340754517354,117.6400949076633 171.67811666661873,116.87829650906497 170.48878141888417,113.60702905594371 170.18185619381256,112.39710184451542 170.2202218468301,111.99379200927797 170.1434905405622,111.59048179164529 169.95166227477603,111.18717119164648 169.60637139645405,110.87348490508157 169.41454313043505,110.60461076101637 168.53213310800493,108.13992318851524 167.91828265762888,105.98891145520611 167.41952916653827,104.7341495877481 166.65221610362642,102.04536169409403 165.34778389637358,98.28103008918697 165.0792243243195,97.20550065475982 164.7339334457647,96.3988517941616 164.69556779274717,96.04034069838235 164.77229909901507,95.1440616370819 164.69556779274717,94.78554948384408 164.42700822046027,94.29259477957385 163.77479211706668,93.2618694609555 163.5062325450126,92.67928448037128 163.42950123851188,92.23114164453 163.5062325450126,92.00707004961441 163.69806081056595,91.73818397993455 167.11260394146666,90.03523492420209 171.60138536035083,88.6011672730092 172.71398930205032,88.15302014048211 173.78822759026662,87.88413163422956 174.82410022523254,87.48079855629476 176.85747984261252,86.89820565722766 178.4304716216866,86.27079702736228 178.6222998877056,86.13635220058495 178.46883727493696,86.00190733122872 177.24113637395203,86.18116714755888 175.89833851368167,86.80857590958476 174.5171749999281,87.61524295806885 172.71398930205032,88.28746432982734 171.4862884010654,88.64598196026054 169.95166227477603,89.18375783946249 169.18434921163134,89.40783092170022 167.95664831064641,89.94560583765269 166.03836565301754,90.48338007356506 163.19930731970817,91.60374088125536 161.05083074304275,92.36558454492479 160.32188333314843,92.50002740268246 159.74639853578992,92.54484167913324 159.59293592325412,92.45521312151686 159.55457027000375,92.3207702494692 159.13254808541387,90.79708139717695 158.51869763503782,89.00449928859598 158.17340675671585,87.70487253565807 157.7130189188756,86.36042688830639 157.17589977453463,84.56782608095091 156.25512409885414,80.80333979293937 156.06329583306797,80.48963109825854 155.90983322053216,80.40000000002328 155.83310191426426,80.40000000002328 155.67963930149563,80.57926217743079 155.67963930149563,80.80333979293937 156.48531801789068,83.1337399953336 157.13753412128426,85.37449737911811 157.82811587816104,88.64598196026054 158.82562286034226,92.45521312151686 159.05581677914597,93.53075456744409 158.94071981986053,93.79963950402453 158.7872572070919,93.93408190851915 157.55955630610697,94.56147923442768 155.52617668895982,95.4577595233568 153.41606576554477,96.08515460183844 153.3777001122944,96.17478239469347 153.41606576554477,96.2195962840633 154.1450131754391,96.08515460183844 155.52617668895982,95.36813157956931 158.25013806298375,94.42703702824656 158.51869763503782,94.24778068717569 158.59542894130573,94.11333838180872 158.5570632882882,93.71001121067093 158.74889155384153,93.71001121067093 158.86398851312697,93.62038289851625 158.0199441439472,91.20041133041377 156.90734020248055,86.18116714755888 156.52368367114104,85.01597699112608 156.06329583306797,82.9544788946223 155.6412736484781,81.43075648817467 155.60290799522772,80.71370876091532 155.718004954746,80.48963109825854 155.98656452680007,80.44481555151287 156.17839279258624,80.53444664023118 156.40858671138994,80.84815530182095 156.63878063042648,81.38594104067306 158.40360067551956,87.39116893141181 158.71052590059116,88.87005532594048 159.20927939168178,90.75226693649893 159.59293592325412,91.87262703603483 159.7080328827724,92.09669870178914 159.97659245482646,92.09669870178914 163.12257601344027,91.02115362952463 165.7698060811963,90.2144930405484 166.88241002243012,89.6767184646742 169.45290878368542,88.78042599384207 170.02839358104393,88.46672318282072 170.98753490997478,88.33227905011154 172.48379538301378,87.92894639715087 176.55055461730808,86.45005673036212 177.81662117131054,86.18116714755888 178.00844943686388,86.18116714755888 178.08518074359745,86.27079702736228 178.08518074359745,86.45005673036212 178.00844943686388,86.494871644245 176.32036069827154,87.256724458799 173.82659324328415,88.19783487491077 168.03337961691432,90.08004946034634 163.08421036042273,92.00707004961441 162.66218817560002,92.23114164453 162.54709121631458,92.45521312151686 163.39113558549434,95.36813157956931 163.96662038285285,96.3988517941616 164.15844864863902,97.20550065475982 165.04085867106915,99.31174324537278 166.1534626125358,102.627933846612 166.76731306291185,104.15158031979809 167.45789481978863,106.39222698373487 168.87742398655973,110.4701736253337 169.0692522523459,111.23198349936865 168.87742398655973,111.54566952155437 168.87742398655973,111.76973082445329 169.0692522523459,112.2178530759993 169.3761774774175,112.53153837122954 169.56800574343652,112.9348476967134 171.33282578829676,117.59528327494627 171.44792274781503,118.08821097534383 171.37119144154713,118.31226883232011 171.25609448202886,118.44670348972431 171.2177288287785,118.62594963371521 171.52465405408293,119.2084990797448 171.94667623890564,119.47736778581748 172.13850450445898,119.74623632186558" stroke="#4dd2ff" stroke-linecap="round" stroke-linejoin="round" stroke-width="0.5"><title>2023-08-10 5.8km</title><desc>9620015411</desc></polyline><polyline fill="none" points="41.0061174412258,169.5714934974385 40.92717527295463,168.74164721844136 41.0850596097298,168.18841549157514 41.0061174412258,167.8195939520083 40.76929093617946,167.40466934832511 40.37458009435795,167.2663610597665 40.177224673563614,167.03584714824683 39.150976485107094,164.4540830446931 38.51943913800642,162.5638532403682 38.44049696996808,161.91840704716742 38.28261263319291,161.45737346916576 38.36155480146408,161.18075308925472 38.24314154894091,160.6736152721278 38.12472829641774,160.4430978881428 37.69054637057707,160.0281662911002 36.624827097635716,157.21584176446777 36.34852950857021,156.24766028660815 35.9932897510007,155.50999677064829 33.348727111238986,147.4417208910163 33.07242952217348,146.88846223801374 32.401421091053635,145.13647188895266 32.1645945860073,142.60068396068527 31.69094157591462,140.71035976347048 31.88829699694179,140.43372626925702 33.15137169044465,139.83435309838387 35.36175240436569,139.05055617459584 37.01953793969005,138.5433927111153 40.29563792608678,137.29853444508626 42.78231622930616,136.51473297932534 44.519043932901695,135.7770361994626 45.26899453229271,135.54650570079684 46.808366815093905,134.90101965828217 47.04519332014024,134.71659489982994 47.08466440415941,134.62438249139814 46.847837899113074,134.62438249139814 41.55871261982247,136.6069449892675 38.914149980060756,137.43685220516636 37.33530661300756,138.08233450705302 35.24333915184252,138.82002740033204 33.585553616285324,139.46550766204018 30.309453629888594,140.525937453378 29.441089777974412,140.940887541743 28.849023515358567,141.07920415056287 27.58594882162288,141.17141519871075 27.34912231680937,141.033098619082 27.19123797980137,140.71035976347048 25.849221118027344,136.69915697985562 25.651865697233006,135.63871791487327 25.375568107701838,134.76270109671168 24.941386181861162,132.91844943133765 24.27037775097415,130.61312391865067 23.875666909152642,128.76885476370808 23.599369320087135,128.39999999999418 23.283600646536797,128.49221372010652 23.12571630976163,128.72274793530232 23.16518739401363,128.95328202904784 24.19143558247015,131.71968168049352 25.020328350365162,134.39385138548096 25.572923528729007,136.69915697985562 25.888692202279344,138.6817100777116 26.44128738064319,140.6642541931942 26.717584969708696,141.9552083236631 26.717584969708696,142.7390000447631 26.638642801437527,142.92342142225243 26.32287412812002,143.1539480346837 25.493981360457838,143.47668508812785 23.283600646536797,144.16826368693728 22.691534383920953,144.26047408406157 20.91533559607342,144.85984119263594 20.994277764344588,144.85984119263594 21.7836994479876,144.76763092176407 23.480956067563966,144.0299480545218 24.388791003497317,143.75331665872363 25.2176837711595,143.43057980932645 26.046576538821682,143.24615864569205 26.40181629662402,142.96952675440116 26.638642801437527,142.4623678328644 26.48075846489519,141.49415371430223 26.046576538821682,140.15709260001313 25.3360970239155,137.3446403700218 25.09927051863633,136.09977869372233 24.546675340272486,134.43995761644328 23.95460907765664,131.95021419538534 23.638840404339135,130.33648404109408 23.402013899292797,129.55267010442913 23.362542814807966,129.27602955617476 23.441484983311966,128.90717522008345 23.559898235835135,128.72274793530232 23.717782572610304,128.63053426376428 23.95460907765664,128.63053426376428 24.15196449845098,128.76885476370808 24.428262087749317,129.3682430917106 24.901915097609162,131.0280834074074 25.25715485517867,133.05676857579965 26.28340304386802,136.97579283511732 26.599171717418358,138.08233450705302 27.033353643491864,139.88045875597163 27.34912231680937,140.84867644507904 27.46753556933254,141.033098619082 27.625419905874878,141.12530967703788 29.79632953554392,140.47983186374768 33.664495784789324,139.18887338074273 36.46694276109338,138.45118110915064 38.28261263319291,137.43685220516636 39.111505400855094,137.3446403700218 40.137753589311615,137.02189879390062 41.0850596097298,136.69915697985562 42.70337406080216,135.9614605110255 46.4531270575244,134.76270109671168 46.729424646589905,134.8088072887913 46.689953562570736,134.90101965828217 46.4925981417764,135.08544433896895 44.637457185424864,135.9153544405126 40.92717527295463,137.25242851531948 40.33510901010595,137.3907462899806 39.78251383197494,137.62127581707318 38.51943913800642,137.94401695099077 35.91434758272953,138.86613316496368 33.82238012156449,139.83435309838387 32.04618133348413,140.38762066984782 30.5462801347021,140.940887541743 30.309453629888594,141.12530967703788 30.230511461384594,141.35583723679883 30.230511461384594,141.54025919709238 30.348924713907763,141.81689199173707 30.86204880825244,142.55457858965383 31.059404229279608,142.92342142225243 31.572528323391452,144.85984119263594 32.04618133348413,145.68973275704775 33.26978494296782,148.8248644634441 33.90132228983566,150.76125812044484 34.690743973245844,153.48141569056315 35.36175240436569,155.1872685914277 35.756463245954365,156.61649157837383 36.34852950857021,158.04570989770582 37.05900902370922,160.35089090056135 36.980066855438054,161.1346496756305 37.13795119221322,161.7800970246899 37.65107528632507,162.19502696071868 37.769488538848236,162.42554342190851 39.150976485107094,165.8371728512284 39.66410057945177,167.68128579450422 39.58515841094777,168.00400476070354 39.38780299015343,168.14231281616958 39.4272740741726,168.37282614503056 39.70357166347094,168.92605763868778 40.058811421040446,169.1565705545654 40.29563792608678,169.47928843295085 41.164001778000966,171.60000000000582" stroke="#4dd2ff" stroke-linecap="round" stroke-linejoin="round" stroke-width="0.5"><title>2023-08-08 6.0km</title><desc>9606561718</desc></polyline><polyline fill="none" points="107.14132007490844,170.63419528127997 106.53994575259276,169.80008940500556 105.63788426970132,167.38556298441836 105.52512658433989,166.68315267187427 105.75064195506275,166.02464192849584 105.63788426970132,165.54173338899272 105.48754068906419,165.27832849512924 104.9613381572999,165.05882428985205 104.81099457666278,164.83931996879983 104.35996383521706,163.3466875203012 103.49548824713565,161.45893882669043 103.00687161041424,159.65898443438346 102.93169982009567,159.04436408093898 102.40549728833139,158.1663334321056 101.95446654665284,156.89318570544128 101.2027486441657,154.65419233767898 100.93964737816714,154.08346661410178 100.56378842703998,152.37128475363716 100.15034358063713,151.4054354724649 99.58655515359715,149.56153517428902 99.24828209728003,148.81519225778175 98.42139240447432,146.53225268624374 98.00794755807146,145.61029277538182 97.7824321873486,144.68833082480705 97.66967450198717,143.98588225527783 97.66967450198717,143.59075441450113 97.06830017990433,141.74681953698746 96.99312838958576,141.21997950191144 96.9555424945429,140.07849047405762 97.1058860749472,139.7711659707711 97.29381555062719,139.5516483297106 98.15829113870859,139.1565162842453 99.69931283895858,138.5857693348662 100.45103074144572,138.19063637353247 101.24033453944139,137.9272141912079 102.14239602256566,137.53208060536417 103.94651898858137,136.96133143099723 108.08096745307557,135.38079117570305 108.90785714588128,135.11736721693887 109.84750452404842,134.72223096669768 110.59922242676839,134.50271066563437 111.12542495829985,134.23928615186014 110.86232369276695,134.1514779435529 110.71198011212982,134.19538205000572 107.25407776003703,135.68811891705263 105.56271247938275,136.12715815441334 104.81099457666278,136.43448534532217 103.60824593249708,136.7857161431166 102.36791139305569,137.3564655580558 100.15034358063713,138.05892530307756 98.75966546079144,138.5857693348662 97.89518987271003,138.8491911009769 96.39175406750292,139.46384124085307 94.09901446453296,140.07849047405762 93.04660940100439,140.25410437423852 92.78350813500583,140.1662974334031 92.70833634468727,139.99068349631852 91.8438607568387,137.8833104779187 91.09214285435155,134.853943091759 90.64111211244017,133.31729904192616 90.52835442731157,132.7465440943488 90.15249547571875,131.69284059869824 89.5887070489116,129.19028411703766 89.17526220250875,128.53171412370284 89.02491862210445,128.40000000002328 88.94974683178589,128.44390471259248 88.87457504146732,128.70733289036434 89.02491862210445,129.6732347838406 90.26525316131301,133.62462830517325 90.94179927371442,136.47838921126095 92.03179023251869,140.1662974334031 92.14454791788012,140.78094563056948 92.10696202260442,140.9565592345607 91.73110307147726,141.5273029366508 91.80627486179583,141.4394962641527 91.76868896652013,141.17607613565633 91.54317359556444,140.25410437423852 91.28007232979871,138.717480238789 90.52835442731157,135.73202286162996 89.85180831491016,133.36120323612704 89.32560578314587,131.2977011008188 88.87457504146732,128.7951422459737 88.94974683178589,128.5756188223604 89.25043399282731,128.70733289036434 89.51353525859304,129.01466555392835 90.07732368563302,130.55132547137327 91.28007232979871,134.59051879990147 91.69351717620157,136.47838921126095 91.99420433724299,137.40036932678777 92.14454791788012,138.19063637353247 92.37006328883581,139.06870911212172 92.70833634468727,140.25410437423852 92.82109403028153,140.29800783772953 93.79832730349153,140.07849047405762 94.43728752061725,139.8150694851065 95.52727847942151,139.4199376895267 97.63208860694431,138.8052874848072 98.75966546079144,138.41015473162406 99.73689873423427,137.9272141912079 102.36791139305569,137.04913904718705 104.92375226202421,136.03935034398455 107.17890596971847,135.24907921717386 107.89303797739558,135.11736721693887 109.17095841187984,134.59051879990147 110.63680832181126,134.19538205000572 110.82473779749125,134.1514779435529 111.01266727340408,134.23928615186014 110.97508137812838,134.37099842954194 110.74956600717269,134.54661473512533 109.17095841187984,135.33688719419297 107.21649186499417,135.99544643171248 106.38960217218846,136.2149659464485 105.14926763274707,136.7418123096577 103.87134719826281,137.0930428483116 102.51825497369282,137.61988810118055 99.51138336327858,138.5857693348662 98.57173598511145,139.02480551920598 97.7448462920729,139.28822700766614 96.09106690646149,139.94678000046406 95.67762206005864,140.21020090617822 95.56486437469721,140.47362164536025 95.64003616501577,140.9565592345607 96.12865280150436,142.01023930482916 96.42933996277861,143.15172304096632 96.73002712382004,143.8541730165598 97.03071428462863,144.33710668812273 97.25622965558432,144.86394278221997 97.48174502630718,145.65419567454956 98.49656419479288,148.24445853737416 98.75966546079144,149.29812017991208 99.54896925855428,151.4054354724649 99.88724231463857,152.5029913003964 101.57860759552568,157.11269421174075 101.95446654665284,158.60534898779588 101.95446654665284,158.86875809924095 101.8792947565671,159.17606851877645 101.95446654665284,159.43947726939223 102.21756781288423,160.09799841768108 102.63101265928708,160.5809132650029 103.2699728764128,162.16135794424918 103.60824593249708,163.3027864850592 103.87134719826281,163.78569761896506 104.17203435953707,164.75151820815518 104.35996383521706,165.49783258500975 104.35996383521706,165.62953498327988 104.24720614985563,165.98074117535725 104.35996383521706,166.55145060637733 104.51030741562136,166.77095402567647 104.92375226202421,167.07825861833408 105.2996112133842,167.73676769671147 105.75064195506275,169.40498603880405 106.35201627691276,171.07319770363392 106.35201627691276,171.60000000000582" stroke="#4dd2ff" stroke-linecap="round" stroke-linejoin="round" stroke-width="0.5"><title>2023-08-07 5.3km</title><desc>9599973967</desc></polyline><polyline fill="none" points="173.55371825606562,171.24262405055924 172.86527811107226,170.12582226766972 171.94735791813582,167.49015839979984 171.87086456851102,166.8647442300571 172.0238512675278,166.10531149819144 171.94735791813582,165.79260350752156 171.7561245446559,165.52456790333963 171.29716444783844,165.30120477059972 171.06768439989537,164.9884961868811 169.8437908089254,161.90607066708617 169.5760640858207,160.9679367140634 169.19359733886085,158.95764268338098 168.7346372420434,158.46623602643376 168.58165054325946,158.1088490091788 167.701977025019,155.78582605562406 167.4342503019143,154.7136573236494 167.05178355472162,153.90952899560216 166.0191233374644,150.91637126216665 165.2924365180079,148.59330890735146 165.062956469832,148.05721578747034 164.5275030238554,146.49360698321834 164.03029625234194,145.3767400214565 163.72432285477407,144.21519526082557 163.45659613166936,143.5450718360953 163.45659613166936,142.87494735250948 163.34185610734858,141.93677129605203 162.95938936038874,140.0157376563002 162.92114268569276,139.74768575877533 162.9976360348519,139.61365974656655 163.1506227341015,139.39028296532342 165.33068319247104,138.4967746634211 166.21035671094432,137.91599325751304 167.35775695252232,137.33521105610998 168.04619709728286,137.11183307450847 168.7346372420434,136.79910370250582 170.30275090551004,136.35234705696348 172.3298246653285,135.4588323533535 173.094758159481,135.28012918654713 173.78319830447435,134.9673984636902 177.03416565502994,133.89517709126812 177.37838572752662,133.71647326558013 177.53137242607772,133.53776936454233 177.30189237813465,133.58244534692494 176.72819225746207,133.93985303587397 175.88676541345194,134.25258451665286 175.19832526892424,134.60999164084205 173.78319830447435,135.1461017621623 170.49398427898996,135.99494140141178 168.6963905673474,136.88845497526927 166.592823458137,137.51391335669905 164.5275030238554,138.45209919882473 162.95938936038874,139.03287987044314 162.11796251684427,139.21158145557274 160.97056227526627,139.61365974656655 160.05264208232984,139.74768575877533 159.21121523855254,139.9710623518913 158.90524184075184,139.9263870426803 158.6757617923431,139.79236108678742 158.59926844295114,139.61365974656655 157.9108282981906,137.24585987755563 156.99290810525417,135.1461017621623 156.5339480084367,133.35906538832933 155.2718077430036,129.07014736087876 154.9658343452029,128.71273556689266 154.736354297027,128.71273556689266 154.54512092331424,128.93611797349877 154.46862757392228,129.11482381387032 154.5068742488511,129.29352957906667 155.46304111671634,131.30396424705395 155.88375453837216,132.55489656273858 156.15148126147687,133.62712132444722 156.45745465927757,134.5653157668712 156.8781680809334,136.6650767583924 157.87258162349463,140.50716569487122 157.75784159940667,141.22196909794002 157.83433494879864,140.9985931639967 157.79608827386983,140.64119142477284 157.1841414787341,138.58612557823653 156.8781680809334,137.11183307450847 155.46304111671634,132.3315160627244 155.08057436952367,130.76784926769324 154.81284764641896,130.00835188649944 154.65986094763502,128.80208854359807 154.736354297027,128.62338257141528 154.88934099581093,128.44467652362073 155.08057436952367,128.40000000002328 155.38654776709154,128.48935304270708 155.69252116489224,128.80208854359807 155.84550786367618,129.11482381387032 156.26622128556482,131.57202148254146 156.6486880327575,133.2697133718757 156.99290810525417,134.29726042371476 157.45186820160598,136.26299567133537 157.9490749728866,137.96066877842532 158.522775093792,139.6583350887231 158.6757617923431,139.79236108678742 159.5171886361204,139.6583350887231 161.9267291428987,138.89885363224312 163.5713361557573,138.45209919882473 165.2541898433119,137.87131773185683 170.6087243030779,135.81623846068396 173.3624848825857,134.83337094041053 173.8979383285623,134.7440192346694 175.16007859399542,134.20790860502166 176.76643893192522,133.71647326558013 176.95767230563797,133.6717972974293 177.1106590044219,133.80582518785377 177.1106590044219,133.93985303587397 176.95767230563797,134.11855676744017 176.19273881125264,134.52063988804002 173.55371825606562,135.50350813323166 171.22067109844647,136.26299567133537 167.01353688002564,137.8266422013985 165.75139661459252,138.40742372965906 164.6422430477105,138.80950278323144 162.88289601099677,139.30093221983407 162.34744256502017,139.6583350887231 161.65900242025964,139.9263870426803 161.54426239593886,140.37313992259442 162.07971584191546,141.4006697605073 162.61516928789206,143.0983222980285 163.11237605917268,144.08117066064733 163.99204957764596,147.07437664072495 164.4127629995346,148.14656468783505 164.87172309611924,149.71016739722108 166.4015900848899,153.59681201176136 167.77847037441097,158.1088490091788 167.85496372380294,158.46623602643376 167.85496372380294,159.18100915744435 168.00795042258687,159.44904877088265 168.23743047076277,160.1191470634658 168.61989721795544,160.56587867022608 169.231844013324,162.30812744025025 169.8437908089254,163.6483139313059 170.34099758020602,165.47989528620383 170.30275090551004,165.65858572663274 170.03502418240532,165.92662124615163 170.03502418240532,166.14998404940707 170.30275090551004,166.73072678787867 170.79995767655782,166.99876162974397 170.99119105027057,167.26679630219587 171.9856045928318,169.85778940212913 172.29157799039967,170.9299198476947 172.40631801472045,171.60000000000582" stroke="#4dd2ff" stroke-linecap="round" stroke-linejoin="round" stroke-width="0.5"><title>2023-08-06 5.3km</title><desc>9594199691</desc></polyline><polyline fill="none" points="41.35805649787653,219.60000000000582 41.12751686864067,218.81462365679909 41.12751686864067,218.6351086574723 41.18515177606605,218.41071469557937 41.14672850444913,218.2985176261136 41.03145868994761,218.05168386506557 40.820130696403794,217.9394866063667 40.78170742490329,217.89460768640856 40.64722597459331,217.62533396777872 40.3590514381649,216.92970861926733 39.99403035861906,215.8750465001067 39.821125636808574,215.17941543603956 39.821125636808574,214.99989737328724 39.68664418638218,214.73061999556376 39.47531619295478,214.46134227742732 39.283199835335836,213.96766557666706 38.918178755789995,212.9354287780734 37.8999620602699,209.68160613368673 37.74626897415146,209.2327991096099 37.227554808487184,208.02101542086166 37.05465008656029,207.28047755056468 37.03543845086824,206.94386857662175 37.05465008656029,206.652140368853 37.01622681505978,206.42773378333368 36.84332209313288,206.06868275468878 36.59357082832139,205.70963112075697 36.51672428520396,205.4852235421422 36.49751264951192,205.08128930491512 36.55514755670447,204.87932189903222 36.6704173713224,204.789558546021 37.669422431034036,204.45294563543575 38.822120576980524,203.89192293549422 39.3408347426448,203.68995440176514 39.57137437176425,203.51042665542627 39.629009279073216,203.33089875782025 39.648220914881676,203.06160662756884 39.532951100263745,202.52302134576894 39.36004637833685,202.0517581069289 39.09108347760048,201.17655218250002 38.70685076236259,200.09937072290631 38.51473440474365,199.71786764952412 38.38025295431726,199.2465982035501 37.78469224565197,197.63080932898447 37.592575888033025,197.204418553898 37.47730607341509,197.0473270004295 37.30440135160461,196.91267700532626 37.09307335817721,196.86779365470284 36.76647555013187,196.95756034646183 36.34381956339348,197.204418553898 35.86352866922971,197.36150999140227 34.90294688101858,197.63080932898447 34.076846543117426,197.8103420315747 33.15468802629039,198.10208235040773 32.86651348997839,198.14696544088656 32.655185496550985,198.1245238968404 32.53991568204947,198.05719925044104 32.424645867431536,197.92254989378853 32.36701096012257,197.78790045196365 31.61775716522243,195.63349780542194 30.92613827774767,193.20976877646171 30.73402192001231,192.22231570801523 30.714810284320265,192.0427782945917 30.75323355582077,191.95300953109108 30.887715006247163,191.84079852350987 31.75223861564882,191.63881856086664 32.21331787400413,191.63881856086664 32.4822807747405,191.57149186405877 33.44286256283522,191.07776210390148 35.38323777518235,190.3820500443544 35.70983558311127,190.2025110793329 36.82411045732442,189.25992902980943 37.03543845086824,189.01306161306275 37.55415261653252,188.11535950333928 37.592575888033025,187.86849075963255 37.49651770922355,187.57673642094596 37.11228499386925,186.79124198367936 36.708840642822906,186.27505834714975 35.76747049042024,185.39978758210782 34.941370152519085,184.68161401082762 34.42265598685481,184.16542526028934 34.326597808045335,184.12053922284395 34.057634907308966,184.18786827547592 33.903941821306944,184.38985530560603 33.78867200668901,184.47962725743128 33.46207419864368,184.56939917147974 32.71282040385995,185.3773446946143 32.36701096012257,185.69154490350047 31.675392072531395,186.14040154055692 31.11825463536661,186.40971506862843 29.17787942313589,187.08299739864015 27.737006740877405,187.39719509071438 27.352774025523104,187.39719509071438 27.17986930371262,187.32986705287476 27.04538785328623,187.10544010622834 26.43061550881248,185.42223046720028 25.988747886149213,184.12053922284395 25.777419892838225,183.37991823900666 24.816838104627095,181.27025646803668 24.41339375358075,180.52962556997954 24.106007581343874,179.76654861698626 24.086795945535414,179.5870007010817 24.106007581343874,179.49722668646427 24.24048903165385,179.36256559344474 24.77841483312659,179.00346892909147 25.56609189941082,178.64437165905838 26.35376896581147,178.33016105100978 27.352774025523104,177.8588442695618 28.313355813734233,177.27530776119966 28.716800164896995,177.09575774458062 29.08182124432642,176.80398864463496 29.216302694752812,176.71421345650742 30.119249575654976,176.40000000000873 30.292154297581874,176.4448876650422 30.445847383583896,176.57955060331733 30.599540469702333,176.82643243572966 30.849291734630242,177.40997017429618 31.02219645655714,177.74662583447935 31.27194772148505,178.17305557313375 31.540910622221418,178.5097100267012 31.98277824476827,178.93613823706983 32.616762224934064,179.45233966484375 33.21232293371577,180.0583136572095 33.327592748217285,180.23786117555574 33.65419055626262,181.00093643952277 33.78867200668901,181.51713286152517 33.961576728499494,182.48219238064485 33.961576728499494,182.9534989281674 33.88473018549848,183.73900752258487 33.80788364238106,184.14298224277445 33.731037099380046,184.30008331584395 33.327592748217285,184.7938287910074 32.674397132359445,185.46711623019655 31.90593170176726,186.0281874700304 30.92613827774767,186.49948616897746 30.215307754464447,186.72391375417646 29.79265176760964,186.92589837874402 29.235514330444857,187.08299739864015 28.12123945611529,187.30742436887522 27.48725547583308,187.48696577474766 27.352774025523104,187.55429376290704 27.256715846713632,187.66650702929473 27.12223439628724,188.04803169250954 27.12223439628724,188.3173428079317 27.218292575213127,188.69886630510155 27.371985661331564,189.05794661914115 27.602525290451013,189.50679616029083 27.909911462687887,190.584031198945 28.102027820423245,191.03287752351025 28.39020235685166,191.95300953109108 28.524683807161637,192.22231570801523 28.63995362177957,192.33452651456173 28.73601180058904,192.37941082062025 29.004974701208994,192.37941082062025 29.197091058944352,192.35696866881335 29.888709946419112,192.0876626621466 30.292154297581874,192.0876626621466 30.4842706550844,192.11010484235885 30.599540469702333,192.244757874083 30.714810284320265,192.514063682087 31.02219645655714,193.72593560362293 31.11825463536661,194.21965922423988 31.444852443411946,195.09489373843826 31.61775716522243,196.08233348738577 32.00198988057673,197.5859261296864 32.07883642357774,198.1245238968404 32.040413152077235,198.28161465558514 31.96356660895981,198.37138075154508 30.94534991355613,198.84265213416074 30.369000840582885,198.99974236330308 29.79265176760964,199.31392247395706 29.235514330444857,199.4710123554396 28.7552234363975,199.6729848900286 28.63995362177957,199.80763314000797 28.524683807161637,200.27890134448535 28.505472171353176,200.413549211371 28.63995362177957,201.04190479801036 28.908916522399522,201.78246435936308 29.254725966253318,202.59034458047245 29.735016860300675,204.0490094404813 29.888709946419112,204.38562298942998 30.34978920489084,205.66474962393113 30.522693926701322,206.02380133351835 30.69559864862822,206.5848184180213 30.810868463129736,206.80922483805625 30.983773185056634,206.98874980390246 31.13746627117507,207.05607162702654 31.233524449984543,207.05607162702654 32.655185496550985,206.69702165767376 33.69261382787954,206.29308971848513 33.75024873507209,206.22576765417762 33.86551854969002,205.7993940859451 34.0,205.776953348206 34.038423271500506,205.7320718655683 34.019211635924876,205.55254584053182 33.51970910595264,203.71239535944187 33.28916947671678,202.72499098606932 33.25074620533269,202.43325699970592 33.039418211905286,201.76002319839608 32.732032039551996,200.52575570208137 32.616762224934064,200.16669472376816 32.46306913893204,199.33636389271123 32.4822807747405,199.20171534479596 32.52070404612459,199.13439103889687 32.616762224934064,199.20171534479596 32.674397132359445,199.2914810528746 32.88572512567043,199.80763314000797 33.1162647549063,200.5481969931716 33.269957841024734,201.31119948187552 33.55813237745315,202.11908149060037 33.65419055626262,202.61278565393877 33.942365092691034,203.5553086062573 34.0,204.0490094404813 34.28817453654483,205.01396685752843 34.36502107954584,205.12617092466098 34.42265598685481,205.14861173095414 34.76846543059219,205.1037301159813 35.72904721891973,204.8568810642755 36.17091484146658,204.6997951551748 36.65120573551394,204.58759086349164 37.63099915953353,204.22853673278587 38.553157676244155,203.84704105569108 39.11029511352535,203.68995440176514 39.648220914881676,203.42066272557713 40.45510961697437,203.17381172325986 40.858553968020715,203.08404765147134 41.60780776280444,202.74743204537663 42.529966279515065,202.45569808974687 43.26000843860675,202.2537281941186 43.586606246535666,202.11908149060037 43.855569147272035,202.0741992371477 43.913204054581,202.14152261374693 43.836357511463575,202.2088459690567 43.586606246535666,202.32105151393625 41.06988196144812,203.1513707088743 39.30241147102788,203.86948199679318 35.97879848384764,204.96908521417936 35.86352866922971,205.03640767569595 35.82510539761279,205.12617092466098 35.80589376192074,205.26081572716066 35.84431703342125,205.39546044456074 35.9980101196561,205.7993940859451 36.30539629177656,206.8541060937423 36.363031199085526,206.98874980390246 36.59357082832139,207.25803696885123 37.246766444295645,209.30012022347364 37.688634066842496,210.4670161504182 37.82311551715247,210.9382607703301 38.05365514638834,211.43194449208386 38.61079258355312,213.27202828376903 38.80290894117206,213.74326669814764 38.97581366309896,214.30426345132582 39.05266020621639,214.6633005978947 39.03344857029151,214.77549958217423 38.918178755789995,214.8652587269462 38.937390391598456,214.932578060776 39.05266020621639,215.15697568644828 39.32162310683634,215.40381280165457 39.57137437176425,215.96480518167664 39.974818722810596,217.1989832171821 40.0132419943111,217.53557598596672 40.224569987738505,218.00680496868154 40.243781623546965,218.1638810646109 40.166935080545954,218.2760782050609 40.186146716238,218.36583587493806 40.33983980235644,218.74730554981215 40.589591067284346,218.9941385047714 40.74328415340278,219.24097117380006" stroke="#4dd2ff" stroke-linecap="round" stroke-linejoin="round" stroke-width="0.5"><title>2023-08-04 9.2km</title><desc>9582211082</desc></polyline><polyline fill="none" points="101.85395864071324,219.48895282426383 101.31520142871886,218.674605796783 100.61798621364869,216.63872997177532 100.52291141147725,216.04647297170595 100.68136941490229,215.60227956654853 100.61798621364869,215.1951017852698 100.42783660942223,214.89897219341947 100.11092060245574,214.75090730391094 99.98415419948287,214.6028423521202 98.90663977584336,212.23379463749006 98.58972376899328,211.08628140887595 98.3678825639654,209.49456330746762 98.24111616122536,209.27246253399062 97.95589175506029,208.976327951008 97.82912535220385,208.71720998626552 97.29036814032588,207.16249818482902 96.84668573061936,205.7188310669444 96.59315292502288,205.31164183325018 96.46638652228285,204.79340030773892 95.95932091108989,203.60884537920356 94.97688128938898,200.68445830087876 94.69165688322391,200.09217440971406 94.43812407762744,199.20374670103774 94.15289967134595,198.5374244452105 93.74090886232443,196.6495045250922 93.74090886232443,196.0572138322459 93.45568445592653,194.31735414778814 93.13876844896004,193.3918933586392 93.17046004976146,193.16978240647586 93.2655348519329,193.058726877789 96.27623691805638,191.9851882904186 97.03683533484582,191.80009509902447 99.28693898429628,190.91164642278454 100.33276180725079,190.6154963648587 102.29764105053619,189.801082418242 105.02311871061102,188.87560973290238 105.27665151609108,188.72753387698322 105.6886423251126,188.20926788984798 105.75202552648261,187.91311555411085 105.59356752294116,187.13571448461153 105.24495991528966,186.02513854426797 104.7695859047817,185.09965591234504 104.64281950215809,184.24820973770693 104.07237068959512,182.7304092651466 103.85052948480006,181.8419376531383 103.15331426926423,180.62028551779804 102.80470666161273,179.58372885952122 102.58286545681767,179.17650933552068 102.39271585270762,178.36206887144363 102.3293326512212,178.28802873563836 102.29764105053619,178.3250488055346 102.29764105053619,178.65822925860994 102.51948225544766,179.213529311819 103.15331426926423,180.9534637941979 103.53361347771715,181.91597703986918 104.07237068959512,183.06358554033795 105.11819351243321,185.6549457841029 105.65695072442759,187.61696296843002 105.65695072442759,187.8020583637117 105.56187592248898,188.09821079316316 105.43510951951612,188.20926788984798 105.05481031117961,188.43138197800727 103.94560428685509,188.80157181274262 101.28350982826669,189.83810127494507 98.68479857116472,190.6154963648587 97.7023589493474,191.09674008237198 96.3396201194264,191.5039457899402 95.35718049784191,191.9481696598814 94.65996528242249,192.13326277336455 93.86767526506446,192.50344870772096 93.10707684839144,192.72556008104584 92.47324483422562,192.98468983912608 91.80772121972404,193.24381940622698 90.6351319940295,193.53996724874014 89.9379167787265,193.79909640623373 89.81115037587006,193.79909640623373 89.65269237244502,193.61400417037657 88.82871075428557,191.57798314056708 88.35333674377762,189.72704469319433 87.56104672630318,187.09869534312747 87.05398111511022,185.02561719642836 86.67368190689012,183.8780151050887 86.57860710471869,183.32272242484032 86.48353230266366,183.2857028815779 86.48353230266366,183.39676149957813 86.70537350745872,184.35926805139752 87.40258872287814,186.3212924716354 87.52935512561817,186.76552289453684 87.62442992767319,187.57994387770304 88.89209395553917,192.02220691702678 89.24070156319067,194.05822537266067 89.39915956673212,194.7245561228192 89.36746796604712,194.79859279483208 88.89209395553917,194.83561112493044 89.0505519589642,194.79859279483208 89.08224355976563,194.61350108552142 88.82871075428557,193.87313327324227 88.16318713955116,191.42990842359723 88.06811233737972,190.68953390271054 87.87796273315325,190.02319550004904 87.75119633052964,189.3568558335537 87.3075139207067,188.17224886160693 87.08567271579523,187.28379101137398 86.70537350745872,186.17321553925285 86.45184070186224,185.09965591234504 86.35676589980721,184.39628748156247 86.32507429923862,183.69291764262016 86.38845750060864,183.65589813835686 86.48353230266366,183.72993714286713 86.9589063130552,184.35926805139752 87.24413071933668,184.98859783267835 87.87796273315325,186.76552289453684 88.67025275074411,189.72704469319433 89.30408476479352,192.46643013178254 89.65269237244502,193.68804107635515 89.87453357724007,193.79909640623373 91.11050600442104,193.57698571152287 92.72677764005493,192.94767131397384 93.3289180531865,192.614504411933 94.12120807054453,192.31835578923346 95.10364769212902,192.17028138428577 96.56146132422145,191.61500181007432 97.22698493895587,191.2448149396514 98.01927495643031,191.02270263026003 99.0334061786998,190.5414588113781 100.93490222061519,189.98617666275823 101.53704263374675,189.72704469319433 104.07237068959512,188.87560973290238 105.18157671403605,188.32032495149178 105.3400347174611,188.09821079316316 105.3400347174611,187.8020583637117 104.54774470010307,185.06263655639486 104.19913709233515,184.4333069077984 104.0089874882251,183.91503458595253 102.61455705738626,180.6943251620978 102.3610242519062,179.47266903615673 102.3610242519062,178.39908893342363 102.42440745339263,178.21398858420434 102.58286545681767,178.06590823462466 103.21669747063424,177.69570708740503 106.00555833207909,176.696162041364 106.98799795378,176.437020268786 107.46337196417153,176.40000000002328 108.03382077661809,176.65914179981337 108.47750318655744,176.99232383302297 109.68178401293699,178.73226931647514 110.6959152353229,180.43518633884378 111.01283124217298,181.39770100449095 111.58328005485237,182.58233081916114 112.05865406536032,183.39676149957813 112.66079447849188,184.7664815680182 113.07278528739698,185.35879129500245 113.61154249939136,186.39533091449994 113.67492570076138,186.65446534150396 113.61154249939136,186.76552289453684 113.3897012945963,186.87658041255781 112.75586928066332,186.98763789542136 111.3614388499409,187.32081013330026 110.34730762755498,187.46888658212265 108.41411998507101,188.06119175316417 107.30491396063007,188.24628691427642 106.79784834955353,188.43138197800727 105.72033392568119,188.65349592562416 105.30834311677609,188.87560973290238 104.29421189439017,189.17176125739934 101.63211743580177,190.17127080980572 100.23768700507935,190.5414588113781 99.38201378635131,190.91164642278454 96.59315292502288,191.9851882904186 95.51563850138336,192.244318594574 95.13533929293044,192.42941155197332 94.6282736818539,192.79959717424936 93.2655348519329,193.1327639008523 92.15632882737555,193.57698571152287 91.96617922314908,193.83611484171706 91.96617922314908,193.98418854459305 92.09294562612195,194.24331737446482 92.60001123719849,194.7245561228192 92.75846924062353,195.020702717331 92.88523564347997,195.98317742554354 93.04369364690501,196.5384500962391 93.42399285535794,197.16775806224905 93.51906765741296,197.6119747715129 93.74090886232443,198.20426284347195 94.24797447351739,199.87006769306026 95.00857289019041,201.9060406733479 95.54733010195196,203.71989757337724 95.86424610903487,204.42322732153116 96.46638652228285,206.57022521304316 96.71991932776291,207.16249818482902 97.06852693553083,208.31002422692836 97.41713454318233,209.0873784488358 97.44882614375092,209.49456330746762 97.35375134181231,209.82771420432255 97.41713454318233,210.27191490895348 97.54390094592236,210.49401505067362 98.0509665569989,210.9011982791999 98.24111616122536,211.30838103586575 99.12848098087125,214.0846145292744 99.47708858852275,214.9730046147597 99.50878018909134,215.23211796669057 99.47708858852275,215.3431664876407 99.35032218554989,215.4542149734334 99.44539698783774,215.89840856567025 99.57216339057777,216.12050515130977 99.95246259891428,216.3426015965233 100.17430380370934,216.7127620265819 100.55460301216226,217.8602568821516 100.99828542186879,219.60000000000582" stroke="#4dd2ff" stroke-linecap="round" stroke-linejoin="round" stroke-width="0.5"><title>2023-08-02 7.3km</title><desc>9569357200</desc></polyline><polyline fill="none" points="175.33596621046308,219.60000000000582 175.20516458235215,219.25625373795629 174.74735888361465,218.45417785926838 174.3876544062514,217.57571176587953 173.99524952180218,216.20071708617616 173.99524952180218,215.93335640410078 174.15875155688263,215.55141223061946 174.1260511499131,215.1694676547486 173.89714830066077,214.82571719246334 173.60284463723656,214.7111336326634 173.40664219495375,214.52016095249564 173.11233853152953,213.83265847098664 172.5891320190858,212.3048705116089 172.1313263203483,211.2736099998292 171.90242347109597,209.97498147937586 171.90242347109597,209.63122609243146 171.80432224995457,209.24927528036642 171.44461777247488,208.79093377460958 171.2484153303085,208.40898207720602 170.75790922460146,207.14853862120071 170.26740311889444,205.62072249691118 169.97309945547022,205.04778979055118 169.77689701330382,203.97831298300298 168.53428154578432,200.5788836083084 167.78217218385544,198.32531173480675 167.4551681134617,197.59958221743 166.9973624148406,196.10992234092555 166.9973624148406,195.61336768849287 166.93196160066873,195.1550089441007 166.86656078672968,194.0473062529927 166.73575915861875,193.4361584917351 166.50685630925,192.7868128667469 166.60495753015857,192.5958286380337 166.8992611935828,192.4430411826179 167.78217218385544,192.13746607853682 168.82858520920854,191.6027090267453 170.2347027119249,191.02975416745176 175.23786498932168,189.1198980960762 178.3117032512091,188.05037430129596 178.7695089498302,187.85938757745316 179.03111220605206,187.6684007527656 179.12921342730988,187.43921643056092 179.22731464833487,186.82805752925924 179.09651302022394,186.02590990788303 178.14820121612865,183.35207168399938 177.3633914469974,181.28938300721347 177.16718900483102,180.56361938509508 176.4150796426693,179.03569122066256 175.95727394428104,177.5459550594096 175.76107150199823,176.66738983787945 175.59756946668494,176.51459566899575 175.40136702440213,176.40000000002328 175.04166254703887,176.40000000002328 174.55115644133184,176.62919130170485 173.30854097392876,177.08757347043138 172.3275287625147,177.31676433730172 171.60811980767176,177.5841534990468 170.43090515432414,177.85154246343882 169.5479941640515,178.27172472327948 167.88027340499684,178.88289804995293 166.67035834444687,179.2266825932893 165.52584409795236,179.64686325928778 163.04061316279694,180.41082685856964 161.07858874031808,181.09839272129466 160.4245805995306,181.25118495803326 159.41086798126344,181.4039771304524 156.69673419673927,182.35892674923525 155.09441425162368,183.08468677691417 153.52479471371043,183.50486297081807 153.00158820103388,183.73404978055623 152.9034869800089,183.96323644535732 152.77268535166513,184.61259787523886 153.0342886080034,185.49114384085988 153.72099715599325,186.98084735128214 154.3423048896948,188.66153114193003 154.76741018122993,189.9984331386222 155.09441425162368,190.8387690130039 156.0427260559518,193.74173250119202 156.56593256862834,195.1932055283687 157.05643867410254,195.95713636645814 157.3834427447291,196.10992234092555 157.87394885031972,196.03352936176816 158.88766146847047,195.61336768849287 161.3728924037423,194.77304288125015 161.73259688110556,194.58205969890696 162.1577021725243,194.23828971709008 162.19040257972665,194.12369965063408 162.1250017656712,193.7035357640707 161.5690948460251,191.87008765127393 160.88238629803527,188.8907146914862 160.7188842628384,188.4705447399465 159.73787205154076,184.72719094806234 159.41086798126344,183.23747817642288 159.41086798126344,182.97009318487835 159.4762687952025,182.85549955669558 159.73787205154076,183.00829105291632 159.9667749009095,183.35207168399938 160.35917978535872,184.38341162106371 160.75158466992434,185.1473652383138 161.2747911826009,187.51561122073326 161.4709936248837,188.01217696457752 161.92879932338838,189.8456445884076 162.1250017656712,190.41860131922294 162.3539046148071,191.2971332145098 162.61550787114538,192.21385987871327 162.7136090924032,192.67222234152723 162.8117103135446,192.86320653004805 162.9098115345696,192.90140335564502 163.89082374598365,192.7868128667469 165.13343921350315,192.25205677276244 167.2589656712953,191.6027090267453 168.10917625424918,191.37352719160845 168.50158113869838,191.22073922114214 169.61339497822337,190.80057197008864 170.75790922460146,190.53319255681708 171.77162184286863,190.0366302660259 174.9762617329834,188.8143201909843 177.78849673853256,187.8975849302078 178.40980447235052,187.7065981258056 178.60600691463333,187.7447954947129 178.60600691463333,187.85938757745316 178.47520528640598,187.97397962384275 177.29799063294195,188.58513659305754 176.64398249215446,188.77612293476705 175.3686666174326,189.34908135581645 173.30854097392876,189.9984331386222 170.52900637534913,191.14434521162184 168.40347991755698,191.87008765127393 167.5532693346031,192.09926917246776 165.98364979645703,192.67222234152723 165.32964165566955,192.93960017722566 165.16613962047268,193.05419061795692 165.13343921350315,193.1687810223084 165.16613962047268,193.39796172257047 165.52584409795236,194.08550295385066 165.7547469473211,195.00222256733105 166.17985223873984,196.07172585336957 166.60495753015857,196.64467274444178 166.7030587514164,196.87385124736466 167.7494717767695,199.85315860196715 168.37077951070387,201.95393753127428 169.22099009377416,204.20748685012222 169.8422978274757,206.1554588728177 170.52900637534913,208.10342042971752 170.72520881763194,208.9437143407995 170.75790922460146,209.63122609243146 170.82331003865693,209.9367864524247 170.9868120739702,210.2805415497278 171.31381614424754,210.62429632098065 172.09862591337878,212.5722338691994 172.392929576803,213.56529604276875 172.8834356823936,214.978495215968 172.8834356823936,215.13127317503677 172.6872332401108,215.3986344485893 172.65453283314127,215.51321779110003 172.8834356823936,215.97155079929507 173.50474341621157,216.65904922547634 174.1260511499131,217.9576538070687" stroke="#4dd2ff" stroke-linecap="round" stroke-linejoin="round" stroke-width="0.5"><title>2023-07-31 6.0km</title><desc>9555944449</desc></polyline><polyline fill="none" points="40.660706403432414,266.2487931191863 40.09980481141247,265.2660942559014 39.08317067637108,262.604605692497 39.01305797719397,262.31798276034533 39.048114326782525,262.03135961681255 39.363621472148225,261.74473626189865 39.363621472148225,261.58095139288343 39.01305797719397,261.007703807496 38.66249448223971,260.8848649292777 37.610803997842595,258.4280792121135 37.08495875517838,256.9130536130979 36.66428256127983,255.1113938628987 36.06832461990416,254.04677281252225 35.016634135041386,250.97573421429843 34.736183339264244,250.44341838988476 34.420676193898544,249.09215186923393 34.14022539788857,248.150357273611 33.579323806101456,246.51244819382555 33.2287603111472,245.73443896288518 32.70291506871581,244.17841582911205 32.10695712734014,242.66333468674566 32.001788079040125,242.04911091958638 31.72133728279732,241.312041117606 31.510999185964465,239.8788458345516 30.95009759417735,238.81418306016712 30.879984895233065,237.7495173694333 31.020210293121636,237.38097856621607 31.230548389954492,237.17623463564087 33.2287603111472,236.39820671567577 33.96494365041144,235.98871771121048 35.051690484629944,235.5792282752227 35.64764842600562,235.29258541335003 36.55911351274699,235.00594234009623 37.15507145412266,234.67834999752813 38.97800162783824,233.94126621691976 39.71418496686965,233.73652047425276 41.431946092052385,233.12228259904077 44.27151040104218,232.26234794280026 44.481848497875035,232.13949997947202 44.51690484723076,232.05760131566785 44.27151040104218,232.01665197729017 43.43015801324509,232.26234794280026 42.238242130493745,232.6718408736051 41.431946092052385,233.04038414242677 40.5905937042553,233.24513025174383 38.34698733687401,234.02316448377678 37.36540955118835,234.18696096577332 37.01484605623409,234.02316448377678 36.804507959168404,233.81841878424166 36.41888811485842,232.9994349074841 35.61259207664989,230.4605739216786 35.051690484629944,229.23208684529527 33.96494365041144,226.2018021196709 33.78966190316714,225.58755233546253 33.36898570903577,224.7276010067435 33.298873010091484,224.39999999999418 33.439098407980055,224.64570078099496 33.71954920399003,225.34185215007165 33.96494365041144,226.28370201744838 34.385619844542816,227.0617501862289 35.051690484629944,228.53594244478154 35.54247937747277,230.29677586923935 36.24360636738129,232.09855064979638 36.55911351274699,233.40892706156592 36.52405716339126,234.14601185175707 36.27866271696985,234.43265555929975 35.78787382389419,234.67834999752813 32.10695712734014,236.2753600596625 29.127167420694605,237.25813222074066 27.865138838998973,237.58572238890338 27.304237246979028,237.62667114057695 27.164011849090457,237.58572238890338 27.023786451201886,237.3400297887565 26.848504703724757,236.6438999113161 26.32265946129337,235.29258541335003 25.621532471617684,233.20418103854172 25.411194374551997,232.22139862604672 24.639954685699195,229.9691795570834 24.21927849180065,227.7988470144046 24.043996744323522,227.30744928438799 23.90377134643495,227.22554960215348 23.798602298134938,227.22554960215348 23.58826420106925,227.47124859673204 23.58826420106925,227.8807465758 24.25433484138921,229.43683496091398 24.815236433176324,231.07481600367464 26.32265946129337,236.2753600596625 26.743335655191913,238.19995320992894 26.673222956247628,238.3637479315803 26.042208665283397,238.97797752302722 26.392772160470486,238.77323443375644 26.392772160470486,238.3637479315803 26.252546762349084,237.8314148337231 25.8669269180391,236.72579760864028 25.481307073496282,235.29258541335003 24.71006738464348,231.8119052206457 24.114109443267807,230.09202820656355 23.58826420106925,228.04454564658226 23.483095152536407,227.30744928438799 23.58826420106925,227.0617501862289 23.798602298134938,227.02080032139202 24.043996744323522,227.1436499027477 24.149165792856365,227.26649944542442 24.499729287810624,228.53594244478154 24.815236433176324,229.02733862158493 24.920405481709167,229.47778457120876 25.20085627771914,230.13297774770763 25.37613802519627,230.91101821011398 25.796814219094813,232.01665197729017 25.937039616750553,233.04038414242677 26.392772160470486,234.59645186871057 26.532997558126226,235.415432380134 26.9536737522576,237.05338822555495 27.09389915014617,237.29908100690227 27.2691808976233,237.42192733939737 28.005364236887544,237.29908100690227 29.092111071338877,236.97149059711955 31.020210293121636,236.52105333298096 31.791449981974438,236.19346226737252 33.05347856367007,235.8249219885911 33.929887300822884,235.45638136035996 35.75281747453846,234.80119715820183 36.83956430875696,234.2279100754531 37.610803997842595,234.10506273340434 39.188339724671096,233.40892706156592 40.55553735489957,232.87658717707382 42.869256421225145,232.22139862604672 43.991059605032206,231.8119052206457 44.166341352509335,231.7709558563365 44.306566750397906,231.85285458067665 44.27151040104218,232.05760131566785 44.06117230397649,232.22139862604672 42.34341117879376,232.9584856684378 40.169917510589585,233.69557131268084 37.68091669655405,234.7192990554322 35.47236667852849,235.45638136035996 32.38740792335011,236.68484876208822 31.230548389954492,237.01243941352004 31.055266642710194,237.2171834303299 30.95009759417735,237.54477363295155 30.95009759417735,237.99520971084712 31.12537934165448,238.6094398846617 31.475942836608738,239.3874633780797 31.826506331330165,240.04263984868885 31.93167537986301,240.4930730315682 31.861562680918723,240.94350569247035 31.405830137664452,241.312041117606 31.335717438720167,241.51678286946844 31.370773788075894,241.72152451355942 32.35235157376155,244.7107402338006 33.36898570903577,247.4132990418293 34.385619844542816,250.44341838988476 34.701126989675686,251.22141819517128 35.61259207664989,254.00582579080947 35.822930173482746,254.82476540541393 35.7177611249499,255.3570752296655 35.78787382389419,255.68465014375397 35.92809922201559,255.97127796715358 36.313719066325575,256.3397991437814 37.47057859972119,259.7793132781517 37.96136749256402,260.9258112263924 37.99642384191975,261.21243518509436 37.71597304614261,261.45811269566184 37.82114209444262,261.82662867053295 37.96136749256402,262.1132519650273 38.31193098751828,262.35892890641117 38.557325433939695,262.7274440272595 39.08317067637108,264.07866314821877 39.43373417109251,265.1432567232987 39.78429766604677,266.04406439419836 39.78429766604677,266.617304552492 40.415311957011,267.6000000000058" stroke="#4dd2ff" stroke-linecap="round" stroke-linejoin="round" stroke-width="0.5"><title>2023-07-29 5.9km</title><desc>9543628546</desc></polyline><polyline fill="none" points="109.8342817069497,266.7841378446901 109.50340867764316,265.8823935629043 109.50340867764316,265.4529908228433 109.6872270272579,264.8947665846208 109.65046335756779,264.6800647509808 109.35635399795137,264.12183945439756 108.87842628895305,263.864196751907 108.65784426918253,263.6065538866096 108.54755325941369,263.3489108585636 108.4004985797219,262.8336243137601 108.29020756995305,261.80304927018005 108.06962555018254,260.77247162134154 107.44464316149242,259.3554230997688 106.85642444249243,257.3801351233269 106.45202407334,256.86484103347175 106.23144205356948,256.4354287944734 105.75351434457116,255.0613065895741 104.90794993611053,252.95717298591626 104.72413158626296,251.92657297241385 104.09914919757284,249.47888749680715 103.95209451788105,248.31945240459754 103.58445781841874,247.41766727500362 102.66536607011221,245.69997579444316 102.22420203103684,244.4117024335428 102.113911021268,243.6816790550365 101.78303799196146,242.7369409770472 101.63598331203684,242.13574287827942 101.15805560280569,240.97628689781413 101.08452826319262,240.5898008380318 101.19481927272864,239.73094161541667 101.08452826319262,238.91502367748762 101.12129193311557,238.78619438011083 101.23158294288442,238.70030815911014 102.29772937088273,238.48559252775158 106.19467838387936,236.98257994072628 107.8122798607219,236.55314675500267 109.28282665810548,235.9089961281279 111.1210101544857,234.92129652263247 111.89304722333327,234.7065789004846 112.8121389716398,234.57774827285903 113.43712136056274,234.27714331666357 114.28268576879054,234.1053689563123 114.72384980809875,233.93359452378354 114.87090448802337,233.76182001869893 114.83414081786759,233.71887638117187 114.65032246825285,233.6759327390464 113.4003576906398,233.93359452378354 109.8342817069497,235.2219010037661 108.29020756995305,235.60839215366286 107.55493417126127,235.9519395348616 106.85642444249243,236.1237131167436 105.75351434457116,236.6390334283933 104.98147727595642,236.8108067208086 103.76827616803348,237.28318290150492 102.8859480896499,237.5408424057532 101.85656533157453,238.0561609256547 100.42278220434673,238.39970624347916 97.73903429904021,239.21562521302258 97.18757924996316,239.3444543746591 96.89346989081241,239.30151132526225 96.74641521088779,239.21562521302258 96.04790548211895,236.8537500325183 95.53321410319768,235.78016588048195 94.98175905435346,234.14831255323952 94.72441336466,232.94589013117366 94.24648565542884,231.31402545573656 93.84208528627641,229.6821542462567 93.29063023719937,227.9643880193762 93.36415757704526,227.23433518048842 93.43768491689116,227.8355552603898 93.51121225696988,229.25271336824517 94.32001299550757,233.41827079153154 94.61412235489115,234.44891760440078 95.31263208365999,236.59609009401174 95.53321410319768,237.62672887099325 95.71703245281242,238.82913748372812 95.82732346258126,240.28920031595044 95.56997777312063,241.23394406744046 95.01852272404358,241.6204295163916 92.1877201392781,242.52222747221822 91.19510105112568,242.77988366453792 90.68040967197157,242.86576902575325 90.45982765243389,242.7369409770472 90.20248196297325,242.52222747221822 89.39368122443557,241.14805836230516 88.21724378643557,238.18499045379576 87.44520671805367,236.72492008359404 86.48935129959136,234.1053689563123 86.08495093043894,233.3753271176829 85.93789625074714,232.77411520990427 85.68055056105368,232.04407098671072 85.3864412016701,230.88458629729575 85.12909551220946,230.11159467170364 85.20262285205536,229.76804236756288 85.34967753174715,229.596266106877 85.7540779011324,229.33860158006428 86.96727900882252,229.1668251384399 87.37167937797494,228.99504862434696 87.88637075712904,228.6085512028949 88.18048011651263,228.52266283726203 88.84222617535852,228.52266283726203 90.27600930258632,228.7373837174091 92.07742912950926,228.39383025476127 92.7759388582781,228.00733226333978 94.24648565542884,226.80489172326634 95.05528639419936,226.3325033975707 97.81256163911894,225.344780583604 100.34925486450084,224.82944599134498 101.56245597219095,224.44294461945537 101.93009267142043,224.39999999999418 102.22420203103684,224.61472305218922 102.812420749804,225.55950313821086 103.988858187804,227.19139085515053 104.0623855276499,227.74966673192102 104.65060424641706,229.33860158006428 104.94471360580064,230.66986654832726 105.49616865487769,232.34467758989194 105.86380535434,233.20355237746844 106.34173306333832,234.1053689563123 106.78289710264653,235.2219010037661 106.92995178233832,235.43661835457897 107.11377013218589,235.56544871075312 107.44464316149242,235.60839215366286 108.14315289026126,235.52250526315765 109.7607543671038,235.09307053900557 110.71660978533328,234.7065789004846 111.89304722333327,234.49186116512283 112.70184796163812,234.27714331666357 113.76799438986927,233.8047636517149 114.57679512817413,233.63298909243895 114.87090448802337,233.71887638117187 114.79737714794464,233.89065090421354 114.42974044871517,234.0624253549904 112.70184796163812,234.53480472115916 110.8636644652579,235.13601403185748 110.01810005679727,235.26484448288102 108.54755325941369,235.9519395348616 106.48878774326295,236.6390334283933 104.57707690657116,237.15435308846645 103.06976643926464,237.88438815809786 101.93009267142043,238.2279336208303 100.8639462434221,238.48559252775158 99.68750880565494,239.0867960106989 99.50369045580737,239.30151132526225 99.43016311596148,239.51622652687365 99.46692678611726,239.81682761906995 99.5772177958861,240.07448552150163 100.16543651465327,240.67568666074658 100.45954587403685,241.23394406744046 100.60660055396147,242.3504565867479 101.08452826319262,243.38108081315295 101.78303799196146,245.4423214480048 102.15067469095811,246.3870532552246 102.59183873026632,247.67532037277124 102.92271175980568,249.04946747687063 103.43740313872695,250.29478428850416 104.13591286749579,252.44187330483692 105.01824094587937,255.3189548557857 105.38587764510885,256.3066050344787 105.71675067464821,257.68072304158704 105.64322333480231,258.02425181950093 105.71675067464821,258.36778030803544 105.90056902426295,258.92601348424796 106.26820572372526,259.0977773848281 106.37849673326127,259.22660026262747 106.48878774326295,259.65600956152775 107.92257087049074,263.39185137450113 108.03286188025959,263.95007767083007 107.8122798607219,264.5083032027178 107.99609821056947,265.15240863568033 108.10638922033831,265.32416991269565 108.65784426918253,265.8394533091923 108.84166261879727,266.1829752117919 109.35635399795137,267.6000000000058" stroke="#4dd2ff" stroke-linecap="round" stroke-linejoin="round" stroke-width="0.5"><title>2023-07-26 6.1km</title><desc>9525965649</desc></polyline><polyline fill="none" points="174.76124012074433,265.0417742036225 174.32317811471876,263.9088396107836 173.97898653859738,262.7759013187024 173.6973752490012,261.5698661686911 173.32189352961723,260.2541866785905 173.25931324297562,259.7790789700812 172.53963994723745,258.46339268944575 171.8512567949947,256.3436654099787 171.7886765084695,256.0512882172188 171.8199666516157,255.68581637978787 171.8825469382573,255.46653309260728 171.8512567949947,255.21070241567213 171.6322257919237,254.80868239919073 171.10029335599393,254.5163039129693 171.03771306946874,254.37011457738117 170.66223134996835,252.90821783413412 169.8486876244424,250.97119516137172 169.7861073379172,250.16714483796386 169.8486876244424,249.83821462313063 169.8173974812962,249.65547548010363 169.59836647822522,249.25344902672805 169.12901432893705,248.81487418257166 168.90998332586605,248.37629878419102 168.3154706034111,246.73163610184565 167.6270874509355,244.4656436352525 166.81354372540955,242.45547663932666 166.0312901432626,239.89706543527427 165.74967885378283,239.312283082254 165.6558084237622,238.87369567071437 165.40548727754503,238.14271541914786 165.15516613121144,237.11934047937393 164.99871541489847,236.3152580515889 164.87355484161526,235.84011755918618 164.74839426844846,235.07258154288866 164.46678297885228,234.23194490969763 164.40420269221067,233.6837025298737 164.46678297885228,233.42785578939947 164.59194355201907,233.31820712858462 165.90612957021222,232.80651291974937 166.56322257919237,232.36791728288517 167.28289587481413,232.11206957200193 168.15901988686528,231.60037358407862 170.22416934394278,231.05212704502628 171.16287364251912,230.61352919004275 172.69609066366684,230.24803055395023 172.97770195326302,230.10183099159622 173.3531836727634,229.8459816094255 174.16672739828937,229.6266819886514 175.0741415536031,229.18808233138407 176.26316699851304,228.85913222443196 176.51348814496305,228.6763820302731 176.45090785832144,228.6032819255197 176.20058671198785,228.63983197981725 175.5747838462703,228.82258219327196 171.6948060784489,230.32113031187328 170.72481163660996,230.61352919004275 167.5957973075565,231.78312223774265 166.78225358214695,231.96587079530582 164.96742527151946,232.80651291974937 164.1225914027309,232.98926093804766 163.37162796384655,233.28165756724775 162.2138926621992,233.5740539499384 161.08744750369806,233.82990058261203 160.77454607083928,233.82990058261203 160.64938549767248,233.72025204877718 160.3051939214347,232.11206957200193 160.05487277521752,231.4176248339645 159.08487833326217,227.6529791634821 158.834557187045,227.03162594995229 158.52165575395338,225.4234124640061 158.2400444643572,224.91170660947682 158.1461740345694,224.87515616242308 157.89585288835224,224.91170660947682 157.73940217180643,224.9848074920592 157.73940217180643,225.09445878700353 157.89585288835224,225.93511756375665 158.5529458973324,228.05503064990626 158.7719769004034,228.96878229471622 159.30390933644958,230.83282818688895 159.80455162888393,232.84306253117393 160.14874320512172,234.99948278610827 160.02358263195492,235.21877901029075 159.89842205878813,235.25532836743514 158.70939661376178,235.73046966086258 156.33134572394192,236.3883565311844 155.61167242832016,236.75384869784466 155.48651185503695,236.97314381293836 155.51780199841596,237.00969298533164 155.79941328801215,236.82694708488998 158.1461740345694,236.02286397953867 159.80455162888393,235.3649764159636 160.02358263195492,235.21877901029075 160.14874320512172,234.92638401384465 160.14874320512172,234.4146921771462 159.77326148550492,232.95271134213544 159.71068119909614,232.33136762143113 158.67810647038277,228.49363173983875 158.584236040595,227.83572989687673 157.95843317487743,225.2406604597927 157.80198245833162,224.50965147986426 157.80198245833162,224.39999999999418 158.05230360478163,224.4365504971065 158.20875432121102,224.58275244716788 158.4590754675446,225.20411004731432 158.92842761671636,227.2874774079828 159.17874876316637,228.5301818055741 159.36648962285835,229.15153233482852 159.42906990938354,229.699781877629 159.61681076919194,230.32113031187328 160.6180953544099,233.6837025298737 160.74325592757668,233.86645008611958 160.86841650074348,233.9395490816387 161.15002779033966,233.9395490816387 162.0261518023908,233.6837025298737 163.52807868015952,233.0623601184634 165.28032670437824,232.5506655323261 166.78225358214695,231.9293210915639 167.65837759431452,231.67347305707517 168.53450160636567,231.34452530698036 169.37933547515422,230.9424776333908 170.31803977384698,230.75972853667918 172.28931880102027,229.9921812795219 173.5409245325718,229.5170321263431 175.98155570891686,228.85913222443196 176.20058671198785,228.85913222443196 176.26316699851304,228.89568225177936 176.26316699851304,228.96878229471622 176.16929656884167,229.11498233451857 175.82510499248747,229.26118231276632 173.85382596531417,229.8459816094255 172.50834980385844,230.3576801852032 169.59836647822522,231.30797553766752 166.40677186276298,232.47756624405156 165.56193799397442,232.87961213861126 163.55936882353853,233.50095487729413 163.12130681751296,233.72025204877718 162.99614624434616,233.86645008611958 163.02743638749234,234.01264806170366 163.12130681751296,234.23194490969763 163.52807868015952,234.70708760488196 163.65323925344273,234.99948278610827 163.9974308295641,236.3518072932784 164.37291254883166,237.11934047937393 165.12387598783243,239.64122327705263 166.0,242.19963636784814 166.59451272257138,244.17325643240474 167.22031558828894,245.7813829984807 168.0964396003401,248.33975080921664 168.2841804601485,249.18035325786332 168.2841804601485,249.69202331639826 168.53450160636567,250.31333594443277 168.84740303934086,250.5691702325712 169.22288475860842,251.33667196516762 170.349329917226,254.4432092529023 170.44320034689736,254.80868239919073 170.22416934394278,255.10106063913554 170.19287920068018,255.21070241567213 170.2554594873218,255.4299858645245 170.41191020375118,255.7589107780659 170.81868206639774,256.0878353797889 170.94384263956454,256.307118274417 171.8825469382573,258.7923147272959 172.0077075114241,259.26742378703784 172.10157794121187,259.8887192682305 172.66480052052066,260.91202704724856 173.6660851057386,264.0915712469141 174.69865983421914,267.0152643379697 174.72994997759815,267.2345403266372 174.57349926093593,267.4903621384583 174.60478940431494,267.6000000000058 174.82382040750235,267.6000000000058 175.10543169698212,267.4903621384583 175.6060739896493,267.16144834578154" stroke="#4dd2ff" stroke-linecap="round" stroke-linejoin="round" stroke-width="0.5"><title>2023-07-23 5.7km</title><desc>9507119362</desc></polyline></svg>