<?xml version="1.0" encoding="utf-8" ?>
<svg baseProfile="full" height="300mm" version="1.1" viewBox="0,0,200,300" width="200mm" xmlns="http://www.w3.org/2000/svg" xmlns:ev="http://www.w3.org/2001/xml-events" xmlns:xlink="http://www.w3.org/1999/xlink"><defs /><rect fill="#222222" height="300" width="200" x="0" y="0" /><text fill="#FFFFFF" style="font-size:12px; font-family:Arial; font-weight:bold;" x="10" y="20">Over 5km Runs</text><text fill="#FFFFFF" style="font-size:4px; font-family:Arial" x="10" y="280">ATHLETE</text><text fill="#FFFFFF" style="font-size:9px; font-family:Arial" x="10" y="290">Melt</text><text fill="#FFFFFF" style="font-size:4px; font-family:Arial" x="120" y="280">STATISTICS</text><text fill="#FFFFFF" style="font-size:3px; font-family:Arial" x="120" y="285">Number: 10</text><text fill="#FFFFFF" style="font-size:3px; font-family:Arial" x="120" y="290">Weekly: 2.5</text><text fill="#FFFFFF" style="font-size:3px; font-family:Arial" x="141" y="285">Total: 62.5 km</text><text fill="#FFFFFF" style="font-size:3px; font-family:Arial" x="141" y="290">Avg: 6.2 km</text><text fill="#FFFFFF" style="font-size:3px; font-family:Arial" x="167" y="285">Min: 5.3 km</text><text fill="#FFFFFF" style="font-size:3px; font-family:Arial" x="167" y="290">Max: 9.2 km</text><polyline fill="none" points="50.454640484414995,87.0 49.83119862084277,85.65566822286928 48.536357826786116,82.35083815769758 48.39248662744649,81.67866681749001 48.48840076033957,81.00649462756701 48.39248662744649,80.44635048689088 48.152701295213774,79.99823474959703 47.817001830087975,79.83019125071587 47.52925943140872,79.55011863453547 47.097645833389834,78.59787063632393 45.61097677377984,74.50878631992964 45.2273202422075,72.99637730559334 45.27527730865404,72.49224001157563 45.179363175760955,71.98810223955661 44.93957784352824,71.48396398953628 44.507964245509356,71.09185613133013 44.26817891327664,70.75576345127774 43.16516638523899,67.67490398563677 42.397853322094306,64.98613931902219 41.77441145828925,63.417686984699685 40.81527012959123,60.05670211761026 39.18472987040877,55.35128761146916 38.849030405515805,54.00687581842067 38.41741680749692,52.99856474268017 38.36945974105038,52.55042587296339 38.46537387371063,51.43007704633055 38.36945974105038,50.981936854775995 38.03376027569175,50.365743474452756 37.21849014633335,49.07733682618709 36.88279068144038,48.34910560044227 36.78687654831447,47.7889270556625 36.88279068144038,47.50883756199619 37.122576013440266,47.17272997490363 41.39075492694974,45.044043655274436 47.00173170072958,43.251459091261495 48.39248662744649,42.69127517554443 49.735284487949684,42.35516454279423 51.03012528177351,41.850998195353895 53.57184980320744,41.12275707151275 55.538089527282864,40.33849628421012 55.77787485974841,40.17044025071664 55.58604659372941,40.00238416402135 54.05142046767287,40.22645893442677 52.372923142043874,41.01071988698095 50.646468750201166,42.01905369758606 48.39248662744649,42.85933041223325 46.85786050138995,43.3074774502893 44.93957784352824,43.97969729930628 43.98043651483022,44.25978865212528 42.44581038854085,44.93200729705859 40.04795706644654,45.60422509192722 36.49913414986804,47.00467610155465 33.81353842886165,47.95698068116326 32.902354166610166,48.1250342533458 32.182998169912025,48.18105209886562 31.991169904358685,48.0690164018888 31.94321283767931,47.90096281183651 31.415685107000172,45.99635174643481 30.64837204385549,43.75562411075225 30.216758446069434,42.13109066954348 29.64127364847809,40.45053361036116 28.969874718459323,38.20978260115953 27.818905123742297,33.50417474115966 27.579119791509584,33.112038872845005 27.387291525723413,33.0 27.291377392830327,33.0 27.099549127044156,33.22407772176666 27.099549127044156,33.50417474115966 28.106647522421554,36.41717499413062 28.92191765177995,39.21812172385398 29.78514484781772,43.3074774502893 31.03202857542783,48.0690164018888 31.319770973874256,49.41344320931239 31.17589977476746,49.749549380037934 30.984071508981287,49.917602385627106 29.44944538269192,50.70184904302005 26.907720861490816,51.82219940418145 24.270082206930965,52.60644325229805 24.222125140251592,52.71847799338866 24.270082206930965,52.7744953550864 25.181266469415277,52.60644325229805 26.907720861490816,51.71016447443981 30.31267257872969,50.533796285279095 30.64837204385549,50.309725858969614 30.744286176748574,50.141672977246344 30.69632911030203,49.63751401333138 30.936114442534745,49.63751401333138 31.079985641641542,49.525478623167146 30.024930180050433,46.50051416299539 28.634175253100693,40.22645893442677 28.154604588868096,38.76997123891488 27.579119791509584,36.19309861824149 27.051592060830444,34.28844561020378 27.00363499415107,33.392135951144155 27.1475061934907,33.112038872845005 27.48320565884933,33.05601943936199 27.722990990849212,33.168058300274424 28.010733389295638,33.56019412726164 28.298475788207725,34.2324263008195 30.50450084451586,41.73896116425749 30.88815737585537,43.58756915741833 31.511599239660427,45.94033367058728 31.991169904358685,47.34078379505081 32.13504110346548,47.62087337725097 32.47074056859128,47.62087337725097 36.403220016974956,46.27644203690579 39.712257601553574,45.26811630069278 41.10301252827048,44.59589808085002 44.316135979723185,43.47553249227349 45.035491976421326,43.08340397849679 46.234418637584895,42.91534881258849 48.10474422876723,42.41118299640948 53.18819327186793,40.5625709129381 54.77077646413818,40.22645893442677 55.010561796370894,40.22645893442677 55.10647592949681,40.33849628421012 55.10647592949681,40.5625709129381 55.010561796370894,40.61858955526259 52.900450873188674,41.57090557349147 49.783241554163396,42.747293593594804 42.541724521201104,45.10006182541838 36.35526295052841,47.50883756199619 35.82773521961644,47.7889270556625 35.683864020276815,48.0690164018888 36.738919482100755,51.71016447443981 37.458275478798896,52.99856474268017 37.69806081079878,54.00687581842067 38.80107333906926,56.6396790567087 40.191828266019,60.78491730825044 40.959141328930855,62.689475399733055 41.822368524968624,65.49028372968314 43.596779983257875,70.58771703165257 43.83656531549059,71.53997937421082 43.596779983257875,71.93208690191386 43.596779983257875,72.21216353052296 43.83656531549059,72.77231634501368 44.2202218468301,73.16442296403693 44.460007179295644,73.66855962091358 46.66603223537095,79.49410409363918 46.80990343494341,80.11026371916523 46.71398930205032,80.39033604034921 46.570118102710694,80.55837936216267 46.52216103626415,80.78243704210036 46.90581756760366,81.51062384969555 47.43334529874846,81.8467097322573 47.67313063074835,82.18279540230287" stroke="#4dd2ff" stroke-linecap="round" stroke-linejoin="round" stroke-width="0.5"><title>2023-08-10 5.8km</title><desc>9620015411</desc></polyline><polyline fill="none" points="108.75764680141583,84.46436687174719 108.65896909078583,83.42705902300077 108.856324511813,82.7355193644762 108.75764680141583,82.27449243998853 108.4616136699915,81.75583668536274 107.96822511777282,81.58295132470084 107.72153084189631,81.29480893531581 106.43872060603462,78.06760380585911 105.64929892239161,75.70481655042386 105.55062121222727,74.89800880895928 105.35326579143293,74.32171683647903 105.4519435018301,73.9759413615684 105.30392693611793,73.34201909013791 105.15591037040576,73.0538723601494 104.61318296310492,72.53520786383888 103.28103387192823,69.0198022055556 102.93566188565455,67.80957535823109 102.49161218851805,66.88749596331036 99.18590888893232,56.80215111374855 98.84053690242581,56.11057779751718 98.00177636370063,53.92058986116899 97.70574323227629,50.75085495080566 97.11367696966045,48.387949704308994 97.36037124576978,48.04215783654945 98.93921461282298,47.29294137295801 101.70219050510786,46.3131952182157 103.77442242437974,45.67924088885775 107.86954740737565,44.1231680563651 110.97789528639987,43.14341622416396 113.14880491583608,42.221295249299146 114.08624316519126,41.93313212599605 116.01045851851813,41.126274572859984 116.30649164994247,40.89574362477288 116.35583050502464,40.780478114204016 116.05979737383313,40.780478114204016 109.44839077442884,43.25868123653345 106.14268747484311,44.296065256465226 104.16913326596841,45.102918133779895 101.55417393962853,46.025034250400495 99.48194202035666,46.83188457752112 95.38681703712791,48.15742181672249 94.30136222206056,48.676109427178744 93.56127939396538,48.84900518815266 91.98243602691218,48.96426899835933 91.68640289572068,48.79137327382341 91.4890474746935,48.387949704308994 89.81152639724314,43.37394622480497 89.5648321211338,42.04839739360614 89.2194601346273,40.9533763708896 88.67673272709362,38.648061789164785 87.83797218836844,35.76640489831334 87.3445836363826,33.46106845460599 86.99921164987609,33.0 86.60450080805458,33.115267150104046 86.40714538702741,33.40343491913518 86.45648424234241,33.691602536302526 87.73929447797127,37.14960210060235 88.77541043772362,40.49231423181482 89.46615441073664,43.37394622480497 89.86086525255814,45.85213759710314 90.55160922557116,48.33031774149276 90.89698121184483,49.94401040452067 90.89698121184483,50.92375005595386 90.7983035016805,51.15427677775733 90.40359265985899,51.44243504334008 89.36747670010664,51.845856360159814 86.60450080805458,52.710329608642496 85.86441797972657,52.82559260504786 83.64416949497536,53.574801490758546 83.7428472051397,53.574801490758546 84.72962430957705,53.45953865221236 86.85119508416392,52.537435068166815 87.98598875408061,52.191645823360886 89.02210471360013,51.78822476166533 90.05822067335248,51.55769830709323 90.50227037048899,51.211908443016 90.7983035016805,50.577959791058674 90.60094808088616,49.367692142841406 90.05822067335248,47.696365750045516 89.17012127954513,44.18080046254909 88.87408814812079,42.62472336710198 88.18334417487495,40.54994702053955 87.44326134677976,37.437767744238954 87.04855050519109,35.42060505133122 86.75251737376675,34.4408376304782 86.70317851845175,34.09503694518935 86.80185622884892,33.6339690250461 86.94987279456109,33.40343491913518 87.14722821535543,33.288167829683516 87.44326134677976,33.288167829683516 87.6899556228891,33.46106845460599 88.03532760939561,34.210303864616435 88.62739387177862,36.28510425920831 89.07144356891513,38.82096071972046 90.35425380454399,43.71974104386754 90.7489646463655,45.102918133779895 91.291692054132,47.35057344491361 91.68640289572068,48.56084555631969 91.83441946143284,48.79137327382341 92.03177488199435,48.90663709625369 94.74541191919707,48.099789829633664 99.58061973075382,46.486091725935694 103.08367845113389,45.56397638638737 105.35326579143293,44.296065256465226 106.38938175071962,44.18080046254909 107.67219198658131,43.7773734923685 108.856324511813,43.37394622480497 110.87921757553704,42.45182563876733 115.56640882161446,40.9533763708896 115.91178080788814,41.01100911095273 115.8624419530388,41.126274572859984 115.61574767692946,41.35680542368209 113.29682148154825,42.3941930506262 108.65896909078583,44.06553564412752 107.91888626245782,44.23843286244664 107.22814228967763,44.52659477136331 105.64929892239161,44.93002118868753 102.39293447812088,46.0826664561755 99.77797515154816,47.29294137295801 97.55772666656412,47.98452583729522 95.68285016808659,48.676109427178744 95.38681703712791,48.90663709625369 95.28813932649791,49.19479654595489 95.28813932649791,49.42532399634365 95.43615589221008,49.771114989649504 96.07756101014093,50.69322323706001 96.32425528625026,51.15427677775733 96.96566040394828,53.574801490758546 97.55772666656412,54.612165946280584 99.08723117830232,58.531080579268746 99.87665286194533,60.951572650519665 100.86342996638268,64.3517696132185 101.70219050510786,66.48408573924098 102.19557905732654,68.27061447291635 102.93566188565455,70.05713737208862 103.8237612794619,72.93861362565076 103.72508356906474,73.91831209452357 103.9224389900919,74.72512128081871 104.56384410755709,75.24378370086197 104.71186067326926,75.53192927734926 106.43872060603462,79.7964660639991 107.08012572396547,82.101607243123 106.9814480135683,82.50500595086487 106.73475373745896,82.67789102019742 106.78409259254113,82.9660326812882 107.12946457904764,83.6575720483088 107.57351427618414,83.94571319321403 107.86954740737565,84.34911054116674 108.95500222221017,87.0" stroke="#4dd2ff" stroke-linecap="round" stroke-linejoin="round" stroke-width="0.5"><title>2023-08-08 6.0km</title><desc>9606561718</desc></polyline><polyline fill="none" points="168.92665009363554,85.79274410154903 168.17493219068274,84.75011175620602 167.04735533706844,81.73195373051567 166.90640823030844,80.853940839821 167.18830244382843,80.0308024106198 167.04735533706844,79.42716673621908 166.85942586115561,79.09791061887518 166.20167269650847,78.82353036227869 166.01374322082847,78.54914996097796 165.44995479402132,76.68335940031102 164.3693603090942,74.32367353333393 163.75858951290138,72.07373054296477 163.66462477529421,71.30545510113006 163.0068716101814,70.20791679009562 162.44308318337426,68.61648213176522 161.50343580520712,65.81774042203324 161.17455922276713,65.1043332676054 160.70473553356715,62.96410594199551 160.18792947568,61.75679434055928 159.48319394188002,59.451918967824895 159.06035262160003,58.5189903221908 158.0267405055929,55.66531585773919 157.50993444770575,54.512865969212726 157.22804023418576,53.360413530957885 157.08709312742576,52.48235281906091 157.08709312742576,51.988443018111866 156.33537522493862,49.6835244212416 156.24141048709862,49.024974377360195 156.19442811817862,47.59811309253564 156.38235759362578,47.21395746344933 156.61726943822578,46.939560412138235 157.69786392338574,46.445645355270244 159.62414104864,45.7322116685682 160.56378842680715,45.23829546687193 161.55041817412712,44.90901773900259 162.67799502820708,44.41510075668339 164.93314873590134,43.701664288761094 170.10120931640267,41.725988969614264 171.13482143217698,41.39670902112266 172.3093806549441,40.90278870833572 173.24902803334408,40.62838833202841 173.90678119799122,40.299107689759694 173.57790461578406,40.18934742943384 173.38997514010407,40.24422756244894 169.0675972001627,42.11014864628669 166.95339059922844,42.658947693009395 166.01374322082847,43.04310668166727 164.51030741562136,43.48214517888846 162.95988924149424,44.195581947569735 160.18792947568,45.07365662883967 158.44958182587288,45.7322116685682 157.36898734094575,46.061488876177464 155.48969258437864,46.82980155106634 152.6237680807244,47.59811309253564 151.30826175119728,47.817630467761774 150.97938516899012,47.70787179173203 150.8854204309173,47.488354370347224 149.80482594599016,44.85413809737656 148.86517856782302,41.06742886471329 148.30139014078304,39.14662380237132 148.16044303402305,38.43318011792144 147.69061934482306,37.116050748329144 146.98588381125592,33.987855146231595 146.46907775313593,33.16464265459217 146.28114827768877,33.0 146.18718353961594,33.054880890704226 146.09321880177595,33.38416611292632 146.28114827768877,34.59154347976437 147.83156645158306,39.53078538144473 148.67724909214303,43.0979865140398 150.03973779059015,47.70787179173203 150.18068489735015,48.476182038197294 150.13370252843015,48.695699043164495 149.66387883923016,49.409128670813516 149.75784357707016,49.299370330176316 149.71086120815016,48.97009516955586 149.42896699463017,47.817630467761774 149.10009041242301,45.89685029844986 148.16044303402305,42.16502857703017 147.31476039346308,39.20150404510787 146.65700722881593,36.622126376023516 146.09321880177595,33.49392780743074 146.18718353961594,33.219523527892306 146.56304249097593,33.38416611292632 146.8919190731831,33.76833194238134 147.59665460698307,35.689156839158386 149.10009041242301,40.73814849986229 149.61689647031017,43.0979865140398 149.99275542167015,44.25046165846288 150.18068489735015,45.23829546687193 150.46257911087014,46.33588639012305 150.8854204309173,47.817630467761774 151.0263675376773,47.87250979716191 152.24790912936442,47.59811309253564 153.04660940077156,47.26883685635403 154.4090980994515,46.77492211188655 157.04011075850576,46.006609355972614 158.44958182587288,45.5126934145228 159.67112341779284,44.90901773900259 162.95988924149424,43.81142380897654 166.15469032735564,42.549187929951586 168.9736324623227,41.561349021445494 169.86629747180268,41.39670902112266 171.4636980148498,40.73814849986229 173.29601040226407,40.24422756244894 173.53092224686407,40.18934742943384 173.7658340916969,40.299107689759694 173.71885172254406,40.46374803688377 173.43695750902407,40.683268418884836 171.4636980148498,41.67110899271211 169.0206148312427,42.49430803960422 167.98700271523558,42.76870743301697 166.43658454087563,43.427265387028456 164.83918399806134,43.86630356032401 163.14781871717423,44.52486012643203 159.38922920427285,45.7322116685682 158.2146699812729,46.28100689902203 157.18105786503293,46.610283759539016 155.1138336332515,47.43347500055097 154.5970275751315,47.76275113271549 154.45608046813868,48.09202705667121 154.5500452062115,48.695699043164495 155.16081600193866,50.01279913098551 155.53667495353147,51.439653801207896 155.91253390465863,52.317716270685196 156.2883928557858,52.921383360167965 156.57028706930578,53.579928477760404 156.85218128282577,54.56774459313601 158.12070524366572,57.805573171703145 158.44958182587288,59.12265022483189 159.43621157296002,61.75679434055928 159.85905289324,63.128739125444554 161.9732594944071,68.8908677646541 162.44308318337426,70.75668623467209 162.44308318337426,71.08594762400026 162.3491184457671,71.47008564841235 162.44308318337426,71.79934658668935 162.77195976604708,72.62249802210135 163.28876582393423,73.2261415811954 164.0874660955742,75.20169743028237 164.51030741562136,76.62848310626578 164.83918399806134,77.23212202364812 165.21504294942133,78.43939776014304 165.44995479402132,79.37229073123308 165.44995479402132,79.53691872907802 165.30900768726133,79.97592646913836 165.44995479402132,80.689313257928 165.63788426970132,80.96369253203738 166.15469032735564,81.34782327286666 166.62451401678845,82.17095962085295 167.18830244382843,84.25623254844686 167.94002034631558,86.34149712952785 167.94002034631558,87.0" stroke="#4dd2ff" stroke-linecap="round" stroke-linejoin="round" stroke-width="0.5"><title>2023-08-07 5.3km</title><desc>9599973967</desc></polyline><polyline fill="none" points="49.44214782002382,146.55328006320633 48.581597638782114,145.1572778345435 47.43419739743695,141.8626979997498 47.33858071058057,141.0809302875423 47.52981408429332,140.13163937273202 47.43419739743695,139.74075438437285 47.19515568064526,139.4057098791818 46.62145555950701,139.12650596327148 46.33460549963638,138.73562023357954 44.80473851086572,134.8825883337995 44.470080106984824,133.70992089255014 43.991996673401445,131.1970533541753 43.41829655249603,130.58279503305675 43.22706317901611,130.13606126146624 42.12747128121555,127.23228256951552 41.792812877101824,125.89207165455446 41.314729443285614,124.88691124448087 40.0239041717723,121.14546407770831 39.11554564721882,118.24163613416022 38.82869558688253,117.57151973433793 38.159378779586405,115.61700872902293 37.53787031513639,114.22092502680607 37.15540356817655,112.76899407600285 36.82074516452849,111.93133979511913 36.82074516452849,111.0936841905932 36.67732013412751,109.92096412007231 36.1992367003113,107.51967207033886 36.1514283567667,107.18460719846189 36.247045043390244,107.01707468321547 36.43827841733582,106.73785370663973 39.163353990530595,105.62096832925454 40.26294588856399,104.89499157189857 41.69719619047828,104.16901382012293 42.557746371487156,103.88979134312831 43.41829655249603,103.49887962813955 45.37843863177113,102.94043382117525 47.912280831253156,101.82354044169188 48.868447699118406,101.60016148316208 49.72899788036011,101.20924807956908 53.7927070686128,99.86897136404878 54.22298215911724,99.64559158193879 54.414215532597154,99.4222117056488 54.12736547226086,99.47805668361252 53.410240321652964,99.92481629486429 52.35845676669851,100.31573064578697 51.497906585922465,100.76248955103802 49.72899788036011,101.43262720271014 45.61748034856282,102.49367675173562 43.37048820895143,103.61056871910114 40.74102932261303,104.3923916958156 38.159378779586405,105.5651239985018 36.1992367003113,106.29109983803937 35.14745314582251,106.51447681942955 33.71320284390822,107.01707468321547 32.56580260256305,107.18460719846189 31.51401904807426,107.46382793982048 31.131552300648764,107.4079838033067 30.844702240312472,107.24045135849155 30.74908555368893,107.01707468321547 29.888535372447222,104.05732484691544 28.741135131334886,101.43262720271014 28.16743501042947,99.19883173541166 26.589759678579867,93.83768420107663 26.2072929313872,93.39091945858672 25.92044287105091,93.39091945858672 25.68140115402639,93.67014746682253 25.585784467402846,93.89352976734517 25.633592810947448,94.11691197380424 26.828801395604387,96.62995530880289 27.354693172732368,98.19362070341595 27.689351576613262,99.53390165552264 28.07181832380593,100.70664470858173 28.59771010116674,103.33134594798321 29.84072702936828,108.13395711861085 29.697301999200135,109.0274613724323 29.79291868582368,108.74824145500315 29.745110342279077,108.30148928094422 28.980176848126575,105.73265697277384 28.59771010116674,103.88979134312831 26.828801395604387,97.9143950783764 26.350717961555347,95.95981158461655 26.016059557907283,95.01043985807337 25.824826184194535,93.50261067948304 25.92044287105091,93.27922821423272 26.111676244530827,93.05584565451136 26.350717961555347,93.0 26.733184708748013,93.11169130337657 27.115651455707848,93.50261067948304 27.306884829420596,93.89352976734517 27.832776606781408,96.96502685319865 28.310860040597618,99.08714171481552 28.741135131334886,100.3715755296289 29.31483525177464,102.8287445891765 29.936343715991825,104.95083597302437 30.653468867065385,107.07291886088206 30.844702240312472,107.24045135849155 31.896485795034096,107.07291886088206 34.90841142856516,106.12356704025296 36.964170194463804,105.5651239985018 39.06773730390705,104.83914716477739 45.76090537849814,102.27029807586223 49.2031061029993,101.04171367548406 49.87242291052826,100.93002404330764 51.45009824237786,100.25988575624069 53.458048664731905,99.64559158193879 53.697090381989256,99.58974662178662 53.88832375523634,99.75728148478083 53.88832375523634,99.92481629486429 53.697090381989256,100.14819595927838 52.740923513891175,100.65079986001365 49.44214782002382,101.87938516651047 46.52583887288347,102.8287445891765 41.26692109997384,104.78330275171902 39.68924576789141,105.50927966204472 38.30280380952172,106.0118784790393 36.10362001368776,106.62616527476348 35.43430320592597,107.07291886088206 34.573753024917096,107.4079838033067 34.43032799474895,107.96642490319209 35.09964480227791,109.2508372006123 35.768961609806865,111.37290287250653 36.39047007379122,112.60146332578734 37.490061971824616,116.34297080087708 38.01595374918543,117.68320585979382 38.58965386985801,119.63770924654091 40.50198760582134,124.49601501470897 42.22308796783909,130.13606126146624 42.318704654462636,130.58279503305675 42.318704654462636,131.47626144677633 42.50993802794255,131.81131096358877 42.796788088278845,132.64893382927403 43.274871522327885,133.20734833774623 44.039805016480386,135.38515930029098 44.80473851086572,137.06039241410326 45.426246975082904,139.34986910771113 45.37843863177113,139.57323215826182 45.04378022789024,139.90827655768953 45.04378022789024,140.18748006172245 45.37843863177113,140.91340848483378 45.99994709575549,141.2484520371654 46.23898881254718,141.58349537773756 47.48200574074872,144.8222367526032 47.864472487708554,146.1623998095747 48.00789751810953,147.0" stroke="#4dd2ff" stroke-linecap="round" stroke-linejoin="round" stroke-width="0.5"><title>2023-08-06 5.3km</title><desc>9594199691</desc></polyline><polyline fill="none" points="109.19757062231656,147.0 108.90939608577173,146.01827957099886 108.90939608577173,145.79388582185493 108.98143971990794,145.51339336947422 108.933410630445,145.3731470326602 108.789323362289,145.0646048313356 108.52516337041743,144.92435825796565 108.4771342810709,144.86825960801798 108.30903246812522,144.53166745972703 107.9488142975606,143.66213577409508 107.49253794818651,142.34380812515155 107.2764070458943,141.4742692950531 107.2764070458943,141.24987171663088 107.10830523283221,140.91327499446925 106.84414524107706,140.57667784680962 106.60399979399517,139.95958197084838 106.14772344462108,138.66928597260267 104.87495257530827,134.6020076671266 104.68283621768933,134.04099888703786 104.03444351057988,132.52626927607344 103.81831260817125,131.60059693819494 103.7942980636144,131.17983572077355 103.81831260817125,130.81517546105897 103.77028351882473,130.53466722919256 103.5541526164161,130.0858534433646 103.24196353531443,129.63703890095348 103.14590535638854,129.3565294276923 103.12189081171528,128.85161163113662 103.19393444585148,128.59915237379028 103.33802171400748,128.48694818254444 104.58677803876344,128.0661820443056 106.02765072113834,127.36490366936778 106.67604342813138,127.11244300220278 106.96421796467621,126.88803331929375 107.036261598696,126.66362344729714 107.06027614348568,126.32700828445377 106.91618887521327,125.65377668221481 106.70005797280464,125.06469763367204 106.3638543470297,123.9706902281323 105.88356345286593,122.62421340364381 105.64341800578404,122.14733456191607 105.47531619283836,121.55824775443762 104.73086530703586,119.53851166123059 104.49071985995397,119.00552319237613 104.34663259168155,118.8091587505478 104.13050168938935,118.64084625666146 103.8663416976342,118.58474206837127 103.45809443760663,118.69695043307729 102.92977445409633,119.00552319237613 102.32941083644982,119.20188748926739 101.12868360115681,119.53851166123059 100.09605817892589,119.762927539472 98.94336003286298,120.12760293800966 98.58314186241478,120.18370680112275 98.31898187054321,120.1556548710505 98.17489460238721,120.0714990630513 98.0308073341148,119.90318736722111 97.95876369997859,119.7348755649582 97.02219645644072,117.0418722567847 96.15767284703907,114.01221097059897 95.91752739995718,112.7778946350445 95.89351285528392,112.55347286825418 95.94154194474686,112.44126191386022 96.10964375769254,112.30099815438734 97.1902982693864,112.0485232010833 97.76664734247606,112.0485232010833 98.102850968251,111.96436483008438 99.30357820354402,111.34720262989867 101.72904721880332,110.47756255546119 102.13729447883088,110.2531388491625 103.53013807162642,109.07491128725815 103.7942980636144,108.76632701634662 104.44269077049103,107.64419937916682 104.49071985995397,107.33561344954069 104.37064713647123,106.97092052618973 103.89035624230746,105.98905247959192 103.38605080347043,105.34382293393719 102.20933811296709,104.24973447763477 101.17671269061975,103.35201751353452 100.5283199835103,102.70678157536895 100.40824726002757,102.65067402855493 100.07204363413621,102.73483534433763 99.87992727651726,102.98731913199299 99.73584000824485,103.09953407177818 99.32759274821728,103.21174896435696 98.39102550467942,104.2216808682715 97.95876369997859,104.61443112939014 97.09424009057693,105.17550192569615 96.39781829412095,105.51214383580373 93.97234927886166,106.35374674829654 92.17125842592213,106.74649386340752 91.69096753187478,106.74649386340752 91.47483662958257,106.66233381608617 91.30673481652047,106.38180013280362 90.53826938592829,104.27778808400035 89.98593485762831,102.65067402855493 89.72177486587316,101.72489779876196 88.52104763069656,99.0878205850604 88.01674219185952,98.16203196247807 87.63250947662164,97.20818577124737 87.60849493183196,96.98375087635941 87.63250947662164,96.87153335809126 87.80061128956731,96.70320699180593 88.47301854123361,96.25433616136434 89.45761487423442,95.8054645738157 90.44221120723523,95.41270131376223 91.69096753187478,94.82355533694499 92.89169476716779,94.09413470150321 93.39600020600483,93.86969718075125 93.85227655537892,93.50498580580461 94.0203783683246,93.39276682064519 95.14906196948141,93.0 95.36519287189003,93.05610958128818 95.55730922950897,93.22443825413939 95.7494255870115,93.53304054465843 96.0616146682296,94.26246271788841 96.27774557063822,94.68328229311737 96.58993465185631,95.21631946641719 96.92613827763125,95.63713753339835 97.47847280593123,96.17017279635184 98.27095278108027,96.81542458105832 99.0154036671156,97.57289207150461 99.1594909352716,97.79732646944467 99.56773819518276,98.75117054939619 99.73584000824485,99.39641607692465 99.95197091053706,100.6027404757915 99.95197091053706,101.19187366022379 99.855912731844,102.17375940323109 99.75985455291811,102.67872780346079 99.66379637410864,102.87510414479766 99.1594909352716,103.49228598875925 98.34299641533289,104.33389528773841 97.38241462712176,105.03523433755618 96.15767284703907,105.62435771123273 95.26913469296414,105.90489219271694 94.74081470945384,106.15737297345186 94.04439291299786,106.35374674829654 92.6515493200859,106.63428046109038 91.85906934482045,106.85870721843094 91.69096753187478,106.94286720364471 91.57089480839204,107.0831337866257 91.40279299532995,107.56003961563692 91.40279299532995,107.89667850991827 91.5228657189291,108.37358288138057 91.71498207654804,108.82243327394826 92.00315661297645,109.38349520036718 92.38738932833076,110.73003899867763 92.62753477541264,111.29109690437326 92.98775294597726,112.44126191386022 93.15585475892294,112.7778946350445 93.29994202707894,112.9181581432058 93.42001475056168,112.97426352577168 93.75621837645303,112.97426352577168 93.99636382365134,112.94621083603124 94.86088743293658,112.60957832768327 95.36519287189003,112.60957832768327 95.6053383188555,112.63763105295948 95.7494255870115,112.80594734262559 95.89351285528392,113.14257960260147 96.27774557063822,114.65741950453958 96.39781829412095,115.27457403030712 96.80606555414852,116.36861717305146 97.02219645644072,117.60291685923585 97.5024873506045,119.48240766211529 97.59854552941397,120.1556548710505 97.55051644006744,120.35201831947779 97.45445826114155,120.4642259394459 96.18168739182875,121.05331516769365 95.4612510506995,121.24967795412522 94.74081470945384,121.64240309243905 94.04439291299786,121.83876544429222 93.44402929535136,122.09123111254303 93.29994202707894,122.25954142500996 93.15585475892294,122.84862668061396 93.13184021413326,123.01693651420646 93.29994202707894,123.80238099751296 93.6361456529703,124.7280804492184 94.06840745778754,125.73793072559056 94.66877107531764,127.56126180061256 94.86088743293658,127.98202873679111 95.43723650602624,129.58093702991027 95.65336740831845,130.02975166690885 95.86949831061065,130.73102302252664 96.01358557876665,131.01153104758123 96.22971648117527,131.23593725488172 96.42183283891063,131.32008953380864 96.54190556250978,131.32008953380864 98.31898187054321,130.87127707208856 99.61576728476211,130.36636214811006 99.6878109187819,130.28220956772566 99.83189818705432,129.74924260744592 100.0,129.72119168526842 100.04802908934653,129.66508983197855 100.02401454478968,129.4406823006575 99.39963638235349,127.14049419929506 99.11146184592508,125.90623873259756 99.06343275657855,125.5415712496324 98.7992727648234,124.70002899799147 98.41504004935268,123.15719462762354 98.27095278108027,122.7083684047102 98.07883642346133,121.6704548659036 98.102850968251,121.50214418099495 98.15088005759753,121.41798879863927 98.27095278108027,121.50214418099495 98.34299641533289,121.61435131609323 98.60715640697163,122.25954142500996 98.89533094351646,123.18524624145357 99.08744730125181,124.13899935234804 99.44766547170002,125.1488518632541 99.56773819518276,125.7659820674453 99.92795636586379,126.94413575783256 100.0,127.56126180061256 100.36021817056462,128.7674585719069 100.4562763493741,128.90771365581895 100.5283199835103,128.93576466370723 100.96058178821113,128.87966264496208 102.16130902350415,128.57110133036622 102.71364355180413,128.37474394397577 103.3140071692178,128.23448857938638 104.5387489493005,127.78567091599689 105.69144709524699,127.30880131962476 106.38786889170296,127.11244300220278 107.06027614348568,126.77582840697141 108.06888702104334,126.46726465408574 108.57319245999679,126.35505956434645 109.50975970341824,125.93429005672806 110.66245784924831,125.56962261217996 111.57501054811291,125.3171602426446 111.98325780814048,125.1488518632541 112.31946143403184,125.09274904645281 112.39150506816804,125.1769032671873 112.29544688935857,125.26105746132089 111.98325780814048,125.40131439242396 108.83735245175194,126.43921338609653 106.62801433866844,127.33685249599512 102.47349810472224,128.7113565177424 102.32941083644982,128.79550959460903 102.28138174698688,128.90771365581895 102.25736720231362,129.07601965896902 102.30539629177656,129.24432555571548 102.49751264951192,129.74924260744592 102.88174536463339,131.06763261719607 102.9537889987696,131.23593725488172 103.24196353531443,131.5725462110713 104.05845805525314,134.1251502793457 104.61079258355312,135.5837701880373 104.77889439638238,136.17282596291625 105.06706893292721,136.78993061510846 105.7634907293832,139.09003535471857 106.00363617634866,139.6790833726991 106.21976707875729,140.38032931415364 106.31582525768317,140.82912574737566 106.2918107128935,140.9693744777178 106.14772344462108,141.0815734086791 106.17173798941076,141.16572257597 106.31582525768317,141.44621960807126 106.6520288833417,141.75476600209367 106.96421796467621,142.45600647712126 107.46852340351325,143.99872902149218 107.51655249285977,144.41946998247295 107.78071248461492,145.0085062108701 107.80472702928819,145.20485133075272 107.70866885059513,145.34509775633342 107.73268339515198,145.45729484368348 107.92479975288734,145.9341319372761 108.23698883410543,146.2426731309679 108.42910519172437,146.55121396726463" stroke="#4dd2ff" stroke-linecap="round" stroke-linejoin="round" stroke-width="0.5"><title>2023-08-04 9.2km</title><desc>9582211082</desc></polyline><polyline fill="none" points="162.31744830100797,146.8611910303298 161.64400178589858,145.84325724595692 160.77248276700266,143.2984124647046 160.65363926440477,142.55809121459606 160.85171176865697,142.00284945816384 160.77248276700266,141.49387723157997 160.5347957618069,141.12371524173068 160.13865075306967,140.9386341298814 159.98019274952821,140.75355294012115 158.6332997197751,137.79224329683348 158.2371547112707,136.3578517610731 157.95985320513137,134.3682041343127 157.8013952015899,134.09057816746645 157.44486469379626,133.72040993874543 157.2864066902548,133.39651248281007 156.61296017537825,131.45312273103627 156.0583571633324,129.64853883368778 155.7414411562495,129.1395522915409 155.58298315294087,128.49175038465182 154.94915113877505,127.01105672397534 153.72110161185265,123.3555728760839 153.364571104059,122.61521801212803 153.04765509720892,121.5046833762899 152.69112458918244,120.67178055646946 152.17613607784733,118.31188065634342 152.17613607784733,117.57151729028556 151.81960557005368,115.39669268473517 151.42346056131646,114.23986669827718 151.46307506226003,113.96222800808027 151.58191856485792,113.82340859723627 155.34529614751227,112.48148536300869 156.29604416852817,112.2501188737806 159.10867373039946,111.13955802848795 160.415952259209,110.76937045605155 162.87205131328665,109.75135302278795 166.27889838814735,108.59451216610614 166.59581439523026,108.40941734620719 167.11080290633254,107.76158486228087 167.19003190821968,107.39139444261673 166.99195940373465,106.41964310576441 166.5561998942867,105.03142318030586 165.96198238106444,103.87456989040948 165.80352437775582,102.81026217213366 165.0904633619357,100.91301158140413 164.81316185602918,99.80242206642288 163.9416428366676,98.27535689721117 163.5058833269868,96.97966107437969 163.2285818210803,96.47063666937174 162.99089481588453,95.45258608928998 162.9116658139974,95.36003591952613 162.87205131328665,95.40631100689643 162.87205131328665,95.82278657323332 163.14935281942599,96.51691163974465 163.9416428366676,98.69182974271826 164.41701684705913,99.8949712998292 165.0904633619357,101.32948192540789 166.3977418905124,104.56868223010679 167.0711884056218,107.02120371052297 167.0711884056218,107.25257295460324 166.9523449030239,107.6227634914394 166.79388689948246,107.76158486228087 166.3185128888581,108.0392274725018 164.93200535862707,108.5019647658919 161.60438728518784,109.79762659367407 158.3559982138686,110.76937045605155 157.12794868671335,111.37092510293587 155.42452514916658,111.87993223741069 154.19647562224418,112.43521207483718 153.32495660311542,112.66657846668386 152.3345940813888,113.12931088462938 151.3838460603729,113.40695010128547 150.59155604289845,113.73086229889304 149.75965152471326,114.05477425776189 148.2939149925951,114.42495906091062 147.42239597346634,114.74887050778489 147.26393796969205,114.74887050778489 147.06586546543986,114.51750521294889 146.03588844276965,111.97247892568703 145.44167092978023,109.65880586646381 144.4513084080536,106.37336917890934 143.81747639388777,103.78202149551362 143.34210238349624,102.34751888134633 143.22325888089836,101.65340303102857 143.10441537830047,101.60712860195781 143.10441537830047,101.74595187447267 143.38171688420698,102.94908506423235 144.25323590356857,105.40161558950786 144.4116939068772,105.95690361814923 144.5305374097079,106.97492984714336 146.11511744442396,112.52775864629075 146.55087695410475,115.07278171580401 146.74894945835695,115.90569515348761 146.7093349576462,115.99824099353282 146.11511744442396,116.0445139061485 146.31318994867615,115.99824099353282 146.35280444961973,115.76687635687995 146.03588844276965,114.84141659154557 145.20398392435163,111.78738552948926 145.08514042175375,110.8619173783809 144.84745341655798,110.02899437505403 144.68899541324936,109.19606979194214 144.13439240097068,107.71531107698684 143.85709089483134,106.60473876420292 143.38171688420698,105.21651942405151 143.0648008773569,103.87456989040948 142.94595737475902,102.9953593519167 142.90634287404828,102.11614705325337 142.9855718757026,102.06987267293152 143.10441537830047,102.16242142856936 143.6986328912899,102.94908506423235 144.05516339931637,103.73574729083339 144.84745341655798,105.95690361814923 145.83781593828462,109.65880586646381 146.6301059559919,113.08303766473546 147.06586546543986,114.61005134542938 147.3431669715792,114.74887050778489 148.8881325055845,114.47123213938903 150.90847204998136,113.68458914244547 151.66114756651223,113.26813051488716 152.65151008823887,112.89794473652728 153.87955961516127,112.71285173032084 155.70182665530592,112.01875226257835 156.53373117372394,111.55601867454243 157.52409369545057,111.27837828782503 158.79175772354938,110.67682351419353 161.16862777573988,109.9827208284405 161.92130329227075,109.65880586646381 165.0904633619357,108.59451216610614 166.47697089263238,107.90040618935018 166.67504339688458,107.6227634914394 166.67504339688458,107.25257295460324 165.68468087515794,103.82829569544992 165.24892136547714,103.04163363474072 165.01123436028138,102.39379323244793 163.26819632179104,98.36790645259316 162.95128031494096,96.84083629515953 162.95128031494096,95.49886116676498 163.03050931659527,95.2674857302336 163.2285818210803,95.08238529326627 164.0208718383219,94.61963385922718 167.50694791506976,93.37020255168318 168.734997442225,93.04627533597522 169.3292149552144,93.0 170.0422759708017,93.32392724975944 170.5968789830804,93.74040479128598 172.10223001614213,95.91533664558665 173.36989404424094,98.04398292355472 173.76603905274533,99.24712625559187 174.47910006856546,100.72791352393688 175.0733175817877,101.74595187447267 175.82599309808575,103.45810195998638 176.34098160942085,104.19848911874578 177.0144281242974,105.4941636431031 177.09365712595172,105.81808167687268 177.0144281242974,105.95690361814923 176.73712661815807,106.09572551568272 175.94483660068363,106.23454736926942 174.20179856242612,106.65101266661077 172.93413453456014,106.83610822763876 170.51764998142608,107.57648969144793 169.13114245072939,107.80785864286008 168.49731043702923,108.0392274725018 167.1504174072761,108.31686990702292 166.635428895941,108.59451216610614 165.36776486807503,108.96470157173462 162.04014679486863,110.21408851223532 160.2971087563783,110.67682351419353 159.22751723299734,111.13955802848795 155.7414411562495,112.48148536300869 154.3945481267292,112.80539824318839 153.91917411610484,113.0367644399521 153.28534210240468,113.49949646781897 151.58191856485792,113.91595487605082 150.19541103416122,114.47123213938903 149.95772402896546,114.7951435521245 149.95772402896546,114.98023568073404 150.11618203273974,115.3041467180592 150.7500140464399,115.90569515348761 150.9480865506921,116.27587839664193 151.10654455423355,117.4789717819076 151.30461705871858,118.17306262030615 151.7799910691101,118.95969757781131 151.898834571708,119.51496846438386 152.17613607784733,120.25532855433994 152.80996809178032,122.33758461632533 153.76071611279622,124.88255084166303 154.43416262743995,127.14987196671427 154.83030763617717,128.0290341518994 155.58298315294087,130.71278151628212 155.89989915979095,131.45312273103627 156.33565866947174,132.88753028362407 156.7714181789197,133.85922306103748 156.81103267963044,134.3682041343127 156.6921891772654,134.78464275537408 156.7714181789197,135.3398936361773 156.92987618246116,135.6175188133493 157.56370819639415,136.12649784897803 157.8013952015899,136.63547629481764 158.91060122614726,140.105768161593 159.34636073559523,141.21625576843508 159.3859752365388,141.54014745834866 159.34636073559523,141.67895810955088 159.18790273205377,141.8177687167772 159.30674623488449,142.3730107070587 159.4652042381931,142.6506314391154 159.94057824858464,142.92825199564686 160.21787975472398,143.3909525332274 160.69325376511551,144.82532110266038 161.2478567773942,147.0" stroke="#4dd2ff" stroke-linecap="round" stroke-linejoin="round" stroke-width="0.5"><title>2023-08-02 7.3km</title><desc>9569357200</desc></polyline><polyline fill="none" points="51.66995776304975,207.0 51.50645572785288,206.57031717244536 50.934198604431,205.5677223240782 50.484568007756025,204.4696397073567 49.99406190216541,202.75089635772747 49.99406190216541,202.4166955051187 50.198439446045086,201.93926528826705 50.15756393736228,201.4618345684139 49.871435375884175,201.03214649055735 49.5035557965748,200.88891704083653 49.258302743779495,200.65020119061228 48.89042316447012,199.79082308872603 48.23641502391547,197.8810881395184 47.66415790049359,196.59201249977923 47.37802933878265,194.96872684921254 47.37802933878265,194.5390326155466 47.255402812501416,194.0615941004362 46.805772215593606,193.48866721824743 46.5605191627983,193.01122759652208 45.94738653069362,191.43567327648634 45.33425389858894,189.5259031211317 44.966374319279566,188.80973723818897 44.72112126671709,187.47289122873917 43.16785193234682,183.22360451036366 42.2277152298484,180.40663966847933 41.81896014185622,179.49947777180932 41.246703018667176,177.6374029261642 41.246703018667176,177.016709610587 41.16495200083591,176.44376118012588 41.083200983470306,175.0591328162409 40.919698948273435,174.29519811467617 40.633570386562496,173.4835160834482 40.7561969126109,173.2447857975494 41.12407649192028,173.0538014782651 42.2277152298484,172.67183259813464 43.535731511423364,172.00338628343889 45.29337838990614,171.28719270930742 51.54733123653568,168.89987262009527 55.3896290641278,167.56296787661267 55.96188618731685,167.3242344718019 56.28889025747776,167.08550094094244 56.41151678422466,166.79902053819387 56.5341433105059,166.03507191158133 56.370641275309026,165.0323873848538 55.1852515200153,161.69008960499195 54.204239308601245,159.11172875901684 53.95898625603877,158.20452423134702 53.01884955330752,156.2946140257991 52.4465924303513,154.43244382424746 52.201339377555996,153.3342372973275 51.99696183344349,153.1432445862447 51.75170878064819,153.0 51.30207818374038,153.0 50.6889455516357,153.2864891271165 49.13567621749826,153.85946683801012 47.9094109532889,154.1459554216417 47.01014975970611,154.48019187379396 45.538631442934275,154.81442807929125 44.43499270500615,155.33965590407024 42.35034175612964,156.1036225624266 40.83794793044217,156.53335324162617 39.40730512235314,157.05857907410245 36.300766453612596,158.01353357319022 33.84823592542671,158.87299090161105 33.030725749442354,159.06398119754158 31.76358497655019,159.25497141308733 28.37091774586588,160.4486584365368 26.3680178145878,161.35585847112816 24.405993391992524,161.8810787135153 23.751985251205042,162.16756222568802 23.629358724923804,162.45404555668938 23.465856689726934,163.26574734403403 23.792860759887844,164.36392980106757 24.65124644502066,166.2260591890954 25.42788111208938,168.3269139273907 25.959262726595625,169.99804142327048 26.3680178145878,171.04846126626944 27.55340756988153,174.67716562649002 28.20741571066901,176.49150691044633 28.82054834277369,177.44642045805813 29.229303430765867,177.6374029261642 29.842436062870547,177.54191170219565 31.10957683576271,177.016709610587 34.21611550473608,175.96630360156996 34.66574610141106,175.72757462362642 35.19712771568447,175.29786214636988 35.23800322460011,175.1546245632926 35.1562522072345,174.62941970507381 34.46136855753139,172.3376095640706 33.6029828726314,168.61339336432866 33.3986053285189,168.08818092491128 32.17234006430954,163.4089886850852 31.76358497655019,161.54684772054316 31.76358497655019,161.21261648109066 31.845335993915796,161.06937444585492 32.17234006430954,161.26036381616723 32.45846862625331,161.69008960499195 32.94897473161109,162.97926452633692 33.43948083743453,163.93420654788497 34.09348897822201,166.89451402591658 34.33874203101732,167.51522120571462 34.910999154206365,169.80705573549494 35.1562522072345,170.5232516490505 35.44238076847978,171.62141651811544 35.76938483887352,172.76732484836248 35.89201136538759,173.34027792690904 36.01463789190166,173.5790081625746 36.137264418182895,173.62675419452717 37.363529682392254,173.4835160834482 38.916799016762525,172.8150709659385 41.57370708906092,172.00338628343889 42.636470317840576,171.71690898950328 43.12697642343119,171.52592402644223 44.51674372283742,171.00071496260352 45.94738653069362,170.66649069602136 47.21452730358578,170.0457878325251 51.22032716637477,168.5179002387158 54.73562092310749,167.3719811627816 55.51225559040904,167.13324765724246 55.757508643204346,167.1809943683911 55.757508643204346,167.3242344718019 55.594006608007476,167.46747452981072 54.12248829123564,168.2314207413292 53.30497811525129,168.4701536684588 51.710833271732554,169.18635169477784 49.13567621749826,169.99804142327048 45.66125796921551,171.43043151454185 43.00434989691712,172.3376095640706 41.94158666813746,172.62408646557014 39.97956224554218,173.34027792690904 39.16205206955783,173.67450022153207 38.95767452567816,173.81773827242432 38.916799016762525,173.9609762778564 38.95767452567816,174.2474521532131 39.40730512235314,175.10687869231333 39.693433684064075,176.2527782091638 40.22481529833749,177.58965731671196 40.7561969126109,178.30584093055222 40.8788234393578,178.59231405920582 42.18683972093277,182.3164482524444 42.96347438823432,184.9424219141074 44.02623761724681,187.7593585626455 44.80287228431553,190.19432359101484 45.66125796921551,192.62927553715417 45.90651102201082,193.67964292599936 45.94738653069362,194.5390326155466 46.029137548292056,194.9209830655309 46.23351509240456,195.35067693714518 46.642270180396736,195.78037040118943 47.62328239181079,198.21529233650654 47.991161971120164,199.4566200534755 48.60429460299201,201.22311901993817 48.60429460299201,201.4140914688178 48.35904155019671,201.74829306072206 48.318166041281074,201.89152223887504 48.60429460299201,202.46443849912612 49.380929270293564,203.3238115318236 50.15756393736228,204.94706725885044" stroke="#4dd2ff" stroke-linecap="round" stroke-linejoin="round" stroke-width="0.5"><title>2023-07-31 6.0km</title><desc>9555944449</desc></polyline><polyline fill="none" points="108.32588300434873,205.31099139896105 107.62475601444021,204.0826178198913 106.35396334552206,200.75575711560668 106.26632247166708,200.39747845043894 106.31014290871099,200.03919952103752 106.70452684024349,199.68092032737331 106.70452684024349,199.4761892411043 106.26632247166708,198.75962975935545 105.82811810309067,198.60608116161893 104.51350499736145,195.53509901513462 103.85619844426401,193.6413170163578 103.33035320183262,191.3892423286161 102.58540577511303,190.05846601564554 101.27079266915098,186.21966776787303 100.92022917419672,185.55427298735594 100.52584524266422,183.86518983653514 100.17528174747713,182.68794659202104 99.47415475780144,180.6405602422601 99.0359503889922,179.66804870363558 98.3786438361276,177.7230197863828 97.633696409408,175.82916835843935 97.50223509897478,175.06138864948298 97.15167160378769,174.1400513970002 96.88874898268841,172.34855729318224 96.18762199301273,171.01772882521618 96.09998111939058,169.68689671179163 96.27526286663488,169.22622320777737 96.53818548773415,168.97029329455108 99.0359503889922,167.997758394602 99.95617956342176,167.48589713900583 101.31461310596205,166.97403534402838 102.05956053268164,166.61573176670936 103.19889189116657,166.25742792512756 103.94383931788616,165.8479374969029 106.222502034856,164.9265827711497 107.1427312088199,164.6706505928305 109.28993261535652,163.9028532487864 112.83938800147735,162.82793492850033 113.10231062257662,162.67437497436185 113.1461310593877,162.57200164458482 112.83938800147735,162.52081497159088 111.7876975168474,162.82793492850033 110.29780266317539,163.33980109202093 109.28993261535652,163.80048017800436 108.23824213049375,164.0564128146798 105.43373417132534,165.02895560473553 104.20676193921827,165.23370120720938 103.76855757040903,165.02895560473553 103.50563494930975,164.77302348031662 103.02361014368944,163.74929363434785 102.01574009587057,160.57571740209823 101.31461310596205,159.04010855662636 99.95617956342176,155.25225264957407 99.73707737913355,154.48444041932817 99.21123213670217,153.40950125842937 99.12359126284719,153.0 99.29887301032431,153.30712597622187 99.64943650527857,154.17731518758228 99.95617956342176,155.35462752179592 100.48202480585314,156.3271877327934 101.31461310596205,158.1699280559551 101.92809922224842,160.37096983654192 102.80450795940123,162.62318831225275 103.19889189116657,164.26115882696467 103.1550714543555,165.18251481471816 102.84832839644514,165.5408194491465 102.23484228015877,165.8479374969029 97.633696409408,167.84420007455628 93.90895927604288,169.07266527594766 92.33142354898155,169.4821529861365 91.63029655907303,169.533338925743 91.4550148115959,169.4821529861365 91.27973306411877,169.1750372359529 91.06063087983057,168.30487488914514 90.40332432696596,166.61573176670936 89.52691558958031,164.00522629817715 89.26399296848103,162.77674828257295 88.29994335724041,159.96147444634698 87.77409811504185,157.24855876801303 87.55499593052082,156.6343116054777 87.37971418327652,156.53193700269912 87.2482528728433,156.53193700269912 86.98533025151119,156.8390607459005 86.98533025151119,157.35093321977183 87.81791855185293,159.29604370114976 88.51904554152861,161.3435200045933 90.40332432696596,167.84420007455628 90.92916956916451,170.24994151241845 90.84152869554237,170.4546849144681 90.05276083177887,171.22247190377675 90.49096520082094,170.96654304218828 90.49096520082094,170.4546849144681 90.31568345311098,169.78926854216843 89.8336586477235,168.40724701079307 89.35163384210318,166.61573176670936 88.38758423109539,162.26488152582897 87.6426368043758,160.11503525820444 86.98533025151119,157.55568205821328 86.85386894084513,156.6343116054777 86.98533025151119,156.3271877327934 87.2482528728433,156.27600040173274 87.55499593052082,156.42956237844191 87.68645724118687,156.58312430678052 88.12466160999611,158.1699280559551 88.51904554152861,158.7841732769739 88.6505068524275,159.34723071398912 89.00107034738176,160.16622218463453 89.22017253166996,161.13877276267158 89.74601777410135,162.52081497159088 89.92129952134565,163.80048017800436 90.49096520082094,165.74556483590277 90.66624694806524,166.76929047514568 91.19209219049662,168.81673528192914 91.36737393797375,169.12385125862784 91.58647612226196,169.2774091742467 92.50670529645868,169.12385125862784 93.8651388392318,168.71436324639944 96.27526286663488,168.15131666621892 97.23931247764267,167.74182783422293 98.816848204704,167.2811524857534 99.91235912637785,166.8204767004645 102.1910218433477,166.00149644777412 103.54945538635366,165.28488759428728 104.51350499736145,165.13132841675542 106.48542465618812,164.26115882696467 108.19442169368267,163.595733971335 111.08657052693889,162.77674828257295 112.48882450652309,162.26488152582897 112.70792669081129,162.21369482041337 112.88320843828842,162.31606822583126 112.83938800147735,162.57200164458482 112.57646538014524,162.77674828257295 110.42926397384144,163.69810708553996 107.71239688829519,164.61946414085105 104.6011458709836,165.89912381928298 101.84045834862627,166.8204767004645 97.98425990459509,168.35606095258845 96.53818548773415,168.7655492668855 96.31908330344595,169.02147928791237 96.18762199301273,169.43096704120398 96.18762199301273,169.99401213854435 96.4067241770681,170.76179985582712 96.84492854587734,171.73432922258507 97.28313291445374,172.5532998108538 97.4145942251198,173.11634128948208 97.32695335149765,173.6793821156025 96.75728767225519,174.1400513970002 96.66964679863304,174.39597858686466 96.71346723544411,174.65190564194927 97.94043946755119,178.3884252922726 99.21123213670217,181.76662380227936 100.48202480585314,185.55427298735594 100.87640873738565,186.5267727439641 102.01574009587057,190.00728223851183 102.27866271720268,191.03095675678924 102.1472014063038,191.6963440370746 102.23484228015877,192.1058126796852 102.41012402786873,192.46409745892743 102.89214883325621,192.92474892974133 104.33822324988432,197.2241415976605 104.95170936593786,198.65726403298322 104.99552980274893,199.01554398136795 104.64496630779468,199.32264086959185 104.7764276182279,199.78328583817347 104.95170936593786,200.14156495625502 105.38991373451427,200.44866113300668 105.69665679242462,200.9093050340598 106.35396334552206,202.59832893527346 106.79216771409847,203.92907090409426 107.2303720829077,205.05508049274795 107.2303720829077,205.7716306906077 108.01913994643837,207.0" stroke="#4dd2ff" stroke-linecap="round" stroke-linejoin="round" stroke-width="0.5"><title>2023-07-29 5.9km</title><desc>9543628546</desc></polyline><polyline fill="none" points="172.29285213374533,205.98017230583355 171.87926084687933,204.85299195360858 171.87926084687933,204.316238528525 172.1090337841306,203.6184582307469 172.06307919695973,203.35008093871875 171.69544249749742,202.65229931799695 171.0980328610167,202.3302459398401 170.82230533659458,202.00819235824747 170.6844415741507,201.68613857321907 170.50062322453596,201.04203039221466 170.3627594623249,199.75381158769596 170.08703193766996,198.46558952663327 169.30580395180732,196.69427887472557 168.57053055311553,194.2251689041732 168.06503009144217,193.58105129183969 167.78930256702006,193.04428599309176 167.19189293053932,191.32663323695306 166.13493742002174,188.69646623241715 165.9051644827705,187.4082162154955 165.12393649690785,184.34860937099438 164.9401181472931,182.899315505696 164.48057227302343,181.77208409371087 163.33170758769847,179.62496974301757 162.78025253862143,178.01462804194307 162.64238877641037,177.1020988188102 162.2287974897772,175.9211762212799 162.04497913992964,175.16967859782744 161.44756950368173,173.7203586222604 161.35566032887436,173.23725104756886 161.4935240908526,172.16367701924173 161.35566032887436,171.1437795968377 161.40161491627805,170.9827429751167 161.5394786784891,170.87538519885857 162.8721617134288,170.60699065966764 167.7433479798492,168.72822492587147 169.76534982584417,168.19143344374606 171.60353332245722,167.38624516013078 173.90126269310713,166.15162065328332 174.86630902905017,165.88322362559848 176.01517371460795,165.72218534105923 176.79640170070343,165.34642914583674 177.85335721098818,165.13171119539766 178.40481226006523,164.9169931547367 178.5886306099128,164.70227502333 178.54267602227628,164.64859547646483 178.3129030854907,164.5949159237789 176.75044711329974,164.9169931547367 172.29285213374533,166.52737625467125 170.3627594623249,167.0104901921004 169.44366771401837,167.439924418577 168.57053055311553,167.6546413959004 167.19189293053932,168.29879178549163 166.2268465948291,168.51350840099622 164.71034521004185,169.1039786268957 163.60743511212058,169.4260530071915 162.32070666458458,170.07020115706837 160.5284777553752,170.4996328043635 157.17379287374206,171.51953151630005 156.48447406245396,171.6805679682875 156.1168373634573,171.6268891565851 155.93301901360974,171.51953151630005 155.0598818527069,168.5671875406406 154.41651762882248,167.22520735056605 153.7271988177672,165.18539069150575 153.40551670570858,163.68236266396707 152.80810706922784,161.6425318196998 152.3026066077873,159.60269280779175 151.6132877964992,157.45548502419842 151.70519697130658,156.54291897558141 151.79710614611395,157.29444407549454 151.88901532092132,159.06589171028463 152.90001624426804,164.27283848938532 153.26765294349752,165.56114700547187 154.14079010440037,168.24511261750013 154.41651762882248,169.53341108874884 154.64629056607373,171.03642185463104 154.78415432828479,172.86150039493805 154.462472216459,174.04243008425692 153.77315340493806,174.52553689549677 150.234650173923,175.65278434025822 148.9938763140235,175.97485458065057 148.35051208990626,176.08221128222067 148.07478456571698,175.9211762212799 147.75310245365836,175.65278434025822 146.74210153054446,173.93507295288146 145.27155473316088,170.23123806720832 144.30650839745067,168.406150104478 143.1116891244892,165.13171119539766 142.60618866304867,164.21915889711818 142.42237031343393,163.4676440123585 142.1006882013753,162.55508873338113 141.73305150214583,161.10573287162697 141.4113693900872,160.13949333963683 141.5032785651274,159.71005295944633 141.6870969145093,159.49533263361081 142.1925973764155,159.1732519750949 143.70909876096994,158.9585314230062 144.21459922241047,158.7438107804046 144.85796344652772,158.26068900362588 145.22560014552437,158.1533285465557 146.05278271925636,158.1533285465557 147.8450116282329,158.42172964673955 150.09678641171195,157.99228781845886 150.96992357284762,157.50916532916017 152.80810706922784,156.00611465406837 153.81910799257457,155.41562924697064 157.26570204878226,154.18097572948318 160.43656858056784,153.53680748917395 161.95306996512227,153.05368077429011 162.41261583915912,153.0 162.78025253862143,153.26840381522197 163.5155259373132,154.4493789227563 164.9860727346968,156.4892385689309 165.07798190950416,157.18708341487218 165.81325530796312,159.1732519750949 166.1808920071926,160.83733318536542 166.87021081871353,162.93084698735038 167.3297566929832,164.004440471821 167.9271663292311,165.13171119539766 168.47862137830816,166.52737625467125 168.66243972769007,166.79577294323826 168.89221266517416,166.95681088842684 169.30580395180732,167.0104901921004 170.17894111271016,166.90313157893252 172.20094295893796,166.3663381737424 173.3957622316666,165.88322362559848 174.86630902905017,165.6148264564108 175.87730995216407,165.34642914583674 177.2099929873366,164.75595456466544 178.22099391021766,164.54123636556324 178.5886306099128,164.64859547646483 178.49672143510543,164.86331363028148 178.03717556083575,165.07803169370163 175.87730995216407,165.66850590147078 173.57958058151416,166.42001753981458 172.52262507076375,166.58105560357217 170.6844415741507,167.439924418577 168.11098467907868,168.29879178549163 165.72134613338858,168.94294136058306 163.837208049139,169.85548519762233 162.41261583915912,170.2849170260597 161.07993280421942,170.60699065966764 159.60938600706868,171.3584950133809 159.37961306981742,171.6268891565851 159.28770389501005,171.8952831585775 159.33365848264657,172.27103452384472 159.47152224485762,172.5931069018552 160.20679564331658,173.34460832591867 160.57443234254606,174.04243008425692 160.75825069239363,175.4380707333912 161.35566032887436,176.7263510164339 162.2287974897772,179.3029018099769 162.68834336381406,180.48381656903075 163.2397984128911,182.09415046597132 163.6533896997571,183.81183434609557 164.2967539234087,185.3684803606011 165.16989108431153,188.0523416310316 166.2728011822328,191.64869356970303 166.73234705626965,192.88325629307656 167.14593834313564,194.60090380196925 167.0540291685611,195.0303147743689 167.14593834313564,195.4597253850079 167.3757112803869,196.15751685533905 167.83525715442374,196.37222173099872 167.9731209166348,196.5332503282698 168.11098467907868,197.07001195190242 169.90321358805522,201.7398142181337 170.0410773504991,202.43759708851576 169.76534982584417,203.13537900341908 169.99512276309542,203.94051079457859 170.13298652530648,204.15521239081863 170.82230533659458,204.7993166364613 171.05207827338018,205.22871901473263 171.69544249749742,207.0" stroke="#4dd2ff" stroke-linecap="round" stroke-linejoin="round" stroke-width="0.5"><title>2023-07-26 6.1km</title><desc>9525965649</desc></polyline><polyline fill="none" points="50.95155015098862,263.8022177545063 50.40397264342755,262.38604951347224 49.973733173217624,260.9698766483634 49.621719061164185,259.46233271082747 49.15236691199243,257.81773334823083 49.07414155360311,257.22384871260147 48.1745499339886,255.57924086178537 47.31407099380158,252.9295817624661 47.23584563564509,252.56411027151626 47.27495831460692,252.10727047472028 47.35318367276341,251.83316636574455 47.31407099380158,251.51337801956106 47.04028223990463,251.0108529989957 46.37536669499241,250.64537989118253 46.29714133683592,250.4626432217192 45.827789187431335,248.6352722926531 44.81085953046568,246.21399395170738 44.73263417230919,245.20893104744027 44.81085953046568,244.79776827889145 44.77174685150385,244.56934435013682 44.4979580976069,244.06681128338096 43.911267911083996,243.51859272818547 43.637479157419875,242.9703734802315 42.89433825411834,240.91454512730706 42.033859313698485,238.0820545440365 41.01692965673283,235.56934579912922 40.03911267919466,232.371331794071 39.68709856714122,231.64035385282477 39.569760529790074,231.09211958837113 39.256859096931294,230.1783942739421 38.943957664072514,228.8991755991883 38.74839426856488,227.8940725644934 38.591943552019075,227.30014694898273 38.43549283547327,226.34072692861082 38.08347872341983,225.28993113711476 38.00525336526334,224.60462816231302 38.08347872341983,224.2848197367275 38.239929439965636,224.1477589107235 39.882661962648854,223.50814114967943 40.70402822387405,222.9598966035992 41.60361984348856,222.64008696496603 42.698774858610705,222.00046698006918 45.28021167987026,221.31515880624647 46.453592053148896,220.76691148753162 48.370113329496235,220.3100381924305 48.722127441549674,220.127288739488 49.19147959095426,219.80747701175278 50.20840924791992,219.5333524857706 51.34267694200389,218.98510291421553 52.828958748141304,218.57391528051812 53.141860181232914,218.34547753783409 53.063634822843596,218.2541024069069 52.750733389984816,218.299789974757 51.96847980772145,218.52822774159722 47.118507598061115,220.40141288982704 45.90601454582065,220.76691148753162 41.99474663450383,222.22890279715648 40.977816977771,222.45733849413227 38.70928158937022,223.50814114967943 37.653239253442734,223.7365761725523 36.714534954633564,224.10207195905969 35.26736582769081,224.4675674374157 33.859309379709885,224.78737572825048 33.46818258846179,224.78737572825048 33.31173187214881,224.65031506094965 32.881492401706055,222.64008696496603 32.568590968847275,221.7720310424629 31.356097916606814,217.06622395434533 31.043196483748034,216.2895324374258 30.652069692499936,214.27926558000036 30.300055580446497,213.63963326183148 30.18271754332818,213.59394520302885 29.8698161104694,213.63963326183148 29.674252714728937,213.73100936505944 29.674252714728937,213.86807348375442 29.8698161104694,214.91889695468126 30.691182371694595,217.56878831237555 30.964971125358716,218.71097786835162 31.629886670503765,221.04103523358935 32.255689536221325,223.55382816394558 32.68592900619842,226.2493534825917 32.529478289885446,226.52347376284888 32.37302757357247,226.5691604592721 30.88674576720223,227.16308707604185 27.914182154927403,227.98544566394412 27.01459053531289,228.442310872284 26.858139818767086,228.71642976618023 26.897252497961745,228.76211623166455 27.249266610015184,228.5336838560761 30.18271754332818,227.5285799744015 32.255689536221325,226.7062205199618 32.529478289885446,226.52347376284888 32.68592900619842,226.15798001730582 32.68592900619842,225.5183652214182 32.216576856793836,223.6908891776693 32.13835149887018,222.9142095267598 30.84763308800757,218.1170396747766 30.730295050656423,217.2946623711032 29.94804146862589,214.05082557472633 29.752478072885424,213.1370643498085 29.752478072885424,213.0 30.065379505977035,213.04568812137586 30.26094290148467,213.2284405589453 30.57384433434345,214.0051375591429 31.16053452086635,216.60934675997123 31.47343595395796,218.1627272569458 31.708112028660253,218.93941541851382 31.78633738681674,219.6247273469926 32.02101346151903,220.40141288982704 33.27261919295415,224.60462816231302 33.42906990949996,224.83306260764948 33.58552062581293,224.92443635204108 33.93753473786637,224.92443635204108 35.03268975298852,224.60462816231302 36.9100983501412,223.82795014805743 39.10040838038549,223.1883319153858 40.977816977771,222.41165136444033 42.072971992893144,222.09184132132214 43.16812700801529,221.68065663371817 44.224169343942776,221.17809704170213 45.39754971722141,220.94966067082714 47.86164850136265,219.99022659935872 49.42615566565655,219.3962901579216 52.476944636087865,218.57391528051812 52.750733389984816,218.57391528051812 52.828958748141304,218.6196028146951 52.828958748141304,218.71097786835162 52.71162071102299,218.8937279181555 52.28138124058023,219.07647789095063 49.81728245667182,219.80747701175278 48.13543725479394,220.44710023148218 44.4979580976069,221.63496942206984 40.508464828366414,223.09695780507172 39.45242249243893,223.59951517326408 36.949211029335856,224.37619359660312 36.401633522007614,224.65031506094965 36.24518280522898,224.83306260764948 36.28429548442364,225.01581007710774 36.401633522007614,225.28993113711476 36.9100983501412,225.88385950608063 37.066549066687,226.2493534825917 37.49678853689693,227.93975911659072 37.966140686068684,228.8991755991883 38.904844984877855,232.05152909632307 40.0,235.24954545981018 40.743140903068706,237.71657054050593 41.52539448533207,239.7267287480645 42.62054950045422,242.92468851152807 42.85522557515651,243.9754415723146 42.85522557515651,244.61502914546872 43.16812700801529,245.39166993054096 43.55925379926339,245.71146279069944 44.02860594820231,246.6708399564377 45.43666239641607,250.55401156609878 45.554000433767214,251.0108529989957 45.28021167987026,251.37632579889032 45.241099000908434,251.51337801956106 45.31932435906492,251.7874823306338 45.514887754572555,252.19863847258966 46.02335258293897,252.60979422472883 46.179803299484774,252.88389784301398 47.35318367276341,255.99039340909803 47.50963438930921,256.5842797337973 47.62697242666036,257.3608990852663 48.331000650534406,258.6400338090607 49.58260638220236,262.6144640586281 50.873324792832136,266.2690804224403 50.912437472026795,266.5431754082674 50.71687407628633,266.86295267305104 50.75598675548099,267.0 51.02977550937794,267.0 51.38178962119855,266.86295267305104 52.00759248691611,266.45181043221965" stroke="#4dd2ff" stroke-linecap="round" stroke-linejoin="round" stroke-width="0.5"><title>2023-07-23 5.7km</title><desc>9507119362</desc></polyline></svg>