<?xml version="1.0" encoding="utf-8" ?>
<svg baseProfile="full" height="300mm" version="1.1" viewBox="0,0,200,300" width="200mm" xmlns="http://www.w3.org/2000/svg" xmlns:ev="http://www.w3.org/2001/xml-events" xmlns:xlink="http://www.w3.org/1999/xlink"><defs /><rect fill="#222222" height="300" width="200" x="0" y="0" /><text fill="#FFFFFF" style="font-size:12px; font-family:Arial; font-weight:bold;" x="10" y="20">Over 3km Runs</text><text fill="#FFFFFF" style="font-size:4px; font-family:Arial" x="10" y="280">ATHLETE</text><text fill="#FFFFFF" style="font-size:9px; font-family:Arial" x="10" y="290">Melt</text><text fill="#FFFFFF" style="font-size:4px; font-family:Arial" x="120" y="280">STATISTICS</text><text fill="#FFFFFF" style="font-size:3px; font-family:Arial" x="120" y="285">Number: 11</text><text fill="#FFFFFF" style="font-size:3px; font-family:Arial" x="120" y="290">Weekly: 3.7</text><text fill="#FFFFFF" style="font-size:3px; font-family:Arial" x="141" y="285">Total: 37.0 km</text><text fill="#FFFFFF" style="font-size:3px; font-family:Arial" x="141" y="290">Avg: 3.4 km</text><text fill="#FFFFFF" style="font-size:3px; font-family:Arial" x="167" y="285">Min: 3.1 km</text><text fill="#FFFFFF" style="font-size:3px; font-family:Arial" x="167" y="290">Max: 4.1 km</text><polyline fill="none" points="53.86151138180867,82.9238981413946 51.90090156812221,84.06887443264714 50.72453568014316,85.12224995766883 49.62659418443218,85.76343381070183 48.803138062823564,85.99242781460634 48.489440492819995,85.85503142670495 48.214955118717626,85.5344396859291 47.548347782110795,83.88567842848715 47.35228680074215,83.10709455044707 46.80331605300307,81.54992261223379 46.60725507163443,80.54233779825154 46.17592091253027,79.4889511783258 45.548525772290304,77.29057088145055 44.568220865447074,75.2753791785799 43.940825725439936,72.71057623074739 43.901613528840244,72.43577501771506 44.019250117708,71.79457151147653 43.940825725439936,71.42816908334498 43.7055525474716,71.01596598286415 43.15658179949969,70.74116369860712 42.921308622229844,70.42056081426563 41.90179151925258,67.30612049181946 41.43124516378157,66.16110005878727 41.19597198604606,64.55806638649665 40.41172806080431,63.50464104078128 39.82354511669837,62.13060414567008 38.882452406222,59.19931092223851 38.725603620987386,58.42068283766275 38.372693854616955,57.32144081505248 38.09820848074742,55.306156554841436 37.9021474996116,54.52752149797743 37.54923773300834,53.47407184840995 36.84341820003465,51.96259615322924 35.94153768569231,50.49691773348604 35.82390109705739,49.8098792732344 35.31414254545234,48.435799095459515 35.27493034908548,47.70295455813175 34.7259596013464,46.054049832193414 34.05935226473957,44.72576092131203 33.784866890870035,44.49674518179381 32.765349787892774,44.49674518179381 30.68710338533856,44.634154640021734 30.33419361920096,44.58835149210063 30.098920441465452,44.40513885204564 29.275464319856837,41.93176065501757 28.491220394382253,39.36676099416218 28.255947216646746,38.359078415087424 27.4324910948053,35.42762490347377 27.11879352480173,33.87028218465275 27.04036913230084,33.68706502739224 26.922732543433085,33.64126072608633 26.569822777062654,33.87028218465275 26.530610580695793,34.145107775810175 26.80509595456533,35.42762490347377 27.354066702304408,37.443001316220034 28.72649357188493,41.611136525083566 28.922554553253576,42.52720484044403 29.471525300992653,45.87083780989633 29.197039927123114,46.19145879818825 29.3538887121249,46.099852825689595 29.43231310462579,46.00824683383689 29.314676515758038,45.41280741652008 28.295159413013607,41.84015378498589 28.177522824145854,41.107298128918046 27.667764272540808,38.862919996492565 27.11879352480173,37.168177810061025 26.76588375819847,35.29021253497922 26.37376179569401,34.190912024118006 26.295337403193116,33.549652108806185 26.1384886179585,33.274826141336234 26.177700814325362,33.09160873293877 26.37376179569401,33.0 26.687459365697578,33.13741309236502 27.07958132843487,34.00769500187016 28.216735020279884,37.80943238735199 28.491220394382253,39.04613497227547 28.961766749387607,40.55765557594714 29.9812838525977,44.49674518179381 30.255769226467237,44.771564054797636 31.39292291831225,44.90897342626704 32.09874245128594,45.13798894875799 32.843774180393666,45.825034792360384 33.745654694736004,47.336531826120336 34.137776657240465,48.29839083866682 34.60832301247865,48.93962899822509 35.35335474158637,50.542720258876216 36.88263039640151,54.756531953666126 37.11790357390419,55.62677058481495 38.09820848074742,58.51228621409973 38.5687548359856,60.344349689781666 39.666696331696585,63.5504421958758 39.74512072419748,64.00845348113216 39.54905974282883,64.60386743061827 39.58827193896286,64.9702756095503 39.82354511669837,65.33668347969069 40.49015245307237,65.7946928832389 40.647001238306984,66.11529917869484 41.117547593778,67.71832710952731 42.05864030402154,70.23735905982903 42.17627689312212,70.74116369860712 42.25470128539018,71.15336705977097 42.05864030402154,71.5197697194817 42.01942810788751,71.70297093337285 42.0978525003884,72.02357287221821 42.21548908925615,72.25257411241182 42.646823248127475,72.61897584566032 42.88209642586298,72.89377694309223 43.47027936996892,74.22197979869088 44.293735491577536,76.60357475923956 44.293735491577536,77.3821702823916 44.960342828184366,78.38976241913042 46.254345305263996,81.54992261223379 47.03858923073858,83.93147743673762 47.35228680074215,84.66426091254107 47.74440876371227,86.35881797029288 47.548347782110795,86.90840262494748 47.74440876371227,87.0 47.94046974484809,86.95420131488936 49.11683563282713,86.31301921769045 51.155869839014485,84.84745658849715 52.096962549490854,84.38946725381538" stroke="#4dd2ff" stroke-linecap="round" stroke-linejoin="round" stroke-width="0.5"><title>2023-07-22 4.0km</title></polyline><polyline fill="none" points="113.79976276494563,82.89154347134172 112.91070241876878,83.34302413652767 111.48047490534373,84.24598404054996 110.20486658229493,85.28438557870686 108.85194866452366,86.1873413932044 108.54271028283983,86.32278460115776 108.23347190162167,86.32278460115776 108.00154311582446,86.14219364756718 107.8082691275049,85.87130707438337 106.68727999529801,82.75609917909605 106.33938681636937,81.67254329990828 106.10745803033933,80.5438363464491 105.21839768416248,77.9703733791248 105.0637784935534,77.24799503217218 104.83184970752336,76.61591297993436 104.59992092172615,76.20957402558997 103.90413456386887,74.26817148231203 103.40162219409831,73.09429591117078 103.2856578011997,72.59765527871787 103.47893178951927,71.96556636856985 103.40162219409831,71.60437228731462 103.20834820601158,71.24317790163332 102.82180022913963,71.06258059458924 102.66718103853054,70.92713256442221 102.3192878596019,70.11444348425721 101.00502473930828,66.36702390262508 100.88906034617685,65.55432617620681 100.9277151436545,65.05767680690042 100.81175075098872,64.7416269085661 100.69578635809012,64.42557677725563 100.34789317892864,64.10952641288168 100.23192878603004,63.88377600995591 99.65210682107136,62.48412085772725 99.03363005863503,60.452355245070066 98.6084272840526,59.413893545774044 98.37649849825539,58.33027865504846 97.1395449731499,54.89881342626177 96.36644901987165,52.37034778218367 95.67066266201437,50.88035211354145 95.55469826888293,50.15792810631683 95.12949549476616,49.074289812444476 95.01353110186756,48.261559293809114 94.58832832751796,47.26821990002645 94.12447075545788,45.64275047101546 93.9698515648488,45.37183830019785 93.69926798134111,45.14607802699902 92.92617202806287,44.96546972275246 92.30769526562653,45.01062180590816 91.26401572860777,45.281534205161734 90.45226497808471,45.46214237625827 90.25899098953232,45.46214237625827 89.98840740602463,45.281534205161734 89.44724023877643,43.83666609690408 89.06069226213731,42.12087889102986 88.86741827381775,41.624202365084784 88.75145388068631,41.037220274069114 88.24894151114859,39.41172721062321 87.9783579276409,37.876533655886305 87.70777434390038,37.15408772716182 86.89602359291166,34.08367894162075 86.70274960482493,33.18061334724189 86.5867852116935,33.0 86.27754683047533,33.451533225452295 86.27754683047533,33.8579127213452 86.66409480711445,35.1673551426793 86.85736879543401,35.75434527400648 86.97333318833262,36.61225248122355 87.90104833221994,39.54718520140159 88.24894151114859,41.21783023382886 89.06069226213731,44.37849220831413 89.52454983396456,46.45548595621949 89.48589503625408,46.54578980393126 89.25396625045687,46.500637882447336 89.33127584587783,46.32003014910151 89.25396625045687,45.687902483012294 89.02203746442683,44.694557123671984 88.82876347610727,44.15273141185753 88.67414428549819,43.29483930036076 87.93970312969759,41.037220274069114 87.51450035558082,39.27626917709131 86.78005920001306,36.92832312459359 86.27754683047533,34.17398539627902 86.20023723505437,33.6772996596992 86.27754683047533,33.04515334390453 86.54813041421585,33.09030668315245 86.70274960482493,33.22576667211251 86.89602359291166,33.541839813347906 87.47584555787034,35.30281447517336 87.70777434390038,36.29618160467362 88.05566752282903,37.01862897988758 88.13297711824998,37.605616575310705 88.48087029717863,39.05050569260493 88.94472786900587,40.67600012620096 89.13800185732543,41.669354800280416 89.44724023877643,42.34664075792534 89.71782382228412,43.881818299065344 89.98840740602463,44.6042528860271 90.14302659663372,45.14607802699902 90.2976457872428,45.281534205161734 90.52957457327284,45.32668625502265 91.53459931234829,45.1009259581333 91.76652809837833,45.1009259581333 92.34635006333701,45.23638215055689 92.65558844455518,45.46214237625827 93.19675561180338,46.18457429911359 93.62195838615298,47.17791620458593 94.12447075545788,48.71307643887121 94.74294751812704,49.75156406717724 95.55469826888293,52.28004516172223 95.82528185285628,52.91216310454183 96.90761618711986,56.02758791542146 97.29416416375898,56.84030370693654 97.44878335436806,57.69816870361683 97.91264092642814,59.18814066948835 98.37649849825539,60.3169038616179 98.84035607008263,61.85201703250641 99.57479722588323,63.83862591505749 99.61345202336088,64.29012664966285 99.4588328327518,64.87707689357921 99.53614242817275,65.23827664417331 99.72941641649231,65.55432617620681 100.19327398831956,65.96067523199599 100.34789317892864,66.1864245410834 101.04367953701876,67.94726507083396 101.70081109716557,70.06929404579569 102.08735907380469,71.1077299285098 102.08735907380469,71.3786258318869 101.85543028777465,71.73982010356849 101.85543028777465,71.920417125104 101.93273988296278,72.19131251500221 102.12601387128234,72.55250610166695 102.6285262410529,72.91369938408025 103.01507421745919,73.68123409862164 103.55624138470739,75.17115050327266 103.71086057531647,75.84838352052611 104.02009895653464,76.7513592124451 104.05875375447795,77.38344106497243 104.87050450546667,78.64760197381838 106.26207722094841,82.62065484386403 107.03517317422666,85.37468124565203 107.30575675796717,86.09704589733155 107.46037594857626,86.7742616525502 107.65364993666299,87.0 107.88557872292586,86.90970467517036 109.50908022467047,85.60042033006903 110.93930773786269,84.6523153767339" stroke="#4dd2ff" stroke-linecap="round" stroke-linejoin="round" stroke-width="0.5"><title>2023-07-20 4.1km</title></polyline><polyline fill="none" points="173.90819988795556,82.55319694746868 172.78155799768865,83.5514628525998 169.24623344512656,85.82024039805401 168.70233736024238,86.09249290064326 168.43038931768388,86.13786830095341 168.19729099539109,86.04711749556009 168.00304239382967,85.82024039805401 167.42029658821411,84.3682241452334 167.1094988253899,83.14308162539965 166.41020385897718,81.37342516815988 166.02170665562153,79.9213939277688 165.205862527946,77.87946671561804 164.97276420565322,76.7904349117016 164.42886812100187,75.79215333974571 163.45762511179782,73.11493224825244 163.34107595076784,72.34352647312335 163.5353245525621,71.8897577248863 163.5741742728278,71.61749624661752 163.2633765102364,71.027595786436 162.75833014538512,70.846087790007 162.6029312638566,70.70995674256119 162.4475323825609,70.39231746448786 161.12664189049974,66.76213765176362 160.89354356820695,65.94534297793871 160.660445246147,65.4915674898657 160.62159552588128,65.26467956660781 160.6992949664127,64.99241390102543 160.58274580538273,64.4932597335719 160.0776994409971,63.812594027869636 159.80575139820576,63.131927246635314 158.95105755049735,60.04622434763587 158.67910950793885,59.32017339442973 158.60141006717458,58.77563437624485 158.40716146538034,58.23109466981259 157.66901677846909,56.18906463930034 157.0085715323221,54.555433644680306 156.23157712537795,52.28649142917129 155.80423020129092,51.197394920454826 155.41573299793527,50.51670820399886 155.33803355693817,49.9721580563928 155.0660855146125,48.88305569565273 155.0660855146125,48.42926223264658 154.94953635358252,48.0208477069682 154.75528775178827,47.34015597059624 154.17254194640554,46.160287745675305 153.90059390384704,45.43421338548069 153.66749558178708,45.11655546791735 153.47324697999284,44.980416288628476 152.54085369128734,45.16193518479122 151.76385928411037,45.43421338548069 151.0645643179305,45.615732090198435 150.4041190717835,45.84263036365155 150.09332130872644,46.069528517633444 149.70482410513796,46.47794489329681 149.5494252240751,46.56870403542416 148.92782969819382,46.614083599328296 149.12207829998806,46.65946315831388 149.19977774075232,46.56870403542416 149.19977774075232,46.432565315190004 148.92782969819382,45.57035242108395 148.26738445204683,43.074463261291385 147.80118780769408,40.85084073594771 147.33499116334133,39.44405320935766 146.63569619716145,36.76660618954338 146.32489843433723,35.26904381811619 146.13064983231016,33.77147623934434 146.09180011204444,33.22690491969115 146.1694995528087,33.0 146.44144759513438,33.13614296619198 146.7522453579586,33.68071440065978 147.14074256154709,35.042139974277234 147.72348836692981,36.7212255881459 147.91773696872406,37.719597714574775 148.92782969819382,41.30464218367706 149.19977774075232,42.57528369370266 149.70482410513796,43.80054159957217 150.015621868195,45.252694604045246 150.4041190717835,45.34345400438178 151.64731012331322,45.252694604045246 151.99695760640316,45.34345400438178 153.08474977640435,46.2056673525949 153.4343972594943,46.75022226211149 153.78404474281706,48.20236532174749 154.32794082793407,49.29146940365899 154.75528775178827,50.471329051360954 155.29918383690529,52.42262829921674 155.84307992178947,53.9201310290955 155.998478803318,54.69156979760737 156.5812246084679,55.916793237120146 156.8531726510264,56.8243639083812 157.3970687361434,58.14033798512537 157.70786649896763,59.27479516915628 158.56256034667604,61.5437005739077 158.71795922820456,62.17899194572237 159.30070503382012,63.85797177499626 159.339554753853,64.22099358038395 159.10645643179305,64.85628100359463 159.10645643179305,65.08316914195893 159.30070503382012,65.40081233487581 159.88345083897002,65.94534297793871 160.6992949664127,67.85119480776484 160.81584412767552,68.35034508412355 161.16549161076546,69.07638081704499 161.7870871364139,71.11834975585225 161.74823741614819,71.29985763767036 161.5928385348525,71.61749624661752 161.67053797538392,71.93513462130795 161.90363629744388,72.38890332175652 162.33098322153091,72.75191793797421 162.48638210305944,72.933425131283 163.2633765102364,74.61236304481281 163.76842287462205,76.15516508818837 164.00152119691484,76.69968213720131 164.00152119691484,77.47108011177625 164.661966442829,78.65086257780786 166.1771055366844,83.50608717979048 166.33250441821292,84.14134616384399 167.1094988253899,86.04711749556009 167.18719826615416,86.54624668919132 167.03179938485846,86.8638740570168 167.03179938485846,86.95462469034828 167.18719826615416,87.0 167.38144686818123,86.95462469034828 168.19729099539109,86.50087133178022" stroke="#4dd2ff" stroke-linecap="round" stroke-linejoin="round" stroke-width="0.5"><title>2023-07-19 3.3km</title></polyline><polyline fill="none" points="62.06745149753988,139.59426414163318 62.06745149753988,139.18607109569712 61.76789333228953,138.89450445002876 61.11885064118542,138.77787774882745 60.61958703259006,138.89450445002876 59.67098617646843,139.3610110093723 56.525625442387536,141.5185987331788 54.07923376071267,142.97642351628747 52.481590213254094,144.2009933674708 50.434609418036416,145.6004984525498 49.73564036632888,145.89206156658474 49.436082201311365,145.77543633955065 49.18645039689727,145.5421858112095 48.63726042746566,144.2593061500811 47.08954324107617,138.6029376507504 45.89131058054045,135.3956927250838 45.74153149779886,134.75424151035259 45.79145785886794,134.05447570123943 44.6431515594013,132.3050573085784 43.44491889863275,129.09777589770965 43.24521345528774,128.28137402638094 43.24521345528774,127.93148714140989 43.44491889863275,127.34834184177453 43.39499253802933,126.99845436715987 43.145360733848065,126.41530808486277 42.99558165110648,126.29867875477066 42.49631804251112,126.06542002072092 42.29661259916611,125.77384646481369 41.7474226297345,123.84945714485366 41.09837993863039,122.33326690853573 40.499263608362526,120.70044201024575 40.14977908250876,118.89266596914968 40.14977908250876,118.25119563232874 39.40088366949931,117.08488402451621 38.751840978395194,115.7436226378777 36.25552293565124,108.68736790877301 35.75625932728872,106.70460245787399 35.0073639145121,104.60519600397674 34.757732110330835,103.61380685528275 34.05876305815764,101.74765775853302 33.45964672812261,99.8231849129661 33.16008856287226,98.77346963161835 33.0103094803635,97.72375235962681 32.660824954044074,96.49907969275955 32.01178226317279,95.33272225304972 31.21296048979275,94.16636235528858 30.66377052012831,93.11663634626893 30.364212355110794,93.0 29.565390581265092,93.0 28.716642446815968,93.23327266779961 28.067599755944684,93.29159081930993 27.568336147116497,93.40822710387874 26.370103486580774,94.04972623032518 24.422975413268432,95.68262974295067 22.226215536007658,96.5573975003208 18.981002080254257,97.72375235962681 18.08232758496888,98.24861124437302 17.932548502460122,98.54019929870265 17.932548502460122,98.77346963161835 18.182180306641385,100.17308956437046 18.232106667477638,101.10616755340016 18.331959389150143,101.51438867900288 18.781296636909246,102.33083002700005 19.380412967177108,102.50578158785356 21.227688318816945,102.09756119339727 25.621208074036986,100.58131137810415 28.16745247738436,99.53159753448563 31.01325504621491,98.77346963161835 31.41266593290493,98.71515205752803 31.712224098155275,98.89010476123076 33.50957308895886,103.38053856207989 34.70780574926175,106.76291919010691 36.00589113146998,110.1452791505726 36.60500746173784,112.24466459313408 36.7547865442466,113.46930242446251 37.453755596186966,115.04383279813919 38.202651009196416,117.43477776477812 38.202651009196416,118.77603505406296 38.65198825695552,119.53413556271698 39.10132550448179,119.82571240485413 39.25110458699055,120.05897376814391 40.74889541277662,123.9077720711357 40.89867449528538,124.6658655522624 41.447864464716986,126.0071053217398 41.49779082555324,126.41530808486277 41.49779082555324,126.64856667153072 41.19823266030289,127.17339813220315 41.19823266030289,127.46497095085215 41.59764354722574,128.28137402638094 42.24668623832986,128.80620393902063 42.84580256859772,130.0891194086289 43.99410886806436,133.0048253290006 44.1938143116422,133.76290635304758 44.1938143116422,134.40435871633235 44.24374067247845,134.69592772674514 44.892783363349736,135.86220223264536 45.79145785886794,138.19474387390073 46.14094238495454,139.3610110093723 48.33770226244815,145.5421858112095 48.487481344956905,146.35856222972507 48.287775901611894,146.8250625000801 48.287775901611894,146.94168750598328 48.43755498435348,147.0 48.687186788534746,146.94168750598328 49.68571400572546,146.35856222972507 51.732694800477475,144.9007463522721 53.0307801826857,143.79280371806817" stroke="#4dd2ff" stroke-linecap="round" stroke-linejoin="round" stroke-width="0.5"><title>2023-07-18 3.1km</title></polyline><polyline fill="none" points="120.13960404112004,140.27925880555995 118.80027076718397,141.4380131457001 118.05619672662579,141.7277013491257 116.56804864457808,142.77057761885226 115.72476473147981,143.1761400786345 114.93108575465158,143.87138931429945 114.03819690528326,144.3928256642539 112.2028142712079,145.84125737624709 111.65715997456573,146.18888041970786 111.0122958056163,145.03013608738547 110.16901189251803,142.77057761885226 110.02019708463922,141.95945180230774 109.57375266007148,141.20626247290056 109.32572797941975,139.75781855615787 108.53204900282435,136.860919280909 108.0359996422194,135.41246392211178 108.0359996422194,134.8910190592287 107.83757989760488,134.7172039950965 107.4903453453444,133.7901893921662 106.64706143224612,131.99409415287664 106.10140713560395,130.37180954089854 105.45654296665452,129.03921503038146 105.3573330945801,128.34394704771694 105.80377751914784,127.88043457083404 105.20851828670129,126.54783402441535 104.61325905378908,126.60577324562473 104.11720969295129,125.09935150755337 104.06760475714691,124.34613909141626 103.3731356523931,122.89765077678021 102.72827148321085,121.44915864727227 102.23222212283872,119.24744330497924 102.18261718656868,118.66804306575796 101.04170365724713,116.98777892056387 100.69446910475381,115.59721160819754 99.85118519165553,113.33753222727682 99.70237038377672,112.52636300533777 99.35513583105057,111.94695568608586 99.40474076708779,111.30960692948429 99.00790127855726,110.49843471689383 98.85908647044562,109.8031432966236 98.51185191818513,109.1078509974177 98.36303710984066,108.4125578191597 97.96619762154296,107.7752049669507 97.61896306881681,106.96402754139854 96.6268643476069,104.29872186214197 96.32923473138362,103.19783096440369 95.93239524285309,101.51751955598593 95.43634588248096,100.06897111795843 95.03950639395043,98.56247669499135 95.13871626602486,98.09893911931431 94.14661754481494,96.07095763168763 93.89859286416322,95.4335904767504 93.94819780020043,94.79622258327436 93.05530895129777,93.0 90.77348189265467,93.34765644161962 89.53335849079303,93.75325534597505 88.24363015335985,94.39062444819137 87.40034624026157,95.31770546018379 86.95390181569383,95.31770546018379 86.8546919436194,95.78124538017437 86.40824751905166,96.01301519363187 83.7791859076824,97.05597814550856 81.15012429654598,97.69334342004731 80.50526012759656,98.09893911931431 80.10842063906603,98.73630318505457 80.2572354474105,100.3007391244173 79.86039595887996,100.93810063850833 80.80288974381983,102.79223902552621 82.24143288983032,103.02400588442106 84.62246982078068,102.38664678751957 86.6066672632005,101.69134511210723 89.53335849079303,100.41662309109233 90.17822265974246,100.24279713194119 93.10491388756782,99.08395600068616 93.55135831190273,99.19984022382414 94.49385209707543,101.22781017364468 94.64266690518707,101.98105425050016 95.13871626602486,103.3716559894965 95.73397549870424,104.6463711616816 95.88279030704871,105.34166910103522 97.02370383613743,108.23873438715236 97.12291370844468,108.93402778520249 97.42054332490079,109.62932030425873 98.06540749338455,111.77313337114174 99.70237038377672,116.64013742207317 99.90079012769274,117.39336039108457 99.80158025585115,118.03070209780708 99.90079012769274,118.43628279928816 100.00000000023283,118.61010300827911 99.95039506396279,118.95774326159153 100.14881480811164,119.53714319563005 100.84328391309828,120.00066270341631 100.99209872144274,120.63800138863735 101.53775301785208,122.08649565419182 101.93459250638261,122.83971116470639 102.62906161136925,124.75171513610985 103.17471590801142,125.9684414753574 103.3731356523931,126.66371246083872 102.67866654740646,126.89546926086769 103.12511097197421,128.2280689649633 103.76997514045797,128.45982510584872 104.36523437360302,129.85035989951575 104.81167879793793,130.42974835948553 105.95259232725948,133.44255851313937 105.95259232725948,134.1378200512845 105.80377751914784,134.6013272551936 106.5478515601717,135.5283404911752 106.94469104870223,136.74504299252294 107.2423206649255,137.4403003565967 108.58165393886156,141.20626247290056 108.68086381070316,141.9015141981654 109.32572797941975,143.34995247004554 109.97059214836918,145.60950855875853 110.21861682855524,146.4785661213682 109.87138227629475,146.65237746905768 109.87138227629475,147.0 110.41703657293692,146.94206292682793 111.06190074165352,146.65237746905768 111.5579501024913,146.24681757221697 112.10360439913347,146.0150689255097 113.29412286449224,144.9721988067613 113.88938209717162,144.62457499443553 114.83187588234432,143.81345191167202 115.47674005129375,143.6975770877907 116.12160422001034,143.46582736703567" stroke="#4dd2ff" stroke-linecap="round" stroke-linejoin="round" stroke-width="0.5"><title>2023-07-15 3.1km</title></polyline><polyline fill="none" points="163.98636414879002,131.1285268595675 163.384648805717,129.1958073055721 163.28436291520484,128.25872873980552 163.48493469599634,127.61448630952509 163.33450586046092,127.02881072548917 163.0837911341805,126.67740507883718 162.43193284538575,126.32599921000656 162.1310751736164,125.6817545404192 161.47921688528731,123.6318801708403 160.4763579799328,121.11345274205087 160.07521441788413,119.35640359425452 160.22564325365238,118.77071931090904 160.12535736290738,118.47787693812279 159.3230702385772,117.18936866434524 158.01935366145335,114.14379178336821 155.6626352337189,107.34975246613612 154.2084898208268,102.72272988723125 153.25577386072837,100.37991895875894 152.85463029844686,98.56423369830009 152.7543444079347,97.21710854407866 152.60391557216644,96.8071132840123 151.90191433834843,95.40141295385547 151.2500560497865,94.8157034337637 151.04948426876217,94.52284844231326 150.5480548159685,93.29285579378484 150.19705419894308,93.05857117107371 149.4950529653579,93.0 146.4363333035726,93.8199958333862 146.1856185772922,93.99570906901499 145.68418912426569,94.52284844231326 145.33318850770593,94.75713244784856 144.12975782109424,94.99141635443084 144.38047254737467,95.04998731584055 144.28018665662967,95.284271099139 144.2300437116064,95.284271099139 144.33032960211858,95.16712921985891 144.17990076635033,95.284271099139 144.17990076635033,95.16712921985891 144.53090138314292,95.04998731584055 144.63118727388792,95.22570016252575 144.53090138314292,95.40141295385547 144.17990076635033,95.69426748238038 142.7758982987143,96.27997607685393 138.86474856734276,97.62710350181442 137.9621755525004,97.97852751065511 137.61117493570782,98.27138068177737 137.51088904519565,98.44709251029417 137.76160377147608,99.09136873984244 138.11260438826866,101.08276327408385 138.413462060038,101.90274718531873 138.86474856734276,102.37130887730746 139.56674980116077,102.48844923858996 140.31889398023486,102.37130887730746 142.52518357220106,101.43418509850744 143.77875720430166,100.96562261652434 145.23290261696093,100.73134122748161 146.38619035854936,100.32134855911136 147.7901928257197,99.96992603124818 150.39762597996742,99.14993926900206 151.19991310453042,99.03279820439639 151.50077077629976,99.09136873984244 151.651199612068,99.26708030916052 152.0022002288606,99.96992603124818 152.60391557216644,101.60989592736587 153.10534502472728,102.66415973438416 153.4563456417527,103.77699158410542 153.60677447752096,104.71411141374847 154.15834687557071,105.70979950216133 154.81020516413264,107.40832212549867 155.76292112423107,110.68821319547715 156.61535119381733,113.32382592646172 157.06663770135492,114.20236072695116 158.06949660694227,117.77505461353576 157.81878188042901,118.41930844495073 157.8689248256851,118.88785621710122 158.1697824972216,119.29783519374905 158.8717837310396,119.88351892161882 159.92478558188304,122.51908806234132 160.42621503444389,123.92471982934512 160.67692976118997,124.8032378788339 161.02793037774973,125.62318680610042 161.32878804951906,126.50170217221603 161.32878804951906,126.85310792987002 161.12821626849473,127.3216485947487 161.2285021590069,127.67305383412167 161.6296457212884,128.4344310911838 162.1310751736164,128.90297042345628 162.33164695487358,129.1958073055721 163.23421996994875,132.24130173720187 163.88607825827785,133.76404269761406 163.98636414879002,134.75967876327923 164.3875077108387,135.52104631625116 164.8889371638652,136.106712955283 165.13965189014561,137.10234482598025 166.89465497480705,141.90477939887205 168.34880038769916,146.59004144894425 168.29865744221024,146.76573800796177 167.94765682565048,147.0 168.44908627821133,146.94143451127457 169.30151634803042,146.4729103789432 170.95623354171403,145.3601639820845 172.81152251712047,143.954586403328 173.86452436749823,143.54462560702814 175.11809799959883,142.60757122316863 177.37453053658828,141.02628836937947 178.5779612234328,139.9720973020303 179.73124896455556,139.09360321919667 180.03210663609207,138.97647056978894 180.58367903437465,139.0350368975778 181.486252049217,138.7422051973408 181.88739561126567,138.7422051973408 182.08796739252284,138.8593378958758 182.4389680090826,139.5621335693868 182.48911095457152,139.79639859637246 182.4389680090826,139.9720973020303 181.28568026795983,140.79202386038378 178.77853300445713,142.1390434388304 179.53067718353122,142.84183496708283 179.48053423827514,143.07609861233504 179.58082012855448,143.3103621591581 179.02924773073755,142.60757122316863 179.38024834776297,143.54462560702814 179.43039129278623,143.3103621591581 179.27996245701797,143.1932303979993 179.22981951199472,142.95896680210717 179.33010540227406,142.19760943355504" stroke="#4dd2ff" stroke-linecap="round" stroke-linejoin="round" stroke-width="0.5"><title>2023-07-14 3.8km</title></polyline><polyline fill="none" points="60.8812749220524,198.99603784945793 60.13640185678378,199.40203873050632 57.057593188248575,201.7800378795364 55.71682167123072,202.99803346669069 54.77331578894518,203.40403139719274 52.04211455048062,205.55001548543805 50.85031764651649,206.24600852892036 50.453052011784166,206.01401094539324 49.80749535560608,204.91202108940342 49.41022972087376,203.57803041866282 49.06262229057029,203.05603318940848 48.963305881945416,202.53403546538902 48.26809102133848,200.50403961288976 48.0694582038559,199.75003924733028 47.57287616073154,198.3000356426346 47.423901547677815,197.60403255623532 46.8776613001246,196.21202374406857 46.7783448912669,195.51601801847573 46.381079256534576,194.76201082294574 46.331421052338555,193.892001237371 45.636206191498786,192.78998712264 45.04030773974955,191.45596708520316 44.891333126462996,190.70195433014305 44.44440928730182,189.48393154481892 44.34509287890978,188.84591853432357 44.3947510831058,188.14990349806612 44.59338390058838,187.7438943205634 44.34509287890978,187.04787789128022 43.84851083555259,186.64186790108215 43.302270587999374,186.29385910002748 42.45808111433871,183.6837860799278 42.11047368403524,183.04576634895056 41.36560061876662,180.84169249841943 41.067651392892,179.50764351326507 41.3159424145706,178.8116166727268 41.01799318846315,178.28959596488858 40.27312012342736,177.41956035216572 39.279956036712974,175.27346662903437 38.584741176106036,173.01135878433706 38.08815913298167,171.7932968645473 37.93918451992795,171.0392571828561 35.605248916195706,164.07884212769568 35.40661609871313,163.32479188073194 34.71140123810619,161.41065969219198 34.36379380780272,160.83061832131352 34.3141356036067,160.1345678695361 33.86721176467836,158.68445993505884 33.91686996887438,158.04641123395413 33.767895355820656,157.40836179349571 33.12233869964257,156.0742560281651 31.880883591249585,155.43620430195006 32.12917461292818,153.98608399246586 31.781567182624713,153.0 30.98703591316007,153.058004989638 27.510961610125378,154.04408887814498 25.921899071196094,155.66822319704806 25.37565882341005,156.01625135639915 23.93557089800015,156.59629779972602 19.86359814251773,157.9304022997385 19.11872507771477,160.0185593753704 19.267699690535665,160.30858056497527 19.168383281910792,160.88862248597434 19.218041486106813,161.64267606951762 19.46633250778541,162.51273661357118 20.111889164196327,162.80275648931274 20.90642043342814,162.8607604461722 23.786596284946427,161.75868422153872 26.17019009287469,161.1786432171939 30.142846439499408,159.84454658813775 31.582934365374967,159.14849488972686 32.32780743017793,158.97448182763765 32.675414860481396,159.43851653760066 33.07268049521372,160.07656362542184 33.370629721088335,160.7726141505409 33.51960433414206,161.46866379585117 34.115502786356956,162.74475252628326 34.214819194749,163.4988035678398 34.512768420856446,164.13684595015366 34.71140123810619,164.77488759323023 35.10866687283851,165.35492480848916 35.257641485892236,166.1089722752804 35.7542235290166,167.44305372488452 36.350121981231496,169.53117472142912 37.094995046267286,171.50328172469744 37.24396965932101,172.19931780395564 38.08815913298167,174.40342625009362 38.2371337460354,175.15746132459026 39.13098142389208,177.82557714253198 38.68405758496374,178.17359129607212 38.882690402213484,178.9276212073164 39.13098142389208,179.39163910102798 39.5282470586244,179.62364790117135 39.82619628449902,180.0296630662633 40.769702167017385,182.11773632938275 41.3159424145706,183.50978077208856 41.564233436016366,184.7278167727054 41.96149907121435,185.36583455483196 42.45808111433871,186.6998693466885 41.96149907121435,187.10587929392932 42.16013188823126,187.85989697329933 42.40842290990986,188.3819086078438 43.004321361891925,188.729916089389 43.699536222498864,190.7599553479813 44.29543467448093,192.15197794279084 44.494067491963506,192.78998712264 44.94099133065902,193.48599629377713 44.94099133065902,194.2400052366429 45.238940556766465,195.28401591436705 45.586547987302765,195.57401852909243 46.13278823485598,197.08202966401586 47.27492693462409,199.9820394697599 47.473559751873836,200.73603951768018 47.72185077355243,201.43203864549287 47.870825386373326,202.1280368937296 49.261255108052865,206.53600537066814 48.71501486026682,206.82600205973722 49.01296408637427,207.0 50.30407739896327,206.30400790955173 51.495874302927405,205.55001548543805 53.382886067731306,204.0420275402139 54.127759132767096,203.81002902821638" stroke="#4dd2ff" stroke-linecap="round" stroke-linejoin="round" stroke-width="0.5"><title>2023-07-14 3.2km</title></polyline><polyline fill="none" points="119.91560638998635,200.90442079264903 119.32478493941016,201.0769381209975 118.43855276377872,201.53698406374315 117.20767474221066,202.45707478601253 116.46914792922325,202.85961398942163 115.73062111623585,203.03213070018683 115.2382699076552,203.66469150595367 114.49974309466779,204.12473526841495 113.81045140256174,204.69978942594025 113.21962995221838,204.98731627763482 112.62880850187503,205.67738010408357 111.79181144712493,205.96490644081496 111.25022511766292,205.27484297810588 110.85634415061213,204.52727324236184 110.61016854620539,203.7797024830361 110.31475782115012,202.3995691614109 109.87164173345082,201.59448977926513 109.77317149168812,200.90442079264903 109.42852564551868,200.27185678866226 109.42852564551868,199.69679796713172 108.73923395317979,198.31665432441514 108.59152859076858,197.569075061474 107.853001778014,195.55635657266248 107.80376665689982,194.6362542208517 107.55759105272591,194.0036829544115 106.81906423973851,193.02607137378072 106.32671303069219,191.70341762539465 105.88359694322571,190.20823996444233 105.24354037200101,188.94308643753175 105.29277549288236,188.19549433892826 105.58818621817045,187.79294432338793 105.3420106137637,186.98784340190468 104.20960283372551,186.41277058806736 104.01266235020012,185.4926528261276 103.52031114161946,184.0549657184747 103.1264301748015,182.73229023558088 102.53560872445814,181.35210370627465 102.3879033618141,180.719517047517 102.43713848246261,180.14443763071904 102.14172775740735,179.4543415309745 102.24019799940288,179.16680123202968 102.09249263675883,178.64922831213335 101.84631703235209,178.24667125742417 101.30473070265725,177.8441139056813 100.61543901078403,175.83132269512862 100.36926340637729,175.371255090693 99.9753824393265,174.10606717935298 99.7784419558011,172.8408763355692 99.43379610986449,172.3232974181883 99.28609074745327,171.69070029701106 98.89220978040248,170.42550385539653 97.90750736324117,167.72257436084328 97.56286151707172,166.34234988258686 96.77509958320297,163.7544195795199 95.74116204492748,161.28149693773594 95.54422156163491,160.64888702059397 95.44575131963938,159.90125617326703 95.15034059458412,159.1536243018927 94.85492986929603,158.63603240653174 94.90416499017738,158.06092972517945 93.82099233125336,155.7605129396543 93.77175721037202,154.43776889814762 92.93476015562192,153.0 91.60541189229116,153.51759723958094 89.68524217838421,153.92017253109952 88.45436415681615,154.55279024638003 87.96201294800267,155.3004284192575 87.1250158934854,155.53047072782647 86.8296051681973,155.99055505444994 83.33391158678569,157.5433367936057 80.08439361001365,158.69354264147114 80.28133409307338,159.78623595210956 80.23209897219203,161.45402678789105 80.57674481836148,162.14414564339677 80.72445018100552,163.06430275994353 81.46297699399292,163.35185154073406 83.53085207031108,162.37418506795075 85.05714081716724,161.85659622622188 86.38648908073083,161.28149693773594 87.1250158934854,161.33900689380243 88.55283439881168,160.8789270753041 89.48830169509165,160.36133681592764 90.86688507930376,160.07378645980498 91.40847140876576,159.78623595210956 92.88552503474057,159.26864465663675 93.47634648508392,159.26864465663675 94.21487329807132,160.53386695688823 94.41181378136389,161.22398697567405 95.34728107810952,163.1793222904671 95.69192692404613,164.55955476639792 95.98733764910139,165.192160151375 96.57815909967758,167.08997190813534 96.92280494561419,167.72257436084328 97.56286151707172,169.73539546941174 97.95674248388968,171.05810244270833 98.64603417599574,173.0134025325533 98.99068002216518,174.3361015630653 99.483031230513,175.54378048784565 99.8769121975638,176.69394840847235 99.92614731844515,177.32653973181732 100.27079316461459,177.95913032226963 100.07385268108919,178.24667125742417 100.02461756044067,178.70673643861664 100.36926340637729,179.33932542958064 101.05855509848334,180.02942167466972 101.3539658235386,180.719517047517 101.69861166994087,181.98468963202322 102.58484384510666,183.88244301103987 102.88025457039475,185.26262314332416 103.42184090008959,186.47027789667482 103.1264301748015,187.62042279721936 103.42184090008959,188.31050857465016 104.25883795460686,189.23062158736866 104.75118916342035,190.61078819906106 104.8988945260644,191.18585659074597 105.3420106137637,191.8759378612158 105.83436182234436,193.31360437342664 106.03130230586976,194.0036829544115 105.78512670146301,194.57874777232064 106.52365351468325,195.67136925761588 107.11447496479377,197.05151958734496 107.80376665689982,199.12173853995046 108.09917738218792,199.69679796713172 108.19764762395062,200.32936263736337 108.49305834923871,200.96192657476058 108.93617443693802,202.34206353046466 109.52699588728137,204.2972515792353 109.67470124992542,204.92981091950787 110.01934709586203,205.61987481848337 110.11781733762473,206.36744305799948 109.67470124992542,206.82748454314424 110.21628757938743,207.0 111.44716560095549,206.30993784521706 112.67804362252355,205.4473589254776 113.90892164432444,204.23974614823237 115.18903478677385,203.49217499542283 115.82909135799855,203.31965843011858" stroke="#4dd2ff" stroke-linecap="round" stroke-linejoin="round" stroke-width="0.5"><title>2023-07-13 3.1km</title></polyline><polyline fill="none" points="181.4293301210273,199.17843992169946 181.03249067417346,199.58400502998848 180.73486108938232,199.69988072040724 180.5364413659554,199.98956983938115 179.4451328876894,200.22132102469914 176.76646662247367,201.66976372076897 174.03819542657584,203.29201501247007 172.5996524321381,204.3348883164581 171.40913409227505,205.43569688138086 170.76426999131218,205.8412573763053 170.36743054469116,205.78332018112997 169.9705910978373,205.26188514922978 169.22651713551022,203.29201501247007 168.78007275774144,201.72770134918392 166.99429524759762,196.68710483930772 166.29982621595263,193.906066303025 166.10140649275854,193.5004970083828 165.65496211498976,193.03698887687642 165.30772759928368,192.4576031633187 164.6132585676387,191.18295244517503 164.41483884421177,190.31387071649078 164.16681419010274,189.67654324276373 164.1172092591878,188.8653981172829 164.26602405146696,188.28600800951244 164.26602405146696,187.76455639093183 164.01799939759076,186.77959087333875 163.42274022754282,186.77959087333875 163.02590078068897,186.0843200343079 162.08340709470212,183.36116745282197 161.6865676480811,182.60795265622437 161.1409134089481,181.15945976402145 161.0417035475839,180.40624195249984 160.7440739623271,179.76890299853403 160.84328382392414,179.18950330879306 161.1409134089481,178.61010300857015 161.0417035475839,178.32040262955707 160.04960493044928,177.62512109737145 159.75197534565814,176.9298386865412 159.60316055291332,176.29249570413958 158.56145700532943,173.2795916085015 158.01580276619643,172.2946001512464 157.12291401159018,168.87608670257032 156.8252844265662,168.18079323135316 156.3292351178825,166.67432102822931 155.38674143212847,164.41460498666856 155.18832170870155,163.60342260450125 154.84108719276264,162.8501807496068 154.49385267705657,161.40163582167588 153.99780336860567,160.76427484455053 153.8985935067758,160.12691312894458 153.70017378381453,159.37366651260527 153.45214912923984,158.85218748165062 153.3033343369607,157.46157431480242 152.90649489033967,156.186842489813 152.55926037440076,154.91210770996986 151.96400120435283,153.34765644167783 151.2199272417929,153.0 150.42624834855087,153.23177098558517 148.59086590749212,153.5214845802402 147.3011377057992,154.100911311456 146.65627360460348,154.73828001104994 145.2673355413135,155.83918784279376 143.8287925471086,156.5344969170401 141.3485460053198,157.40363202325534 140.50526218116283,157.7512856813264 138.57066987873986,161.22781017393572 138.6698797403369,161.63340326654725 138.9179043942131,162.2707632361562 139.31474384083413,162.79223902581725 140.05881780362688,162.79223902581725 140.85249669710174,162.6763555596117 146.55706374300644,160.99604255793383 148.09481659904122,160.41662309120875 148.83889056160115,159.9530870783492 149.5829645243939,159.77926097268937 151.2199272417929,159.14189811539836 152.01360613526776,159.0260138801532 152.36084065097384,159.4895506746252 153.05530968261883,160.8801587135531 154.44424774614163,164.35666342754848 154.64266746956855,165.2257861723774 155.18832170870155,166.67432102822931 155.7835808787495,168.7602045185049 156.13081539445557,169.39755622908706 156.27963018720038,170.1507891169167 156.6764696338214,170.7881392161944 156.97409921884537,172.17871868715156 157.27172880386934,172.93194776616292 157.4205435961485,173.6851758135017 157.86698797368445,174.4384028292843 158.16461755894125,175.77103271492524 158.75987672898918,177.21953979774844 158.85908659058623,177.91482184268534 158.56145700532943,178.37834271753673 159.10711124469526,179.24744330515387 159.95039506908506,180.00066270359093 160.29762958479114,181.27533933578525 161.1409134089481,183.30322788952617 161.48814792511985,184.75171513622627 162.331431749044,186.77959087333875 161.48814792511985,186.8954692610423 161.48814792511985,187.64867818623316 161.8353824405931,188.28600800951244 162.62906133406796,188.57570313982433 163.1747155734338,190.1400542060146 163.5715550200548,190.71944236085983 164.0676043285057,192.10997144214343 164.41483884421177,192.80523466476006 164.6628634983208,193.5004970083828 164.6628634983208,194.2536968891509 165.2085177374538,195.3545256285579 165.50614732247777,195.70215529913548 165.9029867690988,197.26648609805852 167.2919248326216,201.0324494043598 167.4407396253664,201.78563897154527 167.73836921015754,202.53882750764024 168.1848135876935,203.9293267109315 168.33362838020548,204.68251231173053 168.78007275774144,206.13094326102873 168.5320481036324,206.5944403593312 168.5320481036324,207.0 169.17691220436245,207.0 171.06189957633615,205.78332018112997 172.99649187875912,204.3348883164581 174.03819542657584,203.63963966665324" stroke="#4dd2ff" stroke-linecap="round" stroke-linejoin="round" stroke-width="0.5"><title>2023-07-11 3.2km</title></polyline><polyline fill="none" points="58.576589757576585,261.2948089094134 58.231208274373785,261.6405797599 57.09638340235688,262.1592356257024 56.80034213094041,262.5050059299683 55.96155853010714,263.25417417276185 55.61617704713717,263.3118024565629 54.67871302226558,264.0609695946914 53.839929420733824,264.5796231664135 52.31038285396062,265.8474409384653 51.52093946444802,266.1932089118054 50.87951671052724,265.61692883458454 50.23809395660646,264.2338541732752 49.94205268542282,263.02366097655613 49.596671202918515,262.27449241821887 49.300629931734875,260.71852367318934 48.36316590686329,257.8370883867028 48.21514527127147,256.97265484166564 47.8697637883015,256.2811070223106 47.52438230556436,255.01326708309352 47.32702145818621,254.55223364959238 47.17900082259439,254.03357057250105 46.43889764510095,252.93861357297283 46.29087700974196,252.18943120539188 45.74813467939384,250.8063226005761 45.402753196656704,250.17239665496163 45.057371713453904,248.90454255999066 45.10671192524023,248.27061441080878 45.30407277261838,247.69431545579573 45.008031501900405,247.0027559088776 44.711990230716765,246.65697580738924 44.169247900368646,246.42645561834797 43.03442302811891,243.19916277355514 41.99827857967466,240.7786806463846 42.04761879146099,240.2023737995769 41.70223730849102,239.4531739911763 41.99827857967466,239.16501994553255 41.85025794408284,238.9344965997152 41.89959815586917,238.76160402665846 41.80091773206368,238.76160402665846 41.45553624955937,238.1852950549801 41.06081455433741,237.89714034151984 40.616752648027614,237.2055684099323 39.383247351972386,233.57480142597342 39.33390714041889,232.7679610461346 39.03786586923525,232.30690886633238 38.93918544542976,231.6729614844662 38.59380396269262,230.92374999506865 38.34710290329531,230.17453747970285 38.29776269150898,229.36769208480837 37.85370078496635,228.56084549985826 37.60699972580187,227.17767715727678 37.06425739568658,225.67924083961407 36.37349442997947,223.54684361850377 35.781411887845024,222.22129521047464 35.682731464272365,221.47207077644998 35.337349981302395,220.83811083843466 35.139989133924246,220.26178298465675 34.794607650954276,218.993859568669 34.64658701559529,217.95646549703088 34.25186532083899,217.2648683563457 34.1531848970335,215.1900716876262 33.80780341429636,214.8442714777193 33.46242193132639,213.97976999671664 32.96901981299743,213.2881678281119 32.42627748288214,213.0 28.52840074757114,214.44083762320224 28.03499862900935,214.8442714777193 27.640276934485883,215.47823836212046 27.048194392351434,215.766404885042 26.653472697595134,215.42060503945686 21.423410242656246,222.85525354539277 27.93631820543669,220.5499469874194 28.72576159471646,220.14651734096697 29.416524560423568,219.97361883008853 30.156627738149837,219.62782164401142 33.01836002501659,218.93622661626432 33.61044256668538,219.28202423948096 34.44922616798431,221.24153997487156 35.189329345710576,223.66210854565725 35.485370616661385,224.2384328173357 35.929432523436844,226.08266640588408 36.42283464153297,227.23530924145598 36.76821612473577,228.38794964842964 37.36029866687022,229.5982194620301 37.45897909044288,230.17453747970285 37.80436057341285,230.7508548903279 37.90304099698551,231.3848033407703 38.93918544542976,234.32400928472634 39.43258756399155,236.11057773028733 39.728628834942356,236.74451997003052 40.024670106125996,237.95477129641222 39.728628834942356,238.53108051081654 39.925989682320505,238.76160402665846 40.123350529698655,239.33791239111451 40.320711377076805,239.68369711842388 40.863453707424924,239.8565894002677 41.06081455433741,240.60578865616117 42.09695900324732,243.02627154823858 42.63970133336261,244.92807202221593 42.98508281633258,245.44674373156158 43.57716535846703,246.7722358655301 42.63970133336261,247.2909058262012 43.33046429930255,248.50113382283598 43.971887052990496,248.7316531377146 44.563969595124945,250.05713731318247 44.662650018930435,250.6910633923835 45.94549552653916,253.8606827708427 45.55077383201569,254.60986285004765 45.8468151029665,254.8403795910417 46.53757806844078,255.93533278477844 46.73493891605176,256.6268810412148 48.01778442389332,259.96935195848346 48.856568025192246,262.62026264949236 49.448650567326695,263.94571317883674 49.794032050063834,265.4440446931985 50.040733109461144,266.0779529448482 49.744691838510334,266.5966046046233 49.695351626491174,266.884744203242 50.09007332101464,267.0 50.87951671052724,266.6542325365008 52.65576433669776,265.67455686972244 54.13597069168463,264.6372513106908 54.67871302226558,264.1185977936839 55.36947598773986,263.772828509158 56.30694001284428,262.90840434195707 57.44176488509402,262.21686402498744 57.935167003655806,261.8134651031578" stroke="#4dd2ff" stroke-linecap="round" stroke-linejoin="round" stroke-width="0.5"><title>2023-07-07 3.1km</title></polyline><polyline fill="none" points="117.6682002551388,263.6179916828405 116.49032023828477,264.36318176134955 116.04861523164436,265.05104862048756 114.62534354440868,266.0255251825438 114.37995187425986,266.0255251825438 114.08548186998814,265.7962367365835 113.44746352755465,264.9937264153268 112.90760185336694,263.6179916828405 112.76036685123108,262.8728005842422 111.926035172306,261.3824153256137 111.77880016993731,260.52257581986487 111.43525183177553,259.834703237284 110.69907682132907,257.71375730086584 109.96290181064978,254.96224755299045 109.52119680424221,253.70113426924217 108.09792511700653,250.43369080347475 107.95069011463784,249.6311578284367 107.55806344258599,248.37003219104372 107.90161178074777,247.7967922986718 107.70529844472185,246.99425543501275 107.26359343831427,246.5356624100823 106.8218884319067,246.4783382549067 106.52741842763498,245.79044792061904 106.47834009351209,245.10255671659252 106.18387008924037,244.47198901581578 105.7912434169557,243.95606944448082 105.69308674894273,243.15352691692533 105.2023034086451,242.46563237981172 104.90783340414055,241.7204123166157 104.71152006811462,241.03251596784685 104.66244173399173,240.34461874963017 104.36797172972001,239.71404553577304 104.4661283979658,239.19812145346077 104.4661283979658,238.62487189960666 104.26981506170705,238.223596852622 103.58271838515066,237.30639563384466 103.337326714769,236.61849370563868 103.14101337874308,235.87326563498937 102.25760336616077,233.8668772954843 101.86497669341043,232.54838950157864 101.52142835548148,232.08978430263232 101.52142835548148,231.5738529918599 101.37419335334562,230.82861801265972 100.93248834670521,229.51012285711477 100.14723500236869,226.58649176801555 99.70552999596111,225.3253127229982 98.82211998291314,223.14690566959325 98.18410164071247,221.77106514235493 97.74239663407207,221.2551240477478 97.54608329781331,219.82195177371614 97.2516132935416,218.38877572497586 96.95714328926988,217.87283142318483 96.5645166169852,216.32499558269046 96.17188994470052,215.75172193191247 95.68110660440288,214.6625003311201 95.63202827027999,213.974569775688 95.23940159799531,213.0 93.57073824061081,213.68793178745545 91.9020748832263,214.14655249618227 90.57695986400358,215.35043001687154 90.08617652347311,215.46508487983374 89.74262818531133,215.35043001687154 89.44815818127245,215.75172193191247 89.2027665108908,215.40775745140854 88.95737484074198,215.29310257622274 89.00645317463204,215.17844767699717 88.71198317036033,214.83448283403413 88.81013983860612,215.06379275361542 88.95737484074198,214.8918103230535 89.00645317463204,215.06379275361542 89.39907984691672,215.17844767699717 89.64447151706554,215.52241230232175 89.104609842645,216.0383588327677 86.797928142827,217.12757767923176 85.32557812170126,217.7581770674442 84.6875597788021,217.93015859200386 83.21520975790918,218.50342994765379 82.57719141501002,219.19135477743112 82.72442641714588,219.24868180725025 82.47903474722989,219.24868180725025 82.3317997448612,219.53531686612405 82.3808780789841,219.47798986639827 82.82258308515884,220.22324039111845 83.0188964214176,220.91116304631578 82.7735047515016,222.05769887252245 83.0188964214176,222.86027251329506 83.4115230939351,223.20423228276195 84.19677643873729,223.4908652578597 84.88387311529368,222.91759915655712 85.57096979185008,222.5736392060644 88.02488649380393,221.65641160821542 88.81013983860612,221.48443126148777 89.54631484905258,221.0831435743603 91.11682153865695,220.50987493642606 91.9020748832263,220.39522113645216 95.87741994042881,219.13402774144197 96.6135949511081,220.5672018273617 96.85898662125692,221.36977766663767 97.15345662552863,222.05769887252245 97.64423996629193,222.86027251329506 99.75460832985118,228.36360273347236 99.85276499809697,229.16616707359208 100.29447000427172,229.9114043295849 100.49078334029764,230.5419889028417 100.6380183424335,231.2298985128291 100.83433167892508,231.5738529918599 101.47235002112575,234.3254809966311 102.7483867064584,237.8796465767664 102.55207337043248,238.567546911072 102.69930837233551,239.25544637569692 103.4354833830148,239.71404553577304 103.68087505316362,241.08984069683356 104.85875507025048,243.38282490277197 104.90783340414055,244.01339386537438 105.34953841054812,245.2172053109971 105.93847841909155,246.4210140936193 105.69308674894273,246.9369313280913 105.34953841054812,247.39552401483525 105.74216508306563,248.08341232023668 106.57649676175788,248.7712997563067 107.01820176793262,249.57383399928221 107.36175010632724,250.26171955128666 108.4905517892912,253.18522344733356 108.4905517892912,253.8731044345186 108.34331678715535,254.27436794224195 108.588708457537,254.90492428536527 109.32488346798345,255.9367421795614 110.30645014881156,258.63092412549304 110.35552848293446,259.261475420848 110.74815515521914,260.0066714643617 111.14078182750382,261.4397379111033 111.77880016993731,262.93012301268755 112.17142684245482,264.3058594838367 112.46589684672654,264.9364042042289 112.80944518488832,266.25481353187934 112.41681851260364,266.5987458747695 112.66221018275246,267.0 113.34930685954168,266.5987458747695 116.88294691033661,263.5606693268637" stroke="#4dd2ff" stroke-linecap="round" stroke-linejoin="round" stroke-width="0.5"><title>2023-07-05 3.1km</title></polyline></svg>