<?xml version="1.0" encoding="utf-8" ?>
<svg baseProfile="full" height="300mm" version="1.1" viewBox="0,0,200,300" width="200mm" xmlns="http://www.w3.org/2000/svg" xmlns:ev="http://www.w3.org/2001/xml-events" xmlns:xlink="http://www.w3.org/1999/xlink"><defs /><rect fill="#222222" height="300" width="200" x="0" y="0" /><text fill="#FFFFFF" style="font-size:12px; font-family:Arial; font-weight:bold;" x="10" y="20">Over 5km Runs</text><text fill="#FFFFFF" style="font-size:4px; font-family:Arial" x="10" y="280">ATHLETE</text><text fill="#FFFFFF" style="font-size:9px; font-family:Arial" x="10" y="290">Melt</text><text fill="#FFFFFF" style="font-size:4px; font-family:Arial" x="120" y="280">STATISTICS</text><text fill="#FFFFFF" style="font-size:3px; font-family:Arial" x="120" y="285">Number: 7</text><text fill="#FFFFFF" style="font-size:3px; font-family:Arial" x="120" y="290">Weekly: 2.3</text><text fill="#FFFFFF" style="font-size:3px; font-family:Arial" x="141" y="285">Total: 45.3 km</text><text fill="#FFFFFF" style="font-size:3px; font-family:Arial" x="141" y="290">Avg: 6.5 km</text><text fill="#FFFFFF" style="font-size:3px; font-family:Arial" x="167" y="285">Min: 5.3 km</text><text fill="#FFFFFF" style="font-size:3px; font-family:Arial" x="167" y="290">Max: 9.2 km</text><polyline fill="none" points="49.44214782002382,86.55328006320633 48.581597638782114,85.15727783454349 47.43419739743695,81.8626979997498 47.33858071058057,81.08093028754229 47.52981408429332,80.13163937273202 47.43419739743695,79.74075438437285 47.19515568064526,79.40570987918181 46.62145555950701,79.12650596327148 46.33460549963638,78.73562023357954 44.80473851086572,74.8825883337995 44.470080106984824,73.70992089255014 43.991996673401445,71.1970533541753 43.41829655249603,70.58279503305675 43.22706317901611,70.13606126146624 42.12747128121555,67.23228256951552 41.792812877101824,65.89207165455446 41.314729443285614,64.88691124448087 40.0239041717723,61.14546407770831 39.11554564721882,58.24163613416022 38.82869558688253,57.571519734337926 38.159378779586405,55.61700872902293 37.53787031513639,54.22092502680607 37.15540356817655,52.768994076002855 36.82074516452849,51.93133979511913 36.82074516452849,51.093684190593194 36.67732013412751,49.92096412007231 36.1992367003113,47.519672070338856 36.1514283567667,47.18460719846189 36.247045043390244,47.01707468321547 36.43827841733582,46.737853706639726 39.163353990530595,45.62096832925454 40.26294588856399,44.89499157189857 41.69719619047828,44.16901382012293 42.557746371487156,43.88979134312831 43.41829655249603,43.49887962813955 45.37843863177113,42.94043382117525 47.912280831253156,41.823540441691875 48.868447699118406,41.60016148316208 49.72899788036011,41.20924807956908 53.7927070686128,39.868971364048775 54.22298215911724,39.64559158193879 54.414215532597154,39.422211705648806 54.12736547226086,39.47805668361252 53.410240321652964,39.924816294864286 52.35845676669851,40.31573064578697 51.497906585922465,40.762489551038016 49.72899788036011,41.43262720271014 45.61748034856282,42.49367675173562 43.37048820895143,43.61056871910114 40.74102932261303,44.392391695815604 38.159378779586405,45.565123998501804 36.1992367003113,46.29109983803937 35.14745314582251,46.51447681942955 33.71320284390822,47.01707468321547 32.56580260256305,47.18460719846189 31.51401904807426,47.463827939820476 31.131552300648764,47.407983803306706 30.844702240312472,47.240451358491555 30.74908555368893,47.01707468321547 29.888535372447222,44.057324846915435 28.741135131334886,41.43262720271014 28.16743501042947,39.19883173541166 26.589759678579867,33.83768420107663 26.2072929313872,33.39091945858672 25.92044287105091,33.39091945858672 25.68140115402639,33.67014746682253 25.585784467402846,33.89352976734517 25.633592810947448,34.116911973804235 26.828801395604387,36.62995530880289 27.354693172732368,38.193620703415945 27.689351576613262,39.53390165552264 28.07181832380593,40.706644708581734 28.59771010116674,43.33134594798321 29.84072702936828,48.13395711861085 29.697301999200135,49.0274613724323 29.79291868582368,48.74824145500315 29.745110342279077,48.301489280944224 28.980176848126575,45.73265697277384 28.59771010116674,43.88979134312831 26.828801395604387,37.9143950783764 26.350717961555347,35.959811584616546 26.016059557907283,35.01043985807337 25.824826184194535,33.50261067948304 25.92044287105091,33.27922821423272 26.111676244530827,33.05584565451136 26.350717961555347,33.0 26.733184708748013,33.111691303376574 27.115651455707848,33.50261067948304 27.306884829420596,33.89352976734517 27.832776606781408,36.96502685319865 28.310860040597618,39.087141714815516 28.741135131334886,40.3715755296289 29.31483525177464,42.828744589176495 29.936343715991825,44.95083597302437 30.653468867065385,47.072918860882055 30.844702240312472,47.240451358491555 31.896485795034096,47.072918860882055 34.90841142856516,46.123567040252965 36.964170194463804,45.565123998501804 39.06773730390705,44.83914716477739 45.76090537849814,42.27029807586223 49.2031061029993,41.04171367548406 49.87242291052826,40.93002404330764 51.45009824237786,40.25988575624069 53.458048664731905,39.64559158193879 53.697090381989256,39.58974662178662 53.88832375523634,39.75728148478083 53.88832375523634,39.924816294864286 53.697090381989256,40.14819595927838 52.740923513891175,40.65079986001365 49.44214782002382,41.879385166510474 46.52583887288347,42.828744589176495 41.26692109997384,44.78330275171902 39.68924576789141,45.50927966204472 38.30280380952172,46.0118784790393 36.10362001368776,46.62616527476348 35.43430320592597,47.072918860882055 34.573753024917096,47.407983803306706 34.43032799474895,47.96642490319209 35.09964480227791,49.250837200612295 35.768961609806865,51.37290287250653 36.39047007379122,52.601463325787336 37.490061971824616,56.34297080087708 38.01595374918543,57.683205859793816 38.58965386985801,59.63770924654091 40.50198760582134,64.49601501470897 42.22308796783909,70.13606126146624 42.318704654462636,70.58279503305675 42.318704654462636,71.47626144677633 42.50993802794255,71.81131096358877 42.796788088278845,72.64893382927403 43.274871522327885,73.20734833774623 44.039805016480386,75.38515930029098 44.80473851086572,77.06039241410326 45.426246975082904,79.34986910771113 45.37843863177113,79.57323215826182 45.04378022789024,79.90827655768953 45.04378022789024,80.18748006172245 45.37843863177113,80.91340848483378 45.99994709575549,81.2484520371654 46.23898881254718,81.58349537773756 47.48200574074872,84.8222367526032 47.864472487708554,86.16239980957471 48.00789751810953,87.0" stroke="#4dd2ff" stroke-linecap="round" stroke-linejoin="round" stroke-width="0.5"><title>2023-08-06 5.3km</title></polyline><polyline fill="none" points="169.19757062231656,87.0 168.90939608577173,86.01827957099886 168.90939608577173,85.79388582185493 168.98143971990794,85.51339336947422 168.933410630445,85.3731470326602 168.789323362289,85.0646048313356 168.52516337041743,84.92435825796565 168.4771342810709,84.86825960801798 168.30903246812522,84.53166745972703 167.9488142975606,83.66213577409508 167.4925379481865,82.34380812515155 167.2764070458943,81.47426929505309 167.2764070458943,81.24987171663088 167.1083052328322,80.91327499446925 166.84414524107706,80.57667784680962 166.60399979399517,79.95958197084838 166.14772344462108,78.66928597260267 164.87495257530827,74.6020076671266 164.68283621768933,74.04099888703786 164.03444351057988,72.52626927607344 163.81831260817125,71.60059693819494 163.7942980636144,71.17983572077355 163.81831260817125,70.81517546105897 163.77028351882473,70.53466722919256 163.5541526164161,70.08585344336461 163.24196353531443,69.63703890095348 163.14590535638854,69.3565294276923 163.12189081171528,68.85161163113662 163.19393444585148,68.59915237379028 163.33802171400748,68.48694818254444 164.58677803876344,68.0661820443056 166.02765072113834,67.36490366936778 166.67604342813138,67.11244300220278 166.9642179646762,66.88803331929375 167.036261598696,66.66362344729714 167.06027614348568,66.32700828445377 166.91618887521327,65.65377668221481 166.70005797280464,65.06469763367204 166.3638543470297,63.9706902281323 165.88356345286593,62.62421340364381 165.64341800578404,62.14733456191607 165.47531619283836,61.558247754437616 164.73086530703586,59.53851166123059 164.49071985995397,59.00552319237613 164.34663259168155,58.809158750547795 164.13050168938935,58.64084625666146 163.8663416976342,58.58474206837127 163.45809443760663,58.69695043307729 162.92977445409633,59.00552319237613 162.32941083644982,59.20188748926739 161.1286836011568,59.53851166123059 160.0960581789259,59.762927539472 158.94336003286298,60.12760293800966 158.58314186241478,60.18370680112275 158.3189818705432,60.1556548710505 158.1748946023872,60.071499063051306 158.0308073341148,59.90318736722111 157.9587636999786,59.7348755649582 157.02219645644072,57.0418722567847 156.15767284703907,54.01221097059897 155.91752739995718,52.777894635044504 155.89351285528392,52.553472868254175 155.94154194474686,52.44126191386022 156.10964375769254,52.300998154387344 157.1902982693864,52.0485232010833 157.76664734247606,52.0485232010833 158.102850968251,51.96436483008438 159.30357820354402,51.347202629898675 161.72904721880332,50.47756255546119 162.13729447883088,50.2531388491625 163.53013807162642,49.074911287258146 163.7942980636144,48.76632701634662 164.44269077049103,47.64419937916682 164.49071985995397,47.33561344954069 164.37064713647123,46.97092052618973 163.89035624230746,45.98905247959192 163.38605080347043,45.34382293393719 162.2093381129671,44.249734477634775 161.17671269061975,43.35201751353452 160.5283199835103,42.70678157536895 160.40824726002757,42.65067402855493 160.0720436341362,42.734835344337625 159.87992727651726,42.98731913199299 159.73584000824485,43.09953407177818 159.32759274821728,43.21174896435696 158.39102550467942,44.221680868271505 157.9587636999786,44.61443112939014 157.09424009057693,45.17550192569615 156.39781829412095,45.51214383580373 153.97234927886166,46.353746748296544 152.17125842592213,46.74649386340752 151.69096753187478,46.74649386340752 151.47483662958257,46.662333816086175 151.30673481652047,46.38180013280362 150.5382693859283,44.27778808400035 149.9859348576283,42.65067402855493 149.72177486587316,41.72489779876196 148.52104763069656,39.0878205850604 148.01674219185952,38.16203196247807 147.63250947662164,37.20818577124737 147.60849493183196,36.98375087635941 147.63250947662164,36.871533358091256 147.8006112895673,36.70320699180593 148.4730185412336,36.254336161364336 149.45761487423442,35.8054645738157 150.44221120723523,35.41270131376223 151.69096753187478,34.82355533694499 152.8916947671678,34.09413470150321 153.39600020600483,33.869697180751245 153.85227655537892,33.50498580580461 154.0203783683246,33.39276682064519 155.1490619694814,33.0 155.36519287189003,33.05610958128818 155.55730922950897,33.224438254139386 155.7494255870115,33.533040544658434 156.0616146682296,34.26246271788841 156.27774557063822,34.68328229311737 156.5899346518563,35.21631946641719 156.92613827763125,35.637137533398345 157.47847280593123,36.170172796351835 158.27095278108027,36.81542458105832 159.0154036671156,37.57289207150461 159.1594909352716,37.79732646944467 159.56773819518276,38.75117054939619 159.73584000824485,39.39641607692465 159.95197091053706,40.60274047579151 159.95197091053706,41.19187366022379 159.855912731844,42.17375940323109 159.7598545529181,42.67872780346079 159.66379637410864,42.87510414479766 159.1594909352716,43.49228598875925 158.3429964153329,44.333895287738414 157.38241462712176,45.035234337556176 156.15767284703907,45.62435771123273 155.26913469296414,45.90489219271694 154.74081470945384,46.15737297345186 154.04439291299786,46.353746748296544 152.6515493200859,46.634280461090384 151.85906934482045,46.858707218430936 151.69096753187478,46.94286720364471 151.57089480839204,47.083133786625694 151.40279299532995,47.560039615636924 151.40279299532995,47.896678509918274 151.5228657189291,48.37358288138057 151.71498207654804,48.82243327394826 152.00315661297645,49.38349520036718 152.38738932833076,50.73003899867763 152.62753477541264,51.29109690437326 152.98775294597726,52.44126191386022 153.15585475892294,52.777894635044504 153.29994202707894,52.9181581432058 153.42001475056168,52.974263525771676 153.75621837645303,52.974263525771676 153.99636382365134,52.94621083603124 154.86088743293658,52.609578327683266 155.36519287189003,52.609578327683266 155.6053383188555,52.63763105295948 155.7494255870115,52.805947342625586 155.89351285528392,53.14257960260147 156.27774557063822,54.657419504539575 156.39781829412095,55.27457403030712 156.80606555414852,56.36861717305146 157.02219645644072,57.60291685923585 157.5024873506045,59.48240766211529 157.59854552941397,60.1556548710505 157.55051644006744,60.35201831947779 157.45445826114155,60.464225939445896 156.18168739182875,61.053315167693654 155.4612510506995,61.24967795412522 154.74081470945384,61.642403092439054 154.04439291299786,61.83876544429222 153.44402929535136,62.09123111254303 153.29994202707894,62.25954142500996 153.15585475892294,62.84862668061396 153.13184021413326,63.01693651420646 153.29994202707894,63.802380997512955 153.6361456529703,64.7280804492184 154.06840745778754,65.73793072559056 154.66877107531764,67.56126180061256 154.86088743293658,67.98202873679111 155.43723650602624,69.58093702991027 155.65336740831845,70.02975166690885 155.86949831061065,70.73102302252664 156.01358557876665,71.01153104758123 156.22971648117527,71.23593725488172 156.42183283891063,71.32008953380864 156.54190556250978,71.32008953380864 158.3189818705432,70.87127707208856 159.61576728476211,70.36636214811006 159.6878109187819,70.28220956772566 159.83189818705432,69.74924260744592 160.0,69.72119168526842 160.04802908934653,69.66508983197855 160.02401454478968,69.4406823006575 159.3996363823535,67.14049419929506 159.11146184592508,65.90623873259756 159.06343275657855,65.5415712496324 158.7992727648234,64.70002899799147 158.41504004935268,63.15719462762354 158.27095278108027,62.7083684047102 158.07883642346133,61.670454865903594 158.102850968251,61.50214418099495 158.15088005759753,61.41798879863927 158.27095278108027,61.50214418099495 158.3429964153329,61.614351316093234 158.60715640697163,62.25954142500996 158.89533094351646,63.18524624145357 159.0874473012518,64.13899935234804 159.44766547170002,65.1488518632541 159.56773819518276,65.7659820674453 159.9279563658638,66.94413575783256 160.0,67.56126180061256 160.36021817056462,68.7674585719069 160.4562763493741,68.90771365581895 160.5283199835103,68.93576466370723 160.96058178821113,68.87966264496208 162.16130902350415,68.57110133036622 162.71364355180413,68.37474394397577 163.3140071692178,68.23448857938638 164.5387489493005,67.78567091599689 165.69144709524699,67.30880131962476 166.38786889170296,67.11244300220278 167.06027614348568,66.77582840697141 168.06888702104334,66.46726465408574 168.5731924599968,66.35505956434645 169.50975970341824,65.93429005672806 170.6624578492483,65.56962261217996 171.5750105481129,65.3171602426446 171.98325780814048,65.1488518632541 172.31946143403184,65.09274904645281 172.39150506816804,65.1769032671873 172.29544688935857,65.26105746132089 171.98325780814048,65.40131439242396 168.83735245175194,66.43921338609653 166.62801433866844,67.33685249599512 162.47349810472224,68.71135651774239 162.32941083644982,68.79550959460903 162.28138174698688,68.90771365581895 162.25736720231362,69.07601965896902 162.30539629177656,69.24432555571548 162.49751264951192,69.74924260744592 162.8817453646334,71.06763261719607 162.9537889987696,71.23593725488172 163.24196353531443,71.57254621107131 164.05845805525314,74.12515027934569 164.61079258355312,75.5837701880373 164.77889439638238,76.17282596291625 165.0670689329272,76.78993061510846 165.7634907293832,79.09003535471857 166.00363617634866,79.6790833726991 166.2197670787573,80.38032931415364 166.31582525768317,80.82912574737566 166.2918107128935,80.96937447771779 166.14772344462108,81.0815734086791 166.17173798941076,81.16572257597 166.31582525768317,81.44621960807126 166.6520288833417,81.75476600209367 166.9642179646762,82.45600647712126 167.46852340351325,83.99872902149218 167.51655249285977,84.41946998247295 167.78071248461492,85.00850621087011 167.8047270292882,85.20485133075272 167.70866885059513,85.34509775633342 167.73268339515198,85.45729484368348 167.92479975288734,85.9341319372761 168.23698883410543,86.24267313096789 168.42910519172437,86.55121396726463" stroke="#4dd2ff" stroke-linecap="round" stroke-linejoin="round" stroke-width="0.5"><title>2023-08-04 9.2km</title></polyline><polyline fill="none" points="42.31744830100797,146.8611910303298 41.64400178589858,145.84325724595692 40.77248276700266,143.2984124647046 40.653639264404774,142.55809121459606 40.85171176865697,142.00284945816384 40.77248276700266,141.49387723157997 40.53479576180689,141.12371524173068 40.13865075306967,140.9386341298814 39.980192749528214,140.75355294012115 38.633299719775096,137.79224329683348 38.237154711270705,136.3578517610731 37.95985320513137,134.3682041343127 37.80139520158991,134.09057816746645 37.44486469379626,133.72040993874543 37.28640669025481,133.39651248281007 36.61296017537825,131.45312273103627 36.0583571633324,129.64853883368778 35.74144115624949,129.1395522915409 35.58298315294087,128.49175038465182 34.94915113877505,127.01105672397534 33.721101611852646,123.3555728760839 33.364571104058996,122.61521801212803 33.04765509720892,121.5046833762899 32.69112458918244,120.67178055646946 32.17613607784733,118.31188065634342 32.17613607784733,117.57151729028556 31.81960557005368,115.39669268473517 31.42346056131646,114.23986669827718 31.46307506226003,113.96222800808027 31.581918564857915,113.82340859723627 35.34529614751227,112.48148536300869 36.29604416852817,112.2501188737806 39.10867373039946,111.13955802848795 40.41595225920901,110.76937045605155 42.87205131328665,109.75135302278795 46.278898388147354,108.59451216610614 46.59581439523026,108.40941734620719 47.11080290633254,107.76158486228087 47.19003190821968,107.39139444261673 46.991959403734654,106.41964310576441 46.55619989428669,105.03142318030586 45.961982381064445,103.87456989040948 45.80352437775582,102.81026217213366 45.09046336193569,100.91301158140413 44.81316185602918,99.80242206642288 43.9416428366676,98.27535689721117 43.505883326986805,96.97966107437969 43.2285818210803,96.47063666937174 42.99089481588453,95.45258608928998 42.91166581399739,95.36003591952613 42.87205131328665,95.40631100689643 42.87205131328665,95.82278657323332 43.149352819425985,96.51691163974465 43.9416428366676,98.69182974271826 44.41701684705913,99.8949712998292 45.09046336193569,101.32948192540789 46.39774189051241,104.56868223010679 47.0711884056218,107.02120371052297 47.0711884056218,107.25257295460324 46.95234490302391,107.6227634914394 46.79388689948246,107.76158486228087 46.318512888858095,108.0392274725018 44.932005358627066,108.5019647658919 41.60438728518784,109.79762659367407 38.35599821386859,110.76937045605155 37.12794868671335,111.37092510293587 35.424525149166584,111.87993223741069 34.19647562224418,112.43521207483718 33.324956603115425,112.66657846668386 32.334594081388786,113.12931088462938 31.38384606037289,113.40695010128547 30.591556042898446,113.73086229889304 29.759651524713263,114.05477425776189 28.29391499259509,114.42495906091062 27.422395973466337,114.74887050778489 27.26393796969205,114.74887050778489 27.065865465439856,114.51750521294889 26.035888442769647,111.97247892568703 25.44167092978023,109.65880586646381 24.451308408053592,106.37336917890934 23.817476393887773,103.78202149551362 23.34210238349624,102.34751888134633 23.223258880898356,101.65340303102857 23.104415378300473,101.60712860195781 23.104415378300473,101.74595187447267 23.38171688420698,102.94908506423235 24.253235903568566,105.40161558950786 24.41169390687719,105.95690361814923 24.530537409707904,106.97492984714336 26.11511744442396,112.52775864629075 26.55087695410475,115.07278171580401 26.748949458356947,115.90569515348761 26.709334957646206,115.99824099353282 26.11511744442396,116.0445139061485 26.313189948676154,115.99824099353282 26.352804449619725,115.76687635687995 26.035888442769647,114.84141659154557 25.203983924351633,111.78738552948926 25.08514042175375,110.8619173783809 24.847453416557983,110.02899437505403 24.68899541324936,109.19606979194214 24.134392400970683,107.71531107698684 23.857090894831344,106.60473876420292 23.38171688420698,105.21651942405151 23.0648008773569,103.87456989040948 22.94595737475902,102.9953593519167 22.906342874048278,102.11614705325337 22.98557187570259,102.06987267293152 23.104415378300473,102.16242142856936 23.69863289128989,102.94908506423235 24.05516339931637,103.73574729083339 24.847453416557983,105.95690361814923 25.83781593828462,109.65880586646381 26.630105955991894,113.08303766473546 27.065865465439856,114.61005134542938 27.343166971579194,114.74887050778489 28.888132505584508,114.47123213938903 30.908472049981356,113.68458914244547 31.661147566512227,113.26813051488716 32.651510088238865,112.89794473652728 33.87955961516127,112.71285173032084 35.70182665530592,112.01875226257835 36.533731173723936,111.55601867454243 37.524093695450574,111.27837828782503 38.79175772354938,110.67682351419353 41.16862777573988,109.9827208284405 41.92130329227075,109.65880586646381 45.09046336193569,108.59451216610614 46.47697089263238,107.90040618935018 46.675043396884575,107.6227634914394 46.675043396884575,107.25257295460324 45.68468087515794,103.82829569544992 45.248921365477145,103.04163363474072 45.01123436028138,102.39379323244793 43.26819632179104,98.36790645259316 42.95128031494096,96.84083629515953 42.95128031494096,95.49886116676498 43.03050931659527,95.2674857302336 43.2285818210803,95.08238529326627 44.02087183832191,94.61963385922718 47.50694791506976,93.37020255168318 48.734997442224994,93.04627533597522 49.32921495521441,93.0 50.04227597080171,93.32392724975944 50.59687898308039,93.74040479128598 52.10223001614213,95.91533664558665 53.36989404424094,98.04398292355472 53.76603905274533,99.24712625559187 54.47910006856546,100.72791352393688 55.073317581787705,101.74595187447267 55.825993098085746,103.45810195998638 56.34098160942085,104.19848911874578 57.01442812429741,105.4941636431031 57.09365712595172,105.81808167687268 57.01442812429741,105.95690361814923 56.73712661815807,106.09572551568272 55.94483660068363,106.23454736926942 54.20179856242612,106.65101266661077 52.934134534560144,106.83610822763876 50.517649981426075,107.57648969144793 49.131142450729385,107.80785864286008 48.49731043702923,108.0392274725018 47.15041740727611,108.31686990702292 46.635428895941004,108.59451216610614 45.36776486807503,108.96470157173462 42.04014679486863,110.21408851223532 40.29710875637829,110.67682351419353 39.22751723299734,111.13955802848795 35.74144115624949,112.48148536300869 34.394548126729205,112.80539824318839 33.91917411610484,113.0367644399521 33.285342102404684,113.49949646781897 31.581918564857915,113.91595487605082 30.195411034161225,114.47123213938903 29.95772402896546,114.7951435521245 29.95772402896546,114.98023568073404 30.116182032739744,115.3041467180592 30.7500140464399,115.90569515348761 30.948086550692096,116.27587839664193 31.10654455423355,117.4789717819076 31.304617058718577,118.17306262030615 31.77999106911011,118.95969757781131 31.898834571707994,119.51496846438386 32.17613607784733,120.25532855433994 32.80996809178032,122.33758461632533 33.76071611279622,124.88255084166303 34.434162627439946,127.14987196671427 34.83030763617717,128.0290341518994 35.58298315294087,130.71278151628212 35.89989915979095,131.45312273103627 36.33565866947174,132.88753028362407 36.7714181789197,133.85922306103748 36.81103267963044,134.3682041343127 36.69218917726539,134.78464275537408 36.7714181789197,135.3398936361773 36.92987618246116,135.6175188133493 37.563708196394145,136.12649784897803 37.80139520158991,136.63547629481764 38.910601226147264,140.105768161593 39.346360735595226,141.21625576843508 39.3859752365388,141.54014745834866 39.346360735595226,141.67895810955088 39.18790273205377,141.8177687167772 39.306746234884486,142.3730107070587 39.46520423819311,142.6506314391154 39.94057824858464,142.92825199564686 40.21787975472398,143.3909525332274 40.693253765115514,144.82532110266038 41.24785677739419,147.0" stroke="#4dd2ff" stroke-linecap="round" stroke-linejoin="round" stroke-width="0.5"><title>2023-08-02 7.3km</title></polyline><polyline fill="none" points="171.66995776304975,147.0 171.50645572785288,146.57031717244536 170.934198604431,145.5677223240782 170.48456800775602,144.4696397073567 169.9940619021654,142.75089635772747 169.9940619021654,142.4166955051187 170.19843944604509,141.93926528826705 170.15756393736228,141.4618345684139 169.87143537588418,141.03214649055735 169.5035557965748,140.88891704083653 169.2583027437795,140.65020119061228 168.89042316447012,139.79082308872603 168.23641502391547,137.8810881395184 167.6641579004936,136.59201249977923 167.37802933878265,134.96872684921254 167.37802933878265,134.5390326155466 167.25540281250142,134.0615941004362 166.8057722155936,133.48866721824743 166.5605191627983,133.01122759652208 165.94738653069362,131.43567327648634 165.33425389858894,129.5259031211317 164.96637431927957,128.80973723818897 164.7211212667171,127.47289122873917 163.16785193234682,123.22360451036366 162.2277152298484,120.40663966847933 161.81896014185622,119.49947777180932 161.24670301866718,117.63740292616421 161.24670301866718,117.01670961058699 161.1649520008359,116.44376118012588 161.0832009834703,115.05913281624089 160.91969894827344,114.29519811467617 160.6335703865625,113.4835160834482 160.7561969126109,113.24478579754941 161.12407649192028,113.05380147826509 162.2277152298484,112.67183259813464 163.53573151142336,112.00338628343889 165.29337838990614,111.28719270930742 171.54733123653568,108.89987262009527 175.3896290641278,107.56296787661267 175.96188618731685,107.3242344718019 176.28889025747776,107.08550094094244 176.41151678422466,106.79902053819387 176.5341433105059,106.03507191158133 176.37064127530903,105.03238738485379 175.1852515200153,101.69008960499195 174.20423930860125,99.11172875901684 173.95898625603877,98.20452423134702 173.01884955330752,96.29461402579909 172.4465924303513,94.43244382424746 172.201339377556,93.33423729732749 171.9969618334435,93.14324458624469 171.7517087806482,93.0 171.30207818374038,93.0 170.6889455516357,93.28648912711651 169.13567621749826,93.85946683801012 167.9094109532889,94.1459554216417 167.0101497597061,94.48019187379396 165.53863144293427,94.81442807929125 164.43499270500615,95.33965590407024 162.35034175612964,96.10362256242661 160.83794793044217,96.53335324162617 159.40730512235314,97.05857907410245 156.3007664536126,98.01353357319022 153.8482359254267,98.87299090161105 153.03072574944235,99.06398119754158 151.7635849765502,99.25497141308733 148.37091774586588,100.44865843653679 146.3680178145878,101.35585847112816 144.40599339199252,101.88107871351531 143.75198525120504,102.16756222568802 143.6293587249238,102.45404555668938 143.46585668972693,103.26574734403403 143.79286075988784,104.36392980106757 144.65124644502066,106.2260591890954 145.42788111208938,108.3269139273907 145.95926272659563,109.99804142327048 146.3680178145878,111.04846126626944 147.55340756988153,114.67716562649002 148.207415710669,116.49150691044633 148.8205483427737,117.44642045805813 149.22930343076587,117.63740292616421 149.84243606287055,117.54191170219565 151.1095768357627,117.01670961058699 154.21611550473608,115.96630360156996 154.66574610141106,115.72757462362642 155.19712771568447,115.29786214636988 155.2380032246001,115.1546245632926 155.1562522072345,114.62941970507381 154.4613685575314,112.33760956407059 153.6029828726314,108.61339336432866 153.3986053285189,108.08818092491128 152.17234006430954,103.4089886850852 151.7635849765502,101.54684772054316 151.7635849765502,101.21261648109066 151.8453359939158,101.06937444585492 152.17234006430954,101.26036381616723 152.4584686262533,101.69008960499195 152.9489747316111,102.97926452633692 153.43948083743453,103.93420654788497 154.093488978222,106.89451402591658 154.33874203101732,107.51522120571462 154.91099915420637,109.80705573549494 155.1562522072345,110.52325164905051 155.44238076847978,111.62141651811544 155.76938483887352,112.76732484836248 155.8920113653876,113.34027792690904 156.01463789190166,113.57900816257461 156.1372644181829,113.62675419452717 157.36352968239225,113.4835160834482 158.91679901676252,112.8150709659385 161.57370708906092,112.00338628343889 162.63647031784058,111.71690898950328 163.1269764234312,111.52592402644223 164.51674372283742,111.00071496260352 165.94738653069362,110.66649069602136 167.21452730358578,110.0457878325251 171.22032716637477,108.51790023871581 174.7356209231075,107.3719811627816 175.51225559040904,107.13324765724246 175.75750864320435,107.18099436839111 175.75750864320435,107.3242344718019 175.59400660800748,107.46747452981072 174.12248829123564,108.2314207413292 173.3049781152513,108.4701536684588 171.71083327173255,109.18635169477784 169.13567621749826,109.99804142327048 165.6612579692155,111.43043151454185 163.00434989691712,112.33760956407059 161.94158666813746,112.62408646557014 159.97956224554218,113.34027792690904 159.16205206955783,113.67450022153207 158.95767452567816,113.81773827242432 158.91679901676252,113.96097627785639 158.95767452567816,114.24745215321309 159.40730512235314,115.10687869231333 159.69343368406408,116.25277820916381 160.2248152983375,117.58965731671196 160.7561969126109,118.30584093055222 160.8788234393578,118.59231405920582 162.18683972093277,122.31644825244439 162.96347438823432,124.9424219141074 164.0262376172468,127.7593585626455 164.80287228431553,130.19432359101484 165.6612579692155,132.62927553715417 165.90651102201082,133.67964292599936 165.94738653069362,134.5390326155466 166.02913754829206,134.9209830655309 166.23351509240456,135.35067693714518 166.64227018039674,135.78037040118943 167.6232823918108,138.21529233650654 167.99116197112016,139.4566200534755 168.604294602992,141.22311901993817 168.604294602992,141.4140914688178 168.3590415501967,141.74829306072206 168.31816604128107,141.89152223887504 168.604294602992,142.46443849912612 169.38092927029356,143.3238115318236 170.15756393736228,144.94706725885044" stroke="#4dd2ff" stroke-linecap="round" stroke-linejoin="round" stroke-width="0.5"><title>2023-07-31 6.0km</title></polyline><polyline fill="none" points="48.325883004348725,205.31099139896105 47.62475601444021,204.0826178198913 46.35396334552206,200.75575711560668 46.26632247166708,200.39747845043894 46.310142908710986,200.03919952103752 46.70452684024349,199.68092032737331 46.70452684024349,199.4761892411043 46.26632247166708,198.75962975935545 45.828118103090674,198.60608116161893 44.51350499736145,195.53509901513462 43.85619844426401,193.6413170163578 43.33035320183262,191.3892423286161 42.58540577511303,190.05846601564554 41.27079266915098,186.21966776787303 40.92022917419672,185.55427298735594 40.52584524266422,183.86518983653514 40.17528174747713,182.68794659202104 39.47415475780144,180.6405602422601 39.035950388992205,179.66804870363558 38.378643836127594,177.7230197863828 37.633696409408,175.82916835843935 37.50223509897478,175.06138864948298 37.15167160378769,174.1400513970002 36.88874898268841,172.34855729318224 36.187621993012726,171.01772882521618 36.09998111939058,169.68689671179163 36.275262866634876,169.22622320777737 36.538185487734154,168.97029329455108 39.035950388992205,167.997758394602 39.956179563421756,167.48589713900583 41.31461310596205,166.97403534402838 42.059560532681644,166.61573176670936 43.19889189116657,166.25742792512756 43.94383931788616,165.8479374969029 46.22250203485601,164.9265827711497 47.142731208819896,164.6706505928305 49.28993261535652,163.9028532487864 52.839388001477346,162.82793492850033 53.102310622576624,162.67437497436185 53.1461310593877,162.57200164458482 52.839388001477346,162.52081497159088 51.7876975168474,162.82793492850033 50.29780266317539,163.33980109202093 49.28993261535652,163.80048017800436 48.238242130493745,164.0564128146798 45.43373417132534,165.02895560473553 44.20676193921827,165.23370120720938 43.76855757040903,165.02895560473553 43.50563494930975,164.77302348031662 43.02361014368944,163.74929363434785 42.01574009587057,160.57571740209823 41.31461310596205,159.04010855662636 39.956179563421756,155.25225264957407 39.73707737913355,154.48444041932817 39.211232136702165,153.40950125842937 39.123591262847185,153.0 39.298873010324314,153.30712597622187 39.64943650527857,154.17731518758228 39.956179563421756,155.35462752179592 40.48202480585314,156.3271877327934 41.31461310596205,158.1699280559551 41.92809922224842,160.37096983654192 42.804507959401235,162.62318831225275 43.19889189116657,164.26115882696467 43.15507145435549,165.18251481471816 42.84832839644514,165.5408194491465 42.23484228015877,165.8479374969029 37.633696409408,167.84420007455628 33.90895927604288,169.07266527594766 32.33142354898155,169.4821529861365 31.63029655907303,169.533338925743 31.455014811595902,169.4821529861365 31.279733064118773,169.1750372359529 31.06063087983057,168.30487488914514 30.403324326965958,166.61573176670936 29.526915589580312,164.00522629817715 29.263992968481034,162.77674828257295 28.29994335724041,159.96147444634698 27.774098115041852,157.24855876801303 27.554995930520818,156.6343116054777 27.37971418327652,156.53193700269912 27.248252872843295,156.53193700269912 26.985330251511186,156.8390607459005 26.985330251511186,157.35093321977183 27.817918551852927,159.29604370114976 28.519045541528612,161.3435200045933 30.403324326965958,167.84420007455628 30.929169569164515,170.24994151241845 30.841528695542365,170.4546849144681 30.05276083177887,171.22247190377675 30.490965200820938,170.96654304218828 30.490965200820938,170.4546849144681 30.315683453110978,169.78926854216843 29.833658647723496,168.40724701079307 29.351633842103183,166.61573176670936 28.38758423109539,162.26488152582897 27.642636804375798,160.11503525820444 26.985330251511186,157.55568205821328 26.853868940845132,156.6343116054777 26.985330251511186,156.3271877327934 27.248252872843295,156.27600040173274 27.554995930520818,156.42956237844191 27.686457241186872,156.58312430678052 28.12466160999611,158.1699280559551 28.519045541528612,158.7841732769739 28.650506852427498,159.34723071398912 29.001070347381756,160.16622218463453 29.22017253166996,161.13877276267158 29.746017774101347,162.52081497159088 29.921299521345645,163.80048017800436 30.490965200820938,165.74556483590277 30.666246948065236,166.76929047514568 31.192092190496624,168.81673528192914 31.367373937973753,169.12385125862784 31.586476122261956,169.2774091742467 32.50670529645868,169.12385125862784 33.865138839231804,168.71436324639944 36.275262866634876,168.15131666621892 37.23931247764267,167.74182783422293 38.816848204704,167.2811524857534 39.91235912637785,166.8204767004645 42.1910218433477,166.00149644777412 43.54945538635366,165.28488759428728 44.51350499736145,165.13132841675542 46.485424656188115,164.26115882696467 48.19442169368267,163.595733971335 51.086570526938885,162.77674828257295 52.48882450652309,162.26488152582897 52.70792669081129,162.21369482041337 52.88320843828842,162.31606822583126 52.839388001477346,162.57200164458482 52.57646538014524,162.77674828257295 50.429263973841444,163.69810708553996 47.71239688829519,164.61946414085105 44.6011458709836,165.89912381928298 41.84045834862627,166.8204767004645 37.98425990459509,168.35606095258845 36.538185487734154,168.7655492668855 36.31908330344595,169.02147928791237 36.187621993012726,169.43096704120398 36.187621993012726,169.99401213854435 36.4067241770681,170.76179985582712 36.84492854587734,171.73432922258507 37.283132914453745,172.5532998108538 37.4145942251198,173.11634128948208 37.32695335149765,173.6793821156025 36.75728767225519,174.1400513970002 36.66964679863304,174.39597858686466 36.713467235444114,174.65190564194927 37.94043946755119,178.3884252922726 39.211232136702165,181.76662380227936 40.48202480585314,185.55427298735594 40.876408737385646,186.5267727439641 42.01574009587057,190.00728223851183 42.27866271720268,191.03095675678924 42.14720140630379,191.6963440370746 42.23484228015877,192.1058126796852 42.41012402786873,192.46409745892743 42.892148833256215,192.92474892974133 44.33822324988432,197.2241415976605 44.95170936593786,198.65726403298322 44.99552980274893,199.01554398136795 44.644966307794675,199.32264086959185 44.7764276182279,199.78328583817347 44.95170936593786,200.14156495625502 45.389913734514266,200.44866113300668 45.69665679242462,200.9093050340598 46.35396334552206,202.59832893527346 46.79216771409847,203.92907090409426 47.23037208290771,205.05508049274795 47.23037208290771,205.7716306906077 48.01913994643837,207.0" stroke="#4dd2ff" stroke-linecap="round" stroke-linejoin="round" stroke-width="0.5"><title>2023-07-29 5.9km</title></polyline><polyline fill="none" points="172.29285213374533,205.98017230583355 171.87926084687933,204.85299195360858 171.87926084687933,204.316238528525 172.1090337841306,203.6184582307469 172.06307919695973,203.35008093871875 171.69544249749742,202.65229931799695 171.0980328610167,202.3302459398401 170.82230533659458,202.00819235824747 170.6844415741507,201.68613857321907 170.50062322453596,201.04203039221466 170.3627594623249,199.75381158769596 170.08703193766996,198.46558952663327 169.30580395180732,196.69427887472557 168.57053055311553,194.2251689041732 168.06503009144217,193.58105129183969 167.78930256702006,193.04428599309176 167.19189293053932,191.32663323695306 166.13493742002174,188.69646623241715 165.9051644827705,187.4082162154955 165.12393649690785,184.34860937099438 164.9401181472931,182.899315505696 164.48057227302343,181.77208409371087 163.33170758769847,179.62496974301757 162.78025253862143,178.01462804194307 162.64238877641037,177.1020988188102 162.2287974897772,175.9211762212799 162.04497913992964,175.16967859782744 161.44756950368173,173.7203586222604 161.35566032887436,173.23725104756886 161.4935240908526,172.16367701924173 161.35566032887436,171.1437795968377 161.40161491627805,170.9827429751167 161.5394786784891,170.87538519885857 162.8721617134288,170.60699065966764 167.7433479798492,168.72822492587147 169.76534982584417,168.19143344374606 171.60353332245722,167.38624516013078 173.90126269310713,166.15162065328332 174.86630902905017,165.88322362559848 176.01517371460795,165.72218534105923 176.79640170070343,165.34642914583674 177.85335721098818,165.13171119539766 178.40481226006523,164.9169931547367 178.5886306099128,164.70227502333 178.54267602227628,164.64859547646483 178.3129030854907,164.5949159237789 176.75044711329974,164.9169931547367 172.29285213374533,166.52737625467125 170.3627594623249,167.0104901921004 169.44366771401837,167.439924418577 168.57053055311553,167.6546413959004 167.19189293053932,168.29879178549163 166.2268465948291,168.51350840099622 164.71034521004185,169.1039786268957 163.60743511212058,169.4260530071915 162.32070666458458,170.07020115706837 160.5284777553752,170.4996328043635 157.17379287374206,171.51953151630005 156.48447406245396,171.6805679682875 156.1168373634573,171.6268891565851 155.93301901360974,171.51953151630005 155.0598818527069,168.5671875406406 154.41651762882248,167.22520735056605 153.7271988177672,165.18539069150575 153.40551670570858,163.68236266396707 152.80810706922784,161.6425318196998 152.3026066077873,159.60269280779175 151.6132877964992,157.45548502419842 151.70519697130658,156.54291897558141 151.79710614611395,157.29444407549454 151.88901532092132,159.06589171028463 152.90001624426804,164.27283848938532 153.26765294349752,165.56114700547187 154.14079010440037,168.24511261750013 154.41651762882248,169.53341108874884 154.64629056607373,171.03642185463104 154.78415432828479,172.86150039493805 154.462472216459,174.04243008425692 153.77315340493806,174.52553689549677 150.234650173923,175.65278434025822 148.9938763140235,175.97485458065057 148.35051208990626,176.08221128222067 148.07478456571698,175.9211762212799 147.75310245365836,175.65278434025822 146.74210153054446,173.93507295288146 145.27155473316088,170.23123806720832 144.30650839745067,168.406150104478 143.1116891244892,165.13171119539766 142.60618866304867,164.21915889711818 142.42237031343393,163.4676440123585 142.1006882013753,162.55508873338113 141.73305150214583,161.10573287162697 141.4113693900872,160.13949333963683 141.5032785651274,159.71005295944633 141.6870969145093,159.49533263361081 142.1925973764155,159.1732519750949 143.70909876096994,158.9585314230062 144.21459922241047,158.7438107804046 144.85796344652772,158.26068900362588 145.22560014552437,158.1533285465557 146.05278271925636,158.1533285465557 147.8450116282329,158.42172964673955 150.09678641171195,157.99228781845886 150.96992357284762,157.50916532916017 152.80810706922784,156.00611465406837 153.81910799257457,155.41562924697064 157.26570204878226,154.18097572948318 160.43656858056784,153.53680748917395 161.95306996512227,153.05368077429011 162.41261583915912,153.0 162.78025253862143,153.26840381522197 163.5155259373132,154.4493789227563 164.9860727346968,156.4892385689309 165.07798190950416,157.18708341487218 165.81325530796312,159.1732519750949 166.1808920071926,160.83733318536542 166.87021081871353,162.93084698735038 167.3297566929832,164.004440471821 167.9271663292311,165.13171119539766 168.47862137830816,166.52737625467125 168.66243972769007,166.79577294323826 168.89221266517416,166.95681088842684 169.30580395180732,167.0104901921004 170.17894111271016,166.90313157893252 172.20094295893796,166.3663381737424 173.3957622316666,165.88322362559848 174.86630902905017,165.6148264564108 175.87730995216407,165.34642914583674 177.2099929873366,164.75595456466544 178.22099391021766,164.54123636556324 178.5886306099128,164.64859547646483 178.49672143510543,164.86331363028148 178.03717556083575,165.07803169370163 175.87730995216407,165.66850590147078 173.57958058151416,166.42001753981458 172.52262507076375,166.58105560357217 170.6844415741507,167.439924418577 168.11098467907868,168.29879178549163 165.72134613338858,168.94294136058306 163.837208049139,169.85548519762233 162.41261583915912,170.2849170260597 161.07993280421942,170.60699065966764 159.60938600706868,171.3584950133809 159.37961306981742,171.6268891565851 159.28770389501005,171.8952831585775 159.33365848264657,172.27103452384472 159.47152224485762,172.5931069018552 160.20679564331658,173.34460832591867 160.57443234254606,174.04243008425692 160.75825069239363,175.4380707333912 161.35566032887436,176.7263510164339 162.2287974897772,179.3029018099769 162.68834336381406,180.48381656903075 163.2397984128911,182.09415046597132 163.6533896997571,183.81183434609557 164.2967539234087,185.3684803606011 165.16989108431153,188.0523416310316 166.2728011822328,191.64869356970303 166.73234705626965,192.88325629307656 167.14593834313564,194.60090380196925 167.0540291685611,195.0303147743689 167.14593834313564,195.4597253850079 167.3757112803869,196.15751685533905 167.83525715442374,196.37222173099872 167.9731209166348,196.5332503282698 168.11098467907868,197.07001195190242 169.90321358805522,201.7398142181337 170.0410773504991,202.43759708851576 169.76534982584417,203.13537900341908 169.99512276309542,203.94051079457859 170.13298652530648,204.15521239081863 170.82230533659458,204.7993166364613 171.05207827338018,205.22871901473263 171.69544249749742,207.0" stroke="#4dd2ff" stroke-linecap="round" stroke-linejoin="round" stroke-width="0.5"><title>2023-07-26 6.1km</title></polyline><polyline fill="none" points="50.95155015098862,263.8022177545063 50.40397264342755,262.38604951347224 49.973733173217624,260.9698766483634 49.621719061164185,259.46233271082747 49.15236691199243,257.81773334823083 49.07414155360311,257.22384871260147 48.1745499339886,255.57924086178537 47.31407099380158,252.9295817624661 47.23584563564509,252.56411027151626 47.27495831460692,252.10727047472028 47.35318367276341,251.83316636574455 47.31407099380158,251.51337801956106 47.04028223990463,251.0108529989957 46.37536669499241,250.64537989118253 46.29714133683592,250.4626432217192 45.827789187431335,248.6352722926531 44.81085953046568,246.21399395170738 44.73263417230919,245.20893104744027 44.81085953046568,244.79776827889145 44.77174685150385,244.56934435013682 44.4979580976069,244.06681128338096 43.911267911083996,243.51859272818547 43.637479157419875,242.9703734802315 42.89433825411834,240.91454512730706 42.033859313698485,238.0820545440365 41.01692965673283,235.56934579912922 40.03911267919466,232.371331794071 39.68709856714122,231.64035385282477 39.569760529790074,231.09211958837113 39.256859096931294,230.1783942739421 38.943957664072514,228.8991755991883 38.74839426856488,227.8940725644934 38.591943552019075,227.30014694898273 38.43549283547327,226.34072692861082 38.08347872341983,225.28993113711476 38.00525336526334,224.60462816231302 38.08347872341983,224.2848197367275 38.239929439965636,224.1477589107235 39.882661962648854,223.50814114967943 40.70402822387405,222.9598966035992 41.60361984348856,222.64008696496603 42.698774858610705,222.00046698006918 45.28021167987026,221.31515880624647 46.453592053148896,220.76691148753162 48.370113329496235,220.3100381924305 48.722127441549674,220.127288739488 49.19147959095426,219.80747701175278 50.20840924791992,219.5333524857706 51.34267694200389,218.98510291421553 52.828958748141304,218.57391528051812 53.141860181232914,218.34547753783409 53.063634822843596,218.2541024069069 52.750733389984816,218.299789974757 51.96847980772145,218.52822774159722 47.118507598061115,220.40141288982704 45.90601454582065,220.76691148753162 41.99474663450383,222.22890279715648 40.977816977771,222.45733849413227 38.70928158937022,223.50814114967943 37.653239253442734,223.7365761725523 36.714534954633564,224.10207195905969 35.26736582769081,224.4675674374157 33.859309379709885,224.78737572825048 33.46818258846179,224.78737572825048 33.31173187214881,224.65031506094965 32.881492401706055,222.64008696496603 32.568590968847275,221.7720310424629 31.356097916606814,217.06622395434533 31.043196483748034,216.2895324374258 30.652069692499936,214.27926558000036 30.300055580446497,213.63963326183148 30.18271754332818,213.59394520302885 29.8698161104694,213.63963326183148 29.674252714728937,213.73100936505944 29.674252714728937,213.86807348375442 29.8698161104694,214.91889695468126 30.691182371694595,217.56878831237555 30.964971125358716,218.71097786835162 31.629886670503765,221.04103523358935 32.255689536221325,223.55382816394558 32.68592900619842,226.2493534825917 32.529478289885446,226.52347376284888 32.37302757357247,226.5691604592721 30.88674576720223,227.16308707604185 27.914182154927403,227.98544566394412 27.01459053531289,228.442310872284 26.858139818767086,228.71642976618023 26.897252497961745,228.76211623166455 27.249266610015184,228.5336838560761 30.18271754332818,227.5285799744015 32.255689536221325,226.7062205199618 32.529478289885446,226.52347376284888 32.68592900619842,226.15798001730582 32.68592900619842,225.5183652214182 32.216576856793836,223.6908891776693 32.13835149887018,222.9142095267598 30.84763308800757,218.1170396747766 30.730295050656423,217.2946623711032 29.94804146862589,214.05082557472633 29.752478072885424,213.1370643498085 29.752478072885424,213.0 30.065379505977035,213.04568812137586 30.26094290148467,213.2284405589453 30.57384433434345,214.0051375591429 31.16053452086635,216.60934675997123 31.47343595395796,218.1627272569458 31.708112028660253,218.93941541851382 31.78633738681674,219.6247273469926 32.02101346151903,220.40141288982704 33.27261919295415,224.60462816231302 33.42906990949996,224.83306260764948 33.58552062581293,224.92443635204108 33.93753473786637,224.92443635204108 35.03268975298852,224.60462816231302 36.9100983501412,223.82795014805743 39.10040838038549,223.1883319153858 40.977816977771,222.41165136444033 42.072971992893144,222.09184132132214 43.16812700801529,221.68065663371817 44.224169343942776,221.17809704170213 45.39754971722141,220.94966067082714 47.86164850136265,219.99022659935872 49.42615566565655,219.3962901579216 52.476944636087865,218.57391528051812 52.750733389984816,218.57391528051812 52.828958748141304,218.6196028146951 52.828958748141304,218.71097786835162 52.71162071102299,218.8937279181555 52.28138124058023,219.07647789095063 49.81728245667182,219.80747701175278 48.13543725479394,220.44710023148218 44.4979580976069,221.63496942206984 40.508464828366414,223.09695780507172 39.45242249243893,223.59951517326408 36.949211029335856,224.37619359660312 36.401633522007614,224.65031506094965 36.24518280522898,224.83306260764948 36.28429548442364,225.01581007710774 36.401633522007614,225.28993113711476 36.9100983501412,225.88385950608063 37.066549066687,226.2493534825917 37.49678853689693,227.93975911659072 37.966140686068684,228.8991755991883 38.904844984877855,232.05152909632307 40.0,235.24954545981018 40.743140903068706,237.71657054050593 41.52539448533207,239.7267287480645 42.62054950045422,242.92468851152807 42.85522557515651,243.9754415723146 42.85522557515651,244.61502914546872 43.16812700801529,245.39166993054096 43.55925379926339,245.71146279069944 44.02860594820231,246.6708399564377 45.43666239641607,250.55401156609878 45.554000433767214,251.0108529989957 45.28021167987026,251.37632579889032 45.241099000908434,251.51337801956106 45.31932435906492,251.7874823306338 45.514887754572555,252.19863847258966 46.02335258293897,252.60979422472883 46.179803299484774,252.88389784301398 47.35318367276341,255.99039340909803 47.50963438930921,256.5842797337973 47.62697242666036,257.3608990852663 48.331000650534406,258.6400338090607 49.58260638220236,262.6144640586281 50.873324792832136,266.2690804224403 50.912437472026795,266.5431754082674 50.71687407628633,266.86295267305104 50.75598675548099,267.0 51.02977550937794,267.0 51.38178962119855,266.86295267305104 52.00759248691611,266.45181043221965" stroke="#4dd2ff" stroke-linecap="round" stroke-linejoin="round" stroke-width="0.5"><title>2023-07-23 5.7km</title></polyline></svg>