<?xml version="1.0" encoding="utf-8" ?>
<svg baseProfile="full" height="300mm" version="1.1" viewBox="0,0,200,300" width="200mm" xmlns="http://www.w3.org/2000/svg" xmlns:ev="http://www.w3.org/2001/xml-events" xmlns:xlink="http://www.w3.org/1999/xlink"><defs /><rect fill="#222222" height="300" width="200" x="0" y="0" /><text fill="#FFFFFF" style="font-size:12px; font-family:Arial; font-weight:bold;" x="10" y="20">Over 5km Runs</text><text fill="#FFFFFF" style="font-size:4px; font-family:Arial" x="10" y="280">ATHLETE</text><text fill="#FFFFFF" style="font-size:9px; font-family:Arial" x="10" y="290">Melt</text><text fill="#FFFFFF" style="font-size:4px; font-family:Arial" x="120" y="280">STATISTICS</text><text fill="#FFFFFF" style="font-size:3px; font-family:Arial" x="120" y="285">Number: 4</text><text fill="#FFFFFF" style="font-size:3px; font-family:Arial" x="120" y="290">Weekly: 1.3</text><text fill="#FFFFFF" style="font-size:3px; font-family:Arial" x="141" y="285">Total: 23.6 km</text><text fill="#FFFFFF" style="font-size:3px; font-family:Arial" x="141" y="290">Avg: 5.9 km</text><text fill="#FFFFFF" style="font-size:3px; font-family:Arial" x="167" y="285">Min: 5.7 km</text><text fill="#FFFFFF" style="font-size:3px; font-family:Arial" x="167" y="290">Max: 6.1 km</text><polyline fill="none" points="72.50493664457463,115.5 72.25968359177932,114.85547575866804 71.4012979066465,113.35158348607365 70.7268520114012,111.70445956103504 69.99109285324812,109.12634453660576 69.99109285324812,108.62504325766349 70.29765916918404,107.90889793238603 70.23634590604343,107.19275185262086 69.80715306359343,106.54821973585058 69.25533369462937,106.3333755612257 68.88745411532,105.97530178591842 68.33563474658877,104.68623463308904 67.35462253564037,101.82163220923394 66.49623685074039,99.8880187496543 66.0670440082904,97.45309027383337 66.0670440082904,96.8085489232908 65.88310421863571,96.0923911506543 65.20865832315758,95.23300082737114 64.84077874408104,94.51684139476856 63.92107979604043,92.15350991475862 63.001380847766995,89.28885468171211 62.449561479035765,88.21460585726891 62.08168189995922,86.20933684310876 59.7517778982874,79.83540676551638 58.341572844656184,75.60995950270444 57.728440212551504,74.24921665771399 56.87005452765152,71.45610438921722 56.87005452765152,70.52506441588048 56.74742800113745,69.66564177017426 56.62480147485621,67.58869922434678 56.37954842229374,66.4427971719997 55.950355579843745,65.22527412517229 56.13429536903277,64.86717869632412 56.686114737764,64.58070221741218 58.341572844656184,64.00774889724562 60.30359726725146,63.00507942517288 62.94006758462638,61.93078906397568 72.32099685491994,58.34980893012835 78.08444359595887,56.344451814948115 78.94282928062603,55.986351707717404 79.43333538621664,55.62825141142821 79.61727517610416,55.198530807276256 79.80121496552601,54.052607867342886 79.55596191273071,52.54858107730979 77.77787728002295,47.53513440745883 76.30635896301828,43.66759313852526 75.93847938394174,42.30678634700598 74.52827433007769,39.44192103872774 73.66988864541054,36.648665736371186 73.30200906610116,35.00135594600579 72.99544274993241,34.71486687939614 72.62756317085586,34.5 71.95311727561057,34.5 71.03341832733713,34.92973369068932 68.70351432613097,35.789200257044286 66.8641164295841,36.218933132477105 65.51522463932633,36.72028781072004 63.30794716416858,37.22164211893687 61.65248905750923,38.00948385609081 58.52551263431087,39.155433843669016 56.25692189577967,39.80002986243926 54.110957683529705,40.58786861115368 49.45114968018606,42.02030035981443 45.772353888023645,43.30948635243112 44.546088623814285,43.59597179631237 42.64537746459246,43.88245711958734 37.55637661879882,45.67298765480518 34.55202672164887,47.03378770669224 31.6089900881052,47.821618070302065 30.627977876691148,48.25134333851747 30.44403808726929,48.68106833501952 30.198785034473985,49.89862101606559 30.689291139831766,51.54589470161591 31.976869667414576,54.339088783657644 33.141821668017656,57.490370891056955 33.93889408977702,59.99706213490572 34.55202672164887,61.57269189937506 36.33011135458946,67.01574843970593 37.311123566003516,69.73726036568405 38.23082251404412,71.16963068710174 38.8439551461488,71.45610438921722 39.763654094189405,71.31286755332258 41.66436525341123,70.52506441588048 46.324173256987706,68.94945540232584 46.998619152000174,68.59136193542508 47.79569157352671,67.94679321954027 47.85700483690016,67.7319368449389 47.73437831061892,66.94412955758162 46.69205283606425,63.506414346105885 45.40447430871427,57.920090046478435 45.097907992778346,57.13227138738148 43.258510096464306,50.113483027613256 42.64537746459246,47.32027158077108 42.64537746459246,46.81892472162144 42.768003990873694,46.60406166879693 43.258510096464306,46.89054572425084 43.68770293914713,47.53513440745883 44.42346209730022,49.468896789476275 45.159221255918965,50.90130982187111 46.14023346733302,55.34177103888942 46.50811304640956,56.27283180854283 47.36649873130955,59.71058360324241 47.73437831061892,60.78487747354666 48.163571152836084,62.43212477717316 48.654077258193865,64.15098727255827 48.83801704808138,65.01041689037811 49.02195683773607,65.36851224384736 49.20589662715793,65.4401312918053 51.045294523471966,65.22527412517229 53.37519852514379,64.2226064489223 57.36056063347496,63.00507942517288 58.954705476528034,62.575363484269474 59.69046463491395,62.288886039634235 61.7751155840233,61.50107244390529 63.92107979604043,60.99973604403203 65.82179095526226,60.06868174881674 71.83049074932933,57.77685035811737 77.10343138454482,56.05797174415784 78.26838338561356,55.69987148587825 78.63626296492293,55.77149155258667 78.63626296492293,55.986351707717404 78.3910099118948,56.20121179468697 76.18373243673705,57.347131112008356 74.95746717252769,57.705230502644554 72.56624990771525,58.77952754218131 68.70351432613097,59.99706213490572 63.49188695359044,62.14564727176912 59.506524845259264,63.506414346105885 57.91238000220619,63.93612969835522 54.96934336819686,65.01041689037811 53.74307810422033,65.51175033231266 53.436511788284406,65.72660740866559 53.37519852514379,65.94146441679914 53.436511788284406,66.37117822980508 54.110957683529705,67.66031803848455 54.54015052621253,69.37916731374571 55.337222947506234,71.3844859750825 56.13429536903277,72.45876139582833 56.31823515892029,72.88847108877962 58.280259581515566,78.47467237862293 59.445211582351476,82.41363287111744 61.03935642563738,86.63903784396825 62.20430842647329,90.29148538655136 63.49188695359044,93.94391330570215 63.85976653289981,95.51946438901359 63.92107979604043,96.8085489232908 64.04370632232167,97.38147459831089 64.35027263872325,98.02601540571777 64.96340527036227,98.6705556018278 66.43492358759977,102.32293850474525 66.986742956331,104.18493008019868 67.9064419043716,106.83467852987815 67.9064419043716,107.12113720318303 67.53856232506223,107.62243959109765 67.47724906192161,107.83728335832711 67.9064419043716,108.69665774866007 69.07139390520751,109.9857172977645 70.23634590604343,112.4206008882611" stroke="#4dd2ff" stroke-linecap="round" stroke-linejoin="round" stroke-width="0.5"><title>2023-07-31 6.0km</title></polyline><polyline fill="none" points="157.4888245065231,112.96648709842702 156.4371340216603,111.12392672977876 154.5309450183995,106.13363567338092 154.39948370773345,105.5962176756002 154.46521436283365,105.05879928148352 155.05679026036523,104.52138049103087 155.05679026036523,104.21428386162734 154.39948370773345,103.13944463903317 153.742177154636,102.90912174235564 151.77025749604218,98.30264852265827 150.78429766651243,95.46197552449303 149.99552980274893,92.08386349288048 148.87810866255313,90.08769902342465 146.90618900349364,84.32950165180955 146.38034376129508,83.33140948100481 145.7887678637635,80.7977847547736 145.2629226213321,79.0319198879879 144.21123213670217,75.9608403633465 143.55392558360472,74.50207305542426 142.56796575407498,71.58452967950143 141.450544614112,68.74375253764447 141.25335264857858,67.59208297420992 140.72750740568154,66.21007709548576 140.3331234739162,63.52283593977336 139.28143298928626,61.52659323782427 139.14997167885303,59.5303450676729 139.4128942999523,58.83933481160784 139.80727823171765,58.45543994178297 143.55392558360472,56.996637591859326 144.9342693448998,56.22884570847964 146.9719196590595,55.461053016013466 148.08934079902247,54.92359765002038 149.79833783674985,54.38614188769134 150.91575897694565,53.771906245325226 154.33375305240043,52.38987415668089 155.71409681322984,52.00597588921664 158.93489892291836,50.854279873135965 164.2590820020996,49.241902392706834 164.65346593386494,49.011562461499125 164.71919658896513,48.85800246684812 164.2590820020996,48.78122245735722 162.68154627503827,49.241902392706834 160.4467039948795,50.00970163795864 158.93489892291836,50.7007202670211 157.35736319585703,51.08461922197603 153.1506012568716,52.54343340708874 151.310142908711,52.85055181081407 150.65283635561354,52.54343340708874 150.2584524238482,52.15953522041673 149.53541521541774,50.62394045153633 148.02361014392227,45.86357610311825 146.9719196590595,43.56016283488134 144.9342693448998,37.87837897433201 144.6056160684675,36.7266606289777 143.81684820493683,35.1142518876004 143.68538689427078,34.5 143.94830951537006,34.96068896428915 144.47415475780144,36.26597278134432 144.9342693448998,38.03194128267933 145.7230372086633,39.49078159913188 146.9719196590595,42.254892083932646 147.89214883325621,45.55645475478377 149.20676193898544,48.934782468364574 149.79833783674985,51.39173824043246 149.73260718164966,52.77377222204814 149.2724925945513,53.31122917367611 148.35226342012174,53.771906245325226 141.450544614112,56.766300111834425 135.86343891406432,58.60899791389238 133.4971353232395,59.22322947916109 132.44544483860955,59.30000838858541 132.18252221727744,59.22322947916109 131.91959959617816,58.76255585387116 131.59094631974585,57.457312333688606 130.6049864902161,54.92359765002038 129.29037338448688,51.00783944723662 128.89598945248872,49.16512242384488 127.44991503586061,44.94221166946227 126.66114717256278,40.872838151990436 126.33249389589764,39.95146740815835 126.06957127479836,39.79790550400503 125.87237930903211,39.79790550400503 125.47799537726678,40.258591118850745 125.47799537726678,41.02639982959954 126.72687782766297,43.94406555168098 127.77856831229292,47.01528000686085 130.6049864902161,56.766300111834425 131.39375435374677,60.374912268598564 131.26229304331355,60.68202737165848 130.07914124778472,61.833707855665125 130.736447801115,61.449814563267864 130.736447801115,60.68202737165848 130.47352517955005,59.68390281323809 129.7504879713524,57.6108705161605 129.02745076315477,54.92359765002038 127.58137634652667,48.39732228871435 126.4639552065637,45.17255288729211 125.47799537726678,41.33352308726171 125.2808034112677,39.95146740815835 125.47799537726678,39.49078159913188 125.87237930903211,39.41400060255546 126.33249389589764,39.644343567604665 126.52968586189672,39.87468646012712 127.18699241476133,42.254892083932646 127.77856831229292,43.176259915402625 127.97576027852483,44.020846070954576 128.50160552095622,45.24933327693725 128.83025879738852,46.708159143978264 129.6190266609192,48.78122245735722 129.88194928178564,50.7007202670211 130.736447801115,53.61834725382505 130.99937042198144,55.15393571270397 131.7881382855121,58.22510292287916 132.0510609068442,58.685776887869 132.37971418327652,58.91611376137007 133.7600579445716,58.685776887869 135.7977082587313,58.07154486957006 139.4128942999523,57.22697499929927 140.8589687163476,56.61274175130529 143.22527230717242,55.92172872857191 144.86853868933395,55.23071505065309 148.28653276502155,54.00224467163207 150.32418307941407,52.927331391430926 151.77025749604218,52.696992625133134 154.72813698416576,51.39173824043246 157.291632540524,50.39360095700249 161.6298557901755,49.16512242384488 163.73323675990105,48.39732228871435 164.06189003633335,48.32054223056184 164.32481265743263,48.474102338717785 164.2590820020996,48.85800246684812 163.86469807033427,49.16512242384488 160.64389596064575,50.54716062825173 156.56859533232637,51.929196211276576 151.9017188064754,53.84868572890991 147.760687522823,55.23071505065309 141.97638985677622,57.53409142885357 139.80727823171765,58.14832390029915 139.47862495528534,58.5322189318249 139.28143298928626,59.14645056176232 139.28143298928626,59.99101820780197 139.61008626571856,61.14269978372613 140.267392818816,62.601493833819404 140.92469937168062,63.82994971628068 141.12189133744687,64.67451193416491 140.99043002701364,65.51907317334553 140.13593150814995,66.21007709548576 140.00447019771673,66.59396788023878 140.07020085304976,66.9778584628948 141.91065920121036,72.58263793837978 143.81684820493683,77.64993570337538 145.7230372086633,83.33140948100481 146.31461310619488,84.79015911591705 148.02361014392227,90.01092335773865 148.4179940756876,91.54643513512565 148.2208021094557,92.54451605555369 148.35226342012174,93.15871901949868 148.61518604168668,93.69614618836204 149.33822324988432,94.38712339458289 151.50733487471007,100.83621239644708 152.42756404867396,102.98589604941662 152.49329470400698,103.52331597200828 151.9674494615756,103.98396130435867 152.16464142734185,104.67492875724565 152.42756404867396,105.21234743436798 153.0848706017714,105.67299169948092 153.54498518863693,106.36395755107515 154.5309450183995,108.89749340288108 155.1882515710313,110.89360635611229 155.84555812436156,112.58262073906371 155.84555812436156,113.65744603588246 157.02870991942473,115.5" stroke="#4dd2ff" stroke-linecap="round" stroke-linejoin="round" stroke-width="0.5"><title>2023-07-29 5.9km</title></polyline><polyline fill="none" points="73.43927820050158,263.97025845880853 72.818891270319,262.2794879304711 72.818891270319,261.4743577928166 73.16355067607947,260.4276873461786 73.0946187954396,260.0251214081072 72.54316374612972,258.9784489769954 71.64704929152504,258.49536890978925 71.23345800465904,258.0122885374003 71.02666236134246,257.5292078598286 70.75093483692035,256.563045588322 70.54413919337094,254.63071738160215 70.13054790673777,252.698384289979 68.95870592794381,250.04141831211746 67.85579582978971,246.33775335625978 67.09754513716325,245.37157693778863 66.68395385053009,244.56642898963764 65.78783939569257,241.9899498554296 64.20240613026544,238.04469934862573 63.857746724039316,236.11232432333054 62.68590474524535,231.52291405649157 62.41017722082324,229.3489732586313 61.72085840953514,227.6581261405954 59.9975613814313,224.43745461461367 59.17037880816497,222.0219420628855 58.96358316461556,220.65314822818618 58.34319623466581,218.88176433194894 58.06746871001087,217.75451789674116 57.171354255406186,215.5805379333906 57.03349049319513,214.8558765713242 57.24028613651171,213.2455155289499 57.03349049319513,211.71566939528566 57.10242237430066,211.47411446273327 57.30921801761724,211.31307779834606 59.30824257014319,210.91048598953057 66.61502196965739,208.0923373888363 69.64802473876625,207.2871501656482 72.40529998391867,206.07936774019618 75.85189403966069,204.22743097995408 77.29946354357526,203.82483543845592 79.02276057191193,203.58327801164705 80.19460255093873,203.0196437187842 81.78003581659868,202.69756679306738 82.60721839009784,202.37548973207595 82.88294591475278,202.0534125350532 82.81401403364725,201.97289321472635 82.46935462811962,201.89237388572656 80.1256706698332,202.37548973207595 73.43927820050158,204.7910643820651 70.54413919337094,205.5157352881506 69.16550157102756,206.1598866278655 67.85579582978971,206.4819620939088 65.78783939569257,207.44818767823745 64.34026989224367,207.77026260155253 62.065517815062776,208.65596794034354 60.41115266829729,209.13907951075817 58.481059996876866,210.10530173563166 55.79271663306281,210.74944920651615 50.760689310729504,212.27929727442097 49.72671109368093,212.52085195248947 49.175256045069546,212.44033373490674 48.899528520414606,212.27929727442097 47.589822778943926,207.85078131099 46.62477644323371,205.83781102590729 45.590798226883635,202.77808603731683 45.10827505867928,200.5235439959215 44.21216060384177,197.4637977295206 43.45390991168097,194.40403921174584 42.419931694632396,191.18322753632674 42.55779545707628,189.81437846343033 42.695659219287336,190.9416661132709 42.83352298149839,193.59883756551426 44.35002436628565,201.4092577341362 44.9014794153627,203.3417205082369 46.21118515683338,207.3676689263084 46.62477644323371,209.30011663312325 46.96943584899418,211.55463278200477 47.17623149231076,214.29225059243618 46.69370832457207,216.06364512641449 45.6597301075235,216.78830534324516 40.351975261000916,218.47917651041644 38.49081447091885,218.96228187100496 37.525768134742975,219.123316923331 37.11217684834264,218.88176433194894 36.62965368037112,218.47917651041644 35.11315229581669,215.9026094293804 32.907332099741325,210.3468571008416 31.45976259605959,207.6092251567752 29.66753368685022,202.69756679306738 28.90928299445659,201.32873834564816 28.63355547003448,200.20146601862507 28.15103230206296,198.8326331001008 27.59957725298591,196.65859930746956 27.11705408524722,195.20924000948435 27.254917847691104,194.5650794391986 27.530645371880382,194.24299895041622 28.288896064506844,193.75987796264235 30.563648141454905,193.43779713456752 31.321898833848536,193.115716170636 32.28694516979158,192.39103350543883 32.83840021840297,192.22999281989178 34.07917407876812,192.22999281989178 36.767517442349344,192.63259447016753 40.145179617684335,191.9884317276883 41.454885359387845,191.26374799374025 44.21216060384177,189.00917198113166 45.72866198886186,188.12344387045596 50.89855307317339,186.27146359428298 55.654852870851755,185.30521123379003 57.929604947566986,184.58052116149338 58.61892375885509,184.5 59.17037880816497,184.90260572289117 60.273288905853406,186.67406838416355 62.4791091021616,189.73385785345454 62.616972864372656,190.78062512236647 63.71988296206109,193.75987796264235 64.27133801090531,196.25599977810634 65.30531622795388,199.39627048105467 65.99463503947482,201.0066607077606 66.89074949384667,202.69756679306738 67.71793206734583,204.7910643820651 67.9936595915351,205.1936594148283 68.33831899776123,205.43521633266937 68.95870592794381,205.5157352881506 70.26841166894883,205.35469736839877 73.30141443852335,204.54950726067182 75.09364334749989,203.82483543845592 77.29946354357526,203.42223968461622 78.81596492812969,203.0196437187842 80.8149894811213,202.13393184699817 82.3314908654429,201.81185454834485 82.88294591475278,201.97289321472635 82.74508215254173,202.29497044545133 82.05576334125362,202.61704754061066 78.81596492812969,203.50275885220617 75.36937087215483,204.63002630975097 73.78393760626204,204.87158340541646 71.02666236134246,206.1598866278655 67.16647701850161,207.44818767823745 63.58201920008287,208.4144120409037 60.7558120735921,209.7832277964335 58.61892375885509,210.42737553908955 56.619899206096306,210.91048598953057 54.41407901071943,212.03774252004223 54.069419604726136,212.44033373490674 53.93155584251508,212.84292473789537 54.00048772385344,213.40655178576708 54.20728336717002,213.88966035284102 55.31019346509129,215.0169124889071 55.861648513935506,216.06364512641449 56.137376038590446,218.15710610017413 57.03349049319513,220.08952652470907 58.34319623466581,223.95435271499446 59.032515045721084,225.72572485357523 59.85969761922024,228.14122569892788 60.48008454940282,230.71775151917245 61.44513088511303,233.05272054095985 62.75483662635088,237.0785124465474 64.4092017733492,242.47304035461275 65.0985205846373,244.32488443964394 65.71890751481988,246.90135570295388 65.58104375260882,247.54547216155333 65.71890751481988,248.18958807754098 66.06356692058034,249.23627528297948 66.75288573186845,249.55833259655628 66.9596813749522,249.79987549240468 67.16647701850161,250.60501792788273 69.85482038231567,257.60972132720053 70.06161602563225,258.65639563283185 69.64802473876625,259.7030685050995 69.99268414452672,260.9107661919552 70.19947978807613,261.23281858628616 71.23345800465904,262.19897495472105 71.57811741018668,262.84307852212805 72.54316374612972,265.5" stroke="#4dd2ff" stroke-linecap="round" stroke-linejoin="round" stroke-width="0.5"><title>2023-07-26 6.1km</title></polyline><polyline fill="none" points="161.42732522636652,260.70332663174486 160.60595896514133,258.57907427020837 159.96059975982644,256.4548149725306 159.4325785918627,254.19349906622665 158.72855036798865,251.72660002234625 158.6112123306375,250.83577306888765 157.26182490121573,248.3688612926635 155.97110649058595,244.39437264367007 155.85376845346764,243.84616540727438 155.91243747179396,243.16090571210952 156.02977550937794,242.74974954861682 155.97110649058595,242.2700670293416 155.56042335974053,241.51627949846443 154.56305004260503,240.96806983678835 154.44571200525388,240.69396483257879 153.741683781147,237.95290843897965 152.21628929581493,234.3209909275174 152.09895125869662,232.81339657114586 152.21628929581493,232.19665241835173 152.1576202774886,231.85401652520522 151.74693714664318,231.100216925086 150.866901866626,230.2778890922782 150.4562187360134,229.45556022034725 149.34150738129392,226.3718176909606 148.05078897066414,222.12308181606932 146.52539448533207,218.35401869867928 145.058669018792,213.55699769110652 144.53064785082825,212.46053077920806 144.3546407946851,211.63817938254215 143.88528864528053,210.2675914108986 143.41593649610877,208.34876339876791 143.12259140284732,206.841108846711 142.88791532814503,205.95022042345954 142.65323925344273,204.51109039288713 142.125218085479,202.93489670567214 142.00788004789501,201.90694224345498 142.125218085479,201.42722960509127 142.35989415994845,201.22163836605614 144.8239929440897,200.2622117244755 146.0560423359275,199.4398449053988 147.40542976534925,198.9601304474636 149.04816228779964,198.00070047011832 152.9203175199218,196.97273820935516 154.68038807972334,196.15036723128287 157.55516999447718,195.46505728864577 158.08319116244093,195.1909331092029 158.7872193865478,194.71121551765827 160.31261387187988,194.30002872867044 162.01401541312225,193.4776543712942 164.24343812232837,192.86087292077718 164.71279027173296,192.51821630675113 164.5954522343818,192.38115361036034 164.12610008521006,192.4496849621646 162.9527197116986,192.79234161239583 155.6777613973245,195.60211933474056 153.85902181873098,196.15036723128287 147.99211995187216,198.34335419576382 146.46672546654008,198.6860077411984 143.06392238405533,200.2622117244755 141.4798588801641,200.604864258843 140.07180243218318,201.15310793858953 137.90104874153621,201.701351156109 135.7889640694484,202.18106359237572 135.2022738829255,202.18106359237572 134.96759780822322,201.97547259140993 134.3222386026755,198.9601304474636 133.85288645350374,197.65804656367982 132.03414687491022,190.59933593153255 131.56479472573847,189.43429865612416 130.9781045387499,186.41889837000053 130.45008337078616,185.45944989274722 130.27407631487586,185.39091780455783 129.8047241657041,185.45944989274722 129.51137907220982,185.59651404758915 129.51137907220982,185.80211022560252 129.8047241657041,187.378345432051 131.0367735575419,191.35318246856332 131.4474566881545,193.06646680255653 132.44483000575565,196.56155285041314 133.383534304332,200.33074224588927 134.02889350941405,204.37403022387298 133.79421743494458,204.78521064430242 133.5595413602423,204.85374068893725 131.33011865080334,205.74463061406277 126.8712732323911,206.97816849593073 125.52188580296934,207.66346630844055 125.28720972826704,208.07464464922668 125.34587874705903,208.14317434746772 125.87389991502278,207.80052578414325 130.27407631487586,206.2928699615877 133.383534304332,205.05933077994268 133.79421743494458,204.78521064430242 134.02889350941405,204.23697002592962 134.02889350941405,203.27754783211276 133.32486528554,200.53633376647485 133.20752724818885,199.37131429015426 131.27144963201135,192.1755595121649 131.09544257610105,190.94199355662568 129.92206220282242,186.0762383620604 129.62871710932814,184.7055965246982 129.62871710932814,184.5 130.09806925896555,184.56853218202014 130.39141435245983,184.84266083838884 130.8607665016316,186.00770633871434 131.74080178141594,189.91402013995685 132.21015393105336,192.2440908853896 132.56216804287396,193.40912312775617 132.6795060802251,194.43709102051798 133.03152019227855,195.60211933474056 134.90892878966406,201.90694224345498 135.14360486436635,202.24959391145967 135.37828093883581,202.38665452803252 135.9063021070324,202.38665452803252 137.54903462948278,201.90694224345498 140.36514752544463,200.7419252221007 143.65061257081106,199.78249787306413 146.46672546654008,198.61747704667505 148.10945798945613,198.1377619819832 149.75219051190652,197.5209849505918 151.33625401603058,196.76714556256775 153.09632457606494,196.42449100624071 156.79247275204398,194.98533989902353 159.13923349860124,194.09443523688242 163.7154169541318,192.86087292077718 164.12610008521006,192.86087292077718 164.24343812232837,192.9294042220572 164.24343812232837,193.06646680255653 164.06743106641807,193.34059187723324 163.42207186110318,193.61471683642594 159.72592368512414,194.71121551765827 157.20315588242374,195.67065034719417 151.74693714664318,197.45245413313387 145.76269724289887,199.64543670759303 144.1786337387748,200.39927275991067 140.42381654423662,201.56429039489012 139.60245028301142,201.97547259140993 139.3677742080763,202.24959391145967 139.42644322663546,202.52371511567617 139.60245028301142,202.93489670567214 140.36514752544463,203.8257892591064 140.59982360014692,204.37403022387298 141.2451828054618,206.90963867487153 141.94921102910303,208.34876339876791 143.35726747731678,213.0772936444846 145.0,217.87431818968616 146.11471135471947,221.5748558107298 147.28809172823094,224.59009312209673 148.93082425068133,229.3870327672921 149.28283836273476,230.9631623584428 149.28283836273476,231.92254371818854 149.75219051190652,233.08750489581143 150.33888069889508,233.5671941860346 151.0429089225363,235.00625993468566 153.15499359485693,240.83101734914817 153.3310006505344,241.51627949846443 152.9203175199218,242.06448869832093 152.86164850136265,242.2700670293416 152.9789865387138,242.6812234959798 153.27233163197525,243.2979577088845 154.03502887440845,243.91469133709325 154.26970494934358,244.32584676449187 156.02977550937794,248.98559011361795 156.2644515838474,249.8764196006814 156.44045863999054,251.04134862788487 157.49650097615086,252.96005071356194 159.37390957330354,258.92169608792756 161.3099871892482,264.4036206336459 161.3686562080402,264.8147631124011 161.07531111431308,265.29442900960566 161.13398013310507,265.5 161.54466326418333,265.5 162.07268443191424,265.29442900960566 163.0113887307234,264.6777156483149" stroke="#4dd2ff" stroke-linecap="round" stroke-linejoin="round" stroke-width="0.5"><title>2023-07-23 5.7km</title></polyline></svg>