<?xml version="1.0" encoding="utf-8" ?>
<svg baseProfile="full" height="300mm" version="1.1" viewBox="0,0,200,300" width="200mm" xmlns="http://www.w3.org/2000/svg" xmlns:ev="http://www.w3.org/2001/xml-events" xmlns:xlink="http://www.w3.org/1999/xlink"><defs /><rect fill="#222222" height="300" width="200" x="0" y="0" /><text fill="#FFFFFF" style="font-size:12px; font-family:Arial; font-weight:bold;" x="10" y="20">Over 5km Runs</text><text fill="#FFFFFF" style="font-size:4px; font-family:Arial" x="10" y="280">ATHLETE</text><text fill="#FFFFFF" style="font-size:9px; font-family:Arial" x="10" y="290">Melt</text><text fill="#FFFFFF" style="font-size:4px; font-family:Arial" x="120" y="280">STATISTICS</text><text fill="#FFFFFF" style="font-size:3px; font-family:Arial" x="120" y="285">Number: 12</text><text fill="#FFFFFF" style="font-size:3px; font-family:Arial" x="120" y="290">Weekly: 2.4</text><text fill="#FFFFFF" style="font-size:3px; font-family:Arial" x="141" y="285">Total: 74.6 km</text><text fill="#FFFFFF" style="font-size:3px; font-family:Arial" x="141" y="290">Avg: 6.2 km</text><text fill="#FFFFFF" style="font-size:3px; font-family:Arial" x="167" y="285">Min: 5.3 km</text><text fill="#FFFFFF" style="font-size:3px; font-family:Arial" x="167" y="290">Max: 9.2 km</text><polyline fill="none" points="50.29769597086124,87.0 49.86155825923197,85.98118230653927 48.650064615532756,82.58510937722167 48.553145124111325,81.96249367867131 48.650064615532756,81.05686955660349 48.553145124111325,80.66065852326574 48.310846395324916,80.09464225440752 47.72932944633067,79.69843051157659 47.48703071754426,79.35882021370344 46.71167478593998,77.43435780482832 45.694020125083625,74.54765126813436 45.354801904642954,72.8495813550544 45.30634215916507,71.94394187367288 45.06404343014583,71.60432667459827 44.62790571874939,71.26471126102842 44.28868749854155,70.58547978976276 42.93181461771019,66.56667601503432 42.5441366515588,65.54781957762316 39.58809216110967,56.26481637527468 39.00657521211542,54.9063146483968 38.521977754775435,52.868555617460515 38.521977754775435,52.4157192275743 38.32813877169974,50.71757936646463 38.03738029743545,49.698692873411346 37.55278283986263,48.509989522746764 37.40740360273048,47.88733433687594 37.504323094151914,47.434493748587556 37.940460805781186,47.03825792070711 41.720320974010974,45.39670637756353 44.96712393895723,44.15138806786854 46.614755294285715,43.64193883648841 54.31985486787744,40.86826232384192 55.87056673155166,40.245598281384446 56.16132520604879,40.01917481434066 56.01594596868381,39.90596304484643 55.6767277487088,39.90596304484643 54.22293537622318,40.245598281384446 50.78229342843406,41.32110844698036 48.26238664938137,42.000376915792 45.79093961650506,42.90606687165564 43.174113346263766,44.094782621541526 39.103494703769684,45.509916989831254 35.51747351861559,46.92504763044417 32.949106994085014,47.66091409052024 32.31913029938005,47.66091409052024 32.125291316304356,47.6043090140447 31.931452333228663,47.26467842963757 30.38074046978727,42.34001082816394 30.0415222493466,40.64183911914006 29.508465046063066,39.67953943472821 29.072327334433794,38.37760182382772 27.812373945256695,34.188737669202965 27.666994707658887,34.0189181631431 27.473155725048855,34.188737669202965 27.42469597910531,34.35855712147895 27.473155725048855,34.86801515641855 28.490810385439545,37.58511651598383 29.21770657156594,40.41541581909405 29.750763774849474,41.66074278880842 30.13844174076803,43.1324891220429 30.574579452397302,44.43441520992201 31.592234113253653,49.4722733903327 31.49531462159939,49.75529772922164 31.107636655680835,50.03832191915717 29.46000530035235,50.8307888575946 24.08097352250479,52.47232379729394 24.3232722512912,52.47232379729394 26.74625953868963,51.62325462704757 28.733109114458784,50.88739359413739 30.0415222493466,50.547765085240826 30.574579452397302,50.20813636149978 30.332280723843724,50.43455553450622 29.653844283428043,50.8307888575946 26.794719284633175,51.79306856851326 25.00170869193971,52.18930088967318 23.838674793951213,52.64213747018948 23.935594285605475,52.75534655578667 24.66249047149904,52.52892836095998 26.213202335638925,51.849673203600105 28.8784883513581,51.0572077682009 30.768418435472995,49.98171709309099 30.96225741854869,49.81190257926937 31.05917690997012,49.5854831438628 30.0415222493466,44.60423142364016 29.605384537484497,43.472122318751644 29.023867588490248,40.81165653170319 28.684649368515238,40.01917481434066 28.393890894018114,38.54741995193763 28.151592165231705,37.924753219704144 27.570075216237456,34.528376520145684 27.18239725055173,33.50945932301693 27.18239725055173,33.22642642533174 27.376236233394593,33.0 27.618534962181002,33.0 27.95775318215601,33.22642642533174 28.636189622571692,34.47177005984122 28.975407843012363,35.60389813146321 29.266166317509487,36.28317382920068 29.79922352056019,38.32099576923065 30.0415222493466,39.67953943472821 30.332280723843724,40.81165653170319 30.96225741854869,42.84946129418677 31.204556147335097,44.94386368995765 31.97991207917221,46.86844247643603 32.07683157059364,47.943939383665565 32.27067055366933,48.11375448806211 32.99756673979573,47.943939383665565 34.25752012943849,47.37788864830509 36.09899046737701,46.811837316374294 37.31048411107622,46.24578538816422 39.58809216110967,45.509916989831254 42.737975634634495,44.094782621541526 45.354801904642954,43.189094669767655 47.77778919227421,42.50982770381961 49.37696080165915,41.83055987919215 52.67222351231612,40.86826232384192 54.27139512216672,40.245598281384446 55.77364724013023,39.90596304484643 55.91902647749521,40.01917481434066 55.91902647749521,40.18899242358748 55.628268002998084,40.41541581909405 52.57530402089469,41.60413707996486 51.509189614560455,42.056982582842465 46.80859427736141,43.64193883648841 45.54864088795148,44.20799350831658 40.26652860152535,45.962759200367145 39.103494703769684,46.528811426775064 36.922806145157665,47.26467842963757 35.95361123024486,47.7175191611168 35.75977224716917,48.00054442451801 35.71131250145845,48.170359510870185 35.85669173882343,48.623199478839524 36.77742690802552,49.24585381196812 37.06818538252264,49.52887827012455 37.40740360273048,50.09492673922796 37.601242585573345,50.88739359413739 37.74662182270549,51.90627783280797 38.23121928027831,53.15157816722058 38.618897246196866,54.96291895559989 39.1519544494804,56.208212205267046 39.83039088989608,58.5289782868349 40.65420656744391,60.623319560079835 41.62340148235671,64.18934132222785 43.94946927833371,71.03830086597009 44.094848515233025,71.71753176493803 44.04638876975514,72.79297893214971 44.24022775283083,73.2457981480984 44.676365464460105,73.64201464899816 44.82174470159225,73.92502625635825 45.354801904642954,75.79289912729291 46.17861758242361,77.83057121711317 46.42091631144285,78.73620077694068 47.00243325997144,80.32104883348802 47.00243325997144,80.71726011740975 46.80859427736141,81.0002679983736 46.85705402307212,81.17007265542634 47.14781249756925,81.73608779133065 47.77778919227421,82.24550090392586 48.06854766677134,82.64171076868661" stroke="#4dd2ff" stroke-linecap="round" stroke-linejoin="round" stroke-width="0.5"><title>2023-08-15 6.1km</title><desc>9652797631</desc></polyline><polyline fill="none" points="108.53525691013783,82.82027786795516 108.39018172188662,81.860066830297 108.6319737022277,81.06930350803304 108.53525691013783,80.73040458455216 108.24510653363541,80.1090893347864 107.7131641767919,79.77018980437424 106.45584587822668,76.833051567839 105.68211154057644,74.5737035148777 105.44031956023537,72.93567022349453 105.44031956023537,72.37082999711856 105.2468859758228,72.0319255758659 105.10181078780442,71.52356854215031 104.56986843072809,70.95872682839399 104.27971805422567,70.2244317108416 103.60270050889812,68.19099382945569 103.21583333984017,67.34372576960595 103.02239975589328,66.27051763836062 102.58717419090681,65.36676175653702 102.20030702231452,64.01112507743528 101.62000626907684,62.59899989212863 101.1847807043232,61.18687098741066 100.9429887237493,60.113650532555766 100.45940476283431,58.870971532480326 98.42835212708451,53.22239432227798 98.23491854243912,52.26213027833728 98.28327693860047,51.64078203914687 98.47671052324586,51.188891958328895 98.33163533499464,50.39808340056334 98.47671052324586,49.381327826471534 98.42835212708451,48.87294931645738 98.23491854243912,48.308083739713766 97.70297618559562,47.347810893727 97.60625939350575,46.89591719460441 97.75133458175696,46.7264569591498 99.00865288008936,46.10510230442742 100.26597117842175,45.76618128019618 102.00687343766913,44.97536472353386 105.39196116430685,43.958598865312524 107.7131641767919,43.05480537249241 111.29168548737653,41.98154862091178 115.93409151211381,40.230440887098666 116.12752509652637,40.06097854487598 116.12752509652637,39.94800362014212 115.64394113561139,39.89151614892762 113.46781331137754,40.39990317582851 110.03436718904413,41.64262498973403 104.4731516384054,43.11129251058446 101.37821428873576,44.41049504041439 98.13820175034925,45.48374692950165 96.15550751099363,46.04861548182089 95.33341477718204,46.44402311445447 93.54415412154049,46.95240392780397 92.28683582344092,47.06537737639155 91.9966854469385,46.89591719460441 91.17459271335974,45.42726004158612 89.9656328111887,41.1907264815527 89.82055762270465,40.117465998162515 89.6271240382921,39.10069092665799 89.19189847353846,37.519036982324906 88.7083145128563,36.389281307929195 88.41816413612105,35.03357135615079 88.17637215554714,33.39541725668823 87.98293857136741,33.05648819729686 87.7411465907935,33.0 87.59607140277512,33.0 87.49935461045243,33.16946457425365 87.49935461045243,33.56488170597004 87.78950498695485,35.090059339185245 88.65995611646213,38.36635217582807 88.99846488889307,39.21366602979833 89.67548243468627,41.58613769710064 90.01399120711721,43.337241002649534 90.88444233685732,46.38753632758744 91.1262343171984,48.13862395088654 91.17459271335974,49.32484134915285 90.98115912894718,49.60727367637446 89.33697366178967,50.39808340056334 87.25756262987852,51.132405671523884 84.01755009195767,52.0926717389375 83.87247490347363,52.20564410457155 83.96919169579633,52.26213027833728 84.30770046822727,52.26213027833728 90.40085837594233,50.567542475415394 90.5942919603549,50.34159703046316 90.54593356396072,49.60727367637446 90.69100875221193,49.94619227247313 90.54593356396072,50.17213788407389 88.80503130494617,50.90646046446636 85.27486839005724,52.0926717389375 84.2109836761374,52.26213027833728 83.92083329963498,52.20564410457155 84.11426688404754,52.0926717389375 84.79128442914225,52.14915792475222 85.17815159796737,52.0926717389375 87.45099621429108,51.30186451424379 89.9656328111887,50.511056123126764 90.5942919603549,50.17213788407389 90.78772554453462,50.002678684249986 90.88444233685732,49.550787222746294 90.88444233685732,48.816462785587646 90.54593356396072,46.274562736274675 89.77219922677614,43.39372811076464 89.57876564213075,42.2639848163235 89.33697366178967,41.52965039847186 88.7083145128563,38.818253064586315 88.27308894786984,36.33279346174095 87.54771300638095,33.62136984372046 87.49935461045243,33.45190541248303 87.59607140277512,33.22595275368076 87.78950498695485,33.16946457425365 88.17637215554714,33.45190541248303 88.4665225322824,34.468691197631415 88.75667290855199,35.20303528755903 89.53040724643506,38.36635217582807 90.7393671486061,42.48993366584182 90.88444233685732,43.39372811076464 91.94832705077715,47.74321756808786 92.14176063518971,47.856190850026906 92.67370299226604,47.74321756808786 94.55968043976463,47.008890655008145 97.26775062084198,46.38753632758744 99.0570112762507,45.76618128019618 102.39374060649425,44.29752103239298 105.63375314464793,43.1677796425065 107.51973059214652,42.602908054715954 112.69407897396013,40.738827592518646 115.64394113561139,39.835028671775945 115.83737472002394,39.835028671775945 115.98244990827516,40.00449108547764 115.74065792770125,40.17395344557008 114.96692359028384,40.512878005276434 113.27437972696498,41.021264442882966 110.56630954588763,42.15101035608677 106.06897870940156,43.45021521311719 103.02239975589328,44.57995600783033 97.99312656233087,46.218075931537896 96.20386590668932,46.95240392780397 95.86535713425837,47.17835080111399 95.76864034193568,47.404297579370905 95.86535713425837,48.02565072843572 96.3972994913347,48.985922360327095 96.63909147167578,49.66376012383262 97.17103382851928,51.64078203914687 97.70297618559562,52.714019454375375 98.23491854243912,54.126170675095636 98.52506891917437,55.31237482605502 99.54059523716569,57.62828965205699 99.97582080191933,59.153398830851074 100.556121555157,60.62201838410692 100.74955513933674,61.412811862130184 101.37821428873576,62.93791027570842 101.52328947675414,63.89815519959666 101.95851504174061,65.14082254795358 102.29702381440438,65.81863988796249 103.79613409307785,70.73278997611487 104.37643484631553,73.1051221753005 104.76330201490782,73.38754197600065 104.95673559932038,73.66996162809664 105.68211154057644,75.98579716339009 106.16569550172426,77.34140356775606 106.35912908613682,77.96272202429827 106.40748748206533,78.58403976075351 106.79435465089045,79.71370652836049 106.64927946287207,80.56095504225232 106.74599625496194,81.01282036904013 107.03614663146436,81.52116840641247 107.61644738446921,81.91654988011578 107.9065977607388,82.36841406434542 109.45406643580645,86.60462227457901 109.59914162405767,87.0" stroke="#4dd2ff" stroke-linecap="round" stroke-linejoin="round" stroke-width="0.5"><title>2023-08-14 6.1km</title><desc>9645903556</desc></polyline><polyline fill="none" points="170.454640484415,87.0 169.83119862084277,85.65566822286928 168.53635782678612,82.35083815769758 168.3924866274465,81.67866681749001 168.48840076033957,81.00649462756701 168.3924866274465,80.44635048689088 168.15270129521377,79.99823474959703 167.81700183008797,79.83019125071587 167.52925943140872,79.55011863453547 167.09764583338983,78.59787063632393 165.61097677377984,74.50878631992964 165.2273202422075,72.99637730559334 165.27527730865404,72.49224001157563 165.17936317576095,71.98810223955661 164.93957784352824,71.48396398953628 164.50796424550936,71.09185613133013 164.26817891327664,70.75576345127774 163.165166385239,67.67490398563677 162.3978533220943,64.98613931902219 161.77441145828925,63.417686984699685 160.81527012959123,60.05670211761026 159.18472987040877,55.35128761146916 158.8490304055158,54.00687581842067 158.41741680749692,52.99856474268017 158.36945974105038,52.55042587296339 158.46537387371063,51.43007704633055 158.36945974105038,50.981936854775995 158.03376027569175,50.365743474452756 157.21849014633335,49.07733682618709 156.88279068144038,48.34910560044227 156.78687654831447,47.7889270556625 156.88279068144038,47.50883756199619 157.12257601344027,47.17272997490363 161.39075492694974,45.044043655274436 167.00173170072958,43.251459091261495 168.3924866274465,42.69127517554443 169.73528448794968,42.35516454279423 171.0301252817735,41.850998195353895 173.57184980320744,41.12275707151275 175.53808952728286,40.33849628421012 175.7778748597484,40.17044025071664 175.5860465937294,40.00238416402135 174.05142046767287,40.22645893442677 172.37292314204387,41.01071988698095 170.64646875020117,42.01905369758606 168.3924866274465,42.85933041223325 166.85786050138995,43.3074774502893 164.93957784352824,43.97969729930628 163.98043651483022,44.25978865212528 162.44581038854085,44.93200729705859 160.04795706644654,45.60422509192722 156.49913414986804,47.00467610155465 153.81353842886165,47.95698068116326 152.90235416661017,48.1250342533458 152.18299816991203,48.18105209886562 151.99116990435869,48.0690164018888 151.9432128376793,47.90096281183651 151.41568510700017,45.99635174643481 150.6483720438555,43.75562411075225 150.21675844606943,42.13109066954348 149.6412736484781,40.45053361036116 148.96987471845932,38.20978260115953 147.8189051237423,33.50417474115966 147.57911979150958,33.112038872845005 147.3872915257234,33.0 147.29137739283033,33.0 147.09954912704416,33.22407772176666 147.09954912704416,33.50417474115966 148.10664752242155,36.41717499413062 148.92191765177995,39.21812172385398 149.78514484781772,43.3074774502893 151.03202857542783,48.0690164018888 151.31977097387426,49.41344320931239 151.17589977476746,49.749549380037934 150.9840715089813,49.917602385627106 149.44944538269192,50.70184904302005 146.90772086149082,51.82219940418145 144.27008220693097,52.60644325229805 144.2221251402516,52.71847799338866 144.27008220693097,52.7744953550864 145.18126646941528,52.60644325229805 146.90772086149082,51.71016447443981 150.3126725787297,50.533796285279095 150.6483720438555,50.309725858969614 150.74428617674857,50.141672977246344 150.69632911030203,49.63751401333138 150.93611444253474,49.63751401333138 151.07998564164154,49.525478623167146 150.02493018005043,46.50051416299539 148.6341752531007,40.22645893442677 148.1546045888681,38.76997123891488 147.57911979150958,36.19309861824149 147.05159206083044,34.28844561020378 147.00363499415107,33.392135951144155 147.1475061934907,33.112038872845005 147.48320565884933,33.05601943936199 147.7229909908492,33.168058300274424 148.01073338929564,33.56019412726164 148.29847578820772,34.2324263008195 150.50450084451586,41.73896116425749 150.88815737585537,43.58756915741833 151.51159923966043,45.94033367058728 151.99116990435869,47.34078379505081 152.13504110346548,47.62087337725097 152.47074056859128,47.62087337725097 156.40322001697496,46.27644203690579 159.71225760155357,45.26811630069278 161.10301252827048,44.59589808085002 164.31613597972319,43.47553249227349 165.03549197642133,43.08340397849679 166.2344186375849,42.91534881258849 168.10474422876723,42.41118299640948 173.18819327186793,40.5625709129381 174.77077646413818,40.22645893442677 175.0105617963709,40.22645893442677 175.1064759294968,40.33849628421012 175.1064759294968,40.5625709129381 175.0105617963709,40.61858955526259 172.90045087318867,41.57090557349147 169.7832415541634,42.747293593594804 162.5417245212011,45.10006182541838 156.3552629505284,47.50883756199619 155.82773521961644,47.7889270556625 155.68386402027681,48.0690164018888 156.73891948210075,51.71016447443981 157.4582754787989,52.99856474268017 157.69806081079878,54.00687581842067 158.80107333906926,56.6396790567087 160.191828266019,60.78491730825044 160.95914132893085,62.689475399733055 161.82236852496862,65.49028372968314 163.59677998325787,70.58771703165257 163.8365653154906,71.53997937421082 163.59677998325787,71.93208690191386 163.59677998325787,72.21216353052296 163.8365653154906,72.77231634501368 164.2202218468301,73.16442296403693 164.46000717929564,73.66855962091358 166.66603223537095,79.49410409363918 166.8099034349434,80.11026371916523 166.71398930205032,80.39033604034921 166.5701181027107,80.55837936216267 166.52216103626415,80.78243704210036 166.90581756760366,81.51062384969555 167.43334529874846,81.8467097322573 167.67313063074835,82.18279540230287" stroke="#4dd2ff" stroke-linecap="round" stroke-linejoin="round" stroke-width="0.5"><title>2023-08-10 5.8km</title><desc>9620015411</desc></polyline><polyline fill="none" points="48.75764680141583,144.4643668717472 48.65896909078583,143.42705902300077 48.856324511813,142.7355193644762 48.75764680141583,142.27449243998853 48.46161366999149,141.75583668536274 47.96822511777282,141.58295132470084 47.72153084189631,141.2948089353158 46.43872060603462,138.0676038058591 45.64929892239161,135.70481655042386 45.55062121222727,134.89800880895928 45.35326579143293,134.32171683647903 45.4519435018301,133.9759413615684 45.30392693611793,133.3420190901379 45.15591037040576,133.0538723601494 44.61318296310492,132.53520786383888 43.28103387192823,129.0198022055556 42.935661885654554,127.80957535823109 42.49161218851805,126.88749596331036 39.18590888893232,116.80215111374855 38.84053690242581,116.11057779751718 38.00177636370063,113.92058986116899 37.70574323227629,110.75085495080566 37.113676969660446,108.387949704309 37.360371245769784,108.04215783654945 38.93921461282298,107.29294137295801 41.702190505107865,106.3131952182157 43.774422424379736,105.67924088885775 47.86954740737565,104.1231680563651 50.97789528639987,103.14341622416396 53.14880491583608,102.22129524929915 54.08624316519126,101.93313212599605 56.010458518518135,101.12627457285998 56.30649164994247,100.89574362477288 56.35583050502464,100.78047811420402 56.059797373833135,100.78047811420402 49.448390774428844,103.25868123653345 46.142687474843115,104.29606525646523 44.16913326596841,105.1029181337799 41.55417393962853,106.0250342504005 39.481942020356655,106.83188457752112 35.38681703712791,108.15742181672249 34.30136222206056,108.67610942717874 33.56127939396538,108.84900518815266 31.982436026912183,108.96426899835933 31.686402895720676,108.79137327382341 31.489047474693507,108.387949704309 29.811526397243142,103.37394622480497 29.564832121133804,102.04839739360614 29.219460134627298,100.9533763708896 28.676732727093622,98.64806178916479 27.83797218836844,95.76640489831334 27.344583636382595,93.46106845460599 26.999211649876088,93.0 26.60450080805458,93.11526715010405 26.407145387027413,93.40343491913518 26.456484242342412,93.69160253630253 27.73929447797127,97.14960210060235 28.77541043772362,100.49231423181482 29.466154410736635,103.37394622480497 29.860865252558142,105.85213759710314 30.551609225571156,108.33031774149276 30.89698121184483,109.94401040452067 30.89698121184483,110.92375005595386 30.798303501680493,111.15427677775733 30.403592659858987,111.44243504334008 29.367476700106636,111.84585636015981 26.60450080805458,112.7103296086425 25.864417979726568,112.82559260504786 23.64416949497536,113.57480149075855 23.742847205139697,113.57480149075855 24.729624309577048,113.45953865221236 26.85119508416392,112.53743506816681 27.98598875408061,112.19164582336089 29.02210471360013,111.78822476166533 30.05822067335248,111.55769830709323 30.502270370488986,111.211908443016 30.798303501680493,110.57795979105867 30.600948080886155,109.3676921428414 30.05822067335248,107.69636575004552 29.17012127954513,104.18080046254909 28.87408814812079,102.62472336710198 28.183344174874946,100.54994702053955 27.443261346779764,97.43776774423895 27.048550505191088,95.42060505133122 26.75251737376675,94.4408376304782 26.70317851845175,94.09503694518935 26.80185622884892,93.6339690250461 26.949872794561088,93.40343491913518 27.147228215355426,93.28816782968352 27.443261346779764,93.28816782968352 27.6899556228891,93.46106845460599 28.03532760939561,94.21030386461644 28.627393871778622,96.28510425920831 29.07144356891513,98.82096071972046 30.354253804543987,103.71974104386754 30.748964646365494,105.1029181337799 31.291692054132,107.3505734449136 31.686402895720676,108.56084555631969 31.834419461432844,108.79137327382341 32.03177488199435,108.90663709625369 34.74541191919707,108.09978982963366 39.580619730753824,106.4860917259357 43.08367845113389,105.56397638638737 45.35326579143293,104.29606525646523 46.38938175071962,104.18080046254909 47.67219198658131,103.7773734923685 48.856324511813,103.37394622480497 50.87921757553704,102.45182563876733 55.56640882161446,100.9533763708896 55.911780807888135,101.01100911095273 55.8624419530388,101.12627457285998 55.61574767692946,101.35680542368209 53.29682148154825,102.3941930506262 48.65896909078583,104.06553564412752 47.91888626245782,104.23843286244664 47.228142289677635,104.5265947713633 45.64929892239161,104.93002118868753 42.39293447812088,106.0826664561755 39.77797515154816,107.29294137295801 37.55772666656412,107.98452583729522 35.68285016808659,108.67610942717874 35.38681703712791,108.90663709625369 35.28813932649791,109.19479654595489 35.28813932649791,109.42532399634365 35.43615589221008,109.7711149896495 36.077561010140926,110.69322323706001 36.32425528625026,111.15427677775733 36.96566040394828,113.57480149075855 37.55772666656412,114.61216594628058 39.08723117830232,118.53108057926875 39.87665286194533,120.95157265051967 40.86342996638268,124.3517696132185 41.702190505107865,126.48408573924098 42.19557905732654,128.27061447291635 42.935661885654554,130.05713737208862 43.823761279461905,132.93861362565076 43.725083569064736,133.91831209452357 43.922438990091905,134.7251212808187 44.56384410755709,135.24378370086197 44.71186067326926,135.53192927734926 46.43872060603462,139.7964660639991 47.080125723965466,142.101607243123 46.9814480135683,142.50500595086487 46.73475373745896,142.67789102019742 46.78409259254113,142.9660326812882 47.129464579047635,143.6575720483088 47.57351427618414,143.94571319321403 47.86954740737565,144.34911054116674 48.95500222221017,147.0" stroke="#4dd2ff" stroke-linecap="round" stroke-linejoin="round" stroke-width="0.5"><title>2023-08-08 6.0km</title><desc>9606561718</desc></polyline><polyline fill="none" points="108.92665009363554,145.79274410154903 108.17493219068274,144.75011175620602 107.04735533706844,141.73195373051567 106.90640823030844,140.853940839821 107.18830244382843,140.0308024106198 107.04735533706844,139.42716673621908 106.85942586115561,139.09791061887518 106.20167269650847,138.8235303622787 106.01374322082847,138.54914996097796 105.44995479402132,136.68335940031102 104.36936030909419,134.32367353333393 103.75858951290138,132.07373054296477 103.66462477529421,131.30545510113006 103.0068716101814,130.20791679009562 102.44308318337426,128.61648213176522 101.50343580520712,125.81774042203324 101.17455922276713,125.1043332676054 100.70473553356715,122.96410594199551 100.18792947568,121.75679434055928 99.48319394188002,119.4519189678249 99.06035262160003,118.5189903221908 98.0267405055929,115.66531585773919 97.50993444770575,114.51286596921273 97.22804023418576,113.36041353095789 97.08709312742576,112.4823528190609 97.08709312742576,111.98844301811187 96.33537522493862,109.6835244212416 96.24141048709862,109.0249743773602 96.19442811817862,107.59811309253564 96.38235759362578,107.21395746344933 96.61726943822578,106.93956041213823 97.69786392338574,106.44564535527024 99.62414104864001,105.7322116685682 100.56378842680715,105.23829546687193 101.55041817412712,104.90901773900259 102.67799502820708,104.41510075668339 104.93314873590134,103.7016642887611 110.10120931640267,101.72598896961426 111.13482143217698,101.39670902112266 112.3093806549441,100.90278870833572 113.24902803334408,100.62838833202841 113.90678119799122,100.2991076897597 113.57790461578406,100.18934742943384 113.38997514010407,100.24422756244894 109.06759720016271,102.11014864628669 106.95339059922844,102.6589476930094 106.01374322082847,103.04310668166727 104.51030741562136,103.48214517888846 102.95988924149424,104.19558194756974 100.18792947568,105.07365662883967 98.44958182587288,105.7322116685682 97.36898734094575,106.06148887617746 95.48969258437864,106.82980155106634 92.6237680807244,107.59811309253564 91.30826175119728,107.81763046776177 90.97938516899012,107.70787179173203 90.88542043091729,107.48835437034722 89.80482594599016,104.85413809737656 88.86517856782302,101.06742886471329 88.30139014078304,99.14662380237132 88.16044303402305,98.43318011792144 87.69061934482306,97.11605074832914 86.98588381125592,93.9878551462316 86.46907775313593,93.16464265459217 86.28114827768877,93.0 86.18718353961594,93.05488089070423 86.09321880177595,93.38416611292632 86.28114827768877,94.59154347976437 87.83156645158306,99.53078538144473 88.67724909214303,103.0979865140398 90.03973779059015,107.70787179173203 90.18068489735015,108.4761820381973 90.13370252843015,108.6956990431645 89.66387883923016,109.40912867081352 89.75784357707016,109.29937033017632 89.71086120815016,108.97009516955586 89.42896699463017,107.81763046776177 89.10009041242301,105.89685029844986 88.16044303402305,102.16502857703017 87.31476039346308,99.20150404510787 86.65700722881593,96.62212637602352 86.09321880177595,93.49392780743074 86.18718353961594,93.2195235278923 86.56304249097593,93.38416611292632 86.89191907318309,93.76833194238134 87.59665460698307,95.68915683915839 89.10009041242301,100.73814849986229 89.61689647031017,103.0979865140398 89.99275542167015,104.25046165846288 90.18068489735015,105.23829546687193 90.46257911087014,106.33588639012305 90.88542043091729,107.81763046776177 91.02636753767729,107.87250979716191 92.24790912936442,107.59811309253564 93.04660940077156,107.26883685635403 94.40909809945151,106.77492211188655 97.04011075850576,106.00660935597261 98.44958182587288,105.5126934145228 99.67112341779284,104.90901773900259 102.95988924149424,103.81142380897654 106.15469032735564,102.54918792995159 108.97363246232271,101.5613490214455 109.86629747180268,101.39670902112266 111.4636980148498,100.73814849986229 113.29601040226407,100.24422756244894 113.53092224686407,100.18934742943384 113.76583409169689,100.2991076897597 113.71885172254406,100.46374803688377 113.43695750902407,100.68326841888484 111.4636980148498,101.6711089927121 109.02061483124271,102.49430803960422 107.98700271523558,102.76870743301697 106.43658454087563,103.42726538702846 104.83918399806134,103.86630356032401 103.14781871717423,104.52486012643203 99.38922920427285,105.7322116685682 98.21466998127289,106.28100689902203 97.18105786503293,106.61028375953902 95.11383363325149,107.43347500055097 94.5970275751315,107.7627511327155 94.45608046813868,108.09202705667121 94.55004520621151,108.6956990431645 95.16081600193866,110.01279913098551 95.53667495353147,111.4396538012079 95.91253390465863,112.3177162706852 96.28839285578579,112.92138336016797 96.57028706930578,113.5799284777604 96.85218128282577,114.56774459313601 98.12070524366572,117.80557317170314 98.44958182587288,119.12265022483189 99.43621157296002,121.75679434055928 99.85905289324,123.12873912544455 101.9732594944071,128.8908677646541 102.44308318337426,130.7566862346721 102.44308318337426,131.08594762400026 102.34911844576709,131.47008564841235 102.44308318337426,131.79934658668935 102.77195976604708,132.62249802210135 103.28876582393423,133.2261415811954 104.0874660955742,135.20169743028237 104.51030741562136,136.62848310626578 104.83918399806134,137.23212202364812 105.21504294942133,138.43939776014304 105.44995479402132,139.37229073123308 105.44995479402132,139.53691872907802 105.30900768726133,139.97592646913836 105.44995479402132,140.689313257928 105.63788426970132,140.96369253203738 106.15469032735564,141.34782327286666 106.62451401678845,142.17095962085295 107.18830244382843,144.25623254844686 107.94002034631558,146.34149712952785 107.94002034631558,147.0" stroke="#4dd2ff" stroke-linecap="round" stroke-linejoin="round" stroke-width="0.5"><title>2023-08-07 5.3km</title><desc>9599973967</desc></polyline><polyline fill="none" points="169.44214782002382,146.55328006320633 168.5815976387821,145.1572778345435 167.43419739743695,141.8626979997498 167.33858071058057,141.0809302875423 167.52981408429332,140.13163937273202 167.43419739743695,139.74075438437285 167.19515568064526,139.4057098791818 166.621455559507,139.12650596327148 166.33460549963638,138.73562023357954 164.80473851086572,134.8825883337995 164.47008010698482,133.70992089255014 163.99199667340145,131.1970533541753 163.41829655249603,130.58279503305675 163.2270631790161,130.13606126146624 162.12747128121555,127.23228256951552 161.79281287710182,125.89207165455446 161.31472944328561,124.88691124448087 160.0239041717723,121.14546407770831 159.11554564721882,118.24163613416022 158.82869558688253,117.57151973433793 158.1593787795864,115.61700872902293 157.5378703151364,114.22092502680607 157.15540356817655,112.76899407600285 156.8207451645285,111.93133979511913 156.8207451645285,111.0936841905932 156.6773201341275,109.92096412007231 156.1992367003113,107.51967207033886 156.1514283567667,107.18460719846189 156.24704504339024,107.01707468321547 156.43827841733582,106.73785370663973 159.1633539905306,105.62096832925454 160.262945888564,104.89499157189857 161.69719619047828,104.16901382012293 162.55774637148716,103.88979134312831 163.41829655249603,103.49887962813955 165.37843863177113,102.94043382117525 167.91228083125316,101.82354044169188 168.8684476991184,101.60016148316208 169.7289978803601,101.20924807956908 173.7927070686128,99.86897136404878 174.22298215911724,99.64559158193879 174.41421553259715,99.4222117056488 174.12736547226086,99.47805668361252 173.41024032165296,99.92481629486429 172.3584567666985,100.31573064578697 171.49790658592246,100.76248955103802 169.7289978803601,101.43262720271014 165.61748034856282,102.49367675173562 163.37048820895143,103.61056871910114 160.74102932261303,104.3923916958156 158.1593787795864,105.5651239985018 156.1992367003113,106.29109983803937 155.1474531458225,106.51447681942955 153.71320284390822,107.01707468321547 152.56580260256305,107.18460719846189 151.51401904807426,107.46382793982048 151.13155230064876,107.4079838033067 150.84470224031247,107.24045135849155 150.74908555368893,107.01707468321547 149.88853537244722,104.05732484691544 148.7411351313349,101.43262720271014 148.16743501042947,99.19883173541166 146.58975967857987,93.83768420107663 146.2072929313872,93.39091945858672 145.9204428710509,93.39091945858672 145.6814011540264,93.67014746682253 145.58578446740285,93.89352976734517 145.63359281094745,94.11691197380424 146.8288013956044,96.62995530880289 147.35469317273237,98.19362070341595 147.68935157661326,99.53390165552264 148.07181832380593,100.70664470858173 148.59771010116674,103.33134594798321 149.84072702936828,108.13395711861085 149.69730199920014,109.0274613724323 149.79291868582368,108.74824145500315 149.74511034227908,108.30148928094422 148.98017684812658,105.73265697277384 148.59771010116674,103.88979134312831 146.8288013956044,97.9143950783764 146.35071796155535,95.95981158461655 146.01605955790728,95.01043985807337 145.82482618419454,93.50261067948304 145.9204428710509,93.27922821423272 146.11167624453083,93.05584565451136 146.35071796155535,93.0 146.733184708748,93.11169130337657 147.11565145570785,93.50261067948304 147.3068848294206,93.89352976734517 147.8327766067814,96.96502685319865 148.31086004059762,99.08714171481552 148.7411351313349,100.3715755296289 149.31483525177464,102.8287445891765 149.93634371599182,104.95083597302437 150.65346886706538,107.07291886088206 150.84470224031247,107.24045135849155 151.8964857950341,107.07291886088206 154.90841142856516,106.12356704025296 156.9641701944638,105.5651239985018 159.06773730390705,104.83914716477739 165.76090537849814,102.27029807586223 169.2031061029993,101.04171367548406 169.87242291052826,100.93002404330764 171.45009824237786,100.25988575624069 173.4580486647319,99.64559158193879 173.69709038198926,99.58974662178662 173.88832375523634,99.75728148478083 173.88832375523634,99.92481629486429 173.69709038198926,100.14819595927838 172.74092351389118,100.65079986001365 169.44214782002382,101.87938516651047 166.52583887288347,102.8287445891765 161.26692109997384,104.78330275171902 159.6892457678914,105.50927966204472 158.30280380952172,106.0118784790393 156.10362001368776,106.62616527476348 155.43430320592597,107.07291886088206 154.5737530249171,107.4079838033067 154.43032799474895,107.96642490319209 155.0996448022779,109.2508372006123 155.76896160980687,111.37290287250653 156.39047007379122,112.60146332578734 157.49006197182462,116.34297080087708 158.01595374918543,117.68320585979382 158.589653869858,119.63770924654091 160.50198760582134,124.49601501470897 162.2230879678391,130.13606126146624 162.31870465446264,130.58279503305675 162.31870465446264,131.47626144677633 162.50993802794255,131.81131096358877 162.79678808827884,132.64893382927403 163.27487152232789,133.20734833774623 164.0398050164804,135.38515930029098 164.80473851086572,137.06039241410326 165.4262469750829,139.34986910771113 165.37843863177113,139.57323215826182 165.04378022789024,139.90827655768953 165.04378022789024,140.18748006172245 165.37843863177113,140.91340848483378 165.9999470957555,141.2484520371654 166.23898881254718,141.58349537773756 167.48200574074872,144.8222367526032 167.86447248770855,146.1623998095747 168.00789751810953,147.0" stroke="#4dd2ff" stroke-linecap="round" stroke-linejoin="round" stroke-width="0.5"><title>2023-08-06 5.3km</title><desc>9594199691</desc></polyline><polyline fill="none" points="49.19757062231656,207.0 48.90939608577173,206.01827957099886 48.90939608577173,205.79388582185493 48.98143971990794,205.51339336947422 48.933410630444996,205.3731470326602 48.789323362289,205.0646048313356 48.52516337041743,204.92435825796565 48.4771342810709,204.86825960801798 48.309032468125224,204.53166745972703 47.9488142975606,203.66213577409508 47.49253794818651,202.34380812515155 47.2764070458943,201.4742692950531 47.2764070458943,201.24987171663088 47.10830523283221,200.91327499446925 46.84414524107706,200.57667784680962 46.60399979399517,199.95958197084838 46.14772344462108,198.66928597260267 44.87495257530827,194.6020076671266 44.68283621768933,194.04099888703786 44.03444351057988,192.52626927607344 43.818312608171254,191.60059693819494 43.794298063614406,191.17983572077355 43.818312608171254,190.81517546105897 43.770283518824726,190.53466722919256 43.554152616416104,190.0858534433646 43.241963535314426,189.63703890095348 43.14590535638854,189.3565294276923 43.121890811715275,188.85161163113662 43.19393444585148,188.59915237379028 43.33802171400748,188.48694818254444 44.58677803876344,188.0661820443056 46.02765072113834,187.36490366936778 46.67604342813138,187.11244300220278 46.96421796467621,186.88803331929375 47.036261598696,186.66362344729714 47.06027614348568,186.32700828445377 46.916188875213265,185.6537766822148 46.70005797280464,185.06469763367204 46.3638543470297,183.9706902281323 45.88356345286593,182.6242134036438 45.64341800578404,182.14733456191607 45.47531619283836,181.55824775443762 44.730865307035856,179.5385116612306 44.49071985995397,179.00552319237613 44.346632591681555,178.8091587505478 44.13050168938935,178.64084625666146 43.8663416976342,178.58474206837127 43.45809443760663,178.6969504330773 42.92977445409633,179.00552319237613 42.329410836449824,179.2018874892674 41.12868360115681,179.5385116612306 40.09605817892589,179.762927539472 38.943360032862984,180.12760293800966 38.58314186241478,180.18370680112275 38.31898187054321,180.1556548710505 38.17489460238721,180.0714990630513 38.0308073341148,179.9031873672211 37.95876369997859,179.7348755649582 37.022196456440724,177.0418722567847 36.157672847039066,174.01221097059897 35.91752739995718,172.7778946350445 35.893512855283916,172.55347286825418 35.94154194474686,172.44126191386022 36.10964375769254,172.30099815438734 37.1902982693864,172.0485232010833 37.76664734247606,172.0485232010833 38.102850968251005,171.96436483008438 39.30357820354402,171.34720262989867 41.729047218803316,170.4775625554612 42.13729447883088,170.2531388491625 43.530138071626425,169.07491128725815 43.794298063614406,168.76632701634662 44.442690770491026,167.64419937916682 44.49071985995397,167.3356134495407 44.370647136471234,166.97092052618973 43.89035624230746,165.98905247959192 43.386050803470425,165.3438229339372 42.20933811296709,164.24973447763477 41.17671269061975,163.35201751353452 40.5283199835103,162.70678157536895 40.408247260027565,162.65067402855493 40.07204363413621,162.73483534433763 39.879927276517265,162.987319131993 39.73584000824485,163.09953407177818 39.327592748217285,163.21174896435696 38.39102550467942,164.2216808682715 37.95876369997859,164.61443112939014 37.09424009057693,165.17550192569615 36.39781829412095,165.51214383580373 33.97234927886166,166.35374674829654 32.17125842592213,166.74649386340752 31.690967531874776,166.74649386340752 31.47483662958257,166.66233381608617 31.306734816520475,166.38180013280362 30.538269385928288,164.27778808400035 29.98593485762831,162.65067402855493 29.721774865873158,161.72489779876196 28.521047630696557,159.0878205850604 28.01674219185952,158.16203196247807 27.632509476621635,157.20818577124737 27.608494931831956,156.9837508763594 27.632509476621635,156.87153335809126 27.800611289567314,156.70320699180593 28.473018541233614,156.25433616136434 29.457614874234423,155.8054645738157 30.442211207235232,155.41270131376223 31.690967531874776,154.823555336945 32.89169476716779,154.0941347015032 33.39600020600483,153.86969718075125 33.85227655537892,153.5049858058046 34.0203783683246,153.3927668206452 35.14906196948141,153.0 35.36519287189003,153.05610958128818 35.557309229508974,153.2244382541394 35.7494255870115,153.53304054465843 36.061614668229595,154.2624627178884 36.27774557063822,154.68328229311737 36.58993465185631,155.2163194664172 36.92613827763125,155.63713753339835 37.47847280593123,156.17017279635184 38.27095278108027,156.81542458105832 39.015403667115606,157.5728920715046 39.159490935271606,157.79732646944467 39.567738195182756,158.7511705493962 39.73584000824485,159.39641607692465 39.95197091053706,160.6027404757915 39.95197091053706,161.1918736602238 39.855912731844,162.1737594032311 39.759854552918114,162.6787278034608 39.66379637410864,162.87510414479766 39.159490935271606,163.49228598875925 38.34299641533289,164.33389528773841 37.38241462712176,165.03523433755618 36.157672847039066,165.62435771123273 35.269134692964144,165.90489219271694 34.74081470945384,166.15737297345186 34.044392912997864,166.35374674829654 32.651549320085905,166.63428046109038 31.859069344820455,166.85870721843094 31.690967531874776,166.9428672036447 31.57089480839204,167.0831337866257 31.402792995329946,167.56003961563692 31.402792995329946,167.89667850991827 31.522865718929097,168.37358288138057 31.71498207654804,168.82243327394826 32.003156612976454,169.38349520036718 32.387389328330755,170.73003899867763 32.62753477541264,171.29109690437326 32.98775294597726,172.44126191386022 33.15585475892294,172.7778946350445 33.29994202707894,172.9181581432058 33.42001475056168,172.97426352577168 33.756218376453035,172.97426352577168 33.996363823651336,172.94621083603124 34.86088743293658,172.60957832768327 35.36519287189003,172.60957832768327 35.6053383188555,172.63763105295948 35.7494255870115,172.8059473426256 35.893512855283916,173.14257960260147 36.27774557063822,174.65741950453958 36.39781829412095,175.27457403030712 36.80606555414852,176.36861717305146 37.022196456440724,177.60291685923585 37.5024873506045,179.4824076621153 37.59854552941397,180.1556548710505 37.55051644006744,180.3520183194778 37.45445826114155,180.4642259394459 36.181687391828746,181.05331516769365 35.4612510506995,181.24967795412522 34.74081470945384,181.64240309243905 34.044392912997864,181.83876544429222 33.444029295351356,182.09123111254303 33.29994202707894,182.25954142500996 33.15585475892294,182.84862668061396 33.13184021413326,183.01693651420646 33.29994202707894,183.80238099751296 33.6361456529703,184.7280804492184 34.06840745778754,185.73793072559056 34.668771075317636,187.56126180061256 34.86088743293658,187.9820287367911 35.43723650602624,189.58093702991027 35.653367408318445,190.02975166690885 35.86949831061065,190.73102302252664 36.01358557876665,191.01153104758123 36.229716481175274,191.23593725488172 36.42183283891063,191.32008953380864 36.54190556250978,191.32008953380864 38.31898187054321,190.87127707208856 39.615767284762114,190.36636214811006 39.687810918781906,190.28220956772566 39.83189818705432,189.74924260744592 40.0,189.72119168526842 40.04802908934653,189.66508983197855 40.02401454478968,189.4406823006575 39.39963638235349,187.14049419929506 39.11146184592508,185.90623873259756 39.06343275657855,185.5415712496324 38.7992727648234,184.70002899799147 38.41504004935268,183.15719462762354 38.27095278108027,182.7083684047102 38.078836423461325,181.6704548659036 38.102850968251005,181.50214418099495 38.15088005759753,181.41798879863927 38.27095278108027,181.50214418099495 38.34299641533289,181.61435131609323 38.607156406971626,182.25954142500996 38.895330943516456,183.18524624145357 39.087447301251814,184.13899935234804 39.44766547170002,185.1488518632541 39.567738195182756,185.7659820674453 39.92795636586379,186.94413575783256 40.0,187.56126180061256 40.36021817056462,188.7674585719069 40.45627634937409,188.90771365581895 40.5283199835103,188.93576466370723 40.96058178821113,188.87966264496208 42.161309023504145,188.57110133036622 42.713643551804125,188.37474394397577 43.3140071692178,188.23448857938638 44.5387489493005,187.7856709159969 45.691447095246986,187.30880131962476 46.387868891702965,187.11244300220278 47.06027614348568,186.7758284069714 48.06888702104334,186.46726465408574 48.57319245999679,186.35505956434645 49.50975970341824,185.93429005672806 50.66245784924831,185.56962261217996 51.575010548112914,185.3171602426446 51.98325780814048,185.1488518632541 52.31946143403184,185.0927490464528 52.391505068168044,185.1769032671873 52.29544688935857,185.2610574613209 51.98325780814048,185.40131439242396 48.83735245175194,186.43921338609653 46.628014338668436,187.33685249599512 42.47349810472224,188.7113565177424 42.329410836449824,188.79550959460903 42.28138174698688,188.90771365581895 42.25736720231362,189.07601965896902 42.30539629177656,189.24432555571548 42.49751264951192,189.74924260744592 42.88174536463339,191.06763261719607 42.953788998769596,191.23593725488172 43.241963535314426,191.5725462110713 44.05845805525314,194.1251502793457 44.61079258355312,195.5837701880373 44.778894396382384,196.17282596291625 45.067068932927214,196.78993061510846 45.76349072938319,199.09003535471857 46.003636176348664,199.6790833726991 46.219767078757286,200.38032931415364 46.31582525768317,200.82912574737566 46.29181071289349,200.9693744777178 46.14772344462108,201.0815734086791 46.17173798941076,201.16572257597 46.31582525768317,201.44621960807126 46.6520288833417,201.75476600209367 46.96421796467621,202.45600647712126 47.468523403513245,203.99872902149218 47.51655249285977,204.41946998247295 47.780712484614924,205.0085062108701 47.80472702928819,205.20485133075272 47.70866885059513,205.34509775633342 47.73268339515198,205.45729484368348 47.92479975288734,205.9341319372761 48.23698883410543,206.2426731309679 48.429105191724375,206.55121396726463" stroke="#4dd2ff" stroke-linecap="round" stroke-linejoin="round" stroke-width="0.5"><title>2023-08-04 9.2km</title><desc>9582211082</desc></polyline><polyline fill="none" points="102.31744830100797,206.8611910303298 101.64400178589858,205.84325724595692 100.77248276700266,203.2984124647046 100.65363926440477,202.55809121459606 100.85171176865697,202.00284945816384 100.77248276700266,201.49387723157997 100.53479576180689,201.12371524173068 100.13865075306967,200.9386341298814 99.98019274952821,200.75355294012115 98.6332997197751,197.79224329683348 98.2371547112707,196.3578517610731 97.95985320513137,194.3682041343127 97.80139520158991,194.09057816746645 97.44486469379626,193.72040993874543 97.28640669025481,193.39651248281007 96.61296017537825,191.45312273103627 96.0583571633324,189.64853883368778 95.7414411562495,189.1395522915409 95.58298315294087,188.49175038465182 94.94915113877505,187.01105672397534 93.72110161185265,183.3555728760839 93.364571104059,182.61521801212803 93.04765509720892,181.5046833762899 92.69112458918244,180.67178055646946 92.17613607784733,178.31188065634342 92.17613607784733,177.57151729028556 91.81960557005368,175.39669268473517 91.42346056131646,174.23986669827718 91.46307506226003,173.96222800808027 91.58191856485792,173.82340859723627 95.34529614751227,172.4814853630087 96.29604416852817,172.2501188737806 99.10867373039946,171.13955802848795 100.415952259209,170.76937045605155 102.87205131328665,169.75135302278795 106.27889838814735,168.59451216610614 106.59581439523026,168.4094173462072 107.11080290633254,167.76158486228087 107.19003190821968,167.39139444261673 106.99195940373465,166.4196431057644 106.55619989428669,165.03142318030586 105.96198238106444,163.87456989040948 105.80352437775582,162.81026217213366 105.09046336193569,160.91301158140413 104.81316185602918,159.80242206642288 103.9416428366676,158.27535689721117 103.5058833269868,156.9796610743797 103.2285818210803,156.47063666937174 102.99089481588453,155.45258608928998 102.91166581399739,155.36003591952613 102.87205131328665,155.40631100689643 102.87205131328665,155.82278657323332 103.14935281942599,156.51691163974465 103.9416428366676,158.69182974271826 104.41701684705913,159.8949712998292 105.09046336193569,161.3294819254079 106.3977418905124,164.5686822301068 107.0711884056218,167.02120371052297 107.0711884056218,167.25257295460324 106.95234490302391,167.6227634914394 106.79388689948246,167.76158486228087 106.3185128888581,168.0392274725018 104.93200535862707,168.5019647658919 101.60438728518784,169.79762659367407 98.35599821386859,170.76937045605155 97.12794868671335,171.37092510293587 95.42452514916658,171.87993223741069 94.19647562224418,172.43521207483718 93.32495660311542,172.66657846668386 92.33459408138879,173.12931088462938 91.38384606037289,173.40695010128547 90.59155604289845,173.73086229889304 89.75965152471326,174.0547742577619 88.29391499259509,174.42495906091062 87.42239597346634,174.7488705077849 87.26393796969205,174.7488705077849 87.06586546543986,174.5175052129489 86.03588844276965,171.97247892568703 85.44167092978023,169.6588058664638 84.45130840805359,166.37336917890934 83.81747639388777,163.78202149551362 83.34210238349624,162.34751888134633 83.22325888089836,161.65340303102857 83.10441537830047,161.6071286019578 83.10441537830047,161.74595187447267 83.38171688420698,162.94908506423235 84.25323590356857,165.40161558950786 84.41169390687719,165.95690361814923 84.5305374097079,166.97492984714336 86.11511744442396,172.52775864629075 86.55087695410475,175.072781715804 86.74894945835695,175.9056951534876 86.7093349576462,175.99824099353282 86.11511744442396,176.0445139061485 86.31318994867615,175.99824099353282 86.35280444961973,175.76687635687995 86.03588844276965,174.84141659154557 85.20398392435163,171.78738552948926 85.08514042175375,170.8619173783809 84.84745341655798,170.02899437505403 84.68899541324936,169.19606979194214 84.13439240097068,167.71531107698684 83.85709089483134,166.60473876420292 83.38171688420698,165.2165194240515 83.0648008773569,163.87456989040948 82.94595737475902,162.9953593519167 82.90634287404828,162.11614705325337 82.98557187570259,162.06987267293152 83.10441537830047,162.16242142856936 83.69863289128989,162.94908506423235 84.05516339931637,163.7357472908334 84.84745341655798,165.95690361814923 85.83781593828462,169.6588058664638 86.6301059559919,173.08303766473546 87.06586546543986,174.61005134542938 87.3431669715792,174.7488705077849 88.88813250558451,174.47123213938903 90.90847204998136,173.68458914244547 91.66114756651223,173.26813051488716 92.65151008823887,172.89794473652728 93.87955961516127,172.71285173032084 95.70182665530592,172.01875226257835 96.53373117372394,171.55601867454243 97.52409369545057,171.27837828782503 98.79175772354938,170.67682351419353 101.16862777573988,169.9827208284405 101.92130329227075,169.6588058664638 105.09046336193569,168.59451216610614 106.47697089263238,167.90040618935018 106.67504339688458,167.6227634914394 106.67504339688458,167.25257295460324 105.68468087515794,163.82829569544992 105.24892136547714,163.04163363474072 105.01123436028138,162.39379323244793 103.26819632179104,158.36790645259316 102.95128031494096,156.84083629515953 102.95128031494096,155.49886116676498 103.03050931659527,155.2674857302336 103.2285818210803,155.08238529326627 104.02087183832191,154.61963385922718 107.50694791506976,153.37020255168318 108.734997442225,153.04627533597522 109.32921495521441,153.0 110.04227597080171,153.32392724975944 110.59687898308039,153.74040479128598 112.10223001614213,155.91533664558665 113.36989404424094,158.04398292355472 113.76603905274533,159.24712625559187 114.47910006856546,160.72791352393688 115.0733175817877,161.74595187447267 115.82599309808575,163.45810195998638 116.34098160942085,164.19848911874578 117.01442812429741,165.4941636431031 117.09365712595172,165.81808167687268 117.01442812429741,165.95690361814923 116.73712661815807,166.09572551568272 115.94483660068363,166.23454736926942 114.20179856242612,166.65101266661077 112.93413453456014,166.83610822763876 110.51764998142608,167.57648969144793 109.13114245072939,167.80785864286008 108.49731043702923,168.0392274725018 107.15041740727611,168.31686990702292 106.635428895941,168.59451216610614 105.36776486807503,168.96470157173462 102.04014679486863,170.21408851223532 100.2971087563783,170.67682351419353 99.22751723299734,171.13955802848795 95.7414411562495,172.4814853630087 94.3945481267292,172.8053982431884 93.91917411610484,173.0367644399521 93.28534210240468,173.49949646781897 91.58191856485792,173.91595487605082 90.19541103416122,174.47123213938903 89.95772402896546,174.7951435521245 89.95772402896546,174.98023568073404 90.11618203273974,175.3041467180592 90.7500140464399,175.9056951534876 90.9480865506921,176.27587839664193 91.10654455423355,177.4789717819076 91.30461705871858,178.17306262030615 91.77999106911011,178.9596975778113 91.898834571708,179.51496846438386 92.17613607784733,180.25532855433994 92.80996809178032,182.33758461632533 93.76071611279622,184.88255084166303 94.43416262743995,187.14987196671427 94.83030763617717,188.0290341518994 95.58298315294087,190.71278151628212 95.89989915979095,191.45312273103627 96.33565866947174,192.88753028362407 96.7714181789197,193.85922306103748 96.81103267963044,194.3682041343127 96.69218917726539,194.78464275537408 96.7714181789197,195.3398936361773 96.92987618246116,195.6175188133493 97.56370819639415,196.12649784897803 97.80139520158991,196.63547629481764 98.91060122614726,200.105768161593 99.34636073559523,201.21625576843508 99.3859752365388,201.54014745834866 99.34636073559523,201.67895810955088 99.18790273205377,201.8177687167772 99.30674623488449,202.3730107070587 99.46520423819311,202.6506314391154 99.94057824858464,202.92825199564686 100.21787975472398,203.3909525332274 100.69325376511551,204.82532110266038 101.24785677739419,207.0" stroke="#4dd2ff" stroke-linecap="round" stroke-linejoin="round" stroke-width="0.5"><title>2023-08-02 7.3km</title><desc>9569357200</desc></polyline><polyline fill="none" points="171.66995776304975,207.0 171.50645572785288,206.57031717244536 170.934198604431,205.5677223240782 170.48456800775602,204.4696397073567 169.9940619021654,202.75089635772747 169.9940619021654,202.4166955051187 170.19843944604509,201.93926528826705 170.15756393736228,201.4618345684139 169.87143537588418,201.03214649055735 169.5035557965748,200.88891704083653 169.2583027437795,200.65020119061228 168.89042316447012,199.79082308872603 168.23641502391547,197.8810881395184 167.6641579004936,196.59201249977923 167.37802933878265,194.96872684921254 167.37802933878265,194.5390326155466 167.25540281250142,194.0615941004362 166.8057722155936,193.48866721824743 166.5605191627983,193.01122759652208 165.94738653069362,191.43567327648634 165.33425389858894,189.5259031211317 164.96637431927957,188.80973723818897 164.7211212667171,187.47289122873917 163.16785193234682,183.22360451036366 162.2277152298484,180.40663966847933 161.81896014185622,179.49947777180932 161.24670301866718,177.6374029261642 161.24670301866718,177.016709610587 161.1649520008359,176.44376118012588 161.0832009834703,175.0591328162409 160.91969894827344,174.29519811467617 160.6335703865625,173.4835160834482 160.7561969126109,173.2447857975494 161.12407649192028,173.0538014782651 162.2277152298484,172.67183259813464 163.53573151142336,172.00338628343889 165.29337838990614,171.28719270930742 171.54733123653568,168.89987262009527 175.3896290641278,167.56296787661267 175.96188618731685,167.3242344718019 176.28889025747776,167.08550094094244 176.41151678422466,166.79902053819387 176.5341433105059,166.03507191158133 176.37064127530903,165.0323873848538 175.1852515200153,161.69008960499195 174.20423930860125,159.11172875901684 173.95898625603877,158.20452423134702 173.01884955330752,156.2946140257991 172.4465924303513,154.43244382424746 172.201339377556,153.3342372973275 171.9969618334435,153.1432445862447 171.7517087806482,153.0 171.30207818374038,153.0 170.6889455516357,153.2864891271165 169.13567621749826,153.85946683801012 167.9094109532889,154.1459554216417 167.0101497597061,154.48019187379396 165.53863144293427,154.81442807929125 164.43499270500615,155.33965590407024 162.35034175612964,156.1036225624266 160.83794793044217,156.53335324162617 159.40730512235314,157.05857907410245 156.3007664536126,158.01353357319022 153.8482359254267,158.87299090161105 153.03072574944235,159.06398119754158 151.7635849765502,159.25497141308733 148.37091774586588,160.4486584365368 146.3680178145878,161.35585847112816 144.40599339199252,161.8810787135153 143.75198525120504,162.16756222568802 143.6293587249238,162.45404555668938 143.46585668972693,163.26574734403403 143.79286075988784,164.36392980106757 144.65124644502066,166.2260591890954 145.42788111208938,168.3269139273907 145.95926272659563,169.99804142327048 146.3680178145878,171.04846126626944 147.55340756988153,174.67716562649002 148.207415710669,176.49150691044633 148.8205483427737,177.44642045805813 149.22930343076587,177.6374029261642 149.84243606287055,177.54191170219565 151.1095768357627,177.016709610587 154.21611550473608,175.96630360156996 154.66574610141106,175.72757462362642 155.19712771568447,175.29786214636988 155.2380032246001,175.1546245632926 155.1562522072345,174.62941970507381 154.4613685575314,172.3376095640706 153.6029828726314,168.61339336432866 153.3986053285189,168.08818092491128 152.17234006430954,163.4089886850852 151.7635849765502,161.54684772054316 151.7635849765502,161.21261648109066 151.8453359939158,161.06937444585492 152.17234006430954,161.26036381616723 152.4584686262533,161.69008960499195 152.9489747316111,162.97926452633692 153.43948083743453,163.93420654788497 154.093488978222,166.89451402591658 154.33874203101732,167.51522120571462 154.91099915420637,169.80705573549494 155.1562522072345,170.5232516490505 155.44238076847978,171.62141651811544 155.76938483887352,172.76732484836248 155.8920113653876,173.34027792690904 156.01463789190166,173.5790081625746 156.1372644181829,173.62675419452717 157.36352968239225,173.4835160834482 158.91679901676252,172.8150709659385 161.57370708906092,172.00338628343889 162.63647031784058,171.71690898950328 163.1269764234312,171.52592402644223 164.51674372283742,171.00071496260352 165.94738653069362,170.66649069602136 167.21452730358578,170.0457878325251 171.22032716637477,168.5179002387158 174.7356209231075,167.3719811627816 175.51225559040904,167.13324765724246 175.75750864320435,167.1809943683911 175.75750864320435,167.3242344718019 175.59400660800748,167.46747452981072 174.12248829123564,168.2314207413292 173.3049781152513,168.4701536684588 171.71083327173255,169.18635169477784 169.13567621749826,169.99804142327048 165.6612579692155,171.43043151454185 163.00434989691712,172.3376095640706 161.94158666813746,172.62408646557014 159.97956224554218,173.34027792690904 159.16205206955783,173.67450022153207 158.95767452567816,173.81773827242432 158.91679901676252,173.9609762778564 158.95767452567816,174.2474521532131 159.40730512235314,175.10687869231333 159.69343368406408,176.2527782091638 160.2248152983375,177.58965731671196 160.7561969126109,178.30584093055222 160.8788234393578,178.59231405920582 162.18683972093277,182.3164482524444 162.96347438823432,184.9424219141074 164.0262376172468,187.7593585626455 164.80287228431553,190.19432359101484 165.6612579692155,192.62927553715417 165.90651102201082,193.67964292599936 165.94738653069362,194.5390326155466 166.02913754829206,194.9209830655309 166.23351509240456,195.35067693714518 166.64227018039674,195.78037040118943 167.6232823918108,198.21529233650654 167.99116197112016,199.4566200534755 168.604294602992,201.22311901993817 168.604294602992,201.4140914688178 168.3590415501967,201.74829306072206 168.31816604128107,201.89152223887504 168.604294602992,202.46443849912612 169.38092927029356,203.3238115318236 170.15756393736228,204.94706725885044" stroke="#4dd2ff" stroke-linecap="round" stroke-linejoin="round" stroke-width="0.5"><title>2023-07-31 6.0km</title><desc>9555944449</desc></polyline><polyline fill="none" points="48.325883004348725,265.31099139896105 47.62475601444021,264.0826178198913 46.35396334552206,260.7557571156067 46.26632247166708,260.39747845043894 46.310142908710986,260.0391995210375 46.70452684024349,259.6809203273733 46.70452684024349,259.4761892411043 46.26632247166708,258.75962975935545 45.828118103090674,258.60608116161893 44.51350499736145,255.53509901513462 43.85619844426401,253.6413170163578 43.33035320183262,251.3892423286161 42.58540577511303,250.05846601564554 41.27079266915098,246.21966776787303 40.92022917419672,245.55427298735594 40.52584524266422,243.86518983653514 40.17528174747713,242.68794659202104 39.47415475780144,240.6405602422601 39.035950388992205,239.66804870363558 38.378643836127594,237.7230197863828 37.633696409408,235.82916835843935 37.50223509897478,235.06138864948298 37.15167160378769,234.1400513970002 36.88874898268841,232.34855729318224 36.187621993012726,231.01772882521618 36.09998111939058,229.68689671179163 36.275262866634876,229.22622320777737 36.538185487734154,228.97029329455108 39.035950388992205,227.997758394602 39.956179563421756,227.48589713900583 41.31461310596205,226.97403534402838 42.059560532681644,226.61573176670936 43.19889189116657,226.25742792512756 43.94383931788616,225.8479374969029 46.22250203485601,224.9265827711497 47.142731208819896,224.6706505928305 49.28993261535652,223.9028532487864 52.839388001477346,222.82793492850033 53.102310622576624,222.67437497436185 53.1461310593877,222.57200164458482 52.839388001477346,222.52081497159088 51.7876975168474,222.82793492850033 50.29780266317539,223.33980109202093 49.28993261535652,223.80048017800436 48.238242130493745,224.0564128146798 45.43373417132534,225.02895560473553 44.20676193921827,225.23370120720938 43.76855757040903,225.02895560473553 43.50563494930975,224.77302348031662 43.02361014368944,223.74929363434785 42.01574009587057,220.57571740209823 41.31461310596205,219.04010855662636 39.956179563421756,215.25225264957407 39.73707737913355,214.48444041932817 39.211232136702165,213.40950125842937 39.123591262847185,213.0 39.298873010324314,213.30712597622187 39.64943650527857,214.17731518758228 39.956179563421756,215.35462752179592 40.48202480585314,216.3271877327934 41.31461310596205,218.1699280559551 41.92809922224842,220.37096983654192 42.804507959401235,222.62318831225275 43.19889189116657,224.26115882696467 43.15507145435549,225.18251481471816 42.84832839644514,225.5408194491465 42.23484228015877,225.8479374969029 37.633696409408,227.84420007455628 33.90895927604288,229.07266527594766 32.33142354898155,229.4821529861365 31.63029655907303,229.533338925743 31.455014811595902,229.4821529861365 31.279733064118773,229.1750372359529 31.06063087983057,228.30487488914514 30.403324326965958,226.61573176670936 29.526915589580312,224.00522629817715 29.263992968481034,222.77674828257295 28.29994335724041,219.96147444634698 27.774098115041852,217.24855876801303 27.554995930520818,216.6343116054777 27.37971418327652,216.53193700269912 27.248252872843295,216.53193700269912 26.985330251511186,216.8390607459005 26.985330251511186,217.35093321977183 27.817918551852927,219.29604370114976 28.519045541528612,221.3435200045933 30.403324326965958,227.84420007455628 30.929169569164515,230.24994151241845 30.841528695542365,230.4546849144681 30.05276083177887,231.22247190377675 30.490965200820938,230.96654304218828 30.490965200820938,230.4546849144681 30.315683453110978,229.78926854216843 29.833658647723496,228.40724701079307 29.351633842103183,226.61573176670936 28.38758423109539,222.26488152582897 27.642636804375798,220.11503525820444 26.985330251511186,217.55568205821328 26.853868940845132,216.6343116054777 26.985330251511186,216.3271877327934 27.248252872843295,216.27600040173274 27.554995930520818,216.42956237844191 27.686457241186872,216.58312430678052 28.12466160999611,218.1699280559551 28.519045541528612,218.7841732769739 28.650506852427498,219.34723071398912 29.001070347381756,220.16622218463453 29.22017253166996,221.13877276267158 29.746017774101347,222.52081497159088 29.921299521345645,223.80048017800436 30.490965200820938,225.74556483590277 30.666246948065236,226.76929047514568 31.192092190496624,228.81673528192914 31.367373937973753,229.12385125862784 31.586476122261956,229.2774091742467 32.50670529645868,229.12385125862784 33.865138839231804,228.71436324639944 36.275262866634876,228.15131666621892 37.23931247764267,227.74182783422293 38.816848204704,227.2811524857534 39.91235912637785,226.8204767004645 42.1910218433477,226.00149644777412 43.54945538635366,225.28488759428728 44.51350499736145,225.13132841675542 46.485424656188115,224.26115882696467 48.19442169368267,223.595733971335 51.086570526938885,222.77674828257295 52.48882450652309,222.26488152582897 52.70792669081129,222.21369482041337 52.88320843828842,222.31606822583126 52.839388001477346,222.57200164458482 52.57646538014524,222.77674828257295 50.429263973841444,223.69810708553996 47.71239688829519,224.61946414085105 44.6011458709836,225.89912381928298 41.84045834862627,226.8204767004645 37.98425990459509,228.35606095258845 36.538185487734154,228.7655492668855 36.31908330344595,229.02147928791237 36.187621993012726,229.43096704120398 36.187621993012726,229.99401213854435 36.4067241770681,230.76179985582712 36.84492854587734,231.73432922258507 37.283132914453745,232.5532998108538 37.4145942251198,233.11634128948208 37.32695335149765,233.6793821156025 36.75728767225519,234.1400513970002 36.66964679863304,234.39597858686466 36.713467235444114,234.65190564194927 37.94043946755119,238.3884252922726 39.211232136702165,241.76662380227936 40.48202480585314,245.55427298735594 40.876408737385646,246.5267727439641 42.01574009587057,250.00728223851183 42.27866271720268,251.03095675678924 42.14720140630379,251.6963440370746 42.23484228015877,252.1058126796852 42.41012402786873,252.46409745892743 42.892148833256215,252.92474892974133 44.33822324988432,257.2241415976605 44.95170936593786,258.6572640329832 44.99552980274893,259.01554398136795 44.644966307794675,259.32264086959185 44.7764276182279,259.78328583817347 44.95170936593786,260.141564956255 45.389913734514266,260.4486611330067 45.69665679242462,260.9093050340598 46.35396334552206,262.59832893527346 46.79216771409847,263.92907090409426 47.23037208290771,265.05508049274795 47.23037208290771,265.7716306906077 48.01913994643837,267.0" stroke="#4dd2ff" stroke-linecap="round" stroke-linejoin="round" stroke-width="0.5"><title>2023-07-29 5.9km</title><desc>9543628546</desc></polyline><polyline fill="none" points="112.29285213374533,265.98017230583355 111.87926084687933,264.8529919536086 111.87926084687933,264.316238528525 112.10903378413059,263.6184582307469 112.06307919695973,263.35008093871875 111.69544249749742,262.65229931799695 111.09803286101669,262.3302459398401 110.82230533659458,262.00819235824747 110.6844415741507,261.68613857321907 110.50062322453596,261.04203039221466 110.3627594623249,259.75381158769596 110.08703193766996,258.46558952663327 109.30580395180732,256.69427887472557 108.57053055311553,254.2251689041732 108.06503009144217,253.58105129183969 107.78930256702006,253.04428599309176 107.19189293053932,251.32663323695306 106.13493742002174,248.69646623241715 105.90516448277049,247.4082162154955 105.12393649690785,244.34860937099438 104.9401181472931,242.899315505696 104.48057227302343,241.77208409371087 103.33170758769847,239.62496974301757 102.78025253862143,238.01462804194307 102.64238877641037,237.1020988188102 102.22879748977721,235.9211762212799 102.04497913992964,235.16967859782744 101.44756950368173,233.7203586222604 101.35566032887436,233.23725104756886 101.49352409085259,232.16367701924173 101.35566032887436,231.1437795968377 101.40161491627805,230.9827429751167 101.5394786784891,230.87538519885857 102.8721617134288,230.60699065966764 107.7433479798492,228.72822492587147 109.76534982584417,228.19143344374606 111.60353332245722,227.38624516013078 113.90126269310713,226.15162065328332 114.86630902905017,225.88322362559848 116.01517371460795,225.72218534105923 116.79640170070343,225.34642914583674 117.85335721098818,225.13171119539766 118.40481226006523,224.9169931547367 118.5886306099128,224.70227502333 118.54267602227628,224.64859547646483 118.31290308549069,224.5949159237789 116.75044711329974,224.9169931547367 112.29285213374533,226.52737625467125 110.3627594623249,227.0104901921004 109.44366771401837,227.439924418577 108.57053055311553,227.6546413959004 107.19189293053932,228.29879178549163 106.22684659482911,228.51350840099622 104.71034521004185,229.1039786268957 103.60743511212058,229.4260530071915 102.32070666458458,230.07020115706837 100.5284777553752,230.4996328043635 97.17379287374206,231.51953151630005 96.48447406245396,231.6805679682875 96.11683736345731,231.6268891565851 95.93301901360974,231.51953151630005 95.0598818527069,228.5671875406406 94.41651762882248,227.22520735056605 93.7271988177672,225.18539069150575 93.40551670570858,223.68236266396707 92.80810706922784,221.6425318196998 92.30260660778731,219.60269280779175 91.61328779649921,217.45548502419842 91.70519697130658,216.54291897558141 91.79710614611395,217.29444407549454 91.88901532092132,219.06589171028463 92.90001624426804,224.27283848938532 93.26765294349752,225.56114700547187 94.14079010440037,228.24511261750013 94.41651762882248,229.53341108874884 94.64629056607373,231.03642185463104 94.78415432828479,232.86150039493805 94.46247221645899,234.04243008425692 93.77315340493806,234.52553689549677 90.234650173923,235.65278434025822 88.99387631402351,235.97485458065057 88.35051208990626,236.08221128222067 88.07478456571698,235.9211762212799 87.75310245365836,235.65278434025822 86.74210153054446,233.93507295288146 85.27155473316088,230.23123806720832 84.30650839745067,228.406150104478 83.1116891244892,225.13171119539766 82.60618866304867,224.21915889711818 82.42237031343393,223.4676440123585 82.1006882013753,222.55508873338113 81.73305150214583,221.10573287162697 81.4113693900872,220.13949333963683 81.5032785651274,219.71005295944633 81.68709691450931,219.49533263361081 82.1925973764155,219.1732519750949 83.70909876096994,218.9585314230062 84.21459922241047,218.7438107804046 84.85796344652772,218.26068900362588 85.22560014552437,218.1533285465557 86.05278271925636,218.1533285465557 87.8450116282329,218.42172964673955 90.09678641171195,217.99228781845886 90.96992357284762,217.50916532916017 92.80810706922784,216.00611465406837 93.81910799257457,215.41562924697064 97.26570204878226,214.18097572948318 100.43656858056784,213.53680748917395 101.95306996512227,213.05368077429011 102.41261583915912,213.0 102.78025253862143,213.26840381522197 103.51552593731321,214.4493789227563 104.98607273469679,216.4892385689309 105.07798190950416,217.18708341487218 105.81325530796312,219.1732519750949 106.1808920071926,220.83733318536542 106.87021081871353,222.93084698735038 107.32975669298321,224.004440471821 107.92716632923111,225.13171119539766 108.47862137830816,226.52737625467125 108.66243972769007,226.79577294323826 108.89221266517416,226.95681088842684 109.30580395180732,227.0104901921004 110.17894111271016,226.90313157893252 112.20094295893796,226.3663381737424 113.3957622316666,225.88322362559848 114.86630902905017,225.6148264564108 115.87730995216407,225.34642914583674 117.20999298733659,224.75595456466544 118.22099391021766,224.54123636556324 118.5886306099128,224.64859547646483 118.49672143510543,224.86331363028148 118.03717556083575,225.07803169370163 115.87730995216407,225.66850590147078 113.57958058151416,226.42001753981458 112.52262507076375,226.58105560357217 110.6844415741507,227.439924418577 108.11098467907868,228.29879178549163 105.72134613338858,228.94294136058306 103.83720804913901,229.85548519762233 102.41261583915912,230.2849170260597 101.07993280421942,230.60699065966764 99.60938600706868,231.3584950133809 99.37961306981742,231.6268891565851 99.28770389501005,231.8952831585775 99.33365848264657,232.27103452384472 99.47152224485762,232.5931069018552 100.20679564331658,233.34460832591867 100.57443234254606,234.04243008425692 100.75825069239363,235.4380707333912 101.35566032887436,236.7263510164339 102.22879748977721,239.3029018099769 102.68834336381406,240.48381656903075 103.2397984128911,242.09415046597132 103.6533896997571,243.81183434609557 104.29675392340869,245.3684803606011 105.16989108431153,248.0523416310316 106.2728011822328,251.64869356970303 106.73234705626965,252.88325629307656 107.14593834313564,254.60090380196925 107.0540291685611,255.0303147743689 107.14593834313564,255.4597253850079 107.3757112803869,256.15751685533905 107.83525715442374,256.3722217309987 107.9731209166348,256.5332503282698 108.11098467907868,257.0700119519024 109.90321358805522,261.7398142181337 110.04107735049911,262.43759708851576 109.76534982584417,263.1353790034191 109.99512276309542,263.9405107945786 110.13298652530648,264.15521239081863 110.82230533659458,264.7993166364613 111.05207827338018,265.22871901473263 111.69544249749742,267.0" stroke="#4dd2ff" stroke-linecap="round" stroke-linejoin="round" stroke-width="0.5"><title>2023-07-26 6.1km</title><desc>9525965649</desc></polyline><polyline fill="none" points="170.95155015098862,263.8022177545063 170.40397264342755,262.38604951347224 169.97373317321762,260.9698766483634 169.62171906116419,259.46233271082747 169.15236691199243,257.81773334823083 169.0741415536031,257.22384871260147 168.1745499339886,255.57924086178537 167.31407099380158,252.9295817624661 167.2358456356451,252.56411027151626 167.27495831460692,252.10727047472028 167.3531836727634,251.83316636574455 167.31407099380158,251.51337801956106 167.04028223990463,251.0108529989957 166.3753666949924,250.64537989118253 166.29714133683592,250.4626432217192 165.82778918743134,248.6352722926531 164.81085953046568,246.21399395170738 164.7326341723092,245.20893104744027 164.81085953046568,244.79776827889145 164.77174685150385,244.56934435013682 164.4979580976069,244.06681128338096 163.911267911084,243.51859272818547 163.63747915741988,242.9703734802315 162.89433825411834,240.91454512730706 162.03385931369849,238.0820545440365 161.01692965673283,235.56934579912922 160.03911267919466,232.371331794071 159.68709856714122,231.64035385282477 159.56976052979007,231.09211958837113 159.2568590969313,230.1783942739421 158.9439576640725,228.8991755991883 158.74839426856488,227.8940725644934 158.59194355201907,227.30014694898273 158.43549283547327,226.34072692861082 158.08347872341983,225.28993113711476 158.00525336526334,224.60462816231302 158.08347872341983,224.2848197367275 158.23992943996564,224.1477589107235 159.88266196264885,223.50814114967943 160.70402822387405,222.9598966035992 161.60361984348856,222.64008696496603 162.6987748586107,222.00046698006918 165.28021167987026,221.31515880624647 166.4535920531489,220.76691148753162 168.37011332949623,220.3100381924305 168.72212744154967,220.127288739488 169.19147959095426,219.80747701175278 170.20840924791992,219.5333524857706 171.3426769420039,218.98510291421553 172.8289587481413,218.57391528051812 173.14186018123291,218.34547753783409 173.0636348228436,218.2541024069069 172.75073338998482,218.299789974757 171.96847980772145,218.52822774159722 167.11850759806111,220.40141288982704 165.90601454582065,220.76691148753162 161.99474663450383,222.22890279715648 160.977816977771,222.45733849413227 158.70928158937022,223.50814114967943 157.65323925344273,223.7365761725523 156.71453495463356,224.10207195905969 155.2673658276908,224.4675674374157 153.85930937970988,224.78737572825048 153.4681825884618,224.78737572825048 153.3117318721488,224.65031506094965 152.88149240170605,222.64008696496603 152.56859096884727,221.7720310424629 151.3560979166068,217.06622395434533 151.04319648374803,216.2895324374258 150.65206969249994,214.27926558000036 150.3000555804465,213.63963326183148 150.18271754332818,213.59394520302885 149.8698161104694,213.63963326183148 149.67425271472894,213.73100936505944 149.67425271472894,213.86807348375442 149.8698161104694,214.91889695468126 150.6911823716946,217.56878831237555 150.96497112535872,218.71097786835162 151.62988667050377,221.04103523358935 152.25568953622133,223.55382816394558 152.68592900619842,226.2493534825917 152.52947828988545,226.52347376284888 152.37302757357247,226.5691604592721 150.88674576720223,227.16308707604185 147.9141821549274,227.98544566394412 147.0145905353129,228.442310872284 146.85813981876709,228.71642976618023 146.89725249796174,228.76211623166455 147.24926661001518,228.5336838560761 150.18271754332818,227.5285799744015 152.25568953622133,226.7062205199618 152.52947828988545,226.52347376284888 152.68592900619842,226.15798001730582 152.68592900619842,225.5183652214182 152.21657685679384,223.6908891776693 152.13835149887018,222.9142095267598 150.84763308800757,218.1170396747766 150.73029505065642,217.2946623711032 149.9480414686259,214.05082557472633 149.75247807288542,213.1370643498085 149.75247807288542,213.0 150.06537950597703,213.04568812137586 150.26094290148467,213.2284405589453 150.57384433434345,214.0051375591429 151.16053452086635,216.60934675997123 151.47343595395796,218.1627272569458 151.70811202866025,218.93941541851382 151.78633738681674,219.6247273469926 152.02101346151903,220.40141288982704 153.27261919295415,224.60462816231302 153.42906990949996,224.83306260764948 153.58552062581293,224.92443635204108 153.93753473786637,224.92443635204108 155.03268975298852,224.60462816231302 156.9100983501412,223.82795014805743 159.1004083803855,223.1883319153858 160.977816977771,222.41165136444033 162.07297199289314,222.09184132132214 163.1681270080153,221.68065663371817 164.22416934394278,221.17809704170213 165.3975497172214,220.94966067082714 167.86164850136265,219.99022659935872 169.42615566565655,219.3962901579216 172.47694463608786,218.57391528051812 172.75073338998482,218.57391528051812 172.8289587481413,218.6196028146951 172.8289587481413,218.71097786835162 172.711620711023,218.8937279181555 172.28138124058023,219.07647789095063 169.81728245667182,219.80747701175278 168.13543725479394,220.44710023148218 164.4979580976069,221.63496942206984 160.5084648283664,223.09695780507172 159.45242249243893,223.59951517326408 156.94921102933586,224.37619359660312 156.40163352200761,224.65031506094965 156.24518280522898,224.83306260764948 156.28429548442364,225.01581007710774 156.40163352200761,225.28993113711476 156.9100983501412,225.88385950608063 157.066549066687,226.2493534825917 157.49678853689693,227.93975911659072 157.96614068606868,228.8991755991883 158.90484498487785,232.05152909632307 160.0,235.24954545981018 160.7431409030687,237.71657054050593 161.52539448533207,239.7267287480645 162.62054950045422,242.92468851152807 162.8552255751565,243.9754415723146 162.8552255751565,244.61502914546872 163.1681270080153,245.39166993054096 163.5592537992634,245.71146279069944 164.0286059482023,246.6708399564377 165.43666239641607,250.55401156609878 165.55400043376721,251.0108529989957 165.28021167987026,251.37632579889032 165.24109900090843,251.51337801956106 165.31932435906492,251.7874823306338 165.51488775457256,252.19863847258966 166.02335258293897,252.60979422472883 166.17980329948477,252.88389784301398 167.3531836727634,255.99039340909803 167.5096343893092,256.5842797337973 167.62697242666036,257.3608990852663 168.3310006505344,258.6400338090607 169.58260638220236,262.6144640586281 170.87332479283214,266.2690804224403 170.9124374720268,266.5431754082674 170.71687407628633,266.86295267305104 170.755986755481,267.0 171.02977550937794,267.0 171.38178962119855,266.86295267305104 172.0075924869161,266.45181043221965" stroke="#4dd2ff" stroke-linecap="round" stroke-linejoin="round" stroke-width="0.5"><title>2023-07-23 5.7km</title><desc>9507119362</desc></polyline></svg>