<?xml version="1.0" encoding="utf-8" ?>
<svg baseProfile="full" height="300mm" version="1.1" viewBox="0,0,200,300" width="200mm" xmlns="http://www.w3.org/2000/svg" xmlns:ev="http://www.w3.org/2001/xml-events" xmlns:xlink="http://www.w3.org/1999/xlink"><defs /><rect fill="#222222" height="300" width="200" x="0" y="0" /><text fill="#FFFFFF" style="font-size:12px; font-family:Arial; font-weight:bold;" x="10" y="20">Over 5km Runs</text><text fill="#FFFFFF" style="font-size:4px; font-family:Arial" x="10" y="280">ATHLETE</text><text fill="#FFFFFF" style="font-size:9px; font-family:Arial" x="10" y="290">Melt</text><text fill="#FFFFFF" style="font-size:4px; font-family:Arial" x="120" y="280">STATISTICS</text><text fill="#FFFFFF" style="font-size:3px; font-family:Arial" x="120" y="285">Number: 13</text><text fill="#FFFFFF" style="font-size:3px; font-family:Arial" x="120" y="290">Weekly: 2.6</text><text fill="#FFFFFF" style="font-size:3px; font-family:Arial" x="141" y="285">Total: 79.9 km</text><text fill="#FFFFFF" style="font-size:3px; font-family:Arial" x="141" y="290">Avg: 6.1 km</text><text fill="#FFFFFF" style="font-size:3px; font-family:Arial" x="167" y="285">Min: 5.3 km</text><text fill="#FFFFFF" style="font-size:3px; font-family:Arial" x="167" y="290">Max: 9.2 km</text><polyline fill="none" points="42.31463921815157,75.60000000000582 42.04009924433194,74.95867401300347 41.21647932147607,72.34755130193662 41.17725932528265,72.02688602847047 41.29491931409575,71.5229829782038 41.21647932147607,71.01907934411429 41.02037934004329,70.69841309104231 40.54973938409239,70.42355611466337 40.314419406233355,70.10288942256011 39.60845947288908,68.40793297908385 39.25547950598411,67.30849824022152 38.902499539079145,66.62135011702776 38.824059546459466,66.39230050123297 38.78483955003321,65.70515093032736 38.51029957574792,64.74313970687217 38.39263958693482,63.87274676619563 37.96121962741017,63.36883426739951 37.412139679072425,62.22357641678536 36.3139797821641,59.062649098574184 35.6864598414395,56.863729586591944 35.0981598966755,55.35196597201866 34.902059915009886,54.52736542158527 34.31375997024588,53.24465034608147 33.490140047622845,50.9540782996919 33.019500092137605,49.99203444219893 32.50964013976045,48.20537591687753 32.58808013238013,47.38076181363431 32.50964013976045,46.46452208716073 32.23510016570799,45.502468296472216 31.999780187848955,43.94485288418946 32.03900018404238,43.80741596221924 32.195880169281736,43.76160364531097 34.784399926196784,42.57048171007773 36.000219811918214,42.066544524626806 36.54929976025596,41.74585692057735 38.23575960169546,41.28773136169184 39.098599520511925,40.96704318324919 40.118319424800575,40.69216741345008 41.02037934004329,40.37147879577242 42.079319240525365,39.91335178882582 43.13825914100744,39.592662596696755 44.47173901554197,39.04290914561716 46.07975886459462,38.58478073871811 46.86415879102424,38.172464759933064 47.06025877245702,38.0350260133564 47.06025877245702,37.98921308811987 46.90337878721766,37.94340015828493 46.550398820545524,37.98921308811987 44.74627899006009,38.722219311544904 43.25591913005337,39.18034757350688 42.04009924433194,39.68428810421028 39.41235949122347,40.55472946341615 38.58873956860043,40.73798005376011 37.17681970121339,41.42516907994286 33.960780003340915,42.47885681083426 32.62730012880638,43.07441831167671 31.68602021713741,43.44091729144566 30.313320346176624,43.76160364531097 29.293600442120805,44.265538866398856 28.469980519264936,44.44878789279028 27.999340563779697,44.44878789279028 27.803240582114086,44.402975643432 27.685580593068153,44.265538866398856 27.136500644730404,43.395104935916606 26.861960670677945,42.158169510919834 25.763800774002448,38.76803215939435 25.21472082543187,36.7980753396987 24.979400847340003,35.19461552530993 24.66564087686129,34.50741665170062 24.547980888048187,33.86603005649522 24.155780924949795,32.76650797747425 23.99890093971044,32.44581351408851 23.802800958044827,32.40000000002328 23.685140968998894,32.58325402729679 23.685140968998894,32.81232145286049 24.234220917336643,34.8739228528284 24.66564087686129,36.06506587268086 25.018620843766257,38.3099034629704 25.999120751628652,41.51679420139408 26.234440729487687,42.75373145099729 26.861960670677945,45.2734075562621 26.861960670677945,45.823153129866114 26.705080685205758,46.14383772673318 26.508980703772977,46.281273910281016 25.05784084019251,46.96845417577424 22.077121120411903,48.02212847341434 21.4888211756479,48.20537591687753 21.018181219697,48.15956406327314 20.93974122731015,48.02212847341434 21.018181219697,47.97631660057232 21.449601179221645,48.15956406327314 21.645701160887256,48.15956406327314 23.410600994946435,47.51819760602666 25.253940821625292,46.96845417577424 26.587420696392655,46.281273910281016 26.82274067425169,46.0522135803476 26.90118066687137,45.86896522954339 26.82274067425169,45.22759539380786 26.312880722107366,43.532541988097364 26.038340748054907,42.75373145099729 25.763800774002448,41.47098164315685 25.33238081424497,39.91335178882582 25.21472082543187,39.45522429904668 25.21472082543187,38.85965784077416 25.05784084019251,38.21827766575734 24.704860873287544,37.21039262189879 24.19500092114322,34.91973610618152 23.763580961851403,33.7744033227209 23.72436096542515,33.31626936458633 23.802800958044827,33.041388757905224 23.92046094709076,32.99557530664606 24.077340932330117,32.99557530664606 24.273440913762897,33.13301564598805 24.783300865907222,34.18672347231768 25.450040803058073,36.38575766663416 25.528480795910582,37.16457960990374 25.724580777576193,37.89758722341503 26.312880722107366,39.68428810421028 26.508980703772977,40.69216741345008 26.783520677825436,41.47098164315685 27.01884065568447,42.79954387419275 27.411040619015694,44.402975643432 27.64636059687473,44.44878789279028 29.372040434507653,43.99066518183099 32.31354015832767,42.93698111467529 33.17638007714413,42.57048171007773 33.88234001095407,42.387231892120326 35.96099981549196,41.60841930357856 37.52979966788553,41.05866840109229 37.80433964240365,41.05866840109229 37.80433964240365,41.28773136169184 37.333699686452746,41.79166944991448 36.82383973430842,41.974919518921524 35.725679837632924,42.295606953965034 33.411700055003166,43.166043085599085 31.372260246658698,44.12810204576817 30.862400294747204,44.265538866398856 30.627080316655338,44.54041237721685 30.627080316655338,44.815285714226775 30.705520309275016,45.04434669550392 30.94084028713405,45.31921971403062 31.803680206183344,45.63990468258271 32.078220180468634,45.96058941454976 32.23510016570799,46.281273910281016 32.35276015452109,46.8310182094574 32.82340011023916,50.450150830234634 33.215600073570386,51.59543968900107 33.88234001095407,54.02344209313742 34.82361992215738,56.63467483140994 35.451139863347635,58.87940623058239 35.88255982287228,60.207915273931576 36.23553978977725,60.89507353134104 36.784619738115,62.727490242687054 37.09837970859371,63.78112635528669 37.137599705019966,64.55989923249581 37.372919682879,65.10962042387109 37.80433964240365,65.43029079792905 37.882779634790495,65.56772088591242 38.19653960526921,66.43811043407186 38.31419959431514,67.17106870247517 38.824059546459466,68.95764930613223 39.25547950598411,69.87384164051036 39.45157948741689,70.56098462457885 39.49079948384315,70.83584151411196 39.373139494797215,71.20231709675863 39.45157948741689,71.61460175804677 39.60845947288908,71.93526733547333 40.19675941742025,72.39336060738424 40.392859399085864,72.71402561065042" stroke="#4dd2ff" stroke-linecap="round" stroke-linejoin="round" stroke-width="0.5"><title>2023-08-18 5.3km</title><desc>9672765593</desc></polyline><polyline fill="none" points="108.23815677664243,75.60000000000582 107.88924660719931,74.7849458452547 106.9200516922865,72.06808750180062 106.8425160991028,71.56999494295451 106.9200516922865,70.84549564530607 106.8425160991028,70.52852681861259 106.64867711625993,70.07571380355512 106.18346355692483,69.75874440930784 105.98962457384914,69.48705617096857 105.36933982861228,67.94748624388012 104.5552161000669,65.63812101454823 104.2838415238075,64.27966508406098 104.24507372709922,63.55515349894995 104.05123474402353,63.28346133971354 103.70232457481325,63.01176900882274 103.43094999878667,62.46838383181603 102.34545169398189,59.25334081205074 102.03530932124704,58.43825566212763 99.6704737287946,51.011853100237204 99.20526016969234,49.925051718746545 98.81758220377378,48.294844493997516 98.81758220377378,47.932575382088544 98.66251101740636,46.57406349320081 98.42990423785523,45.75895429874072 98.04222627193667,44.807991618232336 97.92592288204469,44.309867469535675 98.0034584752284,43.947594998870045 98.35236864467151,43.63060633657733 101.37625677930191,42.31736510206247 103.97369915107265,41.321110454329755 105.29180423519574,40.91355106921401 111.45588389411569,38.694609859085176 112.69645338505507,38.1964786251192 112.92906016483903,38.01533985149581 112.81275677494705,37.92477043590043 112.54138219892047,37.92477043590043 111.37834830093198,38.1964786251192 108.62583474256098,39.05688675757847 106.60990931955166,39.600301532656886 104.63275169325061,40.32485349732451 102.53929067705758,41.27582609723322 99.28279576287605,42.40793359189411 96.4139788148459,43.5400381044019 94.35928559512831,44.12873127244529 93.85530423931777,44.12873127244529 93.70023305295035,44.0834472112474 93.54516186658293,43.811742743710056 92.30459237564355,39.872008662554435 92.03321779938415,38.51347129532951 91.60677203675732,37.74363154778257 91.25786186754704,36.702081459079636 90.24989915615879,33.350990135397296 90.13359576603398,33.21513453053194 89.97852457989939,33.350990135397296 89.93975678319111,33.48684569718898 89.97852457989939,33.894412125169765 90.79264830844477,36.06809321278706 91.37416525720619,38.3323326552927 91.80061101983301,39.32859423107584 92.11075339256786,40.5059912976576 92.45966356177814,41.54753216795507 93.27378729055636,45.57781871230691 93.19625169737265,45.80423818336567 92.8861093246378,46.03065753536066 91.56800424004905,46.6646310860815 87.26477881800383,47.977859037870076 87.4586178008467,47.977859037870076 89.39700763090514,47.29860370163806 90.98648729152046,46.7099148753332 92.03321779938415,46.43821206819848 92.45966356177814,46.16650908920565 92.26582457893528,46.347644427616615 91.7230754266493,46.6646310860815 89.43577542761341,47.434454854839714 88.00136695359834,47.7514407117269 87.07093983516097,48.11370997616905 87.14847542834468,48.20427724462934 87.7299923771061,48.02314268879127 88.97056186827831,47.479738562891725 91.10279068117961,46.84576621456654 92.6147347483784,45.985373674484435 92.76980593474582,45.84952206342132 92.84734152792953,45.66838651508442 92.03321779938415,41.68338513892377 91.68430762994103,40.7776978550246 91.21909407083876,38.64932522535673 90.94771949481219,38.01533985149581 90.71511271502823,36.837935961579205 90.52127373195253,36.33980257579242 90.0560601730831,33.62270121613983 89.74591780034825,32.80756745839608 89.74591780034825,32.581141140311956 89.90098898671567,32.39999999999418 90.09482796979137,32.39999999999418 90.36620254558511,32.581141140311956 90.90895169810392,33.57741604789044 91.18032627436332,34.483118505217135 91.41293305391446,35.026539063372184 91.83937881654128,36.65679661539616 92.03321779938415,37.74363154778257 92.26582457893528,38.64932522535673 92.76980593474582,40.279569035366876 92.96364491782151,41.9550909519603 93.5839296632912,43.494753981154645 93.66146525647491,44.35515150692663 93.81653644284233,44.49100359046133 94.39805339183658,44.35515150692663 95.40601610345766,43.90231091863825 96.87919237394817,43.449469853105256 97.84838728886098,42.99662831056048 99.6704737287946,42.40793359189411 102.19038050761446,41.27582609723322 104.2838415238075,40.55127573583741 106.2222313536331,40.00786216306733 107.50156864128076,39.46444790335954 110.13777880975977,38.694609859085176 111.41711609764025,38.1964786251192 112.61891779210418,37.92477043590043 112.73522118176334,38.01533985149581 112.73522118176334,38.151193938887445 112.5026144022122,38.3323326552927 110.06024321657605,39.28330966399517 109.20735169155523,39.64558606626815 105.446875421796,40.91355106921401 104.43891271017492,41.36639480665326 100.21322288108058,42.77020736029954 99.28279576287605,43.22304914146662 97.5382449158933,43.811742743710056 96.76288898405619,44.17401532889926 96.60781779768877,44.40043553960277 96.56905000121333,44.53628760870197 96.68535339087248,44.89855958308908 97.42194152623415,45.39668304959196 97.65454830601811,45.62310261611128 97.92592288204469,46.07594139140565 98.08099406841211,46.7099148753332 98.19729745807126,47.52502226625802 98.58497542422265,48.521262533788104 98.89511779695749,49.97033516448573 99.32156355935149,50.96656976421946 99.8643127118703,52.82318262947956 100.52336525381543,54.49865564808715 101.29872118588537,57.3514730577881 103.15957542252727,62.83064069275861 103.27587881218642,63.37402541193296 103.23711101571098,64.23438314572559 103.3921822020784,64.596638518502 103.74109237152152,64.91361171918106 103.85739576118067,65.14002100512153 104.2838415238075,66.63431930184015 104.94289406575263,68.26445697373128 105.13673304906115,68.98896062158747 105.60194660793059,70.25683906680206 105.60194660793059,70.57380809393362 105.446875421796,70.80021439873963 105.48564321827143,70.93605812435271 105.7182499980554,71.3888702330878 106.2222313536331,71.79640072313487 106.45483813341707,72.1133686149551" stroke="#4dd2ff" stroke-linecap="round" stroke-linejoin="round" stroke-width="0.5"><title>2023-08-15 6.1km</title><desc>9652797631</desc></polyline><polyline fill="none" points="172.8282055282034,72.25622229438159 172.71214537741616,71.48805346424342 172.90557896182872,70.85544280643808 172.8282055282034,70.58432366765919 172.59608522686176,70.08727146784076 172.1705313413404,69.81615184352268 171.16467670258135,67.46644125427702 170.5456892324146,65.65896281189634 170.35225564800203,64.3485361788189 170.35225564800203,63.896663997729775 170.19750878075138,63.62554046072182 170.08144863019697,63.218854833743535 169.65589474444278,62.7669814627443 169.42377444333397,62.1795453686791 168.88216040702537,60.55279506355873 168.57266667182557,59.874980615713866 168.41791980457492,59.01641411072342 168.06973935267888,58.29340940521797 167.76024561771192,57.208900061959866 167.29600501526147,56.07919991374365 166.94782456336543,54.94949678995181 166.75439097895287,54.09092042603879 166.36752381012775,53.09677722599008 164.74268170143478,48.57791545786313 164.5879348339513,47.80970422268729 164.62662155088037,47.31262563134078 164.78136841859668,46.95111356669804 164.66530826780945,46.31846672046231 164.78136841859668,45.50506226121797 164.74268170143478,45.098359453171724 164.5879348339513,44.64646699177683 164.16238094842993,43.878248715016525 164.0850075148046,43.51673375570681 164.201067665359,43.38116556731984 165.20692230411805,42.884081843541935 166.21277694264427,42.61294502418605 167.60549875022843,41.98029177886201 170.3135689315386,41.16687909225584 172.1705313413404,40.443844298046315 175.03334838990122,39.58523889674689 178.7472732097376,38.18435270970804 178.9020200772211,38.04878283594735 178.9020200772211,37.95840289615444 178.51515290839598,37.9132129191712 176.7742506491486,38.31992254065699 174.02749375114217,39.314099991781404 169.57852131058462,40.48903400846757 167.1025714308489,41.52839603234315 164.51056140032597,42.3869975435955 162.92440600856207,42.83889238545089 162.26673182169907,43.15521849156357 160.83532329718582,43.56192314226064 159.8294686586596,43.652301901136525 159.5973483575508,43.51673375570681 158.9396741706878,42.34180803329218 157.97250624885783,38.952581185265444 157.8564460980706,38.093972798553295 157.7016992305871,37.28055274131475 157.35351877869107,36.015229585871566 156.96665161009878,35.111425046343356 156.73453130898997,34.02685708491481 156.54109772434458,32.71633380537969 156.38635085709393,32.44519055786077 156.19291727244854,32.39999999999418 156.07685712212697,32.39999999999418 155.9994836882688,32.53557165939128 155.9994836882688,32.851905364805134 156.23160398961045,34.07204747135984 156.9279648931697,36.693081740668276 157.1987719112076,37.370932823832845 157.74038594774902,39.268910157697974 158.01119296555407,40.66979280213127 158.70755386934616,43.110029062081594 158.90098745375872,44.510899160726694 158.9396741706878,45.45987307932228 158.78492730297148,45.68581894109957 157.4695789294783,46.31846672046231 155.80605010385625,46.90592453721911 153.21404007356614,47.6741373911791 153.0979799227789,47.76451528366306 153.17535335640423,47.80970422268729 153.44616037444212,47.80970422268729 158.32068670075387,46.45403398034978 158.47543356823735,46.27327762436471 158.43674685107544,45.68581894109957 158.55280700186267,45.9569538179785 158.43674685107544,46.13771030725911 157.0440250437241,46.725168371602194 154.21989471209235,47.6741373911791 153.3687869408168,47.80970422268729 153.13666663970798,47.76451528366306 153.29141350719146,47.6741373911791 153.83302754326724,47.7193263398367 154.1425212782342,47.6741373911791 155.96079697133973,47.041491611424135 157.97250624885783,46.40884489851305 158.47543356823735,46.13771030725911 158.630180435488,46.00214294742909 158.70755386934616,45.64062977820868 158.70755386934616,45.053170228464296 158.43674685107544,43.01965018903138 157.81775938137434,40.714982488629175 157.66301251365803,39.81118785304716 157.4695789294783,39.22372031881241 156.96665161009878,37.054602451680694 156.61847115820274,35.06623476941604 156.0381704051979,32.89709587499965 155.9994836882688,32.761524330009706 156.07685712212697,32.580762202938786 156.23160398961045,32.53557165939128 156.54109772434458,32.761524330009706 156.77321802568622,33.57495295809349 157.00533832679503,34.16242823007633 157.62432579696178,36.693081740668276 158.59149371879175,39.991946932685096 158.70755386934616,40.714982488629175 159.55866164062172,44.19457405450521 159.7134085081052,44.284952680027345 160.13896239362657,44.19457405450521 161.64774435176514,43.60711252404144 163.81420049653389,43.110029062081594 165.2456090208143,42.61294502418605 167.91499248496257,41.438016825937666 170.50700251571834,40.53422371399938 172.01578447362408,40.082326443778584 176.15526317921467,38.591062074003275 178.51515290839598,37.86802293744404 178.66989977587946,37.86802293744404 178.7859599266667,38.00359286839375 178.5925263420213,38.139162756473524 177.97353887208737,38.41030240422697 176.6195037814323,38.817011554318015 174.45304763666354,39.72080828491016 170.85518296738155,40.76017217049957 168.41791980457492,41.66396480627009 164.39450124977157,42.97446074523032 162.96309272525832,43.56192314226064 162.69228570745327,43.742680640891194 162.6149122735951,43.92343806353165 162.69228570745327,44.420520582731115 163.11783959297463,45.1887378882675 163.31127317715436,45.731008099071914 163.73682706290856,47.31262563134078 164.16238094842993,48.17121556351776 164.5879348339513,49.300936540123075 164.82005513529293,50.24989986084984 165.63247618963942,52.1026317216747 165.98065664153546,53.32271906468668 166.4448972439859,54.4976147072739 166.5996441114694,55.13024948970997 167.1025714308489,56.35032822060748 167.21863158140332,57.11852415968315 167.56681203329936,58.112658038386144 167.83761905133724,58.654911910387455 169.03690727450885,62.58623198090936 169.5011478769593,64.48409774023457 169.81064161192626,64.71003358080634 169.96538847940974,64.93596930248896 170.5456892324146,66.78863773072953 170.9325564012397,67.87312285421649 171.08730326895602,68.37017761947936 171.12598998565227,68.86723180863191 171.43548372061923,69.77096522273496 171.31942357006483,70.44876403384842 171.39679700392298,70.81025629522628 171.6289173050318,71.21693472514744 172.09315790748224,71.53323990409262 172.32527820859104,71.8947312514938 173.56325314869173,75.2836978196865 173.67931329924613,75.60000000000582" stroke="#4dd2ff" stroke-linecap="round" stroke-linejoin="round" stroke-width="0.5"><title>2023-08-14 6.1km</title><desc>9645903556</desc></polyline><polyline fill="none" points="42.3637123873923,123.60000000000582 41.86495889653452,122.52453457831871 40.82908626133576,119.88067052618135 40.71398930205032,119.34293345399783 40.790720608085394,118.80519570203614 40.71398930205032,118.3570803895127 40.52216103603132,117.99858779966598 40.25360146397725,117.86415300058434 40.02340754517354,117.6400949076633 39.678116666618735,116.87829650906497 38.48878141888417,113.60702905594371 38.181856193812564,112.39710184451542 38.2202218468301,111.99379200927797 38.1434905405622,111.59048179164529 37.95166227477603,111.18717119164648 37.60637139645405,110.87348490508157 37.41454313043505,110.60461076101637 36.53213310800493,108.13992318851524 35.91828265762888,105.98891145520611 35.41952916653827,104.7341495877481 34.652216103626415,102.04536169409403 33.347783896373585,98.28103008918697 33.07922432431951,97.20550065475982 32.733933445764706,96.3988517941616 32.69556779274717,96.04034069838235 32.77229909901507,95.1440616370819 32.69556779274717,94.78554948384408 32.427008220460266,94.29259477957385 31.77479211706668,93.2618694609555 31.506232545012608,92.67928448037128 31.429501238511875,92.23114164453 31.506232545012608,92.00707004961441 31.69806081056595,91.73818397993455 35.11260394146666,90.03523492420209 39.60138536035083,88.6011672730092 40.71398930205032,88.15302014048211 41.788227590266615,87.88413163422956 42.82410022523254,87.48079855629476 44.85747984261252,86.89820565722766 46.43047162168659,86.27079702736228 46.622299887705594,86.13635220058495 46.46883727493696,86.00190733122872 45.24113637395203,86.18116714755888 43.898338513681665,86.80857590958476 42.5171749999281,87.61524295806885 40.71398930205032,88.28746432982734 39.486288401065394,88.64598196026054 37.95166227477603,89.18375783946249 37.18434921163134,89.40783092170022 35.956648310646415,89.94560583765269 34.038365653017536,90.48338007356506 31.19930731970817,91.60374088125536 29.050830743042752,92.36558454492479 28.321883333148435,92.50002740268246 27.746398535789922,92.54484167913324 27.592935923254117,92.45521312151686 27.55457027000375,92.3207702494692 27.132548085413873,90.79708139717695 26.518697635037825,89.00449928859598 26.17340675671585,87.70487253565807 25.713018918875605,86.36042688830639 25.175899774534628,84.56782608095091 24.25512409885414,80.80333979293937 24.06329583306797,80.48963109825854 23.909833220532164,80.40000000002328 23.83310191426426,80.40000000002328 23.679639301495627,80.57926217743079 23.679639301495627,80.80333979293937 24.485318017890677,83.1337399953336 25.13753412128426,85.37449737911811 25.828115878161043,88.64598196026054 26.825622860342264,92.45521312151686 27.05581677914597,93.53075456744409 26.940719819860533,93.79963950402453 26.787257207091898,93.93408190851915 25.55955630610697,94.56147923442768 23.526176688959822,95.4577595233568 21.416065765544772,96.08515460183844 21.377700112294406,96.17478239469347 21.416065765544772,96.2195962840633 22.14501317543909,96.08515460183844 23.526176688959822,95.36813157956931 26.25013806298375,94.42703702824656 26.518697635037825,94.24778068717569 26.595428941305727,94.11333838180872 26.55706328828819,93.71001121067093 26.74889155384153,93.71001121067093 26.86398851312697,93.62038289851625 26.019944143947214,91.20041133041377 24.907340202480555,86.18116714755888 24.523683671141043,85.01597699112608 24.06329583306797,82.9544788946223 23.64127364847809,81.43075648817467 23.602907995227724,80.71370876091532 23.718004954745993,80.48963109825854 23.986564526800066,80.44481555151287 24.178392792586237,80.53444664023118 24.408586711389944,80.84815530182095 24.63878063042648,81.38594104067306 26.403600675519556,87.39116893141181 26.710525900591165,88.87005532594048 27.209279391681775,90.75226693649893 27.592935923254117,91.87262703603483 27.708032882772386,92.09669870178914 27.97659245482646,92.09669870178914 31.122576013440266,91.02115362952463 33.76980608119629,90.2144930405484 34.88241002243012,89.6767184646742 37.452908783685416,88.78042599384207 38.02839358104393,88.46672318282072 38.987534909974784,88.33227905011154 40.483795383013785,87.92894639715087 44.55055461730808,86.45005673036212 45.816621171310544,86.18116714755888 46.008449436863884,86.18116714755888 46.08518074359745,86.27079702736228 46.08518074359745,86.45005673036212 46.008449436863884,86.494871644245 44.32036069827154,87.256724458799 41.82659324328415,88.19783487491077 36.03337961691432,90.08004946034634 31.08421036042273,92.00707004961441 30.662188175600022,92.23114164453 30.547091216314584,92.45521312151686 31.39113558549434,95.36813157956931 31.966620382852852,96.3988517941616 32.15844864863902,97.20550065475982 33.040858671069145,99.31174324537278 34.153462612535805,102.627933846612 34.76731306291185,104.15158031979809 35.457894819788635,106.39222698373487 36.877423986559734,110.4701736253337 37.069252252345905,111.23198349936865 36.877423986559734,111.54566952155437 36.877423986559734,111.76973082445329 37.069252252345905,112.2178530759993 37.376177477417514,112.53153837122954 37.568005743436515,112.9348476967134 39.33282578829676,117.59528327494627 39.44792274781503,118.08821097534383 39.371191441547126,118.31226883232011 39.25609448202886,118.44670348972431 39.21772882877849,118.62594963371521 39.52465405408293,119.2084990797448 39.94667623890564,119.47736778581748 40.13850450445898,119.74623632186558" stroke="#4dd2ff" stroke-linecap="round" stroke-linejoin="round" stroke-width="0.5"><title>2023-08-10 5.8km</title><desc>9620015411</desc></polyline><polyline fill="none" points="107.0061174412258,121.5714934974385 106.92717527295463,120.74164721844136 107.0850596097298,120.18841549157514 107.0061174412258,119.81959395200829 106.76929093617946,119.40466934832511 106.37458009435795,119.2663610597665 106.17722467356361,119.03584714824683 105.1509764851071,116.4540830446931 104.51943913800642,114.56385324036819 104.44049696996808,113.91840704716742 104.28261263319291,113.45737346916576 104.36155480146408,113.18075308925472 104.24314154894091,112.67361527212779 104.12472829641774,112.4430978881428 103.69054637057707,112.0281662911002 102.62482709763572,109.21584176446777 102.34852950857021,108.24766028660815 101.9932897510007,107.50999677064829 99.34872711123899,99.4417208910163 99.07242952217348,98.88846223801374 98.40142109105363,97.13647188895266 98.1645945860073,94.60068396068527 97.69094157591462,92.71035976347048 97.88829699694179,92.43372626925702 99.15137169044465,91.83435309838387 101.36175240436569,91.05055617459584 103.01953793969005,90.5433927111153 106.29563792608678,89.29853444508626 108.78231622930616,88.51473297932534 110.5190439329017,87.7770361994626 111.26899453229271,87.54650570079684 112.8083668150939,86.90101965828217 113.04519332014024,86.71659489982994 113.08466440415941,86.62438249139814 112.84783789911307,86.62438249139814 107.55871261982247,88.6069449892675 104.91414998006076,89.43685220516636 103.33530661300756,90.08233450705302 101.24333915184252,90.82002740033204 99.58555361628532,91.46550766204018 96.3094536298886,92.52593745337799 95.44108977797441,92.940887541743 94.84902351535857,93.07920415056287 93.58594882162288,93.17141519871075 93.34912231680937,93.03309861908201 93.19123797980137,92.71035976347048 91.84922111802734,88.69915697985562 91.651865697233,87.63871791487327 91.37556810770184,86.76270109671168 90.94138618186116,84.91844943133765 90.27037775097415,82.61312391865067 89.87566690915264,80.76885476370808 89.59936932008713,80.39999999999418 89.2836006465368,80.49221372010652 89.12571630976163,80.72274793530232 89.16518739401363,80.95328202904784 90.19143558247015,83.71968168049352 91.02032835036516,86.39385138548096 91.572923528729,88.69915697985562 91.88869220227934,90.68171007771161 92.44128738064319,92.66425419319421 92.7175849697087,93.9552083236631 92.7175849697087,94.73900004476309 92.63864280143753,94.92342142225243 92.32287412812002,95.15394803468371 91.49398136045784,95.47668508812785 89.2836006465368,96.16826368693728 88.69153438392095,96.26047408406157 86.91533559607342,96.85984119263594 86.99427776434459,96.85984119263594 87.7836994479876,96.76763092176407 89.48095606756397,96.02994805452181 90.38879100349732,95.75331665872363 91.2176837711595,95.43057980932645 92.04657653882168,95.24615864569205 92.40181629662402,94.96952675440116 92.63864280143753,94.4623678328644 92.48075846489519,93.49415371430223 92.04657653882168,92.15709260001313 91.3360970239155,89.3446403700218 91.09927051863633,88.09977869372233 90.54667534027249,86.43995761644328 89.95460907765664,83.95021419538534 89.63884040433913,82.33648404109408 89.4020138992928,81.55267010442913 89.36254281480797,81.27602955617476 89.44148498331197,80.90717522008345 89.55989823583513,80.72274793530232 89.7177825726103,80.63053426376428 89.95460907765664,80.63053426376428 90.15196449845098,80.76885476370808 90.42826208774932,81.36824309171061 90.90191509760916,83.0280834074074 91.25715485517867,85.05676857579965 92.28340304386802,88.97579283511732 92.59917171741836,90.08233450705302 93.03335364349186,91.88045875597163 93.34912231680937,92.84867644507904 93.46753556933254,93.03309861908201 93.62541990587488,93.12530967703788 95.79632953554392,92.47983186374768 99.66449578478932,91.18887338074273 102.46694276109338,90.45118110915064 104.28261263319291,89.43685220516636 105.1115054008551,89.3446403700218 106.13775358931161,89.02189879390062 107.0850596097298,88.69915697985562 108.70337406080216,87.9614605110255 112.4531270575244,86.76270109671168 112.7294246465899,86.80880728879129 112.68995356257074,86.90101965828217 112.4925981417764,87.08544433896895 110.63745718542486,87.9153544405126 106.92717527295463,89.25242851531948 106.33510901010595,89.3907462899806 105.78251383197494,89.62127581707318 104.51943913800642,89.94401695099077 101.91434758272953,90.86613316496368 99.82238012156449,91.83435309838387 98.04618133348413,92.38762066984782 96.5462801347021,92.940887541743 96.3094536298886,93.12530967703788 96.2305114613846,93.35583723679883 96.2305114613846,93.54025919709238 96.34892471390776,93.81689199173707 96.86204880825244,94.55457858965383 97.05940422927961,94.92342142225243 97.57252832339145,96.85984119263594 98.04618133348413,97.68973275704775 99.26978494296782,100.8248644634441 99.90132228983566,102.76125812044484 100.69074397324584,105.48141569056315 101.36175240436569,107.18726859142771 101.75646324595436,108.61649157837383 102.34852950857021,110.04570989770582 103.05900902370922,112.35089090056135 102.98006685543805,113.1346496756305 103.13795119221322,113.7800970246899 103.65107528632507,114.19502696071868 103.76948853884824,114.42554342190851 105.1509764851071,117.83717285122839 105.66410057945177,119.68128579450422 105.58515841094777,120.00400476070354 105.38780299015343,120.14231281616958 105.4272740741726,120.37282614503056 105.70357166347094,120.92605763868778 106.05881142104045,121.1565705545654 106.29563792608678,121.47928843295085 107.16400177800097,123.60000000000582" stroke="#4dd2ff" stroke-linecap="round" stroke-linejoin="round" stroke-width="0.5"><title>2023-08-08 6.0km</title><desc>9606561718</desc></polyline><polyline fill="none" points="173.14132007490844,122.63419528127997 172.53994575259276,121.80008940500556 171.63788426970132,119.38556298441836 171.5251265843399,118.68315267187427 171.75064195506275,118.02464192849584 171.63788426970132,117.54173338899272 171.4875406890642,117.27832849512924 170.9613381572999,117.05882428985205 170.81099457666278,116.83931996879983 170.35996383521706,115.3466875203012 169.49548824713565,113.45893882669043 169.00687161041424,111.65898443438346 168.93169982009567,111.04436408093898 168.4054972883314,110.1663334321056 167.95446654665284,108.89318570544128 167.2027486441657,106.65419233767898 166.93964737816714,106.08346661410178 166.56378842703998,104.37128475363716 166.15034358063713,103.40543547246489 165.58655515359715,101.56153517428902 165.24828209728003,100.81519225778175 164.42139240447432,98.53225268624374 164.00794755807146,97.61029277538182 163.7824321873486,96.68833082480705 163.66967450198717,95.98588225527783 163.66967450198717,95.59075441450113 163.06830017990433,93.74681953698746 162.99312838958576,93.21997950191144 162.9555424945429,92.07849047405762 163.1058860749472,91.77116597077111 163.2938155506272,91.55164832971059 164.1582911387086,91.1565162842453 165.69931283895858,90.5857693348662 166.45103074144572,90.19063637353247 167.2403345394414,89.9272141912079 168.14239602256566,89.53208060536417 169.94651898858137,88.96133143099723 174.08096745307557,87.38079117570305 174.90785714588128,87.11736721693887 175.84750452404842,86.72223096669768 176.5992224267684,86.50271066563437 177.12542495829985,86.23928615186014 176.86232369276695,86.15147794355289 176.71198011212982,86.19538205000572 173.25407776003703,87.68811891705263 171.56271247938275,88.12715815441334 170.81099457666278,88.43448534532217 169.60824593249708,88.78571614311659 168.3679113930557,89.35646555805579 166.15034358063713,90.05892530307756 164.75966546079144,90.5857693348662 163.89518987271003,90.8491911009769 162.39175406750292,91.46384124085307 160.09901446453296,92.07849047405762 159.0466094010044,92.25410437423852 158.78350813500583,92.16629743340309 158.70833634468727,91.99068349631852 157.8438607568387,89.88331047791871 157.09214285435155,86.85394309175899 156.64111211244017,85.31729904192616 156.52835442731157,84.74654409434879 156.15249547571875,83.69284059869824 155.5887070489116,81.19028411703766 155.17526220250875,80.53171412370284 155.02491862210445,80.40000000002328 154.9497468317859,80.44390471259248 154.87457504146732,80.70733289036434 155.02491862210445,81.6732347838406 156.265253161313,85.62462830517325 156.94179927371442,88.47838921126095 158.0317902325187,92.16629743340309 158.14454791788012,92.78094563056948 158.10696202260442,92.9565592345607 157.73110307147726,93.52730293665081 157.80627486179583,93.4394962641527 157.76868896652013,93.17607613565633 157.54317359556444,92.25410437423852 157.2800723297987,90.717480238789 156.52835442731157,87.73202286162996 155.85180831491016,85.36120323612704 155.32560578314587,83.29770110081881 154.87457504146732,80.7951422459737 154.9497468317859,80.57561882236041 155.2504339928273,80.70733289036434 155.51353525859304,81.01466555392835 156.07732368563302,82.55132547137327 157.2800723297987,86.59051879990147 157.69351717620157,88.47838921126095 157.994204337243,89.40036932678777 158.14454791788012,90.19063637353247 158.3700632888358,91.06870911212172 158.70833634468727,92.25410437423852 158.82109403028153,92.29800783772953 159.79832730349153,92.07849047405762 160.43728752061725,91.8150694851065 161.5272784794215,91.4199376895267 163.6320886069443,90.8052874848072 164.75966546079144,90.41015473162406 165.73689873423427,89.9272141912079 168.3679113930557,89.04913904718705 170.9237522620242,88.03935034398455 173.17890596971847,87.24907921717386 173.89303797739558,87.11736721693887 175.17095841187984,86.59051879990147 176.63680832181126,86.19538205000572 176.82473779749125,86.15147794355289 177.01266727340408,86.23928615186014 176.97508137812838,86.37099842954194 176.7495660071727,86.54661473512533 175.17095841187984,87.33688719419297 173.21649186499417,87.99544643171248 172.38960217218846,88.2149659464485 171.14926763274707,88.74181230965769 169.8713471982628,89.0930428483116 168.51825497369282,89.61988810118055 165.51138336327858,90.5857693348662 164.57173598511145,91.02480551920598 163.7448462920729,91.28822700766614 162.0910669064615,91.94678000046406 161.67762206005864,92.21020090617822 161.5648643746972,92.47362164536025 161.64003616501577,92.9565592345607 162.12865280150436,94.01023930482916 162.4293399627786,95.15172304096632 162.73002712382004,95.8541730165598 163.03071428462863,96.33710668812273 163.25622965558432,96.86394278221997 163.48174502630718,97.65419567454956 164.49656419479288,100.24445853737416 164.75966546079144,101.29812017991208 165.54896925855428,103.40543547246489 165.88724231463857,104.50299130039639 167.57860759552568,109.11269421174075 167.95446654665284,110.60534898779588 167.95446654665284,110.86875809924095 167.8792947565671,111.17606851877645 167.95446654665284,111.43947726939223 168.21756781288423,112.09799841768108 168.63101265928708,112.58091326500289 169.2699728764128,114.16135794424918 169.60824593249708,115.30278648505919 169.8713471982628,115.78569761896506 170.17203435953707,116.75151820815518 170.35996383521706,117.49783258500975 170.35996383521706,117.62953498327988 170.24720614985563,117.98074117535725 170.35996383521706,118.55145060637733 170.51030741562136,118.77095402567647 170.9237522620242,119.07825861833408 171.2996112133842,119.73676769671147 171.75064195506275,121.40498603880405 172.35201627691276,123.07319770363392 172.35201627691276,123.60000000000582" stroke="#4dd2ff" stroke-linecap="round" stroke-linejoin="round" stroke-width="0.5"><title>2023-08-07 5.3km</title><desc>9599973967</desc></polyline><polyline fill="none" points="41.55371825606562,171.24262405055924 40.86527811107226,170.12582226766972 39.94735791813582,167.49015839979984 39.870864568511024,166.8647442300571 40.02385126752779,166.10531149819144 39.94735791813582,165.79260350752156 39.756124544655904,165.52456790333963 39.29716444783844,165.30120477059972 39.06768439989537,164.9884961868811 37.843790808925405,161.90607066708617 37.57606408582069,160.9679367140634 37.193597338860855,158.95764268338098 36.73463724204339,158.46623602643376 36.58165054325946,158.1088490091788 35.701977025019005,155.78582605562406 35.43425030191429,154.7136573236494 35.051783554721624,153.90952899560216 34.01912333746441,150.91637126216665 33.29243651800789,148.59330890735146 33.06295646983199,148.05721578747034 32.52750302385539,146.49360698321834 32.03029625234194,145.3767400214565 31.724322854774073,144.21519526082557 31.456596131669357,143.5450718360953 31.456596131669357,142.87494735250948 31.341856107348576,141.93677129605203 30.95938936038874,140.0157376563002 30.921142685692757,139.74768575877533 30.997636034851894,139.61365974656655 31.15062273410149,139.39028296532342 33.33068319247104,138.4967746634211 34.210356710944325,137.91599325751304 35.35775695252232,137.33521105610998 36.04619709728286,137.11183307450847 36.73463724204339,136.79910370250582 38.30275090551004,136.35234705696348 40.32982466532849,135.4588323533535 41.09475815948099,135.28012918654713 41.783198304474354,134.9673984636902 45.03416565502994,133.89517709126812 45.37838572752662,133.71647326558013 45.53137242607772,133.53776936454233 45.30189237813465,133.58244534692494 44.72819225746207,133.93985303587397 43.88676541345194,134.25258451665286 43.198325268924236,134.60999164084205 41.783198304474354,135.1461017621623 38.493984278989956,135.99494140141178 36.69639056734741,136.88845497526927 34.59282345813699,137.51391335669905 32.52750302385539,138.45209919882473 30.95938936038874,139.03287987044314 30.117962516844273,139.21158145557274 28.970562275266275,139.61365974656655 28.05264208232984,139.74768575877533 27.21121523855254,139.9710623518913 26.90524184075184,139.9263870426803 26.67576179234311,139.79236108678742 26.599268442951143,139.61365974656655 25.91082829819061,137.24585987755563 24.992908105254173,135.1461017621623 24.53394800843671,133.35906538832933 23.271807743003592,129.07014736087876 22.965834345202893,128.71273556689266 22.736354297026992,128.71273556689266 22.545120923314244,128.93611797349877 22.468627573922276,129.11482381387032 22.50687424885109,129.29352957906667 23.46304111671634,131.30396424705395 23.88375453837216,132.55489656273858 24.151481261476874,133.62712132444722 24.457454659277573,134.5653157668712 24.878168080933392,136.6650767583924 25.872581623494625,140.50716569487122 25.757841599406675,141.22196909794002 25.83433494879864,140.9985931639967 25.796088273869827,140.64119142477284 25.18414147873409,138.58612557823653 24.878168080933392,137.11183307450847 23.46304111671634,132.3315160627244 23.080574369523674,130.76784926769324 22.81284764641896,130.00835188649944 22.659860947635025,128.80208854359807 22.736354297026992,128.62338257141528 22.889340995810926,128.44467652362073 23.080574369523674,128.40000000002328 23.386547767091542,128.48935304270708 23.69252116489224,128.80208854359807 23.845507863676175,129.11482381387032 24.266221285564825,131.57202148254146 24.64868803275749,133.2697133718757 24.992908105254173,134.29726042371476 25.451868201605976,136.26299567133537 25.949074972886592,137.96066877842532 26.522775093792006,139.6583350887231 26.67576179234311,139.79236108678742 27.51718863612041,139.6583350887231 29.926729142898694,138.89885363224312 31.571336155757308,138.45209919882473 33.254189843311906,137.87131773185683 38.608724303077906,135.81623846068396 41.362484882585704,134.83337094041053 41.897938328562304,134.7440192346694 43.16007859399542,134.20790860502166 44.76643893192522,133.71647326558013 44.95767230563797,133.6717972974293 45.110659004421905,133.80582518785377 45.110659004421905,133.93985303587397 44.95767230563797,134.11855676744017 44.19273881125264,134.52063988804002 41.55371825606562,135.50350813323166 39.22067109844647,136.26299567133537 35.01353688002564,137.8266422013985 33.75139661459252,138.40742372965906 32.64224304771051,138.80950278323144 30.882896010996774,139.30093221983407 30.347442565020174,139.6583350887231 29.65900242025964,139.9263870426803 29.54426239593886,140.37313992259442 30.07971584191546,141.4006697605073 30.61516928789206,143.0983222980285 31.112376059172675,144.08117066064733 31.992049577645957,147.07437664072495 32.41276299953461,148.14656468783505 32.87172309611924,149.71016739722108 34.401590084889904,153.59681201176136 35.77847037441097,158.1088490091788 35.85496372380294,158.46623602643376 35.85496372380294,159.18100915744435 36.00795042258687,159.44904877088265 36.237430470762774,160.1191470634658 36.61989721795544,160.56587867022608 37.23184401332401,162.30812744025025 37.843790808925405,163.6483139313059 38.34099758020602,165.47989528620383 38.30275090551004,165.65858572663274 38.03502418240532,165.92662124615163 38.03502418240532,166.14998404940707 38.30275090551004,166.73072678787867 38.799957676557824,166.99876162974397 38.99119105027057,167.26679630219587 39.985604592831805,169.85778940212913 40.291577990399674,170.9299198476947 40.406318014720455,171.60000000000582" stroke="#4dd2ff" stroke-linecap="round" stroke-linejoin="round" stroke-width="0.5"><title>2023-08-06 5.3km</title><desc>9594199691</desc></polyline><polyline fill="none" points="107.35805649787653,171.60000000000582 107.12751686864067,170.81462365679909 107.12751686864067,170.6351086574723 107.18515177606605,170.41071469557937 107.14672850444913,170.2985176261136 107.03145868994761,170.05168386506557 106.8201306964038,169.9394866063667 106.78170742490329,169.89460768640856 106.64722597459331,169.62533396777872 106.3590514381649,168.92970861926733 105.99403035861906,167.8750465001067 105.82112563680857,167.17941543603956 105.82112563680857,166.99989737328724 105.68664418638218,166.73061999556376 105.47531619295478,166.46134227742732 105.28319983533584,165.96766557666706 104.91817875579,164.9354287780734 103.8999620602699,161.68160613368673 103.74626897415146,161.2327991096099 103.22755480848718,160.02101542086166 103.05465008656029,159.28047755056468 103.03543845086824,158.94386857662175 103.05465008656029,158.652140368853 103.01622681505978,158.42773378333368 102.84332209313288,158.06868275468878 102.59357082832139,157.70963112075697 102.51672428520396,157.4852235421422 102.49751264951192,157.08128930491512 102.55514755670447,156.87932189903222 102.6704173713224,156.789558546021 103.66942243103404,156.45294563543575 104.82212057698052,155.89192293549422 105.3408347426448,155.68995440176514 105.57137437176425,155.51042665542627 105.62900927907322,155.33089875782025 105.64822091488168,155.06160662756884 105.53295110026374,154.52302134576894 105.36004637833685,154.0517581069289 105.09108347760048,153.17655218250002 104.70685076236259,152.09937072290631 104.51473440474365,151.71786764952412 104.38025295431726,151.2465982035501 103.78469224565197,149.63080932898447 103.59257588803302,149.204418553898 103.4773060734151,149.0473270004295 103.30440135160461,148.91267700532626 103.09307335817721,148.86779365470284 102.76647555013187,148.95756034646183 102.34381956339348,149.204418553898 101.86352866922971,149.36150999140227 100.90294688101858,149.63080932898447 100.07684654311743,149.8103420315747 99.15468802629039,150.10208235040773 98.86651348997839,150.14696544088656 98.65518549655098,150.1245238968404 98.53991568204947,150.05719925044104 98.42464586743154,149.92254989378853 98.36701096012257,149.78790045196365 97.61775716522243,147.63349780542194 96.92613827774767,145.20976877646171 96.73402192001231,144.22231570801523 96.71481028432027,144.0427782945917 96.75323355582077,143.95300953109108 96.88771500624716,143.84079852350987 97.75223861564882,143.63881856086664 98.21331787400413,143.63881856086664 98.4822807747405,143.57149186405877 99.44286256283522,143.07776210390148 101.38323777518235,142.3820500443544 101.70983558311127,142.2025110793329 102.82411045732442,141.25992902980943 103.03543845086824,141.01306161306275 103.55415261653252,140.11535950333928 103.59257588803302,139.86849075963255 103.49651770922355,139.57673642094596 103.11228499386925,138.79124198367936 102.7088406428229,138.27505834714975 101.76747049042024,137.39978758210782 100.94137015251908,136.68161401082762 100.4226559868548,136.16542526028934 100.32659780804534,136.12053922284395 100.05763490730897,136.18786827547592 99.90394182130694,136.38985530560603 99.78867200668901,136.47962725743128 99.46207419864368,136.56939917147974 98.71282040385995,137.3773446946143 98.36701096012257,137.69154490350047 97.6753920725314,138.14040154055692 97.11825463536661,138.40971506862843 95.17787942313589,139.08299739864015 93.7370067408774,139.39719509071438 93.3527740255231,139.39719509071438 93.17986930371262,139.32986705287476 93.04538785328623,139.10544010622834 92.43061550881248,137.42223046720028 91.98874788614921,136.12053922284395 91.77741989283822,135.37991823900666 90.8168381046271,133.27025646803668 90.41339375358075,132.52962556997954 90.10600758134387,131.76654861698626 90.08679594553541,131.5870007010817 90.10600758134387,131.49722668646427 90.24048903165385,131.36256559344474 90.77841483312659,131.00346892909147 91.56609189941082,130.64437165905838 92.35376896581147,130.33016105100978 93.3527740255231,129.8588442695618 94.31335581373423,129.27530776119966 94.716800164897,129.09575774458062 95.08182124432642,128.80398864463496 95.21630269475281,128.71421345650742 96.11924957565498,128.40000000000873 96.29215429758187,128.4448876650422 96.4458473835839,128.57955060331733 96.59954046970233,128.82643243572966 96.84929173463024,129.40997017429618 97.02219645655714,129.74662583447935 97.27194772148505,130.17305557313375 97.54091062222142,130.5097100267012 97.98277824476827,130.93613823706983 98.61676222493406,131.45233966484375 99.21232293371577,132.0583136572095 99.32759274821728,132.23786117555574 99.65419055626262,133.00093643952277 99.78867200668901,133.51713286152517 99.9615767284995,134.48219238064485 99.9615767284995,134.9534989281674 99.88473018549848,135.73900752258487 99.80788364238106,136.14298224277445 99.73103709938005,136.30008331584395 99.32759274821728,136.7938287910074 98.67439713235945,137.46711623019655 97.90593170176726,138.0281874700304 96.92613827774767,138.49948616897746 96.21530775446445,138.72391375417646 95.79265176760964,138.92589837874402 95.23551433044486,139.08299739864015 94.12123945611529,139.30742436887522 93.48725547583308,139.48696577474766 93.3527740255231,139.55429376290704 93.25671584671363,139.66650702929473 93.12223439628724,140.04803169250954 93.12223439628724,140.3173428079317 93.21829257521313,140.69886630510155 93.37198566133156,141.05794661914115 93.60252529045101,141.50679616029083 93.90991146268789,142.584031198945 94.10202782042325,143.03287752351025 94.39020235685166,143.95300953109108 94.52468380716164,144.22231570801523 94.63995362177957,144.33452651456173 94.73601180058904,144.37941082062025 95.004974701209,144.37941082062025 95.19709105894435,144.35696866881335 95.88870994641911,144.0876626621466 96.29215429758187,144.0876626621466 96.4842706550844,144.11010484235885 96.59954046970233,144.244757874083 96.71481028432027,144.514063682087 97.02219645655714,145.72593560362293 97.11825463536661,146.21965922423988 97.44485244341195,147.09489373843826 97.61775716522243,148.08233348738577 98.00198988057673,149.5859261296864 98.07883642357774,150.1245238968404 98.04041315207724,150.28161465558514 97.96356660895981,150.37138075154508 96.94534991355613,150.84265213416074 96.36900084058288,150.99974236330308 95.79265176760964,151.31392247395706 95.23551433044486,151.4710123554396 94.7552234363975,151.6729848900286 94.63995362177957,151.80763314000797 94.52468380716164,152.27890134448535 94.50547217135318,152.413549211371 94.63995362177957,153.04190479801036 94.90891652239952,153.78246435936308 95.25472596625332,154.59034458047245 95.73501686030068,156.0490094404813 95.88870994641911,156.38562298942998 96.34978920489084,157.66474962393113 96.52269392670132,158.02380133351835 96.69559864862822,158.5848184180213 96.81086846312974,158.80922483805625 96.98377318505663,158.98874980390246 97.13746627117507,159.05607162702654 97.23352444998454,159.05607162702654 98.65518549655098,158.69702165767376 99.69261382787954,158.29308971848513 99.75024873507209,158.22576765417762 99.86551854969002,157.7993940859451 100.0,157.776953348206 100.0384232715005,157.7320718655683 100.01921163592488,157.55254584053182 99.51970910595264,155.71239535944187 99.28916947671678,154.72499098606932 99.25074620533269,154.43325699970592 99.03941821190529,153.76002319839608 98.732032039552,152.52575570208137 98.61676222493406,152.16669472376816 98.46306913893204,151.33636389271123 98.4822807747405,151.20171534479596 98.52070404612459,151.13439103889687 98.61676222493406,151.20171534479596 98.67439713235945,151.2914810528746 98.88572512567043,151.80763314000797 99.1162647549063,152.5481969931716 99.26995784102473,153.31119948187552 99.55813237745315,154.11908149060037 99.65419055626262,154.61278565393877 99.94236509269103,155.5553086062573 100.0,156.0490094404813 100.28817453654483,157.01396685752843 100.36502107954584,157.12617092466098 100.4226559868548,157.14861173095414 100.76846543059219,157.1037301159813 101.72904721891973,156.8568810642755 102.17091484146658,156.6997951551748 102.65120573551394,156.58759086349164 103.63099915953353,156.22853673278587 104.55315767624415,155.84704105569108 105.11029511352535,155.68995440176514 105.64822091488168,155.42066272557713 106.45510961697437,155.17381172325986 106.85855396802071,155.08404765147134 107.60780776280444,154.74743204537663 108.52996627951507,154.45569808974687 109.26000843860675,154.2537281941186 109.58660624653567,154.11908149060037 109.85556914727204,154.0741992371477 109.913204054581,154.14152261374693 109.83635751146358,154.2088459690567 109.58660624653567,154.32105151393625 107.06988196144812,155.1513707088743 105.30241147102788,155.86948199679318 101.97879848384764,156.96908521417936 101.86352866922971,157.03640767569595 101.82510539761279,157.12617092466098 101.80589376192074,157.26081572716066 101.84431703342125,157.39546044456074 101.9980101196561,157.7993940859451 102.30539629177656,158.8541060937423 102.36303119908553,158.98874980390246 102.59357082832139,159.25803696885123 103.24676644429564,161.30012022347364 103.6886340668425,162.4670161504182 103.82311551715247,162.9382607703301 104.05365514638834,163.43194449208386 104.61079258355312,165.27202828376903 104.80290894117206,165.74326669814764 104.97581366309896,166.30426345132582 105.05266020621639,166.6633005978947 105.03344857029151,166.77549958217423 104.91817875579,166.8652587269462 104.93739039159846,166.932578060776 105.05266020621639,167.15697568644828 105.32162310683634,167.40381280165457 105.57137437176425,167.96480518167664 105.9748187228106,169.1989832171821 106.0132419943111,169.53557598596672 106.2245699877385,170.00680496868154 106.24378162354697,170.1638810646109 106.16693508054595,170.2760782050609 106.186146716238,170.36583587493806 106.33983980235644,170.74730554981215 106.58959106728435,170.9941385047714 106.74328415340278,171.24097117380006" stroke="#4dd2ff" stroke-linecap="round" stroke-linejoin="round" stroke-width="0.5"><title>2023-08-04 9.2km</title><desc>9582211082</desc></polyline><polyline fill="none" points="167.85395864071324,171.48895282426383 167.31520142871886,170.674605796783 166.6179862136487,168.63872997177532 166.52291141147725,168.04647297170595 166.6813694149023,167.60227956654853 166.6179862136487,167.1951017852698 166.42783660942223,166.89897219341947 166.11092060245574,166.75090730391094 165.98415419948287,166.6028423521202 164.90663977584336,164.23379463749006 164.58972376899328,163.08628140887595 164.3678825639654,161.49456330746762 164.24111616122536,161.27246253399062 163.9558917550603,160.976327951008 163.82912535220385,160.71720998626552 163.29036814032588,159.16249818482902 162.84668573061936,157.7188310669444 162.59315292502288,157.31164183325018 162.46638652228285,156.79340030773892 161.9593209110899,155.60884537920356 160.97688128938898,152.68445830087876 160.6916568832239,152.09217440971406 160.43812407762744,151.20374670103774 160.15289967134595,150.5374244452105 159.74090886232443,148.6495045250922 159.74090886232443,148.0572138322459 159.45568445592653,146.31735414778814 159.13876844896004,145.3918933586392 159.17046004976146,145.16978240647586 159.2655348519329,145.058726877789 162.27623691805638,143.9851882904186 163.03683533484582,143.80009509902447 165.28693898429628,142.91164642278454 166.3327618072508,142.6154963648587 168.29764105053619,141.801082418242 171.02311871061102,140.87560973290238 171.27665151609108,140.72753387698322 171.6886423251126,140.20926788984798 171.7520255264826,139.91311555411085 171.59356752294116,139.13571448461153 171.24495991528966,138.02513854426797 170.7695859047817,137.09965591234504 170.6428195021581,136.24820973770693 170.07237068959512,134.7304092651466 169.85052948480006,133.8419376531383 169.15331426926423,132.62028551779804 168.80470666161273,131.58372885952122 168.58286545681767,131.17650933552068 168.39271585270762,130.36206887144363 168.3293326512212,130.28802873563836 168.29764105053619,130.3250488055346 168.29764105053619,130.65822925860994 168.51948225544766,131.213529311819 169.15331426926423,132.9534637941979 169.53361347771715,133.91597703986918 170.07237068959512,135.06358554033795 171.1181935124332,137.6549457841029 171.6569507244276,139.61696296843002 171.6569507244276,139.8020583637117 171.56187592248898,140.09821079316316 171.43510951951612,140.20926788984798 171.0548103111796,140.43138197800727 169.9456042868551,140.80157181274262 167.2835098282667,141.83810127494507 164.68479857116472,142.6154963648587 163.7023589493474,143.09674008237198 162.3396201194264,143.5039457899402 161.3571804978419,143.9481696598814 160.6599652824225,144.13326277336455 159.86767526506446,144.50344870772096 159.10707684839144,144.72556008104584 158.47324483422562,144.98468983912608 157.80772121972404,145.24381940622698 156.6351319940295,145.53996724874014 155.9379167787265,145.79909640623373 155.81115037587006,145.79909640623373 155.65269237244502,145.61400417037657 154.82871075428557,143.57798314056708 154.35333674377762,141.72704469319433 153.56104672630318,139.09869534312747 153.05398111511022,137.02561719642836 152.67368190689012,135.8780151050887 152.57860710471869,135.32272242484032 152.48353230266366,135.2857028815779 152.48353230266366,135.39676149957813 152.70537350745872,136.35926805139752 153.40258872287814,138.3212924716354 153.52935512561817,138.76552289453684 153.6244299276732,139.57994387770304 154.89209395553917,144.02220691702678 155.24070156319067,146.05822537266067 155.39915956673212,146.7245561228192 155.36746796604712,146.79859279483208 154.89209395553917,146.83561112493044 155.0505519589642,146.79859279483208 155.08224355976563,146.61350108552142 154.82871075428557,145.87313327324227 154.16318713955116,143.42990842359723 154.06811233737972,142.68953390271054 153.87796273315325,142.02319550004904 153.75119633052964,141.3568558335537 153.3075139207067,140.17224886160693 153.08567271579523,139.28379101137398 152.70537350745872,138.17321553925285 152.45184070186224,137.09965591234504 152.35676589980721,136.39628748156247 152.32507429923862,135.69291764262016 152.38845750060864,135.65589813835686 152.48353230266366,135.72993714286713 152.9589063130552,136.35926805139752 153.24413071933668,136.98859783267835 153.87796273315325,138.76552289453684 154.6702527507441,141.72704469319433 155.30408476479352,144.46643013178254 155.65269237244502,145.68804107635515 155.87453357724007,145.79909640623373 157.11050600442104,145.57698571152287 158.72677764005493,144.94767131397384 159.3289180531865,144.614504411933 160.12120807054453,144.31835578923346 161.10364769212902,144.17028138428577 162.56146132422145,143.61500181007432 163.22698493895587,143.2448149396514 164.0192749564303,143.02270263026003 165.0334061786998,142.5414588113781 166.9349022206152,141.98617666275823 167.53704263374675,141.72704469319433 170.07237068959512,140.87560973290238 171.18157671403605,140.32032495149178 171.3400347174611,140.09821079316316 171.3400347174611,139.8020583637117 170.54774470010307,137.06263655639486 170.19913709233515,136.4333069077984 170.0089874882251,135.91503458595253 168.61455705738626,132.6943251620978 168.3610242519062,131.47266903615673 168.3610242519062,130.39908893342363 168.42440745339263,130.21398858420434 168.58286545681767,130.06590823462466 169.21669747063424,129.69570708740503 172.0055583320791,128.696162041364 172.98799795378,128.437020268786 173.46337196417153,128.40000000002328 174.0338207766181,128.65914179981337 174.47750318655744,128.99232383302297 175.681784012937,130.73226931647514 176.6959152353229,132.43518633884378 177.01283124217298,133.39770100449095 177.58328005485237,134.58233081916114 178.05865406536032,135.39676149957813 178.66079447849188,136.7664815680182 179.07278528739698,137.35879129500245 179.61154249939136,138.39533091449994 179.67492570076138,138.65446534150396 179.61154249939136,138.76552289453684 179.3897012945963,138.87658041255781 178.75586928066332,138.98763789542136 177.3614388499409,139.32081013330026 176.34730762755498,139.46888658212265 174.414119985071,140.06119175316417 173.30491396063007,140.24628691427642 172.79784834955353,140.43138197800727 171.7203339256812,140.65349592562416 171.3083431167761,140.87560973290238 170.29421189439017,141.17176125739934 167.63211743580177,142.17127080980572 166.23768700507935,142.5414588113781 165.3820137863513,142.91164642278454 162.59315292502288,143.9851882904186 161.51563850138336,144.244318594574 161.13533929293044,144.42941155197332 160.6282736818539,144.79959717424936 159.2655348519329,145.1327639008523 158.15632882737555,145.57698571152287 157.96617922314908,145.83611484171706 157.96617922314908,145.98418854459305 158.09294562612195,146.24331737446482 158.6000112371985,146.7245561228192 158.75846924062353,147.020702717331 158.88523564347997,147.98317742554354 159.043693646905,148.5384500962391 159.42399285535794,149.16775806224905 159.51906765741296,149.6119747715129 159.74090886232443,150.20426284347195 160.2479744735174,151.87006769306026 161.0085728901904,153.9060406733479 161.54733010195196,155.71989757337724 161.86424610903487,156.42322732153116 162.46638652228285,158.57022521304316 162.7199193277629,159.16249818482902 163.06852693553083,160.31002422692836 163.41713454318233,161.0873784488358 163.44882614375092,161.49456330746762 163.3537513418123,161.82771420432255 163.41713454318233,162.27191490895348 163.54390094592236,162.49401505067362 164.0509665569989,162.9011982791999 164.24111616122536,163.30838103586575 165.12848098087125,166.0846145292744 165.47708858852275,166.9730046147597 165.50878018909134,167.23211796669057 165.47708858852275,167.3431664876407 165.35032218554989,167.4542149734334 165.44539698783774,167.89840856567025 165.57216339057777,168.12050515130977 165.95246259891428,168.3426015965233 166.17430380370934,168.7127620265819 166.55460301216226,169.8602568821516 166.9982854218688,171.60000000000582" stroke="#4dd2ff" stroke-linecap="round" stroke-linejoin="round" stroke-width="0.5"><title>2023-08-02 7.3km</title><desc>9569357200</desc></polyline><polyline fill="none" points="43.335966210463084,219.60000000000582 43.205164582352154,219.25625373795629 42.74735888361465,218.45417785926838 42.387654406251386,217.57571176587953 41.99524952180218,216.20071708617616 41.99524952180218,215.93335640410078 42.158751556882635,215.55141223061946 42.12605114991311,215.1694676547486 41.897148300660774,214.82571719246334 41.60284463723656,214.7111336326634 41.40664219495375,214.52016095249564 41.11233853152953,213.83265847098664 40.58913201908581,212.3048705116089 40.13132632034831,211.2736099998292 39.90242347109597,209.97498147937586 39.90242347109597,209.63122609243146 39.804322249954566,209.24927528036642 39.444617772474885,208.79093377460958 39.24841533030849,208.40898207720602 38.75790922460146,207.14853862120071 38.267403118894435,205.62072249691118 37.97309945547022,205.04778979055118 37.776897013303824,203.97831298300298 36.534281545784324,200.5788836083084 35.78217218385544,198.32531173480675 35.455168113461696,197.59958221743 34.99736241484061,196.10992234092555 34.99736241484061,195.61336768849287 34.93196160066873,195.1550089441007 34.86656078672968,194.0473062529927 34.73575915861875,193.4361584917351 34.50685630925,192.7868128667469 34.60495753015857,192.5958286380337 34.89926119358279,192.4430411826179 35.78217218385544,192.13746607853682 36.82858520920854,191.6027090267453 38.23470271192491,191.02975416745176 43.23786498932168,189.1198980960762 46.31170325120911,188.05037430129596 46.7695089498302,187.85938757745316 47.03111220605206,187.6684007527656 47.12921342730988,187.43921643056092 47.22731464833487,186.82805752925924 47.09651302022394,186.02590990788303 46.148201216128655,183.35207168399938 45.36339144699741,181.28938300721347 45.167189004831016,180.56361938509508 44.4150796426693,179.03569122066256 43.95727394428104,177.5459550594096 43.76107150199823,176.66738983787945 43.597569466684945,176.51459566899575 43.401367024402134,176.40000000002328 43.04166254703887,176.40000000002328 42.55115644133184,176.62919130170485 41.30854097392876,177.08757347043138 40.3275287625147,177.31676433730172 39.608119807671756,177.5841534990468 38.43090515432414,177.85154246343882 37.54799416405149,178.27172472327948 35.88027340499684,178.88289804995293 34.67035834444687,179.2266825932893 33.52584409795236,179.64686325928778 31.040613162796944,180.41082685856964 29.078588740318082,181.09839272129466 28.4245805995306,181.25118495803326 27.410867981263436,181.4039771304524 24.69673419673927,182.35892674923525 23.094414251623675,183.08468677691417 21.524794713710435,183.50486297081807 21.001588201033883,183.73404978055623 20.903486980008893,183.96323644535732 20.77268535166513,184.61259787523886 21.034288608003408,185.49114384085988 21.720997155993246,186.98084735128214 22.342304889694788,188.66153114193003 22.767410181229934,189.9984331386222 23.094414251623675,190.8387690130039 24.04272605595179,193.74173250119202 24.56593256862834,195.1932055283687 25.056438674102537,195.95713636645814 25.38344274472911,196.10992234092555 25.87394885031972,196.03352936176816 26.88766146847047,195.61336768849287 29.3728924037423,194.77304288125015 29.732596881105565,194.58205969890696 30.157702172524296,194.23828971709008 30.19040257972665,194.12369965063408 30.125001765671186,193.7035357640707 29.56909484602511,191.87008765127393 28.88238629803527,188.8907146914862 28.7188842628384,188.4705447399465 27.737872051540762,184.72719094806234 27.410867981263436,183.23747817642288 27.410867981263436,182.97009318487835 27.476268795202486,182.85549955669558 27.737872051540762,183.00829105291632 27.966774900909513,183.35207168399938 28.35917978535872,184.38341162106371 28.75158466992434,185.1473652383138 29.274791182600893,187.51561122073326 29.470993624883704,188.01217696457752 29.928799323388375,189.8456445884076 30.125001765671186,190.41860131922294 30.353904614807107,191.2971332145098 30.615507871145383,192.21385987871327 30.713609092403203,192.67222234152723 30.81171031354461,192.86320653004805 30.9098115345696,192.90140335564502 31.890823745983653,192.7868128667469 33.13343921350315,192.25205677276244 35.2589656712953,191.6027090267453 36.10917625424918,191.37352719160845 36.501581138698384,191.22073922114214 37.61339497822337,190.80057197008864 38.75790922460146,190.53319255681708 39.771621842868626,190.0366302660259 42.9762617329834,188.8143201909843 45.78849673853256,187.8975849302078 46.409804472350515,187.7065981258056 46.606006914633326,187.7447954947129 46.606006914633326,187.85938757745316 46.47520528640598,187.97397962384275 45.297990632941946,188.58513659305754 44.643982492154464,188.77612293476705 43.36866661743261,189.34908135581645 41.30854097392876,189.9984331386222 38.52900637534913,191.14434521162184 36.40347991755698,191.87008765127393 35.5532693346031,192.09926917246776 33.98364979645703,192.67222234152723 33.32964165566955,192.93960017722566 33.16613962047268,193.05419061795692 33.13343921350315,193.1687810223084 33.16613962047268,193.39796172257047 33.52584409795236,194.08550295385066 33.75474694732111,195.00222256733105 34.17985223873984,196.07172585336957 34.60495753015857,196.64467274444178 34.70305875141639,196.87385124736466 35.7494717767695,199.85315860196715 36.37077951070387,201.95393753127428 37.22099009377416,204.20748685012222 37.842297827475704,206.1554588728177 38.52900637534913,208.10342042971752 38.72520881763194,208.9437143407995 38.75790922460146,209.63122609243146 38.82331003865693,209.9367864524247 38.98681207397021,210.2805415497278 39.31381614424754,210.62429632098065 40.09862591337878,212.5722338691994 40.392929576803,213.56529604276875 40.88343568239361,214.978495215968 40.88343568239361,215.13127317503677 40.6872332401108,215.3986344485893 40.654532833141275,215.51321779110003 40.88343568239361,215.97155079929507 41.50474341621157,216.65904922547634 42.12605114991311,217.9576538070687" stroke="#4dd2ff" stroke-linecap="round" stroke-linejoin="round" stroke-width="0.5"><title>2023-07-31 6.0km</title><desc>9555944449</desc></polyline><polyline fill="none" points="106.66070640343241,218.2487931191863 106.09980481141247,217.2660942559014 105.08317067637108,214.604605692497 105.01305797719397,214.31798276034533 105.04811432678252,214.03135961681255 105.36362147214822,213.74473626189865 105.36362147214822,213.58095139288343 105.01305797719397,213.007703807496 104.66249448223971,212.88486492927768 103.6108039978426,210.42807921211352 103.08495875517838,208.91305361309787 102.66428256127983,207.1113938628987 102.06832461990416,206.04677281252225 101.01663413504139,202.97573421429843 100.73618333926424,202.44341838988476 100.42067619389854,201.09215186923393 100.14022539788857,200.150357273611 99.57932380610146,198.51244819382555 99.2287603111472,197.73443896288518 98.70291506871581,196.17841582911205 98.10695712734014,194.66333468674566 98.00178807904013,194.04911091958638 97.72133728279732,193.312041117606 97.51099918596447,191.8788458345516 96.95009759417735,190.81418306016712 96.87998489523306,189.7495173694333 97.02021029312164,189.38097856621607 97.23054838995449,189.17623463564087 99.2287603111472,188.39820671567577 99.96494365041144,187.98871771121048 101.05169048462994,187.5792282752227 101.64764842600562,187.29258541335003 102.55911351274699,187.00594234009623 103.15507145412266,186.67834999752813 104.97800162783824,185.94126621691976 105.71418496686965,185.73652047425276 107.43194609205239,185.12228259904077 110.27151040104218,184.26234794280026 110.48184849787503,184.13949997947202 110.51690484723076,184.05760131566785 110.27151040104218,184.01665197729017 109.43015801324509,184.26234794280026 108.23824213049375,184.6718408736051 107.43194609205239,185.04038414242677 106.5905937042553,185.24513025174383 104.34698733687401,186.02316448377678 103.36540955118835,186.18696096577332 103.01484605623409,186.02316448377678 102.8045079591684,185.81841878424166 102.41888811485842,184.9994349074841 101.61259207664989,182.4605739216786 101.05169048462994,181.23208684529527 99.96494365041144,178.2018021196709 99.78966190316714,177.58755233546253 99.36898570903577,176.7276010067435 99.29887301009148,176.39999999999418 99.43909840798005,176.64570078099496 99.71954920399003,177.34185215007165 99.96494365041144,178.28370201744838 100.38561984454282,179.0617501862289 101.05169048462994,180.53594244478154 101.54247937747277,182.29677586923935 102.24360636738129,184.09855064979638 102.55911351274699,185.40892706156592 102.52405716339126,186.14601185175707 102.27866271696985,186.43265555929975 101.78787382389419,186.67834999752813 98.10695712734014,188.2753600596625 95.1271674206946,189.25813222074066 93.86513883899897,189.58572238890338 93.30423724697903,189.62667114057695 93.16401184909046,189.58572238890338 93.02378645120189,189.3400297887565 92.84850470372476,188.6438999113161 92.32265946129337,187.29258541335003 91.62153247161768,185.20418103854172 91.411194374552,184.22139862604672 90.6399546856992,181.9691795570834 90.21927849180065,179.7988470144046 90.04399674432352,179.30744928438799 89.90377134643495,179.22554960215348 89.79860229813494,179.22554960215348 89.58826420106925,179.47124859673204 89.58826420106925,179.8807465758 90.25433484138921,181.43683496091398 90.81523643317632,183.07481600367464 92.32265946129337,188.2753600596625 92.74333565519191,190.19995320992894 92.67322295624763,190.3637479315803 92.0422086652834,190.97797752302722 92.39277216047049,190.77323443375644 92.39277216047049,190.3637479315803 92.25254676234908,189.8314148337231 91.8669269180391,188.72579760864028 91.48130707349628,187.29258541335003 90.71006738464348,183.8119052206457 90.11410944326781,182.09202820656355 89.58826420106925,180.04454564658226 89.48309515253641,179.30744928438799 89.58826420106925,179.0617501862289 89.79860229813494,179.02080032139202 90.04399674432352,179.1436499027477 90.14916579285637,179.26649944542442 90.49972928781062,180.53594244478154 90.81523643317632,181.02733862158493 90.92040548170917,181.47778457120876 91.20085627771914,182.13297774770763 91.37613802519627,182.91101821011398 91.79681421909481,184.01665197729017 91.93703961675055,185.04038414242677 92.39277216047049,186.59645186871057 92.53299755812623,187.415432380134 92.9536737522576,189.05338822555495 93.09389915014617,189.29908100690227 93.2691808976233,189.42192733939737 94.00536423688754,189.29908100690227 95.09211107133888,188.97149059711955 97.02021029312164,188.52105333298096 97.79144998197444,188.19346226737252 99.05347856367007,187.8249219885911 99.92988730082288,187.45638136035996 101.75281747453846,186.80119715820183 102.83956430875696,186.2279100754531 103.6108039978426,186.10506273340434 105.1883397246711,185.40892706156592 106.55553735489957,184.87658717707382 108.86925642122515,184.22139862604672 109.9910596050322,183.8119052206457 110.16634135250933,183.7709558563365 110.3065667503979,183.85285458067665 110.27151040104218,184.05760131566785 110.06117230397649,184.22139862604672 108.34341117879376,184.9584856684378 106.16991751058958,185.69557131268084 103.68091669655405,186.7192990554322 101.47236667852849,187.45638136035996 98.38740792335011,188.68484876208822 97.23054838995449,189.01243941352004 97.0552666427102,189.2171834303299 96.95009759417735,189.54477363295155 96.95009759417735,189.99520971084712 97.12537934165448,190.6094398846617 97.47594283660874,191.3874633780797 97.82650633133017,192.04263984868885 97.93167537986301,192.4930730315682 97.86156268091872,192.94350569247035 97.40583013766445,193.312041117606 97.33571743872017,193.51678286946844 97.3707737880759,193.72152451355942 98.35235157376155,196.7107402338006 99.36898570903577,199.4132990418293 100.38561984454282,202.44341838988476 100.70112698967569,203.22141819517128 101.61259207664989,206.00582579080947 101.82293017348275,206.82476540541393 101.7177611249499,207.3570752296655 101.78787382389419,207.68465014375397 101.92809922201559,207.97127796715358 102.31371906632558,208.33979914378142 103.4705785997212,211.77931327815168 103.96136749256402,212.9258112263924 103.99642384191975,213.21243518509436 103.71597304614261,213.45811269566184 103.82114209444262,213.82662867053295 103.96136749256402,214.1132519650273 104.31193098751828,214.35892890641117 104.5573254339397,214.72744402725948 105.08317067637108,216.07866314821877 105.43373417109251,217.1432567232987 105.78429766604677,218.04406439419836 105.78429766604677,218.617304552492 106.415311957011,219.60000000000582" stroke="#4dd2ff" stroke-linecap="round" stroke-linejoin="round" stroke-width="0.5"><title>2023-07-29 5.9km</title><desc>9543628546</desc></polyline><polyline fill="none" points="175.8342817069497,218.78413784469012 175.50340867764316,217.88239356290433 175.50340867764316,217.45299082284328 175.6872270272579,216.8947665846208 175.6504633575678,216.68006475098082 175.35635399795137,216.12183945439756 174.87842628895305,215.864196751907 174.65784426918253,215.60655388660962 174.5475532594137,215.3489108585636 174.4004985797219,214.83362431376008 174.29020756995305,213.80304927018005 174.06962555018254,212.77247162134154 173.44464316149242,211.3554230997688 172.85642444249243,209.3801351233269 172.45202407334,208.86484103347175 172.23144205356948,208.4354287944734 171.75351434457116,207.0613065895741 170.90794993611053,204.95717298591626 170.72413158626296,203.92657297241385 170.09914919757284,201.47888749680715 169.95209451788105,200.31945240459754 169.58445781841874,199.41766727500362 168.6653660701122,197.69997579444316 168.22420203103684,196.4117024335428 168.113911021268,195.6816790550365 167.78303799196146,194.7369409770472 167.63598331203684,194.13574287827942 167.1580556028057,192.97628689781413 167.08452826319262,192.5898008380318 167.19481927272864,191.73094161541667 167.08452826319262,190.91502367748762 167.12129193311557,190.78619438011083 167.23158294288442,190.70030815911014 168.29772937088273,190.48559252775158 172.19467838387936,188.98257994072628 173.8122798607219,188.55314675500267 175.28282665810548,187.9089961281279 177.1210101544857,186.92129652263247 177.89304722333327,186.7065789004846 178.8121389716398,186.57774827285903 179.43712136056274,186.27714331666357 180.28268576879054,186.1053689563123 180.72384980809875,185.93359452378354 180.87090448802337,185.76182001869893 180.8341408178676,185.71887638117187 180.65032246825285,185.6759327390464 179.4003576906398,185.93359452378354 175.8342817069497,187.2219010037661 174.29020756995305,187.60839215366286 173.55493417126127,187.9519395348616 172.85642444249243,188.1237131167436 171.75351434457116,188.6390334283933 170.98147727595642,188.8108067208086 169.76827616803348,189.28318290150492 168.8859480896499,189.5408424057532 167.85656533157453,190.0561609256547 166.42278220434673,190.39970624347916 163.7390342990402,191.21562521302258 163.18757924996316,191.3444543746591 162.8934698908124,191.30151132526225 162.7464152108878,191.21562521302258 162.04790548211895,188.8537500325183 161.53321410319768,187.78016588048195 160.98175905435346,186.14831255323952 160.72441336466,184.94589013117366 160.24648565542884,183.31402545573656 159.84208528627641,181.6821542462567 159.29063023719937,179.9643880193762 159.36415757704526,179.23433518048842 159.43768491689116,179.8355552603898 159.51121225696988,181.25271336824517 160.32001299550757,185.41827079153154 160.61412235489115,186.44891760440078 161.31263208366,188.59609009401174 161.53321410319768,189.62672887099325 161.71703245281242,190.82913748372812 161.82732346258126,192.28920031595044 161.56997777312063,193.23394406744046 161.01852272404358,193.6204295163916 158.1877201392781,194.52222747221822 157.19510105112568,194.77988366453792 156.68040967197157,194.86576902575325 156.4598276524339,194.7369409770472 156.20248196297325,194.52222747221822 155.39368122443557,193.14805836230516 154.21724378643557,190.18499045379576 153.44520671805367,188.72492008359404 152.48935129959136,186.1053689563123 152.08495093043894,185.3753271176829 151.93789625074714,184.77411520990427 151.68055056105368,184.04407098671072 151.3864412016701,182.88458629729575 151.12909551220946,182.11159467170364 151.20262285205536,181.76804236756288 151.34967753174715,181.596266106877 151.7540779011324,181.33860158006428 152.96727900882252,181.1668251384399 153.37167937797494,180.99504862434696 153.88637075712904,180.6085512028949 154.18048011651263,180.52266283726203 154.84222617535852,180.52266283726203 156.27600930258632,180.7373837174091 158.07742912950926,180.39383025476127 158.7759388582781,180.00733226333978 160.24648565542884,178.80489172326634 161.05528639419936,178.3325033975707 163.81256163911894,177.344780583604 166.34925486450084,176.82944599134498 167.56245597219095,176.44294461945537 167.93009267142043,176.39999999999418 168.22420203103684,176.61472305218922 168.812420749804,177.55950313821086 169.988858187804,179.19139085515053 170.0623855276499,179.74966673192102 170.65060424641706,181.33860158006428 170.94471360580064,182.66986654832726 171.4961686548777,184.34467758989194 171.86380535434,185.20355237746844 172.34173306333832,186.1053689563123 172.78289710264653,187.2219010037661 172.92995178233832,187.43661835457897 173.1137701321859,187.56544871075312 173.44464316149242,187.60839215366286 174.14315289026126,187.52250526315765 175.7607543671038,187.09307053900557 176.71660978533328,186.7065789004846 177.89304722333327,186.49186116512283 178.70184796163812,186.27714331666357 179.76799438986927,185.8047636517149 180.57679512817413,185.63298909243895 180.87090448802337,185.71887638117187 180.79737714794464,185.89065090421354 180.42974044871517,186.0624253549904 178.70184796163812,186.53480472115916 176.8636644652579,187.13601403185748 176.01810005679727,187.26484448288102 174.5475532594137,187.9519395348616 172.48878774326295,188.6390334283933 170.57707690657116,189.15435308846645 169.06976643926464,189.88438815809786 167.93009267142043,190.2279336208303 166.8639462434221,190.48559252775158 165.68750880565494,191.0867960106989 165.50369045580737,191.30151132526225 165.43016311596148,191.51622652687365 165.46692678611726,191.81682761906995 165.5772177958861,192.07448552150163 166.16543651465327,192.67568666074658 166.45954587403685,193.23394406744046 166.60660055396147,194.3504565867479 167.08452826319262,195.38108081315295 167.78303799196146,197.4423214480048 168.1506746909581,198.3870532552246 168.59183873026632,199.67532037277124 168.92271175980568,201.04946747687063 169.43740313872695,202.29478428850416 170.1359128674958,204.44187330483692 171.01824094587937,207.3189548557857 171.38587764510885,208.3066050344787 171.7167506746482,209.68072304158704 171.64322333480231,210.02425181950093 171.7167506746482,210.36778030803544 171.90056902426295,210.92601348424796 172.26820572372526,211.09777738482808 172.37849673326127,211.22660026262747 172.48878774326295,211.65600956152775 173.92257087049074,215.39185137450113 174.0328618802596,215.95007767083007 173.8122798607219,216.5083032027178 173.99609821056947,217.15240863568033 174.10638922033831,217.32416991269565 174.65784426918253,217.83945330919232 174.84166261879727,218.18297521179193 175.35635399795137,219.60000000000582" stroke="#4dd2ff" stroke-linecap="round" stroke-linejoin="round" stroke-width="0.5"><title>2023-07-26 6.1km</title><desc>9525965649</desc></polyline><polyline fill="none" points="42.76124012074433,265.0417742036225 42.32317811471876,263.9088396107836 41.97898653859738,262.7759013187024 41.6973752490012,261.5698661686911 41.32189352961723,260.2541866785905 41.25931324297562,259.7790789700812 40.53963994723745,258.46339268944575 39.8512567949947,256.3436654099787 39.78867650846951,256.0512882172188 39.81996665161569,255.68581637978787 39.88254693825729,255.46653309260728 39.8512567949947,255.21070241567213 39.6322257919237,254.80868239919073 39.10029335599393,254.5163039129693 39.03771306946874,254.37011457738117 38.66223134996835,252.90821783413412 37.84868762444239,250.97119516137172 37.7861073379172,250.16714483796386 37.84868762444239,249.83821462313063 37.81739748129621,249.65547548010363 37.598366478225216,249.25344902672805 37.129014328937046,248.81487418257166 36.90998332586605,248.37629878419102 36.315470603411086,246.73163610184565 35.627087450935505,244.4656436352525 34.813543725409545,242.45547663932666 34.031290143262595,239.89706543527427 33.749678853782825,239.312283082254 33.65580842376221,238.87369567071437 33.405487277545035,238.14271541914786 33.155166131211445,237.11934047937393 32.99871541489847,236.3152580515889 32.87355484161526,235.84011755918618 32.748394268448465,235.07258154288866 32.46678297885228,234.23194490969763 32.404202692210674,233.6837025298737 32.46678297885228,233.42785578939947 32.591943552019075,233.31820712858462 33.906129570212215,232.80651291974937 34.56322257919237,232.36791728288517 35.28289587481413,232.11206957200193 36.15901988686528,231.60037358407862 38.224169343942776,231.05212704502628 39.162873642519116,230.61352919004275 40.69609066366684,230.24803055395023 40.97770195326302,230.10183099159622 41.35318367276341,229.8459816094255 42.16672739828937,229.6266819886514 43.07414155360311,229.18808233138407 44.26316699851304,228.85913222443196 44.51348814496305,228.6763820302731 44.45090785832144,228.6032819255197 44.20058671198785,228.63983197981725 43.57478384627029,228.82258219327196 39.69480607844889,230.32113031187328 38.72481163660996,230.61352919004275 35.595797307556495,231.78312223774265 34.78225358214695,231.96587079530582 32.96742527151946,232.80651291974937 32.122591402730905,232.98926093804766 31.37162796384655,233.28165756724775 30.213892662199214,233.5740539499384 29.08744750369806,233.82990058261203 28.77454607083928,233.82990058261203 28.649385497672483,233.72025204877718 28.305193921434693,232.11206957200193 28.054872775217518,231.4176248339645 27.084878333262168,227.6529791634821 26.834557187044993,227.03162594995229 26.521655753953382,225.4234124640061 26.240044464357197,224.91170660947682 26.146174034569412,224.87515616242308 25.895852888352238,224.91170660947682 25.739402171806432,224.9848074920592 25.739402171806432,225.09445878700353 25.895852888352238,225.93511756375665 26.552945897332393,228.05503064990626 26.771976900403388,228.96878229471622 27.30390933644958,230.83282818688895 27.804551628883928,232.84306253117393 28.14874320512172,234.99948278610827 28.023582631954923,235.21877901029075 27.898422058788128,235.25532836743514 26.709396613761783,235.73046966086258 24.331345723941922,236.3883565311844 23.611672428320162,236.75384869784466 23.48651185503695,236.97314381293836 23.517801998415962,237.00969298533164 23.799413288012147,236.82694708488998 26.146174034569412,236.02286397953867 27.804551628883928,235.3649764159636 28.023582631954923,235.21877901029075 28.14874320512172,234.92638401384465 28.14874320512172,234.4146921771462 27.773261485504918,232.95271134213544 27.710681199096143,232.33136762143113 26.678106470382772,228.49363173983875 26.584236040594988,227.83572989687673 25.958433174877428,225.2406604597927 25.801982458331622,224.50965147986426 25.801982458331622,224.39999999999418 26.052303604781628,224.4365504971065 26.208754321211018,224.58275244716788 26.459075467544608,225.20411004731432 26.928427616716363,227.2874774079828 27.178748763166368,228.5301818055741 27.366489622858353,229.15153233482852 27.429069909383543,229.699781877629 27.616810769191943,230.32113031187328 28.61809535440989,233.6837025298737 28.743255927576683,233.86645008611958 28.86841650074348,233.9395490816387 29.150027790339664,233.9395490816387 30.026151802390814,233.6837025298737 31.528078680159524,233.0623601184634 33.28032670437824,232.5506655323261 34.78225358214695,231.9293210915639 35.658377594314516,231.67347305707517 36.534501606365666,231.34452530698036 37.37933547515422,230.9424776333908 38.31803977384698,230.75972853667918 40.28931880102027,229.9921812795219 41.54092453257181,229.5170321263431 43.98155570891686,228.85913222443196 44.20058671198785,228.85913222443196 44.26316699851304,228.89568225177936 44.26316699851304,228.96878229471622 44.16929656884167,229.11498233451857 43.82510499248747,229.26118231276632 41.85382596531417,229.8459816094255 40.50834980385844,230.3576801852032 37.598366478225216,231.30797553766752 34.40677186276298,232.47756624405156 33.561937993974425,232.87961213861126 31.559368823538534,233.50095487729413 31.12130681751296,233.72025204877718 30.996146244346164,233.86645008611958 31.027436387492344,234.01264806170366 31.12130681751296,234.23194490969763 31.528078680159524,234.70708760488196 31.653239253442734,234.99948278610827 31.99743082956411,236.3518072932784 32.372912548831664,237.11934047937393 33.123875987832434,239.64122327705263 34.0,242.19963636784814 34.59451272257138,244.17325643240474 35.22031558828894,245.7813829984807 36.09643960034009,248.33975080921664 36.28418046014849,249.18035325786332 36.28418046014849,249.69202331639826 36.534501606365666,250.31333594443277 36.84740303934086,250.5691702325712 37.222884758608416,251.33667196516762 38.34932991722599,254.4432092529023 38.443200346897356,254.80868239919073 38.224169343942776,255.10106063913554 38.19287920068018,255.21070241567213 38.25545948732179,255.4299858645245 38.41191020375118,255.7589107780659 38.81868206639774,256.0878353797889 38.94384263956454,256.307118274417 39.88254693825729,258.7923147272959 40.00770751142409,259.26742378703784 40.10157794121187,259.8887192682305 40.66480052052066,260.91202704724856 41.6660851057386,264.0915712469141 42.69865983421914,267.0152643379697 42.72994997759815,267.2345403266372 42.57349926093593,267.4903621384583 42.60478940431494,267.6000000000058 42.82382040750235,267.6000000000058 43.10543169698212,267.4903621384583 43.6060739896493,267.16144834578154" stroke="#4dd2ff" stroke-linecap="round" stroke-linejoin="round" stroke-width="0.5"><title>2023-07-23 5.7km</title><desc>9507119362</desc></polyline></svg>