<?xml version="1.0" encoding="utf-8" ?>
<svg baseProfile="full" height="300mm" version="1.1" viewBox="0,0,200,300" width="200mm" xmlns="http://www.w3.org/2000/svg" xmlns:ev="http://www.w3.org/2001/xml-events" xmlns:xlink="http://www.w3.org/1999/xlink"><defs /><rect fill="#222222" height="300" width="200" x="0" y="0" /><text fill="#FFFFFF" style="font-size:12px; font-family:Arial; font-weight:bold;" x="10" y="20">Over 5km Runs</text><text fill="#FFFFFF" style="font-size:4px; font-family:Arial" x="10" y="280">ATHLETE</text><text fill="#FFFFFF" style="font-size:9px; font-family:Arial" x="10" y="290">Melt</text><text fill="#FFFFFF" style="font-size:4px; font-family:Arial" x="120" y="280">STATISTICS</text><text fill="#FFFFFF" style="font-size:3px; font-family:Arial" x="120" y="285">Number: 6</text><text fill="#FFFFFF" style="font-size:3px; font-family:Arial" x="120" y="290">Weekly: 2.0</text><text fill="#FFFFFF" style="font-size:3px; font-family:Arial" x="141" y="285">Total: 40.1 km</text><text fill="#FFFFFF" style="font-size:3px; font-family:Arial" x="141" y="290">Avg: 6.7 km</text><text fill="#FFFFFF" style="font-size:3px; font-family:Arial" x="167" y="285">Min: 5.7 km</text><text fill="#FFFFFF" style="font-size:3px; font-family:Arial" x="167" y="290">Max: 9.2 km</text><polyline fill="none" points="62.26342749642208,106.0 61.879194780951366,104.69103942799848 61.879194780951366,104.39184776242473 61.97525295999367,104.01785782596562 61.91121417400427,103.8308627101942 61.719097816501744,103.41947310842806 61.3668844938511,103.23247767725843 61.30284570809454,103.1576794773282 61.078709957539104,102.7088899462833 60.59841906349175,101.5495143654407 59.99005059769843,99.79174416683963 59.7018760611536,98.63235906005139 59.7018760611536,98.33316228879266 59.47774031048175,97.88436665927293 59.125526988180354,97.43557046237402 58.805333058699034,96.61277596108266 58.1969645927893,94.89238129675505 56.49993676703889,89.4693435561203 56.243781623546965,88.721331849345 55.37925801402889,86.70169236810762 55.09108347748406,85.46746258425992 55.0590640847804,84.90644762766897 55.09108347748406,84.42023394806893 55.0270446917275,84.04622297221795 54.73887015518267,83.44780459112371 54.322618047124706,82.84938520123251 54.19454047526233,82.47537257021759 54.16252108232584,81.80214884149609 54.25857926113531,81.46553649837733 54.45069561875425,81.31593091003015 56.11570405168459,80.75490939238807 58.03686762822326,79.81987155912793 58.90139123762492,79.48325733625097 59.28562395286281,79.1840444256959 59.38168213167228,78.88483126301435 59.41370152460877,78.43601104593836 59.221585166989826,77.53836890959064 58.933410630444996,76.75293017819058 58.48513912933413,75.29425363749033 57.844751270487905,73.4989512048196 57.524557341123,72.86311274921172 57.30042159056757,72.07766367256409 56.307820409419946,69.38468221496441 55.987626479938626,68.67403092313907 55.79551012231968,68.41221166736796 55.50733558589127,68.18779500885285 55.155122263589874,68.11298942449503 54.610792583436705,68.26260057740728 53.906365938833915,68.67403092313907 53.10588111530524,68.93584998566075 51.50491146824788,69.38468221496441 50.12807757186238,69.68390338594327 48.59114671044517,70.17013725065044 48.11085581651423,70.2449424014485 47.75864249409642,70.20753982802853 47.56652613659389,70.095332084049 47.374409778858535,69.87091648962814 47.278351600049064,69.6465007532679 46.029595275293104,66.05582967569353 44.87689712946303,62.016281294083456 44.55670319998171,60.37052618002053 44.52468380704522,60.07129715764313 44.58872259303462,59.92168255179422 44.81285834359005,59.73466420584009 46.25373102584854,59.39803093476803 47.02219645655714,59.39803093476803 47.47046795778442,59.28581977341673 49.071437604608946,58.46293683981639 52.30539629177656,57.30341674058582 52.849725971813314,57.00418513221666 54.70685076224618,55.433215049648425 55.0590640847804,55.02176935508032 55.923587694065645,53.52559917222243 55.987626479938626,53.11415126605425 55.82752951537259,52.62789403490024 55.18714165640995,51.31873663945589 54.514734404627234,50.45843057858292 52.945784150622785,48.999645970150596 51.568950254120864,47.802690018026624 50.704426644719206,46.942375433805864 50.54432967992034,46.86756537138717 50.09605817880947,46.97978045910713 49.83990303531755,47.316425509314286 49.647786677698605,47.46604542902787 49.10345699766185,47.61566528576077 47.85470067290589,48.96224115768564 47.278351600049064,49.485908172500785 46.125653454102576,50.23400256756577 45.19709105882794,50.6828584477189 41.96313237177674,51.80499566436629 39.56167790130712,52.32865848450456 38.921290042460896,52.32865848450456 38.63311550603248,52.2164450880955 38.40897975536063,51.84240017703269 37.38435918116011,49.03705077865743 36.64791314350441,46.86756537138717 36.295699821203016,45.63319706500624 34.69473017426208,42.11709411337506 34.02232292247936,40.88270928329439 33.510012635495514,39.61091436163406 33.47799324244261,39.31166783510707 33.510012635495514,39.1620444774162 33.73414838605095,38.9376093223982 34.630691388389096,38.33911488179001 35.94348649890162,37.74061943174456 37.256281609646976,37.2169350849872 38.921290042460896,36.431407115916954 40.52225968951825,35.45884626865154 41.19466694141738,35.159596240962856 41.8030354072107,34.67331440770067 42.02717115776613,34.52368909417419 43.53208262601402,34.0 43.82025716244243,34.07481277504121 44.076412305934355,34.29925100549008 44.33256744942628,34.710720726201544 44.74881955771707,35.68328362383181 45.036994094145484,36.24437639079406 45.453246202436276,36.95509262185078 45.90151770354714,37.516183377825655 46.63796374120284,38.22689706177334 47.69460370822344,39.08723277473473 48.687204889487475,40.097189428663114 48.87932124699,40.39643529258319 49.423650927026756,41.66822739917552 49.647786677698605,42.528554769203765 49.935961214010604,44.13698730105534 49.935961214010604,44.92249821359292 49.80788364249747,46.231679204298416 49.679806070635095,46.90497040460468 49.55172849888913,47.16680552638718 48.87932124699,47.9897146516596 47.79066188714933,49.11186038365122 46.50988616945688,50.046979116712464 44.87689712946303,50.832476948271506 43.692179590580054,51.20652292360319 42.98775294597726,51.54316396455397 42.059190550702624,51.80499566436629 40.202065760153346,52.17904061477748 39.14542579301633,52.478276291221846 38.921290042460896,52.59048960483051 38.761193077778444,52.77751171545242 38.537057327106595,53.41338615416316 38.537057327106595,53.86223801318556 38.69715429190546,54.498110508488026 38.95330943539739,55.09657769856858 39.33754215075169,55.84466026711743 39.84985243785195,57.640051998227136 40.170046367216855,58.388129205821315 40.65033726126421,59.92168255179422 40.874473011819646,60.37052618002053 41.066589369555004,60.55754419090226 41.22668633412104,60.632351367676165 41.67495783534832,60.632351367676165 41.99515176482964,60.594947781355586 43.147849910659716,60.14610443689162 43.82025716244243,60.14610443689162 44.140451091807336,60.183508070593234 44.33256744942628,60.40792979011894 44.52468380704522,60.856772803439526 45.036994094145484,62.876559339347295 45.19709105882794,63.69943204039009 45.741420738981105,65.15815623069648 46.029595275293104,66.8038891456381 46.66998313413933,69.30987688279129 46.79806070588529,70.20753982802853 46.734021920128725,70.46935775928432 46.60594434826635,70.61896791923209 44.90891652239952,71.40442022358184 43.94833473418839,71.66623727214755 42.98775294597726,72.18987078990904 42.059190550702624,72.4516872590466 41.25870572717395,72.78830815004767 41.066589369555004,73.01272189998417 40.874473011819646,73.79816890743678 40.84245361876674,74.02258201892255 41.066589369555004,75.06984132999787 41.51486087066587,76.30410726560513 42.091209943639114,77.65057430075831 42.89169476716779,80.08168240077794 43.147849910659716,80.64270498236874 43.9163153412519,82.77458270653733 44.20448987779673,83.37300222250633 44.492664414225146,84.30803069667309 44.684780771727674,84.68204139673617 44.9729553082725,84.98124967317563 45.22911045188084,85.09345271170605 45.38920741667971,85.09345271170605 47.75864249409642,84.49503609610838 49.48768971301615,83.82181619745097 49.58374789170921,83.70961275693844 49.77586424944457,82.99899014321272 50.0,82.96158891366213 50.064038785756566,82.88678644259926 50.032019393052906,82.58757640086696 49.19951517647132,79.52065893239342 48.81528246123344,77.87498497674824 48.751243675360456,77.38876166613773 48.39903035305906,76.26670533063589 47.88672006584238,74.20959283679258 47.69460370822344,73.61115787294693 47.438448564731516,72.22727315450902 47.47046795778442,72.00285890797386 47.53450674354099,71.89065173148992 47.69460370822344,72.00285890797386 47.79066188714933,72.15246842143824 48.142875209334306,73.01272189998417 48.52710792468861,74.24699498858536 48.78326306829695,75.51866580310161 49.263553962344304,76.86513581764302 49.423650927026756,77.68797608988825 49.90394182119053,79.25884767709067 50.0,80.08168240077794 50.48029089416377,81.68994476253283 50.608368465909734,81.87695154108224 50.704426644719206,81.91435288489447 51.28077571769245,81.83955019328278 52.881745364749804,81.42813510712585 53.6181914024055,81.16632525861496 54.41867622570135,80.9793181058194 56.05166526581161,80.38089455463341 57.58859612699598,79.74506842615665 58.517158522387035,79.48325733625097 59.41370152460877,79.03443787593278 60.758516028057784,78.62301953876158 61.430923279956914,78.47341275244253 62.67967960459646,77.91238674227498 64.21661046566442,77.4261634828872 65.43334739748389,77.0895469901734 65.97767707752064,76.86513581764302 66.4259485786315,76.79033206190798 66.52200675755739,76.90253768957336 66.39392918581143,77.01474328176118 65.97767707752064,77.20175252319314 61.78313660225831,78.585617848119 58.837352451635525,79.78246999465046 53.29799747292418,81.61514202362741 53.10588111530524,81.72734612613567 53.04184232931584,81.87695154108224 53.00982293637935,82.10135954525322 53.07386172236875,82.32576740760123 53.330016865977086,82.99899014321272 53.842327152960934,84.75684348956565 53.938385331770405,84.98124967317563 54.322618047124706,85.43006161475205 55.4112774070818,88.83353370576515 56.147723444737494,90.778360250697 56.37185919517651,91.5637679505453 56.75609191053081,92.38657415343914 57.68465430580545,95.45338047292898 58.00484823517036,96.23877783023636 58.29302277159877,97.17377241884242 58.42110034346115,97.77216766314814 58.38908095052466,97.95916597027099 58.1969645927893,98.10876454488607 58.228983985842206,98.22096343460726 58.42110034346115,98.59495947739924 58.869371844572015,99.00635466942913 59.28562395286281,99.94134196944651 59.95803120464552,101.99830536195077 60.02206999040209,102.55929330992512 60.37428331293631,103.34467494778801 60.40630270575639,103.60646844099392 60.27822513412684,103.79346367507242 60.31024452694692,103.94305979154888 60.566399670555256,104.578842582996 60.98265177884605,104.99023084127111 61.23880692233797,105.4016186230001" stroke="#4dd2ff" stroke-linecap="round" stroke-linejoin="round" stroke-width="0.5"><title>2023-08-04 9.2km</title></polyline><polyline fill="none" points="153.0899310677778,105.81492137373425 152.1920023811981,104.45767632790376 151.0299770226702,101.06454995292006 150.87151901912875,100.07745495281415 151.13561569154263,99.33713261090452 151.0299770226702,98.65850297542056 150.7130610155873,98.1649536556215 150.18486767075956,97.91817883984186 149.97359033254907,97.67140392016154 148.17773295962252,93.72299106244463 147.6495396150276,91.81046901474474 147.27980427327566,89.15760551241692 147.068526935298,88.78743755660253 146.5931529251393,88.29387991834665 146.3818755869288,87.86201664374676 145.48394690058194,85.27083030802896 144.7444762175437,82.86471844487824 144.32192154158838,82.18606972205453 144.11064420384355,81.32233384618303 143.26553485170007,79.34807563194772 141.62813548231497,74.47409716807306 141.15276147192344,73.48695734946523 140.73020679596812,72.00624450168107 140.25483278557658,70.89570740860654 139.56818143697456,67.74917420843849 139.56818143697456,66.76202305371407 139.09280742658302,63.86225691298023 138.56461408152245,62.31982226436958 138.6174334161915,61.94963734410703 138.77589141973294,61.76454479631502 143.79372819676064,59.975313817325514 145.06139222462662,59.66682516498258 148.81156497378834,58.18607737129787 150.55460301204585,57.69249394140206 153.82940175081603,56.33513736369787 158.37186451768503,54.79268288810272 158.79441919340752,54.54588979494292 159.48107054177672,53.68211314972723 159.58670921088196,53.18852592346957 159.32261253823526,51.89285747433314 158.74159985873848,50.04189757374115 157.94930984126404,48.49942652054597 157.7380325035192,47.08034956280608 156.7872844825033,44.55068210850004 156.41754914121702,43.06989608856384 155.25552378199063,41.033809196262155 154.67451110272668,39.30621476582019 154.30477576120757,38.62751555914292 153.9878597543575,37.27011478570057 153.88222108525224,37.146714559348766 153.82940175081603,37.208414675842505 153.82940175081603,37.763715430977754 154.19913709233515,38.68921551964013 155.25552378199063,41.58910632360494 155.88935579615645,43.19329506641952 156.7872844825033,45.105975900543854 158.53032252076082,49.42490964010358 159.4282512073405,52.69493828067789 159.4282512073405,53.00343060615705 159.26979320403188,53.49701798852766 159.0585158658214,53.68211314972723 158.4246838518884,54.05230329663027 156.57600714475848,54.66928635450313 152.13918304699473,56.39683545823209 147.80799761833623,57.69249394140206 146.17059824895114,58.494566803914495 143.89936686563306,59.17324298317544 142.26196749624796,59.913616099744104 141.0999421372544,60.22210462222574 139.77945877495222,60.83908117946703 138.51179474708624,61.20926680165576 137.4554080569651,61.641149731876794 136.3462020328734,62.07303234364372 134.39188665663823,62.56661208119476 133.2298612978775,62.998494010360446 133.018583959667,62.998494010360446 132.75448728725314,62.69000695057912 131.38118459028192,59.2966385675245 130.58889457280748,56.21174115524627 129.2684112105053,51.83115890517365 128.42330185859464,48.376028660684824 127.78946984466165,46.46335850842297 127.6310118411202,45.5378707080381 127.47255383781157,45.47617146925768 127.47255383781157,45.66126916592475 127.84228917886503,47.2654467523098 129.00431453809142,50.535487452638336 129.21559187583625,51.27587149088504 129.3740498793777,52.63323979615234 131.48682325915433,60.03701152832946 132.06783593865111,63.43037562107202 132.33193261129782,64.54092687129742 132.2791132768616,64.66432132467162 131.48682325915433,64.72601854149252 131.7509199315682,64.66432132467162 131.80373926623724,64.3558351424872 131.38118459028192,63.12188878870802 130.27197856572457,59.04984737263294 130.1135205621831,57.81588983780239 129.79660455533303,56.70532583340537 129.5853272175882,55.594759722589515 128.84585653431714,53.62041476927698 128.47612119303085,52.13965168554569 127.84228917886503,50.288692565402016 127.41973450314254,48.49942652054597 127.26127649960108,47.327145802555606 127.2084571653977,46.15486273763236 127.31409583427012,46.09316356386989 127.47255383781157,46.216561904759146 128.2648438550532,47.2654467523098 128.74021786567755,48.31432972109178 129.79660455533303,51.27587149088504 131.11708791786805,56.21174115524627 132.1734746079892,60.77738355298061 132.75448728725314,62.81340179388644 133.12422262877226,62.998494010360446 135.18417667387985,62.62830951914657 137.87796273338608,61.5794521899079 138.88153008860536,61.024174019810744 140.20201345090754,60.53059298201697 141.83941282029264,60.28380230709445 144.26910220715217,59.358336350065656 145.37830823170952,58.74135823268443 146.69879159377888,58.37117105041398 148.389010297833,57.569098018924706 151.55817036749795,56.643627771234605 152.56173772295006,56.21174115524627 156.7872844825033,54.79268288810272 158.63596118986607,53.8672082524281 158.90005786227994,53.49701798852766 158.90005786227994,53.00343060615705 157.57957449997775,48.43772759393323 156.99856182048097,47.388844846282154 156.6816458136309,46.52505764324451 154.35759509564377,41.15720860345755 153.93504041968845,39.121115060173906 153.93504041968845,37.33181488898117 154.0406790887937,37.023314306978136 154.30477576120757,36.77651372435503 155.36116245086305,36.1595118122641 160.00926388660446,34.493603402224835 161.64666325622238,34.06170044792816 162.438953273464,34.0 163.38970129424706,34.43190299964044 164.12917197751813,34.9872063883231 166.1363066881895,37.88711552741006 167.82652539224364,40.72531056468142 168.35471873683855,42.329501674103085 169.30546675785445,44.3038846985437 170.09775677556172,45.66126916592475 171.101324130781,47.9441359466291 171.78797547891736,48.93131882493617 172.68590416572988,50.658884857431985 172.7915428346023,51.09077556914417 172.68590416572988,51.27587149088504 172.31616882421076,51.46096735424362 171.25978213432245,51.64606315898709 168.93573141656816,52.20135022216709 167.24551271251403,52.44814430351835 164.02353330841288,53.43531958857784 162.17485660105012,53.74381152377464 161.32974724913947,54.05230329663027 159.53388987621292,54.42249320936389 158.84723852784373,54.79268288810272 157.15701982402243,55.28626876231283 152.72019572625868,56.95211801631376 150.39614500827156,57.569098018924706 148.9700229773298,58.18607737129787 144.32192154158838,59.975313817325514 142.52606416889466,60.40719765756512 141.89223215472884,60.71568591991672 141.04712280305102,61.33266195707256 138.77589141973294,61.887939834734425 136.9272147123702,62.62830951914657 136.61029870528728,63.06019140285207 136.61029870528728,63.306980907625984 136.82157604349777,63.7388622907456 137.6666853951756,64.54092687129742 137.93078206758946,65.0345045288559 138.14205940579996,66.63862904254347 138.406156077981,67.56408349372214 139.0399880921468,68.61293010372901 139.19844609568827,69.35329128586454 139.56818143697456,70.34043807239505 140.41329078911804,73.11677948839497 141.680954816984,76.51006778888404 142.57888350309804,79.53316262224689 143.1070768481586,80.7053788691992 144.11064420384355,84.28370868833736 144.53319887956604,85.27083030802896 145.11421155929565,87.18337371147936 145.6952242385596,88.47896408138331 145.74804357276298,89.15760551241692 145.58958556945436,89.71285700716544 145.6952242385596,90.45319151488366 145.90650157653727,90.82335841777967 146.7516109282151,91.50199713197071 147.068526935298,92.18063505977625 148.54746830137447,96.807690882124 149.12848098063841,98.2883410245413 149.18130031507462,98.72019661107333 149.12848098063841,98.90527747938177 148.91720364266075,99.09035828901688 149.0756616462022,99.83068094274495 149.28693898417987,100.20084191882052 149.92077099811286,100.57100266084308 150.29050633939914,101.18793671095045 150.92433835356496,103.10042813688051 151.66380903637037,106.0" stroke="#4dd2ff" stroke-linecap="round" stroke-linejoin="round" stroke-width="0.5"><title>2023-08-02 7.3km</title></polyline><polyline fill="none" points="65.55994368391111,186.0 65.3419409703929,185.42708956327988 64.57893147249706,184.09029643208487 63.979424010263756,182.626186276495 63.325415869476274,180.33452847698936 63.325415869476274,179.88892734015826 63.59791926154867,179.2523537176894 63.54341858299449,178.61577942455187 63.1619138342794,178.0428619874292 62.67140772868879,177.85188938776264 62.34440365806222,177.53360158746364 61.85389755247161,176.38776411832077 60.98188669839874,173.8414508526912 60.2188772005029,172.12268333305838 59.837372451787814,169.95830246561673 59.837372451787814,169.38537682069 59.673870416590944,168.74879213393433 59.07436295389198,167.9848896243493 58.74735888373107,167.34830346202943 57.929848707513884,165.24756436864845 57.1123385312967,162.70120416150894 56.62183242570609,161.7463163175853 56.29482835554518,159.96385497169103 54.22380257630721,154.29813934717095 52.97028697305359,150.5421862246585 52.4252801889088,149.3326370290597 51.662270691245794,146.84987056819955 51.662270691245794,146.02227948082145 51.55326933437027,145.25834824016783 51.44426797772758,143.4121770883212 51.22626526420936,142.3935974862543 50.84476051549427,141.31135477789212 51.00826255022548,140.99304773006588 51.49876865581609,140.73840197105892 52.97028697305359,140.2291101308656 54.71430868189782,139.33784837793792 57.057837852975354,138.3829236124293 65.39644164871424,135.19983016012702 70.51950541860424,133.41729050216964 71.28251491626725,133.09897929575527 71.71852034330368,132.78066792123718 71.88202237873338,132.39869405090576 72.04552441369742,131.38009588210844 71.8275217001792,130.04318317980506 70.24700202676468,125.58678613998927 68.93898574495688,122.14897167868912 68.61198167456314,120.93936564179603 67.35846607107669,118.39281870110426 66.59545657364652,115.90992509899661 66.26845250325277,114.44564972980879 65.99594911118038,114.19099278165959 65.66894504055381,114.0 65.0694375783205,114.0 64.25192740210332,114.38198550284142 62.18090162309818,115.1459557840135 60.54588127089664,115.52794056216953 59.3468663461972,115.97358916507801 57.384841923834756,116.419237439055 55.91332360659726,117.1195412054658 53.13378900825046,118.13816341658821 51.117263907333836,118.71113765548216 49.209740163059905,119.41143876546994 45.067688604583964,120.68471143092029 41.79764790041372,121.8306545355008 40.707634332356974,122.08530826336937 39.01811330183409,122.33996188407764 34.49455699441023,123.93154458206845 31.824023752706125,125.14114462817088 29.207991189323366,125.84143828472588 28.335980335017666,126.22341630089795 28.172478299820796,126.60539407556644 27.954475586069748,127.6876631253981 28.390481013339013,129.15190640144283 29.534995259949937,131.63474558544112 30.570508149452507,134.43588523654034 31.279016968561336,136.6640552310273 31.824023752706125,138.0646150216926 33.404543426353484,142.9028875019867 34.276554280892015,145.32200921390904 35.09406445687637,146.59522727743024 35.639071241021156,146.84987056819955 36.45658141700551,146.72254893626086 38.14610244752839,146.02227948082145 42.288154006237164,144.6217381354072 42.88766146847047,144.3034328314825 43.5961702875793,143.7304828618071 43.650670966133475,143.53949941770406 43.54166960949078,142.83922627341235 42.615158076630905,139.7834794187802 41.47064383001998,134.81785781914368 41.19814043818042,134.11757456656778 39.56312008574605,127.87865158013301 39.01811330183409,125.3957969606854 39.01811330183409,124.95015530812088 39.127114658709615,124.75916592782596 39.56312008574605,125.0138184215175 39.94462483469397,125.58678613998927 40.59863297548145,127.3056860351353 41.25264111650176,128.57894206384663 42.12465197080746,132.5260187012027 42.451656041434035,133.35362827428617 43.21466553886421,136.4094076473266 43.54166960949078,137.36433553206734 43.92317435797304,138.82855535752606 44.359179785242304,140.35643313114997 44.522681820672005,141.12037056923145 44.686183855868876,141.43867755011888 44.849685890832916,141.50233892607503 46.48470624303445,141.31135477789212 48.55573202227242,140.42009462125134 52.09827611874789,139.33784837793792 53.51529375696555,138.95587865269044 54.16930189775303,138.7012320352369 56.022324963472784,138.00095328345196 57.929848707513884,137.55532092798967 59.61936973803677,136.72771711007226 64.96043622167781,134.69053365162108 69.64749456406571,133.16264155035606 70.68300745380111,132.84433020965662 71.01001152419485,132.90799249120755 71.01001152419485,133.09897929575527 70.7920088104438,133.28996603970882 68.82998438808136,134.30856098845834 67.73997082002461,134.62687155790627 65.61444436223246,135.5818022597232 62.18090162309818,136.6640552310273 57.548343958798796,138.5739086860558 54.00579986255616,139.7834794187802 52.58878222410567,140.165448620799 49.97274966072291,141.12037056923145 48.882736092666164,141.5660002953955 48.61023270059377,141.75698436325183 48.55573202227242,141.947968370514 48.61023270059377,142.3299362042453 49.209740163059905,143.47583825641777 49.591244912007824,145.00370427890448 50.29975373111665,146.78620975563535 51.00826255022548,147.7411212407169 51.17176458565518,148.12308541225502 52.91578629473224,153.08859766990645 53.95129918423481,156.58989588543773 55.36831682291813,160.34581141686067 56.4038297124207,163.59243145468645 57.548343958798796,166.8390340495389 57.87534802919254,168.23952390137129 57.929848707513884,169.38537682069 58.03885006415658,169.89464408735512 58.31135345669463,170.4675692495657 58.85636024037376,171.04049386829138 60.164376522181556,174.28705644863658 60.654882628005,175.94216007128125 61.47239280398935,178.29749202658422 61.47239280398935,178.5521219584043 61.14538873336278,178.99772408098215 61.09088805504143,179.18869631848065 61.47239280398935,179.9525846655015 62.50790569349192,181.0984153757454 63.54341858299449,183.2627563450951" stroke="#4dd2ff" stroke-linecap="round" stroke-linejoin="round" stroke-width="0.5"><title>2023-07-31 6.0km</title></polyline><polyline fill="none" points="161.1011773389764,183.74798853194807 160.16634135250933,182.1101570931496 158.47195112728514,177.67434282082831 158.35509662888944,177.19663793389918 158.41352387797087,176.7189326946973 158.93936912016943,176.24122710316442 158.93936912016943,175.9682523214724 158.35509662888944,175.0128396791406 157.77082413737662,174.8081082154531 156.018006663071,170.71346535347402 155.14159792568535,168.18842268845765 154.44047093577683,165.1856564381742 153.44720769976266,163.4112880208413 151.6943902252242,158.29289035714464 151.22697223210707,157.4056973164552 150.70112698990852,155.1535864486941 150.23370899655856,153.58392878936138 149.29887301032431,150.85408032301348 148.71460051857866,149.5573982715141 147.83819178142585,146.96402638184372 146.84492854587734,144.4388911445858 146.66964679863304,143.4151848659967 146.20222880505025,142.18673519598087 145.851665310096,139.79807639092905 144.91682932386175,138.02363843360217 144.79997482569888,136.24919561576098 145.03368382225744,135.6349642770365 145.38424731697887,135.29372439271538 148.71460051857866,133.99701119278325 149.94157275091857,133.31452951865504 151.75281747453846,132.63204712537117 152.74608071008697,132.15430902224034 154.2651891882997,131.67657056683674 155.2584524238482,131.13058332924265 158.296669379808,129.90211036155233 159.52364161168225,129.56086745712673 162.38657682016492,128.53713766502915 167.11918400181457,127.10391323798103 167.46974749676883,126.89916663244367 167.52817474561743,126.76266885944642 167.11918400181457,126.69441996212117 165.71693002223037,127.10391323798103 163.73040355090052,127.78640145598911 162.38657682016492,128.40064023737796 160.98432284058072,128.7418837529258 157.24497889494523,130.0386074729613 155.60901591880247,130.3116016096319 155.02474342728965,130.0386074729613 154.6741799323354,129.69736464042217 154.0314801915083,128.3323915124638 152.68765346100554,124.10095653613098 151.75281747453846,122.05347807548242 149.94157275091857,117.00300353276543 149.64943650527857,115.97925389243755 148.94830951537006,114.54600167786703 148.83145501697436,114.0 149.06516401353292,114.40950130164856 149.53258200688288,115.56975358346244 149.94157275091857,117.13950336241396 150.64269974082708,118.43625031039119 151.75281747453846,120.89323740795953 152.57079896260984,123.82795978203649 153.73934394563548,126.83091774967033 154.2651891882997,129.0148784359335 154.20676193921827,130.24335308629088 153.79777119518258,130.72109259886201 152.97978970664553,131.13058332924265 146.84492854587734,133.79226676607504 141.87861236790195,135.4302203679108 139.77523139840923,135.97620398149593 138.84039541194215,136.04445190099068 138.6066864153836,135.97620398149593 138.37297741882503,135.56671631458448 138.0808411729522,134.40649985219352 137.2044324357994,132.15430902224034 136.03588745277375,128.6736350642168 135.6853239578195,127.03566437674453 134.39992447616532,123.28196592844324 133.69879748648964,119.66474502399797 133.4066612406168,118.84574880730361 133.17295224405825,118.70924933691276 132.99767049681395,118.70924933691276 132.6471070018597,119.11874766123947 132.6471070018597,119.8012442929903 133.75722473557107,122.39472493482754 134.69206072180532,125.12469333945774 137.2044324357994,133.79226676607504 137.90555942547508,136.99992201651912 137.7887049273122,137.27291321929079 136.73701444244944,138.29662920505507 137.3212869341951,137.9553907229565 137.3212869341951,137.27291321929079 137.0875779374037,136.3856913895579 136.44487819680944,134.54299601441016 135.8021784562152,132.15430902224034 134.51677897456102,126.35317536775256 133.5235157390125,123.48671367758652 132.6471070018597,120.07424274430377 132.47182525438257,118.84574880730361 132.6471070018597,118.43625031039119 132.99767049681395,118.36800053564366 133.4066612406168,118.57274983788375 133.58194298809394,118.77749907568796 134.16621547960676,120.89323740795953 134.69206072180532,121.71223103592638 134.86734246951528,122.46297428535763 135.33476046309806,123.55496291286545 135.62689670873806,124.85169701685663 136.32802369864658,126.69441996212117 136.5617326949723,128.40064023737796 137.3212869341951,130.99408644787036 137.55499593052082,132.3590539668803 138.25612292042933,135.08898037590552 138.48983191722073,135.4984683447983 138.78196816286072,135.70321223232895 140.0089403949678,135.4984683447983 141.82018511882052,134.9524843285326 145.03368382225744,134.20175555493915 146.31908330344595,133.65577044564998 148.42246427293867,133.0415366476518 149.8831455016043,132.427302267286 152.9213624575641,131.33532859705156 154.73260718164966,130.37985012575518 156.018006663071,130.1751045556739 158.64723287476227,129.0148784359335 160.92589559149928,128.12764529511333 164.7820940357633,127.03566437674453 166.65176600869745,126.35317536775256 166.94390225433744,126.28492642723722 167.177611250896,126.42142430110835 167.11918400181457,126.76266885944642 166.76862050686032,127.03566437674453 163.90568529837765,128.26414278073935 160.28319585090503,129.49261885444866 156.13486116123386,131.19883175904397 152.45394446444698,132.427302267286 147.3123465392273,134.4747479367652 145.38424731697887,135.02073235588614 145.09211107133888,135.36197238386376 144.91682932386175,135.90795605495805 144.91682932386175,136.65868285141187 145.20896556950174,137.6823998077889 145.7932380612474,138.97910563013284 146.37751055252738,140.07106641447172 146.5527923000045,140.8217883859761 146.43593780184165,141.5725094874506 145.6763835628517,142.18673519598087 145.55952906468883,142.52797144913347 145.61795631377026,142.86920752259903 147.25391928991303,147.8512337229913 148.94830951537006,152.35549840301974 150.64269974082708,157.4056973164552 151.16854498302564,158.70236365858 152.68765346100554,163.34304298466304 153.0382169559598,164.70794234238565 152.86293520824984,165.59512538276613 152.97978970664553,166.14108357293298 153.21349870343693,166.61879661190324 153.856198444264,167.23299857298844 155.7842976662796,172.9655221302528 156.60227915435098,174.87635204399703 156.6607064034324,175.35405864182394 156.1932884103153,175.7635211594752 156.3685701575596,176.37771445087856 156.60227915435098,176.85541994171217 157.1865516458638,177.26488151069498 157.5955423898995,177.8790733787464 158.47195112728514,180.13110524701187 159.05622361856513,181.90542787214508 159.64049611031078,183.4067739903112 159.64049611031078,184.3621742541436 160.69218659494072,186.0" stroke="#4dd2ff" stroke-linecap="round" stroke-linejoin="round" stroke-width="0.5"><title>2023-07-29 5.9km</title></polyline><polyline fill="none" points="66.39046951150522,264.6402297411696 65.83901446242817,263.13732260488905 65.83901446242817,262.42165137140546 66.14537837868556,261.4912776410347 66.08410559571348,261.1334412516444 65.59392332984135,260.20306575729046 64.79737714794464,259.77366125315893 64.42974044871517,259.3442564776633 64.2459220988676,258.91485143097816 64.00083096604794,258.0560405229335 63.8170126164332,256.3384154503001 63.449375916970894,254.62078603554983 62.40773860248737,252.2590384996147 61.42737407097593,248.96689187223092 60.753373455256224,248.10806838911958 60.385736756026745,247.39238132414175 59.58919057413004,245.10217764927074 58.17991656018421,241.59528830985073 57.873552643693984,239.87762162071886 56.83191532921046,235.7981458280119 56.58682419639081,233.86575400765287 55.974096364108846,232.3627787916339 54.442276783520356,229.49995965743437 53.70700338482857,227.35283738921862 53.52318503521383,226.13613175839419 52.97172998636961,224.56156829505926 52.72663885331713,223.55957146378933 51.930092671420425,221.62714482966112 51.8075471050106,220.98300139675848 51.99136545462534,219.55156935902778 51.8075471050106,218.19170612917515 51.86881988821551,217.97699063352775 52.05263823783025,217.83384693186963 53.829548951238394,217.47598754626233 60.32446397305466,214.97096656786744 63.0204664345365,214.25524459168082 65.47137776343152,213.1816602135077 68.53501692414284,211.53549420437776 69.8217453721445,211.17763150081737 71.353564952733,210.96291378809838 72.39520226744935,210.46190552780172 73.80447628139518,210.17561492719688 74.53974968008697,209.8893242062768 74.78484081313945,209.60303336451761 74.72356802970171,209.53146063530585 74.41720411390997,209.45988789841067 72.33392948424444,209.8893242062768 66.39046951150522,212.0365016729338 63.8170126164332,212.6806535894866 62.59155695186928,213.25323255808325 61.42737407097593,213.53952186123934 59.58919057413004,214.39838904736098 58.302462126361206,214.68467786803376 56.28046028013341,215.4719715025276 54.809913482749835,215.9014040096081 53.094275552779436,216.7602682094439 50.70463700732216,217.33284373913193 46.23172383173369,218.69270868838066 45.31263208319433,218.90742395777488 44.822449817787856,218.83585220878012 44.57735868473537,218.69270868838066 43.41317580337636,214.75625005422626 42.55535683850758,212.96694313414628 41.63626509043388,210.24718758871313 41.20735560776666,208.24315021862276 40.410809425637126,205.52337575959973 39.73680881038308,202.8035904104472 38.817717062076554,199.94064669898944 38.94026262848638,198.7238919675001 39.062808194896206,199.72592543397332 39.18535376130603,202.08785561379045 40.53335499227978,209.03045131923864 41.02353725791909,210.74819600733463 42.1877201392781,214.3268168233917 42.55535683850758,216.04454811837059 42.861720754764974,218.048562472919 43.04553910437971,220.48200052662287 42.61662962171249,222.0565734457341 41.69753787340596,222.70071586070117 36.97953356523067,224.20371245371643 35.32516841869801,224.63313944090623 34.46734945313074,224.77628170960816 34.09971275413409,224.56156829505926 33.670803271466866,224.20371245371643 32.322802040725946,221.91343060386134 30.362072977470234,216.9749840896693 29.075344529934227,214.54153347271495 27.482252166140825,210.17561492719688 26.80825155065395,208.9588785294909 26.563160417834297,207.95685868320288 26.134250935167074,206.74011831119424 25.64406866929494,204.80764382885536 25.215159186860546,203.5193244528491 25.337704753503203,202.94673727930058 25.582795886090025,202.6604435115005 26.25679650180973,202.23100263345987 28.278798348037526,201.9447085640859 28.95279896329157,201.658414373931 29.810617928626016,201.01425200485392 30.30080019403249,200.87110472877976 31.403710292186588,200.87110472877976 33.79334883764386,201.2289728623582 36.79571521561593,200.65638375794515 37.95989809720777,200.01222043891903 40.410809425637126,198.00815287209116 41.75881065684371,197.22083899599966 46.354269398376346,195.57463430601638 50.582091440679505,194.7157433188986 52.60409328667447,194.07157436577836 53.21682111895643,194.0 53.70700338482857,194.3578717536875 54.68736791634001,195.93250523036113 56.64809697959572,198.65231809194665 56.77064254600555,199.58277788653504 57.75100707728416,202.23100263345987 58.24118934292346,204.44977758056484 59.16028109146282,207.24112931650598 59.77300892397761,208.67258729576133 60.569555105641484,210.17561492719688 61.30482850433327,212.0365016729338 61.549919636920094,212.39436392433709 61.85628355341032,212.60908118454972 62.40773860248737,212.6806535894866 63.57192148361355,212.53750877192942 66.26792394532822,211.82178423169535 67.8610163088888,211.17763150081737 69.8217453721445,210.81976860854775 71.16974660288543,210.46190552780172 72.9466573165264,209.6746060862206 74.29465854703449,209.38831515412312 74.78484081313945,209.53146063530585 74.66229524672963,209.81775150704198 74.04956741444767,210.10404225828825 71.16974660288543,210.89134120196104 68.10610744194128,211.89335671975277 66.69683342776261,212.10807413811563 64.2459220988676,213.25323255808325 60.81464623869397,214.39838904736098 57.62846151110716,215.25725514744408 55.1162773987744,216.47398026351584 53.21682111895643,217.04655603476567 51.43991040554829,217.47598754626233 49.47918134275824,218.47799335117452 49.17281742626801,218.83585220878012 49.050271860091016,219.19371087814216 49.11154464329593,219.69471269845963 49.2953629931435,220.12414253584575 50.27572752442211,221.12614443455823 50.765909790061414,222.0565734457341 51.0110009231139,223.91742764459923 51.8075471050106,225.63513468863675 52.97172998636961,229.07053574663587 53.58445781841874,230.64508875872707 54.31973121711053,232.7922006212757 54.87118626618758,235.0824457948329 55.72900523128919,237.1579738141736 56.89318811241537,240.73645550804213 58.36373490956612,245.5315914263483 58.97646274184808,247.17767505749362 59.52791779092513,249.4678717359784 59.405372224515304,250.04041969915852 59.52791779092513,250.61296718002995 59.83428170718253,251.54335580713814 60.44700953923166,251.82962897472316 60.6308278888464,252.04433377104579 60.81464623869397,252.7600159358699 63.20428478415124,258.986418957531 63.38810313376598,259.916796118021 63.0204664345365,260.84717200457817 63.3268303507939,261.9206810594769 63.51064870040864,262.20694985450245 64.42974044871517,263.06575551530113 64.7361043645069,263.6382920196629 65.59392332984135,266.0" stroke="#4dd2ff" stroke-linecap="round" stroke-linejoin="round" stroke-width="0.5"><title>2023-07-26 6.1km</title></polyline><polyline fill="none" points="164.60206686798483,261.7362903393223 163.8719635247253,259.848066017963 163.29831089777872,257.95983553113183 162.82895874837413,255.94977694778936 162.20315588265657,253.7569777976605 162.09885540488176,252.96513161680195 160.89939991221763,250.77232114906656 159.75209465855733,247.23944234993542 159.64779418101534,246.75214702868834 159.6999444195535,246.14302729960764 159.8042448970955,245.77755515428726 159.75209465855733,245.35117069276748 159.3870429864619,244.68113733199425 158.50048892665654,244.19383985491004 158.39618844911456,243.95019096229225 157.770385583397,241.51369639020413 156.41447937418707,238.28532526892377 156.31017889664508,236.94524139660643 156.41447937418707,236.39702437183587 156.3623291356489,236.09245913347695 155.9972774637863,235.42241504450794 155.21502388152294,234.69145697093336 154.84997220989317,233.9604979736614 153.859117672313,231.21939350303728 152.71181241841987,227.44273939204868 151.35590620920993,224.09246106550563 150.05215023900382,219.82844239211408 149.58279808983207,218.8538051370997 149.42634737305343,218.12282611784758 149.00914546265267,216.90452569857007 148.5919435522519,215.19890079891775 148.33119235816412,213.85876341932453 148.12259140284732,213.06686259864364 147.91399044753052,211.78763590479502 147.44463829812594,210.38657484948635 147.34033782058395,209.4728375497507 147.44463829812594,209.04642631561728 147.65323925344273,208.86367854761193 149.84354928368703,208.01085486623924 150.93870429880917,207.27986213815166 152.1381597914733,206.85344928666018 153.59836647822522,206.00062264007283 157.04028223990463,205.08687840832863 158.60478940419853,204.35588198335608 161.16015110630542,203.74671758990735 161.62950325571,203.50305165263126 162.25530612142757,203.07663601567037 163.6112123306375,202.71113664773293 165.1235692561604,201.98013721895404 167.1052783310879,201.43188704072963 167.5224802417215,201.12730338377878 167.41817976394668,201.00546987587586 167.00097785354592,201.06638663302874 165.95797307719477,201.37097032211022 159.4913434642367,203.86855051975 157.87468606117181,204.35588198335608 152.65966217941605,206.30520372954197 151.30375597043894,206.60978465882363 148.2790421191603,208.01085486623924 146.87098567117937,208.3154348967364 145.61937993974425,208.80276261206018 143.68982110358775,209.29008991655428 141.81241250620224,209.71650097100064 141.2909101182595,209.71650097100064 141.0823091629427,209.53375341458013 140.5086565357633,206.85344928666018 140.09145462536253,205.69604138995055 138.47479722229764,199.4216319391271 138.05759531189688,198.38604324992048 137.53609292348847,195.70568744000047 137.06674077408388,194.85284434910864 136.9102900577709,194.7919269373524 136.49308814737014,194.85284434910864 136.23233695328236,194.97467915341258 136.23233695328236,195.15743131167255 136.49308814737014,196.55852927290834 137.5882431624923,200.09171774983406 137.95329483412206,201.61463715782156 138.83984889416024,204.72138031147188 139.67425271496177,208.07177088526078 140.24790534190834,211.66580464347498 140.03930438659154,212.03129835048458 139.83070343150757,212.09221394569613 137.84899435634725,212.88411610142794 133.8855762067251,213.98059421859216 132.68612071382813,214.589747829712 132.47751975851133,214.9552396882209 132.52966999751516,215.01615497557214 132.99902214691974,214.71157847478753 136.9102900577709,213.37143996584928 139.67425271496177,212.27496069326298 140.03930438659154,212.03129835048458 140.24790534190834,211.54397335636895 140.24790534190834,210.691153628577 139.62210247595794,208.25451890355907 139.51780199841596,207.21894603566034 137.79684411734343,200.8227195663494 137.64039340126328,199.72621649480425 136.59738862491213,195.40110076626297 136.3366374305915,194.18275246641133 136.3366374305915,194.0 136.7538393412251,194.0609174951678 137.01459053554572,194.30458741192706 137.43179244594648,195.34018341219053 138.21404602797702,198.8124623466283 138.6312479386106,200.8836363425944 138.94414937170222,201.91922055801842 139.04844984901138,202.8329697959707 139.361351282103,203.86855051975 141.0301589241717,209.4728375497507 141.2387598794885,209.7774168101605 141.44736083457246,209.8992484693881 141.91671298397705,209.8992484693881 143.37691967072897,209.4728375497507 145.88013113383204,208.43726686405716 148.80054450733587,207.5844425538089 151.30375597043894,206.54886848590104 152.7639626574237,206.12245509505738 154.2241693441756,205.57420884497697 155.63222579215653,204.90412938897498 157.19673295645043,204.59954756114166 160.48219800181687,203.3203021324589 162.56820755428635,202.5283868772094 166.63592618168332,201.43188704072963 167.00097785354592,201.43188704072963 167.1052783310879,201.4928037529462 167.1052783310879,201.61463715782156 166.94882761477493,201.8583038908546 166.37517498759553,202.1019705212675 163.0897099422291,203.07663601567037 160.8472496732138,203.92946697527077 155.9972774637863,205.5132925627404 150.67795310472138,207.4626104067429 149.26989665674046,208.13268689764664 145.93228137260303,209.16825812880415 145.2021780293435,209.53375341458013 144.9935770740267,209.7774168101605 145.04572731279768,210.02108010282973 145.2021780293435,210.38657484948635 145.88013113383204,211.17847934144083 146.08873208914883,211.66580464347498 146.6623847160954,213.91967882210156 147.28818758158013,215.19890079891775 148.53979331324808,219.40203879505862 150.00000000023283,223.66606061306084 150.990854537813,226.95542738732183 152.03385931393132,229.63563833077205 153.49406600068323,233.89958468201803 153.806967433542,235.30058876308613 153.806967433542,236.1533721939777 154.2241693441756,237.18889324070187 154.74567173235118,237.61528372089379 155.3714745978359,238.89445327525027 157.24888319545425,244.07201542146504 157.40533391176723,244.68113733199425 157.04028223990463,245.16843439853983 156.98813200136647,245.35117069276748 157.09243247890845,245.71664310753113 157.35318367299624,246.26485129678622 158.03113677725196,246.8130589663051 158.2397377328016,247.17853045731317 159.8042448970955,251.32052454544464 160.01284585241228,252.1123729783576 160.1692965689581,253.1478654469829 161.10800086776726,254.85337841208093 162.77680850960314,260.152618744818 164.49776639044285,265.02544056327315 164.54991662944667,265.39090054435655 164.28916543512605,265.8172702307347 164.34131567412987,266.0 164.70636734599248,266.0 165.17571949516423,265.8172702307347 166.0101233161986,265.26908057631226" stroke="#4dd2ff" stroke-linecap="round" stroke-linejoin="round" stroke-width="0.5"><title>2023-07-23 5.7km</title></polyline></svg>