<?xml version="1.0" encoding="utf-8" ?>
<svg baseProfile="full" height="300mm" version="1.1" viewBox="0,0,200,300" width="200mm" xmlns="http://www.w3.org/2000/svg" xmlns:ev="http://www.w3.org/2001/xml-events" xmlns:xlink="http://www.w3.org/1999/xlink"><defs /><rect fill="#222222" height="300" width="200" x="0" y="0" /><text fill="#FFFFFF" style="font-size:12px; font-family:Arial; font-weight:bold;" x="10" y="20">Over 3km Runs</text><text fill="#FFFFFF" style="font-size:4px; font-family:Arial" x="10" y="280">ATHLETE</text><text fill="#FFFFFF" style="font-size:9px; font-family:Arial" x="10" y="290">Melt</text><text fill="#FFFFFF" style="font-size:4px; font-family:Arial" x="120" y="280">STATISTICS</text><text fill="#FFFFFF" style="font-size:3px; font-family:Arial" x="120" y="285">Number: 8</text><text fill="#FFFFFF" style="font-size:3px; font-family:Arial" x="120" y="290">Weekly: 2.7</text><text fill="#FFFFFF" style="font-size:3px; font-family:Arial" x="141" y="285">Total: 25.6 km</text><text fill="#FFFFFF" style="font-size:3px; font-family:Arial" x="141" y="290">Avg: 3.2 km</text><text fill="#FFFFFF" style="font-size:3px; font-family:Arial" x="167" y="285">Min: 3.1 km</text><text fill="#FFFFFF" style="font-size:3px; font-family:Arial" x="167" y="290">Max: 3.8 km</text><polyline fill="none" points="62.06745149753988,79.59426414163318 62.06745149753988,79.18607109569712 61.76789333228953,78.89450445002876 61.11885064118542,78.77787774882745 60.61958703259006,78.89450445002876 59.67098617646843,79.3610110093723 56.525625442387536,81.5185987331788 54.07923376071267,82.97642351628747 52.481590213254094,84.2009933674708 50.434609418036416,85.6004984525498 49.73564036632888,85.89206156658474 49.436082201311365,85.77543633955065 49.18645039689727,85.54218581120949 48.63726042746566,84.2593061500811 47.08954324107617,78.60293765075039 45.89131058054045,75.39569272508379 45.74153149779886,74.75424151035259 45.79145785886794,74.05447570123943 44.6431515594013,72.3050573085784 43.44491889863275,69.09777589770965 43.24521345528774,68.28137402638094 43.24521345528774,67.93148714140989 43.44491889863275,67.34834184177453 43.39499253802933,66.99845436715987 43.145360733848065,66.41530808486277 42.99558165110648,66.29867875477066 42.49631804251112,66.06542002072092 42.29661259916611,65.77384646481369 41.7474226297345,63.84945714485366 41.09837993863039,62.333266908535734 40.499263608362526,60.70044201024575 40.14977908250876,58.892665969149675 40.14977908250876,58.251195632328745 39.40088366949931,57.084884024516214 38.751840978395194,55.743622637877706 36.25552293565124,48.68736790877301 35.75625932728872,46.70460245787399 35.0073639145121,44.605196003976744 34.757732110330835,43.613806855282746 34.05876305815764,41.74765775853302 33.45964672812261,39.8231849129661 33.16008856287226,38.773469631618354 33.0103094803635,37.723752359626815 32.660824954044074,36.49907969275955 32.01178226317279,35.332722253049724 31.21296048979275,34.166362355288584 30.66377052012831,33.11663634626893 30.364212355110794,33.0 29.565390581265092,33.0 28.716642446815968,33.23327266779961 28.067599755944684,33.29159081930993 27.568336147116497,33.408227103878744 26.370103486580774,34.04972623032518 24.422975413268432,35.68262974295067 22.226215536007658,36.5573975003208 18.981002080254257,37.723752359626815 18.08232758496888,38.24861124437302 17.932548502460122,38.540199298702646 17.932548502460122,38.773469631618354 18.182180306641385,40.17308956437046 18.232106667477638,41.106167553400155 18.331959389150143,41.51438867900288 18.781296636909246,42.33083002700005 19.380412967177108,42.50578158785356 21.227688318816945,42.09756119339727 25.621208074036986,40.58131137810415 28.16745247738436,39.53159753448563 31.01325504621491,38.773469631618354 31.41266593290493,38.71515205752803 31.712224098155275,38.89010476123076 33.50957308895886,43.38053856207989 34.70780574926175,46.76291919010691 36.00589113146998,50.145279150572605 36.60500746173784,52.244664593134075 36.7547865442466,53.46930242446251 37.453755596186966,55.04383279813919 38.202651009196416,57.43477776477812 38.202651009196416,58.77603505406296 38.65198825695552,59.53413556271698 39.10132550448179,59.82571240485413 39.25110458699055,60.058973768143915 40.74889541277662,63.907772071135696 40.89867449528538,64.6658655522624 41.447864464716986,66.0071053217398 41.49779082555324,66.41530808486277 41.49779082555324,66.64856667153072 41.19823266030289,67.17339813220315 41.19823266030289,67.46497095085215 41.59764354722574,68.28137402638094 42.24668623832986,68.80620393902063 42.84580256859772,70.0891194086289 43.99410886806436,73.0048253290006 44.1938143116422,73.76290635304758 44.1938143116422,74.40435871633235 44.24374067247845,74.69592772674514 44.892783363349736,75.86220223264536 45.79145785886794,78.19474387390073 46.14094238495454,79.3610110093723 48.33770226244815,85.54218581120949 48.487481344956905,86.35856222972507 48.287775901611894,86.8250625000801 48.287775901611894,86.94168750598328 48.43755498435348,87.0 48.687186788534746,86.94168750598328 49.68571400572546,86.35856222972507 51.732694800477475,84.90074635227211 53.0307801826857,83.79280371806817" stroke="#4dd2ff" stroke-linecap="round" stroke-linejoin="round" stroke-width="0.5"><title>2023-07-18 3.1km</title></polyline><polyline fill="none" points="180.13960404112004,80.27925880555995 178.80027076718397,81.4380131457001 178.05619672662579,81.72770134912571 176.56804864457808,82.77057761885226 175.7247647314798,83.17614007863449 174.93108575465158,83.87138931429945 174.03819690528326,84.3928256642539 172.2028142712079,85.84125737624709 171.65715997456573,86.18888041970786 171.0122958056163,85.03013608738547 170.16901189251803,82.77057761885226 170.02019708463922,81.95945180230774 169.57375266007148,81.20626247290056 169.32572797941975,79.75781855615787 168.53204900282435,76.860919280909 168.0359996422194,75.41246392211178 168.0359996422194,74.89101905922871 167.83757989760488,74.7172039950965 167.4903453453444,73.79018939216621 166.64706143224612,71.99409415287664 166.10140713560395,70.37180954089854 165.45654296665452,69.03921503038146 165.3573330945801,68.34394704771694 165.80377751914784,67.88043457083404 165.2085182867013,66.54783402441535 164.61325905378908,66.60577324562473 164.1172096929513,65.09935150755337 164.0676047571469,64.34613909141626 163.3731356523931,62.89765077678021 162.72827148321085,61.44915864727227 162.23222212283872,59.24744330497924 162.18261718656868,58.668043065757956 161.04170365724713,56.98777892056387 160.6944691047538,55.59721160819754 159.85118519165553,53.337532227276824 159.70237038377672,52.52636300533777 159.35513583105057,51.94695568608586 159.4047407670878,51.30960692948429 159.00790127855726,50.498434716893826 158.85908647044562,49.8031432966236 158.51185191818513,49.1078509974177 158.36303710984066,48.4125578191597 157.96619762154296,47.775204966950696 157.6189630688168,46.964027541398536 156.6268643476069,44.298721862141974 156.32923473138362,43.19783096440369 155.9323952428531,41.51751955598593 155.43634588248096,40.06897111795843 155.03950639395043,38.56247669499135 155.13871626602486,38.09893911931431 154.14661754481494,36.070957631687634 153.89859286416322,35.433590476750396 153.94819780020043,34.79622258327436 153.05530895129777,33.0 150.77348189265467,33.34765644161962 149.53335849079303,33.75325534597505 148.24363015335985,34.390624448191375 147.40034624026157,35.31770546018379 146.95390181569383,35.31770546018379 146.8546919436194,35.78124538017437 146.40824751905166,36.01301519363187 143.7791859076824,37.05597814550856 141.15012429654598,37.69334342004731 140.50526012759656,38.09893911931431 140.10842063906603,38.73630318505457 140.2572354474105,40.300739124417305 139.86039595887996,40.93810063850833 140.80288974381983,42.792239025526214 142.24143288983032,43.02400588442106 144.62246982078068,42.38664678751957 146.6066672632005,41.69134511210723 149.53335849079303,40.41662309109233 150.17822265974246,40.24279713194119 153.10491388756782,39.08395600068616 153.55135831190273,39.19984022382414 154.49385209707543,41.227810173644684 154.64266690518707,41.981054250500165 155.13871626602486,43.3716559894965 155.73397549870424,44.6463711616816 155.8827903070487,45.34166910103522 157.02370383613743,48.23873438715236 157.12291370844468,48.93402778520249 157.4205433249008,49.62932030425873 158.06540749338455,51.77313337114174 159.70237038377672,56.64013742207317 159.90079012769274,57.39336039108457 159.80158025585115,58.03070209780708 159.90079012769274,58.436282799288165 160.00000000023283,58.61010300827911 159.9503950639628,58.95774326159153 160.14881480811164,59.53714319563005 160.84328391309828,60.00066270341631 160.99209872144274,60.63800138863735 161.53775301785208,62.08649565419182 161.93459250638261,62.83971116470639 162.62906161136925,64.75171513610985 163.17471590801142,65.9684414753574 163.3731356523931,66.66371246083872 162.67866654740646,66.89546926086769 163.1251109719742,68.22806896496331 163.76997514045797,68.45982510584872 164.36523437360302,69.85035989951575 164.81167879793793,70.42974835948553 165.95259232725948,73.44255851313937 165.95259232725948,74.1378200512845 165.80377751914784,74.60132725519361 166.5478515601717,75.52834049117519 166.94469104870223,76.74504299252294 167.2423206649255,77.44030035659671 168.58165393886156,81.20626247290056 168.68086381070316,81.90151419816539 169.32572797941975,83.34995247004554 169.97059214836918,85.60950855875853 170.21861682855524,86.4785661213682 169.87138227629475,86.65237746905768 169.87138227629475,87.0 170.41703657293692,86.94206292682793 171.06190074165352,86.65237746905768 171.5579501024913,86.24681757221697 172.10360439913347,86.0150689255097 173.29412286449224,84.9721988067613 173.88938209717162,84.62457499443553 174.83187588234432,83.81345191167202 175.47674005129375,83.6975770877907 176.12160422001034,83.46582736703567" stroke="#4dd2ff" stroke-linecap="round" stroke-linejoin="round" stroke-width="0.5"><title>2023-07-15 3.1km</title></polyline><polyline fill="none" points="43.98636414879002,131.1285268595675 43.384648805717006,129.1958073055721 43.28436291520484,128.25872873980552 43.484934695996344,127.61448630952509 43.33450586046092,127.02881072548917 43.0837911341805,126.67740507883718 42.431932845385745,126.32599921000656 42.13107517361641,125.6817545404192 41.479216885287315,123.6318801708403 40.4763579799328,121.11345274205087 40.075214417884126,119.35640359425452 40.22564325365238,118.77071931090904 40.12535736290738,118.47787693812279 39.3230702385772,117.18936866434524 38.01935366145335,114.14379178336821 35.6626352337189,107.34975246613612 34.2084898208268,102.72272988723125 33.25577386072837,100.37991895875894 32.854630298446864,98.56423369830009 32.754344407934695,97.21710854407866 32.60391557216644,96.8071132840123 31.901914338348433,95.40141295385547 31.250056049786508,94.8157034337637 31.04948426876217,94.52284844231326 30.5480548159685,93.29285579378484 30.19705419894308,93.05857117107371 29.4950529653579,93.0 26.43633330357261,93.8199958333862 26.18561857729219,93.99570906901499 25.684189124265686,94.52284844231326 25.333188507705927,94.75713244784856 24.129757821094245,94.99141635443084 24.380472547374666,95.04998731584055 24.280186656629667,95.284271099139 24.230043711606413,95.284271099139 24.33032960211858,95.16712921985891 24.17990076635033,95.284271099139 24.17990076635033,95.16712921985891 24.53090138314292,95.04998731584055 24.631187273887917,95.22570016252575 24.53090138314292,95.40141295385547 24.17990076635033,95.69426748238038 22.77589829871431,96.27997607685393 18.864748567342758,97.62710350181442 17.962175552500412,97.97852751065511 17.611174935707822,98.27138068177737 17.510889045195654,98.44709251029417 17.761603771476075,99.09136873984244 18.112604388268664,101.08276327408385 18.413462060038,101.90274718531873 18.864748567342758,102.37130887730746 19.566749801160768,102.48844923858996 20.31889398023486,102.37130887730746 22.52518357220106,101.43418509850744 23.778757204301655,100.96562261652434 25.232902616960928,100.73134122748161 26.386190358549356,100.32134855911136 27.790192825719714,99.96992603124818 30.397625979967415,99.14993926900206 31.199913104530424,99.03279820439639 31.50077077629976,99.09136873984244 31.651199612068012,99.26708030916052 32.0022002288606,99.96992603124818 32.60391557216644,101.60989592736587 33.105345024727285,102.66415973438416 33.456345641752705,103.77699158410542 33.60677447752096,104.71411141374847 34.158346875570714,105.70979950216133 34.81020516413264,107.40832212549867 35.76292112423107,110.68821319547715 36.61535119381733,113.32382592646172 37.06663770135492,114.20236072695116 38.069496606942266,117.77505461353576 37.818781880429015,118.41930844495073 37.8689248256851,118.88785621710122 38.169782497221604,119.29783519374905 38.87178373103961,119.88351892161882 39.92478558188304,122.51908806234132 40.426215034443885,123.92471982934512 40.67692976118997,124.8032378788339 41.027930377749726,125.62318680610042 41.32878804951906,126.50170217221603 41.32878804951906,126.85310792987002 41.128216268494725,127.3216485947487 41.228502159006894,127.67305383412167 41.6296457212884,128.4344310911838 42.13107517361641,128.90297042345628 42.33164695487358,129.1958073055721 43.234219969948754,132.24130173720187 43.88607825827785,133.76404269761406 43.98636414879002,134.75967876327923 44.38750771083869,135.52104631625116 44.888937163865194,136.106712955283 45.139651890145615,137.10234482598025 46.894654974807054,141.90477939887205 48.34880038769916,146.59004144894425 48.29865744221024,146.76573800796177 47.94765682565048,147.0 48.449086278211325,146.94143451127457 49.30151634803042,146.4729103789432 50.95623354171403,145.3601639820845 52.811522517120466,143.954586403328 53.864524367498234,143.54462560702814 55.11809799959883,142.60757122316863 57.37453053658828,141.02628836937947 58.577961223432794,139.9720973020303 59.73124896455556,139.09360321919667 60.03210663609207,138.97647056978894 60.583679034374654,139.0350368975778 61.486252049217,138.7422051973408 61.887395611265674,138.7422051973408 62.08796739252284,138.8593378958758 62.4389680090826,139.5621335693868 62.489110954571515,139.79639859637246 62.4389680090826,139.9720973020303 61.28568026795983,140.79202386038378 58.77853300445713,142.1390434388304 59.530677183531225,142.84183496708283 59.48053423827514,143.07609861233504 59.58082012855448,143.3103621591581 59.02924773073755,142.60757122316863 59.38024834776297,143.54462560702814 59.430391292786226,143.3103621591581 59.27996245701797,143.1932303979993 59.22981951199472,142.95896680210717 59.33010540227406,142.19760943355504" stroke="#4dd2ff" stroke-linecap="round" stroke-linejoin="round" stroke-width="0.5"><title>2023-07-14 3.8km</title></polyline><polyline fill="none" points="180.8812749220524,138.99603784945793 180.13640185678378,139.40203873050632 177.05759318824857,141.7800378795364 175.71682167123072,142.99803346669069 174.77331578894518,143.40403139719274 172.04211455048062,145.55001548543805 170.8503176465165,146.24600852892036 170.45305201178417,146.01401094539324 169.80749535560608,144.91202108940342 169.41022972087376,143.57803041866282 169.0626222905703,143.05603318940848 168.96330588194542,142.53403546538902 168.26809102133848,140.50403961288976 168.0694582038559,139.75003924733028 167.57287616073154,138.3000356426346 167.42390154767781,137.60403255623532 166.8776613001246,136.21202374406857 166.7783448912669,135.51601801847573 166.38107925653458,134.76201082294574 166.33142105233856,133.892001237371 165.6362061914988,132.78998712264 165.04030773974955,131.45596708520316 164.891333126463,130.70195433014305 164.44440928730182,129.48393154481892 164.34509287890978,128.84591853432357 164.3947510831058,128.14990349806612 164.59338390058838,127.74389432056341 164.34509287890978,127.04787789128022 163.8485108355526,126.64186790108215 163.30227058799937,126.29385910002748 162.4580811143387,123.68378607992781 162.11047368403524,123.04576634895056 161.36560061876662,120.84169249841943 161.067651392892,119.50764351326507 161.3159424145706,118.81161667272681 161.01799318846315,118.28959596488858 160.27312012342736,117.41956035216572 159.27995603671297,115.27346662903437 158.58474117610604,113.01135878433706 158.08815913298167,111.7932968645473 157.93918451992795,111.03925718285609 155.6052489161957,104.07884212769568 155.40661609871313,103.32479188073194 154.7114012381062,101.41065969219198 154.36379380780272,100.83061832131352 154.3141356036067,100.13456786953611 153.86721176467836,98.68445993505884 153.91686996887438,98.04641123395413 153.76789535582066,97.40836179349571 153.12233869964257,96.07425602816511 151.88088359124959,95.43620430195006 152.12917461292818,93.98608399246586 151.7815671826247,93.0 150.98703591316007,93.058004989638 147.51096161012538,94.04408887814498 145.9218990711961,95.66822319704806 145.37565882341005,96.01625135639915 143.93557089800015,96.59629779972602 139.86359814251773,97.93040229973849 139.11872507771477,100.01855937537039 139.26769969053566,100.30858056497527 139.1683832819108,100.88862248597434 139.2180414861068,101.64267606951762 139.4663325077854,102.51273661357118 140.11188916419633,102.80275648931274 140.90642043342814,102.86076044617221 143.78659628494643,101.75868422153872 146.1701900928747,101.1786432171939 150.1428464394994,99.84454658813775 151.58293436537497,99.14849488972686 152.32780743017793,98.97448182763765 152.6754148604814,99.43851653760066 153.07268049521372,100.07656362542184 153.37062972108833,100.7726141505409 153.51960433414206,101.46866379585117 154.11550278635696,102.74475252628326 154.214819194749,103.49880356783979 154.51276842085645,104.13684595015366 154.7114012381062,104.77488759323023 155.1086668728385,105.35492480848916 155.25764148589224,106.1089722752804 155.7542235290166,107.44305372488452 156.3501219812315,109.53117472142912 157.0949950462673,111.50328172469744 157.243969659321,112.19931780395564 158.08815913298167,114.40342625009362 158.2371337460354,115.15746132459026 159.13098142389208,117.82557714253198 158.68405758496374,118.17359129607212 158.88269040221348,118.9276212073164 159.13098142389208,119.39163910102798 159.5282470586244,119.62364790117135 159.82619628449902,120.02966306626331 160.76970216701739,122.11773632938275 161.3159424145706,123.50978077208856 161.56423343601637,124.72781677270541 161.96149907121435,125.36583455483196 162.4580811143387,126.6998693466885 161.96149907121435,127.10587929392932 162.16013188823126,127.85989697329933 162.40842290990986,128.3819086078438 163.00432136189193,128.729916089389 163.69953622249886,130.7599553479813 164.29543467448093,132.15197794279084 164.4940674919635,132.78998712264 164.94099133065902,133.48599629377713 164.94099133065902,134.2400052366429 165.23894055676647,135.28401591436705 165.58654798730277,135.57401852909243 166.13278823485598,137.08202966401586 167.2749269346241,139.9820394697599 167.47355975187384,140.73603951768018 167.72185077355243,141.43203864549287 167.87082538637333,142.1280368937296 169.26125510805286,146.53600537066814 168.71501486026682,146.82600205973722 169.01296408637427,147.0 170.30407739896327,146.30400790955173 171.4958743029274,145.55001548543805 173.3828860677313,144.0420275402139 174.1277591327671,143.81002902821638" stroke="#4dd2ff" stroke-linecap="round" stroke-linejoin="round" stroke-width="0.5"><title>2023-07-14 3.2km</title></polyline><polyline fill="none" points="59.91560638998635,200.90442079264903 59.324784939410165,201.0769381209975 58.438552763778716,201.53698406374315 57.207674742210656,202.45707478601253 56.469147929223254,202.85961398942163 55.73062111623585,203.03213070018683 55.238269907655194,203.66469150595367 54.49974309466779,204.12473526841495 53.81045140256174,204.69978942594025 53.21962995221838,204.98731627763482 52.62880850187503,205.67738010408357 51.79181144712493,205.96490644081496 51.25022511766292,205.27484297810588 50.85634415061213,204.52727324236184 50.61016854620539,203.7797024830361 50.314757821150124,202.3995691614109 49.871641733450815,201.59448977926513 49.77317149168812,200.90442079264903 49.428525645518675,200.27185678866226 49.428525645518675,199.69679796713172 48.73923395317979,198.31665432441514 48.591528590768576,197.569075061474 47.853001778014004,195.55635657266248 47.803766656899825,194.6362542208517 47.55759105272591,194.0036829544115 46.81906423973851,193.02607137378072 46.32671303069219,191.70341762539465 45.88359694322571,190.20823996444233 45.24354037200101,188.94308643753175 45.292775492882356,188.19549433892826 45.58818621817045,187.79294432338793 45.342010613763705,186.98784340190468 44.20960283372551,186.41277058806736 44.01266235020012,185.4926528261276 43.52031114161946,184.0549657184747 43.1264301748015,182.73229023558088 42.53560872445814,181.35210370627465 42.3879033618141,180.719517047517 42.437138482462615,180.14443763071904 42.14172775740735,179.4543415309745 42.24019799940288,179.16680123202968 42.092492636758834,178.64922831213335 41.84631703235209,178.24667125742417 41.30473070265725,177.8441139056813 40.61543901078403,175.83132269512862 40.369263406377286,175.371255090693 39.975382439326495,174.10606717935298 39.7784419558011,172.8408763355692 39.43379610986449,172.3232974181883 39.28609074745327,171.69070029701106 38.89220978040248,170.42550385539653 37.907507363241166,167.72257436084328 37.562861517071724,166.34234988258686 36.77509958320297,163.7544195795199 35.74116204492748,161.28149693773594 35.54422156163491,160.64888702059397 35.445751319639385,159.90125617326703 35.15034059458412,159.1536243018927 34.85492986929603,158.63603240653174 34.90416499017738,158.06092972517945 33.820992331253365,155.7605129396543 33.771757210372016,154.43776889814762 32.934760155621916,153.0 31.60541189229116,153.51759723958094 29.685242178384215,153.92017253109952 28.454364156816155,154.55279024638003 27.962012948002666,155.3004284192575 27.125015893485397,155.53047072782647 26.829605168197304,155.99055505444994 23.33391158678569,157.5433367936057 20.08439361001365,158.69354264147114 20.281334093073383,159.78623595210956 20.232098972192034,161.45402678789105 20.576744818361476,162.14414564339677 20.724450181005523,163.06430275994353 21.462976993992925,163.35185154073406 23.530852070311084,162.37418506795075 25.057140817167237,161.85659622622188 26.386489080730826,161.28149693773594 27.125015893485397,161.33900689380243 28.552834398811683,160.8789270753041 29.48830169509165,160.36133681592764 30.866885079303756,160.07378645980498 31.408471408765763,159.78623595210956 32.88552503474057,159.26864465663675 33.47634648508392,159.26864465663675 34.214873298071325,160.53386695688823 34.41181378136389,161.22398697567405 35.34728107810952,163.1793222904671 35.69192692404613,164.55955476639792 35.98733764910139,165.192160151375 36.57815909967758,167.08997190813534 36.92280494561419,167.72257436084328 37.562861517071724,169.73539546941174 37.956742483889684,171.05810244270833 38.64603417599574,173.0134025325533 38.99068002216518,174.3361015630653 39.48303123051301,175.54378048784565 39.8769121975638,176.69394840847235 39.926147318445146,177.32653973181732 40.27079316461459,177.95913032226963 40.07385268108919,178.24667125742417 40.024617560440674,178.70673643861664 40.369263406377286,179.33932542958064 41.05855509848334,180.02942167466972 41.3539658235386,180.719517047517 41.698611669940874,181.98468963202322 42.58484384510666,183.88244301103987 42.880254570394754,185.26262314332416 43.42184090008959,186.47027789667482 43.1264301748015,187.62042279721936 43.42184090008959,188.31050857465016 44.25883795460686,189.23062158736866 44.75118916342035,190.61078819906106 44.898894526064396,191.18585659074597 45.342010613763705,191.8759378612158 45.83436182234436,193.31360437342664 46.03130230586976,194.0036829544115 45.785126701463014,194.57874777232064 46.52365351468325,195.67136925761588 47.11447496479377,197.05151958734496 47.803766656899825,199.12173853995046 48.09917738218792,199.69679796713172 48.197647623950616,200.32936263736337 48.49305834923871,200.96192657476058 48.93617443693802,202.34206353046466 49.52699588728137,204.2972515792353 49.67470124992542,204.92981091950787 50.01934709586203,205.61987481848337 50.11781733762473,206.36744305799948 49.67470124992542,206.82748454314424 50.216287579387426,207.0 51.447165600955486,206.30993784521706 52.678043622523546,205.4473589254776 53.90892164432444,204.23974614823237 55.189034786773846,203.49217499542283 55.82909135799855,203.31965843011858" stroke="#4dd2ff" stroke-linecap="round" stroke-linejoin="round" stroke-width="0.5"><title>2023-07-13 3.1km</title></polyline><polyline fill="none" points="181.4293301210273,199.17843992169946 181.03249067417346,199.58400502998848 180.73486108938232,199.69988072040724 180.5364413659554,199.98956983938115 179.4451328876894,200.22132102469914 176.76646662247367,201.66976372076897 174.03819542657584,203.29201501247007 172.5996524321381,204.3348883164581 171.40913409227505,205.43569688138086 170.76426999131218,205.8412573763053 170.36743054469116,205.78332018112997 169.9705910978373,205.26188514922978 169.22651713551022,203.29201501247007 168.78007275774144,201.72770134918392 166.99429524759762,196.68710483930772 166.29982621595263,193.906066303025 166.10140649275854,193.5004970083828 165.65496211498976,193.03698887687642 165.30772759928368,192.4576031633187 164.6132585676387,191.18295244517503 164.41483884421177,190.31387071649078 164.16681419010274,189.67654324276373 164.1172092591878,188.8653981172829 164.26602405146696,188.28600800951244 164.26602405146696,187.76455639093183 164.01799939759076,186.77959087333875 163.42274022754282,186.77959087333875 163.02590078068897,186.0843200343079 162.08340709470212,183.36116745282197 161.6865676480811,182.60795265622437 161.1409134089481,181.15945976402145 161.0417035475839,180.40624195249984 160.7440739623271,179.76890299853403 160.84328382392414,179.18950330879306 161.1409134089481,178.61010300857015 161.0417035475839,178.32040262955707 160.04960493044928,177.62512109737145 159.75197534565814,176.9298386865412 159.60316055291332,176.29249570413958 158.56145700532943,173.2795916085015 158.01580276619643,172.2946001512464 157.12291401159018,168.87608670257032 156.8252844265662,168.18079323135316 156.3292351178825,166.67432102822931 155.38674143212847,164.41460498666856 155.18832170870155,163.60342260450125 154.84108719276264,162.8501807496068 154.49385267705657,161.40163582167588 153.99780336860567,160.76427484455053 153.8985935067758,160.12691312894458 153.70017378381453,159.37366651260527 153.45214912923984,158.85218748165062 153.3033343369607,157.46157431480242 152.90649489033967,156.186842489813 152.55926037440076,154.91210770996986 151.96400120435283,153.34765644167783 151.2199272417929,153.0 150.42624834855087,153.23177098558517 148.59086590749212,153.5214845802402 147.3011377057992,154.100911311456 146.65627360460348,154.73828001104994 145.2673355413135,155.83918784279376 143.8287925471086,156.5344969170401 141.3485460053198,157.40363202325534 140.50526218116283,157.7512856813264 138.57066987873986,161.22781017393572 138.6698797403369,161.63340326654725 138.9179043942131,162.2707632361562 139.31474384083413,162.79223902581725 140.05881780362688,162.79223902581725 140.85249669710174,162.6763555596117 146.55706374300644,160.99604255793383 148.09481659904122,160.41662309120875 148.83889056160115,159.9530870783492 149.5829645243939,159.77926097268937 151.2199272417929,159.14189811539836 152.01360613526776,159.0260138801532 152.36084065097384,159.4895506746252 153.05530968261883,160.8801587135531 154.44424774614163,164.35666342754848 154.64266746956855,165.2257861723774 155.18832170870155,166.67432102822931 155.7835808787495,168.7602045185049 156.13081539445557,169.39755622908706 156.27963018720038,170.1507891169167 156.6764696338214,170.7881392161944 156.97409921884537,172.17871868715156 157.27172880386934,172.93194776616292 157.4205435961485,173.6851758135017 157.86698797368445,174.4384028292843 158.16461755894125,175.77103271492524 158.75987672898918,177.21953979774844 158.85908659058623,177.91482184268534 158.56145700532943,178.37834271753673 159.10711124469526,179.24744330515387 159.95039506908506,180.00066270359093 160.29762958479114,181.27533933578525 161.1409134089481,183.30322788952617 161.48814792511985,184.75171513622627 162.331431749044,186.77959087333875 161.48814792511985,186.8954692610423 161.48814792511985,187.64867818623316 161.8353824405931,188.28600800951244 162.62906133406796,188.57570313982433 163.1747155734338,190.1400542060146 163.5715550200548,190.71944236085983 164.0676043285057,192.10997144214343 164.41483884421177,192.80523466476006 164.6628634983208,193.5004970083828 164.6628634983208,194.2536968891509 165.2085177374538,195.3545256285579 165.50614732247777,195.70215529913548 165.9029867690988,197.26648609805852 167.2919248326216,201.0324494043598 167.4407396253664,201.78563897154527 167.73836921015754,202.53882750764024 168.1848135876935,203.9293267109315 168.33362838020548,204.68251231173053 168.78007275774144,206.13094326102873 168.5320481036324,206.5944403593312 168.5320481036324,207.0 169.17691220436245,207.0 171.06189957633615,205.78332018112997 172.99649187875912,204.3348883164581 174.03819542657584,203.63963966665324" stroke="#4dd2ff" stroke-linecap="round" stroke-linejoin="round" stroke-width="0.5"><title>2023-07-11 3.2km</title></polyline><polyline fill="none" points="58.576589757576585,261.2948089094134 58.231208274373785,261.6405797599 57.09638340235688,262.1592356257024 56.80034213094041,262.5050059299683 55.96155853010714,263.25417417276185 55.61617704713717,263.3118024565629 54.67871302226558,264.0609695946914 53.839929420733824,264.5796231664135 52.31038285396062,265.8474409384653 51.52093946444802,266.1932089118054 50.87951671052724,265.61692883458454 50.23809395660646,264.2338541732752 49.94205268542282,263.02366097655613 49.596671202918515,262.27449241821887 49.300629931734875,260.71852367318934 48.36316590686329,257.8370883867028 48.21514527127147,256.97265484166564 47.8697637883015,256.2811070223106 47.52438230556436,255.01326708309352 47.32702145818621,254.55223364959238 47.17900082259439,254.03357057250105 46.43889764510095,252.93861357297283 46.29087700974196,252.18943120539188 45.74813467939384,250.8063226005761 45.402753196656704,250.17239665496163 45.057371713453904,248.90454255999066 45.10671192524023,248.27061441080878 45.30407277261838,247.69431545579573 45.008031501900405,247.0027559088776 44.711990230716765,246.65697580738924 44.169247900368646,246.42645561834797 43.03442302811891,243.19916277355514 41.99827857967466,240.7786806463846 42.04761879146099,240.2023737995769 41.70223730849102,239.4531739911763 41.99827857967466,239.16501994553255 41.85025794408284,238.9344965997152 41.89959815586917,238.76160402665846 41.80091773206368,238.76160402665846 41.45553624955937,238.1852950549801 41.06081455433741,237.89714034151984 40.616752648027614,237.2055684099323 39.383247351972386,233.57480142597342 39.33390714041889,232.7679610461346 39.03786586923525,232.30690886633238 38.93918544542976,231.6729614844662 38.59380396269262,230.92374999506865 38.34710290329531,230.17453747970285 38.29776269150898,229.36769208480837 37.85370078496635,228.56084549985826 37.60699972580187,227.17767715727678 37.06425739568658,225.67924083961407 36.37349442997947,223.54684361850377 35.781411887845024,222.22129521047464 35.682731464272365,221.47207077644998 35.337349981302395,220.83811083843466 35.139989133924246,220.26178298465675 34.794607650954276,218.993859568669 34.64658701559529,217.95646549703088 34.25186532083899,217.2648683563457 34.1531848970335,215.1900716876262 33.80780341429636,214.8442714777193 33.46242193132639,213.97976999671664 32.96901981299743,213.2881678281119 32.42627748288214,213.0 28.52840074757114,214.44083762320224 28.03499862900935,214.8442714777193 27.640276934485883,215.47823836212046 27.048194392351434,215.766404885042 26.653472697595134,215.42060503945686 21.423410242656246,222.85525354539277 27.93631820543669,220.5499469874194 28.72576159471646,220.14651734096697 29.416524560423568,219.97361883008853 30.156627738149837,219.62782164401142 33.01836002501659,218.93622661626432 33.61044256668538,219.28202423948096 34.44922616798431,221.24153997487156 35.189329345710576,223.66210854565725 35.485370616661385,224.2384328173357 35.929432523436844,226.08266640588408 36.42283464153297,227.23530924145598 36.76821612473577,228.38794964842964 37.36029866687022,229.5982194620301 37.45897909044288,230.17453747970285 37.80436057341285,230.7508548903279 37.90304099698551,231.3848033407703 38.93918544542976,234.32400928472634 39.43258756399155,236.11057773028733 39.728628834942356,236.74451997003052 40.024670106125996,237.95477129641222 39.728628834942356,238.53108051081654 39.925989682320505,238.76160402665846 40.123350529698655,239.33791239111451 40.320711377076805,239.68369711842388 40.863453707424924,239.8565894002677 41.06081455433741,240.60578865616117 42.09695900324732,243.02627154823858 42.63970133336261,244.92807202221593 42.98508281633258,245.44674373156158 43.57716535846703,246.7722358655301 42.63970133336261,247.2909058262012 43.33046429930255,248.50113382283598 43.971887052990496,248.7316531377146 44.563969595124945,250.05713731318247 44.662650018930435,250.6910633923835 45.94549552653916,253.8606827708427 45.55077383201569,254.60986285004765 45.8468151029665,254.8403795910417 46.53757806844078,255.93533278477844 46.73493891605176,256.6268810412148 48.01778442389332,259.96935195848346 48.856568025192246,262.62026264949236 49.448650567326695,263.94571317883674 49.794032050063834,265.4440446931985 50.040733109461144,266.0779529448482 49.744691838510334,266.5966046046233 49.695351626491174,266.884744203242 50.09007332101464,267.0 50.87951671052724,266.6542325365008 52.65576433669776,265.67455686972244 54.13597069168463,264.6372513106908 54.67871302226558,264.1185977936839 55.36947598773986,263.772828509158 56.30694001284428,262.90840434195707 57.44176488509402,262.21686402498744 57.935167003655806,261.8134651031578" stroke="#4dd2ff" stroke-linecap="round" stroke-linejoin="round" stroke-width="0.5"><title>2023-07-07 3.1km</title></polyline><polyline fill="none" points="177.6682002551388,263.6179916828405 176.49032023828477,264.36318176134955 176.04861523164436,265.05104862048756 174.62534354440868,266.0255251825438 174.37995187425986,266.0255251825438 174.08548186998814,265.7962367365835 173.44746352755465,264.9937264153268 172.90760185336694,263.6179916828405 172.76036685123108,262.8728005842422 171.926035172306,261.3824153256137 171.7788001699373,260.52257581986487 171.43525183177553,259.834703237284 170.69907682132907,257.71375730086584 169.96290181064978,254.96224755299045 169.5211968042422,253.70113426924217 168.09792511700653,250.43369080347475 167.95069011463784,249.6311578284367 167.558063442586,248.37003219104372 167.90161178074777,247.7967922986718 167.70529844472185,246.99425543501275 167.26359343831427,246.5356624100823 166.8218884319067,246.4783382549067 166.52741842763498,245.79044792061904 166.4783400935121,245.10255671659252 166.18387008924037,244.47198901581578 165.7912434169557,243.95606944448082 165.69308674894273,243.15352691692533 165.2023034086451,242.46563237981172 164.90783340414055,241.7204123166157 164.71152006811462,241.03251596784685 164.66244173399173,240.34461874963017 164.36797172972,239.71404553577304 164.4661283979658,239.19812145346077 164.4661283979658,238.62487189960666 164.26981506170705,238.223596852622 163.58271838515066,237.30639563384466 163.337326714769,236.61849370563868 163.14101337874308,235.87326563498937 162.25760336616077,233.8668772954843 161.86497669341043,232.54838950157864 161.52142835548148,232.08978430263232 161.52142835548148,231.5738529918599 161.37419335334562,230.82861801265972 160.9324883467052,229.51012285711477 160.1472350023687,226.58649176801555 159.70552999596111,225.3253127229982 158.82211998291314,223.14690566959325 158.18410164071247,221.77106514235493 157.74239663407207,221.2551240477478 157.5460832978133,219.82195177371614 157.2516132935416,218.38877572497586 156.95714328926988,217.87283142318483 156.5645166169852,216.32499558269046 156.17188994470052,215.75172193191247 155.68110660440288,214.6625003311201 155.63202827028,213.974569775688 155.2394015979953,213.0 153.5707382406108,213.68793178745545 151.9020748832263,214.14655249618227 150.57695986400358,215.35043001687154 150.0861765234731,215.46508487983374 149.74262818531133,215.35043001687154 149.44815818127245,215.75172193191247 149.2027665108908,215.40775745140854 148.95737484074198,215.29310257622274 149.00645317463204,215.17844767699717 148.71198317036033,214.83448283403413 148.81013983860612,215.06379275361542 148.95737484074198,214.8918103230535 149.00645317463204,215.06379275361542 149.39907984691672,215.17844767699717 149.64447151706554,215.52241230232175 149.104609842645,216.0383588327677 146.797928142827,217.12757767923176 145.32557812170126,217.7581770674442 144.6875597788021,217.93015859200386 143.21520975790918,218.50342994765379 142.57719141501002,219.19135477743112 142.72442641714588,219.24868180725025 142.4790347472299,219.24868180725025 142.3317997448612,219.53531686612405 142.3808780789841,219.47798986639827 142.82258308515884,220.22324039111845 143.0188964214176,220.91116304631578 142.7735047515016,222.05769887252245 143.0188964214176,222.86027251329506 143.4115230939351,223.20423228276195 144.1967764387373,223.4908652578597 144.88387311529368,222.91759915655712 145.57096979185008,222.5736392060644 148.02488649380393,221.65641160821542 148.81013983860612,221.48443126148777 149.54631484905258,221.0831435743603 151.11682153865695,220.50987493642606 151.9020748832263,220.39522113645216 155.8774199404288,219.13402774144197 156.6135949511081,220.5672018273617 156.85898662125692,221.36977766663767 157.15345662552863,222.05769887252245 157.64423996629193,222.86027251329506 159.75460832985118,228.36360273347236 159.85276499809697,229.16616707359208 160.29447000427172,229.9114043295849 160.49078334029764,230.5419889028417 160.6380183424335,231.2298985128291 160.83433167892508,231.5738529918599 161.47235002112575,234.3254809966311 162.7483867064584,237.8796465767664 162.55207337043248,238.567546911072 162.6993083723355,239.25544637569692 163.4354833830148,239.71404553577304 163.68087505316362,241.08984069683356 164.85875507025048,243.38282490277197 164.90783340414055,244.01339386537438 165.34953841054812,245.2172053109971 165.93847841909155,246.4210140936193 165.69308674894273,246.9369313280913 165.34953841054812,247.39552401483525 165.74216508306563,248.08341232023668 166.57649676175788,248.7712997563067 167.01820176793262,249.57383399928221 167.36175010632724,250.26171955128666 168.4905517892912,253.18522344733356 168.4905517892912,253.8731044345186 168.34331678715535,254.27436794224195 168.588708457537,254.90492428536527 169.32488346798345,255.9367421795614 170.30645014881156,258.63092412549304 170.35552848293446,259.261475420848 170.74815515521914,260.0066714643617 171.14078182750382,261.4397379111033 171.7788001699373,262.93012301268755 172.17142684245482,264.3058594838367 172.46589684672654,264.9364042042289 172.80944518488832,266.25481353187934 172.41681851260364,266.5987458747695 172.66221018275246,267.0 173.34930685954168,266.5987458747695 176.8829469103366,263.5606693268637" stroke="#4dd2ff" stroke-linecap="round" stroke-linejoin="round" stroke-width="0.5"><title>2023-07-05 3.1km</title></polyline></svg>