<?xml version="1.0" encoding="utf-8" ?>
<svg baseProfile="full" height="300mm" version="1.1" viewBox="0,0,200,300" width="200mm" xmlns="http://www.w3.org/2000/svg" xmlns:ev="http://www.w3.org/2001/xml-events" xmlns:xlink="http://www.w3.org/1999/xlink"><defs /><rect fill="#222222" height="300" width="200" x="0" y="0" /><text fill="#FFFFFF" style="font-size:12px; font-family:Arial; font-weight:bold;" x="10" y="20">Over 5km Runs</text><text fill="#FFFFFF" style="font-size:4px; font-family:Arial" x="10" y="280">ATHLETE</text><text fill="#FFFFFF" style="font-size:9px; font-family:Arial" x="10" y="290">Melt</text><text fill="#FFFFFF" style="font-size:4px; font-family:Arial" x="120" y="280">STATISTICS</text><text fill="#FFFFFF" style="font-size:3px; font-family:Arial" x="120" y="285">Number: 3</text><text fill="#FFFFFF" style="font-size:3px; font-family:Arial" x="120" y="290">Weekly: 1.5</text><text fill="#FFFFFF" style="font-size:3px; font-family:Arial" x="141" y="285">Total: 17.7 km</text><text fill="#FFFFFF" style="font-size:3px; font-family:Arial" x="141" y="290">Avg: 5.9 km</text><text fill="#FFFFFF" style="font-size:3px; font-family:Arial" x="167" y="285">Min: 5.7 km</text><text fill="#FFFFFF" style="font-size:3px; font-family:Arial" x="167" y="290">Max: 6.1 km</text><polyline fill="none" points="67.48882450652309,112.96648709842702 66.43713402166031,111.12392672977876 64.5309450183995,106.13363567338092 64.39948370773345,105.5962176756002 64.46521436283365,105.05879928148352 65.05679026036523,104.52138049103087 65.05679026036523,104.21428386162734 64.39948370773345,103.13944463903317 63.74217715463601,102.90912174235564 61.77025749604218,98.30264852265827 60.78429766651243,95.46197552449303 59.99552980274893,92.08386349288048 58.87810866255313,90.08769902342465 56.90618900349364,84.32950165180955 56.38034376129508,83.33140948100481 55.788767863763496,80.7977847547736 55.26292262133211,79.0319198879879 54.211232136702165,75.9608403633465 53.55392558360472,74.50207305542426 52.567965754074976,71.58452967950143 51.450544614112005,68.74375253764447 51.253352648578584,67.59208297420992 50.727507405681536,66.21007709548576 50.3331234739162,63.52283593977336 49.28143298928626,61.52659323782427 49.149971678853035,59.5303450676729 49.41289429995231,58.83933481160784 49.807278231717646,58.45543994178297 53.55392558360472,56.996637591859326 54.9342693448998,56.22884570847964 56.971919659059495,55.461053016013466 58.089340799022466,54.92359765002038 59.79833783674985,54.38614188769134 60.915758976945654,53.771906245325226 64.33375305240043,52.38987415668089 65.71409681322984,52.00597588921664 68.93489892291836,50.854279873135965 74.2590820020996,49.241902392706834 74.65346593386494,49.011562461499125 74.71919658896513,48.85800246684812 74.2590820020996,48.78122245735722 72.68154627503827,49.241902392706834 70.4467039948795,50.00970163795864 68.93489892291836,50.7007202670211 67.35736319585703,51.08461922197603 63.150601256871596,52.54343340708874 61.310142908710986,52.85055181081407 60.652836355613545,52.54343340708874 60.25845242384821,52.15953522041673 59.53541521541774,50.62394045153633 58.02361014392227,45.86357610311825 56.971919659059495,43.56016283488134 54.9342693448998,37.87837897433201 54.6056160684675,36.7266606289777 53.81684820493683,35.1142518876004 53.68538689427078,34.5 53.948309515370056,34.96068896428915 54.47415475780144,36.26597278134432 54.9342693448998,38.03194128267933 55.7230372086633,39.49078159913188 56.971919659059495,42.254892083932646 57.892148833256215,45.55645475478377 59.20676193898544,48.934782468364574 59.79833783674985,51.39173824043246 59.732607181649655,52.77377222204814 59.272492594551295,53.31122917367611 58.352263420121744,53.771906245325226 51.450544614112005,56.766300111834425 45.86343891406432,58.60899791389238 43.49713532323949,59.22322947916109 42.445444838609546,59.30000838858541 42.18252221727744,59.22322947916109 41.91959959617816,58.76255585387116 41.59094631974585,57.457312333688606 40.604986490216106,54.92359765002038 39.290373384486884,51.00783944723662 38.89598945248872,49.16512242384488 37.44991503586061,44.94221166946227 36.66114717256278,40.872838151990436 36.33249389589764,39.95146740815835 36.06957127479836,39.79790550400503 35.87237930903211,39.79790550400503 35.47799537726678,40.258591118850745 35.47799537726678,41.02639982959954 36.726877827662975,43.94406555168098 37.77856831229292,47.01528000686085 40.604986490216106,56.766300111834425 41.39375435374677,60.374912268598564 41.26229304331355,60.68202737165848 40.07914124778472,61.833707855665125 40.73644780111499,61.449814563267864 40.73644780111499,60.68202737165848 40.47352517955005,59.68390281323809 39.75048797135241,57.6108705161605 39.027450763154775,54.92359765002038 37.58137634652667,48.39732228871435 36.463955206563696,45.17255288729211 35.47799537726678,41.33352308726171 35.2808034112677,39.95146740815835 35.47799537726678,39.49078159913188 35.87237930903211,39.41400060255546 36.33249389589764,39.644343567604665 36.52968586189672,39.87468646012712 37.186992414761335,42.254892083932646 37.77856831229292,43.176259915402625 37.97576027852483,44.020846070954576 38.50160552095622,45.24933327693725 38.830258797388524,46.708159143978264 39.61902666091919,48.78122245735722 39.88194928178564,50.7007202670211 40.73644780111499,53.61834725382505 40.99937042198144,55.15393571270397 41.788138285512105,58.22510292287916 42.051060906844214,58.685776887869 42.37971418327652,58.91611376137007 43.7600579445716,58.685776887869 45.79770825873129,58.07154486957006 49.41289429995231,57.22697499929927 50.85896871634759,56.61274175130529 53.22527230717242,55.92172872857191 54.868538689333946,55.23071505065309 58.28653276502155,54.00224467163207 60.32418307941407,52.927331391430926 61.77025749604218,52.696992625133134 64.72813698416576,51.39173824043246 67.291632540524,50.39360095700249 71.6298557901755,49.16512242384488 73.73323675990105,48.39732228871435 74.06189003633335,48.32054223056184 74.32481265743263,48.474102338717785 74.2590820020996,48.85800246684812 73.86469807033427,49.16512242384488 70.64389596064575,50.54716062825173 66.56859533232637,51.929196211276576 61.9017188064754,53.84868572890991 57.76068752282299,55.23071505065309 51.97638985677622,57.53409142885357 49.807278231717646,58.14832390029915 49.47862495528534,58.5322189318249 49.28143298928626,59.14645056176232 49.28143298928626,59.99101820780197 49.610086265718564,61.14269978372613 50.267392818816006,62.601493833819404 50.92469937168062,63.82994971628068 51.12189133744687,64.67451193416491 50.990430027013645,65.51907317334553 50.13593150814995,66.21007709548576 50.00447019771673,66.59396788023878 50.070200853049755,66.9778584628948 51.910659201210365,72.58263793837978 53.81684820493683,77.64993570337538 55.7230372086633,83.33140948100481 56.314613106194884,84.79015911591705 58.02361014392227,90.01092335773865 58.4179940756876,91.54643513512565 58.22080210945569,92.54451605555369 58.352263420121744,93.15871901949868 58.615186041686684,93.69614618836204 59.33822324988432,94.38712339458289 61.50733487471007,100.83621239644708 62.42756404867396,102.98589604941662 62.493294704006985,103.52331597200828 61.9674494615756,103.98396130435867 62.16464142734185,104.67492875724565 62.42756404867396,105.21234743436798 63.0848706017714,105.67299169948092 63.54498518863693,106.36395755107515 64.5309450183995,108.89749340288108 65.18825157103129,110.89360635611229 65.84555812436156,112.58262073906371 65.84555812436156,113.65744603588246 67.02870991942473,115.5" stroke="#4dd2ff" stroke-linecap="round" stroke-linejoin="round" stroke-width="0.5"><title>2023-07-29 5.9km</title></polyline><polyline fill="none" points="163.43927820050158,113.97025845880853 162.818891270319,112.27948793047108 162.818891270319,111.47435779281659 163.16355067607947,110.42768734617857 163.0946187954396,110.02512140810722 162.54316374612972,108.97844897699542 161.64704929152504,108.49536890978925 161.23345800465904,108.01228853740031 161.02666236134246,107.5292078598286 160.75093483692035,106.56304558832198 160.54413919337094,104.63071738160215 160.13054790673777,102.698384289979 158.9587059279438,100.04141831211746 157.8557958297897,96.33775335625978 157.09754513716325,95.37157693778863 156.6839538505301,94.56642898963764 155.78783939569257,91.98994985542959 154.20240613026544,88.04469934862573 153.85774672403932,86.11232432333054 152.68590474524535,81.52291405649157 152.41017722082324,79.3489732586313 151.72085840953514,77.65812614059541 149.9975613814313,74.43745461461367 149.17037880816497,72.0219420628855 148.96358316461556,70.65314822818618 148.3431962346658,68.88176433194894 148.06746871001087,67.75451789674116 147.1713542554062,65.58053793339059 147.03349049319513,64.85587657132419 147.2402861365117,63.24551552894991 147.03349049319513,61.71566939528566 147.10242237430066,61.47411446273327 147.30921801761724,61.31307779834606 149.3082425701432,60.91048598953057 156.6150219696574,58.09233738883631 159.64802473876625,57.2871501656482 162.40529998391867,56.079367740196176 165.8518940396607,54.22743097995408 167.29946354357526,53.82483543845592 169.02276057191193,53.58327801164705 170.19460255093873,53.01964371878421 171.78003581659868,52.69756679306738 172.60721839009784,52.37548973207595 172.88294591475278,52.05341253505321 172.81401403364725,51.972893214726355 172.46935462811962,51.892373885726556 170.1256706698332,52.37548973207595 163.43927820050158,54.79106438206509 160.54413919337094,55.51573528815061 159.16550157102756,56.15988662786549 157.8557958297897,56.481962093908805 155.78783939569257,57.448187678237446 154.34026989224367,57.77026260155253 152.06551781506278,58.655967940343544 150.4111526682973,59.139079510758165 148.48105999687687,60.105301735631656 145.7927166330628,60.74944920651615 140.7606893107295,62.27929727442097 139.72671109368093,62.520851952489465 139.17525604506955,62.440333734906744 138.8995285204146,62.27929727442097 137.58982277894393,57.85078131098999 136.6247764432337,55.837811025907286 135.59079822688363,52.778086037316825 135.10827505867928,50.5235439959215 134.21216060384177,47.46379772952059 133.45390991168097,44.40403921174584 132.4199316946324,41.18322753632674 132.55779545707628,39.81437846343033 132.69565921928734,40.94166611327091 132.8335229814984,43.59883756551426 134.35002436628565,51.40925773413619 134.9014794153627,53.341720508236904 136.21118515683338,57.3676689263084 136.6247764432337,59.30011663312325 136.96943584899418,61.554632782004774 137.17623149231076,64.29225059243618 136.69370832457207,66.06364512641449 135.6597301075235,66.78830534324516 130.35197526100092,68.47917651041644 128.49081447091885,68.96228187100496 127.52576813474298,69.123316923331 127.11217684834264,68.88176433194894 126.62965368037112,68.47917651041644 125.11315229581669,65.90260942938039 122.90733209974132,60.34685710084159 121.45976259605959,57.60922515677521 119.66753368685022,52.69756679306738 118.90928299445659,51.32873834564816 118.63355547003448,50.20146601862507 118.15103230206296,48.83263310010079 117.59957725298591,46.65859930746956 117.11705408524722,45.20924000948435 117.2549178476911,44.5650794391986 117.53064537188038,44.24299895041622 118.28889606450684,43.75987796264235 120.5636481414549,43.43779713456752 121.32189883384854,43.115716170636006 122.28694516979158,42.39103350543883 122.83840021840297,42.22999281989178 124.07917407876812,42.22999281989178 126.76751744234934,42.63259447016753 130.14517961768433,41.988431727688294 131.45488535938784,41.26374799374025 134.21216060384177,39.00917198113166 135.72866198886186,38.12344387045596 140.8985530731734,36.27146359428298 145.65485287085176,35.30521123379003 147.929604947567,34.58052116149338 148.6189237588551,34.5 149.17037880816497,34.90260572289117 150.2732889058534,36.67406838416355 152.4791091021616,39.73385785345454 152.61697286437266,40.78062512236647 153.7198829620611,43.75987796264235 154.2713380109053,46.25599977810634 155.30531622795388,49.39627048105467 155.99463503947482,51.0066607077606 156.89074949384667,52.69756679306738 157.71793206734583,54.79106438206509 157.9936595915351,55.19365941482829 158.33831899776123,55.43521633266937 158.9587059279438,55.51573528815061 160.26841166894883,55.354697368398774 163.30141443852335,54.54950726067182 165.0936433474999,53.82483543845592 167.29946354357526,53.422239684616216 168.8159649281297,53.01964371878421 170.8149894811213,52.133931846998166 172.3314908654429,51.811854548344854 172.88294591475278,51.972893214726355 172.74508215254173,52.29497044545133 172.05576334125362,52.617047540610656 168.8159649281297,53.50275885220617 165.36937087215483,54.630026309750974 163.78393760626204,54.87158340541646 161.02666236134246,56.15988662786549 157.1664770185016,57.448187678237446 153.58201920008287,58.4144120409037 150.7558120735921,59.78322779643349 148.6189237588551,60.42737553908955 146.6198992060963,60.91048598953057 144.41407901071943,62.03774252004223 144.06941960472614,62.440333734906744 143.93155584251508,62.84292473789537 144.00048772385344,63.40655178576708 144.20728336717002,63.88966035284102 145.3101934650913,65.01691248890711 145.8616485139355,66.06364512641449 146.13737603859045,68.15710610017413 147.03349049319513,70.08952652470907 148.3431962346658,73.95435271499446 149.03251504572108,75.72572485357523 149.85969761922024,78.14122569892788 150.48008454940282,80.71775151917245 151.44513088511303,83.05272054095985 152.75483662635088,87.07851244654739 154.4092017733492,92.47304035461275 155.0985205846373,94.32488443964394 155.71890751481988,96.90135570295388 155.58104375260882,97.54547216155333 155.71890751481988,98.18958807754098 156.06356692058034,99.23627528297948 156.75288573186845,99.55833259655628 156.9596813749522,99.79987549240468 157.1664770185016,100.60501792788273 159.85482038231567,107.60972132720053 160.06161602563225,108.65639563283185 159.64802473876625,109.70306850509951 159.99268414452672,110.91076619195519 160.19947978807613,111.23281858628616 161.23345800465904,112.19897495472105 161.57811741018668,112.84307852212805 162.54316374612972,115.5" stroke="#4dd2ff" stroke-linecap="round" stroke-linejoin="round" stroke-width="0.5"><title>2023-07-26 6.1km</title></polyline><polyline fill="none" points="71.42732522636652,260.70332663174486 70.60595896514133,258.57907427020837 69.96059975982644,256.4548149725306 69.4325785918627,254.19349906622665 68.72855036798865,251.72660002234625 68.6112123306375,250.83577306888765 67.26182490121573,248.3688612926635 65.97110649058595,244.39437264367007 65.85376845346764,243.84616540727438 65.91243747179396,243.16090571210952 66.02977550937794,242.74974954861682 65.97110649058595,242.2700670293416 65.56042335974053,241.51627949846443 64.56305004260503,240.96806983678835 64.44571200525388,240.69396483257879 63.741683781147,237.95290843897965 62.21628929581493,234.3209909275174 62.098951258696616,232.81339657114586 62.21628929581493,232.19665241835173 62.157620277488604,231.85401652520522 61.74693714664318,231.100216925086 60.866901866625994,230.2778890922782 60.4562187360134,229.45556022034725 59.34150738129392,226.3718176909606 58.050788970664144,222.12308181606932 56.52539448533207,218.35401869867928 55.05866901879199,213.55699769110652 54.530647850828245,212.46053077920806 54.35464079468511,211.63817938254215 53.885288645280525,210.2675914108986 53.41593649610877,208.34876339876791 53.12259140284732,206.841108846711 52.88791532814503,205.95022042345954 52.653239253442734,204.51109039288713 52.12521808547899,202.93489670567214 52.007880047895014,201.90694224345498 52.12521808547899,201.42722960509127 52.35989415994845,201.22163836605614 54.823992944089696,200.2622117244755 56.056042335927486,199.4398449053988 57.405429765349254,198.9601304474636 59.04816228779964,198.00070047011832 62.92031751992181,196.97273820935516 64.68038807972334,196.15036723128287 67.55516999447718,195.46505728864577 68.08319116244093,195.1909331092029 68.7872193865478,194.71121551765827 70.31261387187988,194.30002872867044 72.01401541312225,193.4776543712942 74.24343812232837,192.86087292077718 74.71279027173296,192.51821630675113 74.59545223438181,192.38115361036034 74.12610008521006,192.4496849621646 72.95271971169859,192.79234161239583 65.6777613973245,195.60211933474056 63.85902181873098,196.15036723128287 57.992119951872155,198.34335419576382 56.46672546654008,198.6860077411984 53.06392238405533,200.2622117244755 51.4798588801641,200.604864258843 50.071802432183176,201.15310793858953 47.901048741536215,201.701351156109 45.78896406944841,202.18106359237572 45.20227388292551,202.18106359237572 44.96759780822322,201.97547259140993 44.3222386026755,198.9601304474636 43.85288645350374,197.65804656367982 42.03414687491022,190.59933593153255 41.564794725738466,189.43429865612416 40.9781045387499,186.41889837000053 40.45008337078616,185.45944989274722 40.274076314875856,185.39091780455783 39.8047241657041,185.45944989274722 39.51137907220982,185.59651404758915 39.51137907220982,185.80211022560252 39.8047241657041,187.378345432051 41.03677355754189,191.35318246856332 41.44745668815449,193.06646680255653 42.44483000575565,196.56155285041314 43.38353430433199,200.33074224588927 44.02889350941405,204.37403022387298 43.794217434944585,204.78521064430242 43.55954136024229,204.85374068893725 41.33011865080334,205.74463061406277 36.871273232391104,206.97816849593073 35.52188580296934,207.66346630844055 35.287209728267044,208.07464464922668 35.34587874705903,208.14317434746772 35.873899915022776,207.80052578414325 40.274076314875856,206.2928699615877 43.38353430433199,205.05933077994268 43.794217434944585,204.78521064430242 44.02889350941405,204.23697002592962 44.02889350941405,203.27754783211276 43.32486528554,200.53633376647485 43.20752724818885,199.37131429015426 41.271449632011354,192.1755595121649 41.09544257610105,190.94199355662568 39.92206220282242,186.0762383620604 39.628717109328136,184.7055965246982 39.628717109328136,184.5 40.09806925896555,184.56853218202014 40.39141435245983,184.84266083838884 40.86076650163159,186.00770633871434 41.74080178141594,189.91402013995685 42.210153931053355,192.2440908853896 42.562168042873964,193.40912312775617 42.67950608022511,194.43709102051798 43.03152019227855,195.60211933474056 44.90892878966406,201.90694224345498 45.14360486436635,202.24959391145967 45.378280938835815,202.38665452803252 45.90630210703239,202.38665452803252 47.549034629482776,201.90694224345498 50.36514752544463,200.7419252221007 53.65061257081106,199.78249787306413 56.46672546654008,198.61747704667505 58.10945798945613,198.1377619819832 59.75219051190652,197.5209849505918 61.33625401603058,196.76714556256775 63.096324576064944,196.42449100624071 66.79247275204398,194.98533989902353 69.13923349860124,194.09443523688242 73.7154169541318,192.86087292077718 74.12610008521006,192.86087292077718 74.24343812232837,192.9294042220572 74.24343812232837,193.06646680255653 74.06743106641807,193.34059187723324 73.42207186110318,193.61471683642594 69.72592368512414,194.71121551765827 67.20315588242374,195.67065034719417 61.74693714664318,197.45245413313387 55.76269724289887,199.64543670759303 54.178633738774806,200.39927275991067 50.423816544236615,201.56429039489012 49.60245028301142,201.97547259140993 49.3677742080763,202.24959391145967 49.426443226635456,202.52371511567617 49.60245028301142,202.93489670567214 50.36514752544463,203.8257892591064 50.59982360014692,204.37403022387298 51.24518280546181,206.90963867487153 51.949211029103026,208.34876339876791 53.35726747731678,213.0772936444846 55.0,217.87431818968616 56.114711354719475,221.5748558107298 57.28809172823094,224.59009312209673 58.930824250681326,229.3870327672921 59.282838362734765,230.9631623584428 59.282838362734765,231.92254371818854 59.75219051190652,233.08750489581143 60.33888069889508,233.5671941860346 61.0429089225363,235.00625993468566 63.15499359485693,240.83101734914817 63.331000650534406,241.51627949846443 62.92031751992181,242.06448869832093 62.86164850136265,242.2700670293416 62.9789865387138,242.6812234959798 63.27233163197525,243.2979577088845 64.03502887440845,243.91469133709325 64.26970494934358,244.32584676449187 66.02977550937794,248.98559011361795 66.2644515838474,249.8764196006814 66.44045863999054,251.04134862788487 67.49650097615086,252.96005071356194 69.37390957330354,258.92169608792756 71.3099871892482,264.4036206336459 71.36865620804019,264.8147631124011 71.07531111431308,265.29442900960566 71.13398013310507,265.5 71.54466326418333,265.5 72.07268443191424,265.29442900960566 73.01138873072341,264.6777156483149" stroke="#4dd2ff" stroke-linecap="round" stroke-linejoin="round" stroke-width="0.5"><title>2023-07-23 5.7km</title></polyline></svg>