<?xml version="1.0" encoding="utf-8" ?>
<svg baseProfile="full" height="300mm" version="1.1" viewBox="0,0,200,300" width="200mm" xmlns="http://www.w3.org/2000/svg" xmlns:ev="http://www.w3.org/2001/xml-events" xmlns:xlink="http://www.w3.org/1999/xlink"><defs /><rect fill="#222222" height="300" width="200" x="0" y="0" /><text fill="#FFFFFF" style="font-size:12px; font-family:Arial; font-weight:bold;" x="10" y="20">Over 5km Runs</text><text fill="#FFFFFF" style="font-size:4px; font-family:Arial" x="10" y="280">ATHLETE</text><text fill="#FFFFFF" style="font-size:9px; font-family:Arial" x="10" y="290">Melt</text><text fill="#FFFFFF" style="font-size:4px; font-family:Arial" x="120" y="280">STATISTICS</text><text fill="#FFFFFF" style="font-size:3px; font-family:Arial" x="120" y="285">Number: 5</text><text fill="#FFFFFF" style="font-size:3px; font-family:Arial" x="120" y="290">Weekly: 1.7</text><text fill="#FFFFFF" style="font-size:3px; font-family:Arial" x="141" y="285">Total: 30.9 km</text><text fill="#FFFFFF" style="font-size:3px; font-family:Arial" x="141" y="290">Avg: 6.2 km</text><text fill="#FFFFFF" style="font-size:3px; font-family:Arial" x="167" y="285">Min: 5.7 km</text><text fill="#FFFFFF" style="font-size:3px; font-family:Arial" x="167" y="290">Max: 7.3 km</text><polyline fill="none" points="53.0899310677778,105.81492137373425 52.19200238119811,104.45767632790376 51.02997702267021,101.06454995292006 50.871519019128755,100.07745495281415 51.135615691542625,99.33713261090452 51.02997702267021,98.65850297542056 50.7130610155873,98.1649536556215 50.18486767075956,97.91817883984186 49.973590332549065,97.67140392016154 48.17773295962252,93.72299106244463 47.64953961502761,91.81046901474474 47.27980427327566,89.15760551241692 47.068526935297996,88.78743755660253 46.59315292513929,88.29387991834665 46.3818755869288,87.86201664374676 45.48394690058194,85.27083030802896 44.744476217543706,82.86471844487824 44.32192154158838,82.18606972205453 44.11064420384355,81.32233384618303 43.26553485170007,79.34807563194772 41.628135482314974,74.47409716807306 41.15276147192344,73.48695734946523 40.730206795968115,72.00624450168107 40.25483278557658,70.89570740860654 39.568181436974555,67.74917420843849 39.568181436974555,66.76202305371407 39.09280742658302,63.86225691298023 38.56461408152245,62.31982226436958 38.61743341619149,61.94963734410703 38.77589141973294,61.76454479631502 43.79372819676064,59.975313817325514 45.061392224626616,59.66682516498258 48.811564973788336,58.18607737129787 50.554603012045845,57.69249394140206 53.82940175081603,56.33513736369787 58.371864517685026,54.79268288810272 58.79441919340752,54.54588979494292 59.48107054177672,53.68211314972723 59.58670921088196,53.18852592346957 59.32261253823526,51.89285747433314 58.74159985873848,50.04189757374115 57.94930984126404,48.49942652054597 57.73803250351921,47.08034956280608 56.78728448250331,44.55068210850004 56.41754914121702,43.06989608856384 55.25552378199063,41.033809196262155 54.67451110272668,39.30621476582019 54.304775761207566,38.62751555914292 53.98785975435749,37.27011478570057 53.88222108525224,37.146714559348766 53.82940175081603,37.208414675842505 53.82940175081603,37.763715430977754 54.19913709233515,38.68921551964013 55.25552378199063,41.58910632360494 55.88935579615645,43.19329506641952 56.78728448250331,45.105975900543854 58.53032252076082,49.42490964010358 59.42825120734051,52.69493828067789 59.42825120734051,53.00343060615705 59.269793204031885,53.49701798852766 59.05851586582139,53.68211314972723 58.4246838518884,54.05230329663027 56.57600714475848,54.66928635450313 52.13918304699473,56.39683545823209 47.80799761833623,57.69249394140206 46.17059824895114,58.494566803914495 43.899366865633056,59.17324298317544 42.26196749624796,59.913616099744104 41.0999421372544,60.22210462222574 39.77945877495222,60.83908117946703 38.51179474708624,61.20926680165576 37.4554080569651,61.641149731876794 36.34620203287341,62.07303234364372 34.391886656638235,62.56661208119476 33.229861297877505,62.998494010360446 33.01858395966701,62.998494010360446 32.75448728725314,62.69000695057912 31.38118459028192,59.2966385675245 30.588894572807476,56.21174115524627 29.268411210505292,51.83115890517365 28.42330185859464,48.376028660684824 27.789469844661653,46.46335850842297 27.6310118411202,45.5378707080381 27.472553837811574,45.47617146925768 27.472553837811574,45.66126916592475 27.84228917886503,47.2654467523098 29.00431453809142,50.535487452638336 29.215591875836253,51.27587149088504 29.374049879377708,52.63323979615234 31.486823259154335,60.03701152832946 32.067835938651115,63.43037562107202 32.331932611297816,64.54092687129742 32.27911327686161,64.66432132467162 31.486823259154335,64.72601854149252 31.750919931568205,64.66432132467162 31.803739266237244,64.3558351424872 31.38118459028192,63.12188878870802 30.271978565724567,59.04984737263294 30.113520562183112,57.81588983780239 29.796604555333033,56.70532583340537 29.5853272175882,55.594759722589515 28.845856534317136,53.62041476927698 28.47612119303085,52.13965168554569 27.84228917886503,50.288692565402016 27.419734503142536,48.49942652054597 27.26127649960108,47.327145802555606 27.208457165397704,46.15486273763236 27.31409583427012,46.09316356386989 27.472553837811574,46.216561904759146 28.264843855053186,47.2654467523098 28.74021786567755,48.31432972109178 29.796604555333033,51.27587149088504 31.117087917868048,56.21174115524627 32.17347460798919,60.77738355298061 32.75448728725314,62.81340179388644 33.12422262877226,62.998494010360446 35.18417667387985,62.62830951914657 37.877962733386084,61.5794521899079 38.88153008860536,61.024174019810744 40.20201345090754,60.53059298201697 41.83941282029264,60.28380230709445 44.26910220715217,59.358336350065656 45.378308231709525,58.74135823268443 46.69879159377888,58.37117105041398 48.38901029783301,57.569098018924706 51.55817036749795,56.643627771234605 52.561737722950056,56.21174115524627 56.78728448250331,54.79268288810272 58.635961189866066,53.8672082524281 58.90005786227994,53.49701798852766 58.90005786227994,53.00343060615705 57.57957449997775,48.43772759393323 56.99856182048097,47.388844846282154 56.681645813630894,46.52505764324451 54.357595095643774,41.15720860345755 53.93504041968845,39.121115060173906 53.93504041968845,37.33181488898117 54.040679088793695,37.023314306978136 54.304775761207566,36.77651372435503 55.36116245086305,36.1595118122641 60.00926388660446,34.493603402224835 61.64666325622238,34.06170044792816 62.438953273463994,34.0 63.38970129424706,34.43190299964044 64.12917197751813,34.9872063883231 66.1363066881895,37.88711552741006 67.82652539224364,40.72531056468142 68.35471873683855,42.329501674103085 69.30546675785445,44.3038846985437 70.09775677556172,45.66126916592475 71.101324130781,47.9441359466291 71.78797547891736,48.93131882493617 72.68590416572988,50.658884857431985 72.7915428346023,51.09077556914417 72.68590416572988,51.27587149088504 72.31616882421076,51.46096735424362 71.25978213432245,51.64606315898709 68.93573141656816,52.20135022216709 67.24551271251403,52.44814430351835 64.02353330841288,53.43531958857784 62.174856601050124,53.74381152377464 61.32974724913947,54.05230329663027 59.533889876212925,54.42249320936389 58.84723852784373,54.79268288810272 57.15701982402243,55.28626876231283 52.72019572625868,56.95211801631376 50.39614500827156,57.569098018924706 48.97002297732979,58.18607737129787 44.32192154158838,59.975313817325514 42.52606416889466,60.40719765756512 41.892232154728845,60.71568591991672 41.047122803051025,61.33266195707256 38.77589141973294,61.887939834734425 36.92721471237019,62.62830951914657 36.61029870528728,63.06019140285207 36.61029870528728,63.306980907625984 36.82157604349777,63.7388622907456 37.66668539517559,64.54092687129742 37.93078206758946,65.0345045288559 38.142059405799955,66.63862904254347 38.406156077980995,67.56408349372214 39.039988092146814,68.61293010372901 39.19844609568827,69.35329128586454 39.568181436974555,70.34043807239505 40.41329078911804,73.11677948839497 41.68095481698401,76.51006778888404 42.57888350309804,79.53316262224689 43.10707684815861,80.7053788691992 44.11064420384355,84.28370868833736 44.533198879566044,85.27083030802896 45.114211559295654,87.18337371147936 45.695224238559604,88.47896408138331 45.74804357276298,89.15760551241692 45.58958556945436,89.71285700716544 45.695224238559604,90.45319151488366 45.906501576537266,90.82335841777967 46.75161092821509,91.50199713197071 47.068526935297996,92.18063505977625 48.547468301374465,96.807690882124 49.128480980638415,98.2883410245413 49.18130031507462,98.72019661107333 49.128480980638415,98.90527747938177 48.91720364266075,99.09035828901688 49.07566164620221,99.83068094274495 49.28693898417987,100.20084191882052 49.92077099811286,100.57100266084308 50.290506339399144,101.18793671095045 50.92433835356496,103.10042813688051 51.66380903637037,106.0" stroke="#4dd2ff" stroke-linecap="round" stroke-linejoin="round" stroke-width="0.5"><title>2023-08-02 7.3km</title></polyline><polyline fill="none" points="165.55994368391111,106.0 165.3419409703929,105.42708956327988 164.57893147249706,104.09029643208487 163.97942401026376,102.62618627649499 163.32541586947627,100.33452847698936 163.32541586947627,99.88892734015826 163.59791926154867,99.2523537176894 163.5434185829945,98.61577942455187 163.1619138342794,98.0428619874292 162.6714077286888,97.85188938776264 162.34440365806222,97.53360158746364 161.8538975524716,96.38776411832077 160.98188669839874,93.8414508526912 160.2188772005029,92.12268333305838 159.83737245178781,89.95830246561673 159.83737245178781,89.38537682069 159.67387041659094,88.74879213393433 159.07436295389198,87.98488962434931 158.74735888373107,87.34830346202943 157.92984870751388,85.24756436864845 157.1123385312967,82.70120416150894 156.6218324257061,81.7463163175853 156.29482835554518,79.96385497169103 154.2238025763072,74.29813934717095 152.9702869730536,70.54218622465851 152.4252801889088,69.3326370290597 151.6622706912458,66.84987056819955 151.6622706912458,66.02227948082145 151.55326933437027,65.25834824016783 151.44426797772758,63.41217708832119 151.22626526420936,62.39359748625429 150.84476051549427,61.31135477789212 151.00826255022548,60.99304773006588 151.4987686558161,60.73840197105892 152.9702869730536,60.22911013086559 154.71430868189782,59.33784837793792 157.05783785297535,58.382923612429295 165.39644164871424,55.19983016012702 170.51950541860424,53.417290502169635 171.28251491626725,53.09897929575527 171.71852034330368,52.78066792123718 171.88202237873338,52.39869405090576 172.04552441369742,51.380095882108435 171.8275217001792,50.043183179805055 170.24700202676468,45.58678613998927 168.93898574495688,42.14897167868912 168.61198167456314,40.93936564179603 167.3584660710767,38.39281870110426 166.59545657364652,35.90992509899661 166.26845250325277,34.44564972980879 165.99594911118038,34.19099278165959 165.6689450405538,34.0 165.0694375783205,34.0 164.25192740210332,34.38198550284142 162.18090162309818,35.145955784013495 160.54588127089664,35.52794056216953 159.3468663461972,35.97358916507801 157.38484192383476,36.419237439054996 155.91332360659726,37.119541205465794 153.13378900825046,38.13816341658821 151.11726390733384,38.71113765548216 149.2097401630599,39.41143876546994 145.06768860458396,40.68471143092029 141.79764790041372,41.8306545355008 140.70763433235697,42.08530826336937 139.0181133018341,42.33996188407764 134.49455699441023,43.931544582068454 131.82402375270613,45.14114462817088 129.20799118932337,45.84143828472588 128.33598033501767,46.22341630089795 128.1724782998208,46.60539407556644 127.95447558606975,47.6876631253981 128.390481013339,49.15190640144283 129.53499525994994,51.634745585441124 130.5705081494525,54.435885236540344 131.27901696856134,56.664055231027305 131.82402375270613,58.06461502169259 133.40454342635348,62.9028875019867 134.27655428089201,65.32200921390904 135.09406445687637,66.59522727743024 135.63907124102116,66.84987056819955 136.4565814170055,66.72254893626086 138.1461024475284,66.02227948082145 142.28815400623716,64.62173813540721 142.88766146847047,64.3034328314825 143.5961702875793,63.730482861807104 143.65067096613348,63.539499417704064 143.54166960949078,62.83922627341235 142.6151580766309,59.78347941878019 141.47064383001998,54.81785781914368 141.19814043818042,54.11757456656778 139.56312008574605,47.87865158013301 139.0181133018341,45.3957969606854 139.0181133018341,44.950155308120884 139.12711465870962,44.75916592782596 139.56312008574605,45.0138184215175 139.94462483469397,45.58678613998927 140.59863297548145,47.305686035135295 141.25264111650176,48.578942063846625 142.12465197080746,52.5260187012027 142.45165604143403,53.353628274286166 143.2146655388642,56.40940764732659 143.54166960949078,57.364335532067344 143.92317435797304,58.82855535752606 144.3591797852423,60.35643313114997 144.522681820672,61.120370569231454 144.68618385586888,61.43867755011888 144.84968589083292,61.502338926075026 146.48470624303445,61.31135477789212 148.55573202227242,60.42009462125134 152.0982761187479,59.33784837793792 153.51529375696555,58.955878652690444 154.16930189775303,58.7012320352369 156.02232496347278,58.00095328345196 157.92984870751388,57.55532092798967 159.61936973803677,56.72771711007226 164.9604362216778,54.69053365162108 169.6474945640657,53.16264155035606 170.6830074538011,52.84433020965662 171.01001152419485,52.90799249120755 171.01001152419485,53.09897929575527 170.7920088104438,53.289966039708816 168.82998438808136,54.30856098845834 167.7399708200246,54.62687155790627 165.61444436223246,55.58180225972319 162.18090162309818,56.664055231027305 157.5483439587988,58.5739086860558 154.00579986255616,59.78347941878019 152.58878222410567,60.165448620799 149.9727496607229,61.120370569231454 148.88273609266616,61.5660002953955 148.61023270059377,61.75698436325183 148.55573202227242,61.94796837051399 148.61023270059377,62.329936204245314 149.2097401630599,63.475838256417774 149.59124491200782,65.00370427890448 150.29975373111665,66.78620975563535 151.00826255022548,67.7411212407169 151.17176458565518,68.12308541225502 152.91578629473224,73.08859766990645 153.9512991842348,76.58989588543773 155.36831682291813,80.34581141686067 156.4038297124207,83.59243145468645 157.5483439587988,86.8390340495389 157.87534802919254,88.23952390137129 157.92984870751388,89.38537682069 158.03885006415658,89.89464408735512 158.31135345669463,90.46756924956571 158.85636024037376,91.04049386829138 160.16437652218156,94.28705644863658 160.654882628005,95.94216007128125 161.47239280398935,98.29749202658422 161.47239280398935,98.55212195840431 161.14538873336278,98.99772408098215 161.09088805504143,99.18869631848065 161.47239280398935,99.95258466550149 162.50790569349192,101.09841537574539 163.5434185829945,103.26275634509511" stroke="#4dd2ff" stroke-linecap="round" stroke-linejoin="round" stroke-width="0.5"><title>2023-07-31 6.0km</title></polyline><polyline fill="none" points="61.10117733897641,183.74798853194807 60.166341352509335,182.1101570931496 58.47195112728514,177.67434282082831 58.35509662888944,177.19663793389918 58.413523877970874,176.7189326946973 58.93936912016943,176.24122710316442 58.93936912016943,175.9682523214724 58.35509662888944,175.0128396791406 57.77082413737662,174.8081082154531 56.01800666307099,170.71346535347402 55.141597925685346,168.18842268845765 54.44047093577683,165.1856564381742 53.44720769976266,163.4112880208413 51.6943902252242,158.29289035714464 51.22697223210707,157.4056973164552 50.701126989908516,155.1535864486941 50.23370899655856,153.58392878936138 49.298873010324314,150.85408032301348 48.71460051857866,149.5573982715141 47.83819178142585,146.96402638184372 46.84492854587734,144.4388911445858 46.66964679863304,143.4151848659967 46.202228805050254,142.18673519598087 45.851665310095996,139.79807639092905 44.91682932386175,138.02363843360217 44.79997482569888,136.24919561576098 45.033683822257444,135.6349642770365 45.38424731697887,135.29372439271538 48.71460051857866,133.99701119278325 49.94157275091857,133.31452951865504 51.75281747453846,132.63204712537117 52.74608071008697,132.15430902224034 54.2651891882997,131.67657056683674 55.25845242384821,131.13058332924265 58.29666937980801,129.90211036155233 59.52364161168225,129.56086745712673 62.38657682016492,128.53713766502915 67.11918400181457,127.10391323798103 67.46974749676883,126.89916663244367 67.52817474561743,126.76266885944642 67.11918400181457,126.69441996212117 65.71693002223037,127.10391323798103 63.73040355090052,127.78640145598911 62.38657682016492,128.40064023737796 60.98432284058072,128.7418837529258 57.244978894945234,130.0386074729613 55.60901591880247,130.3116016096319 55.02474342728965,130.0386074729613 54.67417993233539,129.69736464042217 54.03148019150831,128.3323915124638 52.68765346100554,124.10095653613098 51.75281747453846,122.05347807548242 49.94157275091857,117.00300353276543 49.64943650527857,115.97925389243755 48.948309515370056,114.54600167786703 48.83145501697436,114.0 49.06516401353292,114.40950130164856 49.532582006882876,115.56975358346244 49.94157275091857,117.13950336241396 50.642699740827084,118.43625031039119 51.75281747453846,120.89323740795953 52.57079896260984,123.82795978203649 53.73934394563548,126.83091774967033 54.2651891882997,129.0148784359335 54.20676193921827,130.24335308629088 53.79777119518258,130.72109259886201 52.97978970664553,131.13058332924265 46.84492854587734,133.79226676607504 41.87861236790195,135.4302203679108 39.77523139840923,135.97620398149593 38.840395411942154,136.04445190099068 38.60668641538359,135.97620398149593 38.37297741882503,135.56671631458448 38.080841172952205,134.40649985219352 37.20443243579939,132.15430902224034 36.03588745277375,128.6736350642168 35.68532395781949,127.03566437674453 34.399924476165324,123.28196592844324 33.69879748648964,119.66474502399797 33.40666124061681,118.84574880730361 33.17295224405825,118.70924933691276 32.99767049681395,118.70924933691276 32.647107001859695,119.11874766123947 32.647107001859695,119.8012442929903 33.75722473557107,122.39472493482754 34.69206072180532,125.12469333945774 37.20443243579939,133.79226676607504 37.905559425475076,136.99992201651912 37.78870492731221,137.27291321929079 36.737014442449436,138.29662920505507 37.321286934195086,137.9553907229565 37.321286934195086,137.27291321929079 37.087577937403694,136.3856913895579 36.44487819680944,134.54299601441016 35.80217845621519,132.15430902224034 34.51677897456102,126.35317536775256 33.52351573901251,123.48671367758652 32.647107001859695,120.07424274430377 32.471825254382566,118.84574880730361 32.647107001859695,118.43625031039119 32.99767049681395,118.36800053564366 33.40666124061681,118.57274983788375 33.58194298809394,118.77749907568796 34.16621547960676,120.89323740795953 34.69206072180532,121.71223103592638 34.86734246951528,122.46297428535763 35.334760463098064,123.55496291286545 35.62689670873806,124.85169701685663 36.328023698646575,126.69441996212117 36.56173269497231,128.40064023737796 37.321286934195086,130.99408644787036 37.55499593052082,132.3590539668803 38.256122920429334,135.08898037590552 38.48983191722073,135.4984683447983 38.78196816286072,135.70321223232895 40.008940394967794,135.4984683447983 41.82018511882052,134.9524843285326 45.033683822257444,134.20175555493915 46.31908330344595,133.65577044564998 48.42246427293867,133.0415366476518 49.883145501604304,132.427302267286 52.9213624575641,131.33532859705156 54.732607181649655,130.37985012575518 56.01800666307099,130.1751045556739 58.64723287476227,129.0148784359335 60.925895591499284,128.12764529511333 64.7820940357633,127.03566437674453 66.65176600869745,126.35317536775256 66.94390225433744,126.28492642723722 67.177611250896,126.42142430110835 67.11918400181457,126.76266885944642 66.76862050686032,127.03566437674453 63.90568529837765,128.26414278073935 60.28319585090503,129.49261885444866 56.13486116123386,131.19883175904397 52.45394446444698,132.427302267286 47.31234653922729,134.4747479367652 45.38424731697887,135.02073235588614 45.09211107133888,135.36197238386376 44.91682932386175,135.90795605495805 44.91682932386175,136.65868285141187 45.20896556950174,137.6823998077889 45.79323806124739,138.97910563013284 46.37751055252738,140.07106641447172 46.55279230000451,140.8217883859761 46.435937801841646,141.5725094874506 45.6763835628517,142.18673519598087 45.55952906468883,142.52797144913347 45.617956313770264,142.86920752259903 47.25391928991303,147.8512337229913 48.948309515370056,152.35549840301974 50.642699740827084,157.4056973164552 51.16854498302564,158.70236365858 52.68765346100554,163.34304298466304 53.0382169559598,164.70794234238565 52.86293520824984,165.59512538276613 52.97978970664553,166.14108357293298 53.213498703436926,166.61879661190324 53.85619844426401,167.23299857298844 55.7842976662796,172.9655221302528 56.60227915435098,174.87635204399703 56.660706403432414,175.35405864182394 56.19328841031529,175.7635211594752 56.36857015755959,176.37771445087856 56.60227915435098,176.85541994171217 57.1865516458638,177.26488151069498 57.59554238989949,177.8790733787464 58.47195112728514,180.13110524701187 59.05622361856513,181.90542787214508 59.64049611031078,183.4067739903112 59.64049611031078,184.3621742541436 60.69218659494072,186.0" stroke="#4dd2ff" stroke-linecap="round" stroke-linejoin="round" stroke-width="0.5"><title>2023-07-29 5.9km</title></polyline><polyline fill="none" points="166.39046951150522,184.6402297411696 165.83901446242817,183.13732260488905 165.83901446242817,182.42165137140546 166.14537837868556,181.49127764103469 166.08410559571348,181.1334412516444 165.59392332984135,180.20306575729046 164.79737714794464,179.77366125315893 164.42974044871517,179.3442564776633 164.2459220988676,178.91485143097816 164.00083096604794,178.05604052293347 163.8170126164332,176.3384154503001 163.4493759169709,174.62078603554983 162.40773860248737,172.2590384996147 161.42737407097593,168.96689187223092 160.75337345525622,168.10806838911958 160.38573675602674,167.39238132414175 159.58919057413004,165.10217764927074 158.1799165601842,161.59528830985073 157.87355264369398,159.87762162071886 156.83191532921046,155.7981458280119 156.5868241963908,153.86575400765287 155.97409636410885,152.3627787916339 154.44227678352036,149.49995965743437 153.70700338482857,147.35283738921862 153.52318503521383,146.13613175839419 152.9717299863696,144.56156829505926 152.72663885331713,143.55957146378933 151.93009267142043,141.62714482966112 151.8075471050106,140.98300139675848 151.99136545462534,139.55156935902778 151.8075471050106,138.19170612917515 151.8688198882155,137.97699063352775 152.05263823783025,137.83384693186963 153.8295489512384,137.47598754626233 160.32446397305466,134.97096656786744 163.0204664345365,134.25524459168082 165.47137776343152,133.1816602135077 168.53501692414284,131.53549420437776 169.8217453721445,131.17763150081737 171.353564952733,130.96291378809838 172.39520226744935,130.46190552780172 173.80447628139518,130.17561492719688 174.53974968008697,129.8893242062768 174.78484081313945,129.60303336451761 174.7235680297017,129.53146063530585 174.41720411390997,129.45988789841067 172.33392948424444,129.8893242062768 166.39046951150522,132.0365016729338 163.8170126164332,132.6806535894866 162.59155695186928,133.25323255808325 161.42737407097593,133.53952186123934 159.58919057413004,134.39838904736098 158.3024621263612,134.68467786803376 156.2804602801334,135.4719715025276 154.80991348274983,135.9014040096081 153.09427555277944,136.7602682094439 150.70463700732216,137.33284373913193 146.2317238317337,138.69270868838066 145.31263208319433,138.90742395777488 144.82244981778786,138.83585220878012 144.57735868473537,138.69270868838066 143.41317580337636,134.75625005422626 142.55535683850758,132.96694313414628 141.63626509043388,130.24718758871313 141.20735560776666,128.24315021862276 140.41080942563713,125.52337575959973 139.73680881038308,122.80359041044721 138.81771706207655,119.94064669898944 138.94026262848638,118.7238919675001 139.0628081948962,119.72592543397332 139.18535376130603,122.08785561379045 140.53335499227978,129.03045131923864 141.0235372579191,130.74819600733463 142.1877201392781,134.3268168233917 142.55535683850758,136.04454811837059 142.86172075476497,138.048562472919 143.0455391043797,140.48200052662287 142.6166296217125,142.0565734457341 141.69753787340596,142.70071586070117 136.97953356523067,144.20371245371643 135.325168418698,144.63313944090623 134.46734945313074,144.77628170960816 134.0997127541341,144.56156829505926 133.67080327146687,144.20371245371643 132.32280204072595,141.91343060386134 130.36207297747023,136.9749840896693 129.07534452993423,134.54153347271495 127.48225216614082,130.17561492719688 126.80825155065395,128.9588785294909 126.5631604178343,127.95685868320288 126.13425093516707,126.74011831119424 125.64406866929494,124.80764382885536 125.21515918686055,123.5193244528491 125.3377047535032,122.94673727930058 125.58279588609003,122.66044351150049 126.25679650180973,122.23100263345987 128.27879834803753,121.94470856408589 128.95279896329157,121.65841437393101 129.81061792862602,121.01425200485392 130.3008001940325,120.87110472877976 131.4037102921866,120.87110472877976 133.79334883764386,121.2289728623582 136.79571521561593,120.65638375794515 137.95989809720777,120.01222043891903 140.41080942563713,118.00815287209116 141.7588106568437,117.22083899599966 146.35426939837635,115.57463430601638 150.5820914406795,114.7157433188986 152.60409328667447,114.07157436577836 153.21682111895643,114.0 153.70700338482857,114.3578717536875 154.68736791634,115.93250523036113 156.64809697959572,118.65231809194665 156.77064254600555,119.58277788653504 157.75100707728416,122.23100263345987 158.24118934292346,124.44977758056484 159.16028109146282,127.24112931650598 159.7730089239776,128.67258729576133 160.56955510564148,130.17561492719688 161.30482850433327,132.0365016729338 161.5499196369201,132.39436392433709 161.85628355341032,132.60908118454972 162.40773860248737,132.6806535894866 163.57192148361355,132.53750877192942 166.26792394532822,131.82178423169535 167.8610163088888,131.17763150081737 169.8217453721445,130.81976860854775 171.16974660288543,130.46190552780172 172.9466573165264,129.6746060862206 174.2946585470345,129.38831515412312 174.78484081313945,129.53146063530585 174.66229524672963,129.81775150704198 174.04956741444767,130.10404225828825 171.16974660288543,130.89134120196104 168.10610744194128,131.89335671975277 166.6968334277626,132.10807413811563 164.2459220988676,133.25323255808325 160.81464623869397,134.39838904736098 157.62846151110716,135.25725514744408 155.1162773987744,136.47398026351584 153.21682111895643,137.04655603476567 151.4399104055483,137.47598754626233 149.47918134275824,138.47799335117452 149.172817426268,138.83585220878012 149.05027186009102,139.19371087814216 149.11154464329593,139.69471269845963 149.2953629931435,140.12414253584575 150.2757275244221,141.12614443455823 150.76590979006141,142.0565734457341 151.0110009231139,143.91742764459923 151.8075471050106,145.63513468863675 152.9717299863696,149.07053574663587 153.58445781841874,150.64508875872707 154.31973121711053,152.7922006212757 154.87118626618758,155.0824457948329 155.7290052312892,157.1579738141736 156.89318811241537,160.73645550804213 158.36373490956612,165.5315914263483 158.97646274184808,167.17767505749362 159.52791779092513,169.4678717359784 159.4053722245153,170.04041969915852 159.52791779092513,170.61296718002995 159.83428170718253,171.54335580713814 160.44700953923166,171.82962897472316 160.6308278888464,172.04433377104579 160.81464623869397,172.7600159358699 163.20428478415124,178.986418957531 163.38810313376598,179.916796118021 163.0204664345365,180.84717200457817 163.3268303507939,181.92068105947692 163.51064870040864,182.20694985450245 164.42974044871517,183.06575551530113 164.7361043645069,183.6382920196629 165.59392332984135,186.0" stroke="#4dd2ff" stroke-linecap="round" stroke-linejoin="round" stroke-width="0.5"><title>2023-07-26 6.1km</title></polyline><polyline fill="none" points="64.60206686798483,261.7362903393223 63.87196352472529,259.848066017963 63.29831089777872,257.95983553113183 62.828958748374134,255.94977694778936 62.203155882656574,253.7569777976605 62.09885540488176,252.96513161680195 60.89939991221763,250.77232114906656 59.752094658557326,247.23944234993542 59.64779418101534,246.75214702868834 59.6999444195535,246.14302729960764 59.80424489709549,245.77755515428726 59.752094658557326,245.35117069276748 59.38704298646189,244.68113733199425 58.500488926656544,244.19383985491004 58.39618844911456,243.95019096229225 57.770385583397,241.51369639020413 56.41447937418707,238.28532526892377 56.310178896645084,236.94524139660643 56.41447937418707,236.39702437183587 56.362329135648906,236.09245913347695 55.997277463786304,235.42241504450794 55.21502388152294,234.69145697093336 54.84997220989317,233.9604979736614 53.859117672313005,231.21939350303728 52.71181241841987,227.44273939204868 51.355906209209934,224.09246106550563 50.05215023900382,219.82844239211408 49.58279808983207,218.8538051370997 49.42634737305343,218.12282611784758 49.00914546265267,216.90452569857007 48.591943552251905,215.19890079891775 48.33119235816412,213.85876341932453 48.12259140284732,213.06686259864364 47.91399044753052,211.78763590479502 47.44463829812594,210.38657484948635 47.340337820583954,209.4728375497507 47.44463829812594,209.04642631561728 47.653239253442734,208.86367854761193 49.843549283687025,208.01085486623924 50.93870429880917,207.27986213815166 52.1381597914733,206.85344928666018 53.598366478225216,206.00062264007283 57.04028223990463,205.08687840832863 58.60478940419853,204.35588198335608 61.16015110630542,203.74671758990735 61.629503255710006,203.50305165263126 62.255306121427566,203.07663601567037 63.6112123306375,202.71113664773293 65.12356925616041,201.98013721895404 67.1052783310879,201.43188704072963 67.5224802417215,201.12730338377878 67.41817976394668,201.00546987587586 67.00097785354592,201.06638663302874 65.95797307719477,201.37097032211022 59.49134346423671,203.86855051975 57.874686061171815,204.35588198335608 52.659662179416046,206.30520372954197 51.30375597043894,206.60978465882363 48.279042119160295,208.01085486623924 46.87098567117937,208.3154348967364 45.61937993974425,208.80276261206018 43.68982110358775,209.29008991655428 41.812412506202236,209.71650097100064 41.29091011825949,209.71650097100064 41.08230916294269,209.53375341458013 40.50865653576329,206.85344928666018 40.09145462536253,205.69604138995055 38.47479722229764,199.4216319391271 38.057595311896876,198.38604324992048 37.53609292348847,195.70568744000047 37.06674077408388,194.85284434910864 36.91029005777091,194.7919269373524 36.493088147370145,194.85284434910864 36.232336953282356,194.97467915341258 36.232336953282356,195.15743131167255 36.493088147370145,196.55852927290834 37.58824316249229,200.09171774983406 37.95329483412206,201.61463715782156 38.83984889416024,204.72138031147188 39.67425271496177,208.07177088526078 40.247905341908336,211.66580464347498 40.03930438659154,212.03129835048458 39.83070343150757,212.09221394569613 37.84899435634725,212.88411610142794 33.88557620672509,213.98059421859216 32.68612071382813,214.589747829712 32.477519758511335,214.9552396882209 32.52966999751516,215.01615497557214 32.99902214691974,214.71157847478753 36.91029005777091,213.37143996584928 39.67425271496177,212.27496069326298 40.03930438659154,212.03129835048458 40.247905341908336,211.54397335636895 40.247905341908336,210.691153628577 39.622102475957945,208.25451890355907 39.51780199841596,207.21894603566034 37.796844117343426,200.8227195663494 37.64039340126328,199.72621649480425 36.59738862491213,195.40110076626297 36.33663743059151,194.18275246641133 36.33663743059151,194.0 36.7538393412251,194.0609174951678 37.01459053554572,194.30458741192706 37.431792445946485,195.34018341219053 38.21404602797702,198.8124623466283 38.63124793861061,200.8836363425944 38.944149371702224,201.91922055801842 39.04844984901138,202.8329697959707 39.36135128210299,203.86855051975 41.0301589241717,209.4728375497507 41.2387598794885,209.7774168101605 41.447360834572464,209.8992484693881 41.91671298397705,209.8992484693881 43.37691967072897,209.4728375497507 45.88013113383204,208.43726686405716 48.80054450733587,207.5844425538089 51.30375597043894,206.54886848590104 52.76396265742369,206.12245509505738 54.22416934417561,205.57420884497697 55.63222579215653,204.90412938897498 57.19673295645043,204.59954756114166 60.48219800181687,203.3203021324589 62.568207554286346,202.5283868772094 66.63592618168332,201.43188704072963 67.00097785354592,201.43188704072963 67.1052783310879,201.4928037529462 67.1052783310879,201.61463715782156 66.94882761477493,201.8583038908546 66.37517498759553,202.1019705212675 63.08970994222909,203.07663601567037 60.84724967321381,203.92946697527077 55.997277463786304,205.5132925627404 50.67795310472138,207.4626104067429 49.26989665674046,208.13268689764664 45.93228137260303,209.16825812880415 45.202178029343486,209.53375341458013 44.99357707402669,209.7774168101605 45.04572731279768,210.02108010282973 45.202178029343486,210.38657484948635 45.88013113383204,211.17847934144083 46.088732089148834,211.66580464347498 46.6623847160954,213.91967882210156 47.28818758158013,215.19890079891775 48.53979331324808,219.40203879505862 50.00000000023283,223.66606061306084 50.99085453781299,226.95542738732183 52.033859313931316,229.63563833077205 53.49406600068323,233.89958468201803 53.80696743354201,235.30058876308613 53.80696743354201,236.1533721939777 54.22416934417561,237.18889324070187 54.745671732351184,237.61528372089379 55.37147459783591,238.89445327525027 57.248883195454255,244.07201542146504 57.40533391176723,244.68113733199425 57.04028223990463,245.16843439853983 56.988132001366466,245.35117069276748 57.09243247890845,245.71664310753113 57.35318367299624,246.26485129678622 58.03113677725196,246.8130589663051 58.239737732801586,247.17853045731317 59.80424489709549,251.32052454544464 60.01284585241228,252.1123729783576 60.16929656895809,253.1478654469829 61.10800086776726,254.85337841208093 62.77680850960314,260.152618744818 64.49776639044285,265.02544056327315 64.54991662944667,265.39090054435655 64.28916543512605,265.8172702307347 64.34131567412987,266.0 64.70636734599248,266.0 65.17571949516423,265.8172702307347 66.01012331619859,265.26908057631226" stroke="#4dd2ff" stroke-linecap="round" stroke-linejoin="round" stroke-width="0.5"><title>2023-07-23 5.7km</title></polyline></svg>