<?xml version="1.0" encoding="utf-8" ?>
<svg baseProfile="full" height="300mm" version="1.1" viewBox="0,0,200,300" width="200mm" xmlns="http://www.w3.org/2000/svg" xmlns:ev="http://www.w3.org/2001/xml-events" xmlns:xlink="http://www.w3.org/1999/xlink"><defs /><rect fill="#222222" height="300" width="200" x="0" y="0" /><text fill="#FFFFFF" style="font-size:12px; font-family:Arial; font-weight:bold;" x="10" y="20">Over 5km Runs</text><text fill="#FFFFFF" style="font-size:4px; font-family:Arial" x="10" y="280">ATHLETE</text><text fill="#FFFFFF" style="font-size:9px; font-family:Arial" x="10" y="290">Melt</text><text fill="#FFFFFF" style="font-size:4px; font-family:Arial" x="120" y="280">STATISTICS</text><text fill="#FFFFFF" style="font-size:3px; font-family:Arial" x="120" y="285">Number: 11</text><text fill="#FFFFFF" style="font-size:3px; font-family:Arial" x="120" y="290">Weekly: 2.2</text><text fill="#FFFFFF" style="font-size:3px; font-family:Arial" x="141" y="285">Total: 68.5 km</text><text fill="#FFFFFF" style="font-size:3px; font-family:Arial" x="141" y="290">Avg: 6.2 km</text><text fill="#FFFFFF" style="font-size:3px; font-family:Arial" x="167" y="285">Min: 5.3 km</text><text fill="#FFFFFF" style="font-size:3px; font-family:Arial" x="167" y="290">Max: 9.2 km</text><polyline fill="none" points="48.53525691013783,82.82027786795516 48.39018172188662,81.860066830297 48.6319737022277,81.06930350803304 48.53525691013783,80.73040458455216 48.24510653363541,80.1090893347864 47.713164176791906,79.77018980437424 46.45584587822668,76.833051567839 45.68211154057644,74.5737035148777 45.440319560235366,72.93567022349453 45.440319560235366,72.37082999711856 45.246885975822806,72.0319255758659 45.101810787804425,71.52356854215031 44.56986843072809,70.95872682839399 44.27971805422567,70.2244317108416 43.602700508898124,68.19099382945569 43.215833339840174,67.34372576960595 43.022399755893275,66.27051763836062 42.58717419090681,65.36676175653702 42.20030702231452,64.01112507743528 41.62000626907684,62.59899989212863 41.1847807043232,61.18687098741066 40.942988723749295,60.113650532555766 40.45940476283431,58.870971532480326 38.42835212708451,53.22239432227798 38.23491854243912,52.26213027833728 38.283276938600466,51.64078203914687 38.476710523245856,51.188891958328895 38.331635334994644,50.39808340056334 38.476710523245856,49.381327826471534 38.42835212708451,48.87294931645738 38.23491854243912,48.308083739713766 37.70297618559562,47.347810893727 37.60625939350575,46.89591719460441 37.751334581756964,46.7264569591498 39.00865288008936,46.10510230442742 40.26597117842175,45.76618128019618 42.00687343766913,44.97536472353386 45.39196116430685,43.958598865312524 47.713164176791906,43.05480537249241 51.291685487376526,41.98154862091178 55.93409151211381,40.230440887098666 56.12752509652637,40.06097854487598 56.12752509652637,39.94800362014212 55.643941135611385,39.89151614892762 53.46781331137754,40.39990317582851 50.03436718904413,41.64262498973403 44.4731516384054,43.11129251058446 41.37821428873576,44.41049504041439 38.13820175034925,45.48374692950165 36.15550751099363,46.04861548182089 35.33341477718204,46.44402311445447 33.54415412154049,46.95240392780397 32.286835823440924,47.06537737639155 31.9966854469385,46.89591719460441 31.174592713359743,45.42726004158612 29.965632811188698,41.1907264815527 29.820557622704655,40.117465998162515 29.627124038292095,39.10069092665799 29.19189847353846,37.519036982324906 28.708314512856305,36.389281307929195 28.41816413612105,35.03357135615079 28.176372155547142,33.39541725668823 27.982938571367413,33.05648819729686 27.741146590793505,33.0 27.596071402775124,33.0 27.49935461045243,33.16946457425365 27.49935461045243,33.56488170597004 27.789504986954853,35.090059339185245 28.659956116462126,38.36635217582807 28.998464888893068,39.21366602979833 29.675482434686273,41.58613769710064 30.013991207117215,43.337241002649534 30.88444233685732,46.38753632758744 31.126234317198396,48.13862395088654 31.174592713359743,49.32484134915285 30.981159128947183,49.60727367637446 29.33697366178967,50.39808340056334 27.25756262987852,51.132405671523884 24.017550091957673,52.0926717389375 23.87247490347363,52.20564410457155 23.969191695796326,52.26213027833728 24.307700468227267,52.26213027833728 30.400858375942335,50.567542475415394 30.594291960354894,50.34159703046316 30.545933563960716,49.60727367637446 30.69100875221193,49.94619227247313 30.545933563960716,50.17213788407389 28.80503130494617,50.90646046446636 25.274868390057236,52.0926717389375 24.210983676137403,52.26213027833728 23.920833299634978,52.20564410457155 24.114266884047538,52.0926717389375 24.79128442914225,52.14915792475222 25.17815159796737,52.0926717389375 27.45099621429108,51.30186451424379 29.965632811188698,50.511056123126764 30.594291960354894,50.17213788407389 30.787725544534624,50.002678684249986 30.88444233685732,49.550787222746294 30.88444233685732,48.816462785587646 30.545933563960716,46.274562736274675 29.772199226776138,43.39372811076464 29.578765642130747,42.2639848163235 29.33697366178967,41.52965039847186 28.708314512856305,38.818253064586315 28.273088947869837,36.33279346174095 27.547713006380945,33.62136984372046 27.49935461045243,33.45190541248303 27.596071402775124,33.22595275368076 27.789504986954853,33.16946457425365 28.176372155547142,33.45190541248303 28.466522532282397,34.468691197631415 28.75667290855199,35.20303528755903 29.53040724643506,38.36635217582807 30.739367148606107,42.48993366584182 30.88444233685732,43.39372811076464 31.948327050777152,47.74321756808786 32.14176063518971,47.856190850026906 32.673702992266044,47.74321756808786 34.559680439764634,47.008890655008145 37.26775062084198,46.38753632758744 39.057011276250705,45.76618128019618 42.39374060649425,44.29752103239298 45.633753144647926,43.1677796425065 47.519730592146516,42.602908054715954 52.69407897396013,40.738827592518646 55.643941135611385,39.835028671775945 55.837374720023945,39.835028671775945 55.98244990827516,40.00449108547764 55.74065792770125,40.17395344557008 54.96692359028384,40.512878005276434 53.27437972696498,41.021264442882966 50.566309545887634,42.15101035608677 46.06897870940156,43.45021521311719 43.022399755893275,44.57995600783033 37.99312656233087,46.218075931537896 36.203865906689316,46.95240392780397 35.865357134258375,47.17835080111399 35.76864034193568,47.404297579370905 35.865357134258375,48.02565072843572 36.39729949133471,48.985922360327095 36.63909147167578,49.66376012383262 37.171033828519285,51.64078203914687 37.70297618559562,52.714019454375375 38.23491854243912,54.126170675095636 38.52506891917437,55.31237482605502 39.54059523716569,57.62828965205699 39.975820801919326,59.153398830851074 40.556121555157006,60.62201838410692 40.749555139336735,61.412811862130184 41.37821428873576,62.93791027570842 41.523289476754144,63.89815519959666 41.95851504174061,65.14082254795358 42.29702381440438,65.81863988796249 43.79613409307785,70.73278997611487 44.37643484631553,73.1051221753005 44.76330201490782,73.38754197600065 44.95673559932038,73.66996162809664 45.68211154057644,75.98579716339009 46.16569550172426,77.34140356775606 46.35912908613682,77.96272202429827 46.407487482065335,78.58403976075351 46.794354650890455,79.71370652836049 46.64927946287207,80.56095504225232 46.74599625496194,81.01282036904013 47.03614663146436,81.52116840641247 47.61644738446921,81.91654988011578 47.906597760738805,82.36841406434542 49.45406643580645,86.60462227457901 49.599141624057665,87.0" stroke="#4dd2ff" stroke-linecap="round" stroke-linejoin="round" stroke-width="0.5"><title>2023-08-14 6.1km</title><desc>9645903556</desc></polyline><polyline fill="none" points="110.454640484415,87.0 109.83119862084277,85.65566822286928 108.53635782678612,82.35083815769758 108.39248662744649,81.67866681749001 108.48840076033957,81.00649462756701 108.39248662744649,80.44635048689088 108.15270129521377,79.99823474959703 107.81700183008797,79.83019125071587 107.52925943140872,79.55011863453547 107.09764583338983,78.59787063632393 105.61097677377984,74.50878631992964 105.2273202422075,72.99637730559334 105.27527730865404,72.49224001157563 105.17936317576095,71.98810223955661 104.93957784352824,71.48396398953628 104.50796424550936,71.09185613133013 104.26817891327664,70.75576345127774 103.16516638523899,67.67490398563677 102.3978533220943,64.98613931902219 101.77441145828925,63.417686984699685 100.81527012959123,60.05670211761026 99.18472987040877,55.35128761146916 98.8490304055158,54.00687581842067 98.41741680749692,52.99856474268017 98.36945974105038,52.55042587296339 98.46537387371063,51.43007704633055 98.36945974105038,50.981936854775995 98.03376027569175,50.365743474452756 97.21849014633335,49.07733682618709 96.88279068144038,48.34910560044227 96.78687654831447,47.7889270556625 96.88279068144038,47.50883756199619 97.12257601344027,47.17272997490363 101.39075492694974,45.044043655274436 107.00173170072958,43.251459091261495 108.39248662744649,42.69127517554443 109.73528448794968,42.35516454279423 111.03012528177351,41.850998195353895 113.57184980320744,41.12275707151275 115.53808952728286,40.33849628421012 115.77787485974841,40.17044025071664 115.5860465937294,40.00238416402135 114.05142046767287,40.22645893442677 112.37292314204387,41.01071988698095 110.64646875020117,42.01905369758606 108.39248662744649,42.85933041223325 106.85786050138995,43.3074774502893 104.93957784352824,43.97969729930628 103.98043651483022,44.25978865212528 102.44581038854085,44.93200729705859 100.04795706644654,45.60422509192722 96.49913414986804,47.00467610155465 93.81353842886165,47.95698068116326 92.90235416661017,48.1250342533458 92.18299816991203,48.18105209886562 91.99116990435869,48.0690164018888 91.94321283767931,47.90096281183651 91.41568510700017,45.99635174643481 90.64837204385549,43.75562411075225 90.21675844606943,42.13109066954348 89.64127364847809,40.45053361036116 88.96987471845932,38.20978260115953 87.8189051237423,33.50417474115966 87.57911979150958,33.112038872845005 87.38729152572341,33.0 87.29137739283033,33.0 87.09954912704416,33.22407772176666 87.09954912704416,33.50417474115966 88.10664752242155,36.41717499413062 88.92191765177995,39.21812172385398 89.78514484781772,43.3074774502893 91.03202857542783,48.0690164018888 91.31977097387426,49.41344320931239 91.17589977476746,49.749549380037934 90.98407150898129,49.917602385627106 89.44944538269192,50.70184904302005 86.90772086149082,51.82219940418145 84.27008220693097,52.60644325229805 84.22212514025159,52.71847799338866 84.27008220693097,52.7744953550864 85.18126646941528,52.60644325229805 86.90772086149082,51.71016447443981 90.31267257872969,50.533796285279095 90.64837204385549,50.309725858969614 90.74428617674857,50.141672977246344 90.69632911030203,49.63751401333138 90.93611444253474,49.63751401333138 91.07998564164154,49.525478623167146 90.02493018005043,46.50051416299539 88.6341752531007,40.22645893442677 88.1546045888681,38.76997123891488 87.57911979150958,36.19309861824149 87.05159206083044,34.28844561020378 87.00363499415107,33.392135951144155 87.1475061934907,33.112038872845005 87.48320565884933,33.05601943936199 87.72299099084921,33.168058300274424 88.01073338929564,33.56019412726164 88.29847578820772,34.2324263008195 90.50450084451586,41.73896116425749 90.88815737585537,43.58756915741833 91.51159923966043,45.94033367058728 91.99116990435869,47.34078379505081 92.13504110346548,47.62087337725097 92.47074056859128,47.62087337725097 96.40322001697496,46.27644203690579 99.71225760155357,45.26811630069278 101.10301252827048,44.59589808085002 104.31613597972319,43.47553249227349 105.03549197642133,43.08340397849679 106.2344186375849,42.91534881258849 108.10474422876723,42.41118299640948 113.18819327186793,40.5625709129381 114.77077646413818,40.22645893442677 115.0105617963709,40.22645893442677 115.10647592949681,40.33849628421012 115.10647592949681,40.5625709129381 115.0105617963709,40.61858955526259 112.90045087318867,41.57090557349147 109.7832415541634,42.747293593594804 102.5417245212011,45.10006182541838 96.35526295052841,47.50883756199619 95.82773521961644,47.7889270556625 95.68386402027681,48.0690164018888 96.73891948210075,51.71016447443981 97.4582754787989,52.99856474268017 97.69806081079878,54.00687581842067 98.80107333906926,56.6396790567087 100.191828266019,60.78491730825044 100.95914132893085,62.689475399733055 101.82236852496862,65.49028372968314 103.59677998325787,70.58771703165257 103.83656531549059,71.53997937421082 103.59677998325787,71.93208690191386 103.59677998325787,72.21216353052296 103.83656531549059,72.77231634501368 104.2202218468301,73.16442296403693 104.46000717929564,73.66855962091358 106.66603223537095,79.49410409363918 106.80990343494341,80.11026371916523 106.71398930205032,80.39033604034921 106.5701181027107,80.55837936216267 106.52216103626415,80.78243704210036 106.90581756760366,81.51062384969555 107.43334529874846,81.8467097322573 107.67313063074835,82.18279540230287" stroke="#4dd2ff" stroke-linecap="round" stroke-linejoin="round" stroke-width="0.5"><title>2023-08-10 5.8km</title><desc>9620015411</desc></polyline><polyline fill="none" points="168.75764680141583,84.46436687174719 168.65896909078583,83.42705902300077 168.856324511813,82.7355193644762 168.75764680141583,82.27449243998853 168.4616136699915,81.75583668536274 167.96822511777282,81.58295132470084 167.7215308418963,81.29480893531581 166.43872060603462,78.06760380585911 165.6492989223916,75.70481655042386 165.55062121222727,74.89800880895928 165.35326579143293,74.32171683647903 165.4519435018301,73.9759413615684 165.30392693611793,73.34201909013791 165.15591037040576,73.0538723601494 164.61318296310492,72.53520786383888 163.28103387192823,69.0198022055556 162.93566188565455,67.80957535823109 162.49161218851805,66.88749596331036 159.18590888893232,56.80215111374855 158.8405369024258,56.11057779751718 158.00177636370063,53.92058986116899 157.7057432322763,50.75085495080566 157.11367696966045,48.387949704308994 157.36037124576978,48.04215783654945 158.93921461282298,47.29294137295801 161.70219050510786,46.3131952182157 163.77442242437974,45.67924088885775 167.86954740737565,44.1231680563651 170.97789528639987,43.14341622416396 173.14880491583608,42.221295249299146 174.08624316519126,41.93313212599605 176.01045851851813,41.126274572859984 176.30649164994247,40.89574362477288 176.35583050502464,40.780478114204016 176.05979737383313,40.780478114204016 169.44839077442884,43.25868123653345 166.14268747484311,44.296065256465226 164.1691332659684,45.102918133779895 161.55417393962853,46.025034250400495 159.48194202035666,46.83188457752112 155.3868170371279,48.15742181672249 154.30136222206056,48.676109427178744 153.56127939396538,48.84900518815266 151.98243602691218,48.96426899835933 151.68640289572068,48.79137327382341 151.4890474746935,48.387949704308994 149.81152639724314,43.37394622480497 149.5648321211338,42.04839739360614 149.2194601346273,40.9533763708896 148.67673272709362,38.648061789164785 147.83797218836844,35.76640489831334 147.3445836363826,33.46106845460599 146.9992116498761,33.0 146.60450080805458,33.115267150104046 146.4071453870274,33.40343491913518 146.4564842423424,33.691602536302526 147.73929447797127,37.14960210060235 148.77541043772362,40.49231423181482 149.46615441073664,43.37394622480497 149.86086525255814,45.85213759710314 150.55160922557116,48.33031774149276 150.89698121184483,49.94401040452067 150.89698121184483,50.92375005595386 150.7983035016805,51.15427677775733 150.403592659859,51.44243504334008 149.36747670010664,51.845856360159814 146.60450080805458,52.710329608642496 145.86441797972657,52.82559260504786 143.64416949497536,53.574801490758546 143.7428472051397,53.574801490758546 144.72962430957705,53.45953865221236 146.85119508416392,52.537435068166815 147.9859887540806,52.191645823360886 149.02210471360013,51.78822476166533 150.05822067335248,51.55769830709323 150.502270370489,51.211908443016 150.7983035016805,50.577959791058674 150.60094808088616,49.367692142841406 150.05822067335248,47.696365750045516 149.17012127954513,44.18080046254909 148.8740881481208,42.62472336710198 148.18334417487495,40.54994702053955 147.44326134677976,37.437767744238954 147.0485505051911,35.42060505133122 146.75251737376675,34.4408376304782 146.70317851845175,34.09503694518935 146.80185622884892,33.6339690250461 146.9498727945611,33.40343491913518 147.14722821535543,33.288167829683516 147.44326134677976,33.288167829683516 147.6899556228891,33.46106845460599 148.0353276093956,34.210303864616435 148.62739387177862,36.28510425920831 149.07144356891513,38.82096071972046 150.354253804544,43.71974104386754 150.7489646463655,45.102918133779895 151.291692054132,47.35057344491361 151.68640289572068,48.56084555631969 151.83441946143284,48.79137327382341 152.03177488199435,48.90663709625369 154.74541191919707,48.099789829633664 159.58061973075382,46.486091725935694 163.0836784511339,45.56397638638737 165.35326579143293,44.296065256465226 166.38938175071962,44.18080046254909 167.6721919865813,43.7773734923685 168.856324511813,43.37394622480497 170.87921757553704,42.45182563876733 175.56640882161446,40.9533763708896 175.91178080788814,41.01100911095273 175.8624419530388,41.126274572859984 175.61574767692946,41.35680542368209 173.29682148154825,42.3941930506262 168.65896909078583,44.06553564412752 167.91888626245782,44.23843286244664 167.22814228967763,44.52659477136331 165.6492989223916,44.93002118868753 162.39293447812088,46.0826664561755 159.77797515154816,47.29294137295801 157.55772666656412,47.98452583729522 155.6828501680866,48.676109427178744 155.3868170371279,48.90663709625369 155.2881393264979,49.19479654595489 155.2881393264979,49.42532399634365 155.43615589221008,49.771114989649504 156.07756101014093,50.69322323706001 156.32425528625026,51.15427677775733 156.96566040394828,53.574801490758546 157.55772666656412,54.612165946280584 159.08723117830232,58.531080579268746 159.87665286194533,60.951572650519665 160.86342996638268,64.3517696132185 161.70219050510786,66.48408573924098 162.19557905732654,68.27061447291635 162.93566188565455,70.05713737208862 163.8237612794619,72.93861362565076 163.72508356906474,73.91831209452357 163.9224389900919,74.72512128081871 164.5638441075571,75.24378370086197 164.71186067326926,75.53192927734926 166.43872060603462,79.7964660639991 167.08012572396547,82.101607243123 166.9814480135683,82.50500595086487 166.73475373745896,82.67789102019742 166.78409259254113,82.9660326812882 167.12946457904764,83.6575720483088 167.57351427618414,83.94571319321403 167.86954740737565,84.34911054116674 168.95500222221017,87.0" stroke="#4dd2ff" stroke-linecap="round" stroke-linejoin="round" stroke-width="0.5"><title>2023-08-08 6.0km</title><desc>9606561718</desc></polyline><polyline fill="none" points="48.926650093635544,145.79274410154903 48.17493219068274,144.75011175620602 47.04735533706844,141.73195373051567 46.90640823030844,140.853940839821 47.188302443828434,140.0308024106198 47.04735533706844,139.42716673621908 46.859425861155614,139.09791061887518 46.20167269650847,138.8235303622787 46.013743220828474,138.54914996097796 45.44995479402132,136.68335940031102 44.36936030909419,134.32367353333393 43.75858951290138,132.07373054296477 43.664624775294214,131.30545510113006 43.006871610181406,130.20791679009562 42.443083183374256,128.61648213176522 41.50343580520712,125.81774042203324 41.17455922276713,125.1043332676054 40.704735533567145,122.96410594199551 40.187929475679994,121.75679434055928 39.48319394188002,119.4519189678249 39.06035262160003,118.5189903221908 38.0267405055929,115.66531585773919 37.509934447705746,114.51286596921273 37.228040234185755,113.36041353095789 37.08709312742576,112.4823528190609 37.08709312742576,111.98844301811187 36.335375224938616,109.6835244212416 36.24141048709862,109.0249743773602 36.19442811817862,107.59811309253564 36.382357593625784,107.21395746344933 36.617269438225776,106.93956041213823 37.69786392338574,106.44564535527024 39.62414104864001,105.7322116685682 40.56378842680715,105.23829546687193 41.55041817412712,104.90901773900259 42.67799502820708,104.41510075668339 44.93314873590134,103.7016642887611 50.101209316402674,101.72598896961426 51.13482143217698,101.39670902112266 52.30938065494411,100.90278870833572 53.249028033344075,100.62838833202841 53.90678119799122,100.2991076897597 53.577904615784064,100.18934742943384 53.38997514010407,100.24422756244894 49.06759720016271,102.11014864628669 46.95339059922844,102.6589476930094 46.013743220828474,103.04310668166727 44.510307415621355,103.48214517888846 42.95988924149424,104.19558194756974 40.187929475679994,105.07365662883967 38.44958182587288,105.7322116685682 37.36898734094575,106.06148887617746 35.489692584378645,106.82980155106634 32.6237680807244,107.59811309253564 31.30826175119728,107.81763046776177 30.97938516899012,107.70787179173203 30.885420430917293,107.48835437034722 29.80482594599016,104.85413809737656 28.865178567823023,101.06742886471329 28.30139014078304,99.14662380237132 28.160443034023046,98.43318011792144 27.690619344823062,97.11605074832914 26.985883811255917,93.9878551462316 26.469077753135934,93.16464265459217 26.28114827768877,93.0 26.187183539615944,93.05488089070423 26.093218801775947,93.38416611292632 26.28114827768877,94.59154347976437 27.831566451583058,99.53078538144473 28.67724909214303,103.0979865140398 30.039737790590152,107.70787179173203 30.180684897350147,108.4761820381973 30.13370252843015,108.6956990431645 29.663878839230165,109.40912867081352 29.75784357707016,109.29937033017632 29.710861208150163,108.97009516955586 29.428966994630173,107.81763046776177 29.100090412423015,105.89685029844986 28.160443034023046,102.16502857703017 27.314760393463075,99.20150404510787 26.657007228815928,96.62212637602352 26.093218801775947,93.49392780743074 26.187183539615944,93.2195235278923 26.56304249097593,93.38416611292632 26.89191907318309,93.76833194238134 27.596654606983066,95.68915683915839 29.100090412423015,100.73814849986229 29.616896470310166,103.0979865140398 29.992755421670154,104.25046165846288 30.180684897350147,105.23829546687193 30.462579110870138,106.33588639012305 30.885420430917293,107.81763046776177 31.026367537677288,107.87250979716191 32.247909129364416,107.59811309253564 33.04660940077156,107.26883685635403 34.40909809945151,106.77492211188655 37.04011075850576,106.00660935597261 38.44958182587288,105.5126934145228 39.67112341779284,104.90901773900259 42.95988924149424,103.81142380897654 46.15469032735564,102.54918792995159 48.97363246232271,101.5613490214455 49.86629747180268,101.39670902112266 51.4636980148498,100.73814849986229 53.29601040226407,100.24422756244894 53.530922246864066,100.18934742943384 53.76583409169689,100.2991076897597 53.71885172254406,100.46374803688377 53.43695750902407,100.68326841888484 51.4636980148498,101.6711089927121 49.02061483124271,102.49430803960422 47.987002715235576,102.76870743301697 46.43658454087563,103.42726538702846 44.839183998061344,103.86630356032401 43.14781871717423,104.52486012643203 39.38922920427285,105.7322116685682 38.21466998127289,106.28100689902203 37.181057865032926,106.61028375953902 35.11383363325149,107.43347500055097 34.597027575131506,107.7627511327155 34.45608046813868,108.09202705667121 34.55004520621151,108.6956990431645 35.160816001938656,110.01279913098551 35.536674953531474,111.4396538012079 35.91253390465863,112.3177162706852 36.28839285578579,112.92138336016797 36.57028706930578,113.5799284777604 36.85218128282577,114.56774459313601 38.120705243665725,117.80557317170314 38.44958182587288,119.12265022483189 39.43621157296002,121.75679434055928 39.859052893240005,123.12873912544455 41.9732594944071,128.8908677646541 42.443083183374256,130.7566862346721 42.443083183374256,131.08594762400026 42.34911844576709,131.47008564841235 42.443083183374256,131.79934658668935 42.771959766047075,132.62249802210135 43.28876582393423,133.2261415811954 44.0874660955742,135.20169743028237 44.510307415621355,136.62848310626578 44.839183998061344,137.23212202364812 45.21504294942133,138.43939776014304 45.44995479402132,139.37229073123308 45.44995479402132,139.53691872907802 45.30900768726133,139.97592646913836 45.44995479402132,140.689313257928 45.63788426970132,140.96369253203738 46.15469032735564,141.34782327286666 46.62451401678845,142.17095962085295 47.188302443828434,144.25623254844686 47.94002034631558,146.34149712952785 47.94002034631558,147.0" stroke="#4dd2ff" stroke-linecap="round" stroke-linejoin="round" stroke-width="0.5"><title>2023-08-07 5.3km</title><desc>9599973967</desc></polyline><polyline fill="none" points="109.44214782002382,146.55328006320633 108.58159763878211,145.1572778345435 107.43419739743695,141.8626979997498 107.33858071058057,141.0809302875423 107.52981408429332,140.13163937273202 107.43419739743695,139.74075438437285 107.19515568064526,139.4057098791818 106.62145555950701,139.12650596327148 106.33460549963638,138.73562023357954 104.80473851086572,134.8825883337995 104.47008010698482,133.70992089255014 103.99199667340145,131.1970533541753 103.41829655249603,130.58279503305675 103.22706317901611,130.13606126146624 102.12747128121555,127.23228256951552 101.79281287710182,125.89207165455446 101.31472944328561,124.88691124448087 100.0239041717723,121.14546407770831 99.11554564721882,118.24163613416022 98.82869558688253,117.57151973433793 98.1593787795864,115.61700872902293 97.53787031513639,114.22092502680607 97.15540356817655,112.76899407600285 96.82074516452849,111.93133979511913 96.82074516452849,111.0936841905932 96.67732013412751,109.92096412007231 96.1992367003113,107.51967207033886 96.1514283567667,107.18460719846189 96.24704504339024,107.01707468321547 96.43827841733582,106.73785370663973 99.1633539905306,105.62096832925454 100.26294588856399,104.89499157189857 101.69719619047828,104.16901382012293 102.55774637148716,103.88979134312831 103.41829655249603,103.49887962813955 105.37843863177113,102.94043382117525 107.91228083125316,101.82354044169188 108.8684476991184,101.60016148316208 109.72899788036011,101.20924807956908 113.7927070686128,99.86897136404878 114.22298215911724,99.64559158193879 114.41421553259715,99.4222117056488 114.12736547226086,99.47805668361252 113.41024032165296,99.92481629486429 112.35845676669851,100.31573064578697 111.49790658592246,100.76248955103802 109.72899788036011,101.43262720271014 105.61748034856282,102.49367675173562 103.37048820895143,103.61056871910114 100.74102932261303,104.3923916958156 98.1593787795864,105.5651239985018 96.1992367003113,106.29109983803937 95.14745314582251,106.51447681942955 93.71320284390822,107.01707468321547 92.56580260256305,107.18460719846189 91.51401904807426,107.46382793982048 91.13155230064876,107.4079838033067 90.84470224031247,107.24045135849155 90.74908555368893,107.01707468321547 89.88853537244722,104.05732484691544 88.74113513133489,101.43262720271014 88.16743501042947,99.19883173541166 86.58975967857987,93.83768420107663 86.2072929313872,93.39091945858672 85.92044287105091,93.39091945858672 85.68140115402639,93.67014746682253 85.58578446740285,93.89352976734517 85.63359281094745,94.11691197380424 86.82880139560439,96.62995530880289 87.35469317273237,98.19362070341595 87.68935157661326,99.53390165552264 88.07181832380593,100.70664470858173 88.59771010116674,103.33134594798321 89.84072702936828,108.13395711861085 89.69730199920014,109.0274613724323 89.79291868582368,108.74824145500315 89.74511034227908,108.30148928094422 88.98017684812658,105.73265697277384 88.59771010116674,103.88979134312831 86.82880139560439,97.9143950783764 86.35071796155535,95.95981158461655 86.01605955790728,95.01043985807337 85.82482618419454,93.50261067948304 85.92044287105091,93.27922821423272 86.11167624453083,93.05584565451136 86.35071796155535,93.0 86.73318470874801,93.11169130337657 87.11565145570785,93.50261067948304 87.3068848294206,93.89352976734517 87.83277660678141,96.96502685319865 88.31086004059762,99.08714171481552 88.74113513133489,100.3715755296289 89.31483525177464,102.8287445891765 89.93634371599182,104.95083597302437 90.65346886706538,107.07291886088206 90.84470224031247,107.24045135849155 91.8964857950341,107.07291886088206 94.90841142856516,106.12356704025296 96.9641701944638,105.5651239985018 99.06773730390705,104.83914716477739 105.76090537849814,102.27029807586223 109.2031061029993,101.04171367548406 109.87242291052826,100.93002404330764 111.45009824237786,100.25988575624069 113.4580486647319,99.64559158193879 113.69709038198926,99.58974662178662 113.88832375523634,99.75728148478083 113.88832375523634,99.92481629486429 113.69709038198926,100.14819595927838 112.74092351389118,100.65079986001365 109.44214782002382,101.87938516651047 106.52583887288347,102.8287445891765 101.26692109997384,104.78330275171902 99.6892457678914,105.50927966204472 98.30280380952172,106.0118784790393 96.10362001368776,106.62616527476348 95.43430320592597,107.07291886088206 94.5737530249171,107.4079838033067 94.43032799474895,107.96642490319209 95.09964480227791,109.2508372006123 95.76896160980687,111.37290287250653 96.39047007379122,112.60146332578734 97.49006197182462,116.34297080087708 98.01595374918543,117.68320585979382 98.58965386985801,119.63770924654091 100.50198760582134,124.49601501470897 102.22308796783909,130.13606126146624 102.31870465446264,130.58279503305675 102.31870465446264,131.47626144677633 102.50993802794255,131.81131096358877 102.79678808827884,132.64893382927403 103.27487152232789,133.20734833774623 104.03980501648039,135.38515930029098 104.80473851086572,137.06039241410326 105.4262469750829,139.34986910771113 105.37843863177113,139.57323215826182 105.04378022789024,139.90827655768953 105.04378022789024,140.18748006172245 105.37843863177113,140.91340848483378 105.99994709575549,141.2484520371654 106.23898881254718,141.58349537773756 107.48200574074872,144.8222367526032 107.86447248770855,146.1623998095747 108.00789751810953,147.0" stroke="#4dd2ff" stroke-linecap="round" stroke-linejoin="round" stroke-width="0.5"><title>2023-08-06 5.3km</title><desc>9594199691</desc></polyline><polyline fill="none" points="169.19757062231656,147.0 168.90939608577173,146.01827957099886 168.90939608577173,145.79388582185493 168.98143971990794,145.51339336947422 168.933410630445,145.3731470326602 168.789323362289,145.0646048313356 168.52516337041743,144.92435825796565 168.4771342810709,144.86825960801798 168.30903246812522,144.53166745972703 167.9488142975606,143.66213577409508 167.4925379481865,142.34380812515155 167.2764070458943,141.4742692950531 167.2764070458943,141.24987171663088 167.1083052328322,140.91327499446925 166.84414524107706,140.57667784680962 166.60399979399517,139.95958197084838 166.14772344462108,138.66928597260267 164.87495257530827,134.6020076671266 164.68283621768933,134.04099888703786 164.03444351057988,132.52626927607344 163.81831260817125,131.60059693819494 163.7942980636144,131.17983572077355 163.81831260817125,130.81517546105897 163.77028351882473,130.53466722919256 163.5541526164161,130.0858534433646 163.24196353531443,129.63703890095348 163.14590535638854,129.3565294276923 163.12189081171528,128.85161163113662 163.19393444585148,128.59915237379028 163.33802171400748,128.48694818254444 164.58677803876344,128.0661820443056 166.02765072113834,127.36490366936778 166.67604342813138,127.11244300220278 166.9642179646762,126.88803331929375 167.036261598696,126.66362344729714 167.06027614348568,126.32700828445377 166.91618887521327,125.65377668221481 166.70005797280464,125.06469763367204 166.3638543470297,123.9706902281323 165.88356345286593,122.62421340364381 165.64341800578404,122.14733456191607 165.47531619283836,121.55824775443762 164.73086530703586,119.53851166123059 164.49071985995397,119.00552319237613 164.34663259168155,118.8091587505478 164.13050168938935,118.64084625666146 163.8663416976342,118.58474206837127 163.45809443760663,118.69695043307729 162.92977445409633,119.00552319237613 162.32941083644982,119.20188748926739 161.1286836011568,119.53851166123059 160.0960581789259,119.762927539472 158.94336003286298,120.12760293800966 158.58314186241478,120.18370680112275 158.3189818705432,120.1556548710505 158.1748946023872,120.0714990630513 158.0308073341148,119.90318736722111 157.9587636999786,119.7348755649582 157.02219645644072,117.0418722567847 156.15767284703907,114.01221097059897 155.91752739995718,112.7778946350445 155.89351285528392,112.55347286825418 155.94154194474686,112.44126191386022 156.10964375769254,112.30099815438734 157.1902982693864,112.0485232010833 157.76664734247606,112.0485232010833 158.102850968251,111.96436483008438 159.30357820354402,111.34720262989867 161.72904721880332,110.47756255546119 162.13729447883088,110.2531388491625 163.53013807162642,109.07491128725815 163.7942980636144,108.76632701634662 164.44269077049103,107.64419937916682 164.49071985995397,107.33561344954069 164.37064713647123,106.97092052618973 163.89035624230746,105.98905247959192 163.38605080347043,105.34382293393719 162.2093381129671,104.24973447763477 161.17671269061975,103.35201751353452 160.5283199835103,102.70678157536895 160.40824726002757,102.65067402855493 160.0720436341362,102.73483534433763 159.87992727651726,102.98731913199299 159.73584000824485,103.09953407177818 159.32759274821728,103.21174896435696 158.39102550467942,104.2216808682715 157.9587636999786,104.61443112939014 157.09424009057693,105.17550192569615 156.39781829412095,105.51214383580373 153.97234927886166,106.35374674829654 152.17125842592213,106.74649386340752 151.69096753187478,106.74649386340752 151.47483662958257,106.66233381608617 151.30673481652047,106.38180013280362 150.5382693859283,104.27778808400035 149.9859348576283,102.65067402855493 149.72177486587316,101.72489779876196 148.52104763069656,99.0878205850604 148.01674219185952,98.16203196247807 147.63250947662164,97.20818577124737 147.60849493183196,96.98375087635941 147.63250947662164,96.87153335809126 147.8006112895673,96.70320699180593 148.4730185412336,96.25433616136434 149.45761487423442,95.8054645738157 150.44221120723523,95.41270131376223 151.69096753187478,94.82355533694499 152.8916947671678,94.09413470150321 153.39600020600483,93.86969718075125 153.85227655537892,93.50498580580461 154.0203783683246,93.39276682064519 155.1490619694814,93.0 155.36519287189003,93.05610958128818 155.55730922950897,93.22443825413939 155.7494255870115,93.53304054465843 156.0616146682296,94.26246271788841 156.27774557063822,94.68328229311737 156.5899346518563,95.21631946641719 156.92613827763125,95.63713753339835 157.47847280593123,96.17017279635184 158.27095278108027,96.81542458105832 159.0154036671156,97.57289207150461 159.1594909352716,97.79732646944467 159.56773819518276,98.75117054939619 159.73584000824485,99.39641607692465 159.95197091053706,100.6027404757915 159.95197091053706,101.19187366022379 159.855912731844,102.17375940323109 159.7598545529181,102.67872780346079 159.66379637410864,102.87510414479766 159.1594909352716,103.49228598875925 158.3429964153329,104.33389528773841 157.38241462712176,105.03523433755618 156.15767284703907,105.62435771123273 155.26913469296414,105.90489219271694 154.74081470945384,106.15737297345186 154.04439291299786,106.35374674829654 152.6515493200859,106.63428046109038 151.85906934482045,106.85870721843094 151.69096753187478,106.94286720364471 151.57089480839204,107.0831337866257 151.40279299532995,107.56003961563692 151.40279299532995,107.89667850991827 151.5228657189291,108.37358288138057 151.71498207654804,108.82243327394826 152.00315661297645,109.38349520036718 152.38738932833076,110.73003899867763 152.62753477541264,111.29109690437326 152.98775294597726,112.44126191386022 153.15585475892294,112.7778946350445 153.29994202707894,112.9181581432058 153.42001475056168,112.97426352577168 153.75621837645303,112.97426352577168 153.99636382365134,112.94621083603124 154.86088743293658,112.60957832768327 155.36519287189003,112.60957832768327 155.6053383188555,112.63763105295948 155.7494255870115,112.80594734262559 155.89351285528392,113.14257960260147 156.27774557063822,114.65741950453958 156.39781829412095,115.27457403030712 156.80606555414852,116.36861717305146 157.02219645644072,117.60291685923585 157.5024873506045,119.48240766211529 157.59854552941397,120.1556548710505 157.55051644006744,120.35201831947779 157.45445826114155,120.4642259394459 156.18168739182875,121.05331516769365 155.4612510506995,121.24967795412522 154.74081470945384,121.64240309243905 154.04439291299786,121.83876544429222 153.44402929535136,122.09123111254303 153.29994202707894,122.25954142500996 153.15585475892294,122.84862668061396 153.13184021413326,123.01693651420646 153.29994202707894,123.80238099751296 153.6361456529703,124.7280804492184 154.06840745778754,125.73793072559056 154.66877107531764,127.56126180061256 154.86088743293658,127.98202873679111 155.43723650602624,129.58093702991027 155.65336740831845,130.02975166690885 155.86949831061065,130.73102302252664 156.01358557876665,131.01153104758123 156.22971648117527,131.23593725488172 156.42183283891063,131.32008953380864 156.54190556250978,131.32008953380864 158.3189818705432,130.87127707208856 159.61576728476211,130.36636214811006 159.6878109187819,130.28220956772566 159.83189818705432,129.74924260744592 160.0,129.72119168526842 160.04802908934653,129.66508983197855 160.02401454478968,129.4406823006575 159.3996363823535,127.14049419929506 159.11146184592508,125.90623873259756 159.06343275657855,125.5415712496324 158.7992727648234,124.70002899799147 158.41504004935268,123.15719462762354 158.27095278108027,122.7083684047102 158.07883642346133,121.6704548659036 158.102850968251,121.50214418099495 158.15088005759753,121.41798879863927 158.27095278108027,121.50214418099495 158.3429964153329,121.61435131609323 158.60715640697163,122.25954142500996 158.89533094351646,123.18524624145357 159.0874473012518,124.13899935234804 159.44766547170002,125.1488518632541 159.56773819518276,125.7659820674453 159.9279563658638,126.94413575783256 160.0,127.56126180061256 160.36021817056462,128.7674585719069 160.4562763493741,128.90771365581895 160.5283199835103,128.93576466370723 160.96058178821113,128.87966264496208 162.16130902350415,128.57110133036622 162.71364355180413,128.37474394397577 163.3140071692178,128.23448857938638 164.5387489493005,127.78567091599689 165.69144709524699,127.30880131962476 166.38786889170296,127.11244300220278 167.06027614348568,126.77582840697141 168.06888702104334,126.46726465408574 168.5731924599968,126.35505956434645 169.50975970341824,125.93429005672806 170.6624578492483,125.56962261217996 171.5750105481129,125.3171602426446 171.98325780814048,125.1488518632541 172.31946143403184,125.09274904645281 172.39150506816804,125.1769032671873 172.29544688935857,125.26105746132089 171.98325780814048,125.40131439242396 168.83735245175194,126.43921338609653 166.62801433866844,127.33685249599512 162.47349810472224,128.7113565177424 162.32941083644982,128.79550959460903 162.28138174698688,128.90771365581895 162.25736720231362,129.07601965896902 162.30539629177656,129.24432555571548 162.49751264951192,129.74924260744592 162.8817453646334,131.06763261719607 162.9537889987696,131.23593725488172 163.24196353531443,131.5725462110713 164.05845805525314,134.1251502793457 164.61079258355312,135.5837701880373 164.77889439638238,136.17282596291625 165.0670689329272,136.78993061510846 165.7634907293832,139.09003535471857 166.00363617634866,139.6790833726991 166.2197670787573,140.38032931415364 166.31582525768317,140.82912574737566 166.2918107128935,140.9693744777178 166.14772344462108,141.0815734086791 166.17173798941076,141.16572257597 166.31582525768317,141.44621960807126 166.6520288833417,141.75476600209367 166.9642179646762,142.45600647712126 167.46852340351325,143.99872902149218 167.51655249285977,144.41946998247295 167.78071248461492,145.0085062108701 167.8047270292882,145.20485133075272 167.70866885059513,145.34509775633342 167.73268339515198,145.45729484368348 167.92479975288734,145.9341319372761 168.23698883410543,146.2426731309679 168.42910519172437,146.55121396726463" stroke="#4dd2ff" stroke-linecap="round" stroke-linejoin="round" stroke-width="0.5"><title>2023-08-04 9.2km</title><desc>9582211082</desc></polyline><polyline fill="none" points="42.31744830100797,206.8611910303298 41.64400178589858,205.84325724595692 40.77248276700266,203.2984124647046 40.653639264404774,202.55809121459606 40.85171176865697,202.00284945816384 40.77248276700266,201.49387723157997 40.53479576180689,201.12371524173068 40.13865075306967,200.9386341298814 39.980192749528214,200.75355294012115 38.633299719775096,197.79224329683348 38.237154711270705,196.3578517610731 37.95985320513137,194.3682041343127 37.80139520158991,194.09057816746645 37.44486469379626,193.72040993874543 37.28640669025481,193.39651248281007 36.61296017537825,191.45312273103627 36.0583571633324,189.64853883368778 35.74144115624949,189.1395522915409 35.58298315294087,188.49175038465182 34.94915113877505,187.01105672397534 33.721101611852646,183.3555728760839 33.364571104058996,182.61521801212803 33.04765509720892,181.5046833762899 32.69112458918244,180.67178055646946 32.17613607784733,178.31188065634342 32.17613607784733,177.57151729028556 31.81960557005368,175.39669268473517 31.42346056131646,174.23986669827718 31.46307506226003,173.96222800808027 31.581918564857915,173.82340859723627 35.34529614751227,172.4814853630087 36.29604416852817,172.2501188737806 39.10867373039946,171.13955802848795 40.41595225920901,170.76937045605155 42.87205131328665,169.75135302278795 46.278898388147354,168.59451216610614 46.59581439523026,168.4094173462072 47.11080290633254,167.76158486228087 47.19003190821968,167.39139444261673 46.991959403734654,166.4196431057644 46.55619989428669,165.03142318030586 45.961982381064445,163.87456989040948 45.80352437775582,162.81026217213366 45.09046336193569,160.91301158140413 44.81316185602918,159.80242206642288 43.9416428366676,158.27535689721117 43.505883326986805,156.9796610743797 43.2285818210803,156.47063666937174 42.99089481588453,155.45258608928998 42.91166581399739,155.36003591952613 42.87205131328665,155.40631100689643 42.87205131328665,155.82278657323332 43.149352819425985,156.51691163974465 43.9416428366676,158.69182974271826 44.41701684705913,159.8949712998292 45.09046336193569,161.3294819254079 46.39774189051241,164.5686822301068 47.0711884056218,167.02120371052297 47.0711884056218,167.25257295460324 46.95234490302391,167.6227634914394 46.79388689948246,167.76158486228087 46.318512888858095,168.0392274725018 44.932005358627066,168.5019647658919 41.60438728518784,169.79762659367407 38.35599821386859,170.76937045605155 37.12794868671335,171.37092510293587 35.424525149166584,171.87993223741069 34.19647562224418,172.43521207483718 33.324956603115425,172.66657846668386 32.334594081388786,173.12931088462938 31.38384606037289,173.40695010128547 30.591556042898446,173.73086229889304 29.759651524713263,174.0547742577619 28.29391499259509,174.42495906091062 27.422395973466337,174.7488705077849 27.26393796969205,174.7488705077849 27.065865465439856,174.5175052129489 26.035888442769647,171.97247892568703 25.44167092978023,169.6588058664638 24.451308408053592,166.37336917890934 23.817476393887773,163.78202149551362 23.34210238349624,162.34751888134633 23.223258880898356,161.65340303102857 23.104415378300473,161.6071286019578 23.104415378300473,161.74595187447267 23.38171688420698,162.94908506423235 24.253235903568566,165.40161558950786 24.41169390687719,165.95690361814923 24.530537409707904,166.97492984714336 26.11511744442396,172.52775864629075 26.55087695410475,175.072781715804 26.748949458356947,175.9056951534876 26.709334957646206,175.99824099353282 26.11511744442396,176.0445139061485 26.313189948676154,175.99824099353282 26.352804449619725,175.76687635687995 26.035888442769647,174.84141659154557 25.203983924351633,171.78738552948926 25.08514042175375,170.8619173783809 24.847453416557983,170.02899437505403 24.68899541324936,169.19606979194214 24.134392400970683,167.71531107698684 23.857090894831344,166.60473876420292 23.38171688420698,165.2165194240515 23.0648008773569,163.87456989040948 22.94595737475902,162.9953593519167 22.906342874048278,162.11614705325337 22.98557187570259,162.06987267293152 23.104415378300473,162.16242142856936 23.69863289128989,162.94908506423235 24.05516339931637,163.7357472908334 24.847453416557983,165.95690361814923 25.83781593828462,169.6588058664638 26.630105955991894,173.08303766473546 27.065865465439856,174.61005134542938 27.343166971579194,174.7488705077849 28.888132505584508,174.47123213938903 30.908472049981356,173.68458914244547 31.661147566512227,173.26813051488716 32.651510088238865,172.89794473652728 33.87955961516127,172.71285173032084 35.70182665530592,172.01875226257835 36.533731173723936,171.55601867454243 37.524093695450574,171.27837828782503 38.79175772354938,170.67682351419353 41.16862777573988,169.9827208284405 41.92130329227075,169.6588058664638 45.09046336193569,168.59451216610614 46.47697089263238,167.90040618935018 46.675043396884575,167.6227634914394 46.675043396884575,167.25257295460324 45.68468087515794,163.82829569544992 45.248921365477145,163.04163363474072 45.01123436028138,162.39379323244793 43.26819632179104,158.36790645259316 42.95128031494096,156.84083629515953 42.95128031494096,155.49886116676498 43.03050931659527,155.2674857302336 43.2285818210803,155.08238529326627 44.02087183832191,154.61963385922718 47.50694791506976,153.37020255168318 48.734997442224994,153.04627533597522 49.32921495521441,153.0 50.04227597080171,153.32392724975944 50.59687898308039,153.74040479128598 52.10223001614213,155.91533664558665 53.36989404424094,158.04398292355472 53.76603905274533,159.24712625559187 54.47910006856546,160.72791352393688 55.073317581787705,161.74595187447267 55.825993098085746,163.45810195998638 56.34098160942085,164.19848911874578 57.01442812429741,165.4941636431031 57.09365712595172,165.81808167687268 57.01442812429741,165.95690361814923 56.73712661815807,166.09572551568272 55.94483660068363,166.23454736926942 54.20179856242612,166.65101266661077 52.934134534560144,166.83610822763876 50.517649981426075,167.57648969144793 49.131142450729385,167.80785864286008 48.49731043702923,168.0392274725018 47.15041740727611,168.31686990702292 46.635428895941004,168.59451216610614 45.36776486807503,168.96470157173462 42.04014679486863,170.21408851223532 40.29710875637829,170.67682351419353 39.22751723299734,171.13955802848795 35.74144115624949,172.4814853630087 34.394548126729205,172.8053982431884 33.91917411610484,173.0367644399521 33.285342102404684,173.49949646781897 31.581918564857915,173.91595487605082 30.195411034161225,174.47123213938903 29.95772402896546,174.7951435521245 29.95772402896546,174.98023568073404 30.116182032739744,175.3041467180592 30.7500140464399,175.9056951534876 30.948086550692096,176.27587839664193 31.10654455423355,177.4789717819076 31.304617058718577,178.17306262030615 31.77999106911011,178.9596975778113 31.898834571707994,179.51496846438386 32.17613607784733,180.25532855433994 32.80996809178032,182.33758461632533 33.76071611279622,184.88255084166303 34.434162627439946,187.14987196671427 34.83030763617717,188.0290341518994 35.58298315294087,190.71278151628212 35.89989915979095,191.45312273103627 36.33565866947174,192.88753028362407 36.7714181789197,193.85922306103748 36.81103267963044,194.3682041343127 36.69218917726539,194.78464275537408 36.7714181789197,195.3398936361773 36.92987618246116,195.6175188133493 37.563708196394145,196.12649784897803 37.80139520158991,196.63547629481764 38.910601226147264,200.105768161593 39.346360735595226,201.21625576843508 39.3859752365388,201.54014745834866 39.346360735595226,201.67895810955088 39.18790273205377,201.8177687167772 39.306746234884486,202.3730107070587 39.46520423819311,202.6506314391154 39.94057824858464,202.92825199564686 40.21787975472398,203.3909525332274 40.693253765115514,204.82532110266038 41.24785677739419,207.0" stroke="#4dd2ff" stroke-linecap="round" stroke-linejoin="round" stroke-width="0.5"><title>2023-08-02 7.3km</title><desc>9569357200</desc></polyline><polyline fill="none" points="111.66995776304975,207.0 111.50645572785288,206.57031717244536 110.934198604431,205.5677223240782 110.48456800775602,204.4696397073567 109.99406190216541,202.75089635772747 109.99406190216541,202.4166955051187 110.19843944604509,201.93926528826705 110.15756393736228,201.4618345684139 109.87143537588418,201.03214649055735 109.5035557965748,200.88891704083653 109.2583027437795,200.65020119061228 108.89042316447012,199.79082308872603 108.23641502391547,197.8810881395184 107.66415790049359,196.59201249977923 107.37802933878265,194.96872684921254 107.37802933878265,194.5390326155466 107.25540281250142,194.0615941004362 106.8057722155936,193.48866721824743 106.5605191627983,193.01122759652208 105.94738653069362,191.43567327648634 105.33425389858894,189.5259031211317 104.96637431927957,188.80973723818897 104.72112126671709,187.47289122873917 103.16785193234682,183.22360451036366 102.2277152298484,180.40663966847933 101.81896014185622,179.49947777180932 101.24670301866718,177.6374029261642 101.24670301866718,177.016709610587 101.16495200083591,176.44376118012588 101.0832009834703,175.0591328162409 100.91969894827344,174.29519811467617 100.6335703865625,173.4835160834482 100.7561969126109,173.2447857975494 101.12407649192028,173.0538014782651 102.2277152298484,172.67183259813464 103.53573151142336,172.00338628343889 105.29337838990614,171.28719270930742 111.54733123653568,168.89987262009527 115.3896290641278,167.56296787661267 115.96188618731685,167.3242344718019 116.28889025747776,167.08550094094244 116.41151678422466,166.79902053819387 116.5341433105059,166.03507191158133 116.37064127530903,165.0323873848538 115.1852515200153,161.69008960499195 114.20423930860125,159.11172875901684 113.95898625603877,158.20452423134702 113.01884955330752,156.2946140257991 112.4465924303513,154.43244382424746 112.201339377556,153.3342372973275 111.99696183344349,153.1432445862447 111.75170878064819,153.0 111.30207818374038,153.0 110.6889455516357,153.2864891271165 109.13567621749826,153.85946683801012 107.9094109532889,154.1459554216417 107.01014975970611,154.48019187379396 105.53863144293427,154.81442807929125 104.43499270500615,155.33965590407024 102.35034175612964,156.1036225624266 100.83794793044217,156.53335324162617 99.40730512235314,157.05857907410245 96.3007664536126,158.01353357319022 93.8482359254267,158.87299090161105 93.03072574944235,159.06398119754158 91.76358497655019,159.25497141308733 88.37091774586588,160.4486584365368 86.3680178145878,161.35585847112816 84.40599339199252,161.8810787135153 83.75198525120504,162.16756222568802 83.6293587249238,162.45404555668938 83.46585668972693,163.26574734403403 83.79286075988784,164.36392980106757 84.65124644502066,166.2260591890954 85.42788111208938,168.3269139273907 85.95926272659563,169.99804142327048 86.3680178145878,171.04846126626944 87.55340756988153,174.67716562649002 88.20741571066901,176.49150691044633 88.82054834277369,177.44642045805813 89.22930343076587,177.6374029261642 89.84243606287055,177.54191170219565 91.10957683576271,177.016709610587 94.21611550473608,175.96630360156996 94.66574610141106,175.72757462362642 95.19712771568447,175.29786214636988 95.2380032246001,175.1546245632926 95.1562522072345,174.62941970507381 94.46136855753139,172.3376095640706 93.6029828726314,168.61339336432866 93.3986053285189,168.08818092491128 92.17234006430954,163.4089886850852 91.76358497655019,161.54684772054316 91.76358497655019,161.21261648109066 91.8453359939158,161.06937444585492 92.17234006430954,161.26036381616723 92.4584686262533,161.69008960499195 92.94897473161109,162.97926452633692 93.43948083743453,163.93420654788497 94.09348897822201,166.89451402591658 94.33874203101732,167.51522120571462 94.91099915420637,169.80705573549494 95.1562522072345,170.5232516490505 95.44238076847978,171.62141651811544 95.76938483887352,172.76732484836248 95.89201136538759,173.34027792690904 96.01463789190166,173.5790081625746 96.1372644181829,173.62675419452717 97.36352968239225,173.4835160834482 98.91679901676252,172.8150709659385 101.57370708906092,172.00338628343889 102.63647031784058,171.71690898950328 103.12697642343119,171.52592402644223 104.51674372283742,171.00071496260352 105.94738653069362,170.66649069602136 107.21452730358578,170.0457878325251 111.22032716637477,168.5179002387158 114.73562092310749,167.3719811627816 115.51225559040904,167.13324765724246 115.75750864320435,167.1809943683911 115.75750864320435,167.3242344718019 115.59400660800748,167.46747452981072 114.12248829123564,168.2314207413292 113.30497811525129,168.4701536684588 111.71083327173255,169.18635169477784 109.13567621749826,169.99804142327048 105.66125796921551,171.43043151454185 103.00434989691712,172.3376095640706 101.94158666813746,172.62408646557014 99.97956224554218,173.34027792690904 99.16205206955783,173.67450022153207 98.95767452567816,173.81773827242432 98.91679901676252,173.9609762778564 98.95767452567816,174.2474521532131 99.40730512235314,175.10687869231333 99.69343368406408,176.2527782091638 100.22481529833749,177.58965731671196 100.7561969126109,178.30584093055222 100.8788234393578,178.59231405920582 102.18683972093277,182.3164482524444 102.96347438823432,184.9424219141074 104.0262376172468,187.7593585626455 104.80287228431553,190.19432359101484 105.66125796921551,192.62927553715417 105.90651102201082,193.67964292599936 105.94738653069362,194.5390326155466 106.02913754829206,194.9209830655309 106.23351509240456,195.35067693714518 106.64227018039674,195.78037040118943 107.62328239181079,198.21529233650654 107.99116197112016,199.4566200534755 108.60429460299201,201.22311901993817 108.60429460299201,201.4140914688178 108.35904155019671,201.74829306072206 108.31816604128107,201.89152223887504 108.60429460299201,202.46443849912612 109.38092927029356,203.3238115318236 110.15756393736228,204.94706725885044" stroke="#4dd2ff" stroke-linecap="round" stroke-linejoin="round" stroke-width="0.5"><title>2023-07-31 6.0km</title><desc>9555944449</desc></polyline><polyline fill="none" points="168.32588300434873,205.31099139896105 167.6247560144402,204.0826178198913 166.35396334552206,200.75575711560668 166.26632247166708,200.39747845043894 166.310142908711,200.03919952103752 166.7045268402435,199.68092032737331 166.7045268402435,199.4761892411043 166.26632247166708,198.75962975935545 165.82811810309067,198.60608116161893 164.51350499736145,195.53509901513462 163.856198444264,193.6413170163578 163.33035320183262,191.3892423286161 162.58540577511303,190.05846601564554 161.27079266915098,186.21966776787303 160.92022917419672,185.55427298735594 160.52584524266422,183.86518983653514 160.17528174747713,182.68794659202104 159.47415475780144,180.6405602422601 159.0359503889922,179.66804870363558 158.3786438361276,177.7230197863828 157.633696409408,175.82916835843935 157.50223509897478,175.06138864948298 157.1516716037877,174.1400513970002 156.8887489826884,172.34855729318224 156.18762199301273,171.01772882521618 156.09998111939058,169.68689671179163 156.27526286663488,169.22622320777737 156.53818548773415,168.97029329455108 159.0359503889922,167.997758394602 159.95617956342176,167.48589713900583 161.31461310596205,166.97403534402838 162.05956053268164,166.61573176670936 163.19889189116657,166.25742792512756 163.94383931788616,165.8479374969029 166.222502034856,164.9265827711497 167.1427312088199,164.6706505928305 169.28993261535652,163.9028532487864 172.83938800147735,162.82793492850033 173.10231062257662,162.67437497436185 173.1461310593877,162.57200164458482 172.83938800147735,162.52081497159088 171.7876975168474,162.82793492850033 170.2978026631754,163.33980109202093 169.28993261535652,163.80048017800436 168.23824213049375,164.0564128146798 165.43373417132534,165.02895560473553 164.20676193921827,165.23370120720938 163.76855757040903,165.02895560473553 163.50563494930975,164.77302348031662 163.02361014368944,163.74929363434785 162.01574009587057,160.57571740209823 161.31461310596205,159.04010855662636 159.95617956342176,155.25225264957407 159.73707737913355,154.48444041932817 159.21123213670217,153.40950125842937 159.12359126284719,153.0 159.29887301032431,153.30712597622187 159.64943650527857,154.17731518758228 159.95617956342176,155.35462752179592 160.48202480585314,156.3271877327934 161.31461310596205,158.1699280559551 161.92809922224842,160.37096983654192 162.80450795940123,162.62318831225275 163.19889189116657,164.26115882696467 163.1550714543555,165.18251481471816 162.84832839644514,165.5408194491465 162.23484228015877,165.8479374969029 157.633696409408,167.84420007455628 153.90895927604288,169.07266527594766 152.33142354898155,169.4821529861365 151.63029655907303,169.533338925743 151.4550148115959,169.4821529861365 151.27973306411877,169.1750372359529 151.06063087983057,168.30487488914514 150.40332432696596,166.61573176670936 149.5269155895803,164.00522629817715 149.26399296848103,162.77674828257295 148.2999433572404,159.96147444634698 147.77409811504185,157.24855876801303 147.55499593052082,156.6343116054777 147.37971418327652,156.53193700269912 147.2482528728433,156.53193700269912 146.9853302515112,156.8390607459005 146.9853302515112,157.35093321977183 147.81791855185293,159.29604370114976 148.5190455415286,161.3435200045933 150.40332432696596,167.84420007455628 150.92916956916451,170.24994151241845 150.84152869554237,170.4546849144681 150.05276083177887,171.22247190377675 150.49096520082094,170.96654304218828 150.49096520082094,170.4546849144681 150.31568345311098,169.78926854216843 149.8336586477235,168.40724701079307 149.35163384210318,166.61573176670936 148.3875842310954,162.26488152582897 147.6426368043758,160.11503525820444 146.9853302515112,157.55568205821328 146.85386894084513,156.6343116054777 146.9853302515112,156.3271877327934 147.2482528728433,156.27600040173274 147.55499593052082,156.42956237844191 147.68645724118687,156.58312430678052 148.1246616099961,158.1699280559551 148.5190455415286,158.7841732769739 148.6505068524275,159.34723071398912 149.00107034738176,160.16622218463453 149.22017253166996,161.13877276267158 149.74601777410135,162.52081497159088 149.92129952134565,163.80048017800436 150.49096520082094,165.74556483590277 150.66624694806524,166.76929047514568 151.19209219049662,168.81673528192914 151.36737393797375,169.12385125862784 151.58647612226196,169.2774091742467 152.50670529645868,169.12385125862784 153.8651388392318,168.71436324639944 156.27526286663488,168.15131666621892 157.23931247764267,167.74182783422293 158.816848204704,167.2811524857534 159.91235912637785,166.8204767004645 162.1910218433477,166.00149644777412 163.54945538635366,165.28488759428728 164.51350499736145,165.13132841675542 166.48542465618812,164.26115882696467 168.19442169368267,163.595733971335 171.08657052693889,162.77674828257295 172.4888245065231,162.26488152582897 172.7079266908113,162.21369482041337 172.88320843828842,162.31606822583126 172.83938800147735,162.57200164458482 172.57646538014524,162.77674828257295 170.42926397384144,163.69810708553996 167.7123968882952,164.61946414085105 164.6011458709836,165.89912381928298 161.84045834862627,166.8204767004645 157.9842599045951,168.35606095258845 156.53818548773415,168.7655492668855 156.31908330344595,169.02147928791237 156.18762199301273,169.43096704120398 156.18762199301273,169.99401213854435 156.4067241770681,170.76179985582712 156.84492854587734,171.73432922258507 157.28313291445374,172.5532998108538 157.4145942251198,173.11634128948208 157.32695335149765,173.6793821156025 156.7572876722552,174.1400513970002 156.66964679863304,174.39597858686466 156.7134672354441,174.65190564194927 157.9404394675512,178.3884252922726 159.21123213670217,181.76662380227936 160.48202480585314,185.55427298735594 160.87640873738565,186.5267727439641 162.01574009587057,190.00728223851183 162.27866271720268,191.03095675678924 162.1472014063038,191.6963440370746 162.23484228015877,192.1058126796852 162.41012402786873,192.46409745892743 162.89214883325621,192.92474892974133 164.33822324988432,197.2241415976605 164.95170936593786,198.65726403298322 164.99552980274893,199.01554398136795 164.64496630779468,199.32264086959185 164.7764276182279,199.78328583817347 164.95170936593786,200.14156495625502 165.38991373451427,200.44866113300668 165.69665679242462,200.9093050340598 166.35396334552206,202.59832893527346 166.79216771409847,203.92907090409426 167.2303720829077,205.05508049274795 167.2303720829077,205.7716306906077 168.01913994643837,207.0" stroke="#4dd2ff" stroke-linecap="round" stroke-linejoin="round" stroke-width="0.5"><title>2023-07-29 5.9km</title><desc>9543628546</desc></polyline><polyline fill="none" points="52.29285213374533,265.98017230583355 51.87926084687933,264.8529919536086 51.87926084687933,264.316238528525 52.10903378413059,263.6184582307469 52.063079196959734,263.35008093871875 51.695442497497424,262.65229931799695 51.09803286101669,262.3302459398401 50.82230533659458,262.00819235824747 50.684441574150696,261.68613857321907 50.50062322453596,261.04203039221466 50.3627594623249,259.75381158769596 50.08703193766996,258.46558952663327 49.30580395180732,256.69427887472557 48.57053055311553,254.2251689041732 48.06503009144217,253.58105129183969 47.78930256702006,253.04428599309176 47.191892930539325,251.32663323695306 46.13493742002174,248.69646623241715 45.90516448277049,247.4082162154955 45.123936496907845,244.34860937099438 44.940118147293106,242.899315505696 44.48057227302343,241.77208409371087 43.331707587698475,239.62496974301757 42.780252538621426,238.01462804194307 42.64238877641037,237.1020988188102 42.22879748977721,235.9211762212799 42.04497913992964,235.16967859782744 41.447569503681734,233.7203586222604 41.355660328874364,233.23725104756886 41.49352409085259,232.16367701924173 41.355660328874364,231.1437795968377 41.40161491627805,230.9827429751167 41.539478678489104,230.87538519885857 42.872161713428795,230.60699065966764 47.743347979849204,228.72822492587147 49.76534982584417,228.19143344374606 51.603533322457224,227.38624516013078 53.90126269310713,226.15162065328332 54.86630902905017,225.88322362559848 56.015173714607954,225.72218534105923 56.79640170070343,225.34642914583674 57.85335721098818,225.13171119539766 58.40481226006523,224.9169931547367 58.5886306099128,224.70227502333 58.54267602227628,224.64859547646483 58.31290308549069,224.5949159237789 56.75044711329974,224.9169931547367 52.29285213374533,226.52737625467125 50.3627594623249,227.0104901921004 49.443667714018375,227.439924418577 48.57053055311553,227.6546413959004 47.191892930539325,228.29879178549163 46.22684659482911,228.51350840099622 44.71034521004185,229.1039786268957 43.607435112120584,229.4260530071915 42.32070666458458,230.07020115706837 40.52847775537521,230.4996328043635 37.17379287374206,231.51953151630005 36.484474062453955,231.6805679682875 36.11683736345731,231.6268891565851 35.93301901360974,231.51953151630005 35.059881852706894,228.5671875406406 34.416517628822476,227.22520735056605 33.7271988177672,225.18539069150575 33.40551670570858,223.68236266396707 32.808107069227844,221.6425318196998 32.30260660778731,219.60269280779175 31.613287796499208,217.45548502419842 31.705196971306577,216.54291897558141 31.797106146113947,217.29444407549454 31.889015320921317,219.06589171028463 32.900016244268045,224.27283848938532 33.267652943497524,225.56114700547187 34.14079010440037,228.24511261750013 34.416517628822476,229.53341108874884 34.64629056607373,231.03642185463104 34.784154328284785,232.86150039493805 34.46247221645899,234.04243008425692 33.77315340493806,234.52553689549677 30.234650173923,235.65278434025822 28.99387631402351,235.97485458065057 28.35051208990626,236.08221128222067 28.074784565716982,235.9211762212799 27.753102453658357,235.65278434025822 26.74210153054446,233.93507295288146 25.271554733160883,230.23123806720832 24.30650839745067,228.406150104478 23.111689124489203,225.13171119539766 22.60618866304867,224.21915889711818 22.42237031343393,223.4676440123585 22.100688201375306,222.55508873338113 21.733051502145827,221.10573287162697 21.411369390087202,220.13949333963683 21.503278565127403,219.71005295944633 21.68709691450931,219.49533263361081 22.192597376415506,219.1732519750949 23.709098760969937,218.9585314230062 24.21459922241047,218.7438107804046 24.85796344652772,218.26068900362588 25.225600145524368,218.1533285465557 26.052782719256356,218.1533285465557 27.845011628232896,218.42172964673955 30.096786411711946,217.99228781845886 30.96992357284762,217.50916532916017 32.808107069227844,216.00611465406837 33.81910799257457,215.41562924697064 37.26570204878226,214.18097572948318 40.43656858056784,213.53680748917395 41.95306996512227,213.05368077429011 42.412615839159116,213.0 42.780252538621426,213.26840381522197 43.515525937313214,214.4493789227563 44.98607273469679,216.4892385689309 45.07798190950416,217.18708341487218 45.81325530796312,219.1732519750949 46.1808920071926,220.83733318536542 46.87021081871353,222.93084698735038 47.32975669298321,224.004440471821 47.92716632923111,225.13171119539766 48.47862137830816,226.52737625467125 48.66243972769007,226.79577294323826 48.892212665174156,226.95681088842684 49.30580395180732,227.0104901921004 50.17894111271016,226.90313157893252 52.20094295893796,226.3663381737424 53.395762231666595,225.88322362559848 54.86630902905017,225.6148264564108 55.87730995216407,225.34642914583674 57.20999298733659,224.75595456466544 58.22099391021766,224.54123636556324 58.5886306099128,224.64859547646483 58.49672143510543,224.86331363028148 58.03717556083575,225.07803169370163 55.87730995216407,225.66850590147078 53.579580581514165,226.42001753981458 52.52262507076375,226.58105560357217 50.684441574150696,227.439924418577 48.11098467907868,228.29879178549163 45.72134613338858,228.94294136058306 43.83720804913901,229.85548519762233 42.412615839159116,230.2849170260597 41.079932804219425,230.60699065966764 39.60938600706868,231.3584950133809 39.379613069817424,231.6268891565851 39.287703895010054,231.8952831585775 39.33365848264657,232.27103452384472 39.471522244857624,232.5931069018552 40.20679564331658,233.34460832591867 40.57443234254606,234.04243008425692 40.75825069239363,235.4380707333912 41.355660328874364,236.7263510164339 42.22879748977721,239.3029018099769 42.688343363814056,240.48381656903075 43.239798412891105,242.09415046597132 43.6533896997571,243.81183434609557 44.29675392340869,245.3684803606011 45.16989108431153,248.0523416310316 46.2728011822328,251.64869356970303 46.732347056269646,252.88325629307656 47.14593834313564,254.60090380196925 47.0540291685611,255.0303147743689 47.14593834313564,255.4597253850079 47.375711280386895,256.15751685533905 47.83525715442374,256.3722217309987 47.9731209166348,256.5332503282698 48.11098467907868,257.0700119519024 49.90321358805522,261.7398142181337 50.04107735049911,262.43759708851576 49.76534982584417,263.1353790034191 49.995122763095424,263.9405107945786 50.13298652530648,264.15521239081863 50.82230533659458,264.7993166364613 51.052078273380175,265.22871901473263 51.695442497497424,267.0" stroke="#4dd2ff" stroke-linecap="round" stroke-linejoin="round" stroke-width="0.5"><title>2023-07-26 6.1km</title><desc>9525965649</desc></polyline><polyline fill="none" points="110.95155015098862,263.8022177545063 110.40397264342755,262.38604951347224 109.97373317321762,260.9698766483634 109.62171906116419,259.46233271082747 109.15236691199243,257.81773334823083 109.07414155360311,257.22384871260147 108.1745499339886,255.57924086178537 107.31407099380158,252.9295817624661 107.23584563564509,252.56411027151626 107.27495831460692,252.10727047472028 107.35318367276341,251.83316636574455 107.31407099380158,251.51337801956106 107.04028223990463,251.0108529989957 106.37536669499241,250.64537989118253 106.29714133683592,250.4626432217192 105.82778918743134,248.6352722926531 104.81085953046568,246.21399395170738 104.73263417230919,245.20893104744027 104.81085953046568,244.79776827889145 104.77174685150385,244.56934435013682 104.4979580976069,244.06681128338096 103.911267911084,243.51859272818547 103.63747915741988,242.9703734802315 102.89433825411834,240.91454512730706 102.03385931369849,238.0820545440365 101.01692965673283,235.56934579912922 100.03911267919466,232.371331794071 99.68709856714122,231.64035385282477 99.56976052979007,231.09211958837113 99.2568590969313,230.1783942739421 98.94395766407251,228.8991755991883 98.74839426856488,227.8940725644934 98.59194355201907,227.30014694898273 98.43549283547327,226.34072692861082 98.08347872341983,225.28993113711476 98.00525336526334,224.60462816231302 98.08347872341983,224.2848197367275 98.23992943996564,224.1477589107235 99.88266196264885,223.50814114967943 100.70402822387405,222.9598966035992 101.60361984348856,222.64008696496603 102.6987748586107,222.00046698006918 105.28021167987026,221.31515880624647 106.4535920531489,220.76691148753162 108.37011332949623,220.3100381924305 108.72212744154967,220.127288739488 109.19147959095426,219.80747701175278 110.20840924791992,219.5333524857706 111.34267694200389,218.98510291421553 112.8289587481413,218.57391528051812 113.14186018123291,218.34547753783409 113.0636348228436,218.2541024069069 112.75073338998482,218.299789974757 111.96847980772145,218.52822774159722 107.11850759806111,220.40141288982704 105.90601454582065,220.76691148753162 101.99474663450383,222.22890279715648 100.977816977771,222.45733849413227 98.70928158937022,223.50814114967943 97.65323925344273,223.7365761725523 96.71453495463356,224.10207195905969 95.26736582769081,224.4675674374157 93.85930937970988,224.78737572825048 93.46818258846179,224.78737572825048 93.31173187214881,224.65031506094965 92.88149240170605,222.64008696496603 92.56859096884727,221.7720310424629 91.35609791660681,217.06622395434533 91.04319648374803,216.2895324374258 90.65206969249994,214.27926558000036 90.3000555804465,213.63963326183148 90.18271754332818,213.59394520302885 89.8698161104694,213.63963326183148 89.67425271472894,213.73100936505944 89.67425271472894,213.86807348375442 89.8698161104694,214.91889695468126 90.6911823716946,217.56878831237555 90.96497112535872,218.71097786835162 91.62988667050377,221.04103523358935 92.25568953622133,223.55382816394558 92.68592900619842,226.2493534825917 92.52947828988545,226.52347376284888 92.37302757357247,226.5691604592721 90.88674576720223,227.16308707604185 87.9141821549274,227.98544566394412 87.01459053531289,228.442310872284 86.85813981876709,228.71642976618023 86.89725249796174,228.76211623166455 87.24926661001518,228.5336838560761 90.18271754332818,227.5285799744015 92.25568953622133,226.7062205199618 92.52947828988545,226.52347376284888 92.68592900619842,226.15798001730582 92.68592900619842,225.5183652214182 92.21657685679384,223.6908891776693 92.13835149887018,222.9142095267598 90.84763308800757,218.1170396747766 90.73029505065642,217.2946623711032 89.94804146862589,214.05082557472633 89.75247807288542,213.1370643498085 89.75247807288542,213.0 90.06537950597703,213.04568812137586 90.26094290148467,213.2284405589453 90.57384433434345,214.0051375591429 91.16053452086635,216.60934675997123 91.47343595395796,218.1627272569458 91.70811202866025,218.93941541851382 91.78633738681674,219.6247273469926 92.02101346151903,220.40141288982704 93.27261919295415,224.60462816231302 93.42906990949996,224.83306260764948 93.58552062581293,224.92443635204108 93.93753473786637,224.92443635204108 95.03268975298852,224.60462816231302 96.9100983501412,223.82795014805743 99.10040838038549,223.1883319153858 100.977816977771,222.41165136444033 102.07297199289314,222.09184132132214 103.16812700801529,221.68065663371817 104.22416934394278,221.17809704170213 105.39754971722141,220.94966067082714 107.86164850136265,219.99022659935872 109.42615566565655,219.3962901579216 112.47694463608786,218.57391528051812 112.75073338998482,218.57391528051812 112.8289587481413,218.6196028146951 112.8289587481413,218.71097786835162 112.71162071102299,218.8937279181555 112.28138124058023,219.07647789095063 109.81728245667182,219.80747701175278 108.13543725479394,220.44710023148218 104.4979580976069,221.63496942206984 100.50846482836641,223.09695780507172 99.45242249243893,223.59951517326408 96.94921102933586,224.37619359660312 96.40163352200761,224.65031506094965 96.24518280522898,224.83306260764948 96.28429548442364,225.01581007710774 96.40163352200761,225.28993113711476 96.9100983501412,225.88385950608063 97.066549066687,226.2493534825917 97.49678853689693,227.93975911659072 97.96614068606868,228.8991755991883 98.90484498487785,232.05152909632307 100.0,235.24954545981018 100.7431409030687,237.71657054050593 101.52539448533207,239.7267287480645 102.62054950045422,242.92468851152807 102.85522557515651,243.9754415723146 102.85522557515651,244.61502914546872 103.16812700801529,245.39166993054096 103.55925379926339,245.71146279069944 104.02860594820231,246.6708399564377 105.43666239641607,250.55401156609878 105.55400043376721,251.0108529989957 105.28021167987026,251.37632579889032 105.24109900090843,251.51337801956106 105.31932435906492,251.7874823306338 105.51488775457256,252.19863847258966 106.02335258293897,252.60979422472883 106.17980329948477,252.88389784301398 107.35318367276341,255.99039340909803 107.50963438930921,256.5842797337973 107.62697242666036,257.3608990852663 108.3310006505344,258.6400338090607 109.58260638220236,262.6144640586281 110.87332479283214,266.2690804224403 110.9124374720268,266.5431754082674 110.71687407628633,266.86295267305104 110.75598675548099,267.0 111.02977550937794,267.0 111.38178962119855,266.86295267305104 112.00759248691611,266.45181043221965" stroke="#4dd2ff" stroke-linecap="round" stroke-linejoin="round" stroke-width="0.5"><title>2023-07-23 5.7km</title><desc>9507119362</desc></polyline></svg>