<?xml version="1.0" encoding="utf-8" ?>
<svg baseProfile="full" height="200mm" version="1.1" viewBox="0,0,200,200" width="200mm" xmlns="http://www.w3.org/2000/svg" xmlns:ev="http://www.w3.org/2001/xml-events" xmlns:xlink="http://www.w3.org/1999/xlink"><defs /><rect fill="#1a1a1a" height="200" width="200" x="0" y="0" /><text alignment-baseline="middle" fill="#e1ed5e" style="dominant-baseline: central; font-size:9.0px; font-family:Arial;" text-anchor="middle" x="100.0" y="100.0">2023</text><line stroke="#e1ed5e" stroke-width="0.3" x1="100.0" x2="100.0" y1="15.0" y2="10.0" /><path d="M 100.0 14.0 a86.0,86.0 0 0,1 42.46469731375804,11.215312516191453" fill="none" id="id1" stroke="none" /><text fill="#e1ed5e" style="font-size:6.75px; font-family:Arial;" text-anchor="middle"><textPath startOffset="22.20632615414155" xlink:href="#id1">January</textPath></text><line stroke="#e1ed5e" stroke-width="0.3" x1="143.23703022742887" x2="145.7803849466894" y1="26.81831364943548" y2="22.513508569990506" /><path d="M 143.74570117128098 25.957352633546492 a86.0,86.0 0 0,1 28.547481713284135,27.462654790039103" fill="none" id="id2" stroke="none" /><text fill="#e1ed5e" style="font-size:6.75px; font-family:Arial;" text-anchor="middle"><textPath startOffset="19.985693538727396" xlink:href="#id2">February</textPath></text><line stroke="#e1ed5e" stroke-width="0.3" x1="172.23445277983987" x2="176.4835382374775" y1="55.19839476539836" y2="52.563006222186495" /><path d="M 173.08426987136738 54.67131705675599 a86.0,86.0 0 0,1 12.851231095245387,41.99856678651699" fill="none" id="id3" stroke="none" /><text fill="#e1ed5e" style="font-size:6.75px; font-family:Arial;" text-anchor="middle"><textPath startOffset="22.20632615414155" xlink:href="#id3">March</textPath></text><line stroke="#e1ed5e" stroke-width="0.3" x1="184.98032266829074" x2="189.97916517819016" y1="98.17113171792111" y2="98.06355123074" /><path d="M 185.9800911702706 98.14961562048488 a86.0,86.0 0 0,1 -9.607161424134198,41.387399972396054" fill="none" id="id4" stroke="none" /><text fill="#e1ed5e" style="font-size:6.75px; font-family:Arial;" text-anchor="middle"><textPath startOffset="21.466115282336823" xlink:href="#id4">April</textPath></text><line stroke="#e1ed5e" stroke-width="0.3" x1="174.80103733775053" x2="179.2010983576182" y1="140.37084112569926" y2="142.7455964860345" /><path d="M 175.68104954172406 140.8457921977663 a86.0,86.0 0 0,1 -30.038265399797805,32.042727171017184" fill="none" id="id5" stroke="none" /><text fill="#e1ed5e" style="font-size:6.75px; font-family:Arial;" text-anchor="middle"><textPath startOffset="22.206326154141568" xlink:href="#id5">May</textPath></text><line stroke="#e1ed5e" stroke-width="0.3" x1="143.8653032363475" x2="146.44561519142675" y1="172.8068346515853" y2="177.08958963109032" /><path d="M 144.38136562736335 173.6633856474863 a86.0,86.0 0 0,1 -40.68145358897372,12.25698825130547" fill="none" id="id6" stroke="none" /><text fill="#e1ed5e" style="font-size:6.75px; font-family:Arial;" text-anchor="middle"><textPath startOffset="21.466115282336833" xlink:href="#id6">June</textPath></text><line stroke="#e1ed5e" stroke-width="0.3" x1="102.19456741930631" x2="102.32365962044197" y1="184.97166512339345" y2="189.96999836594603" /><path d="M 102.22038585953345 185.97133177190398 a86.0,86.0 0 0,1 -42.740103519485714,-10.115201625700543" fill="none" id="id7" stroke="none" /><text fill="#e1ed5e" style="font-size:6.75px; font-family:Arial;" text-anchor="middle"><textPath startOffset="22.20632615414155" xlink:href="#id7">July</textPath></text><path d="M 99.81925306533755 120.99922214144158 l -0.17316789266547 20.11868722774533 a41.11943246930423,41.11943246930423 0 0,0 -0.7077247820544199,-0.012184123943252646 l 0.5194523646125578 -20.112725626522916" fill="#ff0f01" stroke="none" /><path d="M 99.09653310690486 120.98055641714683 l -0.906849039281567 21.05909754512589 a42.0786139154161,42.0786139154161 0 0,0 -0.7233753184803529,-0.03739024127811261 l 1.2692124261754087 -21.040367497085576" fill="#ff2203" stroke="none" /><path d="M 98.37488393609728 120.93702456842531 l -1.6428526648730073 21.16553233997703 a42.229195088676676,42.229195088676676 0 0,0 -0.724242122304185,-0.06249065776432488 l 2.006939104918734 -21.13411742993404" fill="#ff2503" stroke="none" /><path d="M 97.65516085044442 120.86867818915974 l -2.1669000869977664 19.285050146057667 a40.40640654843111,40.40640654843111 0 0,0 -0.6905119639651757,-0.08361138250812791 l 2.4985394740143314 -19.24489323482419" fill="#ff0000" stroke="none" /><path d="M 96.93821686468263 120.77559828337769 l -3.1624669288967477 21.45878385093913 a42.690564802182806,42.690564802182806 0 0,0 -0.7260732718874409,-0.11339771261780122 l 3.5313760643927057 -21.401167830974224" fill="#ff2f04" stroke="none" /><path d="M 96.22490169976321 120.6578951692458 l -3.8521453269373995 21.07950787283642 a42.42859481582538,42.42859481582538 0 0,0 -0.7173107251349284,-0.13747430768601998 l 4.214423666644024 -21.01007636680193" fill="#ff2a04" stroke="none" /><path d="M 95.86986931433489 120.58985236759428 l -9.380726947904032 46.765537862624186 a68.69710231923601,68.69710231923601 0 0,0 -1.1574105416954656,-0.24254663230420034 l 10.184328951028885 -46.59713524959344" fill="#32ff49" stroke="none" /><path d="M 95.51606077576429 120.51570834832081 l -4.5973284431449 21.0345066702096 a42.53104502046385,42.53104502046385 0 0,0 -0.7138731616656443,-0.16247520742362243 l 4.958721754203407 -20.95225472920829" fill="#ff2c04" stroke="none" /><path d="M 94.46302465271185 120.25689768951611 l -5.683882709571996 20.79435491498092 a42.55717326057298,42.55717326057298 0 0,0 -0.704967340520242,-0.19923081215945443 l 6.040981218196853 -20.693435309482947" fill="#ff2c04" stroke="none" /><path d="M 94.11515582081647 120.15858648285463 l -6.419409615509262 21.989745176407695 a43.90759072305593,43.90759072305593 0 0,0 -0.7236912362516648,-0.21804223295289313 l 6.796975826201173 -21.875987574349075" fill="#ff4706" stroke="none" /><path d="M 93.76903079525671 120.05430185196036 l -8.284247820828577 26.662755176012087 a48.920087312414736,48.920087312414736 0 0,0 -0.8020067551405666,-0.2567772364574325 l 8.741975921060083 -26.516205092894946" fill="#ffa70f" stroke="none" /><path d="M 93.08242187328487 119.8279376855182 l -9.005497614783959 25.812566517092606 a48.33839017735335,48.33839017735335 0 0,0 -0.783267078476262,-0.2808517070337539 l 9.448484253889948 -25.653727269018894" fill="#ff9d0e" stroke="none" /><path d="M 92.7421414339146 119.70592522655815 l -13.603108253154483 36.93401182244589 a60.35944338335607,60.35944338335607 0 0,0 -0.9718726317260185,-0.367479069483413 l 14.236851105640785 -36.69438450285584" fill="#94ff23" stroke="none" /><path d="M 91.7346041902142 119.30500536409082 l -16.382127256193396 38.26278400141469 a62.62228649386084,62.62228649386084 0 0,0 -0.9872830649417601,-0.43279588209568026 l 17.038330995792897 -37.97512356602456" fill="#71ff27" stroke="none" /><path d="M 90.7491055286396 118.85261126421891 l -17.800790740105167 36.27664211907932 a61.408698499317865,61.408698499317865 0 0,0 -0.9449514740162904,-0.4738182859425797 l 18.42259612180422 -35.96485599222744" fill="#83ff25" stroke="none" /><path d="M 90.10565033884886 118.52300852407294 l -19.300380095369388 36.13184466565355 a61.963579809004095,61.963579809004095 0 0,0 -0.9364679393492762,-0.5106369874465706 l 19.919470846587302 -35.794267026447216" fill="#7bff26" stroke="none" /><line stroke="#e1ed5e" stroke-width="0.3" x1="58.666819895761336" x2="56.23545636021788" y1="174.27360380694188" y2="178.64263932499728" /><path d="M 58.180547188652646 175.14741091055294 a86.0,86.0 0 0,1 -31.652253787137756,-30.449443065178592" fill="none" id="id8" stroke="none" /><text fill="#e1ed5e" style="font-size:6.75px; font-family:Arial;" text-anchor="middle"><textPath startOffset="22.20632615414155" xlink:href="#id8">August</textPath></text><path d="M 89.4739219176387 118.17145234162733 l -25.0875069829602 43.30923958041156 a71.05070668485675,71.05070668485675 0 0,0 -1.053012509831711,-0.6221383516547379 l 25.829287363820292 -42.87098265646307" fill="#36ff70" stroke="none" /><path d="M 88.8546689885994 117.79835938074946 l -33.435993034201786 53.395078142248366 a84.0,84.0 0 0,0 -1.2188727918123061,-0.7779422847047832 l 34.350147628061016 -52.81162142871978" fill="#4dd2ff" stroke="none" /><path d="M 88.24862548938628 117.40417183066458 l -20.342543095535508 30.12797483286995 a57.35263301500682,57.35263301500682 0 0,0 -0.8134327091557004,-0.5594864346327304 l 20.858132689314097 -29.773347608872115" fill="#c3ff1e" stroke="none" /><path d="M 87.95078237400918 117.19931262002967 l -20.910998015214755 29.848808713082228 a57.44476944065484,57.44476944065484 0 0,0 -0.8049726573526714,-0.5743266176714915 l 21.421698000416313 -29.484437833566517" fill="#c2ff1e" stroke="none" /><line stroke="#e1ed5e" stroke-width="0.3" x1="26.63291911575756" x2="22.317208475507996" y1="142.92168965132927" y2="145.44649492493687" /><path d="M 25.769776987707644 143.4266507060508 a86.0,86.0 0 0,1 -11.730757126820373,-40.83630448921669" fill="none" id="id9" stroke="none" /><text fill="#e1ed5e" style="font-size:6.75px; font-family:Arial;" text-anchor="middle"><textPath startOffset="21.46611528233685" xlink:href="#id9">September</textPath></text><line stroke="#e1ed5e" stroke-width="0.3" x1="15.007084014347285" x2="10.007500721073583" y1="101.09737516637583" y2="101.16192664675087" /><path d="M 14.007167355692545 101.11028546245083 a86.0,86.0 0 0,1 10.666146001902534,-42.60595125391555" fill="none" id="id10" stroke="none" /><text fill="#e1ed5e" style="font-size:6.75px; font-family:Arial;" text-anchor="middle"><textPath startOffset="22.20632615414155" xlink:href="#id10">October</textPath></text><line stroke="#e1ed5e" stroke-width="0.3" x1="26.266209847984243" x2="21.928928074336255" y1="57.711370442889674" y2="55.22380399835377" /><path d="M 25.398753493254645 57.213857153982495 a86.0,86.0 0 0,1 29.58750427330803,-30.492523968695096" fill="none" id="id11" stroke="none" /><text fill="#e1ed5e" style="font-size:6.75px; font-family:Arial;" text-anchor="middle"><textPath startOffset="21.46611528233685" xlink:href="#id11">November</textPath></text><line stroke="#e1ed5e" stroke-width="0.3" x1="56.762969772571076" x2="54.21961505331055" y1="26.818313649435495" y2="22.513508569990535" /><path d="M 56.25429882871897 25.957352633546506 a86.0,86.0 0 0,1 42.265352541879196,-11.944610805530505" fill="none" id="id12" stroke="none" /><text fill="#e1ed5e" style="font-size:6.75px; font-family:Arial;" text-anchor="middle"><textPath startOffset="22.20632615414155" xlink:href="#id12">December</textPath></text></svg>