<?xml version="1.0" encoding="utf-8" ?>
<svg baseProfile="full" height="200mm" version="1.1" viewBox="0,0,200,200" width="200mm" xmlns="http://www.w3.org/2000/svg" xmlns:ev="http://www.w3.org/2001/xml-events" xmlns:xlink="http://www.w3.org/1999/xlink"><defs /><rect fill="#1a1a1a" height="200" width="200" x="0" y="0" /><text alignment-baseline="middle" fill="#e1ed5e" style="dominant-baseline: central; font-size:9.0px; font-family:Arial;" text-anchor="middle" x="100.0" y="100.0">2023</text><line stroke="#e1ed5e" stroke-width="0.3" x1="100.0" x2="100.0" y1="15.0" y2="10.0" /><path d="M 100.0 14.0 a86.0,86.0 0 0,1 42.46469731375804,11.215312516191453" fill="none" id="id1" stroke="none" /><text fill="#e1ed5e" style="font-size:6.75px; font-family:Arial;" text-anchor="middle"><textPath startOffset="22.20632615414155" xlink:href="#id1">January</textPath></text><line stroke="#e1ed5e" stroke-width="0.3" x1="143.23703022742887" x2="145.7803849466894" y1="26.81831364943548" y2="22.513508569990506" /><path d="M 143.74570117128098 25.957352633546492 a86.0,86.0 0 0,1 28.547481713284135,27.462654790039103" fill="none" id="id2" stroke="none" /><text fill="#e1ed5e" style="font-size:6.75px; font-family:Arial;" text-anchor="middle"><textPath startOffset="19.985693538727396" xlink:href="#id2">February</textPath></text><line stroke="#e1ed5e" stroke-width="0.3" x1="172.23445277983987" x2="176.4835382374775" y1="55.19839476539836" y2="52.563006222186495" /><path d="M 173.08426987136738 54.67131705675599 a86.0,86.0 0 0,1 12.851231095245387,41.99856678651699" fill="none" id="id3" stroke="none" /><text fill="#e1ed5e" style="font-size:6.75px; font-family:Arial;" text-anchor="middle"><textPath startOffset="22.20632615414155" xlink:href="#id3">March</textPath></text><line stroke="#e1ed5e" stroke-width="0.3" x1="184.98032266829074" x2="189.97916517819016" y1="98.17113171792111" y2="98.06355123074" /><path d="M 185.9800911702706 98.14961562048488 a86.0,86.0 0 0,1 -9.607161424134198,41.387399972396054" fill="none" id="id4" stroke="none" /><text fill="#e1ed5e" style="font-size:6.75px; font-family:Arial;" text-anchor="middle"><textPath startOffset="21.466115282336823" xlink:href="#id4">April</textPath></text><line stroke="#e1ed5e" stroke-width="0.3" x1="174.80103733775053" x2="179.2010983576182" y1="140.37084112569926" y2="142.7455964860345" /><path d="M 175.68104954172406 140.8457921977663 a86.0,86.0 0 0,1 -30.038265399797805,32.042727171017184" fill="none" id="id5" stroke="none" /><text fill="#e1ed5e" style="font-size:6.75px; font-family:Arial;" text-anchor="middle"><textPath startOffset="22.206326154141568" xlink:href="#id5">May</textPath></text><line stroke="#e1ed5e" stroke-width="0.3" x1="143.8653032363475" x2="146.44561519142675" y1="172.8068346515853" y2="177.08958963109032" /><path d="M 144.38136562736335 173.6633856474863 a86.0,86.0 0 0,1 -40.68145358897372,12.25698825130547" fill="none" id="id6" stroke="none" /><text fill="#e1ed5e" style="font-size:6.75px; font-family:Arial;" text-anchor="middle"><textPath startOffset="21.466115282336833" xlink:href="#id6">June</textPath></text><line stroke="#e1ed5e" stroke-width="0.3" x1="102.19456741930631" x2="102.32365962044197" y1="184.97166512339345" y2="189.96999836594603" /><path d="M 102.22038585953345 185.97133177190398 a86.0,86.0 0 0,1 -42.740103519485714,-10.115201625700543" fill="none" id="id7" stroke="none" /><text fill="#e1ed5e" style="font-size:6.75px; font-family:Arial;" text-anchor="middle"><textPath startOffset="22.20632615414155" xlink:href="#id7">July</textPath></text><path d="M 99.81925306533755 120.99922214144158 l -0.21797049353601616 25.3238641230103 a46.3248021760633,46.3248021760633 0 0,0 -0.7973167078179586,-0.013726530194237519 l 0.6538468912466426 -25.316360115536902" fill="#ff1502" stroke="none" /><path d="M 99.09653310690486 120.98055641714683 l -1.1414721840885478 26.507580676065498 a47.532146389713155,47.532146389713155 0 0,0 -0.8171272371715788,-0.042236144601874054 l 1.5975874896736155 -26.48400472470142" fill="#ff3104" stroke="none" /><path d="M 98.37488393609728 120.93702456842531 l -2.0678972334733112 26.641552652082577 a47.721686449060336,47.721686449060336 0 0,0 -0.8184398353135977,-0.07061843280608218 l 2.5261813865284504 -26.60200996699783" fill="#ff3505" stroke="none" /><path d="M 97.65516085044442 120.86867818915974 l -2.72752803153053 24.274545549408366 a45.4272997032641,45.4272997032641 0 0,0 -0.7763148623012973,-0.09400091857335571 l 3.144970316883217 -24.223999102109662" fill="#ff0000" stroke="none" /><path d="M 96.93821686468263 120.77559828337769 l -3.9806713974085697 27.01067521626413 a48.30242334322453,48.30242334322453 0 0,0 -0.8215187294761235,-0.12830433015817785 l 4.44502599049321 -26.938152578758846" fill="#ff4206" stroke="none" /><path d="M 96.22490169976321 120.6578951692458 l -4.848785794876349 26.53327163491368 a47.97267556874382,47.97267556874382 0 0,0 -0.8110406401213944,-0.15543786897225353 l 5.304794049569439 -26.445876567592958" fill="#ff3b05" stroke="none" /><path d="M 95.86986931433489 120.58985236759428 l -11.807741325993337 58.86488084766102 a81.03746290801186,81.03746290801186 0 0,0 -1.3653212533787598,-0.28611634341542075 l 12.819254040801484 -58.65290852351906" fill="#47feff" stroke="none" /><path d="M 95.51606077576429 120.51570834832081 l -5.7867652846899595 26.47662756426468 a48.10163204747775,48.10163204747775 0 0,0 -0.8073740989549737,-0.1837557163377566 l 6.2416595330377955 -26.373095114349233" fill="#ff3e05" stroke="none" /><path d="M 94.46302465271185 120.25689768951611 l -7.15443665876105 26.174342909730843 a48.13452027695351,48.13452027695351 0 0,0 -0.7973571115518377,-0.2253410843094624 l 7.603924938417501 -26.047313032082858" fill="#ff3e05" stroke="none" /><path d="M 94.11515582081647 120.15858648285463 l -8.080261649920818 27.67900870684079 a49.83432245301681,49.83432245301681 0 0,0 -0.8213764825144512,-0.2474739963275767 l 8.555513106875514 -27.53581934140749" fill="#ff6409" stroke="none" /><path d="M 93.76903079525671 120.05430185196036 l -10.427577296727913 33.56103614411071 a56.14366963402571,56.14366963402571 0 0,0 -0.9204317649171899,-0.29469318484935847 l 11.003730406736043 -33.37657011260165" fill="#ffe915" stroke="none" /><path d="M 93.08242187328487 119.8279376855182 l -11.335431351722445 32.49088371151513 a55.41147378832839,55.41147378832839 0 0,0 -0.8978781260403224,-0.3219471510244701 l 11.893029038392493 -32.29094901945071" fill="#ffda14" stroke="none" /><path d="M 92.7421414339146 119.70592522655815 l -17.122551842170562 46.48970811671069 a70.54265578635015,70.54265578635015 0 0,0 -1.1358367918105678,-0.4294762849719192 l 17.920258854741412 -46.188083581632135" fill="#32ff4a" stroke="none" /><path d="M 91.7346041902142 119.30500536409082 l -20.62056832960655 48.1622648660515 a73.39094955489614,73.39094955489614 0 0,0 -1.1570583840410766,-0.5072203927521035 l 21.44654738830537 -47.80017992000495" fill="#38ff7f" stroke="none" /><path d="M 90.7491055286396 118.85261126421891 l -22.406273375675028 45.66226143203434 a71.86337784371909,71.86337784371909 0 0,0 -1.105827130043577,-0.5544846795984966 l 23.188954413401362 -45.26980891152654" fill="#35ff63" stroke="none" /><path d="M 90.10565033884886 118.52300852407294 l -24.293841716647716 45.48000147668023 a72.56181998021762,72.56181998021762 0 0,0 -1.0966412567150174,-0.5979762510905554 l 25.073105785231373 -45.05508457382991" fill="#36ff70" stroke="none" /><line stroke="#e1ed5e" stroke-width="0.3" x1="58.666819895761336" x2="56.23545636021788" y1="174.27360380694188" y2="178.64263932499728" /><path d="M 58.180547188652646 175.14741091055294 a86.0,86.0 0 0,1 -31.652253787137756,-30.449443065178592" fill="none" id="id8" stroke="none" /><text fill="#e1ed5e" style="font-size:6.75px; font-family:Arial;" text-anchor="middle"><textPath startOffset="22.20632615414155" xlink:href="#id8">August</textPath></text><path d="M 89.4739219176387 118.17145234162733 l -31.57823424708386 54.51435702488198 a84.0,84.0 0 0,0 -1.2449285158864716,-0.735525710825002 l 32.511930633998716 -53.962712741763234" fill="#4dd2ff" stroke="none" /><line stroke="#e1ed5e" stroke-width="0.3" x1="26.63291911575756" x2="22.317208475507996" y1="142.92168965132927" y2="145.44649492493687" /><path d="M 25.769776987707644 143.4266507060508 a86.0,86.0 0 0,1 -11.730757126820373,-40.83630448921669" fill="none" id="id9" stroke="none" /><text fill="#e1ed5e" style="font-size:6.75px; font-family:Arial;" text-anchor="middle"><textPath startOffset="21.46611528233685" xlink:href="#id9">September</textPath></text><line stroke="#e1ed5e" stroke-width="0.3" x1="15.007084014347285" x2="10.007500721073583" y1="101.09737516637583" y2="101.16192664675087" /><path d="M 14.007167355692545 101.11028546245083 a86.0,86.0 0 0,1 10.666146001902534,-42.60595125391555" fill="none" id="id10" stroke="none" /><text fill="#e1ed5e" style="font-size:6.75px; font-family:Arial;" text-anchor="middle"><textPath startOffset="22.20632615414155" xlink:href="#id10">October</textPath></text><line stroke="#e1ed5e" stroke-width="0.3" x1="26.266209847984243" x2="21.928928074336255" y1="57.711370442889674" y2="55.22380399835377" /><path d="M 25.398753493254645 57.213857153982495 a86.0,86.0 0 0,1 29.58750427330803,-30.492523968695096" fill="none" id="id11" stroke="none" /><text fill="#e1ed5e" style="font-size:6.75px; font-family:Arial;" text-anchor="middle"><textPath startOffset="21.46611528233685" xlink:href="#id11">November</textPath></text><line stroke="#e1ed5e" stroke-width="0.3" x1="56.762969772571076" x2="54.21961505331055" y1="26.818313649435495" y2="22.513508569990535" /><path d="M 56.25429882871897 25.957352633546506 a86.0,86.0 0 0,1 42.265352541879196,-11.944610805530505" fill="none" id="id12" stroke="none" /><text fill="#e1ed5e" style="font-size:6.75px; font-family:Arial;" text-anchor="middle"><textPath startOffset="22.20632615414155" xlink:href="#id12">December</textPath></text></svg>