<?xml version="1.0" encoding="utf-8" ?>
<svg baseProfile="full" height="200mm" version="1.1" viewBox="0,0,200,200" width="200mm" xmlns="http://www.w3.org/2000/svg" xmlns:ev="http://www.w3.org/2001/xml-events" xmlns:xlink="http://www.w3.org/1999/xlink"><defs /><rect fill="#1a1a1a" height="200" width="200" x="0" y="0" /><text alignment-baseline="middle" fill="#e1ed5e" style="dominant-baseline: central; font-size:9.0px; font-family:Arial;" text-anchor="middle" x="100.0" y="100.0">2024</text><line stroke="#e1ed5e" stroke-width="0.3" x1="100.0" x2="100.0" y1="15.0" y2="10.0" /><path d="M 100.0 14.0 a86.0,86.0 0 0,1 42.35913384403234,11.155469271406648" fill="none" id="id13" stroke="none" /><text fill="#e1ed5e" style="font-size:6.75px; font-family:Arial;" text-anchor="middle"><textPath startOffset="22.145653131862478" xlink:href="#id13">January</textPath></text><path d="M 100.36049292484886 79.00309439819443 l 0.1386967926348665 -8.078392837941283 a29.07958338309521,29.07958338309521 0 0,0 0.4990426039827248,0.012853567252610543 l -0.27735271068833267 8.074821553338627" fill="#ff2c04" stroke="none" /><path d="M 100.72087961077811 79.0123766808444 l 0.4736324631575205 -13.789292386483583 a34.79742411575765,34.79742411575765 0 0,0 0.5968159887591966,0.02562984649846773 l -0.7102742125175534 13.779129971559284" fill="#ff810b" stroke="none" /><path d="M 101.44090949804482 79.04949213459386 l 1.611863020089405 -23.43613455679371 a44.49149857628653,44.49149857628653 0 0,0 0.7615059074871874,0.05894537333946108 l -2.013937922351826 23.405011416459196" fill="#f8ff18" stroke="none" /><path d="M 103.94208987418118 79.37332000966035 l 2.7385570075900167 -14.32928746775329 a35.58863166363905,35.58863166363905 0 0,0 0.5990812556305082,0.11983302937519962 l -2.9841347487514818 14.28016504171523" fill="#ff8c0c" stroke="none" /><path d="M 104.9986988182912 79.60360301121754 l 1.2416075233897266 -5.066182395036349 a26.216109019366275,26.216109019366275 0 0,0 0.43617951064726534,0.11087512593982685 l -1.3283923272623863 5.044122037261254" fill="#ff0000" stroke="none" /><path d="M 105.3480935250658 79.69241777938227 l 8.222175679424163 -31.22094029576926 a53.28546555116254,53.28546555116254 0 0,0 0.8825559989784781,0.2405445620737881 l -8.756913079337334 31.07519523955133" fill="#8cff24" stroke="none" /><path d="M 105.69591212413111 79.78721728523813 l 7.017860966990183 -24.9039127986582 a46.87383321495244,46.87383321495244 0 0,0 0.7726146689833512,0.22489686993422048 l -7.444335648355138 24.779772234421465" fill="#daff1c" stroke="none" /><path d="M 106.72888874123014 80.10723608172694 l 2.018273270983396 -5.96666630200422 a27.298772400701484,27.298772400701484 0 0,0 0.4426225920331245,0.15396711390916126 l -2.1204016350615387 5.931140755526468" fill="#ff1101" stroke="none" /><path d="M 108.73861861582097 80.90454125486305 l 4.780421130893002 -10.446082899656608 a32.48795343545518,32.48795343545518 0 0,0 0.5051277838044347,0.23642530821749005 l -4.959037628568942 10.362481359868584" fill="#ff5f08" stroke="none" /><line stroke="#e1ed5e" stroke-width="0.3" x1="143.13028292997686" x2="145.6673583964461" y1="26.7553504044142" y2="22.446841604673864" /><path d="M 143.63769802327073 25.89364864446614 a86.0,86.0 0 0,1 29.32050498858742,28.57503671076993" fill="none" id="id14" stroke="none" /><text fill="#e1ed5e" style="font-size:6.75px; font-family:Arial;" text-anchor="middle"><textPath startOffset="20.669276256404974" xlink:href="#id14">February</textPath></text><path d="M 111.27062007382361 82.28071324371311 l 2.797340542425398 -4.397883958606989 a26.21214902162913,26.21214902162913 0 0,0 0.3775976994506305,0.2447542667779177 l -2.872423874133036 4.3492158501251765" fill="#ff0000" stroke="none" /><path d="M 114.13192950727249 84.46653392183569 l 5.391311875498231 -5.9259961700034935 a29.011471422016328,29.011471422016328 0 0,0 0.3655034108876777,0.3383045004685501 l -5.492245057699874 5.832573923402569" fill="#ff2b04" stroke="none" /><path d="M 115.8921839302757 86.27271002978787 l 5.975040006068924 -5.1610972479792565 a28.895443488318005,28.895443488318005 0 0,0 0.3210220978903621,0.37816322411626563 l -6.062756667466399 5.057767241413439" fill="#ff2a04" stroke="none" /><path d="M 116.35404254752997 86.82634096563983 l 9.785225500495804 -7.882285003430394 a33.56507281995839,33.56507281995839 0 0,0 0.3576015975135844,0.4518179365358927 l -9.919093528650947 7.713147122979823" fill="#ff6f0a" stroke="none" /><path d="M 117.81537515405839 88.88188828441811 l 10.520176621229448 -6.5653682805459805 a33.400732913866904,33.400732913866904 0 0,0 0.2993851402408861,0.4890231269167154 l -10.631329725925736 6.38380803750471" fill="#ff6d0a" stroke="none" /><line stroke="#e1ed5e" stroke-width="0.3" x1="172.87174338648825" x2="177.1583165268699" y1="56.24261187166439" y2="53.66864786411523" /><path d="M 173.72905801456457 55.72781907015455 a86.0,86.0 0 0,1 12.242430191666344,42.057860355516425" fill="none" id="id15" stroke="none" /><text fill="#e1ed5e" style="font-size:6.75px; font-family:Arial;" text-anchor="middle"><textPath startOffset="22.145653131862474" xlink:href="#id15">March</textPath></text><path d="M 118.36410011445183 89.81374322990088 l 55.092300343355504 -30.558770310297362 a84.0,84.0 0 0,0 0.6886186015386349,1.2669806661015868 l -55.60876429450948 29.60853481072117" fill="#4dd2ff" stroke="none" /><path d="M 118.70294669586156 90.45014215332178 l 11.255555138601032 -5.747166652775245 a33.637936778321844,33.637936778321844 0 0,0 0.2581793128241914,0.5165315731136456 l -11.35255436463696 5.55310322349785" fill="#ff700a" stroke="none" /><path d="M 119.58574465831526 92.42381321644754 l 20.283287757761588 -7.846011439350758 a42.74791157262196,42.74791157262196 0 0,0 0.2588677468119569,0.6866774537571729 l -20.41498618838799 7.496665705399427" fill="#ffef16" stroke="none" /><path d="M 119.71291397450082 92.76114493625339 l 30.086260167580807 -11.04809147166205 a53.0506376853499,53.0506376853499 0 0,0 0.30658173183592574,0.8575636683751182 l -30.271482069460674 10.529992846906016" fill="#8fff24" stroke="none" /><path d="M 119.83427380445688 93.10060997987247 l 18.134987534619196 -6.308290046060241 a40.200841028090835,40.200841028090835 0 0,0 0.22113253351410886,0.6537390426582592 l -18.24060548970567 5.996049328927821" fill="#ffcd13" stroke="none" /><line stroke="#e1ed5e" stroke-width="0.3" x1="184.99686870605535" x2="189.99668451229388" y1="99.2704041080226" y2="99.22748670261217" /><path d="M 185.99683186730306 99.26182062694052 a86.0,86.0 0 0,1 -10.086455211305974,41.156179273409016" fill="none" id="id16" stroke="none" /><text fill="#e1ed5e" style="font-size:6.75px; font-family:Arial;" text-anchor="middle"><textPath startOffset="21.40746469413373" xlink:href="#id16">April</textPath></text><line stroke="#e1ed5e" stroke-width="0.3" x1="174.33088141563837" x2="178.70328620479359" y1="141.23008692659167" y2="143.65538615756765" /><path d="M 175.20536237346943 141.71514677278685 a86.0,86.0 0 0,1 -30.301960400862466,31.631185727798858" fill="none" id="id17" stroke="none" /><text fill="#e1ed5e" style="font-size:6.75px; font-family:Arial;" text-anchor="middle"><textPath startOffset="22.145653131862474" xlink:href="#id17">May</textPath></text><line stroke="#e1ed5e" stroke-width="0.3" x1="143.1302829299769" x2="145.66735839644613" y1="173.24464959558577" y2="177.55315839532614" /><path d="M 143.63769802327073 174.10635135553383 a86.0,86.0 0 0,1 -40.68552437913181,11.842963189579606" fill="none" id="id18" stroke="none" /><text fill="#e1ed5e" style="font-size:6.75px; font-family:Arial;" text-anchor="middle"><textPath startOffset="21.407464694133747" xlink:href="#id18">June</textPath></text><line stroke="#e1ed5e" stroke-width="0.3" x1="101.45913802915013" x2="101.54496967792366" y1="184.9874750549273" y2="189.98673829345242" /><path d="M 101.47630435890484 185.9873277026323 a86.0,86.0 0 0,1 -42.54439059252881,-10.42667462771756" fill="none" id="id19" stroke="none" /><text fill="#e1ed5e" style="font-size:6.75px; font-family:Arial;" text-anchor="middle"><textPath startOffset="22.145653131862474" xlink:href="#id19">July</textPath></text><line stroke="#e1ed5e" stroke-width="0.3" x1="58.13341422392154" x2="55.67067388415222" y1="173.97424548756322" y2="178.32567169271397" /><path d="M 57.64086615596768 174.84453072859336 a86.0,86.0 0 0,1 -31.369924170532247,-30.572349798747897" fill="none" id="id20" stroke="none" /><text fill="#e1ed5e" style="font-size:6.75px; font-family:Arial;" text-anchor="middle"><textPath startOffset="22.145653131862474" xlink:href="#id20">August</textPath></text><line stroke="#e1ed5e" stroke-width="0.3" x1="26.387840678322732" x2="22.057713659400548" y1="142.50000000000003" y2="145.00000000000006" /><path d="M 25.521815274538298 143.00000000000003 a86.0,86.0 0 0,1 -11.493303480769221,-40.785679425670985" fill="none" id="id21" stroke="none" /><text fill="#e1ed5e" style="font-size:6.75px; font-family:Arial;" text-anchor="middle"><textPath startOffset="21.40746469413373" xlink:href="#id21">September</textPath></text><line stroke="#e1ed5e" stroke-width="0.3" x1="15.003131293944662" x2="10.003315487706104" y1="100.72959589197737" y2="100.7725132973878" /><path d="M 14.003168132696942 100.73817937305945 a86.0,86.0 0 0,1 10.791469493833604,-42.45332614584628" fill="none" id="id22" stroke="none" /><text fill="#e1ed5e" style="font-size:6.75px; font-family:Arial;" text-anchor="middle"><textPath startOffset="22.145653131862435" xlink:href="#id22">October</textPath></text><line stroke="#e1ed5e" stroke-width="0.3" x1="26.387840678322718" x2="22.05771365940052" y1="57.49999999999999" y2="54.99999999999999" /><path d="M 25.521815274538284 56.99999999999999 a86.0,86.0 0 0,1 29.574782752854787,-30.34633250058573" fill="none" id="id23" stroke="none" /><text fill="#e1ed5e" style="font-size:6.75px; font-family:Arial;" text-anchor="middle"><textPath startOffset="21.40746469413373" xlink:href="#id23">November</textPath></text><line stroke="#e1ed5e" stroke-width="0.3" x1="56.869717070023135" x2="54.33264160355391" y1="26.7553504044142" y2="22.446841604673864" /><path d="M 56.362301976729285 25.89364864446614 a86.0,86.0 0 0,1 42.16139366436587,-11.88097634709845" fill="none" id="id24" stroke="none" /><text fill="#e1ed5e" style="font-size:6.75px; font-family:Arial;" text-anchor="middle"><textPath startOffset="22.145653131862474" xlink:href="#id24">December</textPath></text></svg>