<?xml version="1.0" encoding="utf-8" ?>
<svg baseProfile="full" height="200mm" version="1.1" viewBox="0,0,200,200" width="200mm" xmlns="http://www.w3.org/2000/svg" xmlns:ev="http://www.w3.org/2001/xml-events" xmlns:xlink="http://www.w3.org/1999/xlink"><defs /><rect fill="#1a1a1a" height="200" width="200" x="0" y="0" /><text alignment-baseline="middle" fill="#e1ed5e" style="dominant-baseline: central; font-size:9.0px; font-family:Arial;" text-anchor="middle" x="100.0" y="100.0">2025</text><line stroke="#e1ed5e" stroke-width="0.3" x1="100.0" x2="100.0" y1="15.0" y2="10.0" /><path d="M 100.0 14.0 a86.0,86.0 0 0,1 42.46469731375804,11.215312516191453" fill="none" id="id25" stroke="none" /><text fill="#e1ed5e" style="font-size:6.75px; font-family:Arial;" text-anchor="middle"><textPath startOffset="22.20632615414155" xlink:href="#id25">January</textPath></text><path d="M 100.72285384407766 79.0124445844662 l 0.6840348672775908 -19.860473594719334 a40.872249875295836,40.872249875295836 0 0,0 0.7029232258731949,0.0302693527443832 l -1.0257989255401172 19.845756515450756" fill="red" stroke="none" /><path d="M 102.16513564639614 79.11191278185805 l 1.8712821854989652 -18.05314395221325 a39.14986786665676,39.14986786665676 0 0,0 0.6697112424237042,0.07524986134236016 l -2.181760131432395 18.01825813740029" fill="red" stroke="none" /><path d="M 108.09893153111575 80.62456947434976 l 12.230527233928658 -29.259628853833703 a52.71295755813337,52.71295755813337 0 0,0 0.8341605700703563,0.357144023040409 l -12.73237156178933 29.044765302830502" fill="red" stroke="none" /><path d="M 109.41281617654863 81.2277094730956 l 15.20817709727858 -30.33017042933563 a54.929454591766344,54.929454591766344 0 0,0 0.8415702827319284,0.4310849855824134 l -15.728007867599265 30.063892918440715" fill="red" stroke="none" /><line stroke="#e1ed5e" stroke-width="0.3" x1="143.23703022742887" x2="145.7803849466894" y1="26.81831364943548" y2="22.513508569990506" /><path d="M 143.74570117128098 25.957352633546492 a86.0,86.0 0 0,1 28.547481713284135,27.462654790039103" fill="none" id="id26" stroke="none" /><text fill="#e1ed5e" style="font-size:6.75px; font-family:Arial;" text-anchor="middle"><textPath startOffset="19.985693538727396" xlink:href="#id26">February</textPath></text><path d="M 114.16331599549186 84.49514656593476 l 42.48994798647556 -46.51456030219571 a84.0,84.0 0 0,0 1.0591684648206128,0.984381655701438 l -43.28432433509102 45.77627406041963" fill="red" stroke="none" /><path d="M 114.42810811169701 84.74124197986012 l 14.398401426772214 -15.227341072516614 a41.956762149369055,41.956762149369055 0 0,0 0.5204971230323281,0.5007178199677695 l -14.65838179341696 14.977240165786542" fill="red" stroke="none" /><path d="M 115.4437574822437 85.77008943001954 l 14.557843117475782 -13.413627214210175 a40.79535782133874,40.79535782133874 0 0,0 0.471393000413914,0.5205239247890057 l -14.78657975850573 13.16105050215162" fill="red" stroke="none" /><path d="M 115.68641384162765 86.03803664274999 l 40.47904871537434 -36.02907590010081 a75.19084512274074,75.19084512274074 0 0,0 0.8521920439842936,0.9742028225643433 l -41.093232622936476 35.32695752133352" fill="red" stroke="none" /><path d="M 116.82858285166822 87.43820079747576 l 20.499604703373084 -15.302056048609419 a46.58098341169354,46.58098341169354 0 0,0 0.4740998905219754,0.6466717178678011 l -20.759967206408685 14.946921887070124" fill="red" stroke="none" /><path d="M 117.04232023915458 87.72973835380427 l 21.458857343679767 -15.450114218039209 a47.442174416013074,47.442174416013074 0 0,0 0.4714563376040486,0.6668415549640022 l -21.721626301087696 15.078446162743415" fill="red" stroke="none" /><path d="M 117.2510076193507 88.02491185347247 l 16.761799120800394 -11.635495525537733 a41.40447661399021,41.40447661399021 0 0,0 0.40137802144759477,0.5889727190278755 l -16.959601607916724 11.345244783239451" fill="red" stroke="none" /><path d="M 117.45458315368197 88.32363383020206 l 23.29729196859053 -15.584887327004006 a49.029493860310126,49.029493860310126 0 0,0 0.46321983564683294,0.7055155893763457 l -23.562108439595292 15.181553673649987" fill="red" stroke="none" /><path d="M 117.65298651832404 88.62581576622439 l 20.563519462108083 -13.249500792065032 a45.46237118325674,45.46237118325674 0 0,0 0.4181940724680143,0.6614825931206659 l -20.788541130822054 12.89357055123016" fill="red" stroke="none" /><line stroke="#e1ed5e" stroke-width="0.3" x1="172.23445277983987" x2="176.4835382374775" y1="55.19839476539836" y2="52.563006222186495" /><path d="M 173.08426987136738 54.67131705675599 a86.0,86.0 0 0,1 12.851231095245387,41.99856678651699" fill="none" id="id27" stroke="none" /><text fill="#e1ed5e" style="font-size:6.75px; font-family:Arial;" text-anchor="middle"><textPath startOffset="22.20632615414155" xlink:href="#id27">March</textPath></text><path d="M 118.3937258080291 89.86733742301442 l 22.205295131886 -12.232364739044149 a46.35164450293453,46.35164450293453 0 0,0 0.3789619975742298,0.7021590271522371 l -22.412565228678694 11.848324728559454" fill="red" stroke="none" /><path d="M 118.56541770881063 90.18545643968196 l 22.646054079436368 -11.971757798181272 a46.61575199261327,46.61575199261327 0 0,0 0.36890944034856354,0.7126156172369307 l -22.848772952945048 11.580169458683997" fill="red" stroke="none" /><path d="M 118.73160827565052 90.50648371742162 l 44.44450443022678 -22.52527494011094 a70.8267195907581,70.8267195907581 0 0,0 0.5417906341719989,1.0922168579781235 l -44.82565507735218 21.75689849363387" fill="red" stroke="none" /><path d="M 118.89224826269711 90.83032412892265 l 26.948567157183287 -13.079948060456665 a50.955138342018415,50.955138342018415 0 0,0 0.3761988895995103,0.7923708041748388 l -27.169724240624554 12.614134840641286" fill="red" stroke="none" /><path d="M 120.18372546131832 94.20196356495316 l 23.448535112422114 -6.735895273191982 a45.39684578075418,45.39684578075418 0 0,0 0.20928644029217075,0.7529146783747488 l -23.56100832328065 6.331269291398281" fill="red" stroke="none" /><path d="M 120.28053869075195 94.5502522615342 l 21.999013170517657 -5.911532928322956 a43.77943814143044,43.77943814143044 0 0,0 0.1893015986618601,0.7294562806261669 l -22.097511101049818 5.531980222147938" fill="red" stroke="none" /><path d="M 120.37134235888165 94.90015583598534 l 25.304890020146104 -6.334928421347255 a47.085796461585815,47.085796461585815 0 0,0 0.19006338635893555,0.7879354407466921 l -25.410186206765857 5.898407748941158" fill="red" stroke="none" /><path d="M 120.53481517161879 95.60439243477599 l 26.638399579845625 -5.702118560115541 a48.24185177716694,48.24185177716694 0 0,0 0.1668265353534391,0.8135054336214852 l -26.73260541111406 5.242737470330645" fill="red" stroke="none" /><path d="M 120.67395015179393 96.31383870115 l 12.272326076331034 -2.1881533571132086 a33.46587351283657,33.46587351283657 0 0,0 0.09623532400189883,0.567986329828549 l -12.308173261853154 1.9765812389688218" fill="red" stroke="none" /><line stroke="#e1ed5e" stroke-width="0.3" x1="184.98032266829074" x2="189.97916517819016" y1="98.17113171792111" y2="98.06355123074" /><path d="M 185.9800911702706 98.14961562048488 a86.0,86.0 0 0,1 -9.607161424134198,41.387399972396054" fill="none" id="id28" stroke="none" /><text fill="#e1ed5e" style="font-size:6.75px; font-family:Arial;" text-anchor="middle"><textPath startOffset="21.466115282336823" xlink:href="#id28">April</textPath></text><line stroke="#e1ed5e" stroke-width="0.3" x1="174.80103733775053" x2="179.2010983576182" y1="140.37084112569926" y2="142.7455964860345" /><path d="M 175.68104954172406 140.8457921977663 a86.0,86.0 0 0,1 -30.038265399797805,32.042727171017184" fill="none" id="id29" stroke="none" /><text fill="#e1ed5e" style="font-size:6.75px; font-family:Arial;" text-anchor="middle"><textPath startOffset="22.206326154141568" xlink:href="#id29">May</textPath></text><line stroke="#e1ed5e" stroke-width="0.3" x1="143.8653032363475" x2="146.44561519142675" y1="172.8068346515853" y2="177.08958963109032" /><path d="M 144.38136562736335 173.6633856474863 a86.0,86.0 0 0,1 -40.68145358897372,12.25698825130547" fill="none" id="id30" stroke="none" /><text fill="#e1ed5e" style="font-size:6.75px; font-family:Arial;" text-anchor="middle"><textPath startOffset="21.466115282336833" xlink:href="#id30">June</textPath></text><line stroke="#e1ed5e" stroke-width="0.3" x1="102.19456741930631" x2="102.32365962044197" y1="184.97166512339345" y2="189.96999836594603" /><path d="M 102.22038585953345 185.97133177190398 a86.0,86.0 0 0,1 -42.740103519485714,-10.115201625700543" fill="none" id="id31" stroke="none" /><text fill="#e1ed5e" style="font-size:6.75px; font-family:Arial;" text-anchor="middle"><textPath startOffset="22.20632615414155" xlink:href="#id31">July</textPath></text><line stroke="#e1ed5e" stroke-width="0.3" x1="58.666819895761336" x2="56.23545636021788" y1="174.27360380694188" y2="178.64263932499728" /><path d="M 58.180547188652646 175.14741091055294 a86.0,86.0 0 0,1 -31.652253787137756,-30.449443065178592" fill="none" id="id32" stroke="none" /><text fill="#e1ed5e" style="font-size:6.75px; font-family:Arial;" text-anchor="middle"><textPath startOffset="22.20632615414155" xlink:href="#id32">August</textPath></text><line stroke="#e1ed5e" stroke-width="0.3" x1="26.63291911575756" x2="22.317208475507996" y1="142.92168965132927" y2="145.44649492493687" /><path d="M 25.769776987707644 143.4266507060508 a86.0,86.0 0 0,1 -11.730757126820373,-40.83630448921669" fill="none" id="id33" stroke="none" /><text fill="#e1ed5e" style="font-size:6.75px; font-family:Arial;" text-anchor="middle"><textPath startOffset="21.46611528233685" xlink:href="#id33">September</textPath></text><line stroke="#e1ed5e" stroke-width="0.3" x1="15.007084014347285" x2="10.007500721073583" y1="101.09737516637583" y2="101.16192664675087" /><path d="M 14.007167355692545 101.11028546245083 a86.0,86.0 0 0,1 10.666146001902534,-42.60595125391555" fill="none" id="id34" stroke="none" /><text fill="#e1ed5e" style="font-size:6.75px; font-family:Arial;" text-anchor="middle"><textPath startOffset="22.20632615414155" xlink:href="#id34">October</textPath></text><line stroke="#e1ed5e" stroke-width="0.3" x1="26.266209847984243" x2="21.928928074336255" y1="57.711370442889674" y2="55.22380399835377" /><path d="M 25.398753493254645 57.213857153982495 a86.0,86.0 0 0,1 29.58750427330803,-30.492523968695096" fill="none" id="id35" stroke="none" /><text fill="#e1ed5e" style="font-size:6.75px; font-family:Arial;" text-anchor="middle"><textPath startOffset="21.46611528233685" xlink:href="#id35">November</textPath></text><line stroke="#e1ed5e" stroke-width="0.3" x1="56.762969772571076" x2="54.21961505331055" y1="26.818313649435495" y2="22.513508569990535" /><path d="M 56.25429882871897 25.957352633546506 a86.0,86.0 0 0,1 42.265352541879196,-11.944610805530505" fill="none" id="id36" stroke="none" /><text fill="#e1ed5e" style="font-size:6.75px; font-family:Arial;" text-anchor="middle"><textPath startOffset="22.20632615414155" xlink:href="#id36">December</textPath></text></svg>