<?xml version="1.0" encoding="utf-8" ?>
<svg baseProfile="full" height="200mm" version="1.1" viewBox="0,0,200,200" width="200mm" xmlns="http://www.w3.org/2000/svg" xmlns:ev="http://www.w3.org/2001/xml-events" xmlns:xlink="http://www.w3.org/1999/xlink"><defs /><rect fill="#1a1a1a" height="200" width="200" x="0" y="0" /><text alignment-baseline="middle" fill="#e1ed5e" style="dominant-baseline: central; font-size:9.0px; font-family:Arial;" text-anchor="middle" x="100.0" y="100.0">2025</text><line stroke="#e1ed5e" stroke-width="0.3" x1="100.0" x2="100.0" y1="15.0" y2="10.0" /><path d="M 100.0 14.0 a86.0,86.0 0 0,1 42.46469731375804,11.215312516191453" fill="none" id="id25" stroke="none" /><text fill="#e1ed5e" style="font-size:6.75px; font-family:Arial;" text-anchor="middle"><textPath startOffset="22.20632615414155" xlink:href="#id25">January</textPath></text><path d="M 100.72285384407766 79.0124445844662 l 0.10782331410496034 -3.1305744562399256 a24.132430732374857,24.132430732374857 0 0,0 0.4150308855107913,0.01787210297075336 l -0.1616950320050832 3.128254626744978" fill="#ff1101" stroke="none" /><path d="M 102.16513564639614 79.11191278185805 l 0.29496719614468314 -2.8456879964155632 a23.86093443122087,23.86093443122087 0 0,0 0.4081734349078939,0.04586304131508295 l -0.34390733456230227 2.8401890016298794" fill="#ff0d01" stroke="none" /><path d="M 108.09893153111575 80.62456947434976 l 1.9278783037210285 -4.612148157092671 a25.998862408281667,25.998862408281667 0 0,0 0.4114211551069904,0.17614906742289374 l -2.0069832166183343 4.578279561706986" fill="#ff2c04" stroke="none" /><path d="M 109.41281617654863 81.2277094730956 l 2.39724045449613 -4.780895900927959 a26.348245264774473,26.348245264774473 0 0,0 0.40367959925621044,0.20678036973973077 l -2.4791805413410963 4.738923005875727" fill="#ff3104" stroke="none" /><line stroke="#e1ed5e" stroke-width="0.3" x1="143.23703022742887" x2="145.7803849466894" y1="26.81831364943548" y2="22.513508569990506" /><path d="M 143.74570117128098 25.957352633546492 a86.0,86.0 0 0,1 28.547481713284135,27.462654790039103" fill="none" id="id26" stroke="none" /><text fill="#e1ed5e" style="font-size:6.75px; font-family:Arial;" text-anchor="middle"><textPath startOffset="19.985693538727396" xlink:href="#id26">February</textPath></text><path d="M 114.16331599549186 84.49514656593476 l 6.697622047079044 -7.33201520249766 a30.930588502962756,30.930588502962756 0 0,0 0.39000838024620427,0.3624702847900755 l -6.822838311120095 7.215640331632944" fill="#ff720a" stroke="none" /><path d="M 114.42810811169701 84.74124197986012 l 2.2695968201547085 -2.400261241038508 a24.303380654918243,24.303380654918243 0 0,0 0.30149704273676203,0.29003991623697123 l -2.3105771065038887 2.3608382380392348" fill="#ff1402" stroke="none" /><path d="M 115.4437574822437 85.77008943001954 l 2.2947293569895306 -2.114368447562918 a24.120310361787624,24.120310361787624 0 0,0 0.2787117476001284,0.3077604729349719 l -2.330784745205695 2.0745551873583974" fill="#ff1101" stroke="none" /><path d="M 115.68641384162765 86.03803664274999 l 6.3806472346629475 -5.679205188982755 a29.542015611773405,29.542015611773405 0 0,0 0.33482095628153824,0.3827582326844381 l -6.477460054522334 5.568531400095369" fill="#ff5f08" stroke="none" /><path d="M 116.82858285166822 87.43820079747576 l 3.2313196632158423 -2.412038442349404 a25.032289202581666,25.032289202581666 0 0,0 0.25477790937919825,0.347516782068053 l -3.272360185108667 2.3560592166098573" fill="#ff1e03" stroke="none" /><path d="M 117.04232023915458 87.72973835380427 l 3.3825251114899073 -2.4353766130654217 a25.168037353158656,25.168037353158656 0 0,0 0.2501072276146999,0.35375893644342826 l -3.42394495890849 2.3767911762902" fill="#ff2003" stroke="none" /><path d="M 117.2510076193507 88.02491185347247 l 2.6421353910792327 -1.8340844141615813 a24.216324775743868,24.216324775743868 0 0,0 0.23475482170293088,0.3444737336255257 l -2.6733146784508968 1.788332657265649" fill="#ff1202" stroke="none" /><path d="M 117.45458315368197 88.32363383020206 l 3.6723145995785997 -2.4566206811034283 a25.418243959889857,25.418243959889857 0 0,0 0.24014595833025,0.3657587700041577 l -3.7140571932667745 2.393043847121597" fill="#ff2403" stroke="none" /><path d="M 117.65298651832404 88.62581576622439 l 3.2413944436644657 -2.088497464058363 a24.855964159169154,24.855964159169154 0 0,0 0.22864220686909897,0.3616570627221675 l -3.27686424677952 2.0323927536219895" fill="#ff1c02" stroke="none" /><line stroke="#e1ed5e" stroke-width="0.3" x1="172.23445277983987" x2="176.4835382374775" y1="55.19839476539836" y2="52.563006222186495" /><path d="M 173.08426987136738 54.67131705675599 a86.0,86.0 0 0,1 12.851231095245387,41.99856678651699" fill="none" id="id27" stroke="none" /><text fill="#e1ed5e" style="font-size:6.75px; font-family:Arial;" text-anchor="middle"><textPath startOffset="22.20632615414155" xlink:href="#id27">March</textPath></text><path d="M 118.3937258080291 89.86733742301442 l 3.5001848974857435 -1.928167946692044 a24.99613887987366,24.99613887987366 0 0,0 0.20436355221355915,0.37865462480717643 l -3.5328565489177675 1.867632338552409" fill="#ff1e03" stroke="none" /><path d="M 118.56541770881063 90.18545643968196 l 3.5696610202971994 -1.8870888944583117 a25.03776971797763,25.03776971797763 0 0,0 0.19814481627796074,0.3827527168207015 l -3.6016152697352766 1.8253634553772655" fill="#ff1e03" stroke="none" /><path d="M 118.73160827565052 90.50648371742162 l 7.005715630391862 -3.5506227991482664 a28.85410553505288,28.85410553505288 0 0,0 0.22072014949485189,0.44495835285553587 l -7.065795792840121 3.4295048577937806" fill="#ff5507" stroke="none" /><path d="M 118.89224826269711 90.83032412892265 l 4.24785922511816 -2.0617711401352534 a25.721780197204872,25.721780197204872 0 0,0 0.18990244092285677,0.39998297174400993 l -4.282719859882773 1.9883457527507031" fill="#ff2803" stroke="none" /><path d="M 120.18372546131832 94.20196356495316 l 3.6961548126783743 -1.0617683199543093 a24.8456354955383,24.8456354955383 0 0,0 0.11454220045971726,0.4120692382128027 l -3.7138837837044547 0.9979877783225546" fill="#ff1c02" stroke="none" /><path d="M 120.28053869075195 94.5502522615342 l 3.4676690042487137 -0.9318254116331701 a24.590686135099055,24.590686135099055 0 0,0 0.10632973823300398,0.40973185604178497 l -3.4831950743520204 0.8719971300425347" fill="#ff1802" stroke="none" /><path d="M 120.37134235888165 94.90015583598534 l 3.988769046076189 -0.9985645610813185 a25.11186207035001,25.11186207035001 0 0,0 0.10136486799714818,0.42022281866919026 l -4.005366714334157 0.9297565107527221" fill="#ff2003" stroke="none" /><path d="M 120.53481517161879 95.60439243477599 l 4.198968009602268 -0.8988157621526023 a25.294089207265866,25.294089207265866 0 0,0 0.08747021749621547,0.42653584492700725 l -4.21381752301348 0.8264042610621832" fill="#ff2203" stroke="none" /><path d="M 120.67395015179393 96.31383870115 l 1.9344669879083027 -0.34491508842647306 a22.964975558507348,22.964975558507348 0 0,0 0.06603867258151597,0.3897639838110213 l -1.9401175220100417 0.3115653162996139" fill="#ff0000" stroke="none" /><line stroke="#e1ed5e" stroke-width="0.3" x1="184.98032266829074" x2="189.97916517819016" y1="98.17113171792111" y2="98.06355123074" /><path d="M 185.9800911702706 98.14961562048488 a86.0,86.0 0 0,1 -9.607161424134198,41.387399972396054" fill="none" id="id28" stroke="none" /><text fill="#e1ed5e" style="font-size:6.75px; font-family:Arial;" text-anchor="middle"><textPath startOffset="21.466115282336823" xlink:href="#id28">April</textPath></text><path d="M 120.99980553446 99.90962569577887 l 62.99941660337998 -0.27112291266339017 a84.0,84.0 0 0,0 -0.006222810841987947,1.4459620871852612 l -62.994749495248485 -0.8133486527255557" fill="#4dd2ff" stroke="none" /><path d="M 120.89721153311464 102.0752229133903 l 3.8997029702978248 0.3872647289115164 a24.918884691695915,24.918884691695915 0 0,0 -0.04606160728058599,0.4264732767963942 l -3.892459061516187 -0.454334327592702" fill="#ff1d02" stroke="none" /><path d="M 120.8583938346157 102.4346265915055 l 4.666805393927107 0.5447173257693746 a25.698488006772017,25.698488006772017 0 0,0 -0.05506634166393881,0.4389329233184493 l -4.6567375430163205 -0.6249680033752189" fill="#ff2803" stroke="none" /><path d="M 120.81339534386255 102.79330883721812 l 4.086292416896713 0.5484101239128575 a25.122928495668788,25.122928495668788 0 0,0 -0.06121135608204579,0.42811208187083233 l -4.076247009798066 -0.6186676777640993" fill="#ff2003" stroke="none" /><path d="M 120.76222939487914 103.15116336523771 l 4.139288739927357 0.6282357634781325 a25.186692184410308,25.186692184410308 0 0,0 -0.06874557187869748,0.428078741711422 l -4.127861413687371 -0.6993937348827595" fill="#ff2103" stroke="none" /><path d="M 120.64145759157962 103.86396538481128 l 5.664164532285226 1.0602999129070234 a26.7625511498041,26.7625511498041 0 0,0 -0.08866059415400421,0.45207845947785674 l -5.645074005155558 -1.157642099452825" fill="#ff3705" stroke="none" /><path d="M 120.23288151984713 105.62410040840565 l 3.6674835225811213 1.0194442920518498 a24.80653412607862,24.80653412607862 0 0,0 -0.11789879805328074,0.4104211828926902 l -3.649392087641741 -1.0824229504491218" fill="#ff1b02" stroke="none" /><path d="M 119.9155931802556 106.66101706037122 l 3.8430590620270935 1.285358751029085 a25.052314162682308,25.052314162682308 0 0,0 -0.14030389769629512,0.4077888015041586 l -3.820364333387568 -1.3513202556225439" fill="#ff1f03" stroke="none" /><path d="M 119.67450827220406 107.3425965602758 l 9.327086277385627 3.480901818241739 a30.95546161129829,30.95546161129829 0 0,0 -0.1906056316268796,0.49761115798931516 l -9.26578636616524 -3.640936543064198" fill="#ff720a" stroke="none" /><path d="M 119.54520255179757 107.68017299344265 l 3.6152251932057307 1.4205815887806463 a24.884315286890594,24.884315286890594 0 0,0 -0.1600859972025583,0.39732031649967403 l -3.59023658174578 -1.482601273123134" fill="#ff1c02" stroke="none" /><path d="M 119.41010516605496 108.01547362559984 l 3.4743125135792488 1.4347300069444189 a24.758895799944458,24.758895799944458 0 0,0 -0.1660602942944781,0.39251748229421624 l -3.4491012380924615 -1.4943220149047987" fill="#ff1a02" stroke="none" /><path d="M 119.12269723197855 108.67885076344098 l 3.776911372574421 1.7141541149592798 a25.147696209477477,25.147696209477477 0 0,0 -0.18229131862301093,0.3926392829169467 l -3.746845437111579 -1.778913465155057" fill="#ff2003" stroke="none" /><line stroke="#e1ed5e" stroke-width="0.3" x1="174.80103733775053" x2="179.2010983576182" y1="140.37084112569926" y2="142.7455964860345" /><path d="M 175.68104954172406 140.8457921977663 a86.0,86.0 0 0,1 -30.038265399797805,32.042727171017184" fill="none" id="id29" stroke="none" /><text fill="#e1ed5e" style="font-size:6.75px; font-family:Arial;" text-anchor="middle"><textPath startOffset="22.206326154141568" xlink:href="#id29">May</textPath></text><path d="M 117.14729908036423 112.12312394758627 l 1.9942369014140282 1.4099235700844321 a23.442307370590576,23.442307370590576 0 0,0 -0.23578519190528943,0.32748500920078716 l -1.9696719171331358 -1.4440421847363505" fill="#ff0701" stroke="none" /><path d="M 115.56566222782051 114.09645910891815 l 14.033063449027939 12.708518416165989 a39.93233504083619,39.93233504083619 0 0,0 -0.46578899549386305,0.5055219601647138 l -13.812228045538353 -12.948191631132039" fill="#ffe915" stroke="none" /><path d="M 113.75828350139079 115.86535959552629 l 5.071783784603641 5.848525619156046 a28.741333391328205,28.741333391328205 0 0,0 -0.3765587173887278,0.32091150822558384 l -4.970359590637866 -5.934961517604577" fill="#ff5407" stroke="none" /><path d="M 112.34349029814194 116.9893568818739 l 2.2320350283329966 3.072132658855899 a24.797364802243063,24.797364802243063 0 0,0 -0.34748508584105153,0.24792138244633893 l -2.1788226146430607 -3.1100983031464575" fill="#ff1b02" stroke="none" /><path d="M 112.04921762599082 117.19931262002967 l 2.6717940816030996 3.8137763871667154 a25.65654098508751,25.65654098508751 0 0,0 -0.36388686175234014,0.25028470161081606 l -2.605750335227876 -3.8592018781426254" fill="#ff2703" stroke="none" /><line stroke="#e1ed5e" stroke-width="0.3" x1="143.8653032363475" x2="146.44561519142675" y1="172.8068346515853" y2="177.08958963109032" /><path d="M 144.38136562736335 173.6633856474863 a86.0,86.0 0 0,1 -40.68145358897372,12.25698825130547" fill="none" id="id30" stroke="none" /><text fill="#e1ed5e" style="font-size:6.75px; font-family:Arial;" text-anchor="middle"><textPath startOffset="21.466115282336833" xlink:href="#id30">June</textPath></text><path d="M 109.89434966115114 118.52300852407294 l 3.179826553490968 5.95288789789283 a27.748938526551058,27.748938526551058 0 0,0 -0.4232494026327297,0.2214240834553093 l -3.0768862483317427 -6.006741400292856" fill="#ff4606" stroke="none" /><line stroke="#e1ed5e" stroke-width="0.3" x1="102.19456741930631" x2="102.32365962044197" y1="184.97166512339345" y2="189.96999836594603" /><path d="M 102.22038585953345 185.97133177190398 a86.0,86.0 0 0,1 -42.740103519485714,-10.115201625700543" fill="none" id="id31" stroke="none" /><text fill="#e1ed5e" style="font-size:6.75px; font-family:Arial;" text-anchor="middle"><textPath startOffset="22.20632615414155" xlink:href="#id31">July</textPath></text><line stroke="#e1ed5e" stroke-width="0.3" x1="58.666819895761336" x2="56.23545636021788" y1="174.27360380694188" y2="178.64263932499728" /><path d="M 58.180547188652646 175.14741091055294 a86.0,86.0 0 0,1 -31.652253787137756,-30.449443065178592" fill="none" id="id32" stroke="none" /><text fill="#e1ed5e" style="font-size:6.75px; font-family:Arial;" text-anchor="middle"><textPath startOffset="22.20632615414155" xlink:href="#id32">August</textPath></text><line stroke="#e1ed5e" stroke-width="0.3" x1="26.63291911575756" x2="22.317208475507996" y1="142.92168965132927" y2="145.44649492493687" /><path d="M 25.769776987707644 143.4266507060508 a86.0,86.0 0 0,1 -11.730757126820373,-40.83630448921669" fill="none" id="id33" stroke="none" /><text fill="#e1ed5e" style="font-size:6.75px; font-family:Arial;" text-anchor="middle"><textPath startOffset="21.46611528233685" xlink:href="#id33">September</textPath></text><line stroke="#e1ed5e" stroke-width="0.3" x1="15.007084014347285" x2="10.007500721073583" y1="101.09737516637583" y2="101.16192664675087" /><path d="M 14.007167355692545 101.11028546245083 a86.0,86.0 0 0,1 10.666146001902534,-42.60595125391555" fill="none" id="id34" stroke="none" /><text fill="#e1ed5e" style="font-size:6.75px; font-family:Arial;" text-anchor="middle"><textPath startOffset="22.20632615414155" xlink:href="#id34">October</textPath></text><line stroke="#e1ed5e" stroke-width="0.3" x1="26.266209847984243" x2="21.928928074336255" y1="57.711370442889674" y2="55.22380399835377" /><path d="M 25.398753493254645 57.213857153982495 a86.0,86.0 0 0,1 29.58750427330803,-30.492523968695096" fill="none" id="id35" stroke="none" /><text fill="#e1ed5e" style="font-size:6.75px; font-family:Arial;" text-anchor="middle"><textPath startOffset="21.46611528233685" xlink:href="#id35">November</textPath></text><line stroke="#e1ed5e" stroke-width="0.3" x1="56.762969772571076" x2="54.21961505331055" y1="26.818313649435495" y2="22.513508569990535" /><path d="M 56.25429882871897 25.957352633546506 a86.0,86.0 0 0,1 42.265352541879196,-11.944610805530505" fill="none" id="id36" stroke="none" /><text fill="#e1ed5e" style="font-size:6.75px; font-family:Arial;" text-anchor="middle"><textPath startOffset="22.20632615414155" xlink:href="#id36">December</textPath></text></svg>