<?xml version="1.0" encoding="utf-8" ?>
<svg baseProfile="full" height="200mm" version="1.1" viewBox="0,0,200,200" width="200mm" xmlns="http://www.w3.org/2000/svg" xmlns:ev="http://www.w3.org/2001/xml-events" xmlns:xlink="http://www.w3.org/1999/xlink"><defs /><rect fill="#1a1a1a" height="200" width="200" x="0" y="0" /><text alignment-baseline="middle" fill="#e1ed5e" style="dominant-baseline: central; font-size:9.0px; font-family:Arial;" text-anchor="middle" x="100.0" y="100.0">2023</text><line stroke="#e1ed5e" stroke-width="0.3" x1="100.0" x2="100.0" y1="15.0" y2="10.0" /><path d="M 100.0 14.0 a86.0,86.0 0 0,1 42.46469731375804,11.215312516191453" fill="none" id="id1" stroke="none" /><text fill="#e1ed5e" style="font-size:6.75px; font-family:Arial;" text-anchor="middle"><textPath startOffset="22.20632615414155" xlink:href="#id1">January</textPath></text><line stroke="#e1ed5e" stroke-width="0.3" x1="143.23703022742887" x2="145.7803849466894" y1="26.81831364943548" y2="22.513508569990506" /><path d="M 143.74570117128098 25.957352633546492 a86.0,86.0 0 0,1 28.547481713284135,27.462654790039103" fill="none" id="id2" stroke="none" /><text fill="#e1ed5e" style="font-size:6.75px; font-family:Arial;" text-anchor="middle"><textPath startOffset="19.985693538727396" xlink:href="#id2">February</textPath></text><line stroke="#e1ed5e" stroke-width="0.3" x1="172.23445277983987" x2="176.4835382374775" y1="55.19839476539836" y2="52.563006222186495" /><path d="M 173.08426987136738 54.67131705675599 a86.0,86.0 0 0,1 12.851231095245387,41.99856678651699" fill="none" id="id3" stroke="none" /><text fill="#e1ed5e" style="font-size:6.75px; font-family:Arial;" text-anchor="middle"><textPath startOffset="22.20632615414155" xlink:href="#id3">March</textPath></text><line stroke="#e1ed5e" stroke-width="0.3" x1="184.98032266829074" x2="189.97916517819016" y1="98.17113171792111" y2="98.06355123074" /><path d="M 185.9800911702706 98.14961562048488 a86.0,86.0 0 0,1 -9.607161424134198,41.387399972396054" fill="none" id="id4" stroke="none" /><text fill="#e1ed5e" style="font-size:6.75px; font-family:Arial;" text-anchor="middle"><textPath startOffset="21.466115282336823" xlink:href="#id4">April</textPath></text><line stroke="#e1ed5e" stroke-width="0.3" x1="174.80103733775053" x2="179.2010983576182" y1="140.37084112569926" y2="142.7455964860345" /><path d="M 175.68104954172406 140.8457921977663 a86.0,86.0 0 0,1 -30.038265399797805,32.042727171017184" fill="none" id="id5" stroke="none" /><text fill="#e1ed5e" style="font-size:6.75px; font-family:Arial;" text-anchor="middle"><textPath startOffset="22.206326154141568" xlink:href="#id5">May</textPath></text><line stroke="#e1ed5e" stroke-width="0.3" x1="143.8653032363475" x2="146.44561519142675" y1="172.8068346515853" y2="177.08958963109032" /><path d="M 144.38136562736335 173.6633856474863 a86.0,86.0 0 0,1 -40.68145358897372,12.25698825130547" fill="none" id="id6" stroke="none" /><text fill="#e1ed5e" style="font-size:6.75px; font-family:Arial;" text-anchor="middle"><textPath startOffset="21.466115282336833" xlink:href="#id6">June</textPath></text><line stroke="#e1ed5e" stroke-width="0.3" x1="102.19456741930631" x2="102.32365962044197" y1="184.97166512339345" y2="189.96999836594603" /><path d="M 102.22038585953345 185.97133177190398 a86.0,86.0 0 0,1 -42.740103519485714,-10.115201625700543" fill="none" id="id7" stroke="none" /><text fill="#e1ed5e" style="font-size:6.75px; font-family:Arial;" text-anchor="middle"><textPath startOffset="22.20632615414155" xlink:href="#id7">July</textPath></text><path d="M 99.81925306533755 120.99922214144158 l -0.12498332531547067 14.520592657225858 a35.521130532733615,35.521130532733615 0 0,0 -0.6113699254816314,-0.010525287705231926 l 0.37491294068977 -14.516289892241467" fill="#ff850c" stroke="none" /><path d="M 99.09653310690486 120.98055641714683 l -0.65451514564253 15.199330538816051 a36.213416411314775,36.213416411314775 0 0,0 -0.6225464479997813,-0.032178540382665856 l 0.9160496620558003 -15.185812191671184" fill="#ff8f0d" stroke="none" /><path d="M 98.37488393609728 120.93702456842531 l -1.1857232071067065 15.276149482472452 a36.322097850317846,36.322097850317846 0 0,0 -0.6229338063018908,-0.053749349976484735 l 1.448501331150139 -15.253475880217303" fill="#ff910d" stroke="none" /><path d="M 97.65516085044442 120.86867818915974 l -1.563952614602481 13.918917987794575 a35.00650654987436,35.00650654987436 0 0,0 -0.5982321531200872,-0.07243758253797199 l 1.8033121907739573 -13.889934876531255" fill="#ff7e0b" stroke="none" /><path d="M 96.93821686468263 120.77559828337769 l -2.28249952626775 15.487802742379209 a36.655089839226775,36.655089839226775 0 0,0 -0.6234230241323643,-0.09736585502742734 l 2.5487584140086312 -15.446218580004675" fill="#ff960d" stroke="none" /><path d="M 96.22490169976321 120.6578951692458 l -2.780272515582157 15.214061621979194 a36.46601391109816,36.46601391109816 0 0,0 -0.616505519329473,-0.11815475007499304 l 3.041745649483325 -15.163949673555734" fill="#ff930d" stroke="none" /><path d="M 95.86986931433489 120.58985236759428 l -6.770507106016644 33.752864588637486 a55.4252180009295,55.4252180009295 0 0,0 -0.9338054943269767,-0.19568802055697967 l 7.350504061773007 -33.63132058735397" fill="#77ff27" stroke="none" /><path d="M 95.51606077576429 120.51570834832081 l -3.318105842528507 15.18158216022146 a36.539956990602526,36.539956990602526 0 0,0 -0.6133142181542287,-0.13958831927223686 l 3.5789402100755985 -15.122217107371537" fill="#ff940d" stroke="none" /><path d="M 94.46302465271185 120.25689768951611 l -4.102322611950738 15.008253464660038 a36.55881495718753,36.55881495718753 0 0,0 -0.6056034406969713,-0.1711495815502295 l 4.360057220752323 -14.935415089771288" fill="#ff940d" stroke="none" /><path d="M 94.11515582081647 120.15858648285463 l -4.633186602659619 15.871022235609217 a37.533474072265236,37.533474072265236 0 0,0 -0.6186321272671036,-0.1863887852288571 l 4.905693704366969 -15.788918081274634" fill="#ffa20f" stroke="none" /><path d="M 93.76903079525671 120.05430185196036 l -5.979127102879254 19.243750978756093 a41.15122608291519,41.15122608291519 0 0,0 -0.6746423220802215,-0.21599916702774166 l 6.309490770050415 -19.137978965068644" fill="#ffd413" stroke="none" /><path d="M 93.08242187328487 119.8279376855182 l -6.49968663758344 18.630130265922613 a40.73138819525951,40.73138819525951 0 0,0 -0.6600045081544796,-0.2366541347885547 l 6.819410706367647 -18.515488590094098" fill="#ffcf13" stroke="none" /><path d="M 92.7421414339146 119.70592522655815 l -9.817996153536297 26.65699480288623 a49.4075416111982,49.4075416111982 0 0,0 -0.7955314827510276,-0.3008019358533821 l 10.275397857047608 -26.484044616926216" fill="#beff1e" stroke="none" /><path d="M 91.7346041902142 119.30500536409082 l -11.823743470596222 27.616031509737144 a51.04074076991547,51.04074076991547 0 0,0 -0.8046920961463158,-0.35275336722970224 l 12.297356241400282 -27.40841358921299" fill="#aaff21" stroke="none" /><path d="M 90.7491055286396 118.85261126421891 l -12.8476589146991 26.182540501781364 a50.16483784826977,50.16483784826977 0 0,0 -0.7719319677331588,-0.3870627136661862 l 13.296444790115018 -25.957509947205878" fill="#b5ff20" stroke="none" /><path d="M 90.10565033884886 118.52300852407294 l -13.929982325486773 26.07803344248877 a50.565321507061896,50.565321507061896 0 0,0 -0.7642037884223553,-0.4167048373128584 l 14.376808925777768 -25.834387953416147" fill="#b0ff20" stroke="none" /><line stroke="#e1ed5e" stroke-width="0.3" x1="58.666819895761336" x2="56.23545636021788" y1="174.27360380694188" y2="178.64263932499728" /><path d="M 58.180547188652646 175.14741091055294 a86.0,86.0 0 0,1 -31.652253787137756,-30.449443065178592" fill="none" id="id8" stroke="none" /><text fill="#e1ed5e" style="font-size:6.75px; font-family:Arial;" text-anchor="middle"><textPath startOffset="22.20632615414155" xlink:href="#id8">August</textPath></text><path d="M 89.4739219176387 118.17145234162733 l -18.106821064472566 31.258293303257283 a57.12392378041575,57.12392378041575 0 0,0 -0.8466095434948203,-0.5001918409964706 l 18.64219847899577 -30.94198288996706" fill="#63ff29" stroke="none" /><path d="M 88.8546689885994 117.79835938074946 l -24.132311887125837 38.5377122685764 a66.47003127240072,66.47003127240072 0 0,0 -0.9645061022481233,-0.6155934284815453 l 24.792099791420885 -38.116604411271055" fill="#35ff69" stroke="none" /><path d="M 88.24862548938628 117.40417183066458 l -14.682159852605697 21.744761235312673 a47.23738666708678,47.23738666708678 0 0,0 -0.6699681146284892,-0.46081017833689975 l 15.054284851857076 -21.488810267610674" fill="#d9ff1c" stroke="none" /><path d="M 87.95078237400918 117.19931262002967 l -15.092440217284514 21.543274057583428 a47.30388581241285,47.30388581241285 0 0,0 -0.6628686133880884,-0.4729391553991383 l 15.46103615852149 -21.28029064034007" fill="#d9ff1c" stroke="none" /><path d="M 87.65650970185807 116.9893568818739 l -17.568245524025215 24.180615513666933 a50.88888451267832,50.88888451267832 0 0,0 -0.7042416513342036,-0.5209811376169906 l 17.98187214577798 -23.874624427310174" fill="#acff20" stroke="none" /><path d="M 87.07902340077011 116.55440617244103 l -17.71322594501551 22.69425493236205 a49.78867104112675,49.78867104112675 0 0,0 -0.6710623945595799,-0.5331325516144889 l 18.101245832292445 -22.38598846674243" fill="#baff1f" stroke="none" /><path d="M 86.79598089348748 116.32954008644616 l -12.786105229522809 15.812701891050054 a41.33533938825828,41.33533938825828 0 0,0 -0.5494251414288664,-0.45213948672276016 l 13.056400499496364 -15.590267285470112" fill="#ffd714" stroke="none" /><path d="M 85.97065885151581 115.62618273729859 l -20.080074014137377 22.365619497198796 a51.05711742510772,51.05711742510772 0 0,0 -0.6489127449373789,-0.5927664069276113 l 20.46208630854161 -22.016660323684608" fill="#aaff21" stroke="none" /><path d="M 85.70375840098266 115.38237550388516 l -20.48539741781381 22.04174245689798 a51.09135952232786,51.09135952232786 0 0,0 -0.6390413961319541,-0.6042535269955813 l 20.861774648336585 -21.685854293156467" fill="#aaff21" stroke="none" /><path d="M 84.9287848128048 114.62390073753433 l -19.02549631942228 18.460818600343742 a47.50983465801227,47.50983465801227 0 0,0 -0.5644472615353813,-0.5918206970894332 l 19.34045013233662 -18.13059078667181" fill="#d6ff1c" stroke="none" /><path d="M 84.67929136418377 114.36230785411682 l -22.09638915042656 20.714129547564863 a51.28738312235622,51.28738312235622 0 0,0 -0.598239462872399,-0.649270783219101 l 22.449675021294688 -20.330707509544414" fill="#a7ff21" stroke="none" /><path d="M 84.19399662182784 113.82643327865904 l -21.115467872250687 18.470931626303646 a49.0542028688686,49.0542028688686 0 0,0 -0.5504757306230228,-0.6403276375587164 l 21.430286112444488 -18.104726889583397" fill="#c3ff1e" stroke="none" /><path d="M 83.72743513129214 113.27417163493432 l -23.336157017169164 19.03622176620508 a51.11567637397695,51.11567637397695 0 0,0 -0.5503018495884154,-0.6865861701390595 l 23.66037677881244 -18.63170776248776" fill="#a9ff21" stroke="none" /><path d="M 83.28015986056508 112.70617746262583 l -50.159520418304766 38.118532387877515 a84.0,84.0 0 0,0 -0.8649549332196598,-1.158748481962768 l 50.80823661821951 -37.24947102640544" fill="#4dd2ff" stroke="none" /><path d="M 82.85270091963577 112.12312394758628 l -31.70053378181728 22.412246875760086 a59.82309431346446,59.82309431346446 0 0,0 -0.5872323044062701,-0.8459519323520815 l 32.08162699338568 -21.863253681220993" fill="#46ff2c" stroke="none" /><path d="M 82.6465618267979 111.8261652097733 l -15.581309424827612 10.618480188390683 a39.85548527361381,39.85548527361381 0 0,0 -0.38146803677832103,-0.570242956720689 l 15.761780567016663 -10.348700317464173" fill="#ffc312" stroke="none" /><line stroke="#e1ed5e" stroke-width="0.3" x1="26.63291911575756" x2="22.317208475507996" y1="142.92168965132927" y2="145.44649492493687" /><path d="M 25.769776987707644 143.4266507060508 a86.0,86.0 0 0,1 -11.730757126820373,-40.83630448921669" fill="none" id="id9" stroke="none" /><text fill="#e1ed5e" style="font-size:6.75px; font-family:Arial;" text-anchor="middle"><textPath startOffset="21.46611528233685" xlink:href="#id9">September</textPath></text><path d="M 81.87401531095188 110.60418214915194 l -12.681578493031665 7.419060017198851 a35.692341018834334,35.692341018834334 0 0,0 -0.30567601356599916,-0.5329718951601878 l 12.807406502750043 -7.199668276180357" fill="#ff880c" stroke="none" /><path d="M 81.18737489456691 109.33194174019688 l -25.056924659329795 12.429406305547342 a48.97033454379317,48.97033454379317 0 0,0 -0.3680860871535945,-0.7583663630341075 l 25.26716400309811 -11.99625098654795" fill="#c4ff1e" stroke="none" /><path d="M 80.87730276802145 108.67885076344099 l -43.15497288428239 19.58591744770714 a68.3915588149572,68.3915588149572 0 0,0 -0.47730441302176185,-1.0761954466790589 l 43.48571838203543 -18.840173664535385" fill="#38ff81" stroke="none" /><path d="M 79.10278846688536 102.07522291339032 l -29.31196514567786 2.910860217422638 a50.45614380578027,50.45614380578027 0 0,0 -0.0783881934269298,-0.865007182483375 l 29.357727935381863 -2.405871646390697" fill="#b1ff20" stroke="none" /><path d="M 79.07016306316243 101.71520430193888 l -20.634393350902958 1.6909926412792888 a41.703565998944455,41.703565998944455 0 0,0 -0.05247389188862514,-0.7159645641190372 l 20.66044380145592 -1.335554940663491" fill="#ffdc14" stroke="none" /><path d="M 79.04373962182676 101.35467743843564 l -17.10816873762785 1.1059249018471433 a38.14387667488519,38.14387667488519 0 0,0 -0.03671556851882838,-0.6555811400275737 l 17.124670657034212 -0.811272045484132" fill="#ffab0f" stroke="none" /><path d="M 79.0095281055655 100.63252640178507 l -15.713959758890358 0.4735241053214143 a36.7210927222743,36.7210927222743 0 0,0 -0.013600683682470402,-0.6319703278640435 l 15.719782505257834 -0.20296396166724193" fill="#ff970d" stroke="none" /><line stroke="#e1ed5e" stroke-width="0.3" x1="15.007084014347285" x2="10.007500721073583" y1="101.09737516637583" y2="101.16192664675087" /><path d="M 14.007167355692545 101.11028546245083 a86.0,86.0 0 0,1 10.666146001902534,-42.60595125391555" fill="none" id="id10" stroke="none" /><text fill="#e1ed5e" style="font-size:6.75px; font-family:Arial;" text-anchor="middle"><textPath startOffset="22.20632615414155" xlink:href="#id10">October</textPath></text><path d="M 79.00019446554 99.90962569577889 l -11.334525480477975 -0.04877901618154659 a32.33463044214606,32.33463044214606 0 0,0 0.007185975720228272,-0.5565617387547567 l 11.332006497640032 0.2438770129967752" fill="#ff5608" stroke="none" /><path d="M 79.03285615573316 98.82574320788736 l -5.717411074187157 -0.32020139877087184 a26.72637043222081,26.72637043222081 0 0,0 0.02967824586078646,-0.45910932756380823 l 5.711052237321957 0.4185697905876919" fill="#ff0000" stroke="none" /><path d="M 79.26566170972629 96.67025291283419 l -15.316908718161379 -2.4597569247052733 a36.51315882756067,36.51315882756067 0 0,0 0.1049981757910869,-0.6197051771249525 l 15.272298680850069 2.723047890146054" fill="#ff940d" stroke="none" /><line stroke="#e1ed5e" stroke-width="0.3" x1="26.266209847984243" x2="21.928928074336255" y1="57.711370442889674" y2="55.22380399835377" /><path d="M 25.398753493254645 57.213857153982495 a86.0,86.0 0 0,1 29.58750427330803,-30.492523968695096" fill="none" id="id11" stroke="none" /><text fill="#e1ed5e" style="font-size:6.75px; font-family:Arial;" text-anchor="middle"><textPath startOffset="21.46611528233685" xlink:href="#id11">November</textPath></text><line stroke="#e1ed5e" stroke-width="0.3" x1="56.762969772571076" x2="54.21961505331055" y1="26.818313649435495" y2="22.513508569990535" /><path d="M 56.25429882871897 25.957352633546506 a86.0,86.0 0 0,1 42.265352541879196,-11.944610805530505" fill="none" id="id12" stroke="none" /><text fill="#e1ed5e" style="font-size:6.75px; font-family:Arial;" text-anchor="middle"><textPath startOffset="22.20632615414155" xlink:href="#id12">December</textPath></text></svg>