<?xml version="1.0" encoding="utf-8" ?>
<svg baseProfile="full" height="200mm" version="1.1" viewBox="0,0,200,200" width="200mm" xmlns="http://www.w3.org/2000/svg" xmlns:ev="http://www.w3.org/2001/xml-events" xmlns:xlink="http://www.w3.org/1999/xlink"><defs /><rect fill="#1a1a1a" height="200" width="200" x="0" y="0" /><rect fill="#1a1a1a" height="200" width="180" x="10" y="0" /><text alignment-baseline="middle" fill="#e1ed5e" style="dominant-baseline: central; font-size:9.0px; font-family:Arial;" text-anchor="middle" x="100.0" y="100.0">2023</text><line stroke="#e1ed5e" stroke-width="0.3" x1="100.0" x2="100.0" y1="15.0" y2="10.0" /><path d="M 100.0 14.0 a86.0,86.0 0 0,1 42.46469731375804,11.215312516191453" fill="none" id="id1" stroke="none" /><text fill="#e1ed5e" style="font-size:6.75px; font-family:Arial;" text-anchor="middle"><textPath startOffset="22.20632615414155" xlink:href="#id1">January</textPath></text><line stroke="#e1ed5e" stroke-width="0.3" x1="143.23703022742887" x2="145.7803849466894" y1="26.81831364943548" y2="22.513508569990506" /><path d="M 143.74570117128098 25.957352633546492 a86.0,86.0 0 0,1 28.547481713284135,27.462654790039103" fill="none" id="id2" stroke="none" /><text fill="#e1ed5e" style="font-size:6.75px; font-family:Arial;" text-anchor="middle"><textPath startOffset="19.985693538727396" xlink:href="#id2">February</textPath></text><line stroke="#e1ed5e" stroke-width="0.3" x1="172.23445277983987" x2="176.4835382374775" y1="55.19839476539836" y2="52.563006222186495" /><path d="M 173.08426987136738 54.67131705675599 a86.0,86.0 0 0,1 12.851231095245387,41.99856678651699" fill="none" id="id3" stroke="none" /><text fill="#e1ed5e" style="font-size:6.75px; font-family:Arial;" text-anchor="middle"><textPath startOffset="22.20632615414155" xlink:href="#id3">March</textPath></text><line stroke="#e1ed5e" stroke-width="0.3" x1="184.98032266829074" x2="189.97916517819016" y1="98.17113171792111" y2="98.06355123074" /><path d="M 185.9800911702706 98.14961562048488 a86.0,86.0 0 0,1 -9.607161424134198,41.387399972396054" fill="none" id="id4" stroke="none" /><text fill="#e1ed5e" style="font-size:6.75px; font-family:Arial;" text-anchor="middle"><textPath startOffset="21.466115282336823" xlink:href="#id4">April</textPath></text><line stroke="#e1ed5e" stroke-width="0.3" x1="174.80103733775053" x2="179.2010983576182" y1="140.37084112569926" y2="142.7455964860345" /><path d="M 175.68104954172406 140.8457921977663 a86.0,86.0 0 0,1 -30.038265399797805,32.042727171017184" fill="none" id="id5" stroke="none" /><text fill="#e1ed5e" style="font-size:6.75px; font-family:Arial;" text-anchor="middle"><textPath startOffset="22.206326154141568" xlink:href="#id5">May</textPath></text><line stroke="#e1ed5e" stroke-width="0.3" x1="143.8653032363475" x2="146.44561519142675" y1="172.8068346515853" y2="177.08958963109032" /><path d="M 144.38136562736335 173.6633856474863 a86.0,86.0 0 0,1 -40.68145358897372,12.25698825130547" fill="none" id="id6" stroke="none" /><text fill="#e1ed5e" style="font-size:6.75px; font-family:Arial;" text-anchor="middle"><textPath startOffset="21.466115282336833" xlink:href="#id6">June</textPath></text><line stroke="#e1ed5e" stroke-width="0.3" x1="102.19456741930631" x2="102.32365962044197" y1="184.97166512339345" y2="189.96999836594603" /><path d="M 102.22038585953345 185.97133177190398 a86.0,86.0 0 0,1 -42.740103519485714,-10.115201625700543" fill="none" id="id7" stroke="none" /><text fill="#e1ed5e" style="font-size:6.75px; font-family:Arial;" text-anchor="middle"><textPath startOffset="22.20632615414155" xlink:href="#id7">July</textPath></text><path d="M 99.81925306533755 120.99922214144158 l -0.0956280363639709 11.110088158933971 a32.11049970166165,32.11049970166165 0 0,0 -0.5526680461842848,-0.009514681617672695 l 0.28685577244092364 -11.10679600003714" fill="red" stroke="none" /><path d="M 99.09653310690486 120.98055641714683 l -0.5007867888799569 11.629408401522184 a32.64018587383,32.64018587383 0 0,0 -0.5611188833168629,-0.029003436939205516 l 0.7008937406103086 -11.619065157820776" fill="red" stroke="none" /><path d="M 98.37488393609728 120.93702456842531 l -0.9072280776703645 11.688184600018046 a32.72334090731019,32.72334090731019 0 0,0 -0.5612141509642105,-0.04842391841118405 l 1.1082865463761167 -11.670836429328197" fill="red" stroke="none" /><path d="M 97.65516085044442 120.86867818915974 l -1.196621366276137 10.649731011111047 a31.716747328515723,31.716747328515723 0 0,0 -0.5420128974386857,-0.06563021360535062 l 1.379761686766212 -10.627555268780348" fill="red" stroke="none" /><path d="M 96.93821686468263 120.77559828337769 l -1.7464005470148956 11.85012608768313 a32.97812185463991,32.97812185463991 0 0,0 -0.5608858291440738,-0.08759883131262941 l 1.9501222397674864 -11.818308949023395" fill="red" stroke="none" /><path d="M 96.22490169976321 120.6578951692458 l -2.1272597808607756 11.640679541515052 a32.83345487858533,32.83345487858533 0 0,0 -0.5550923717807984,-0.1063847741827668 l 2.327319767213269 -11.602337568983817" fill="red" stroke="none" /><path d="M 95.86986931433489 120.58985236759428 l -5.180293435963975 25.825206315509014 a47.33964163236277,47.33964163236277 0 0,0 -0.7975794963048967,-0.16714053817088279 l 5.624064393698259 -25.732209796611592" fill="red" stroke="none" /><path d="M 95.51606077576429 120.51570834832081 l -2.5387702348926373 11.615828649268344 a32.890030677619805,32.890030677619805 0 0,0 -0.5520510999862663,-0.12564503303279762 l 2.7383414842717664 -11.57040688265786" fill="red" stroke="none" /><path d="M 94.46302465271185 120.25689768951611 l -3.138795154650969 11.483210295898159 a32.90445940489033,32.90445940489033 0 0,0 -0.5450683741584929,-0.15404176707801942 l 3.3359946969140757 -11.427479735481619" fill="red" stroke="none" /><path d="M 94.11515582081647 120.15858648285463 l -3.544973185837886 12.143337422407049 a33.650196782767495,33.650196782767495 0 0,0 -0.5546273915012455,-0.16710468338145756 l 3.753475551779377 -12.080517369919866" fill="red" stroke="none" /><path d="M 93.76903079525671 120.05430185196036 l -4.574787737289991 14.723901078249668 a36.41823419861498,36.41823419861498 0 0,0 -0.5970486040029658,-0.19115610882825962 l 4.827557686383898 -14.642972122761702" fill="red" stroke="none" /><path d="M 93.08242187328487 119.8279376855182 l -4.973081557594851 14.254403697759807 a36.097005165170955,36.097005165170955 0 0,0 -0.5849097513121618,-0.20972782672837392 l 5.21771086953674 -14.166688329991477" fill="red" stroke="none" /><path d="M 92.7421414339146 119.70592522655815 l -7.512007628392646 20.395969317749046 a42.73535881966502,42.73535881966502 0 0,0 -0.6880998782582585,-0.26018049559119516 l 7.861977727411188 -20.26364057205122" fill="red" stroke="none" /><path d="M 91.7346041902142 119.30500536409082 l -9.046657765829831 21.12975357933462 a43.98496254196324,43.98496254196324 0 0,0 -0.6934529392189344,-0.30398938985022006 l 9.409031379706509 -20.970899636189944" fill="red" stroke="none" /><path d="M 90.7491055286396 118.85261126421891 l -9.830082459285167 20.03295182685914 a43.31478613058178,43.31478613058178 0 0,0 -0.6665239941740222,-0.3342089674899991 l 10.17346036114195 -19.86077501845984" fill="red" stroke="none" /><path d="M 90.10565033884886 118.52300852407294 l -10.658196627500287 19.952990721318876 a43.62120673340606,43.62120673340606 0 0,0 -0.6592559969497686,-0.3594789336540842 l 11.000075436318696 -19.76657113590503" fill="red" stroke="none" /><line stroke="#e1ed5e" stroke-width="0.3" x1="58.666819895761336" x2="56.23545636021788" y1="174.27360380694188" y2="178.64263932499728" /><path d="M 58.180547188652646 175.14741091055294 a86.0,86.0 0 0,1 -31.652253787137756,-30.449443065178592" fill="none" id="id8" stroke="none" /><text fill="#e1ed5e" style="font-size:6.75px; font-family:Arial;" text-anchor="middle"><textPath startOffset="22.20632615414155" xlink:href="#id8">August</textPath></text><path d="M 89.4739219176387 118.17145234162733 l -13.854006034955178 23.916544076056443 a48.63936619675866,48.63936619675866 0 0,0 -0.7208634996784449,-0.4258988618565296 l 14.263637405662006 -23.674526641906166" fill="red" stroke="none" /><path d="M 88.8546689885994 117.79835938074946 l -18.46426787624527 29.486219388879555 a55.79031937270596,55.79031937270596 0 0,0 -0.8095393134513131,-0.5166862918715762 l 18.969088991743504 -29.164018668184173" fill="red" stroke="none" /><path d="M 88.24862548938628 117.40417183066458 l -11.233707478519282 16.637489944260203 a41.07491607350575,41.07491607350575 0 0,0 -0.5825657603422034,-0.40069404208157655 l 11.518430123484375 -16.441655112813528" fill="red" stroke="none" /><path d="M 87.95078237400918 117.19931262002967 l -11.547623799227644 16.4833267940149 a41.12579632230184,41.12579632230184 0 0,0 -0.5762951418145801,-0.41117128209967496 l 11.829646268891112 -16.282111250071008" fill="red" stroke="none" /><path d="M 87.65650970185807 116.9893568818739 l -13.4419276938113 18.501226254042656 a43.86877331710051,43.86877331710051 0 0,0 -0.6070916597738315,-0.4491118963889045 l 13.758404324003696 -18.267104408913983" fill="red" stroke="none" /><path d="M 87.07902340077011 116.55440617244103 l -13.55285603513627 17.363972597523073 a43.02697099186953,43.02697099186953 0 0,0 -0.5799267500150598,-0.46072888376935633 l 13.849740277868687 -17.128109799748586" fill="red" stroke="none" /><path d="M 86.79598089348748 116.32954008644616 l -9.782986112396353 12.098714989645021 a36.559104141177315,36.559104141177315 0 0,0 -0.48593990664038855,-0.3998954605446232 l 9.98979614758143 -11.928524410243218" fill="red" stroke="none" /><path d="M 85.97065885151581 115.62618273729859 l -15.363793875449623 17.11252496428914 a43.99749275248766,43.99749275248766 0 0,0 -0.5591881256175121,-0.5108050945291043 l 15.65608155053399 -16.84552710317346" fill="red" stroke="none" /><path d="M 85.70375840098266 115.38237550388516 l -15.673917494645254 16.864718104380703 a44.02369228358416,44.02369228358416 0 0,0 -0.550640304795384,-0.5206647774189402 l 15.961893633831455 -16.592418690215833" fill="red" stroke="none" /><path d="M 84.9287848128048 114.62390073753433 l -14.556908685890944 14.124858879905483 a41.28337321223006,41.28337321223006 0 0,0 -0.4904729120680401,-0.5142588874184779 l 14.797888149337941 -13.872192875904505" fill="red" stroke="none" /><path d="M 84.67929136418377 114.36230785411682 l -16.9065297299134 15.848926475773188 a44.17367510652788,44.17367510652788 0 0,0 -0.5152619233035073,-0.5592150522801684 l 17.17683806121264 -15.555560168691676" fill="red" stroke="none" /><path d="M 84.19399662182784 113.82643327865904 l -16.156001005999027 14.132596622614779 a42.46501003501709,42.46501003501709 0 0,0 -0.47653322361446776,-0.5543157969016005 l 16.396876739184272 -13.852403726551648" fill="red" stroke="none" /><path d="M 83.72743513129214 113.27417163493432 l -17.855108801117463 14.565115007913311 a44.04229774769617,44.04229774769617 0 0,0 -0.474151172985745,-0.5915764923754283 l 18.10317788615807 -14.255610681959624" fill="red" stroke="none" /><path d="M 83.28015986056508 112.70617746262583 l -38.378371118337085 29.16549381390113 a69.20296048071648,69.20296048071648 0 0,0 -0.7125885959666771,-0.9546288738614245 l 38.874720980998845 -28.500552060530396" fill="red" stroke="none" /><path d="M 82.85270091963577 112.12312394758628 l -24.254913922262798 17.148200800576586 a50.70457271319137,50.70457271319137 0 0,0 -0.4977235534204233,-0.7170079006788643 l 24.546498382845357 -16.72815163771071" fill="red" stroke="none" /><path d="M 82.6465618267979 111.8261652097733 l -11.921670514964779 8.124479061686783 a35.4268287537895,35.4268287537895 0 0,0 -0.33908012212654925,-0.5068787755840737 l 12.059753742502059 -7.918063371896888" fill="red" stroke="none" /><line stroke="#e1ed5e" stroke-width="0.3" x1="26.63291911575756" x2="22.317208475507996" y1="142.92168965132927" y2="145.44649492493687" /><path d="M 25.769776987707644 143.4266507060508 a86.0,86.0 0 0,1 -11.730757126820373,-40.83630448921669" fill="none" id="id9" stroke="none" /><text fill="#e1ed5e" style="font-size:6.75px; font-family:Arial;" text-anchor="middle"><textPath startOffset="21.46611528233685" xlink:href="#id9">September</textPath></text><path d="M 81.87401531095188 110.60418214915194 l -9.70300995131285 5.6765183621127 a32.24149735714415,32.24149735714415 0 0,0 -0.27612233051146573,-0.48144255766725 l 9.799284277976694 -5.508655958587142" fill="red" stroke="none" /><path d="M 81.18737489456691 109.33194174019688 l -19.171713478126424 9.510066364207413 a42.40084016899812,42.40084016899812 0 0,0 -0.31870640654648397,-0.656629595205189 l 19.33257314128763 -9.178647813036939" fill="red" stroke="none" /><path d="M 80.87730276802145 108.67885076344099 l -33.019007182340566 14.985701662069888 a57.2605307409037,57.2605307409037 0 0,0 -0.39962101300466896,-0.9010398874591787 l 33.272069280076515 -14.415113438118013" fill="red" stroke="none" /><path d="M 79.10278846688536 102.07522291339032 l -22.427357103638883 2.227175873417671 a43.53767199657665,43.53767199657665 0 0,0 -0.06763972028783737,-0.7463986770493095 l 22.462371420203795 -1.8407958078197955" fill="red" stroke="none" /><path d="M 79.07016306316243 101.71520430193888 l -15.787918210113244 1.2938230390598089 a36.84084402630199,36.84084402630199 0 0,0 -0.04635532766120772,-0.6324816164578432 l 15.807850096438786 -1.0218682861052049" fill="red" stroke="none" /><path d="M 79.04373962182676 101.35467743843564 l -13.08991081836991 0.8461722910853666 a34.117231902313776,34.117231902313776 0 0,0 -0.03283970258867059,-0.5863749501851412 l 13.102536871846112 -0.6207256245647879" fill="red" stroke="none" /><path d="M 79.0095281055655 100.63252640178507 l -12.023164781799382 0.3623057735789646 a33.02862240008679,33.02862240008679 0 0,0 -0.012233074029925413,-0.5684228812292211 l 12.027619918514315 -0.1552930765596146" fill="red" stroke="none" /><line stroke="#e1ed5e" stroke-width="0.3" x1="15.007084014347285" x2="10.007500721073583" y1="101.09737516637583" y2="101.16192664675087" /><path d="M 14.007167355692545 101.11028546245083 a86.0,86.0 0 0,1 10.666146001902534,-42.60595125391555" fill="none" id="id10" stroke="none" /><text fill="#e1ed5e" style="font-size:6.75px; font-family:Arial;" text-anchor="middle"><textPath startOffset="22.20632615414155" xlink:href="#id10">October</textPath></text><path d="M 79.00019446554 99.90962569577889 l -8.672344187351651 -0.03732211094106858 a29.672424496290358,29.672424496290358 0 0,0 0.006594333044014753,-0.5107383614689156 l 8.670416847189921 0.18659673047045616" fill="red" stroke="none" /><path d="M 79.03285615573316 98.82574320788736 l -4.374541905731024 -0.24499452969559504 a25.38139694670291,25.38139694670291 0 0,0 0.02818472267997637,-0.4360051850056837 l 4.369676592046635 0.3202587789542905" fill="red" stroke="none" /><path d="M 79.26566170972629 96.67025291283419 l -11.719370565528168 -1.8820248545037617 a32.86952669676167,32.86952669676167 0 0,0 0.0945204538061319,-0.5578650688599123 l 11.685238250201813 2.083475711679502" fill="red" stroke="none" /><path d="M 79.54389044137918 95.25157060432595 l -10.857510521880817 -2.5203288033922275 a32.146191816488766,32.146191816488766 0 0,0 0.12975917440773643,-0.5379355500106664 l 10.812518547212266 2.7068495850622907" fill="red" stroke="none" /><path d="M 80.02781315780177 93.51064311812611 l -10.500628300510009 -3.4118609576563688 a32.04101398875355,32.04101398875355 0 0,0 0.17494806544033234,-0.5230724478565166 l 10.440342941297903 3.5921065084352075" fill="red" stroke="none" /><path d="M 80.2630227832202 92.82701384747504 l -16.346269711388068 -5.940705357127375 a38.39231191123379,38.39231191123379 0 0,0 0.2310767648759171,-0.6191708457279862 l 16.24158835801052 6.221199339884702" fill="red" stroke="none" /><line stroke="#e1ed5e" stroke-width="0.3" x1="26.266209847984243" x2="21.928928074336255" y1="57.711370442889674" y2="55.22380399835377" /><path d="M 25.398753493254645 57.213857153982495 a86.0,86.0 0 0,1 29.58750427330803,-30.492523968695096" fill="none" id="id11" stroke="none" /><text fill="#e1ed5e" style="font-size:6.75px; font-family:Arial;" text-anchor="middle"><textPath startOffset="21.46611528233685" xlink:href="#id11">November</textPath></text><path d="M 86.93701828274178 83.55741782278169 l -17.850303641206683 -22.46846017713355 a49.69608061765078,49.69608061765078 0 0,0 0.6743697672477683,-0.5263563000128817 l 17.46090131879949 22.772394866369655" fill="red" stroke="none" /><path d="M 87.22198572758235 83.33499621200491 l -14.899121976122032 -19.431338772710284 a45.48592988144817,45.48592988144817 0 0,0 0.6254398668163972,-0.47106834095785327 l 14.562435955547246 19.684923703173993" fill="red" stroke="none" /><line stroke="#e1ed5e" stroke-width="0.3" x1="56.762969772571076" x2="54.21961505331055" y1="26.818313649435495" y2="22.513508569990535" /><path d="M 56.25429882871897 25.957352633546506 a86.0,86.0 0 0,1 42.265352541879196,-11.944610805530505" fill="none" id="id12" stroke="none" /><text fill="#e1ed5e" style="font-size:6.75px; font-family:Arial;" text-anchor="middle"><textPath startOffset="22.20632615414155" xlink:href="#id12">December</textPath></text><path d="M 90.26544431104013 81.39251694778311 l -2.91880020353344 -5.579250564219518 a27.2966206401919,27.2966206401919 0 0,0 0.4182095912023729,-0.21422319596250355 l 2.822330124742303 5.628666285494527" fill="red" stroke="none" /><path d="M 93.94186890950719 79.89281104454417 l -7.878064226990274 -26.14762269900381 a48.30864457958401,48.30864457958401 0 0,0 0.798265344649432,-0.2330355439802144 l 7.426808664617421 26.279356571902724" fill="red" stroke="none" /><path d="M 94.63758080256005 79.69619591428918 l -16.08725759231985 -60.91141225713247 a84.0,84.0 0 0,0 1.4011644452600023,-0.35718801532454725 l 15.036384258374849 61.17930326862588" fill="red" stroke="none" /><path d="M 95.33964822691252 79.52364482259891 l -2.657276017170676 -11.67536919555946 a32.97394511779844,32.97394511779844 0 0,0 0.5545232681768099,-0.12119730845817556 l 2.455910024840345 11.719380002113503" fill="red" stroke="none" /><path d="M 95.692805502759 79.44645832069477 l -3.7668449684946186 -17.975042712612204 a39.3654915952965,39.3654915952965 0 0,0 0.6644025013910572,-0.13327289140482831 l 3.456876057636425 18.037219560094243" fill="red" stroke="none" /><path d="M 96.04723909329186 79.375362276772 l -4.283001395674374 -22.3477600185612 a43.754482608983906,43.754482608983906 0 0,0 0.7409194042558707,-0.13539828529011444 l 3.8976868703156096 22.41817378520205" fill="red" stroke="none" /><path d="M 97.83486435360386 79.11191278185805 l -2.107927281628995 -20.336171076142932 a41.445126838999755,41.445126838999755 0 0,0 0.7102409406625748,-0.0674459353439092 l 1.7575612138761838 20.36944255600202" fill="red" stroke="none" /><path d="M 98.91598698831166 79.02799685794201 l -1.0877893092838862 -21.04506179004953 a42.07315617861727,42.07315617861727 0 0,0 0.7235764792487323,-0.031158725280010405 l 0.7253719976458297 21.060668241853733" fill="red" stroke="none" /></svg>