<?xml version="1.0" encoding="utf-8" ?>
<svg baseProfile="full" height="200mm" version="1.1" viewBox="0,0,200,200" width="200mm" xmlns="http://www.w3.org/2000/svg" xmlns:ev="http://www.w3.org/2001/xml-events" xmlns:xlink="http://www.w3.org/1999/xlink"><defs /><rect fill="#1a1a1a" height="200" width="200" x="0" y="0" /><text alignment-baseline="middle" fill="#e1ed5e" style="dominant-baseline: central; font-size:9.0px; font-family:Arial;" text-anchor="middle" x="100.0" y="100.0">2024</text><line stroke="#e1ed5e" stroke-width="0.3" x1="100.0" x2="100.0" y1="15.0" y2="10.0" /><path d="M 100.0 14.0 a86.0,86.0 0 0,1 42.35913384403234,11.155469271406648" fill="none" id="id13" stroke="none" /><text fill="#e1ed5e" style="font-size:6.75px; font-family:Arial;" text-anchor="middle"><textPath startOffset="22.145653131862478" xlink:href="#id13">January</textPath></text><path d="M 100.36049292484886 79.00309439819443 l 0.04583772819673721 -2.669817867719991 a23.670211329487454,23.670211329487454 0 0,0 0.40621090553710354,0.010462551997355584 l -0.09166194780458213 2.6686375983725905" fill="#ff1101" stroke="none" /><path d="M 100.72087961077811 79.0123766808444 l 0.15653019582449884 -4.557205862005478 a25.559893306964753,25.559893306964753 0 0,0 0.4383816729028479,0.018825995274692357 l -0.23473762932818298 4.553847298304955" fill="#ff2c04" stroke="none" /><path d="M 101.44090949804482 79.04949213459386 l 0.5327025780598809 -7.745378572845351 a28.763675757871624,28.763675757871624 0 0,0 0.4923122329338593,0.038108080429249104 l -0.6655838057689737 7.735092725421048" fill="#ff5908" stroke="none" /><path d="M 103.94208987418118 79.37332000966035 l 0.9050622540035924 -4.735668155852306 a25.821378492296123,25.821378492296123 0 0,0 0.43466419264104955,0.08694501200890149 l -0.9862229321755989 4.7194337471805445" fill="#ff3004" stroke="none" /><path d="M 104.9986988182912 79.60360301121754 l 0.41033730559285675 -1.6743162347677363 a22.723865295888288,22.723865295888288 0 0,0 0.37807610723059637,0.09610546800290118 l -0.4390187060488476 1.6670255349295675" fill="#ff0300" stroke="none" /><path d="M 105.3480935250658 79.69241777938227 l 2.717336477790501 -10.318169210239345 a31.66998282026087,31.66998282026087 0 0,0 0.5245432884269278,0.14296660580115433 l -2.8940611671521213 10.27000211029405" fill="#ff810b" stroke="none" /><path d="M 105.69591212413111 79.78721728523813 l 2.3193240262898516 -8.23046275414138 a29.551010530120628,29.551010530120628 0 0,0 0.48708506757176334,0.14178336431630498 l -2.4602691062432194 8.189435695522558" fill="#ff6409" stroke="none" /><path d="M 106.72888874123014 80.10723608172694 l 0.6670165896743321 -1.9719160262913449 a23.081673352292675,23.081673352292675 0 0,0 0.37424650228561757,0.1301823605135877 l -0.7007688640049679 1.9601752332091669" fill="#ff0801" stroke="none" /><path d="M 108.73861861582097 80.90454125486305 l 1.5798753547292028 -3.4523127721893236 a24.796639252484,24.796639252484 0 0,0 0.3855420273329939,0.1804531359500301 l -1.6389060959337018 3.42468340466876" fill="#ff2103" stroke="none" /><line stroke="#e1ed5e" stroke-width="0.3" x1="143.13028292997686" x2="145.6673583964461" y1="26.7553504044142" y2="22.446841604673864" /><path d="M 143.63769802327073 25.89364864446614 a86.0,86.0 0 0,1 29.32050498858742,28.57503671076993" fill="none" id="id14" stroke="none" /><text fill="#e1ed5e" style="font-size:6.75px; font-family:Arial;" text-anchor="middle"><textPath startOffset="20.669276256404974" xlink:href="#id14">February</textPath></text><path d="M 111.27062007382361 82.28071324371311 l 0.9244895503457738 -1.4534511267763879 a22.72255656122697,22.72255656122697 0 0,0 0.3273285634106651,0.21217042013128373 l -0.9493037460134462 1.4373668649412095" fill="#ff0300" stroke="none" /><path d="M 114.13192950727249 84.46653392183569 l 1.7817678670011667 -1.9584750056234572 a23.64770109331278,23.64770109331278 0 0,0 0.2979275088646078,0.27575725440563503 l -1.8151251471797394 1.9276000050854472" fill="#ff1001" stroke="none" /><path d="M 115.8921839302757 86.27271002978787 l 1.9746834411942122 -1.7056845248945591 a23.609355167736158,23.609355167736158 0 0,0 0.26229480536782385,0.30898262119239167 l -2.0036728100691485 1.6715351212526155" fill="#ff1001" stroke="none" /><path d="M 116.35404254752997 86.82634096563983 l 3.2339068432268374 -2.605006436649442 a25.15261508036254,25.15261508036254 0 0,0 0.2679754452680216,0.3385782210290187 l -3.2781487191364183 2.549108271705745" fill="#ff2603" stroke="none" /><path d="M 117.81537515405839 88.88188828441811 l 3.4767999128507654 -2.1697802886286346 a25.098302591917836,25.098302591917836 0 0,0 0.22496688502814027,0.36746649977569623 l -3.513534762334308 2.1097766727283833" fill="#ff2503" stroke="none" /><line stroke="#e1ed5e" stroke-width="0.3" x1="172.87174338648825" x2="177.1583165268699" y1="56.24261187166439" y2="53.66864786411523" /><path d="M 173.72905801456457 55.72781907015455 a86.0,86.0 0 0,1 12.242430191666344,42.057860355516425" fill="none" id="id15" stroke="none" /><text fill="#e1ed5e" style="font-size:6.75px; font-family:Arial;" text-anchor="middle"><textPath startOffset="22.145653131862474" xlink:href="#id15">March</textPath></text><path d="M 118.36410011445183 89.81374322990088 l 18.20738490701704 -10.099329486281173 a41.82079060037683,41.82079060037683 0 0,0 0.34284017069609024,0.630787299187624 l -18.37807042732847 9.785287353618946" fill="#faff18" stroke="none" /><path d="M 118.70294669586156 90.45014215332178 l 3.719834232250912 -1.8993738638555868 a25.176695798130794,25.176695798130794 0 0,0 0.19323723875163895,0.3866039219977686 l -3.7518913842142876 1.8352380856940678" fill="#ff2603" stroke="none" /><path d="M 119.58574465831526 92.42381321644754 l 6.703398207802237 -2.593018432172751 a28.187439886493234,28.187439886493234 0 0,0 0.17069416454223363,0.45278655113497895 l -6.746923056158911 2.477563600843615" fill="#ff5107" stroke="none" /><path d="M 119.71291397450082 92.76114493625339 l 9.943170204724733 -3.651269826433089 a31.592374854844707,31.592374854844707 0 0,0 0.18257358287104558,0.5106908051490612 l -10.004383957639723 3.4800440649031112" fill="#ff800b" stroke="none" /><path d="M 119.83427380445688 93.10060997987247 l 5.993409174583339 -2.084818826912092 a27.34566175233339,27.34566175233339 0 0,0 0.1504201232926426,0.44469036661037215 l -6.028314719448346 1.9816267858275582" fill="#ff4506" stroke="none" /><path d="M 120.05942366710727 93.78553927170692 l 60.17827100132179 -18.643382184879226 a84.0,84.0 0 0,0 0.41489471998549066,1.3810495856371061 l -60.48944204131091 17.607594995651397" fill="#4dd2ff" stroke="none" /><path d="M 120.35273937422433 94.82641323984039 l 2.335245582722484 -0.5936102952212401 a23.409511384952875,23.409511384952875 0 0,0 0.09565847976132609,0.39031924096246373 l -2.345091589000101 0.5534352296506815" fill="#ff0d01" stroke="none" /><path d="M 120.43855184770803 95.1765574152323 l 3.4829278371418595 -0.82196148604466 a24.578604057908393,24.578604057908393 0 0,0 0.09338598294741692,0.41147587173654837 l -3.496524681646943 0.7620512803690854" fill="#ff1e03" stroke="none" /><line stroke="#e1ed5e" stroke-width="0.3" x1="184.99686870605535" x2="189.99668451229388" y1="99.2704041080226" y2="99.22748670261217" /><path d="M 185.99683186730306 99.26182062694052 a86.0,86.0 0 0,1 -10.086455211305974,41.156179273409016" fill="none" id="id16" stroke="none" /><text fill="#e1ed5e" style="font-size:6.75px; font-family:Arial;" text-anchor="middle"><textPath startOffset="21.40746469413373" xlink:href="#id16">April</textPath></text><path d="M 120.82617615685814 102.69636545807757 l 8.920868703517568 1.1549850556838293 a29.99532594763815,29.99532594763815 0 0,0 -0.07049684824903468,0.5100800759643308 l -8.899727338713323 -1.307953439848245" fill="#ff6a09" stroke="none" /><path d="M 120.7213421655516 103.40968896794604 l 2.3359564986943577 0.38438075292445584 a23.36737012885843,23.36737012885843 0 0,0 -0.06852779781486945,0.39525012724256436 l -2.329013883387254 -0.4244239130876082" fill="#ff0c01" stroke="none" /><path d="M 120.43855184770803 104.8234425847677 l 3.5040720011619557 0.8269514511808295 a24.600329053286274,24.600329053286274 0 0,0 -0.10052452783692975,0.41017437765392056 l -3.4893599468087304 -0.8869816534428496" fill="#ff1e03" stroke="none" /><path d="M 118.5362547648365 109.86951160357373 l 4.212177822703222 2.2427474387300825 a25.772039195564428,25.772039195564428 0 0,0 -0.21127506654343692,0.38872232603324314 l -4.173057406544445 -2.314724598237929" fill="#ff2f04" stroke="none" /><line stroke="#e1ed5e" stroke-width="0.3" x1="174.33088141563837" x2="178.70328620479359" y1="141.23008692659167" y2="143.65538615756765" /><path d="M 175.20536237346943 141.71514677278685 a86.0,86.0 0 0,1 -30.301960400862466,31.631185727798858" fill="none" id="id17" stroke="none" /><text fill="#e1ed5e" style="font-size:6.75px; font-family:Arial;" text-anchor="middle"><textPath startOffset="22.145653131862474" xlink:href="#id17">May</textPath></text><path d="M 117.01052211995028 112.31430620078461 l 2.5204058535867717 1.8245794698398194 a24.11151665728394,24.11151665728394 0 0,0 -0.2455907008459011,0.3331909527572461 l -2.4887131331570425 -1.8675767318659429" fill="#ff1702" stroke="none" /><path d="M 116.57777611688842 112.89097897827486 l 2.721906906850554 2.1165712740737335 a24.44799233870884,24.44799233870884 0 0,0 -0.26046840902795637,0.3290933259752199 l -2.6851720671810355 -2.162984543963636" fill="#ff1c02" stroke="none" /><path d="M 115.89218393027572 113.72728997021213 l 4.682271760753217 4.044434827912287 a27.18717398484776,27.18717398484776 0 0,0 -0.30810698145841625,0.3505691864811902 l -4.612153715336214 -4.12421629220477" fill="#ff4306" stroke="none" /><path d="M 115.6541949942343 113.99807769240083 l 2.7216740915147173 2.43373775530774 a24.65110795814542,24.65110795814542 0 0,0 -0.2847816889257672,0.31302496253850615 l -2.6794947017470703 -2.4801002934039182" fill="#ff1f03" stroke="none" /><path d="M 115.41159269507618 114.26474011684316 l 3.828494455026881 3.5435973114694077 a26.21674723348034,26.21674723348034 0 0,0 -0.3085388636745577,0.3276575811382568 l -3.767099757616063 -3.6087963525521616" fill="#ff3505" stroke="none" /><line stroke="#e1ed5e" stroke-width="0.3" x1="143.1302829299769" x2="145.66735839644613" y1="173.24464959558577" y2="177.55315839532614" /><path d="M 143.63769802327073 174.10635135553383 a86.0,86.0 0 0,1 -40.68552437913181,11.842963189579606" fill="none" id="id18" stroke="none" /><text fill="#e1ed5e" style="font-size:6.75px; font-family:Arial;" text-anchor="middle"><textPath startOffset="21.407464694133747" xlink:href="#id18">June</textPath></text><path d="M 109.06512990194946 118.94263497670748 l 1.7385624335147798 3.6329268216227657 a25.027500046740524,25.027500046740524 0 0,0 -0.38913148708772316,0.1821331843576921 l -1.6759422325555504 -3.6622362375509914" fill="#ff2403" stroke="none" /><path d="M 108.73861861582097 119.09545874513695 l 8.501210711774675 18.57667962949071 a41.429478936642695,41.429478936642695 0 0,0 -0.6492326783202012,0.2903935191063414 l -8.181064630598847 -18.7198768995069" fill="#ffff18" stroke="none" /><path d="M 101.44090949804482 120.95050786540614 l 0.2583682036333722 3.756616976802981 a24.765491367544627,24.765491367544627 0 0,0 -0.4243810448012197,0.025529709824143394 l -0.1938428066996874 -3.760498664451816" fill="#ff2103" stroke="none" /><path d="M 101.08105385017728 120.97215588758144 l 0.07918234766931129 1.5361163910504019 a22.53815584744724,22.53815584744724 0 0,0 -0.3865553876102036,0.016600351589445183 l -0.05280119945827815 -1.537249311065678" fill="#ff0000" stroke="none" /><line stroke="#e1ed5e" stroke-width="0.3" x1="101.45913802915013" x2="101.54496967792366" y1="184.9874750549273" y2="189.98673829345242" /><path d="M 101.47630435890484 185.9873277026323 a86.0,86.0 0 0,1 -42.54439059252881,-10.42667462771756" fill="none" id="id19" stroke="none" /><text fill="#e1ed5e" style="font-size:6.75px; font-family:Arial;" text-anchor="middle"><textPath startOffset="22.145653131862474" xlink:href="#id19">July</textPath></text><path d="M 97.84075906011543 120.88869738790638 l -0.32227068332129144 3.1176765207370223 a24.134288640390874,24.134288640390874 0 0,0 -0.4117356742978909,-0.04613584110351162 l 0.3757422592199816 -3.1116849191265397" fill="#ff1702" stroke="none" /><path d="M 96.41257539226777 120.69131181640829 l -0.6847973792162845 3.949729305497635 a25.00865426761754,25.00865426761754 0 0,0 -0.42236671568352696,-0.0769692853731076 l 0.7524988284508687 -3.937391846193161" fill="#ff2403" stroke="none" /><path d="M 95.35216902796893 120.47920084513623 l -0.8741530569648108 3.851679661050394 a24.949630334392094,24.949630334392094 0 0,0 -0.41685824097210067,-0.09837740982327278 l 0.9401434516767994 -3.8361061075808935" fill="#ff2303" stroke="none" /><path d="M 94.6519064749342 120.30758222061772 l -0.9086340695645074 3.45023156189264 a24.567872433685583,24.567872433685583 0 0,0 -0.4069125224714115,-0.11090581745919477 l 0.9677279929706141 -3.4341252502893007" fill="#ff1e03" stroke="none" /><path d="M 94.30408787586889 120.21278271476187 l -1.037551225388383 3.681903269778667 a24.825300541566868,24.825300541566868 0 0,0 -0.40919186771813554,-0.11910978906657275 l 1.1006031054881251 -3.6635497864095785" fill="#ff2103" stroke="none" /><path d="M 93.95794788825049 120.11202640906438 l -1.3995421062911026 4.658620495441897 a25.86430498918736,25.86430498918736 0 0,0 -0.42412455701388607,-0.13139487191695332 l 1.4793072961766223 -4.633909035718295" fill="#ff3004" stroke="none" /><path d="M 91.92203290615298 119.3841803445677 l -1.2299668580824987 2.951472705685173 a24.197500524532543,24.197500524532543 0 0,0 -0.3820496401180993,-0.1630742732905346 l 1.280451573371029 -2.9299237827352345" fill="#ff1802" stroke="none" /><path d="M 90.6110303473126 118.78422872680471 l -2.0076882556000952 4.016721408244963 a25.49053036991489,25.49053036991489 0 0,0 -0.3897293050410895,-0.1989985600852201 l 2.076344782354767 -3.981664896486907" fill="#ff2b04" stroke="none" /><line stroke="#e1ed5e" stroke-width="0.3" x1="58.13341422392154" x2="55.67067388415222" y1="173.97424548756322" y2="178.32567169271397" /><path d="M 57.64086615596768 174.84453072859336 a86.0,86.0 0 0,1 -31.369924170532247,-30.572349798747897" fill="none" id="id20" stroke="none" /><text fill="#e1ed5e" style="font-size:6.75px; font-family:Arial;" text-anchor="middle"><textPath startOffset="22.145653131862474" xlink:href="#id20">August</textPath></text><path d="M 87.83215693770417 117.11559508785305 l -2.2223746468599948 3.1260482564104675 a24.835508671925147,24.835508671925147 0 0,0 -0.3453542928202137,-0.2500098750382153 l 2.2757099500541624 -3.0874376099991867" fill="#ff2203" stroke="none" /><path d="M 87.54013794807813 116.9041958592261 l -2.6370964484181054 3.5777278013164904 a25.444593783302622,25.444593783302622 0 0,0 -0.3493748840854765,-0.2621774263668105 l 2.6981243214143484 -3.531931347685665" fill="#ff2a04" stroke="none" /><path d="M 85.60350026404147 115.28858382429668 l -2.917694122202814 3.0984900482120885 a25.256005118606673,25.256005118606673 0 0,0 -0.31308728711903666,-0.29993053873907727 l 2.970453895187165 -3.0479473791674287" fill="#ff2803" stroke="none" /><path d="M 83.64595745247003 113.17365903436017 l -7.890100796356935 6.355706690615082 a31.13156938059458,31.13156938059458 0 0,0 -0.3316751017738235,-0.4190606561204995 l 7.99804232877232 -6.2193260905799015" fill="#ff7a0b" stroke="none" /><path d="M 82.78059297857968 112.02048342749411 l -2.776819459552448 1.9384356414347736 a24.386481809626886,24.386481809626886 0 0,0 -0.23667691789373071,-0.34531869638233714 l 2.8096861142615035 -1.8904822099823855" fill="#ff1b02" stroke="none" /><path d="M 82.37810715431573 111.42229804090323 l -3.4528778636536894 2.238113714733473 a25.114792648650443,25.114792648650443 0 0,0 -0.23139371695228655,-0.36378935652381345 l 3.490789272231866 -2.1785106835309875" fill="#ff2603" stroke="none" /><path d="M 82.18462484594161 111.11811171558189 l -3.5688410154454733 2.227220743978248 a25.20679669534111,25.20679669534111 0 0,0 -0.2259393643582303,-0.3690549716767411 l 3.6065483442591084 -2.1656286561769496" fill="#ff2703" stroke="none" /><path d="M 81.99639281039703 110.81064883170644 l -3.1998242978448723 1.921402552436239 a24.73238038061328,24.73238038061328 0 0,0 -0.21543821822308823,-0.36586119383603916 l 3.2323362261977304 -1.866190190306641" fill="#ff2003" stroke="none" /><line stroke="#e1ed5e" stroke-width="0.3" x1="26.387840678322732" x2="22.057713659400548" y1="142.50000000000003" y2="145.00000000000006" /><path d="M 25.521815274538298 143.00000000000003 a86.0,86.0 0 0,1 -11.493303480769221,-40.785679425670985" fill="none" id="id21" stroke="none" /><text fill="#e1ed5e" style="font-size:6.75px; font-family:Arial;" text-anchor="middle"><textPath startOffset="21.40746469413373" xlink:href="#id21">September</textPath></text><path d="M 81.63589988554817 110.18625677009913 l -12.362266268275176 6.857140708456926 a35.13669006462656,35.13669006462656 0 0,0 -0.2880449806547765,-0.5299703212224746 l 12.478156598545281 -6.643915553759864" fill="#ffaf10" stroke="none" /><path d="M 81.4637452351635 109.86951160357371 l -5.02751257499018 2.6768672704103302 a26.69574411952279,26.69574411952279 0 0,0 -0.21190310178256652,-0.4063521381393493 l 5.0727237457476955 -2.5901688891664785" fill="#ff3c05" stroke="none" /><path d="M 81.29705330413844 109.54985784667822 l -3.5604993511489815 1.8180163382589645 a24.9977917699286,24.9977917699286 0 0,0 -0.19186410699961992,-0.383856738669233 l 3.591183371360338 -1.7566277434259787" fill="#ff2403" stroke="none" /><path d="M 80.9802524753101 108.90220220490708 l -3.9438098282326184 1.8459021342450253 a25.3544219651378,25.3544219651378 0 0,0 -0.18112177044718417,-0.3957837557023843 l 3.9749160635348586 -1.777929396327952" fill="#ff2904" stroke="none" /><path d="M 79.56144815229197 104.8234425847677 l -14.73646332615163 3.4777652196624795 a36.141274790654386,36.141274790654386 0 0,0 -0.13731815132161637,-0.6050491116223375 l 14.793992339030915 -3.2242817741011156" fill="#ffbc11" stroke="none" /><path d="M 79.407916724674 104.11899336999214 l -5.1209322201246525 1.0243298640962124 a26.222374792524008,26.222374792524008 0 0,0 -0.08450311082747648,-0.4421559834651344 l 5.137761623234286 -0.9362713155977636" fill="#ff3505" stroke="none" /><line stroke="#e1ed5e" stroke-width="0.3" x1="15.003131293944662" x2="10.003315487706104" y1="100.72959589197737" y2="100.7725132973878" /><path d="M 14.003168132696942 100.73817937305945 a86.0,86.0 0 0,1 10.791469493833604,-42.45332614584628" fill="none" id="id22" stroke="none" /><text fill="#e1ed5e" style="font-size:6.75px; font-family:Arial;" text-anchor="middle"><textPath startOffset="22.145653131862435" xlink:href="#id22">October</textPath></text><path d="M 80.5471966667186 92.08871423366112 l -5.209790812959596 -2.1187765690127773 a26.624156333548683,26.624156333548683 0 0,0 0.1758134473563633,-0.4218882710170703 l 5.172651521066754 2.207897349471111" fill="#ff3b05" stroke="none" /><path d="M 80.68587082218212 91.75594674310238 l -5.537965370520787 -2.3638281088987845 a27.021357303258746,27.021357303258746 0 0,0 0.18576040269065064,-0.4250561544478695 l 5.496571085813159 2.458546333122521" fill="#ff4106" stroke="none" /><path d="M 81.29705330413844 90.45014215332179 l -5.8909613941277605 -3.0079668626034066 a27.61447585176814,27.61447585176814 0 0,0 0.21919572876076773,-0.4203367119389581 l 5.838457596392053 3.1086498176468513" fill="#ff4906" stroke="none" /><path d="M 81.46374523516351 90.13048839642627 l -4.448530175094708 -2.3685917537793606 a26.039806307270126,26.039806307270126 0 0,0 0.21347017861486078,-0.3927610850040441 l 4.407214646864497 2.4446076722580243" fill="#ff3304" stroke="none" /><line stroke="#e1ed5e" stroke-width="0.3" x1="26.387840678322718" x2="22.05771365940052" y1="57.49999999999999" y2="54.99999999999999" /><path d="M 25.521815274538284 56.99999999999999 a86.0,86.0 0 0,1 29.574782752854787,-30.34633250058573" fill="none" id="id23" stroke="none" /><text fill="#e1ed5e" style="font-size:6.75px; font-family:Arial;" text-anchor="middle"><textPath startOffset="21.40746469413373" xlink:href="#id23">November</textPath></text><path d="M 82.576782715395 88.27688183743585 l -3.836335604535988 -2.5812578049500554 a25.623890431903213,25.623890431903213 0 0,0 0.24868627870198895,-0.362840712705681 l 3.7914595890186855 2.646733252725771" fill="#ff2d04" stroke="none" /><path d="M 82.78059297857968 87.97951657250589 l -4.140976553764485 -2.890723238973764 a26.05014531109454,26.05014531109454 0 0,0 0.2591181922184708,-0.3644821876155135 l 4.0907432630160425 2.9613826532987977" fill="#ff3304" stroke="none" /><path d="M 82.98947788004972 87.6856937992154 l -3.4160907771179883 -2.4729862812247445 a25.217266572631658,25.217266572631658 0 0,0 0.25685344721439946,-0.3484710312791858 l 3.3731353103197703 2.5312636217727937" fill="#ff2703" stroke="none" /><path d="M 83.2033758604659 87.39550010848427 l -4.598911579058735 -3.451108985816964 a26.749794861035227,26.749794861035227 0 0,0 0.2787685576912136,-0.3649169906087171 l 4.538991044013215 3.5295468896665656" fill="#ff3d05" stroke="none" /><path d="M 85.60350026404147 84.71141617570332 l -3.510115225797687 -3.727620730510503 a26.12016261547506,26.12016261547506 0 0,0 0.3290770188806174,-0.30458877584126937 l 3.4456084356031162 3.7873272524841384" fill="#ff3404" stroke="none" /><path d="M 86.13680546590413 84.22622945171909 l -3.3780126952784664 -3.8435583539892635 a26.117021652287896,26.117021652287896 0 0,0 0.339298068296292,-0.29307759023370666 l 3.3115351472193257 3.9009800766876808" fill="#ff3404" stroke="none" /><path d="M 86.68645165197937 83.75963576809568 l -4.157923858841694 -5.071991038824264 a27.558462008263724,27.558462008263724 0 0,0 0.36842937995306063,-0.29678062874279215 l 4.070243708533388 5.142619961360455" fill="#ff4806" stroke="none" /><path d="M 88.72937992617638 82.28071324371311 l -3.1477035943774165 -4.948712870031684 a26.864963511231227,26.864963511231227 0 0,0 0.39125092954716006,-0.2441695168310647 l 3.062288536040558 5.002018183704284" fill="#ff3f05" stroke="none" /><line stroke="#e1ed5e" stroke-width="0.3" x1="56.869717070023135" x2="54.33264160355391" y1="26.7553504044142" y2="22.446841604673864" /><path d="M 56.362301976729285 25.89364864446614 a86.0,86.0 0 0,1 42.16139366436587,-11.88097634709845" fill="none" id="id24" stroke="none" /><text fill="#e1ed5e" style="font-size:6.75px; font-family:Arial;" text-anchor="middle"><textPath startOffset="22.145653131862474" xlink:href="#id24">December</textPath></text></svg>