<?xml version="1.0" encoding="utf-8" ?>
<svg baseProfile="full" height="200mm" version="1.1" viewBox="0,0,200,200" width="200mm" xmlns="http://www.w3.org/2000/svg" xmlns:ev="http://www.w3.org/2001/xml-events" xmlns:xlink="http://www.w3.org/1999/xlink"><defs /><rect fill="#1a1a1a" height="200" width="200" x="0" y="0" /><text alignment-baseline="middle" fill="#e1ed5e" style="dominant-baseline: central; font-size:9.0px; font-family:Arial;" text-anchor="middle" x="100.0" y="100.0">2024</text><line stroke="#e1ed5e" stroke-width="0.3" x1="100.0" x2="100.0" y1="15.0" y2="10.0" /><path d="M 100.0 14.0 a86.0,86.0 0 0,1 42.35913384403234,11.155469271406648" fill="none" id="id13" stroke="none" /><text fill="#e1ed5e" style="font-size:6.75px; font-family:Arial;" text-anchor="middle"><textPath startOffset="22.145653131862478" xlink:href="#id13">January</textPath></text><path d="M 100.36049292484886 79.00309439819443 l 0.10307664591192309 -6.00369786694376 a27.004582655978474,27.004582655978474 0 0,0 0.4634329546805152,0.011936389002707713 l -0.20612291466317967 6.001043760591007" fill="#ff2003" stroke="none" /><path d="M 100.72087961077811 79.0123766808444 l 0.35199404953656344 -10.247922693060424 a31.253966029485955,31.253966029485955 0 0,0 0.5360415925179717,0.023019932427737085 l -0.5278614026553714 10.240370192206855" fill="#ff5f08" stroke="none" /><path d="M 101.44090949804482 79.04949213459386 l 1.1979039358009766 -17.417260322770648 a38.458405740232074,38.458405740232074 0 0,0 0.6582449254549307,0.05095232026207157 l -1.496717856031141 17.394130235513526" fill="#ffc312" stroke="none" /><path d="M 103.94208987418118 79.37332000966035 l 2.0352400774263466 -10.649236095690798 a31.841975447054203,31.841975447054203 0 0,0 0.5360119156271733,0.10721739501464896 l -2.2177484785844768 10.61272930401329" fill="#ff6709" stroke="none" /><path d="M 104.9986988182912 79.60360301121754 l 0.9227375530373293 -3.7650841013543728 a24.876506530635126,24.876506530635126 0 0,0 0.41389141451656286,0.10520957906032422 l -0.9872342607792867 3.7486892904587807" fill="#ff0000" stroke="none" /><path d="M 105.3480935250658 79.69241777938227 l 6.1105543613023405 -23.202770206636337 a44.99390380626716,44.99390380626716 0 0,0 0.7452245994464304,0.2031142784457206 l -6.507960361683463 23.094455434046473" fill="#e7ff1a" stroke="none" /><path d="M 105.69591212413111 79.78721728523813 l 5.215532069713527 -18.50808337094443 a40.22890857110824,40.22890857110824 0 0,0 0.6630873292716654,0.19301505761270088 l -5.532479411366797 18.415824619029213" fill="#ffdb14" stroke="none" /><path d="M 106.72888874123014 80.10723608172694 l 1.4999397992881671 -4.43430549475939 a25.681120017938223,25.681120017938223 0 0,0 0.41639395873938573,0.14484343372946437 l -1.5758395300725714 4.4079036284613355" fill="#ff0c01" stroke="none" /><path d="M 108.73861861582097 80.90454125486305 l 3.552712120143592 -7.7633171449692115 a29.5376142160435,29.5376142160435 0 0,0 0.45925544794512757,0.2149547388053118 l -3.685456281960225 7.701186174593366" fill="#ff4606" stroke="none" /><line stroke="#e1ed5e" stroke-width="0.3" x1="143.13028292997686" x2="145.6673583964461" y1="26.7553504044142" y2="22.446841604673864" /><path d="M 143.63769802327073 25.89364864446614 a86.0,86.0 0 0,1 29.32050498858742,28.57503671076993" fill="none" id="id14" stroke="none" /><text fill="#e1ed5e" style="font-size:6.75px; font-family:Arial;" text-anchor="middle"><textPath startOffset="20.669276256404974" xlink:href="#id14">February</textPath></text><path d="M 111.27062007382361 82.28071324371311 l 2.0789268094016813 -3.268418244944338 a24.873563540557207,24.873563540557207 0 0,0 0.35831477847556276,0.23225531037152067 l -2.134727220134251 3.2322490928689227" fill="#ff0000" stroke="none" /><path d="M 114.13192950727249 84.46653392183569 l 4.006713743225933 -4.404080276743959 a26.953963226638262,26.953963226638262 0 0,0 0.3395817245174602,0.3143117745525839 l -4.0817252390573575 4.334650756058999" fill="#ff2003" stroke="none" /><path d="M 115.8921839302757 86.27271002978787 l 4.4405286619462565 -3.8356228968284274 a26.86773361735523,26.86773361735523 0 0,0 0.29849468186531897,0.35162598468314643 l -4.5057179073186875 3.758830129695729" fill="#ff1e03" stroke="none" /><path d="M 116.35404254752997 86.82634096563983 l 7.27218131668151 -5.857954498013456 a30.33810751723751,30.33810751723751 0 0,0 0.3232215753529376,0.4083799016426296 l -7.3716693226760075 5.732254652456148" fill="#ff5207" stroke="none" /><path d="M 117.81537515405839 88.88188828441811 l 7.818382097501796 -4.8792486738809195 a30.215973429003867,30.215973429003867 0 0,0 0.2708387706906131,0.4423947775993027 l -7.900988832647811 4.744316780157062" fill="#ff5007" stroke="none" /><line stroke="#e1ed5e" stroke-width="0.3" x1="172.87174338648825" x2="177.1583165268699" y1="56.24261187166439" y2="53.66864786411523" /><path d="M 173.72905801456457 55.72781907015455 a86.0,86.0 0 0,1 12.242430191666344,42.057860355516425" fill="none" id="id15" stroke="none" /><text fill="#e1ed5e" style="font-size:6.75px; font-family:Arial;" text-anchor="middle"><textPath startOffset="22.145653131862474" xlink:href="#id15">March</textPath></text><path d="M 118.36410011445183 89.81374322990088 l 40.94348129531163 -22.710658890798797 a67.8203234486238,67.8203234486238 0 0,0 0.5559801939177286,1.0229409354543149 l -41.3273068388447 22.00446312186988" fill="#38ff80" stroke="none" /><path d="M 118.70294669586156 90.45014215332178 l 8.364900510843173 -4.271177803112405 a30.392258534671225,30.392258534671225 0 0,0 0.23326794610998264,0.46669215222223065 l -8.436988370164892 4.126953794726424" fill="#ff5207" stroke="none" /><path d="M 119.58574465831526 92.42381321644754 l 15.07412846698268 -5.830996720190552 a37.162607208924264,37.162607208924264 0 0,0 0.2250449212586399,0.5969583905835911 l -15.172004072055762 5.571370049412804" fill="#ffb210" stroke="none" /><path d="M 119.71291397450082 92.76114493625339 l 22.35949892707269 -8.210717717352367 a44.819384494646556,44.819384494646556 0 0,0 0.25901299433359204,0.7245054434502692 l -22.497152091450225 7.825677317521182" fill="#e9ff1a" stroke="none" /><path d="M 119.83427380445688 93.10060997987247 l 13.477555271549704 -4.688193339115467 a35.269675990806654,35.269675990806654 0 0,0 0.19400770254082433,0.5735492996523494 l -13.556048395662893 4.456142364988956" fill="#ff980e" stroke="none" /><path d="M 120.05942366710727 93.78553927170692 l 60.17827100132179 -18.643382184879226 a84.0,84.0 0 0,0 0.41489471998549066,1.3810495856371061 l -60.48944204131091 17.607594995651397" fill="#4dd2ff" stroke="none" /><line stroke="#e1ed5e" stroke-width="0.3" x1="184.99686870605535" x2="189.99668451229388" y1="99.2704041080226" y2="99.22748670261217" /><path d="M 185.99683186730306 99.26182062694052 a86.0,86.0 0 0,1 -10.086455211305974,41.156179273409016" fill="none" id="id16" stroke="none" /><text fill="#e1ed5e" style="font-size:6.75px; font-family:Arial;" text-anchor="middle"><textPath startOffset="21.40746469413373" xlink:href="#id16">April</textPath></text><line stroke="#e1ed5e" stroke-width="0.3" x1="174.33088141563837" x2="178.70328620479359" y1="141.23008692659167" y2="143.65538615756765" /><path d="M 175.20536237346943 141.71514677278685 a86.0,86.0 0 0,1 -30.301960400862466,31.631185727798858" fill="none" id="id17" stroke="none" /><text fill="#e1ed5e" style="font-size:6.75px; font-family:Arial;" text-anchor="middle"><textPath startOffset="22.145653131862474" xlink:href="#id17">May</textPath></text><line stroke="#e1ed5e" stroke-width="0.3" x1="143.1302829299769" x2="145.66735839644613" y1="173.24464959558577" y2="177.55315839532614" /><path d="M 143.63769802327073 174.10635135553383 a86.0,86.0 0 0,1 -40.68552437913181,11.842963189579606" fill="none" id="id18" stroke="none" /><text fill="#e1ed5e" style="font-size:6.75px; font-family:Arial;" text-anchor="middle"><textPath startOffset="21.407464694133747" xlink:href="#id18">June</textPath></text><line stroke="#e1ed5e" stroke-width="0.3" x1="101.45913802915013" x2="101.54496967792366" y1="184.9874750549273" y2="189.98673829345242" /><path d="M 101.47630435890484 185.9873277026323 a86.0,86.0 0 0,1 -42.54439059252881,-10.42667462771756" fill="none" id="id19" stroke="none" /><text fill="#e1ed5e" style="font-size:6.75px; font-family:Arial;" text-anchor="middle"><textPath startOffset="22.145653131862474" xlink:href="#id19">July</textPath></text><line stroke="#e1ed5e" stroke-width="0.3" x1="58.13341422392154" x2="55.67067388415222" y1="173.97424548756322" y2="178.32567169271397" /><path d="M 57.64086615596768 174.84453072859336 a86.0,86.0 0 0,1 -31.369924170532247,-30.572349798747897" fill="none" id="id20" stroke="none" /><text fill="#e1ed5e" style="font-size:6.75px; font-family:Arial;" text-anchor="middle"><textPath startOffset="22.145653131862474" xlink:href="#id20">August</textPath></text><line stroke="#e1ed5e" stroke-width="0.3" x1="26.387840678322732" x2="22.057713659400548" y1="142.50000000000003" y2="145.00000000000006" /><path d="M 25.521815274538298 143.00000000000003 a86.0,86.0 0 0,1 -11.493303480769221,-40.785679425670985" fill="none" id="id21" stroke="none" /><text fill="#e1ed5e" style="font-size:6.75px; font-family:Arial;" text-anchor="middle"><textPath startOffset="21.40746469413373" xlink:href="#id21">September</textPath></text><line stroke="#e1ed5e" stroke-width="0.3" x1="15.003131293944662" x2="10.003315487706104" y1="100.72959589197737" y2="100.7725132973878" /><path d="M 14.003168132696942 100.73817937305945 a86.0,86.0 0 0,1 10.791469493833604,-42.45332614584628" fill="none" id="id22" stroke="none" /><text fill="#e1ed5e" style="font-size:6.75px; font-family:Arial;" text-anchor="middle"><textPath startOffset="22.145653131862435" xlink:href="#id22">October</textPath></text><line stroke="#e1ed5e" stroke-width="0.3" x1="26.387840678322718" x2="22.05771365940052" y1="57.49999999999999" y2="54.99999999999999" /><path d="M 25.521815274538284 56.99999999999999 a86.0,86.0 0 0,1 29.574782752854787,-30.34633250058573" fill="none" id="id23" stroke="none" /><text fill="#e1ed5e" style="font-size:6.75px; font-family:Arial;" text-anchor="middle"><textPath startOffset="21.40746469413373" xlink:href="#id23">November</textPath></text><line stroke="#e1ed5e" stroke-width="0.3" x1="56.869717070023135" x2="54.33264160355391" y1="26.7553504044142" y2="22.446841604673864" /><path d="M 56.362301976729285 25.89364864446614 a86.0,86.0 0 0,1 42.16139366436587,-11.88097634709845" fill="none" id="id24" stroke="none" /><text fill="#e1ed5e" style="font-size:6.75px; font-family:Arial;" text-anchor="middle"><textPath startOffset="22.145653131862474" xlink:href="#id24">December</textPath></text></svg>